<?xml version="1.0" encoding="UTF-8" standalone="no"?>
<!-- Created with Inkscape (http://www.inkscape.org/) -->
<svg id="svg2" xmlns:rdf="http://www.w3.org/1999/02/22-rdf-syntax-ns#" xmlns="http://www.w3.org/2000/svg" xmlns:ns0="http://www.iki.fi/pav/software/textext/" height="78.358" width="202.92" version="1.1" xmlns:cc="http://creativecommons.org/ns#" viewBox="0 0 202.91585 78.357904" xmlns:dc="http://purl.org/dc/elements/1.1/">
 <style type="text/css">
	@import url('../estilo.css');
 </style>
 <metadata id="metadata7">
  <rdf:RDF>
   <cc:Work rdf:about="">
    <dc:format>image/svg+xml</dc:format>
    <dc:type rdf:resource="http://purl.org/dc/dcmitype/StillImage"/>
    <dc:title/>
   </cc:Work>
  </rdf:RDF>
 </metadata>
 <g id="layer1" transform="translate(-255.07 -292.24)">
  <path id="path4255" d="m280 347.36s2.6649-4.6795 5-5c4.349-0.59696 8.8422 3.5738 10 5 3.3218 4.0919 10.035 6.7685 15 5 11.503-4.0973 6.7631-29.287 25-30 17.387-0.67987 33.471 20.439 50 15 7.9157-2.6049 9.54-13.705 15-20 3.0886-3.5612 10-10 10-10" stroke="#000" stroke-width="1px" fill="none"/>
  <circle id="path4292" cx="295" cy="347.36" r="2.5048"/>
  <circle id="circle4294" cy="317.36" cx="400" r="2.5048"/>
  <path id="path4296" d="m320 357.36c-40.248 17.535-77.42-18.763-50-40 2.7318-2.9111 0.63013-3.6565 0-5 21.286-18.232 40.111-10.641 60-10 29.543-9.4005 54.556-2.7371 65 5 15.57-14.645 57.377-10.206 45 20 8.7064 23.12-5.2434 38.291-20 30-11.147 6.2332-22.314 12.229-35 0-15.378 2.0446-27.488 0.82168-35-5-6.9783 10.732-14.519 19.776-30 5z" stroke="#000" stroke-dasharray="1,1" fill="none"/>
  <g>
   <g id="content" xml:space="preserve" stroke="#000" stroke-width="0" fill-rule="evenodd" ns0:pdfconverter="pstoedit" transform="matrix(1.75 0 0 -1.75 29.115 1577.5)" stroke-miterlimit="10.433" ns0:text="$\n\\rm\nA_1\n$" ns0:version="0.7.2" ns0:inkscapeversion="0.91" ns0:preamble="/usr/share/inkscape/extensions/default_packages.tex" ns0:scale="1.4" ns0:texconverter="pdflatex"><path id="path4310" d="m155.74 707.31-0.04 0.01h-0.04-0.03l-0.04 0.01h-0.03l-0.04 0.01-0.03 0.01-0.03 0.01-0.03 0.01-0.02 0.01-0.03 0.01-0.03 0.01-0.02 0.02-0.02 0.02-0.03 0.02-0.02 0.02-0.03 0.02-0.02 0.03-0.02 0.03-0.02 0.03-0.03 0.03-0.02 0.04-0.02 0.04-0.03 0.04-0.02 0.04-0.03 0.05-0.03 0.05-0.02 0.05-0.03 0.06-0.02 0.03-0.01 0.03-0.02 0.03-0.01 0.03-0.02 0.03-0.01 0.04-2.48 5.66h-0.2l-2.07-4.89c-0.64-1.46-0.76-1.62-1.24-1.64v-0.19h1.97v0.19c-0.48 0-0.68 0.13-0.68 0.41 0 0.12 0.03 0.26 0.08 0.39l0.46 1.16h2.61l-0.14 0.41h-2.3l1.15 2.74 1.15-2.74 0.14-0.41 0.41-0.95c0.12-0.27 0.19-0.53 0.19-0.67 0-0.25-0.17-0.33-0.7-0.34v-0.19h2.54z"/><path id="path4312" d="m157.93 710.34-1.25-0.63v-0.1c0.08 0.04 0.16 0.06 0.19 0.08 0.12 0.05 0.24 0.08 0.31 0.08 0.14 0 0.21-0.11 0.21-0.33v-3.16c0-0.23-0.06-0.39-0.17-0.45-0.1-0.07-0.2-0.09-0.49-0.1v-0.1h1.92v0.1c-0.55 0.01-0.66 0.08-0.66 0.42v4.18z"/></g>
   <g id="g4340" xml:space="preserve" stroke="#000" stroke-width="0" fill-rule="evenodd" ns0:pdfconverter="pstoedit" transform="matrix(1.75 0 0 -1.75 142.7 1564.5)" stroke-miterlimit="10.433" ns0:text="$\n\\rm\nA_2\n$" ns0:version="0.7.2" ns0:inkscapeversion="0.91" ns0:preamble="/usr/share/inkscape/extensions/default_packages.tex" ns0:scale="1.4" ns0:texconverter="pdflatex"><path id="path4342" d="m155.74 707.31-0.04 0.01h-0.04-0.03l-0.04 0.01h-0.03l-0.04 0.01-0.03 0.01-0.03 0.01-0.03 0.01-0.02 0.01-0.03 0.01-0.03 0.01-0.02 0.02-0.02 0.02-0.03 0.02-0.02 0.02-0.03 0.02-0.02 0.03-0.02 0.03-0.02 0.03-0.03 0.03-0.02 0.04-0.02 0.04-0.03 0.04-0.02 0.04-0.03 0.05-0.03 0.05-0.02 0.05-0.03 0.06-0.02 0.03-0.01 0.03-0.02 0.03-0.01 0.03-0.02 0.03-0.01 0.04-2.48 5.66h-0.2l-2.07-4.89c-0.64-1.46-0.76-1.62-1.24-1.64v-0.19h1.97v0.19c-0.48 0-0.68 0.13-0.68 0.41 0 0.12 0.03 0.26 0.08 0.39l0.46 1.16h2.61l-0.14 0.41h-2.3l1.15 2.74 1.15-2.74 0.14-0.41 0.41-0.95c0.12-0.27 0.19-0.53 0.19-0.67 0-0.25-0.17-0.33-0.7-0.34v-0.19h2.54z"/><path id="path4344" d="m159.21 706.59-0.09 0.03c-0.25-0.4-0.34-0.46-0.66-0.46h-1.67l1.18 1.23c0.62 0.65 0.89 1.18 0.89 1.72 0 0.7-0.57 1.23-1.29 1.23-0.38 0-0.75-0.15-1-0.43-0.23-0.24-0.33-0.46-0.45-0.95l0.14-0.04c0.28 0.68 0.53 0.91 1.02 0.91 0.58 0 0.98-0.4 0.98-0.99 0-0.54-0.32-1.19-0.91-1.81l-1.24-1.32v-0.08h2.72z"/></g>
   <text id="text4361" style="word-spacing:0px;letter-spacing:0px" xml:space="preserve" font-size="16px" line-height="125%" y="362.52484" x="443.65662" font-family="&apos;STIX Two Text&apos;" fill="#000000"><tspan id="tspan4363" x="443.65662" y="362.52484">B</tspan></text>
  </g>
 </g>
</svg>
