<?xml version="1.0" encoding="UTF-8" standalone="no"?>
<!-- Created with Inkscape (http://www.inkscape.org/) -->
<svg id="svg4485" xmlns:rdf="http://www.w3.org/1999/02/22-rdf-syntax-ns#" xmlns="http://www.w3.org/2000/svg" xmlns:ns0="http://www.iki.fi/pav/software/textext/" height="76.119" width="102.05" version="1.1" xmlns:cc="http://creativecommons.org/ns#" viewBox="0 0 102.0483 76.118989" xmlns:dc="http://purl.org/dc/elements/1.1/">
 <style type="text/css">
	@import url('../estilo.css');
 </style>
 <metadata id="metadata4490">
  <rdf:RDF>
   <cc:Work rdf:about="">
    <dc:format>image/svg+xml</dc:format>
    <dc:type rdf:resource="http://purl.org/dc/dcmitype/StillImage"/>
    <dc:title/>
   </cc:Work>
  </rdf:RDF>
 </metadata>
 <g id="layer1" transform="translate(-194.49 -351.82)">
  <path id="path5187" d="m235 407.36c-3.2129-10.906-35.576-15.241-35-25 0.23208-3.9354 15.563-7.9771 28.826-11.032 12.013-2.7673 16.782-12.208 31.174-13.968 6.327-0.77369 24.41 9.3445 25 20 0.91241 16.474-18.612 33.088-35 35-9.1144 1.0633-15-5-15-5" stroke="#000" stroke-width="1px" fill="none"/>
  <g>
   <circle id="circle4279" cx="235" stroke="#000" cy="407.36" r="1.0669" stroke-width="3"/>
   <g id="content" xml:space="preserve" stroke="#000" stroke-width="0" fill-rule="evenodd" ns0:pdfconverter="pstoedit" transform="matrix(1.75 0 0 -1.75 3.9328 1657.6)" stroke-miterlimit="10.433" ns0:text="$\n\\rm\nC_3\n$" ns0:version="0.7.2" ns0:inkscapeversion="0.91" ns0:preamble="/usr/share/inkscape/extensions/default_packages.tex" ns0:scale="1.4" ns0:texconverter="pdflatex"><path id="path4155" d="m154.89 711.61-0.09 2.25h-0.21c-0.06-0.21-0.22-0.33-0.42-0.33-0.09 0-0.24 0.03-0.39 0.09-0.49 0.16-0.99 0.24-1.45 0.24-0.82 0-1.65-0.31-2.26-0.86-0.7-0.62-1.08-1.54-1.08-2.64 0-0.93 0.3-1.78 0.81-2.35 0.59-0.65 1.51-1.03 2.5-1.03 1.12 0 2.11 0.46 2.72 1.27l-0.18 0.18c-0.74-0.71-1.4-1.01-2.22-1.01-0.63 0-1.19 0.2-1.62 0.58-0.55 0.49-0.85 1.38-0.85 2.49 0 1.8 0.92 2.97 2.37 2.97 0.56 0 1.08-0.21 1.48-0.61 0.32-0.32 0.47-0.6 0.66-1.24z"/><path id="path4157" d="m156.42 707.93h0.04 0.04 0.03 0.03 0.04 0.03 0.03 0.03 0.03 0.02l0.03-0.01h0.02 0.03 0.02 0.02 0.02l0.02-0.01h0.02 0.02 0.02l0.02-0.01h0.02l0.03-0.01h0.04l0.03-0.01 0.03-0.01 0.03-0.02c0.43-0.15 0.71-0.55 0.71-1.03 0-0.58-0.4-1.04-0.92-1.04-0.19 0-0.33 0.05-0.58 0.22-0.21 0.12-0.33 0.17-0.45 0.17-0.16 0-0.27-0.09-0.27-0.24 0-0.24 0.31-0.4 0.79-0.4 0.54 0 1.09 0.18 1.42 0.47s0.51 0.69 0.51 1.16c0 0.35-0.11 0.68-0.32 0.9-0.14 0.15-0.27 0.23-0.57 0.37 0.48 0.32 0.65 0.58 0.65 0.96 0 0.56-0.45 0.95-1.09 0.95-0.35 0-0.65-0.11-0.9-0.34-0.21-0.19-0.32-0.37-0.47-0.78l0.1-0.03c0.29 0.51 0.6 0.74 1.04 0.74 0.46 0 0.77-0.31 0.77-0.75 0-0.25-0.1-0.5-0.28-0.68-0.21-0.21-0.4-0.31-0.88-0.48z"/></g>
   <text id="text4169" style="word-spacing:0px;letter-spacing:0px" xml:space="preserve" font-size="16px" line-height="125%" y="404.83887" x="284.62885" font-family="&apos;STIX Two Text&apos;" fill="#000000"><tspan id="tspan4171" x="284.62885" y="404.83887">ν</tspan></text>
  </g>
 </g>
</svg>
