<?xml version="1.0" encoding="UTF-8" standalone="no"?>
<!-- Created with Inkscape (http://www.inkscape.org/) -->
<svg id="svg2" xmlns:rdf="http://www.w3.org/1999/02/22-rdf-syntax-ns#" xmlns="http://www.w3.org/2000/svg" xmlns:ns0="http://www.iki.fi/pav/software/textext/" height="104.11" width="194.69" version="1.1" xmlns:cc="http://creativecommons.org/ns#" viewBox="0 0 194.68761 104.10831" xmlns:dc="http://purl.org/dc/elements/1.1/">
 <metadata id="metadata7">
  <rdf:RDF>
   <cc:Work rdf:about="">
    <dc:format>image/svg+xml</dc:format>
    <dc:type rdf:resource="http://purl.org/dc/dcmitype/StillImage"/>
    <dc:title/>
   </cc:Work>
  </rdf:RDF>
 </metadata>
 <g id="layer1" transform="translate(-140.03 -196.75)">
  <g stroke="#000" fill="none">
   <path id="path4355" d="m165 257.36 60-35 35 15 35-15 20 40c-15.649 0.98255-31.515-0.50705-45 25l-35-10-25 15-10-25-30 25" stroke-width="1px"/>
   <g stroke-width="3">
    <path id="path4357" d="m165 253.86v7"/>
    <path id="path4359" d="m225 218.86v7"/>
    <path id="path4361" d="m260 233.86v7"/>
    <path id="path4363" d="m295 218.86v7"/>
    <path id="path4365" d="m315 258.86v7"/>
    <path id="path4367" d="m270 283.86v7"/>
    <path id="path4369" d="m235 273.86v7"/>
    <path id="path4371" d="m210 288.86v7"/>
    <path id="path4373" d="m200 263.86v7"/>
    <path id="path4375" d="m170 288.86v7"/>
   </g>
  </g>
  <g stroke-width="0" fill-rule="evenodd" stroke="#000" stroke-miterlimit="10.433">
   <g id="content" xml:space="preserve" ns0:pdfconverter="pstoedit" transform="matrix(1.75 0 0 -1.75 -84.966 1471.5)" ns0:text="$\n\\rm\nC_1\n$" ns0:version="0.7.2" ns0:inkscapeversion="0.91" ns0:preamble="/usr/share/inkscape/extensions/default_packages.tex" ns0:scale="1.4" ns0:texconverter="pdflatex"><path id="path4454" d="m154.89 711.61-0.09 2.25h-0.21c-0.06-0.21-0.22-0.33-0.42-0.33-0.09 0-0.24 0.03-0.39 0.09-0.49 0.16-0.99 0.24-1.45 0.24-0.82 0-1.65-0.31-2.26-0.86-0.7-0.62-1.08-1.54-1.08-2.64 0-0.93 0.3-1.78 0.81-2.35 0.59-0.65 1.51-1.03 2.5-1.03 1.12 0 2.11 0.46 2.72 1.27l-0.18 0.18c-0.74-0.71-1.4-1.01-2.22-1.01-0.63 0-1.19 0.2-1.62 0.58-0.55 0.49-0.85 1.38-0.85 2.49 0 1.8 0.92 2.97 2.37 2.97 0.56 0 1.08-0.21 1.48-0.61 0.32-0.32 0.47-0.6 0.66-1.24z"/><path id="path4456" d="m157.38 710.34-1.25-0.63v-0.1c0.08 0.04 0.16 0.06 0.19 0.08 0.12 0.05 0.24 0.08 0.31 0.08 0.15 0 0.21-0.11 0.21-0.33v-3.16c0-0.23-0.05-0.39-0.17-0.45-0.1-0.07-0.2-0.09-0.49-0.1v-0.1h1.92v0.1c-0.55 0.01-0.66 0.08-0.66 0.42v4.18z"/></g>
   <g id="g4498" xml:space="preserve" ns0:pdfconverter="pstoedit" transform="matrix(1.75 0 0 -1.75 -74.492 1454.5)" ns0:text="$\n\\rm\n\\alphaup_1\n$" ns0:version="0.7.2" ns0:inkscapeversion="0.91" ns0:preamble="/usr/share/inkscape/extensions/default_packages.tex" ns0:scale="1.4" ns0:texconverter="pdflatex"><path id="path4500" d="m154.27 708.19h-0.19c0-0.22-0.14-0.44-0.38-0.44-0.29 0-0.63 0.62-0.63 0.88 0 0.12 0.16 0.48 0.2 0.63 0.25 0.76 0.43 1.56 0.57 2.36h-0.84l-0.32-1.6h-0.02c-0.11 0.82-0.53 1.7-1.48 1.7l0.04-0.29c0.97 0 1.26-1.22 1.26-1.99 0-0.75-0.26-2.13-1.25-2.13-0.94 0-1.19 1.12-1.19 1.86 0 0.75 0.17 2.26 1.18 2.26l-0.04 0.29c-1.27 0-2.06-1.22-2.06-2.4 0-1.14 0.71-2.3 1.96-2.3 0.79 0 1.51 0.55 1.78 1.28h0.02c0.09-0.47 0.19-1.28 0.82-1.28 0.53 0 0.57 0.79 0.57 1.17z"/><path id="path4502" d="m156.59 710.34-1.26-0.63v-0.1c0.09 0.04 0.16 0.06 0.19 0.08 0.13 0.05 0.25 0.08 0.32 0.08 0.14 0 0.2-0.11 0.2-0.33v-3.16c0-0.23-0.05-0.39-0.16-0.45-0.11-0.07-0.2-0.09-0.5-0.1v-0.1h1.93v0.1c-0.55 0.01-0.66 0.08-0.66 0.42v4.18z"/></g>
   <g id="g4550" xml:space="preserve" ns0:pdfconverter="pstoedit" transform="matrix(1.75 0 0 -1.75 -22.855 1462.2)" ns0:text="$\n\\rm\nC_2\n$" ns0:version="0.7.2" ns0:inkscapeversion="0.91" ns0:preamble="/usr/share/inkscape/extensions/default_packages.tex" ns0:scale="1.4" ns0:texconverter="pdflatex"><path id="path4552" d="m154.89 711.61-0.09 2.25h-0.21c-0.06-0.21-0.22-0.33-0.42-0.33-0.09 0-0.24 0.03-0.39 0.09-0.49 0.16-0.99 0.24-1.45 0.24-0.82 0-1.65-0.31-2.26-0.86-0.7-0.62-1.08-1.54-1.08-2.64 0-0.93 0.3-1.78 0.81-2.35 0.59-0.65 1.51-1.03 2.5-1.03 1.12 0 2.11 0.46 2.72 1.27l-0.18 0.18c-0.74-0.71-1.4-1.01-2.22-1.01-0.63 0-1.19 0.2-1.62 0.58-0.55 0.49-0.85 1.38-0.85 2.49 0 1.8 0.92 2.97 2.37 2.97 0.56 0 1.08-0.21 1.48-0.61 0.32-0.32 0.47-0.6 0.66-1.24z"/><path id="path4554" d="m158.67 706.59-0.09 0.03c-0.26-0.4-0.35-0.46-0.67-0.46h-1.66l1.17 1.23c0.62 0.65 0.89 1.18 0.89 1.72 0 0.7-0.56 1.23-1.29 1.23-0.38 0-0.74-0.15-1-0.43-0.23-0.24-0.33-0.46-0.45-0.95l0.15-0.04c0.28 0.68 0.53 0.91 1.01 0.91 0.59 0 0.98-0.4 0.98-0.99 0-0.54-0.32-1.19-0.9-1.81l-1.25-1.32v-0.08h2.72z"/></g>
   <g id="g4608" xml:space="preserve" ns0:pdfconverter="pstoedit" transform="matrix(1.75 0 0 -1.75 -8.4063 1447.3)" ns0:text="$\n\\alphaup_2\n$" ns0:version="0.7.2" ns0:inkscapeversion="0.91" ns0:preamble="/usr/share/inkscape/extensions/default_packages.tex" ns0:scale="1.4" ns0:texconverter="pdflatex"><path id="path4610" d="m154.27 708.19h-0.19c0-0.22-0.14-0.44-0.38-0.44-0.29 0-0.63 0.62-0.63 0.88 0 0.12 0.16 0.48 0.2 0.63 0.25 0.76 0.43 1.56 0.57 2.36h-0.84l-0.32-1.6h-0.02c-0.11 0.82-0.53 1.7-1.48 1.7l0.04-0.29c0.97 0 1.26-1.22 1.26-1.99 0-0.75-0.26-2.13-1.25-2.13-0.94 0-1.19 1.12-1.19 1.86 0 0.75 0.17 2.26 1.18 2.26l-0.04 0.29c-1.27 0-2.06-1.22-2.06-2.4 0-1.14 0.71-2.3 1.96-2.3 0.79 0 1.51 0.55 1.78 1.28h0.02c0.09-0.47 0.19-1.28 0.82-1.28 0.53 0 0.57 0.79 0.57 1.17z"/><path id="path4612" d="m157.87 706.59-0.09 0.03c-0.26-0.4-0.35-0.46-0.66-0.46h-1.67l1.17 1.23c0.62 0.65 0.9 1.18 0.9 1.72 0 0.7-0.57 1.23-1.29 1.23-0.39 0-0.75-0.15-1.01-0.43-0.22-0.24-0.32-0.46-0.44-0.95l0.14-0.04c0.28 0.68 0.53 0.91 1.01 0.91 0.59 0 0.99-0.4 0.99-0.99 0-0.54-0.32-1.19-0.91-1.81l-1.24-1.32v-0.08h2.72z"/></g>
   <g id="g4672" xml:space="preserve" ns0:pdfconverter="pstoedit" transform="matrix(1.75 0 0 -1.75 15.359 1482.3)" ns0:text="$\n\\rm\nC_3\n$" ns0:version="0.7.2" ns0:inkscapeversion="0.91" ns0:preamble="/usr/share/inkscape/extensions/default_packages.tex" ns0:scale="1.4" ns0:texconverter="pdflatex"><path id="path4674" d="m154.89 711.61-0.09 2.25h-0.21c-0.06-0.21-0.22-0.33-0.42-0.33-0.09 0-0.24 0.03-0.39 0.09-0.49 0.16-0.99 0.24-1.45 0.24-0.82 0-1.65-0.31-2.26-0.86-0.7-0.62-1.08-1.54-1.08-2.64 0-0.93 0.3-1.78 0.81-2.35 0.59-0.65 1.51-1.03 2.5-1.03 1.12 0 2.11 0.46 2.72 1.27l-0.18 0.18c-0.74-0.71-1.4-1.01-2.22-1.01-0.63 0-1.19 0.2-1.62 0.58-0.55 0.49-0.85 1.38-0.85 2.49 0 1.8 0.92 2.97 2.37 2.97 0.56 0 1.08-0.21 1.48-0.61 0.32-0.32 0.47-0.6 0.66-1.24z"/><path id="path4676" d="m156.42 707.93h0.04 0.04 0.03 0.03 0.04 0.03 0.03 0.03 0.03 0.02l0.03-0.01h0.02 0.03 0.02 0.02 0.02l0.02-0.01h0.02 0.02 0.02l0.02-0.01h0.02l0.03-0.01h0.04l0.03-0.01 0.03-0.01 0.03-0.02c0.43-0.15 0.71-0.55 0.71-1.03 0-0.58-0.4-1.04-0.92-1.04-0.19 0-0.33 0.05-0.58 0.22-0.21 0.12-0.33 0.17-0.45 0.17-0.16 0-0.27-0.09-0.27-0.24 0-0.24 0.31-0.4 0.79-0.4 0.54 0 1.09 0.18 1.42 0.47s0.51 0.69 0.51 1.16c0 0.35-0.11 0.68-0.32 0.9-0.14 0.15-0.27 0.23-0.57 0.37 0.48 0.32 0.65 0.58 0.65 0.96 0 0.56-0.45 0.95-1.09 0.95-0.35 0-0.65-0.11-0.9-0.34-0.21-0.19-0.32-0.37-0.47-0.78l0.1-0.03c0.29 0.51 0.6 0.74 1.04 0.74 0.46 0 0.77-0.31 0.77-0.75 0-0.25-0.1-0.5-0.28-0.68-0.21-0.21-0.4-0.31-0.88-0.48z"/></g>
   <g id="g4742" xml:space="preserve" ns0:pdfconverter="pstoedit" transform="matrix(1.75 0 0 -1.75 5.7703 1493.9)" ns0:text="$\n\\alphaup_3\n$" ns0:version="0.7.2" ns0:inkscapeversion="0.91" ns0:preamble="/usr/share/inkscape/extensions/default_packages.tex" ns0:scale="1.4" ns0:texconverter="pdflatex"><path id="path4744" d="m154.27 708.19h-0.19c0-0.22-0.14-0.44-0.38-0.44-0.29 0-0.63 0.62-0.63 0.88 0 0.12 0.16 0.48 0.2 0.63 0.25 0.76 0.43 1.56 0.57 2.36h-0.84l-0.32-1.6h-0.02c-0.11 0.82-0.53 1.7-1.48 1.7l0.04-0.29c0.97 0 1.26-1.22 1.26-1.99 0-0.75-0.26-2.13-1.25-2.13-0.94 0-1.19 1.12-1.19 1.86 0 0.75 0.17 2.26 1.18 2.26l-0.04 0.29c-1.27 0-2.06-1.22-2.06-2.4 0-1.14 0.71-2.3 1.96-2.3 0.79 0 1.51 0.55 1.78 1.28h0.02c0.09-0.47 0.19-1.28 0.82-1.28 0.53 0 0.57 0.79 0.57 1.17z"/><path id="path4746" d="m155.63 707.93h0.03 0.04 0.04 0.03 0.03 0.03 0.03 0.03 0.03 0.03l0.02-0.01h0.03 0.02 0.02 0.03 0.02l0.02-0.01h0.02 0.02 0.02l0.02-0.01h0.01l0.04-0.01h0.03l0.03-0.01 0.03-0.01 0.04-0.02c0.43-0.15 0.7-0.55 0.7-1.03 0-0.58-0.4-1.04-0.91-1.04-0.19 0-0.33 0.05-0.59 0.22-0.21 0.12-0.33 0.17-0.45 0.17-0.16 0-0.26-0.09-0.26-0.24 0-0.24 0.3-0.4 0.79-0.4 0.53 0 1.09 0.18 1.41 0.47 0.33 0.29 0.51 0.69 0.51 1.16 0 0.35-0.11 0.68-0.31 0.9-0.14 0.15-0.27 0.23-0.58 0.37 0.48 0.32 0.66 0.58 0.66 0.96 0 0.56-0.45 0.95-1.09 0.95-0.35 0-0.66-0.11-0.91-0.34-0.21-0.19-0.31-0.37-0.47-0.78l0.11-0.03c0.28 0.51 0.6 0.74 1.04 0.74 0.45 0 0.77-0.31 0.77-0.75 0-0.25-0.11-0.5-0.28-0.68-0.21-0.21-0.41-0.31-0.88-0.48z"/></g>
   <g id="g4818" xml:space="preserve" ns0:pdfconverter="pstoedit" transform="matrix(1.75 0 0 -1.75 51.779 1479.5)" ns0:text="$\n\\dots\n$" ns0:version="0.7.2" ns0:inkscapeversion="0.91" ns0:preamble="/usr/share/inkscape/extensions/default_packages.tex" ns0:scale="1.4" ns0:texconverter="pdflatex"><path id="path4820" d="m150.51 707.55v0.03 0.03 0.03l-0.01 0.02-0.01 0.03v0.03l-0.01 0.02-0.01 0.03-0.01 0.03-0.02 0.02-0.01 0.02-0.01 0.03-0.02 0.02-0.02 0.02-0.02 0.02-0.01 0.02-0.02 0.02-0.02 0.02-0.03 0.01-0.02 0.02-0.02 0.02-0.02 0.01-0.03 0.01-0.02 0.01-0.03 0.01-0.02 0.01-0.03 0.01-0.03 0.01h-0.02l-0.03 0.01h-0.03-0.02c-0.3 0-0.55-0.25-0.55-0.57 0-0.38 0.34-0.54 0.55-0.54 0.2 0 0.55 0.17 0.55 0.54z"/><path id="path4822" d="m154.67 707.55v0.03 0.03l-0.01 0.03v0.02l-0.01 0.03-0.01 0.03-0.01 0.02-0.01 0.03-0.01 0.03-0.01 0.02-0.01 0.02-0.02 0.03-0.02 0.02-0.01 0.02-0.02 0.02-0.02 0.02-0.02 0.02-0.02 0.02-0.02 0.01-0.02 0.02-0.02 0.02-0.03 0.01-0.02 0.01-0.03 0.01-0.02 0.01-0.03 0.01-0.02 0.01-0.03 0.01h-0.03l-0.02 0.01h-0.03-0.03c-0.3 0-0.55-0.25-0.55-0.57 0-0.38 0.34-0.54 0.55-0.54s0.56 0.17 0.56 0.54z"/><path id="path4824" d="m158.82 707.55v0.03l-0.01 0.03v0.03l-0.01 0.02v0.03l-0.01 0.03-0.01 0.02-0.01 0.03-0.01 0.03-0.01 0.02-0.02 0.02-0.01 0.03-0.02 0.02-0.01 0.02-0.02 0.02-0.02 0.02-0.02 0.02-0.02 0.02-0.02 0.01-0.02 0.02-0.03 0.02-0.02 0.01-0.02 0.01-0.03 0.01-0.02 0.01-0.03 0.01-0.03 0.01-0.02 0.01h-0.03l-0.03 0.01h-0.02-0.03c-0.3 0-0.55-0.25-0.55-0.57 0-0.38 0.34-0.54 0.55-0.54s0.56 0.17 0.56 0.54z"/></g>
  </g>
  <text id="text4864" style="word-spacing:0px;letter-spacing:0px" xml:space="preserve" font-size="16px" line-height="125%" y="209.83688" x="128.24837" font-family="&apos;STIX Two Text&apos;" fill="#000000"><tspan id="tspan4866" x="128.24837" y="209.83688"/></text>
  <g id="g5353" xml:space="preserve" stroke="#000" fill-rule="evenodd" ns0:pdfconverter="pstoedit" transform="matrix(1.75 0 0 -1.75 -116.06 1459.3)" stroke-miterlimit="10.433" ns0:text="\\LARGE C" ns0:version="0.7.2" ns0:inkscapeversion="0.91" ns0:preamble="/usr/share/inkscape/extensions/default_packages.tex" ns0:scale="1.4" ns0:texconverter="pdflatex"><path id="path5355" stroke-width="0" d="m159.38 713.32-0.15 3.89h-0.36c-0.11-0.36-0.38-0.57-0.73-0.57-0.15 0-0.41 0.05-0.67 0.15-0.84 0.28-1.7 0.42-2.51 0.42-1.41 0-2.84-0.54-3.91-1.48-1.2-1.07-1.86-2.67-1.86-4.57 0-1.6 0.52-3.08 1.4-4.06 1.03-1.12 2.61-1.77 4.32-1.77 1.94 0 3.65 0.79 4.7 2.19l-0.31 0.31c-1.28-1.23-2.41-1.74-3.84-1.74-1.09 0-2.05 0.34-2.79 1-0.95 0.84-1.48 2.39-1.48 4.3 0 3.12 1.6 5.13 4.1 5.13 0.98 0 1.87-0.36 2.56-1.05 0.55-0.55 0.81-1.03 1.14-2.15z"/></g>
 </g>
</svg>
