<?xml version="1.0" encoding="UTF-8" standalone="no"?>
<!-- Created with Inkscape (http://www.inkscape.org/) -->
<svg id="svg2" xmlns:rdf="http://www.w3.org/1999/02/22-rdf-syntax-ns#" xmlns="http://www.w3.org/2000/svg" height="108.52" width="301.35" version="1.1" xmlns:cc="http://creativecommons.org/ns#" xmlns:dc="http://purl.org/dc/elements/1.1/" viewBox="0 0 301.34619 108.51639">
 <style type="text/css">
	@import url('../estilo.css');
 </style>
 <defs id="defs4">
  <marker id="Arrow2Mend" refY="0" refX="0" orient="auto" overflow="visible">
   <path id="path4323" stroke-linejoin="round" d="m8.7186 4.0337-10.926-4.0177 10.926-4.0177c-1.7455 2.3721-1.7354 5.6175-6e-7 8.0354z" fill-rule="evenodd" transform="scale(-.6)" stroke="#000" stroke-width=".625"/>
  </marker>
  <marker id="marker7147" refY="0" refX="0" overflow="visible" orient="auto">
   <path id="path7149" d="m5.77 0-8.65 5v-10l8.65 5z" fill-rule="evenodd" transform="scale(.4)" stroke="#000" stroke-width="1pt"/>
  </marker>
  <marker id="marker7027" refY="0" refX="0" orient="auto" overflow="visible">
   <path id="path7029" d="m5.77 0-8.65 5v-10l8.65 5z" fill-rule="evenodd" transform="scale(.4)" stroke="#000" stroke-width="1pt"/>
  </marker>
  <marker id="marker6919" refY="0" refX="0" overflow="visible" orient="auto">
   <path id="path6921" d="m5.77 0-8.65 5v-10l8.65 5z" fill-rule="evenodd" transform="scale(.4)" stroke="#000" stroke-width="1pt"/>
  </marker>
  <marker id="marker6809" refY="0" refX="0" orient="auto" overflow="visible">
   <path id="path6811" d="m5.77 0-8.65 5v-10l8.65 5z" fill-rule="evenodd" transform="scale(.4)" stroke="#000" stroke-width="1pt"/>
  </marker>
  <marker id="marker6705" refY="0" refX="0" overflow="visible" orient="auto">
   <path id="path6707" d="m5.77 0-8.65 5v-10l8.65 5z" fill-rule="evenodd" transform="scale(.4)" stroke="#000" stroke-width="1pt"/>
  </marker>
  <marker id="marker6467" refY="0" refX="0" overflow="visible" orient="auto">
   <path id="path6469" d="m5.77 0-8.65 5v-10l8.65 5z" fill-rule="evenodd" transform="scale(.4)" stroke="#000" stroke-width="1pt"/>
  </marker>
  <marker id="marker6285" refY="0" refX="0" orient="auto" overflow="visible">
   <path id="path6287" d="m5.77 0-8.65 5v-10l8.65 5z" fill-rule="evenodd" transform="scale(.4)" stroke="#000" stroke-width="1pt"/>
  </marker>
  <marker id="marker6133" refY="0" refX="0" orient="auto" overflow="visible">
   <path id="path6135" d="m5.77 0-8.65 5v-10l8.65 5z" fill-rule="evenodd" transform="scale(.4)" stroke="#000" stroke-width="1pt"/>
  </marker>
  <marker id="marker5583" refY="0" refX="0" overflow="visible" orient="auto">
   <path id="path5585" d="m5.77 0-8.65 5v-10l8.65 5z" fill-rule="evenodd" transform="scale(.4)" stroke="#000" stroke-width="1pt"/>
  </marker>
  <marker id="marker5427" refY="0" refX="0" orient="auto" overflow="visible">
   <path id="path5429" d="m5.77 0-8.65 5v-10l8.65 5z" fill-rule="evenodd" transform="scale(.4)" stroke="#000" stroke-width="1pt"/>
  </marker>
  <marker id="marker5235" refY="0" refX="0" overflow="visible" orient="auto">
   <path id="path5237" d="m5.77 0-8.65 5v-10l8.65 5z" fill-rule="evenodd" transform="scale(.4)" stroke="#000" stroke-width="1pt"/>
  </marker>
  <marker id="TriangleOutM" refY="0" refX="0" orient="auto" overflow="visible">
   <path id="path4441" d="m5.77 0-8.65 5v-10l8.65 5z" fill-rule="evenodd" transform="scale(.4)" stroke="#000" stroke-width="1pt"/>
  </marker>
 </defs>
 <metadata id="metadata7">
  <rdf:RDF>
   <cc:Work rdf:about="">
    <dc:format>image/svg+xml</dc:format>
    <dc:type rdf:resource="http://purl.org/dc/dcmitype/StillImage"/>
    <dc:title/>
   </cc:Work>
  </rdf:RDF>
 </metadata>
 <g id="layer1" transform="translate(-132.57 -368.76)">
  <g stroke="#000" stroke-width="1px" fill="none">
   <path id="path4284" d="m165 417.36c6.7341-5.1991 10.792-12.17 25-10 49.584 7.5722 93.779 88.512 170 35 13.396-9.4046 23.63-17.881 40-25"/>
   <path id="path6703" marker-end="url(#TriangleOutM)" d="m222.99 421.19 24.817-4.7281"/>
   <path id="path6283" marker-end="url(#marker6467)" d="m190 407.36 25.568-7.381"/>
   <path id="path4914" marker-end="url(#marker6285)" d="m190 407.36 25.568 3.9744"/>
  </g>
  <circle id="path4286" cx="190" cy="407.36" r="2.4266" fill="#f00"/>
  <g stroke="#000" stroke-width="1px" fill="none">
   <path id="path6807" marker-end="url(#marker5235)" d="m261.73 445.94 3.4756-21.971"/>
   <path id="path5227" marker-end="url(#marker6809)" d="m261.73 445.94 17.944 13.744"/>
   <path id="path6917" marker-end="url(#marker5427)" d="m289.55 457.9 13.75-15.61"/>
   <path id="path5419" marker-end="url(#marker6919)" d="m289.55 457.9 21.073-5.5331"/>
   <path id="path5575" marker-end="url(#marker5583)" d="m360 442.36 2.6374-17.473"/>
   <path id="path6125" marker-end="url(#marker6133)" d="m360 442.36 12.894-1.7216"/>
  </g>
  <circle id="circle4288" cy="442.36" cx="360" r="2.4266" fill="#f00"/>
  <path id="path7019" marker-end="url(#marker7027)" d="m332 456.81 18.179 1.0461" stroke="#000" stroke-width="1px" fill="none"/>
  <path id="path7139" marker-end="url(#marker7147)" d="m332 456.81 11.219 13.317" stroke="#000" stroke-width="1px" fill="none"/>
  <g font-family="&apos;STIX Two Text&apos;" fill="#000000">
   <g font-size="16px">
    <text id="text7301" style="word-spacing:0px;letter-spacing:0px" xml:space="preserve" line-height="125%" y="401.48328" x="137.02658"><tspan id="tspan7303" x="137.02658" y="401.48328">α(a) = A</tspan></text>
    <text id="text7305" style="word-spacing:0px;letter-spacing:0px" xml:space="preserve" line-height="125%" y="457.40134" x="362.04001"><tspan id="tspan7307" x="362.04001" y="457.40134">B = α(b)</tspan></text>
    <text id="text7309" style="word-spacing:0px;letter-spacing:0px" xml:space="preserve" line-height="125%" y="419.7373" x="403.72128"><tspan id="tspan7311" x="403.72128" y="419.7373">α(I)</tspan></text>
   </g>
   <text id="text7313" style="word-spacing:0px;letter-spacing:0px" xml:space="preserve" font-size="12px" line-height="125%" y="416.43896" x="232.73138"><tspan id="tspan7315" font-size="13px" y="416.43896" x="232.73138">F</tspan></text>
  </g>
  <ellipse id="path7321" rx="15.832" ry="26.709" stroke="#999" cy="423.77" cx="236.6" stroke-dasharray="4, 4" fill="none"/>
  <g id="g4355" transform="translate(-2)">
   <rect id="rect7761" height="9.5639" width="14.043" y="428.47" x="217.69" fill="#fff"/>
   <text id="text7317" style="word-spacing:0px;letter-spacing:0px" font-size="16px" line-height="125%" y="437.75272" x="217.38148" font-family="&apos;STIX Two Text&apos;" xml:space="preserve" fill="#000000"><tspan id="tspan7319" font-size="13px" y="437.75272" x="217.38148">dα</tspan></text>
  </g>
  <path id="path4290" marker-end="url(#marker6705)" d="m222.99 421.19 14.377 15.418" stroke="#000" stroke-width="1px" fill="none"/>
  <path id="path7323" marker-end="url(#Arrow2Mend)" d="m266.6 389.69-13.949 14.342" stroke="#000" stroke-width="1px" fill="none"/>
  <text id="text7757" style="word-spacing:0px;letter-spacing:0px" xml:space="preserve" font-size="16px" line-height="125%" y="385.05453" x="254.48717" font-family="&apos;STIX Two Text&apos;" fill="#000000"><tspan id="tspan7759" x="254.48717" y="385.05453">Producto escalar</tspan></text>
 </g>
</svg>
