<?xml version="1.0" encoding="UTF-8" standalone="no"?>
<!-- Created with Inkscape (http://www.inkscape.org/) -->
<svg id="svg2" xmlns:rdf="http://www.w3.org/1999/02/22-rdf-syntax-ns#" xmlns="http://www.w3.org/2000/svg" xmlns:ns0="http://www.iki.fi/pav/software/textext/" height="147.87" width="167.62" version="1.1" xmlns:cc="http://creativecommons.org/ns#" viewBox="0 0 167.62311 147.86812" xmlns:dc="http://purl.org/dc/elements/1.1/">
 <style type="text/css">
	@import url('../estilo.css');
 </style>
 <metadata id="metadata7">
  <rdf:RDF>
   <cc:Work rdf:about="">
    <dc:format>image/svg+xml</dc:format>
    <dc:type rdf:resource="http://purl.org/dc/dcmitype/StillImage"/>
    <dc:title/>
   </cc:Work>
  </rdf:RDF>
 </metadata>
 <g id="layer1" transform="translate(-126.16 -268.43)">
  <path id="path4255" d="m170 367.36c29.645-2.8251 39.146-22.968 45-50h35" stroke="#000" stroke-width="1px" fill="none"/>
  <g>
   <circle id="path4144" cy="367.36" cx="170" r="3.5377"/>
   <circle id="circle4146" cx="250" cy="317.36" r="3.5377"/>
   <rect id="rect4148" height="4" width="4" y="315.36" x="213"/>
  </g>
  <ellipse id="path4150" rx="85.722" transform="rotate(-35)" stroke="#999" ry="56.339" cy="400.88" cx="-24.368" stroke-dasharray="9, 9" stroke-width="3" fill="none"/>
  <g stroke-width="0" fill-rule="evenodd" stroke="#000" stroke-miterlimit="10.433">
   <g id="content" xml:space="preserve" ns0:pdfconverter="pstoedit" transform="matrix(1.75 0 0 -1.75 -94.409 1558.1)" ns0:text="$\n\\rm\n(x_1,y)\n$" ns0:version="0.7.2" ns0:inkscapeversion="0.91" ns0:preamble="/usr/share/inkscape/extensions/default_packages.tex" ns0:scale="1.4" ns0:texconverter="pdflatex"><path id="path4165" d="m151.65 713.86-0.07-0.05-0.06-0.04-0.07-0.04-0.06-0.04-0.06-0.04-0.05-0.04-0.06-0.04-0.05-0.04-0.05-0.03-0.05-0.04-0.05-0.04-0.04-0.03-0.05-0.04-0.04-0.03-0.08-0.07-0.08-0.07-0.07-0.06-0.08-0.07-0.06-0.08-0.07-0.07-0.07-0.07-0.07-0.08-0.07-0.09c-0.7-0.87-1.05-1.86-1.05-3.03 0-1.26 0.37-2.24 1.24-3.25 0.41-0.48 0.67-0.7 1.19-1.02l0.12 0.16c-0.8 0.63-1.08 0.97-1.35 1.72-0.24 0.67-0.35 1.43-0.35 2.42 0 1.05 0.13 1.87 0.4 2.48 0.28 0.62 0.58 0.98 1.3 1.56z"/><path id="path4167" d="m154.8 707.12h2v0.15c-0.3 0-0.5 0.16-0.81 0.6l-1.28 1.95 0.83 1.2c0.19 0.27 0.49 0.43 0.81 0.44v0.15h-1.58v-0.15c0.3-0.02 0.4-0.08 0.4-0.22 0-0.12-0.12-0.34-0.37-0.65-0.05-0.06-0.17-0.24-0.3-0.44l-0.14 0.2c-0.27 0.42-0.46 0.76-0.46 0.89 0 0.14 0.14 0.21 0.43 0.22v0.15h-2.06v-0.15h0.09c0.3 0 0.46-0.13 0.77-0.6l0.94-1.44-1.14-1.64c-0.3-0.41-0.4-0.48-0.73-0.51v-0.15h1.45v0.15c-0.28 0-0.4 0.05-0.4 0.18 0 0.06 0.07 0.21 0.2 0.41l0.78 1.23 0.91-1.4c0.04-0.06 0.06-0.12 0.06-0.18 0-0.18-0.07-0.22-0.4-0.24z"/><path id="path4169" d="m159.04 710.34-1.25-0.63v-0.1c0.08 0.04 0.16 0.06 0.19 0.08 0.12 0.05 0.24 0.08 0.31 0.08 0.14 0 0.21-0.11 0.21-0.33v-3.16c0-0.23-0.06-0.39-0.17-0.45-0.1-0.07-0.2-0.09-0.49-0.1v-0.1h1.92v0.1c-0.55 0.01-0.66 0.08-0.66 0.42v4.18z"/><path id="path4171" d="m162.94 707.18v0.04 0.04l-0.01 0.03v0.04 0.03l-0.01 0.04v0.03l-0.01 0.03v0.03l-0.01 0.03-0.01 0.03-0.01 0.03-0.01 0.02-0.01 0.03-0.01 0.03-0.01 0.02-0.01 0.02-0.01 0.03-0.02 0.04-0.03 0.04-0.03 0.04-0.03 0.03-0.03 0.03-0.03 0.03-0.03 0.03-0.03 0.02-0.04 0.03-0.03 0.02-0.03 0.01-0.04 0.02-0.03 0.01-0.03 0.02-0.04 0.01h-0.03l-0.03 0.01-0.03 0.01h-0.03l-0.03 0.01h-0.02-0.03-0.02c-0.25 0-0.58-0.15-0.58-0.58 0-0.4 0.36-0.5 0.62-0.5 0.07 0 0.12 0.01 0.15 0.02 0.04 0.01 0.07 0.02 0.09 0.02 0.07 0 0.14-0.05 0.14-0.14 0-0.19-0.16-0.63-0.82-1.05l0.09-0.19c0.3 0.1 1.12 0.75 1.12 1.46z"/><path id="path4173" d="m169.88 711.61h-1.34v-0.15c0.32 0 0.47-0.09 0.47-0.25 0-0.04 0-0.1-0.03-0.17l-0.97-2.75-1.15 2.52c-0.06 0.14-0.1 0.27-0.1 0.38 0 0.18 0.15 0.25 0.58 0.27v0.15h-2.05v-0.14c0.26-0.04 0.43-0.15 0.51-0.32l1.13-2.45 0.03-0.08 0.15-0.3c0.28-0.5 0.44-0.86 0.44-1.01s-0.23-0.78-0.4-1.07c-0.14-0.26-0.36-0.45-0.5-0.45-0.05 0-0.14 0.02-0.25 0.07-0.18 0.07-0.35 0.11-0.52 0.11-0.23 0-0.43-0.2-0.43-0.44 0-0.33 0.32-0.58 0.74-0.58 0.66 0 1.14 0.56 1.68 1.99l1.53 4.07c0.13 0.32 0.24 0.42 0.48 0.45z"/><path id="path4175" d="m170.51 705.36 0.07 0.04 0.06 0.05 0.07 0.04 0.06 0.04 0.05 0.04 0.06 0.04 0.06 0.04 0.05 0.03 0.05 0.04 0.05 0.04 0.04 0.03 0.05 0.04 0.04 0.03 0.05 0.04 0.08 0.06 0.08 0.07 0.07 0.07 0.07 0.07 0.07 0.07 0.07 0.08 0.07 0.07 0.06 0.08 0.07 0.08c0.71 0.87 1.06 1.87 1.06 3.03 0 1.28-0.37 2.25-1.25 3.26-0.4 0.48-0.66 0.7-1.18 1.02l-0.12-0.16c0.8-0.63 1.07-0.98 1.34-1.73 0.24-0.66 0.35-1.42 0.35-2.42 0-1.03-0.13-1.86-0.4-2.47-0.28-0.62-0.57-0.98-1.29-1.56z"/></g>
   <g id="g4213" xml:space="preserve" ns0:pdfconverter="pstoedit" transform="matrix(1.75 0 0 -1.75 -107.92 1622.7)" ns0:text="$\n\\rm\n(x_0,y_0)\n$" ns0:version="0.7.2" ns0:inkscapeversion="0.91" ns0:preamble="/usr/share/inkscape/extensions/default_packages.tex" ns0:scale="1.4" ns0:texconverter="pdflatex"><path id="path4215" d="m151.65 713.86-0.07-0.05-0.06-0.04-0.07-0.04-0.06-0.04-0.06-0.04-0.05-0.04-0.06-0.04-0.05-0.04-0.05-0.03-0.05-0.04-0.05-0.04-0.04-0.03-0.05-0.04-0.04-0.03-0.08-0.07-0.08-0.07-0.07-0.06-0.08-0.07-0.06-0.08-0.07-0.07-0.07-0.07-0.07-0.08-0.07-0.09c-0.7-0.87-1.05-1.86-1.05-3.03 0-1.26 0.37-2.24 1.24-3.25 0.41-0.48 0.67-0.7 1.19-1.02l0.12 0.16c-0.8 0.63-1.08 0.97-1.35 1.72-0.24 0.67-0.35 1.43-0.35 2.42 0 1.05 0.13 1.87 0.4 2.48 0.28 0.62 0.58 0.98 1.3 1.56z"/><path id="path4217" d="m154.8 707.12h2v0.15c-0.3 0-0.5 0.16-0.81 0.6l-1.28 1.95 0.83 1.2c0.19 0.27 0.49 0.43 0.81 0.44v0.15h-1.58v-0.15c0.3-0.02 0.4-0.08 0.4-0.22 0-0.12-0.12-0.34-0.37-0.65-0.05-0.06-0.17-0.24-0.3-0.44l-0.14 0.2c-0.27 0.42-0.46 0.76-0.46 0.89 0 0.14 0.14 0.21 0.43 0.22v0.15h-2.06v-0.15h0.09c0.3 0 0.46-0.13 0.77-0.6l0.94-1.44-1.14-1.64c-0.3-0.41-0.4-0.48-0.73-0.51v-0.15h1.45v0.15c-0.28 0-0.4 0.05-0.4 0.18 0 0.06 0.07 0.21 0.2 0.41l0.78 1.23 0.91-1.4c0.04-0.06 0.06-0.12 0.06-0.18 0-0.18-0.07-0.22-0.4-0.24z"/><path id="path4219" d="m158.78 710.34h-0.03-0.04-0.03-0.04-0.03l-0.03-0.01h-0.04l-0.03-0.01h-0.03l-0.03-0.01-0.03-0.01-0.03-0.01h-0.03l-0.03-0.01-0.03-0.01-0.03-0.02-0.03-0.01-0.03-0.01-0.03-0.01-0.02-0.02-0.03-0.01-0.03-0.02-0.02-0.01-0.03-0.02-0.03-0.02-0.02-0.01-0.03-0.02-0.02-0.02-0.03-0.02-0.02-0.02-0.03-0.03-0.02-0.02c-0.4-0.39-0.67-1.19-0.67-2.01 0-0.76 0.23-1.57 0.56-1.96 0.26-0.31 0.61-0.48 1.02-0.48v0.18c-0.6 0-0.91 0.75-0.91 2.2 0 1.48 0.31 2.25 0.91 2.25 0.59 0 0.9-0.78 0.9-2.24s-0.3-2.21-0.9-2.21v-0.18c0.35 0 0.65 0.12 0.9 0.37 0.41 0.38 0.67 1.19 0.67 2.03 0 1.43-0.63 2.41-1.55 2.41z"/><path id="path4221" d="m162.94 707.18v0.04 0.04l-0.01 0.03v0.04 0.03l-0.01 0.04v0.03l-0.01 0.03v0.03l-0.01 0.03-0.01 0.03-0.01 0.03-0.01 0.02-0.01 0.03-0.01 0.03-0.01 0.02-0.01 0.02-0.01 0.03-0.02 0.04-0.03 0.04-0.03 0.04-0.03 0.03-0.03 0.03-0.03 0.03-0.03 0.03-0.03 0.02-0.04 0.03-0.03 0.02-0.03 0.01-0.04 0.02-0.03 0.01-0.03 0.02-0.04 0.01h-0.03l-0.03 0.01-0.03 0.01h-0.03l-0.03 0.01h-0.02-0.03-0.02c-0.25 0-0.58-0.15-0.58-0.58 0-0.4 0.36-0.5 0.62-0.5 0.07 0 0.12 0.01 0.15 0.02 0.04 0.01 0.07 0.02 0.09 0.02 0.07 0 0.14-0.05 0.14-0.14 0-0.19-0.16-0.63-0.82-1.05l0.09-0.19c0.3 0.1 1.12 0.75 1.12 1.46z"/><path id="path4223" d="m169.88 711.61h-1.34v-0.15c0.32 0 0.47-0.09 0.47-0.25 0-0.04 0-0.1-0.03-0.17l-0.97-2.75-1.15 2.52c-0.06 0.14-0.1 0.27-0.1 0.38 0 0.18 0.15 0.25 0.58 0.27v0.15h-2.05v-0.14c0.26-0.04 0.43-0.15 0.51-0.32l1.13-2.45 0.03-0.08 0.15-0.3c0.28-0.5 0.44-0.86 0.44-1.01s-0.23-0.78-0.4-1.07c-0.14-0.26-0.36-0.45-0.5-0.45-0.05 0-0.14 0.02-0.25 0.07-0.18 0.07-0.35 0.11-0.52 0.11-0.23 0-0.43-0.2-0.43-0.44 0-0.33 0.32-0.58 0.74-0.58 0.66 0 1.14 0.56 1.68 1.99l1.53 4.07c0.13 0.32 0.24 0.42 0.48 0.45z"/><path id="path4225" d="m171.9 710.34h-0.03-0.04-0.03-0.04-0.03l-0.04-0.01h-0.03l-0.03-0.01h-0.03l-0.03-0.01-0.03-0.01-0.03-0.01h-0.03l-0.03-0.01-0.03-0.01-0.03-0.02-0.03-0.01-0.03-0.01-0.03-0.01-0.03-0.02-0.02-0.01-0.03-0.02-0.03-0.01-0.02-0.02-0.03-0.02-0.02-0.01-0.03-0.02-0.02-0.02-0.03-0.02-0.02-0.02-0.03-0.03-0.02-0.02c-0.41-0.39-0.67-1.19-0.67-2.01 0-0.76 0.23-1.57 0.55-1.96 0.26-0.31 0.62-0.48 1.02-0.48v0.18c-0.6 0-0.9 0.75-0.9 2.2 0 1.48 0.31 2.25 0.91 2.25 0.59 0 0.9-0.78 0.9-2.24s-0.31-2.21-0.91-2.21v-0.18c0.36 0 0.66 0.12 0.91 0.37 0.4 0.38 0.67 1.19 0.67 2.03 0 1.43-0.63 2.41-1.55 2.41z"/><path id="path4227" d="m174.49 705.36 0.07 0.04 0.06 0.05 0.07 0.04 0.06 0.04 0.06 0.04 0.05 0.04 0.06 0.04 0.05 0.03 0.05 0.04 0.05 0.04 0.05 0.03 0.04 0.04 0.05 0.03 0.04 0.04 0.08 0.06 0.08 0.07 0.07 0.07 0.08 0.07 0.06 0.07 0.07 0.08 0.07 0.07 0.07 0.08 0.07 0.08c0.7 0.87 1.05 1.87 1.05 3.03 0 1.28-0.37 2.25-1.24 3.26-0.41 0.48-0.67 0.7-1.19 1.02l-0.12-0.16c0.8-0.63 1.07-0.98 1.35-1.73 0.24-0.66 0.35-1.42 0.35-2.42 0-1.03-0.13-1.86-0.4-2.47-0.28-0.62-0.58-0.98-1.3-1.56z"/></g>
   <g id="g4281" xml:space="preserve" ns0:pdfconverter="pstoedit" transform="matrix(1.75 0 0 -1.75 -55.453 1600.2)" ns0:text="$\n\\rm\nC_1\n$" ns0:version="0.7.2" ns0:inkscapeversion="0.91" ns0:preamble="/usr/share/inkscape/extensions/default_packages.tex" ns0:scale="1.4" ns0:texconverter="pdflatex"><path id="path4283" d="m154.89 711.61-0.09 2.25h-0.21c-0.06-0.21-0.22-0.33-0.42-0.33-0.09 0-0.24 0.03-0.39 0.09-0.49 0.16-0.99 0.24-1.45 0.24-0.82 0-1.65-0.31-2.26-0.86-0.7-0.62-1.08-1.54-1.08-2.64 0-0.93 0.3-1.78 0.81-2.35 0.59-0.65 1.51-1.03 2.5-1.03 1.12 0 2.11 0.46 2.72 1.27l-0.18 0.18c-0.74-0.71-1.4-1.01-2.22-1.01-0.63 0-1.19 0.2-1.62 0.58-0.55 0.49-0.85 1.38-0.85 2.49 0 1.8 0.92 2.97 2.37 2.97 0.56 0 1.08-0.21 1.48-0.61 0.32-0.32 0.47-0.6 0.66-1.24z"/><path id="path4285" d="m157.38 710.34-1.25-0.63v-0.1c0.08 0.04 0.16 0.06 0.19 0.08 0.12 0.05 0.24 0.08 0.31 0.08 0.15 0 0.21-0.11 0.21-0.33v-3.16c0-0.23-0.05-0.39-0.17-0.45-0.1-0.07-0.2-0.09-0.49-0.1v-0.1h1.92v0.1c-0.55 0.01-0.66 0.08-0.66 0.42v4.18z"/></g>
   <g id="g4345" xml:space="preserve" ns0:pdfconverter="pstoedit" transform="matrix(1.75 0 0 -1.75 -37.433 1572.7)" ns0:text="$\n\\rm\nC_2\n$" ns0:version="0.7.2" ns0:inkscapeversion="0.91" ns0:preamble="/usr/share/inkscape/extensions/default_packages.tex" ns0:scale="1.4" ns0:texconverter="pdflatex"><path id="path4347" d="m154.89 711.61-0.09 2.25h-0.21c-0.06-0.21-0.22-0.33-0.42-0.33-0.09 0-0.24 0.03-0.39 0.09-0.49 0.16-0.99 0.24-1.45 0.24-0.82 0-1.65-0.31-2.26-0.86-0.7-0.62-1.08-1.54-1.08-2.64 0-0.93 0.3-1.78 0.81-2.35 0.59-0.65 1.51-1.03 2.5-1.03 1.12 0 2.11 0.46 2.72 1.27l-0.18 0.18c-0.74-0.71-1.4-1.01-2.22-1.01-0.63 0-1.19 0.2-1.62 0.58-0.55 0.49-0.85 1.38-0.85 2.49 0 1.8 0.92 2.97 2.37 2.97 0.56 0 1.08-0.21 1.48-0.61 0.32-0.32 0.47-0.6 0.66-1.24z"/><path id="path4349" d="m158.67 706.59-0.09 0.03c-0.26-0.4-0.35-0.46-0.67-0.46h-1.66l1.17 1.23c0.62 0.65 0.89 1.18 0.89 1.72 0 0.7-0.56 1.23-1.29 1.23-0.38 0-0.74-0.15-1-0.43-0.23-0.24-0.33-0.46-0.45-0.95l0.15-0.04c0.28 0.68 0.53 0.91 1.01 0.91 0.59 0 0.98-0.4 0.98-0.99 0-0.54-0.32-1.19-0.9-1.81l-1.25-1.32v-0.08h2.72z"/></g>
   <g id="g4415" xml:space="preserve" ns0:pdfconverter="pstoedit" transform="matrix(1.75 0 0 -1.75 -23.944 1544)" ns0:text="$\n\\rm\n(x,y)\n$" ns0:version="0.7.2" ns0:inkscapeversion="0.91" ns0:preamble="/usr/share/inkscape/extensions/default_packages.tex" ns0:scale="1.4" ns0:texconverter="pdflatex"><path id="path4417" d="m151.65 713.86-0.07-0.05-0.06-0.04-0.07-0.04-0.06-0.04-0.06-0.04-0.05-0.04-0.06-0.04-0.05-0.04-0.05-0.03-0.05-0.04-0.05-0.04-0.04-0.03-0.05-0.04-0.04-0.03-0.08-0.07-0.08-0.07-0.07-0.06-0.08-0.07-0.06-0.08-0.07-0.07-0.07-0.07-0.07-0.08-0.07-0.09c-0.7-0.87-1.05-1.86-1.05-3.03 0-1.26 0.37-2.24 1.24-3.25 0.41-0.48 0.67-0.7 1.19-1.02l0.12 0.16c-0.8 0.63-1.08 0.97-1.35 1.72-0.24 0.67-0.35 1.43-0.35 2.42 0 1.05 0.13 1.87 0.4 2.48 0.28 0.62 0.58 0.98 1.3 1.56z"/><path id="path4419" d="m154.8 707.12h2v0.15c-0.3 0-0.5 0.16-0.81 0.6l-1.28 1.95 0.83 1.2c0.19 0.27 0.49 0.43 0.81 0.44v0.15h-1.58v-0.15c0.3-0.02 0.4-0.08 0.4-0.22 0-0.12-0.12-0.34-0.37-0.65-0.05-0.06-0.17-0.24-0.3-0.44l-0.14 0.2c-0.27 0.42-0.46 0.76-0.46 0.89 0 0.14 0.14 0.21 0.43 0.22v0.15h-2.06v-0.15h0.09c0.3 0 0.46-0.13 0.77-0.6l0.94-1.44-1.14-1.64c-0.3-0.41-0.4-0.48-0.73-0.51v-0.15h1.45v0.15c-0.28 0-0.4 0.05-0.4 0.18 0 0.06 0.07 0.21 0.2 0.41l0.78 1.23 0.91-1.4c0.04-0.06 0.06-0.12 0.06-0.18 0-0.18-0.07-0.22-0.4-0.24z"/><path id="path4421" d="m158.96 707.18-0.01 0.04v0.04 0.03 0.04l-0.01 0.03v0.04 0.03l-0.01 0.03-0.01 0.03v0.03l-0.01 0.03-0.01 0.03-0.01 0.02-0.01 0.03-0.01 0.03-0.01 0.02-0.01 0.02-0.01 0.03-0.03 0.04-0.02 0.04-0.03 0.04-0.03 0.03-0.03 0.03-0.03 0.03-0.03 0.03-0.04 0.02-0.03 0.03-0.03 0.02-0.04 0.01-0.03 0.02-0.03 0.01-0.04 0.02-0.03 0.01h-0.03l-0.03 0.01-0.03 0.01h-0.03l-0.03 0.01h-0.03-0.02-0.02c-0.25 0-0.58-0.15-0.58-0.58 0-0.4 0.36-0.5 0.62-0.5 0.07 0 0.12 0.01 0.15 0.02 0.04 0.01 0.07 0.02 0.09 0.02 0.07 0 0.14-0.05 0.14-0.14 0-0.19-0.16-0.63-0.82-1.05l0.09-0.19c0.3 0.1 1.12 0.75 1.12 1.46z"/><path id="path4423" d="m165.89 711.61h-1.34v-0.15c0.32 0 0.47-0.09 0.47-0.25 0-0.04 0-0.1-0.03-0.17l-0.97-2.75-1.15 2.52c-0.06 0.14-0.1 0.27-0.1 0.38 0 0.18 0.15 0.25 0.58 0.27v0.15h-2.05v-0.14c0.26-0.04 0.43-0.15 0.51-0.32l1.13-2.45 0.03-0.08 0.15-0.3c0.28-0.5 0.44-0.86 0.44-1.01s-0.23-0.78-0.4-1.07c-0.14-0.26-0.36-0.45-0.5-0.45-0.06 0-0.15 0.02-0.25 0.07-0.18 0.07-0.35 0.11-0.52 0.11-0.23 0-0.43-0.2-0.43-0.44 0-0.33 0.32-0.58 0.74-0.58 0.66 0 1.14 0.56 1.68 1.99l1.53 4.07c0.13 0.32 0.24 0.42 0.48 0.45z"/><path id="path4425" d="m166.52 705.36 0.07 0.04 0.06 0.05 0.07 0.04 0.06 0.04 0.05 0.04 0.06 0.04 0.06 0.04 0.05 0.03 0.05 0.04 0.05 0.04 0.04 0.03 0.05 0.04 0.04 0.03 0.05 0.04 0.08 0.06 0.08 0.07 0.07 0.07 0.07 0.07 0.07 0.07 0.07 0.08 0.07 0.07 0.06 0.08 0.07 0.08c0.71 0.87 1.06 1.87 1.06 3.03 0 1.28-0.37 2.25-1.25 3.26-0.4 0.48-0.66 0.7-1.18 1.02l-0.12-0.16c0.8-0.63 1.06-0.98 1.34-1.73 0.24-0.66 0.35-1.42 0.35-2.42 0-1.03-0.13-1.86-0.4-2.47-0.27-0.62-0.57-0.98-1.29-1.56z"/></g>
  </g>
  <text id="text4464" style="word-spacing:0px;letter-spacing:0px" xml:space="preserve" font-size="16px" line-height="125%" y="373.1955" x="244.44443" font-family="&apos;STIX Two Text&apos;" fill="#000000"><tspan id="tspan4466" x="244.44443" y="373.1955">B</tspan></text>
 </g>
</svg>
