<?xml version="1.0" encoding="UTF-8" standalone="no"?>
<!-- Created with Inkscape (http://www.inkscape.org/) -->
<svg id="svg4533" xmlns:rdf="http://www.w3.org/1999/02/22-rdf-syntax-ns#" xmlns="http://www.w3.org/2000/svg" height="80.793" width="193.35" version="1.1" xmlns:cc="http://creativecommons.org/ns#" xmlns:dc="http://purl.org/dc/elements/1.1/" viewBox="0 0 193.34526 80.792619">
 <style type="text/css">
	 @import url('../estilo.css');
 </style>
 <metadata id="metadata4538">
  <rdf:RDF>
   <cc:Work rdf:about="">
    <dc:format>image/svg+xml</dc:format>
    <dc:type rdf:resource="http://purl.org/dc/dcmitype/StillImage"/>
    <dc:title/>
   </cc:Work>
  </rdf:RDF>
 </metadata>
 <g id="layer1" transform="translate(-175.8 -331.61)">
  <path id="path6500" d="m205 357.36c25.147-14.883 45 10 60 10 9.7182 0 15.284-15.231 25-15 12.015 0.28591 18.005 19.253 30 20 7.4392 0.46315 20-10 20-10" stroke="#000" stroke-width="1px" fill="none"/>
  <circle id="circle4294" cy="362.36" cx="340" r="2.5048"/>
  <circle id="circle6554" cx="205" cy="357.36" r="2.5048"/>
  <path id="path6556" d="m195 377.36c-22.66-3.8808-14.532-42.81 5-35 32.932-7.226 66.318-6.2782 100 0 23.604-8.0637 43.904-7.2067 60 5 2.2224 9.1024 6.9953 15.262 0 35 11.676 19.339-7.3049 35.545-20 15-42.333 8.7278-80.867 7.175-115-5-7.5449 14.163-27.327 3.5572-30-15z" stroke="#000" stroke-dasharray="1, 1" fill="none"/>
  <g font-size="16px" font-family="&apos;STIX Two Text&apos;" fill="#000000">
   <text id="text6558" style="word-spacing:0px;letter-spacing:0px" xml:space="preserve" line-height="125%" y="373.64233" x="201.92619"><tspan id="tspan6560" x="201.92619" y="373.64233">A</tspan></text>
   <text id="text6562" style="word-spacing:0px;letter-spacing:0px" xml:space="preserve" line-height="125%" y="360.96915" x="260.2229"><tspan id="tspan6564" x="260.2229" y="360.96915">C</tspan></text>
   <text id="text6566" style="word-spacing:0px;letter-spacing:0px" xml:space="preserve" line-height="125%" y="377.30347" x="271.20633"><tspan id="tspan6568" x="271.20633" y="377.30347">α</tspan></text>
   <text id="text6570" style="word-spacing:0px;letter-spacing:0px" xml:space="preserve" line-height="125%" y="377.30347" x="341.33133"><tspan id="tspan6572" x="341.33133" y="377.30347"/></text>
   <text id="text6574" style="word-spacing:0px;letter-spacing:0px" xml:space="preserve" line-height="125%" y="378.14835" x="342.45782"><tspan id="tspan6576" x="342.45782" y="378.14835">θ</tspan></text>
  </g>
 </g>
</svg>
