<?xml version="1.0" encoding="UTF-8" standalone="no"?>
<svg id="svg5132" xmlns:rdf="http://www.w3.org/1999/02/22-rdf-syntax-ns#" xmlns="http://www.w3.org/2000/svg" xmlns:ns0="http://www.iki.fi/pav/software/textext/" height="265" width="275" version="1.1" xmlns:cc="http://creativecommons.org/ns#" xmlns:xlink="http://www.w3.org/1999/xlink" viewBox="0 0 275 265" xmlns:dc="http://purl.org/dc/elements/1.1/">
 <style type="text/css">
	@import url('../estilo.css');
 </style>
 <defs>
  <pattern id="pattern6532-818" xlink:href="#Polkadots-med-644" patternTransform="scale(2.8414)"/>
  <pattern id="Polkadots-med-644" height="10" width="10" patternUnits="userSpaceOnUse" patternTransform="translate(0) scale(10)">
   <circle id="circle6608" cy=".81" cx="2.567" r=".15" fill="#0ff"/>
   <circle id="circle6610" cy="2.33" cx="3.048" r=".15" fill="#0ff"/>
   <circle id="circle6612" cy="2.415" cx="4.418" r=".15" fill="#0ff"/>
   <circle id="circle6614" cy="3.029" cx="1.844" r=".15" fill="#0ff"/>
   <circle id="circle6616" cy="1.363" cx="6.08" r=".15" fill="#0ff"/>
   <circle id="circle6618" cy="4.413" cx="5.819" r=".15" fill="#0ff"/>
   <circle id="circle6620" cy="4.048" cx="4.305" r=".15" fill="#0ff"/>
   <circle id="circle6622" cy="3.045" cx="5.541" r=".15" fill="#0ff"/>
   <circle id="circle6624" cy="5.527" cx="4.785" r=".15" fill="#0ff"/>
   <circle id="circle6626" cy="5.184" cx="2.667" r=".15" fill="#0ff"/>
   <circle id="circle6628" cy="1.448" cx="7.965" r=".15" fill="#0ff"/>
   <circle id="circle6630" cy="5.049" cx="7.047" r=".15" fill="#0ff"/>
   <circle id="circle6632" cy=".895" cx="4.34" r=".15" fill="#0ff"/>
   <circle id="circle6634" cy=".34" cx="7.125" r=".15" fill="#0ff"/>
   <circle id="circle6636" cy="1.049" cx="9.553" r=".15" fill="#0ff"/>
   <circle id="circle6638" cy="2.689" cx="7.006" r=".15" fill="#0ff"/>
   <circle id="circle6640" cy="2.689" cx="8.909" r=".15" fill="#0ff"/>
   <circle id="circle6642" cy="4.407" cx="9.315" r=".15" fill="#0ff"/>
   <circle id="circle6644" cy="3.87" cx="7.82" r=".15" fill="#0ff"/>
   <circle id="circle6646" cy="5.948" cx="8.27" r=".15" fill="#0ff"/>
   <circle id="circle6648" cy="7.428" cx="7.973" r=".15" fill="#0ff"/>
   <circle id="circle6650" cy="8.072" cx="9.342" r=".15" fill="#0ff"/>
   <circle id="circle6652" cy="9.315" cx="8.206" r=".15" fill="#0ff"/>
   <circle id="circle6654" cy="9.475" cx="9.682" r=".15" fill="#0ff"/>
   <circle id="circle6656" cy="6.186" cx="9.688" r=".15" fill="#0ff"/>
   <circle id="circle6658" cy="6.296" cx="3.379" r=".15" fill="#0ff"/>
   <circle id="circle6660" cy="8.204" cx="2.871" r=".15" fill="#0ff"/>
   <circle id="circle6662" cy="8.719" cx="4.59" r=".15" fill="#0ff"/>
   <circle id="circle6664" cy="9.671" cx="3.181" r=".15" fill="#0ff"/>
   <circle id="circle6666" cy="7.315" cx="5.734" r=".15" fill="#0ff"/>
   <circle id="circle6668" cy="6.513" cx="6.707" r=".15" fill="#0ff"/>
   <circle id="circle6670" cy="9.67" cx="5.73" r=".15" fill="#0ff"/>
   <circle id="circle6672" cy="8.373" cx="6.535" r=".15" fill="#0ff"/>
   <circle id="circle6674" cy="7.154" cx="4.37" r=".15" fill="#0ff"/>
   <circle id="circle6676" cy="7.25" cx=".622" r=".15" fill="#0ff"/>
   <circle id="circle6678" cy="5.679" cx=".831" r=".15" fill="#0ff"/>
   <circle id="circle6680" cy="8.519" cx="1.257" r=".15" fill="#0ff"/>
   <circle id="circle6682" cy="6.877" cx="1.989" r=".15" fill="#0ff"/>
   <circle id="circle6684" cy="3.181" cx=".374" r=".15" fill="#0ff"/>
   <circle id="circle6686" cy="1.664" cx="1.166" r=".15" fill="#0ff"/>
   <circle id="circle6688" cy=".093" cx="1.151" r=".15" fill="#0ff"/>
   <circle id="circle6690" cy="10.093" cx="1.151" r=".15" fill="#0ff"/>
   <circle id="circle6692" cy="4.451" cx="1.302" r=".15" fill="#0ff"/>
   <circle id="circle6694" cy="3.763" cx="3.047" r=".15" fill="#0ff"/>
  </pattern>
  <pattern id="pattern6532-379" xlink:href="#Polkadots-med-305" patternTransform="scale(2.8414)"/>
  <pattern id="Polkadots-med-305" height="10" width="10" patternUnits="userSpaceOnUse" patternTransform="translate(0) scale(10)">
   <circle id="circle6788" cy=".81" cx="2.567" r=".15" fill="#0ff"/>
   <circle id="circle6790" cy="2.33" cx="3.048" r=".15" fill="#0ff"/>
   <circle id="circle6792" cy="2.415" cx="4.418" r=".15" fill="#0ff"/>
   <circle id="circle6794" cy="3.029" cx="1.844" r=".15" fill="#0ff"/>
   <circle id="circle6796" cy="1.363" cx="6.08" r=".15" fill="#0ff"/>
   <circle id="circle6798" cy="4.413" cx="5.819" r=".15" fill="#0ff"/>
   <circle id="circle6800" cy="4.048" cx="4.305" r=".15" fill="#0ff"/>
   <circle id="circle6802" cy="3.045" cx="5.541" r=".15" fill="#0ff"/>
   <circle id="circle6804" cy="5.527" cx="4.785" r=".15" fill="#0ff"/>
   <circle id="circle6806" cy="5.184" cx="2.667" r=".15" fill="#0ff"/>
   <circle id="circle6808" cy="1.448" cx="7.965" r=".15" fill="#0ff"/>
   <circle id="circle6810" cy="5.049" cx="7.047" r=".15" fill="#0ff"/>
   <circle id="circle6812" cy=".895" cx="4.34" r=".15" fill="#0ff"/>
   <circle id="circle6814" cy=".34" cx="7.125" r=".15" fill="#0ff"/>
   <circle id="circle6816" cy="1.049" cx="9.553" r=".15" fill="#0ff"/>
   <circle id="circle6818" cy="2.689" cx="7.006" r=".15" fill="#0ff"/>
   <circle id="circle6820" cy="2.689" cx="8.909" r=".15" fill="#0ff"/>
   <circle id="circle6822" cy="4.407" cx="9.315" r=".15" fill="#0ff"/>
   <circle id="circle6824" cy="3.87" cx="7.82" r=".15" fill="#0ff"/>
   <circle id="circle6826" cy="5.948" cx="8.27" r=".15" fill="#0ff"/>
   <circle id="circle6828" cy="7.428" cx="7.973" r=".15" fill="#0ff"/>
   <circle id="circle6830" cy="8.072" cx="9.342" r=".15" fill="#0ff"/>
   <circle id="circle6832" cy="9.315" cx="8.206" r=".15" fill="#0ff"/>
   <circle id="circle6834" cy="9.475" cx="9.682" r=".15" fill="#0ff"/>
   <circle id="circle6836" cy="6.186" cx="9.688" r=".15" fill="#0ff"/>
   <circle id="circle6838" cy="6.296" cx="3.379" r=".15" fill="#0ff"/>
   <circle id="circle6840" cy="8.204" cx="2.871" r=".15" fill="#0ff"/>
   <circle id="circle6842" cy="8.719" cx="4.59" r=".15" fill="#0ff"/>
   <circle id="circle6844" cy="9.671" cx="3.181" r=".15" fill="#0ff"/>
   <circle id="circle6846" cy="7.315" cx="5.734" r=".15" fill="#0ff"/>
   <circle id="circle6848" cy="6.513" cx="6.707" r=".15" fill="#0ff"/>
   <circle id="circle6850" cy="9.67" cx="5.73" r=".15" fill="#0ff"/>
   <circle id="circle6852" cy="8.373" cx="6.535" r=".15" fill="#0ff"/>
   <circle id="circle6854" cy="7.154" cx="4.37" r=".15" fill="#0ff"/>
   <circle id="circle6856" cy="7.25" cx=".622" r=".15" fill="#0ff"/>
   <circle id="circle6858" cy="5.679" cx=".831" r=".15" fill="#0ff"/>
   <circle id="circle6860" cy="8.519" cx="1.257" r=".15" fill="#0ff"/>
   <circle id="circle6862" cy="6.877" cx="1.989" r=".15" fill="#0ff"/>
   <circle id="circle6864" cy="3.181" cx=".374" r=".15" fill="#0ff"/>
   <circle id="circle6866" cy="1.664" cx="1.166" r=".15" fill="#0ff"/>
   <circle id="circle6868" cy=".093" cx="1.151" r=".15" fill="#0ff"/>
   <circle id="circle6870" cy="10.093" cx="1.151" r=".15" fill="#0ff"/>
   <circle id="circle6872" cy="4.451" cx="1.302" r=".15" fill="#0ff"/>
   <circle id="circle6874" cy="3.763" cx="3.047" r=".15" fill="#0ff"/>
  </pattern>
  <pattern id="pattern6532-227" xlink:href="#Polkadots-med-302" patternTransform="scale(2.8414)"/>
  <pattern id="Polkadots-med-302" height="10" width="10" patternUnits="userSpaceOnUse" patternTransform="translate(0) scale(10)">
   <circle id="circle6878" cy=".81" cx="2.567" r=".15" fill="#0ff"/>
   <circle id="circle6880" cy="2.33" cx="3.048" r=".15" fill="#0ff"/>
   <circle id="circle6882" cy="2.415" cx="4.418" r=".15" fill="#0ff"/>
   <circle id="circle6884" cy="3.029" cx="1.844" r=".15" fill="#0ff"/>
   <circle id="circle6886" cy="1.363" cx="6.08" r=".15" fill="#0ff"/>
   <circle id="circle6888" cy="4.413" cx="5.819" r=".15" fill="#0ff"/>
   <circle id="circle6890" cy="4.048" cx="4.305" r=".15" fill="#0ff"/>
   <circle id="circle6892" cy="3.045" cx="5.541" r=".15" fill="#0ff"/>
   <circle id="circle6894" cy="5.527" cx="4.785" r=".15" fill="#0ff"/>
   <circle id="circle6896" cy="5.184" cx="2.667" r=".15" fill="#0ff"/>
   <circle id="circle6898" cy="1.448" cx="7.965" r=".15" fill="#0ff"/>
   <circle id="circle6900" cy="5.049" cx="7.047" r=".15" fill="#0ff"/>
   <circle id="circle6902" cy=".895" cx="4.34" r=".15" fill="#0ff"/>
   <circle id="circle6904" cy=".34" cx="7.125" r=".15" fill="#0ff"/>
   <circle id="circle6906" cy="1.049" cx="9.553" r=".15" fill="#0ff"/>
   <circle id="circle6908" cy="2.689" cx="7.006" r=".15" fill="#0ff"/>
   <circle id="circle6910" cy="2.689" cx="8.909" r=".15" fill="#0ff"/>
   <circle id="circle6912" cy="4.407" cx="9.315" r=".15" fill="#0ff"/>
   <circle id="circle6914" cy="3.87" cx="7.82" r=".15" fill="#0ff"/>
   <circle id="circle6916" cy="5.948" cx="8.27" r=".15" fill="#0ff"/>
   <circle id="circle6918" cy="7.428" cx="7.973" r=".15" fill="#0ff"/>
   <circle id="circle6920" cy="8.072" cx="9.342" r=".15" fill="#0ff"/>
   <circle id="circle6922" cy="9.315" cx="8.206" r=".15" fill="#0ff"/>
   <circle id="circle6924" cy="9.475" cx="9.682" r=".15" fill="#0ff"/>
   <circle id="circle6926" cy="6.186" cx="9.688" r=".15" fill="#0ff"/>
   <circle id="circle6928" cy="6.296" cx="3.379" r=".15" fill="#0ff"/>
   <circle id="circle6930" cy="8.204" cx="2.871" r=".15" fill="#0ff"/>
   <circle id="circle6932" cy="8.719" cx="4.59" r=".15" fill="#0ff"/>
   <circle id="circle6934" cy="9.671" cx="3.181" r=".15" fill="#0ff"/>
   <circle id="circle6936" cy="7.315" cx="5.734" r=".15" fill="#0ff"/>
   <circle id="circle6938" cy="6.513" cx="6.707" r=".15" fill="#0ff"/>
   <circle id="circle6940" cy="9.67" cx="5.73" r=".15" fill="#0ff"/>
   <circle id="circle6942" cy="8.373" cx="6.535" r=".15" fill="#0ff"/>
   <circle id="circle6944" cy="7.154" cx="4.37" r=".15" fill="#0ff"/>
   <circle id="circle6946" cy="7.25" cx=".622" r=".15" fill="#0ff"/>
   <circle id="circle6948" cy="5.679" cx=".831" r=".15" fill="#0ff"/>
   <circle id="circle6950" cy="8.519" cx="1.257" r=".15" fill="#0ff"/>
   <circle id="circle6952" cy="6.877" cx="1.989" r=".15" fill="#0ff"/>
   <circle id="circle6954" cy="3.181" cx=".374" r=".15" fill="#0ff"/>
   <circle id="circle6956" cy="1.664" cx="1.166" r=".15" fill="#0ff"/>
   <circle id="circle6958" cy=".093" cx="1.151" r=".15" fill="#0ff"/>
   <circle id="circle6960" cy="10.093" cx="1.151" r=".15" fill="#0ff"/>
   <circle id="circle6962" cy="4.451" cx="1.302" r=".15" fill="#0ff"/>
   <circle id="circle6964" cy="3.763" cx="3.047" r=".15" fill="#0ff"/>
  </pattern>
  <pattern id="pattern6532-437" xlink:href="#Polkadots-med-473" patternTransform="scale(2.8414)"/>
  <pattern id="Polkadots-med-473" height="10" width="10" patternUnits="userSpaceOnUse" patternTransform="translate(0) scale(10)">
   <circle id="circle6968" cy=".81" cx="2.567" r=".15" fill="#0ff"/>
   <circle id="circle6970" cy="2.33" cx="3.048" r=".15" fill="#0ff"/>
   <circle id="circle6972" cy="2.415" cx="4.418" r=".15" fill="#0ff"/>
   <circle id="circle6974" cy="3.029" cx="1.844" r=".15" fill="#0ff"/>
   <circle id="circle6976" cy="1.363" cx="6.08" r=".15" fill="#0ff"/>
   <circle id="circle6978" cy="4.413" cx="5.819" r=".15" fill="#0ff"/>
   <circle id="circle6980" cy="4.048" cx="4.305" r=".15" fill="#0ff"/>
   <circle id="circle6982" cy="3.045" cx="5.541" r=".15" fill="#0ff"/>
   <circle id="circle6984" cy="5.527" cx="4.785" r=".15" fill="#0ff"/>
   <circle id="circle6986" cy="5.184" cx="2.667" r=".15" fill="#0ff"/>
   <circle id="circle6988" cy="1.448" cx="7.965" r=".15" fill="#0ff"/>
   <circle id="circle6990" cy="5.049" cx="7.047" r=".15" fill="#0ff"/>
   <circle id="circle6992" cy=".895" cx="4.34" r=".15" fill="#0ff"/>
   <circle id="circle6994" cy=".34" cx="7.125" r=".15" fill="#0ff"/>
   <circle id="circle6996" cy="1.049" cx="9.553" r=".15" fill="#0ff"/>
   <circle id="circle6998" cy="2.689" cx="7.006" r=".15" fill="#0ff"/>
   <circle id="circle7000" cy="2.689" cx="8.909" r=".15" fill="#0ff"/>
   <circle id="circle7002" cy="4.407" cx="9.315" r=".15" fill="#0ff"/>
   <circle id="circle7004" cy="3.87" cx="7.82" r=".15" fill="#0ff"/>
   <circle id="circle7006" cy="5.948" cx="8.27" r=".15" fill="#0ff"/>
   <circle id="circle7008" cy="7.428" cx="7.973" r=".15" fill="#0ff"/>
   <circle id="circle7010" cy="8.072" cx="9.342" r=".15" fill="#0ff"/>
   <circle id="circle7012" cy="9.315" cx="8.206" r=".15" fill="#0ff"/>
   <circle id="circle7014" cy="9.475" cx="9.682" r=".15" fill="#0ff"/>
   <circle id="circle7016" cy="6.186" cx="9.688" r=".15" fill="#0ff"/>
   <circle id="circle7018" cy="6.296" cx="3.379" r=".15" fill="#0ff"/>
   <circle id="circle7020" cy="8.204" cx="2.871" r=".15" fill="#0ff"/>
   <circle id="circle7022" cy="8.719" cx="4.59" r=".15" fill="#0ff"/>
   <circle id="circle7024" cy="9.671" cx="3.181" r=".15" fill="#0ff"/>
   <circle id="circle7026" cy="7.315" cx="5.734" r=".15" fill="#0ff"/>
   <circle id="circle7028" cy="6.513" cx="6.707" r=".15" fill="#0ff"/>
   <circle id="circle7030" cy="9.67" cx="5.73" r=".15" fill="#0ff"/>
   <circle id="circle7032" cy="8.373" cx="6.535" r=".15" fill="#0ff"/>
   <circle id="circle7034" cy="7.154" cx="4.37" r=".15" fill="#0ff"/>
   <circle id="circle7036" cy="7.25" cx=".622" r=".15" fill="#0ff"/>
   <circle id="circle7038" cy="5.679" cx=".831" r=".15" fill="#0ff"/>
   <circle id="circle7040" cy="8.519" cx="1.257" r=".15" fill="#0ff"/>
   <circle id="circle7042" cy="6.877" cx="1.989" r=".15" fill="#0ff"/>
   <circle id="circle7044" cy="3.181" cx=".374" r=".15" fill="#0ff"/>
   <circle id="circle7046" cy="1.664" cx="1.166" r=".15" fill="#0ff"/>
   <circle id="circle7048" cy=".093" cx="1.151" r=".15" fill="#0ff"/>
   <circle id="circle7050" cy="10.093" cx="1.151" r=".15" fill="#0ff"/>
   <circle id="circle7052" cy="4.451" cx="1.302" r=".15" fill="#0ff"/>
   <circle id="circle7054" cy="3.763" cx="3.047" r=".15" fill="#0ff"/>
  </pattern>
  <circle id="gpPt5" stroke-width=".222" cy="0" stroke="currentColor" cx="0" r="1"/>
  <use id="gpPt6" xlink:href="#gpPt5" fill="currentColor"/>
 </defs>
 <metadata id="metadata5276">
  <rdf:RDF>
   <cc:Work rdf:about="">
    <dc:format>image/svg+xml</dc:format>
    <dc:type rdf:resource="http://purl.org/dc/dcmitype/StillImage"/>
    <dc:title>Gnuplot</dc:title>
   </cc:Work>
  </rdf:RDF>
 </metadata>
 <title id="title5134">Gnuplot</title>
 <desc id="desc5136">Produced by GNUPLOT 5.0 patchlevel 3</desc>
 <g id="g5043" fill="url(#pattern6532-818)" transform="translate(6.8005 -41.401)">
  <title id="title5045"/>
  <g id="g5049" style="color:#000000" fill="url(#pattern6532-227)">
   <path id="path5051" fill="url(#pattern6532-437)" d="m197.1 229.3 6.9-8.3 6.6-9.2 6.2-10.1 5.5-11 4.5-11.8 3.4-12.4 2.1-12.8 0.4-13-1.4-12.8-3.4-12.3-5.3-11.4-7.3-10.2-9-8.6-10.5-6.8-11.7-4.8-12.4-2.9-13-0.9-12.9 0.8-12.8 2.4-12.2 3.7-11.6 4.9-10.8 5.6-9.9 6.3-9 6.7-8.1 6.9-7.2 7.1-6.3 7.1-5.6 7-4.9 6.9-4.2 6.7-3.7 6.5-3.1 6.3-2.6 6-2.2 5.7-1.8 5.6-1.4 5.2-1.2 5.1-0.9 4.8-0.6 4.6-0.4 4.4-0.2 4.1-0.1 4 0.1 3.8 0.3 3.7 0.4 3.5 0.5 3.3 0.6 3.2 0.7 3.1 0.9 2.9 0.9 2.8 1 2.7 1 2.7 1.2 2.5 1.2 2.4 1.2 2.3 1.4 2.2 1.4 2.2 1.5 2 1.5 2 1.6 2 1.7 1.8 1.7 1.8 1.8 1.7 1.9 1.7 1.9 1.6 2.1 1.5 2.1 1.5 2.1 1.4 2.3 1.3 2.3 1.2 2.5 1.2 2.5 1.2 2.6 1 2.8 1 2.8 0.9 3 0.7 3.1 0.7 3.2 0.6 3.4 0.5 3.5 0.4 3.7 0.2 3.9 0.1 4-0.1 4.2-0.3 4.5-0.4 4.6-0.7 4.9-1 5.1-1.2 5.3-1.6 5.6-1.9 5.8-2.2 6.1-2.8 6.3-3.2 6.6-3.8 6.7-4.3 6.9-5.1 7.1-5.8 7.1-6.5 7-7.5"/>
  </g>
 </g>
 <g fill="none">
  <rect id="rect5139" height="265" width="275" y="0" x="0"/>
  <g stroke="currentColor">
   <g>
    <g id="g5171" style="color:#000000">
     <g id="g5173" font-size="12px" transform="translate(195.7,76.9)" font-family="Arial" fill="#000">
      <text id="text5175"/>
     </g>
    </g>
    <g id="g5177" style="color:#000000">
     <use id="use5179" style="color:#e51e10" xlink:href="#gpPt6" transform="matrix(3.38,0,0,3.38,191.2,76.9)" height="100%" width="100%" y="0" x="0"/>
    </g>
    <g id="g5181" style="color:#000000">
     <g id="g5183" font-size="12px" transform="translate(195.7,76.9)" font-family="Arial" fill="#000">
      <text id="text5185"/>
     </g>
    </g>
    <g id="g5187" style="color:#000000">
     <use id="use5189" style="color:#000000" xlink:href="#gpPt5" transform="matrix(3.38,0,0,3.38,191.2,76.9)" height="100%" width="100%" y="0" x="0"/>
    </g>
    <g id="g5191" style="color:#000000">
     <g id="g5193" font-size="12px" transform="translate(107.9,101.1)" font-family="Arial" fill="#000">
      <text id="text5195"/>
     </g>
    </g>
    <g id="g5197" style="color:#000000">
     <use id="use5199" style="color:#f0e442" xlink:href="#gpPt6" transform="matrix(3.38,0,0,3.38,103.4,101.1)" height="100%" width="100%" y="0" x="0"/>
    </g>
    <g id="g5201" style="color:#000000">
     <g id="g5203" font-size="12px" transform="translate(107.9,101.1)" font-family="Arial" fill="#000">
      <text id="text5205"/>
     </g>
    </g>
    <g id="g5207" style="color:#000000">
     <use id="use5209" style="color:#000000" xlink:href="#gpPt5" transform="matrix(3.38,0,0,3.38,103.4,101.1)" height="100%" width="100%" y="0" x="0"/>
    </g>
   </g>
   <g stroke-width="1.5">
    <g id="g5215" style="color:#000000">
     <g id="g5217" style="shape-rendering:crispEdges">
      <polygon id="polygon5219" points="103.4 101.1 106 111 102.5 104.7 102.5 104.7 96.2 108.3" fill="#f0f"/>
     </g>
     <path id="path5221" d="m102.5 104.7-6.3 3.6 7.2-7.2 2.6 9.9-3.5-6.3m-22.3 83.2 22.3-83.2" stroke="#f0f"/>
    </g>
    <g id="g5223" style="color:#000000">
     <g id="g5225" style="shape-rendering:crispEdges">
      <polygon id="polygon5227" points="191.2 76.9 188.6 86.8 188.6 79.5 188.6 79.5 181.3 79.5" fill="#0f0"/>
     </g>
     <path id="path5229" d="m188.6 79.5h-7.3l9.9-2.6-2.6 9.9v-7.3m-108.4 108.4 108.4-108.4" stroke="#0f0"/>
    </g>
    <g id="g5231" style="color:#000000">
     <g id="g5233" style="shape-rendering:crispEdges">
      <polygon id="polygon5235" points="191.2 76.9 184 84.2 187.6 77.9 187.6 77.9 181.3 74.4" fill="#000"/>
     </g>
     <path id="path5237" d="m187.6 77.9-6.3-3.5 9.9 2.5-7.2 7.3 3.6-6.3m-84.2 23.2 84.2-23.2" stroke="#000"/>
    </g>
   </g>
  </g>
 </g>
 <g id="gnuplot_plot_1">
  <title id="title5244"/>
  <g id="g5248" style="color:#000000" stroke="currentColor" stroke-width="1.5" fill="none">
   <path id="path5250" d="m203.9 187.9 6.9-8.3 6.6-9.2 6.2-10.1 5.5-11 4.5-11.8 3.4-12.4 2.1-12.8 0.4-13-1.4-12.8-3.4-12.3-5.3-11.5-7.3-10.1-9-8.6-10.5-6.8-11.7-4.8-12.4-2.9-13-0.9-12.9 0.8-12.8 2.4-12.2 3.7-11.6 4.8-10.8 5.7-9.9 6.3-9 6.7-8.1 6.9-7.2 7.1-6.3 7.1-5.6 7-4.9 6.9-4.2 6.7-3.7 6.5-3.1 6.3-2.6 6-2.2 5.7-1.8 5.6-1.4 5.2-1.2 5.1-0.9 4.8-0.6 4.6-0.4 4.3-0.2 4.2-0.1 4 0.1 3.8 0.3 3.7 0.4 3.5 0.5 3.3 0.6 3.2 0.7 3.1 0.9 2.9 0.9 2.8 1 2.7 1 2.6 1.2 2.6 1.2 2.4 1.2 2.3 1.4 2.2 1.4 2.2 1.5 2 1.5 2 1.6 2 1.7 1.8 1.7 1.8 1.8 1.7 1.9 1.7 1.9 1.6 2.1 1.5 2.1 1.5 2.1 1.4 2.3 1.3 2.3 1.2 2.5 1.2 2.5 1.2 2.6 1 2.8 1 2.8 0.9 3 0.7 3.1 0.7 3.2 0.6 3.4 0.5 3.5 0.4 3.7 0.2 3.9 0.1 4-0.1 4.2-0.3 4.5-0.4 4.6-0.7 4.9-1 5.1-1.2 5.3-1.6 5.6-1.9 5.8-2.2 6.1-2.8 6.3-3.2 6.6-3.8 6.7-4.3 6.9-5.1 7.1-5.8 7.1-6.5 7-7.5" stroke="#0072b2"/>
  </g>
 </g>
 <g id="g5254" style="color:#000000" stroke="none" stroke-width="2" fill="none">
  <g id="g5256" font-size="16px" style="text-anchor:end" transform="translate(80.6,205.6)" font-family="&apos;Stix Two Text&apos;" fill="#000">
   <text id="text5258">
    <tspan id="tspan5260" font-family="&apos;Stix Two Text&apos;" font-style="italic">O</tspan>
   </text>
  </g>
 </g>
 <g id="g5264" style="color:#000000" stroke="currentColor" fill="none">
  <use id="use5266" style="color:#000000" xlink:href="#gpPt6" transform="matrix(3.38,0,0,3.38,80.2,187.9)" height="100%" width="100%" y="0" x="0"/>
 </g>
 <g stroke-width="0" fill-rule="evenodd" stroke="#000" stroke-miterlimit="10.433">
  <g id="content" xml:space="preserve" ns0:pdfconverter="pstoedit" transform="matrix(1.75 0 0 -1.75 -183.13 1375.2)" ns0:text="$\\vec{r}_j$" ns0:version="0.7.2" ns0:inkscapeversion="0.91" ns0:preamble="/usr/share/inkscape/extensions/default_packages.tex" ns0:scale="1.4" ns0:texconverter="pdflatex"><polygon id="polygon7480" points="152.57 714.32 153.11 713.32 149.78 713.32 149.69 712.93 153.03 712.93 152.05 711.92 152.24 711.68 153.91 713.12 152.86 714.56"/><path id="path7482" d="m149.91 707.12 0.05 0.16 0.05 0.15 0.04 0.14 0.04 0.13 0.05 0.13 0.03 0.12 0.04 0.12 0.04 0.11 0.03 0.11 0.04 0.1 0.03 0.1 0.03 0.09 0.04 0.09 0.03 0.08 0.03 0.08 0.03 0.08 0.03 0.08 0.03 0.07 0.06 0.14 0.07 0.14 0.06 0.13 0.07 0.13 0.07 0.13 0.08 0.13 0.04 0.07 0.04 0.07c0.33 0.56 0.61 0.87 0.78 0.87 0.06 0 0.11-0.04 0.16-0.14 0.08-0.17 0.16-0.22 0.36-0.22 0.29 0 0.46 0.18 0.46 0.49s-0.2 0.52-0.47 0.52c-0.23 0-0.5-0.15-0.76-0.42-0.41-0.42-0.81-1.01-0.97-1.41l-0.14-0.36 0.53 2.17-0.03 0.02c-0.73-0.13-0.82-0.15-1.54-0.27v-0.17c0.24 0.05 0.27 0.05 0.34 0.05 0.21 0 0.34-0.1 0.34-0.28 0-0.14 0-0.14-0.16-0.82l-0.8-2.91z"/><path id="path7484" d="m155.35 708.69-0.02 0.02c-0.62-0.12-0.97-0.17-1.18-0.18v-0.11h0.19l0.04 0.01c0.06 0 0.2-0.04 0.23-0.07 0.03-0.02 0.05-0.09 0.05-0.16s-0.03-0.25-0.11-0.55l-0.5-2.04c-0.24-0.96-0.4-1.26-0.68-1.26-0.08 0-0.12 0.03-0.12 0.07 0 0.03 0 0.05 0.03 0.08 0.04 0.06 0.06 0.09 0.06 0.15 0 0.14-0.13 0.26-0.29 0.26s-0.28-0.13-0.28-0.3c0-0.24 0.23-0.42 0.55-0.42 0.61 0 1.03 0.53 1.31 1.64z"/><path id="path7486" d="m155.21 710.19h-0.01-0.02-0.02l-0.01-0.01h-0.02-0.02l-0.01-0.01-0.02-0.01h-0.01l-0.02-0.01-0.01-0.01-0.01-0.01-0.02-0.01-0.01-0.01-0.01-0.01-0.01-0.01-0.01-0.02-0.01-0.01-0.01-0.01-0.01-0.02-0.01-0.01-0.01-0.02v-0.01l-0.01-0.02v-0.02l-0.01-0.01v-0.02l-0.01-0.02v-0.02-0.02-0.02-0.02c0-0.22 0.13-0.37 0.33-0.37 0.18 0 0.34 0.16 0.34 0.36s-0.16 0.38-0.35 0.38z"/></g>
  <g id="g8038" xml:space="preserve" ns0:pdfconverter="pstoedit" transform="matrix(1.75 0 0 -1.75 -120.14 1380.4)" ns0:text="$\\vec{r}_i$" ns0:version="0.7.2" ns0:inkscapeversion="0.91" ns0:preamble="/usr/share/inkscape/extensions/default_packages.tex" ns0:scale="1.4" ns0:texconverter="pdflatex"><polygon id="polygon8040" points="149.69 712.93 153.03 712.93 152.05 711.92 152.24 711.68 153.91 713.12 152.86 714.56 152.57 714.32 153.11 713.32 149.78 713.32"/><path id="path8042" d="m149.91 707.12 0.05 0.16 0.05 0.15 0.04 0.14 0.04 0.13 0.05 0.13 0.03 0.12 0.04 0.12 0.04 0.11 0.03 0.11 0.04 0.1 0.03 0.1 0.03 0.09 0.04 0.09 0.03 0.08 0.03 0.08 0.03 0.08 0.03 0.08 0.03 0.07 0.06 0.14 0.07 0.14 0.06 0.13 0.07 0.13 0.07 0.13 0.08 0.13 0.04 0.07 0.04 0.07c0.33 0.56 0.61 0.87 0.78 0.87 0.06 0 0.11-0.04 0.16-0.14 0.08-0.17 0.16-0.22 0.36-0.22 0.29 0 0.46 0.18 0.46 0.49s-0.2 0.52-0.47 0.52c-0.23 0-0.5-0.15-0.76-0.42-0.41-0.42-0.81-1.01-0.97-1.41l-0.14-0.36 0.53 2.17-0.03 0.02c-0.73-0.13-0.82-0.15-1.54-0.27v-0.17c0.24 0.05 0.27 0.05 0.34 0.05 0.21 0 0.34-0.1 0.34-0.28 0-0.14 0-0.14-0.16-0.82l-0.8-2.91z"/><path id="path8044" d="m154.14 706.42-0.02-0.02-0.01-0.01-0.02-0.02-0.01-0.02-0.01-0.02-0.02-0.01-0.01-0.02-0.01-0.01-0.01-0.02-0.01-0.01-0.01-0.01-0.01-0.02-0.01-0.01-0.01-0.01-0.01-0.01v-0.01l-0.01-0.01-0.01-0.01h-0.01v-0.01l-0.01-0.01-0.01-0.01-0.01-0.01-0.01-0.02-0.01-0.01-0.02-0.02-0.01-0.01c-0.12-0.12-0.22-0.19-0.29-0.19-0.05 0-0.11 0.06-0.11 0.11 0 0.06 0.02 0.17 0.07 0.3 0 0.02 0.02 0.07 0.04 0.13v0.01 0.02l0.62 2.24-0.02 0.02c-0.71-0.14-0.85-0.16-1.12-0.18v-0.11c0.37-0.01 0.44-0.03 0.44-0.17 0-0.05-0.02-0.16-0.06-0.3l-0.34-1.24c-0.11-0.4-0.15-0.62-0.15-0.76 0-0.26 0.11-0.4 0.32-0.4 0.32 0 0.58 0.21 0.98 0.8z"/><path id="path8046" d="m154.08 710.19h-0.02-0.01-0.02l-0.02-0.01h-0.01l-0.02-0.01h-0.02l-0.01-0.01h-0.02l-0.01-0.01-0.01-0.01-0.02-0.01-0.01-0.01-0.01-0.01-0.01-0.01-0.01-0.02-0.02-0.01-0.01-0.01v-0.02l-0.01-0.01-0.01-0.02-0.01-0.01-0.01-0.02v-0.01l-0.01-0.02v-0.02l-0.01-0.01v-0.02-0.02l-0.01-0.02v-0.02-0.02c0-0.22 0.13-0.37 0.34-0.37 0.18 0 0.34 0.16 0.34 0.36s-0.16 0.38-0.35 0.38z"/></g>
  <g id="g8608" xml:space="preserve" ns0:pdfconverter="pstoedit" transform="matrix(1.75 0 0 -1.75 -181.75 1335.2)" ns0:text="$m_j$" ns0:version="0.7.2" ns0:inkscapeversion="0.91" ns0:preamble="/usr/share/inkscape/extensions/default_packages.tex" ns0:scale="1.4" ns0:texconverter="pdflatex"><path id="path8610" d="m155.57 708.29-0.01-0.02-0.02-0.03-0.02-0.02-0.02-0.02v-0.01l-0.01-0.01-0.01-0.01-0.01-0.01h-0.01v-0.01l-0.01-0.01-0.01-0.01v-0.01l-0.01-0.01-0.01-0.01-0.01-0.01v-0.01h-0.01v-0.01l-0.01-0.01-0.01-0.01-0.01-0.01v-0.01c-0.28-0.36-0.49-0.53-0.64-0.53-0.08 0-0.13 0.06-0.13 0.16 0 0.05 0.04 0.21 0.1 0.45l0.68 2.5c0 0.04 0.02 0.22 0.02 0.28 0 0.36-0.24 0.63-0.58 0.63-0.19 0-0.39-0.07-0.63-0.22-0.49-0.32-0.9-0.8-1.59-1.9 0.25 0.76 0.4 1.33 0.4 1.52 0 0.35-0.23 0.6-0.56 0.6-0.61 0-1.31-0.66-2.23-2.11l0.58 2.09-0.03 0.02c-0.56-0.12-0.77-0.16-1.59-0.31v-0.16h0.25c0.26 0 0.39-0.07 0.39-0.22 0-0.11-0.23-1.02-0.59-2.28-0.23-0.82-0.26-0.92-0.39-1.43h0.75c0.47 1.59 0.62 1.96 0.96 2.47 0.56 0.85 1.16 1.41 1.5 1.41 0.13 0 0.2-0.09 0.2-0.25 0-0.09-0.32-1.3-0.95-3.63h0.75c0.4 1.56 0.59 2.05 1.1 2.76 0.49 0.68 0.99 1.12 1.28 1.12 0.11 0 0.2-0.1 0.2-0.21 0-0.05-0.02-0.17-0.07-0.35l-0.58-2.29c-0.09-0.37-0.13-0.56-0.13-0.66 0-0.3 0.14-0.46 0.4-0.46 0.47 0 0.91 0.33 1.43 1.07l0.05 0.07z"/><path id="path8612" d="m158.67 708.69-0.02 0.02c-0.62-0.12-0.97-0.17-1.19-0.18v-0.11h0.19l0.05 0.01c0.05 0 0.19-0.04 0.23-0.07 0.03-0.02 0.05-0.09 0.05-0.16s-0.04-0.25-0.11-0.55l-0.51-2.04c-0.23-0.96-0.39-1.26-0.67-1.26-0.09 0-0.13 0.03-0.13 0.07 0 0.03 0.01 0.05 0.04 0.08 0.04 0.06 0.05 0.09 0.05 0.15 0 0.14-0.12 0.26-0.28 0.26s-0.28-0.13-0.28-0.3c0-0.24 0.23-0.42 0.55-0.42 0.6 0 1.02 0.53 1.3 1.64z"/><path id="path8614" d="m158.53 710.19h-0.02-0.02-0.01l-0.02-0.01h-0.02-0.01l-0.02-0.01-0.01-0.01h-0.02l-0.01-0.01-0.01-0.01-0.02-0.01-0.01-0.01-0.01-0.01-0.01-0.01-0.02-0.01-0.01-0.02-0.01-0.01-0.01-0.01-0.01-0.02v-0.01l-0.01-0.02-0.01-0.01v-0.02l-0.01-0.02v-0.01l-0.01-0.02v-0.02l-0.01-0.02v-0.02-0.02-0.02c0-0.22 0.13-0.37 0.34-0.37 0.18 0 0.34 0.16 0.34 0.36s-0.16 0.38-0.35 0.38z"/></g>
  <g id="g9184" xml:space="preserve" ns0:pdfconverter="pstoedit" transform="matrix(1.75 0 0 -1.75 -62.749 1314.4)" ns0:text="$m_i$" ns0:version="0.7.2" ns0:inkscapeversion="0.91" ns0:preamble="/usr/share/inkscape/extensions/default_packages.tex" ns0:scale="1.4" ns0:texconverter="pdflatex"><path id="path9186" d="m155.57 708.29-0.01-0.02-0.02-0.03-0.02-0.02-0.02-0.02v-0.01l-0.01-0.01-0.01-0.01-0.01-0.01h-0.01v-0.01l-0.01-0.01-0.01-0.01v-0.01l-0.01-0.01-0.01-0.01-0.01-0.01v-0.01h-0.01v-0.01l-0.01-0.01-0.01-0.01-0.01-0.01v-0.01c-0.28-0.36-0.49-0.53-0.64-0.53-0.08 0-0.13 0.06-0.13 0.16 0 0.05 0.04 0.21 0.1 0.45l0.68 2.5c0 0.04 0.02 0.22 0.02 0.28 0 0.36-0.24 0.63-0.58 0.63-0.19 0-0.39-0.07-0.63-0.22-0.49-0.32-0.9-0.8-1.59-1.9 0.25 0.76 0.4 1.33 0.4 1.52 0 0.35-0.23 0.6-0.56 0.6-0.61 0-1.31-0.66-2.23-2.11l0.58 2.09-0.03 0.02c-0.56-0.12-0.77-0.16-1.59-0.31v-0.16h0.25c0.26 0 0.39-0.07 0.39-0.22 0-0.11-0.23-1.02-0.59-2.28-0.23-0.82-0.26-0.92-0.39-1.43h0.75c0.47 1.59 0.62 1.96 0.96 2.47 0.56 0.85 1.16 1.41 1.5 1.41 0.13 0 0.2-0.09 0.2-0.25 0-0.09-0.32-1.3-0.95-3.63h0.75c0.4 1.56 0.59 2.05 1.1 2.76 0.49 0.68 0.99 1.12 1.28 1.12 0.11 0 0.2-0.1 0.2-0.21 0-0.05-0.02-0.17-0.07-0.35l-0.58-2.29c-0.09-0.37-0.13-0.56-0.13-0.66 0-0.3 0.14-0.46 0.4-0.46 0.47 0 0.91 0.33 1.43 1.07l0.05 0.07z"/><path id="path9188" d="m157.45 706.42-0.01-0.02-0.02-0.01-0.01-0.02-0.02-0.02-0.01-0.02-0.01-0.01-0.01-0.02-0.01-0.01-0.02-0.02-0.01-0.01-0.01-0.01-0.01-0.02v-0.01l-0.01-0.01-0.01-0.01-0.01-0.01-0.01-0.01v-0.01h-0.01l-0.01-0.01-0.01-0.01v-0.01l-0.01-0.01-0.02-0.02-0.01-0.01-0.01-0.02-0.02-0.01c-0.11-0.12-0.22-0.19-0.28-0.19s-0.11 0.06-0.11 0.11c0 0.06 0.02 0.17 0.07 0.3 0 0.02 0.02 0.07 0.03 0.13v0.01l0.01 0.02 0.61 2.24-0.02 0.02c-0.7-0.14-0.84-0.16-1.11-0.18v-0.11c0.37-0.01 0.43-0.03 0.43-0.17 0-0.05-0.02-0.16-0.06-0.3l-0.33-1.24c-0.11-0.4-0.16-0.62-0.16-0.76 0-0.26 0.12-0.4 0.33-0.4 0.32 0 0.57 0.21 0.97 0.8z"/><path id="path9190" d="m157.4 710.19h-0.02-0.02-0.02l-0.01-0.01h-0.02l-0.02-0.01h-0.01l-0.02-0.01h-0.01l-0.01-0.01-0.02-0.01-0.01-0.01-0.01-0.01-0.02-0.01-0.01-0.01-0.01-0.02-0.01-0.01-0.01-0.01-0.01-0.02-0.01-0.01-0.01-0.02v-0.01l-0.01-0.02-0.01-0.01v-0.02l-0.01-0.02v-0.01l-0.01-0.02v-0.02-0.02-0.02-0.02c0-0.22 0.13-0.37 0.33-0.37 0.18 0 0.34 0.16 0.34 0.36s-0.16 0.38-0.34 0.38z"/></g>
  <g id="g9768" xml:space="preserve" ns0:pdfconverter="pstoedit" transform="matrix(1.75 0 0 -1.75 -142.07 1315.2)" ns0:text="$\\vec{r}_i-\\vec{r}_j$" ns0:version="0.7.2" ns0:inkscapeversion="0.91" ns0:preamble="/usr/share/inkscape/extensions/default_packages.tex" ns0:scale="1.4" ns0:texconverter="pdflatex"><polygon id="polygon9770" points="149.69 712.93 153.03 712.93 152.05 711.92 152.24 711.68 153.91 713.12 152.86 714.56 152.57 714.32 153.11 713.32 149.78 713.32"/><path id="path9772" d="m149.91 707.12 0.05 0.16 0.05 0.15 0.04 0.14 0.04 0.13 0.05 0.13 0.03 0.12 0.04 0.12 0.04 0.11 0.03 0.11 0.04 0.1 0.03 0.1 0.03 0.09 0.04 0.09 0.03 0.08 0.03 0.08 0.03 0.08 0.03 0.08 0.03 0.07 0.06 0.14 0.07 0.14 0.06 0.13 0.07 0.13 0.07 0.13 0.08 0.13 0.04 0.07 0.04 0.07c0.33 0.56 0.61 0.87 0.78 0.87 0.06 0 0.11-0.04 0.16-0.14 0.08-0.17 0.16-0.22 0.36-0.22 0.29 0 0.46 0.18 0.46 0.49s-0.2 0.52-0.47 0.52c-0.23 0-0.5-0.15-0.76-0.42-0.41-0.42-0.81-1.01-0.97-1.41l-0.14-0.36 0.53 2.17-0.03 0.02c-0.73-0.13-0.82-0.15-1.54-0.27v-0.17c0.24 0.05 0.27 0.05 0.34 0.05 0.21 0 0.34-0.1 0.34-0.28 0-0.14 0-0.14-0.16-0.82l-0.8-2.91z"/><path id="path9774" d="m154.14 706.42-0.02-0.02-0.01-0.01-0.02-0.02-0.01-0.02-0.01-0.02-0.02-0.01-0.01-0.02-0.01-0.01-0.01-0.02-0.01-0.01-0.01-0.01-0.01-0.02-0.01-0.01-0.01-0.01-0.01-0.01v-0.01l-0.01-0.01-0.01-0.01h-0.01v-0.01l-0.01-0.01-0.01-0.01-0.01-0.01-0.01-0.02-0.01-0.01-0.02-0.02-0.01-0.01c-0.12-0.12-0.22-0.19-0.29-0.19-0.05 0-0.11 0.06-0.11 0.11 0 0.06 0.02 0.17 0.07 0.3 0 0.02 0.02 0.07 0.04 0.13v0.01 0.02l0.62 2.24-0.02 0.02c-0.71-0.14-0.85-0.16-1.12-0.18v-0.11c0.37-0.01 0.44-0.03 0.44-0.17 0-0.05-0.02-0.16-0.06-0.3l-0.34-1.24c-0.11-0.4-0.15-0.62-0.15-0.76 0-0.26 0.11-0.4 0.32-0.4 0.32 0 0.58 0.21 0.98 0.8z"/><path id="path9776" d="m154.08 710.19h-0.02-0.01-0.02l-0.02-0.01h-0.01l-0.02-0.01h-0.02l-0.01-0.01h-0.02l-0.01-0.01-0.01-0.01-0.02-0.01-0.01-0.01-0.01-0.01-0.01-0.01-0.01-0.02-0.02-0.01-0.01-0.01v-0.02l-0.01-0.01-0.01-0.02-0.01-0.01-0.01-0.02v-0.01l-0.01-0.02v-0.02l-0.01-0.01v-0.02-0.02l-0.01-0.02v-0.02-0.02c0-0.22 0.13-0.37 0.34-0.37 0.18 0 0.34 0.16 0.34 0.36s-0.16 0.38-0.35 0.38z"/><polygon id="polygon9778" points="157.85 709.4 162.96 709.4 162.96 709.96 157.85 709.96"/><polygon id="polygon9780" points="166.76 712.93 170.1 712.93 169.12 711.92 169.31 711.68 170.99 713.12 169.93 714.56 169.64 714.32 170.18 713.32 166.85 713.32"/><path id="path9782" d="m166.99 707.12 0.05 0.16 0.05 0.15 0.04 0.14 0.04 0.13 0.04 0.13 0.04 0.12 0.04 0.12 0.04 0.11 0.03 0.11 0.04 0.1 0.03 0.1 0.03 0.09 0.03 0.09 0.04 0.08 0.03 0.08 0.03 0.08 0.03 0.08 0.03 0.07 0.06 0.14 0.06 0.14 0.07 0.13 0.07 0.13 0.07 0.13 0.08 0.13 0.04 0.07 0.04 0.07c0.33 0.56 0.61 0.87 0.78 0.87 0.06 0 0.1-0.04 0.15-0.14 0.08-0.17 0.17-0.22 0.36-0.22 0.29 0 0.46 0.18 0.46 0.49s-0.19 0.52-0.47 0.52c-0.22 0-0.49-0.15-0.75-0.42-0.41-0.42-0.81-1.01-0.97-1.41l-0.14-0.36 0.53 2.17-0.03 0.02c-0.73-0.13-0.82-0.15-1.55-0.27v-0.17c0.24 0.05 0.27 0.05 0.34 0.05 0.22 0 0.35-0.1 0.35-0.28 0-0.14 0-0.14-0.16-0.82l-0.8-2.91z"/><path id="path9784" d="m172.42 708.69-0.02 0.02c-0.62-0.12-0.97-0.17-1.18-0.18v-0.11h0.18l0.05 0.01c0.06 0 0.2-0.04 0.23-0.07 0.03-0.02 0.05-0.09 0.05-0.16s-0.03-0.25-0.11-0.55l-0.5-2.04c-0.24-0.96-0.4-1.26-0.68-1.26-0.08 0-0.12 0.03-0.12 0.07 0 0.03 0 0.05 0.03 0.08 0.04 0.06 0.06 0.09 0.06 0.15 0 0.14-0.13 0.26-0.29 0.26s-0.28-0.13-0.28-0.3c0-0.24 0.23-0.42 0.55-0.42 0.61 0 1.03 0.53 1.31 1.64z"/><path id="path9786" d="m172.28 710.19h-0.01-0.02-0.02l-0.01-0.01h-0.02-0.02l-0.01-0.01-0.02-0.01h-0.01l-0.02-0.01-0.01-0.01-0.01-0.01-0.02-0.01-0.01-0.01-0.01-0.01-0.01-0.01-0.01-0.02-0.01-0.01-0.01-0.01-0.01-0.02-0.01-0.01-0.01-0.02v-0.01l-0.01-0.02v-0.02l-0.01-0.01v-0.02l-0.01-0.02v-0.02-0.02-0.02-0.02c0-0.22 0.13-0.37 0.33-0.37 0.18 0 0.34 0.16 0.34 0.36s-0.16 0.38-0.35 0.38z"/></g>
 </g>
</svg>
