<?xml version="1.0" encoding="UTF-8"?>
<svg width="240" height="150" version="1.1" viewBox="0 0 240 150" xmlns="http://www.w3.org/2000/svg" xmlns:cc="http://creativecommons.org/ns#" xmlns:dc="http://purl.org/dc/elements/1.1/" xmlns:ns0="http://www.iki.fi/pav/software/textext/" xmlns:rdf="http://www.w3.org/1999/02/22-rdf-syntax-ns#" xmlns:xlink="http://www.w3.org/1999/xlink">
 <style type="text/css">
  @import url('../estilo.css');
 </style>
 <metadata>
  <rdf:RDF>
   <cc:Work rdf:about="">
    <dc:format>image/svg+xml</dc:format>
    <dc:type rdf:resource="http://purl.org/dc/dcmitype/StillImage"/>
    <dc:title>Gnuplot</dc:title>
   </cc:Work>
  </rdf:RDF>
 </metadata>
 <title>Gnuplot</title>
 <desc>Produced by GNUPLOT 5.2 patchlevel 2</desc>
 <g id="gnuplot_canvas">
  <g fill="none">
   <rect width="240" height="150"/>
   <g stroke="currentColor">
    <g>
     <g color="black">
      <path d="m35.2 123" stroke="#000"/>
      <g transform="translate(30.2,127.3)" fill="#000" font-family="Stix Two Text" font-size="13" stroke="none" text-anchor="end">
       <text>
        <tspan font-family="Stix Two Text">0</tspan>
       </text>
      </g>
     </g>
     <g color="black">
      <path d="m75.2 123" stroke="#000"/>
      <g transform="translate(75.2,136.3)" fill="#000" font-family="Stix Two Text" font-size="13" stroke="none" text-anchor="middle">
       <text>
        <tspan font-family="Stix Two Text" font-style="italic">a</tspan>
       </text>
      </g>
     </g>
     <g color="black">
      <path d="m107.1 123" stroke="#000"/>
      <g transform="translate(107.1,136.3)" fill="#000" font-family="Stix Two Text" font-size="13" stroke="none" text-anchor="middle">
       <text>
        <tspan font-family="Stix Two Text" font-style="italic">x</tspan><tspan dy="3.90px" font-family="Stix Two Text" font-size="10.4">1</tspan><tspan dy="-3.90" font-size="13"/>
       </text>
      </g>
     </g>
     <g color="black">
      <path d="m131.1 123" stroke="#000"/>
      <g transform="translate(131.1,136.3)" fill="#000" font-family="Stix Two Text" font-size="13" stroke="none" text-anchor="middle">
       <text>
        <tspan font-family="Stix Two Text" font-style="italic">x</tspan><tspan dy="3.90px" font-family="Stix Two Text" font-size="10.4">2</tspan><tspan dy="-3.90" font-size="13"/>
       </text>
      </g>
     </g>
     <g color="black">
      <path d="m155.1 123" stroke="#000"/>
      <g transform="translate(155.1,136.3)" fill="#000" font-family="Stix Two Text" font-size="13" stroke="none" text-anchor="middle">
       <text>
        <tspan font-family="Stix Two Text" font-style="italic">b</tspan>
       </text>
      </g>
     </g>
     <g color="black">
      <path d="m35.2 18.1v104.9h179.8m0-104.9m-179.8 0" stroke="#000"/>
     </g>
     <g color="black">
      <path d="m75.2 123v-69.9" stroke="#000" stroke-dasharray="2.5,4.0"/>
     </g>
     <g color="black">
      <path d="m155.1 123v-69.9" stroke="#000" stroke-dasharray="2.5,4.0"/>
     </g>
    </g>
    <g color="black" stroke-width=".5">
     <path d="m107.1 123v-69.9" stroke="#9400d3" stroke-dasharray="1.2,2.0"/>
    </g>
    <g color="black" stroke-width=".5">
     <path d="m131.1 123v-69.9" stroke="#9400d3" stroke-dasharray="1.2,2.0"/>
    </g>
    <g color="black">
     <g transform="translate(18.6,23.4)" fill="#000" font-family="Stix Two Text" font-size="16" stroke="none" text-anchor="middle">
      <text font-family="Stix Two Text" xml:space="preserve"><tspan font-style="italic" xml:space="preserve">f</tspan><tspan font-size="6.4" xml:space="preserve"> </tspan><tspan font-size="16" xml:space="preserve">(</tspan><tspan font-style="italic" xml:space="preserve">x</tspan><tspan xml:space="preserve">)</tspan></text>
     </g>
    </g>
    <g color="black">
     <g transform="translate(215 135.4)" fill="#000" font-family="Stix Two Text" font-size="16" stroke="none" text-anchor="middle">
      <text>
       <tspan font-family="Stix Two Text" font-style="italic">x</tspan>
      </text>
     </g>
    </g>
   </g>
  </g>
  <g color="black" fill="none" stroke="currentColor">
   <defs>
    <pattern id="gpPat1" width="8" height="8" patternUnits="userSpaceOnUse">
     <path d="m-4 8 12-12m-8 16 12-12" fill="none" stroke="#9400d3"/>
    </pattern>
   </defs>
   <g shape-rendering="crispEdges" stroke="none">
    <polygon points="107.1 53.1 107.4 53.1 107.6 53.1 107.8 53.1 108.1 53.1 108.3 53.1 108.6 53.1 108.8 53.1 109.1 53.1 109.3 53.1 109.5 53.1 109.8 53.1 110 53.1 110.3 53.1 110.5 53.1 110.8 53.1 111 53.1 111.2 53.1 111.5 53.1 111.7 53.1 112 53.1 112.2 53.1 112.4 53.1 112.7 53.1 112.9 53.1 113.2 53.1 113.4 53.1 113.7 53.1 113.9 53.1 114.1 53.1 114.4 53.1 114.6 53.1 114.9 53.1 115.1 53.1 115.4 53.1 115.6 53.1 115.8 53.1 116.1 53.1 116.3 53.1 116.6 53.1 116.8 53.1 117 53.1 117.3 53.1 117.5 53.1 117.8 53.1 118 53.1 118.3 53.1 118.5 53.1 118.7 53.1 119 53.1 119.2 53.1 119.5 53.1 119.7 53.1 120 53.1 120.2 53.1 120.4 53.1 120.7 53.1 120.9 53.1 121.2 53.1 121.4 53.1 121.6 53.1 121.9 53.1 122.1 53.1 122.4 53.1 122.6 53.1 122.9 53.1 123.1 53.1 123.3 53.1 123.6 53.1 123.8 53.1 124.1 53.1 124.3 53.1 124.6 53.1 124.8 53.1 125 53.1 125.3 53.1 125.5 53.1 125.8 53.1 126 53.1 126.3 53.1 126.5 53.1 126.7 53.1 127 53.1 127.2 53.1 127.5 53.1 127.7 53.1 127.9 53.1 128.2 53.1 128.4 53.1 128.7 53.1 128.9 53.1 129.2 53.1 129.4 53.1 129.6 53.1 129.9 53.1 130.1 53.1 130.4 53.1 130.6 53.1 130.9 53.1 131.1 53.1 131.1 123 107.1 123" fill="url(#gpPat1)"/>
   </g>
  </g>
  <g color="black" fill="none" stroke="currentColor" stroke-width="2.5">
   <path d="m35.2 123h0.4 0.4 0.4 0.4 0.4 0.4 0.4 0.4 0.4 0.4 0.4 0.4 0.4 0.5 0.4 0.4 0.4 0.4 0.4 0.4 0.4 0.4 0.4 0.4 0.4 0.4 0.4 0.4 0.4 0.4 0.4 0.4 0.4 0.4 0.4 0.4 0.4 0.4 0.4 0.4 0.4 0.5 0.4 0.4 0.4 0.4 0.4 0.4 0.4 0.4 0.4 0.4 0.4 0.4 0.4 0.4 0.4 0.4 0.4 0.4 0.4 0.4 0.4 0.4 0.4 0.4 0.4 0.4 0.4 0.5 0.4 0.4 0.4 0.4 0.4 0.4 0.4 0.4 0.4 0.4 0.4 0.4 0.4 0.4 0.4 0.4 0.4 0.4 0.4 0.4 0.4 0.4 0.4 0.4 0.4 0.4 0.4 0.5 0.4" stroke="#e51e10"/>
  </g>
  <g color="black" fill="none" stroke="currentColor" stroke-width="2.5">
   <path d="m75.2 53.1h0.8 0.8 0.8 0.8 0.8 0.8 0.8 0.8 0.8 0.8 0.8 0.8 0.8 0.9 0.8 0.8 0.8 0.8 0.8 0.8 0.8 0.8 0.8 0.8 0.8 0.8 0.8 0.9 0.8 0.8 0.8 0.8 0.8 0.8 0.8 0.8 0.8 0.8 0.8 0.8 0.9 0.8 0.8 0.8 0.8 0.8 0.8 0.8 0.8 0.8 0.8 0.8 0.8 0.8 0.9 0.8 0.8 0.8 0.8 0.8 0.8 0.8 0.8 0.8 0.8 0.8 0.8 0.8 0.9 0.8 0.8 0.8 0.8 0.8 0.8 0.8 0.8 0.8 0.8 0.8 0.8 0.8 0.9 0.8 0.8 0.8 0.8 0.8 0.8 0.8 0.8 0.8 0.8 0.8 0.8 0.8 0.9 0.8 0.8" stroke="#e51e10"/>
  </g>
  <g color="black" fill="none" stroke="currentColor" stroke-width="2.5">
   <path d="m155.1 123h0.6 0.6 0.6 0.6 0.6 0.6 0.6 0.6 0.6 0.6 0.6 0.6 0.6 0.6 0.6 0.7 0.6 0.6 0.6 0.6 0.6 0.6 0.6 0.6 0.6 0.6 0.6 0.6 0.6 0.6 0.6 0.6 0.6 0.6 0.7 0.6 0.6 0.6 0.6 0.6 0.6 0.6 0.6 0.6 0.6 0.6 0.6 0.6 0.6 0.6 0.6 0.6 0.7 0.6 0.6 0.6 0.6 0.6 0.6 0.6 0.6 0.6 0.6 0.6 0.6 0.6 0.6 0.6 0.6 0.6 0.6 0.7 0.6 0.6 0.6 0.6 0.6 0.6 0.6 0.6 0.6 0.6 0.6 0.6 0.6 0.6 0.6 0.6 0.6 0.7 0.6 0.6 0.6 0.6 0.6 0.6 0.6 0.6 0.6" stroke="#e51e10"/>
  </g>
 </g>
 <g id="content" transform="matrix(1.3867 0 0 -1.3867 -165.54 963.24)" fill="none" fill-rule="evenodd" stroke="#000" stroke-miterlimit="10.433" ns0:alignment="middle center" ns0:jacobian_sqrt="1.386667" ns0:pdfconverter="pstoedit" ns0:preamble="/home/antonio/.config/inkscape/extensions/textext/default_packages.tex" ns0:scale="1.04" ns0:texconverter="pdflatex" ns0:text="$\\dfrac{1}{b-a}$" ns0:version="0.10.0" xml:space="preserve">
<path d="m160.68 667.25-1.79-0.91v-0.13c0.12 0.05 0.23 0.08 0.27 0.11 0.18 0.06 0.35 0.1 0.44 0.1 0.21 0 0.3-0.14 0.3-0.46v-4.5c0-0.33-0.08-0.56-0.24-0.65-0.15-0.09-0.28-0.12-0.7-0.13v-0.15h2.75v0.15c-0.79 0.01-0.95 0.11-0.95 0.59v5.96z" fill="#000" stroke-width="0"/>
<line x1="149.91" x2="170.63" y1="656.35" y2="656.35" stroke-width=".558"/><g fill="#000" stroke-width="0">
<path d="m151.01 653.34h0.15l0.02-0.01h0.14l0.02-0.01h0.06l0.02-0.01h0.05l0.01-0.01h0.01l0.02-0.01h0.02l0.04-0.02h0.01l0.05-0.05v-0.02l0.01-0.01v-0.01l0.01-0.02v-0.09c0-0.09-0.03-0.21-0.09-0.42-0.02-0.07-0.04-0.14-0.05-0.19l-0.02-0.07-1.35-4.98v-0.04c0-0.23 0.76-0.53 1.32-0.53 1.51 0 3.16 1.74 3.16 3.3 0 0.7-0.48 1.2-1.15 1.2-0.7 0-1.22-0.41-1.93-1.5l0.17-0.13c0.44 0.76 0.89 1.14 1.37 1.14 0.43 0 0.7-0.33 0.7-0.86 0-0.65-0.51-1.71-1.1-2.33-0.37-0.38-0.8-0.59-1.23-0.59-0.3 0-0.46 0.11-0.46 0.34 0 0.6 0.3 1.56 0.72 2.3l-0.17 0.13c0.52 1.88 0.59 2.15 1.04 3.85l-0.05 0.05c-0.5-0.09-0.86-0.15-1.52-0.23z"/>
<polygon points="162.83 649.78 157.72 649.78 157.72 649.23 162.83 649.23"/>
<path d="m170.28 648.05-0.01-0.02-0.02-0.01-0.02-0.02-0.01-0.02-0.02-0.01-0.2-0.2c-0.3-0.31-0.43-0.41-0.52-0.41-0.08 0-0.14 0.06-0.14 0.13 0 0.2 0.42 1.9 0.89 3.61 0.03 0.1 0.04 0.12 0.06 0.2l-0.07 0.04-0.61-0.07-0.03-0.04-0.11-0.47c-0.08 0.37-0.37 0.58-0.79 0.58l0.05-0.22c0.34-0.02 0.56-0.26 0.56-0.61 0-0.83-0.5-2.01-1.18-2.74-0.24-0.27-0.58-0.44-0.87-0.44-0.35 0-0.58 0.29-0.58 0.75 0 0.53 0.38 1.56 0.81 2.17 0.4 0.58 0.87 0.9 1.26 0.87l-0.05 0.22c-1.32 0-2.86-1.82-2.86-3.39 0-0.7 0.38-1.11 1.02-1.11 0.7 0 1.13 0.33 2 1.56-0.19-0.77-0.22-0.9-0.22-1.14 0-0.29 0.11-0.41 0.39-0.41 0.4 0 0.65 0.19 1.39 1.1z"/>
</g></g>
</svg>
