<?xml version="1.0" encoding="UTF-8"?>
<svg width="250" height="165.4" version="1.1" viewBox="0 0 250 165.4" xmlns="http://www.w3.org/2000/svg" xmlns:cc="http://creativecommons.org/ns#" xmlns:dc="http://purl.org/dc/elements/1.1/" xmlns:ns0="http://www.iki.fi/pav/software/textext/" xmlns:rdf="http://www.w3.org/1999/02/22-rdf-syntax-ns#" xmlns:xlink="http://www.w3.org/1999/xlink">
 <style type="text/css">
  @import url('../estilo.css');
 </style>
 <metadata>
  <rdf:RDF>
   <cc:Work rdf:about="">
    <dc:format>image/svg+xml</dc:format>
    <dc:type rdf:resource="http://purl.org/dc/dcmitype/StillImage"/>
    <dc:title>Gnuplot</dc:title>
   </cc:Work>
  </rdf:RDF>
 </metadata>
 <title>Gnuplot</title>
 <desc>Produced by GNUPLOT 5.2 patchlevel 2</desc>
 <g fill="none">
  <rect x="5" y="5" width="240" height="150"/>
  <g stroke="currentColor">
   <g transform="translate(5,5)" color="#000000">
    <path d="m35.2 123" stroke="#000"/>
    <g transform="translate(30.2,127.3)" fill="#000" font-family="'Stix Two Text'" font-size="13px" stroke="none" text-anchor="end">
     <text>
      <tspan font-family="'Stix Two Text'">0</tspan>
     </text>
    </g>
   </g>
   <g transform="translate(5,5)" color="#000000">
    <path d="m75.2 123" stroke="#000"/>
    <g transform="translate(75.2,136.3)" fill="#000" font-family="'Stix Two Text'" font-size="13px" stroke="none" text-anchor="middle">
     <text>
      <tspan font-family="'Stix Two Text'" font-style="italic">a</tspan>
     </text>
    </g>
   </g>
   <g transform="translate(5,5)" color="#000000">
    <path d="m155.1 123" stroke="#000"/>
    <g transform="translate(155.1,136.3)" fill="#000" font-family="'Stix Two Text'" font-size="13px" stroke="none" text-anchor="middle">
     <text>
      <tspan font-family="'Stix Two Text'" font-style="italic">b</tspan>
     </text>
    </g>
   </g>
   <g transform="translate(5,5)" color="#000000">
    <path d="m35.2 18.1v104.9h179.8m0-104.9m-179.8 0" stroke="#000"/>
   </g>
   <g transform="translate(5,5)" color="#000000">
    <path d="m75.2 123v-69.9" stroke="#000" stroke-dasharray="2.5, 4"/>
   </g>
   <g transform="translate(5,5)" color="#000000">
    <path d="m155.1 123v-69.9" stroke="#000" stroke-dasharray="2.5, 4"/>
   </g>
   <g transform="translate(5,5)" color="#000000">
    <g transform="translate(18.6,23.4)" fill="#000" font-family="'Stix Two Text'" font-size="16px" stroke="none" text-anchor="middle">
     <text font-family="'Stix Two Text'" xml:space="preserve"><tspan font-style="italic" xml:space="preserve">f</tspan><tspan font-size="6.4px" xml:space="preserve"> </tspan><tspan font-size="16px" xml:space="preserve">(</tspan><tspan font-style="italic" xml:space="preserve">x</tspan><tspan xml:space="preserve">)</tspan></text>
    </g>
   </g>
   <g transform="translate(5,5)" color="#000000">
    <g transform="translate(215,135.4)" fill="#000" font-family="'Stix Two Text'" font-size="16px" stroke="none" text-anchor="middle">
     <text>
      <tspan font-family="'Stix Two Text'" font-style="italic">x</tspan>
     </text>
    </g>
   </g>
  </g>
 </g>
 <g transform="translate(5,5)">
  <g color="#000000" fill="none" stroke="currentColor" stroke-width="2.5">
   <path d="m35.2 123h40" stroke="#e51e10"/>
  </g>
 </g>
 <g transform="translate(5,5)">
  <g color="#000000" fill="none" stroke="currentColor" stroke-width="2.5">
   <path d="m75.2 53.1h79.9" stroke="#e51e10"/>
  </g>
 </g>
 <g transform="translate(5,5)">
  <g color="#000000" fill="none" stroke="currentColor" stroke-width="2.5">
   <path d="m155.1 123h59.9" stroke="#e51e10"/>
  </g>
 </g>
 <g id="content" transform="matrix(1.3867 0 0 -1.3867 -160.54 968.24)" fill="none" fill-rule="evenodd" stroke="#000" stroke-miterlimit="10.433" ns0:alignment="middle center" ns0:jacobian_sqrt="1.386667" ns0:pdfconverter="pstoedit" ns0:preamble="/home/antonio/.config/inkscape/extensions/textext/default_packages.tex" ns0:scale="1.04" ns0:texconverter="pdflatex" ns0:text="$\\dfrac{1}{b-a}$" ns0:version="0.10.0" xml:space="preserve">
<path d="m160.68 667.25-1.79-0.91v-0.13c0.12 0.05 0.23 0.08 0.27 0.11 0.18 0.06 0.35 0.1 0.44 0.1 0.21 0 0.3-0.14 0.3-0.46v-4.5c0-0.33-0.08-0.56-0.24-0.65-0.15-0.09-0.28-0.12-0.7-0.13v-0.15h2.75v0.15c-0.79 0.01-0.95 0.11-0.95 0.59v5.96z" fill="#000" stroke-width="0"/>
<line x1="149.91" x2="170.63" y1="656.35" y2="656.35" stroke-width=".558"/><g fill="#000" stroke-width="0">
<path d="m151.01 653.34h0.15l0.02-0.01h0.14l0.02-0.01h0.06l0.02-0.01h0.05l0.01-0.01h0.01l0.02-0.01h0.02l0.04-0.02h0.01l0.05-0.05v-0.02l0.01-0.01v-0.01l0.01-0.02v-0.09c0-0.09-0.03-0.21-0.09-0.42-0.02-0.07-0.04-0.14-0.05-0.19l-0.02-0.07-1.35-4.98v-0.04c0-0.23 0.76-0.53 1.32-0.53 1.51 0 3.16 1.74 3.16 3.3 0 0.7-0.48 1.2-1.15 1.2-0.7 0-1.22-0.41-1.93-1.5l0.17-0.13c0.44 0.76 0.89 1.14 1.37 1.14 0.43 0 0.7-0.33 0.7-0.86 0-0.65-0.51-1.71-1.1-2.33-0.37-0.38-0.8-0.59-1.23-0.59-0.3 0-0.46 0.11-0.46 0.34 0 0.6 0.3 1.56 0.72 2.3l-0.17 0.13c0.52 1.88 0.59 2.15 1.04 3.85l-0.05 0.05c-0.5-0.09-0.86-0.15-1.52-0.23z"/>
<polygon points="157.72 649.23 162.83 649.23 162.83 649.78 157.72 649.78"/>
<path d="m170.28 648.05-0.01-0.02-0.02-0.01-0.02-0.02-0.01-0.02-0.02-0.01-0.2-0.2c-0.3-0.31-0.43-0.41-0.52-0.41-0.08 0-0.14 0.06-0.14 0.13 0 0.2 0.42 1.9 0.89 3.61 0.03 0.1 0.04 0.12 0.06 0.2l-0.07 0.04-0.61-0.07-0.03-0.04-0.11-0.47c-0.08 0.37-0.37 0.58-0.79 0.58l0.05-0.22c0.34-0.02 0.56-0.26 0.56-0.61 0-0.83-0.5-2.01-1.18-2.74-0.24-0.27-0.58-0.44-0.87-0.44-0.35 0-0.58 0.29-0.58 0.75 0 0.53 0.38 1.56 0.81 2.17 0.4 0.58 0.87 0.9 1.26 0.87l-0.05 0.22c-1.32 0-2.86-1.82-2.86-3.39 0-0.7 0.38-1.11 1.02-1.11 0.7 0 1.13 0.33 2 1.56-0.19-0.77-0.22-0.9-0.22-1.14 0-0.29 0.11-0.41 0.39-0.41 0.4 0 0.65 0.19 1.39 1.1z"/>
</g></g>
 <g transform="matrix(1.3867 0 0 -1.3867 -102.09 1057.4)" fill="none" fill-rule="evenodd" stroke="#000" stroke-miterlimit="10.433" inkscapeversion="0.92.5" ns0:alignment="middle center" ns0:jacobian_sqrt="1.386667" ns0:pdfconverter="pstoedit" ns0:preamble="/home/antonio/.config/inkscape/extensions/textext/default_packages.tex" ns0:scale="1.04" ns0:texconverter="pdflatex" ns0:text="$\\dfrac{a+b}{2}$" ns0:version="0.10.0" xml:space="preserve"><g fill="#000" stroke-width="0">
<path d="m154.54 661.57-0.15-0.15h-0.01l-0.01-0.01v-0.01l-0.01-0.01h-0.01l-0.01-0.02-0.02-0.01-0.01-0.02-0.02-0.01-0.01-0.01-0.01-0.02-0.01-0.01c-0.3-0.31-0.43-0.41-0.52-0.41-0.08 0-0.14 0.06-0.14 0.13 0 0.2 0.42 1.9 0.89 3.6 0.02 0.11 0.03 0.12 0.05 0.21l-0.06 0.03-0.61-0.07-0.03-0.03-0.11-0.47c-0.08 0.37-0.37 0.57-0.8 0.57l0.06-0.21c0.34-0.03 0.56-0.26 0.56-0.61 0-0.83-0.5-2.01-1.19-2.74-0.24-0.27-0.58-0.44-0.87-0.44-0.34 0-0.58 0.29-0.58 0.75 0 0.53 0.38 1.56 0.81 2.17 0.4 0.58 0.87 0.89 1.27 0.87l-0.06 0.21c-1.32 0-2.85-1.81-2.85-3.38 0-0.7 0.38-1.11 1.02-1.11 0.69 0 1.12 0.33 2 1.56-0.2-0.77-0.23-0.9-0.23-1.14 0-0.29 0.12-0.41 0.4-0.41 0.4 0 0.65 0.19 1.38 1.1z"/>
<polygon points="159.99 660.47 160.55 660.47 160.55 662.75 162.83 662.75 162.83 663.3 160.55 663.3 160.55 665.55 159.99 665.55 159.99 663.3 157.72 663.3 157.72 662.75 159.99 662.75"/>
<path d="m166.75 666.86h0.13l0.02-0.01h0.15l0.01-0.01h0.09l0.01-0.01h0.04l0.01-0.01h0.03l0.02-0.01h0.02l0.01-0.01 0.02-0.01h0.01l0.02-0.01 0.03-0.03v-0.01l0.01-0.02v-0.01l0.01-0.01v-0.03l0.01-0.02v-0.06c0-0.09-0.03-0.21-0.09-0.43-0.02-0.06-0.04-0.13-0.05-0.18l-0.02-0.07-1.36-4.98v-0.04c0-0.23 0.77-0.53 1.33-0.53 1.5 0 3.16 1.74 3.16 3.3 0 0.7-0.49 1.19-1.16 1.19-0.7 0-1.21-0.4-1.92-1.5l0.17-0.13c0.44 0.77 0.89 1.15 1.36 1.15 0.43 0 0.7-0.33 0.7-0.86 0-0.65-0.51-1.72-1.09-2.33-0.37-0.38-0.8-0.59-1.23-0.59-0.31 0-0.46 0.11-0.46 0.34 0 0.6 0.3 1.56 0.72 2.29l-0.17 0.13c0.52 1.89 0.59 2.16 1.04 3.86l-0.05 0.05c-0.5-0.09-0.86-0.15-1.53-0.23z"/>
</g><line x1="149.91" x2="170.63" y1="656.29" y2="656.29" stroke-width=".558"/>
<path d="m162.52 648.26-0.13 0.04c-0.37-0.56-0.5-0.65-0.95-0.65h-2.38l1.67 1.75c0.89 0.92 1.28 1.68 1.28 2.45 0 0.99-0.81 1.76-1.85 1.76-0.54 0-1.06-0.22-1.43-0.62-0.32-0.33-0.47-0.65-0.64-1.36l0.21-0.05c0.4 0.98 0.76 1.29 1.44 1.29 0.84 0 1.41-0.56 1.41-1.4 0-0.77-0.46-1.69-1.3-2.58l-1.77-1.88v-0.12h3.89z" fill="#000" stroke-width="0"/>
</g>
 <path d="m120.15 131v-3" fill="none" stroke="#000" stroke-width="1px"/>
</svg>
