<?xml version="1.0" encoding="UTF-8" standalone="no"?>
<!-- Created with Inkscape (http://www.inkscape.org/) -->
<svg id="svg2" xmlns:rdf="http://www.w3.org/1999/02/22-rdf-syntax-ns#" xmlns="http://www.w3.org/2000/svg" height="115.82" width="186.52" version="1.1" xmlns:cc="http://creativecommons.org/ns#" xmlns:dc="http://purl.org/dc/elements/1.1/" viewBox="0 0 186.52409 115.82111">
 <style type="text/css">
	@import url('../estilo.css');
 </style>
 <metadata id="metadata7">
  <rdf:RDF>
   <cc:Work rdf:about="">
    <dc:format>image/svg+xml</dc:format>
    <dc:type rdf:resource="http://purl.org/dc/dcmitype/StillImage"/>
    <dc:title/>
   </cc:Work>
  </rdf:RDF>
 </metadata>
 <g id="layer1" transform="translate(-159.51 -354.42)">
  <g fill="#0ff">
   <rect id="rect4230" height="46.717" width="77.033" stroke="#000" y="417.52" x="263"/>
   <rect id="rect4220" height="46.717" width="77.033" stroke="#000" y="417.52" x="165.51"/>
   <rect id="rect4280" height="10" width="36.06" y="383.23" x="235.08"/>
   <path id="path4274" d="m225.14 383.23h9.9398v41.25h-9.9398z"/>
   <path id="path4276" d="m271.14 383.23h9.9398v41.25h-9.9398z"/>
  </g>
  <g stroke="#000">
   <path id="rect4222" d="m242.54 406.09v58.148h-77.033v-58.148" stroke-width="2" fill="none"/>
   <path id="rect4226" d="m235.08 393.23v31.25m-9.9398 0v-41.25h9.9398" fill="#0ff"/>
   <path id="rect4228" d="m271.14 383.23h9.9398v41.25m-9.9398 0v-31.25" fill="#0ff"/>
  </g>
  <g stroke="#000" fill="none">
   <path id="rect4232" d="m340.03 406.09v58.148h-77.033v-58.148" stroke-width="2"/>
   <g stroke-width="1px">
    <path id="path4234" d="m194.82 426.96v-59.639"/>
    <path id="path4236" d="m319.83 426.96v-59.639"/>
    <path id="path4278" d="m271.14 393.23h-36.06"/>
    <path id="path4282" d="m271.14 383.23h-36.06"/>
   </g>
  </g>
  <g id="g4343" transform="translate(125.64 -8.4263)" stroke="#000" fill="none">
   <path id="path4345" d="m76.68 375.75a7.4066 7.4066 0 0 1 6.761 -7.3784 7.4066 7.4066 0 0 1 7.9396 6.0922 7.4066 7.4066 0 0 1 -5.3771 8.4403"/>
   <path id="circle4347" d="m94.16 375.75a7.4066 7.4066 0 0 1 -7.4066 7.4066 7.4066 7.4066 0 0 1 -7.4066 -7.4066 7.4066 7.4066 0 0 1 7.4066 -7.4066 7.4066 7.4066 0 0 1 7.4066 7.4066z"/>
   <path id="circle4349" d="m96.826 375.75a7.4066 7.4066 0 0 1 -7.4066 7.4066 7.4066 7.4066 0 0 1 -7.4066 -7.4066 7.4066 7.4066 0 0 1 7.4066 -7.4066 7.4066 7.4066 0 0 1 7.4066 7.4066z"/>
   <path id="path4351" d="m99.493 375.75a7.4066 7.4066 0 0 1 -6.761 7.3784 7.4066 7.4066 0 0 1 -7.9396 -6.0922 7.4066 7.4066 0 0 1 5.3771 -8.4403"/>
  </g>
  <path id="path4357" d="m194.82 367.33 7.5031-0.002" stroke="#000" stroke-width="1px" fill="none"/>
  <g id="g4359" transform="translate(212.83 -8.4263)" stroke="#000" fill="none">
   <path id="path4361" d="m76.68 375.75a7.4066 7.4066 0 0 1 6.761 -7.3784 7.4066 7.4066 0 0 1 7.9396 6.0922 7.4066 7.4066 0 0 1 -5.3771 8.4403"/>
   <path id="path4363" d="m94.16 375.75a7.4066 7.4066 0 0 1 -7.4066 7.4066 7.4066 7.4066 0 0 1 -7.4066 -7.4066 7.4066 7.4066 0 0 1 7.4066 -7.4066 7.4066 7.4066 0 0 1 7.4066 7.4066z"/>
   <path id="path4365" d="m96.826 375.75a7.4066 7.4066 0 0 1 -7.4066 7.4066 7.4066 7.4066 0 0 1 -7.4066 -7.4066 7.4066 7.4066 0 0 1 7.4066 -7.4066 7.4066 7.4066 0 0 1 7.4066 7.4066z"/>
   <path id="path4367" d="m99.493 375.75a7.4066 7.4066 0 0 1 -6.761 7.3784 7.4066 7.4066 0 0 1 -7.9396 -6.0922 7.4066 7.4066 0 0 1 5.3771 -8.4403"/>
  </g>
  <path id="path4369" d="m319.83 367.33-7.5031-0.002" stroke="#000" stroke-width="1px" fill="none"/>
  <path id="path4371" d="m225.14 367.32h64.374" stroke="#000" stroke-width="1px" fill="none"/>
  <g>
   <circle id="path4385" cx="194.82" stroke="#000" cy="426.96" r="2.4272"/>
   <circle id="circle4387" stroke="#000" cy="426.96" cx="319.83" r="2.4272"/>
   <text id="text4389" style="word-spacing:0px;letter-spacing:0px" xml:space="preserve" font-size="17.812px" line-height="125%" y="451.11951" x="171.42488" font-family="&apos;STIX Two Text&apos;" fill="#000000"><tspan id="tspan4391" x="171.42488" y="451.11951">B<tspan id="tspan4393" dy="6" font-size="65%">red</tspan><tspan dy="-6"> / B</tspan><tspan id="tspan4395" dy="6" font-size="65%">ox</tspan></tspan></text>
   <text id="text4397" style="word-spacing:0px;letter-spacing:0px" xml:space="preserve" font-size="17.812px" line-height="125%" y="451.11951" x="267.56592" font-family="&apos;STIX Two Text&apos;" fill="#000000"><tspan id="tspan4399" x="267.56592" y="451.11951">A<tspan id="tspan4401" dy="6" font-size="65%">ox</tspan><tspan dy="-6"> / A</tspan><tspan id="tspan4403" dy="6" font-size="65%">red</tspan></tspan></text>
  </g>
 </g>
</svg>
