<?xml version="1.0" encoding="UTF-8" standalone="no"?>
<svg id="svg25303" xmlns:rdf="http://www.w3.org/1999/02/22-rdf-syntax-ns#" xmlns="http://www.w3.org/2000/svg" xmlns:ns0="http://www.iki.fi/pav/software/textext/" height="200" width="200" version="1.1" xmlns:cc="http://creativecommons.org/ns#" xmlns:xlink="http://www.w3.org/1999/xlink" viewBox="0 0 200 200" xmlns:dc="http://purl.org/dc/elements/1.1/">
 <defs>
  <rect id="gpPt3" height="2" width="2" stroke="currentColor" y="-1" x="-1" stroke-width=".222"/>
  <rect id="gpPt4" height="2" width="2" stroke="currentColor" y="-1" x="-1" stroke-width=".222" fill="currentColor"/>
  <circle id="gpPt5" stroke-width=".222" cy="0" stroke="currentColor" cx="0" r="1"/>
  <use id="gpPt6" xlink:href="#gpPt5" fill="currentColor"/>
 </defs>
 <metadata id="metadata25445">
  <rdf:RDF>
   <cc:Work rdf:about="">
    <dc:format>image/svg+xml</dc:format>
    <dc:type rdf:resource="http://purl.org/dc/dcmitype/StillImage"/>
    <dc:title>Gnuplot</dc:title>
   </cc:Work>
  </rdf:RDF>
 </metadata>
 <title id="title25305">Gnuplot</title>
 <desc id="desc25307">Produced by GNUPLOT 5.0 patchlevel 3</desc>
 <g id="gnuplot_canvas">
  <g fill="none">
   <rect id="rect25310" height="200" width="200" y="0" x="0"/>
   <g stroke="currentColor">
    <g id="g25346" color="black" stroke-width=".5">
     <g id="g25348" stroke="none" shape-rendering="crispEdges">
      <polygon id="polygon25350" points="175 100 174.9 96 174.6 92 174.1 88 173.3 84 172.4 80.1 171.2 76.2 169.9 72.4 168.3 68.7 166.6 65 164.7 61.5 162.6 58 160.3 54.7 157.8 51.5 155.2 48.4 152.4 45.5 149.5 42.7 146.4 40.1 143.2 37.6 139.9 35.3 136.4 33.2 132.9 31.3 129.2 29.6 125.5 28 121.7 26.7 117.8 25.5 113.9 24.6 109.9 23.8 105.9 23.3 101.9 23 97.9 22.9 93.8 23 89.8 23.3 85.8 23.8 81.8 24.6 77.9 25.5 74 26.7 70.2 28 66.5 29.6 62.8 31.3 59.3 33.2 55.8 35.3 52.5 37.6 49.3 40.1 46.2 42.7 43.3 45.5 40.5 48.4 37.9 51.5 35.4 54.7 33.1 58 31 61.5 29.1 65 27.4 68.7 25.8 72.4 24.5 76.2 23.3 80.1 22.4 84 21.6 88 21.1 92 20.8 96 20.7 100 20.8 104.1 21.1 108.1 21.6 112.1 22.4 116.1 23.3 120 24.5 123.9 25.8 127.7 27.4 131.4 29.1 135.1 31 138.6 33.1 142.1 35.4 145.4 37.9 148.6 40.5 151.7 43.3 154.6 46.2 157.4 49.3 160 52.5 162.5 55.8 164.8 59.3 166.9 62.8 168.8 66.5 170.5 70.2 172.1 74 173.4 77.9 174.6 81.8 175.5 85.8 176.3 89.8 176.8 93.8 177.1 97.8 177.2 101.9 177.1 105.9 176.8 109.9 176.3 113.9 175.5 117.8 174.6 121.7 173.4 125.5 172.1 129.2 170.5 132.9 168.8 136.4 166.9 139.9 164.8 143.2 162.5 146.4 160 149.5 157.4 152.4 154.6 155.2 151.7 157.8 148.6 160.3 145.4 162.6 142.1 164.7 138.6 166.6 135.1 168.3 131.4 169.9 127.7 171.2 123.9 172.4 120 173.3 116.1 174.1 112.1 174.6 108.1 174.9 104.1" fill="#ffffc0"/>
     </g>
     <path id="path25352" stroke="#000" d="m175 100l-0.1-4-0.3-4-0.5-4-0.8-4-0.9-3.9-1.2-3.9-1.3-3.8-1.6-3.7-1.7-3.7-1.9-3.5-2.1-3.5-2.3-3.3-2.5-3.2-2.6-3.1-2.8-2.9-2.9-2.8-3.1-2.6-3.2-2.5-3.3-2.3-3.5-2.1-3.5-1.9-3.7-1.7-3.7-1.6-3.8-1.3-3.9-1.2-3.9-0.9-4-0.8-4-0.5-4-0.3-4-0.1-4.1 0.1-4 0.3-4 0.5-4 0.8-3.9 0.9-3.9 1.2-3.8 1.3-3.7 1.6-3.7 1.7-3.5 1.9-3.5 2.1-3.3 2.3-3.2 2.5-3.1 2.6-2.9 2.8-2.8 2.9-2.6 3.1-2.5 3.2-2.3 3.3-2.1 3.5-1.9 3.5-1.7 3.7-1.6 3.7-1.3 3.8-1.2 3.9-0.9 3.9-0.8 4-0.5 4-0.3 4-0.1 4 0.1 4.1 0.3 4 0.5 4 0.8 4 0.9 3.9 1.2 3.9 1.3 3.8 1.6 3.7 1.7 3.7 1.9 3.5 2.1 3.5 2.3 3.3 2.5 3.2 2.6 3.1 2.8 2.9 2.9 2.8 3.1 2.6 3.2 2.5 3.3 2.3 3.5 2.1 3.5 1.9 3.7 1.7 3.7 1.6 3.8 1.3 3.9 1.2 3.9 0.9 4 0.8 4 0.5 4 0.3 4 0.1 4.1-0.1 4-0.3 4-0.5 4-0.8 3.9-0.9 3.9-1.2 3.8-1.3 3.7-1.6 3.7-1.7 3.5-1.9 3.5-2.1 3.3-2.3 3.2-2.5 3.1-2.6 2.9-2.8 2.8-2.9 2.6-3.1 2.5-3.2 2.3-3.3 2.1-3.5 1.9-3.5 1.7-3.7 1.6-3.7 1.3-3.8 1.2-3.9 0.9-3.9 0.8-4 0.5-4 0.3-4 0.1-4"/>
     <g id="g25354" font-size="12" transform="translate(102.4 100)" stroke="none" font-family="Arial" fill="#000">
      <text id="text25356"/>
     </g>
    </g>
    <g>
     <g id="g25360" color="black">
      <use id="use25362" color="rgb(255,   0, 255)" xlink:href="#gpPt4" transform="translate(97.9 100) scale(4.5)"/>
     </g>
     <g id="g25364" color="black">
      <g id="g25366" font-size="12" transform="translate(102.4 100)" stroke="none" font-family="Arial" fill="#000">
       <text id="text25368"/>
      </g>
     </g>
     <g id="g25370" color="black">
      <use id="use25372" color="black" xlink:href="#gpPt3" transform="translate(97.9 100) scale(4.5)"/>
     </g>
     <g id="g25376" color="black">
      <g id="g25378" stroke="none" shape-rendering="crispEdges">
       <polygon id="polygon25380" points="98.5 80.7 99.3 84 89.1 82.9 97.6 77.3" fill="#000"/>
      </g>
      <path id="path25382" stroke="#000" d="m97.9 80.8l0.6-0.1"/>
     </g>
    </g>
    <g id="g25386" color="black" stroke-width="1.5">
     <g id="g25388" stroke="none" shape-rendering="crispEdges">
      <polygon id="polygon25390" points="177.1 20.8 169.8 20.8 179.7 18.2 177.1 28.1" fill="#e69f00"/>
     </g>
     <path id="path25392" stroke="#e69f00" d="m177.1 20.8h-7.3l9.9-2.6-2.6 9.9v-7.3m-24.7 24.7l24.7-24.7"/>
    </g>
    <g id="g25394" color="black" stroke-width="1.5">
     <g id="g25396" stroke="none" shape-rendering="crispEdges">
      <polygon id="polygon25398" points="127.7 70.2 135 70.2 125.1 72.8 127.7 62.9" fill="#0072b2"/>
     </g>
     <path id="path25400" stroke="#0072b2" d="m127.7 70.2h7.3l-9.9 2.6 2.6-9.9v7.3m24.7-24.7l-24.7 24.7"/>
    </g>
   </g>
  </g>
  <g id="gnuplot_plot_1">
   <title id="title25407"/>
   <g id="g25409" color="black" stroke="currentColor" fill="none">
    <path id="path25411" stroke="#000" stroke-dasharray="2.5,4.0" d="m78.6 100.1v0.9 0.9l0.2 0.9 0.1 0.9 0.2 0.9 0.2 0.9 0.3 0.9 0.3 0.8 0.4 0.9 0.4 0.8 0.4 0.8 0.5 0.8 0.5 0.7 0.6 0.8 0.6 0.7 0.6 0.7 0.6 0.6 0.7 0.6 0.7 0.6 0.8 0.6 0.7 0.5 0.8 0.5 0.8 0.4 0.8 0.4 0.9 0.4 0.8 0.3 0.9 0.3 0.9 0.2 0.9 0.2 0.9 0.1 0.9 0.2h0.9 1 0.9 0.9l0.9-0.2 0.9-0.1 0.9-0.2 0.9-0.2 0.9-0.3 0.8-0.3 0.9-0.4 0.8-0.4 0.8-0.4 0.8-0.5 0.7-0.5 0.8-0.6 0.7-0.6 0.7-0.6 0.6-0.6 0.6-0.7 0.6-0.7 0.6-0.8 0.5-0.7 0.5-0.8 0.4-0.8 0.4-0.8 0.4-0.9 0.3-0.8 0.3-0.9 0.2-0.9 0.2-0.9 0.1-0.9 0.2-0.9v-0.9-1-0.9-0.9l-0.2-0.9-0.1-0.9-0.2-0.9-0.2-0.9-0.3-0.9-0.3-0.8-0.4-0.9-0.4-0.8-0.4-0.8-0.5-0.8-0.5-0.7-0.6-0.8-0.6-0.7-0.6-0.7-0.6-0.6-0.7-0.6-0.7-0.6-0.8-0.6-0.7-0.5-0.8-0.5-0.8-0.4-0.8-0.4-0.9-0.4-0.8-0.3-0.9-0.3-0.9-0.2-0.9-0.2-0.9-0.1-0.9-0.2h-0.9-0.9"/>
   </g>
  </g>
  <g stroke="currentColor" fill="none">
   <g id="g25415" color="black" stroke-width="2">
    <g id="g25417" font-size="12" transform="translate(156.9,45.5)" stroke="none" font-family="Arial" fill="#000">
     <text id="text25419"/>
    </g>
   </g>
   <g>
    <g id="g25423" color="black">
     <use id="use25425" color="rgb(229,  30,  16)" xlink:href="#gpPt6" transform="translate(152.4,45.5) scale(3.38)"/>
    </g>
    <g id="g25427" color="black">
     <g id="g25429" font-size="12" transform="translate(156.9,45.5)" stroke="none" font-family="Arial" fill="#000">
      <text id="text25431"/>
     </g>
    </g>
    <g id="g25433" color="black">
     <use id="use25435" color="black" xlink:href="#gpPt5" transform="translate(152.4,45.5) scale(3.38)"/>
    </g>
   </g>
  </g>
 </g>
 <g id="content" xml:space="preserve" stroke="#000" stroke-width="0" fill-rule="evenodd" ns0:pdfconverter="pstoedit" transform="matrix(1.75 0 0 -1.75 -122.28 1316.4)" stroke-miterlimit="10.433" ns0:text="$\n\\vec{F}_c\n$" ns0:version="0.7.2" ns0:inkscapeversion="0.91" ns0:preamble="/usr/share/inkscape/extensions/default_packages.tex" ns0:scale="1.4" ns0:texconverter="pdflatex"><polygon id="polygon26070" points="155.03 716.67 154.74 716.43 155.28 715.43 151.96 715.43 151.87 715.03 155.2 715.03 154.23 714.03 154.42 713.79 156.09 715.23"/><path id="path26072" d="m155.38 713.63h-4.96v-0.16c0.65-0.06 0.77-0.12 0.77-0.41 0-0.15-0.04-0.4-0.11-0.64l-1.23-4.4c-0.17-0.6-0.25-0.66-0.81-0.74v-0.16h2.51v0.16c-0.58 0.03-0.76 0.14-0.76 0.44 0 0.08 0.03 0.23 0.09 0.45l0.62 2.22c0.37-0.02 0.59-0.03 0.8-0.03 0.39 0 0.46-0.01 0.55-0.05 0.15-0.08 0.22-0.21 0.22-0.41 0-0.16-0.02-0.28-0.08-0.59l0.17-0.05 0.76 2.34-0.18 0.05c-0.45-0.9-0.48-0.91-2.15-0.93l0.65 2.32c0.06 0.2 0.2 0.26 0.61 0.26 1.68 0 2.03-0.13 2.03-0.75v-0.24c-0.01-0.06-0.01-0.07-0.03-0.19l0.22-0.02z"/><path id="path26074" d="m157.74 706.37-0.04-0.04-0.03-0.04-0.04-0.03-0.03-0.03-0.04-0.04-0.03-0.03-0.03-0.02-0.03-0.03-0.04-0.03-0.03-0.02-0.03-0.03-0.03-0.02-0.03-0.02-0.03-0.02-0.03-0.02-0.03-0.02-0.03-0.01-0.03-0.02-0.03-0.01-0.03-0.02-0.03-0.01-0.03-0.01-0.03-0.01-0.03-0.01h-0.03l-0.03-0.01h-0.03l-0.03-0.01h-0.03-0.03l-0.03-0.01h-0.03c-0.4 0-0.64 0.3-0.64 0.8 0 0.59 0.25 1.21 0.64 1.62 0.2 0.21 0.48 0.34 0.75 0.34 0.16 0 0.27-0.06 0.27-0.14 0-0.03-0.02-0.07-0.05-0.13-0.04-0.09-0.06-0.14-0.06-0.2 0-0.17 0.11-0.27 0.27-0.27 0.19 0 0.34 0.14 0.34 0.32 0 0.32-0.31 0.57-0.73 0.57-1.05 0-2.03-1.02-2.03-2.11 0-0.66 0.38-1.05 1.03-1.05 0.51 0 0.9 0.22 1.32 0.75z"/></g>
 <g id="g26246" xml:space="preserve" stroke="#000" stroke-width="0" fill-rule="evenodd" ns0:pdfconverter="pstoedit" transform="matrix(1.75 0 0 -1.75 -90.849 1284.4)" stroke-miterlimit="10.433" ns0:text="$\n\\vec{F}_{cf}\n$" ns0:version="0.7.2" ns0:inkscapeversion="0.91" ns0:preamble="/usr/share/inkscape/extensions/default_packages.tex" ns0:scale="1.4" ns0:texconverter="pdflatex"><polygon id="polygon26248" points="151.96 715.43 151.87 715.03 155.2 715.03 154.23 714.03 154.42 713.79 156.09 715.23 155.03 716.67 154.74 716.43 155.28 715.43"/><path id="path26250" d="m155.38 713.63h-4.96v-0.16c0.65-0.06 0.77-0.12 0.77-0.41 0-0.15-0.04-0.4-0.11-0.64l-1.23-4.4c-0.17-0.6-0.25-0.66-0.81-0.74v-0.16h2.51v0.16c-0.58 0.03-0.76 0.14-0.76 0.44 0 0.08 0.03 0.23 0.09 0.45l0.62 2.22c0.37-0.02 0.59-0.03 0.8-0.03 0.39 0 0.46-0.01 0.55-0.05 0.15-0.08 0.22-0.21 0.22-0.41 0-0.16-0.02-0.28-0.08-0.59l0.17-0.05 0.76 2.34-0.18 0.05c-0.45-0.9-0.48-0.91-2.15-0.93l0.65 2.32c0.06 0.2 0.2 0.26 0.61 0.26 1.68 0 2.03-0.13 2.03-0.75v-0.24c-0.01-0.06-0.01-0.07-0.03-0.19l0.22-0.02z"/><path id="path26252" d="m157.74 706.37-0.04-0.04-0.03-0.04-0.04-0.03-0.03-0.03-0.04-0.04-0.03-0.03-0.03-0.02-0.03-0.03-0.04-0.03-0.03-0.02-0.03-0.03-0.03-0.02-0.03-0.02-0.03-0.02-0.03-0.02-0.03-0.02-0.03-0.01-0.03-0.02-0.03-0.01-0.03-0.02-0.03-0.01-0.03-0.01-0.03-0.01-0.03-0.01h-0.03l-0.03-0.01h-0.03l-0.03-0.01h-0.03-0.03l-0.03-0.01h-0.03c-0.4 0-0.64 0.3-0.64 0.8 0 0.59 0.25 1.21 0.64 1.62 0.2 0.21 0.48 0.34 0.75 0.34 0.16 0 0.27-0.06 0.27-0.14 0-0.03-0.02-0.07-0.05-0.13-0.04-0.09-0.06-0.14-0.06-0.2 0-0.17 0.11-0.27 0.27-0.27 0.19 0 0.34 0.14 0.34 0.32 0 0.32-0.31 0.57-0.73 0.57-1.05 0-2.03-1.02-2.03-2.11 0-0.66 0.38-1.05 1.03-1.05 0.51 0 0.9 0.22 1.32 0.75z"/><path id="path26254" d="m159.69 708.39h0.62l-0.61-2.93c-0.15-0.74-0.38-1.13-0.68-1.13-0.08 0-0.14 0.05-0.14 0.11 0 0.03 0.01 0.05 0.03 0.08 0.03 0.04 0.04 0.07 0.04 0.11 0 0.15-0.13 0.27-0.27 0.27-0.15 0-0.26-0.13-0.26-0.29 0-0.23 0.24-0.42 0.55-0.42 0.62 0 1.11 0.69 1.39 1.97l0.51 2.23h0.75l0.05 0.22h-0.76c0.21 1.1 0.46 1.6 0.85 1.6 0.09 0 0.16-0.04 0.16-0.09 0-0.02-0.01-0.03-0.03-0.07-0.03-0.06-0.04-0.1-0.04-0.14 0-0.17 0.1-0.28 0.26-0.28s0.29 0.12 0.29 0.28c0 0.25-0.26 0.45-0.6 0.45s-0.61-0.15-0.87-0.48c-0.2-0.28-0.34-0.6-0.55-1.27h-0.64z"/></g>
</svg>
