<?xml version="1.0" encoding="UTF-8" standalone="no"?>
<svg id="svg4410" xmlns:rdf="http://www.w3.org/1999/02/22-rdf-syntax-ns#" xmlns="http://www.w3.org/2000/svg" xmlns:ns0="http://www.iki.fi/pav/software/textext/" height="200" width="400" version="1.1" xmlns:cc="http://creativecommons.org/ns#" xmlns:xlink="http://www.w3.org/1999/xlink" viewBox="0 0 400 200" xmlns:dc="http://purl.org/dc/elements/1.1/">
 <style type="text/css">
	 @import url('../estilo.css');
 </style>
 <defs>
  <circle id="gpPt5" stroke-width=".222" stroke="currentColor" cy="0" cx="0" r="1"/>
  <use id="gpPt6" xlink:href="#gpPt5" fill="currentColor"/>
 </defs>
 <metadata id="metadata4612">
  <rdf:RDF>
   <cc:Work rdf:about="">
    <dc:format>image/svg+xml</dc:format>
    <dc:type rdf:resource="http://purl.org/dc/dcmitype/StillImage"/>
    <dc:title>Gnuplot</dc:title>
   </cc:Work>
  </rdf:RDF>
 </metadata>
 <title id="title4412">Gnuplot</title>
 <desc id="desc4414">Produced by GNUPLOT 5.0 patchlevel 3</desc>
 <g id="gnuplot_canvas">
  <rect id="rect4417" height="200" width="400" y="0" x="0" fill="none"/>
  <g>
   <g id="g4449" font-size="16" font-family="Stix Two Text" color="black">
    <g id="g4451" transform="translate(197.9,153.1)" text-anchor="end">
     <text id="text4453">
      <tspan id="tspan4455" font-weight="bold" font-family="Stix Two Text" font-style="italic">x</tspan>
     </text>
    </g>
    <g id="g4457" transform="translate(80.9,22.7)">
     <text id="text4459">
      <tspan id="tspan4461" font-weight="bold" font-family="Stix Two Text" font-style="italic">y</tspan>
     </text>
    </g>
    <g id="g4463" transform="translate(31.2,175.9)" text-anchor="end">
     <text id="text4465">
      <tspan id="tspan4467" font-weight="bold" font-family="Stix Two Text" font-style="italic">z</tspan>
     </text>
    </g>
    <g id="g4469" transform="translate(368.6,153.1)" text-anchor="end">
     <text id="text4471">
      <tspan id="tspan4473" font-weight="bold" font-family="Stix Two Text" font-style="italic">x′</tspan>
     </text>
    </g>
    <g id="g4475" transform="translate(247.6,22.7)">
     <text id="text4477">
      <tspan id="tspan4479" font-weight="bold" font-family="Stix Two Text" font-style="italic">y′</tspan>
     </text>
    </g>
    <g id="g4481" transform="translate(202 175.9)" text-anchor="end">
     <text id="text4483">
      <tspan id="tspan4485" font-weight="bold" font-family="Stix Two Text" font-style="italic">z′</tspan>
     </text>
    </g>
   </g>
   <g stroke="currentColor" stroke-width=".5" fill="none">
    <g id="g4489" color="black">
     <g id="g4491" stroke="none" shape-rendering="crispEdges">
      <polygon id="polygon4493" points="189.5 139.9 188 137.3 197.9 139.9 188 142.5" fill="#000"/>
     </g>
     <path id="path4495" stroke="#000" d="m189.5 139.9l-1.5-2.6 9.9 2.6-9.9 2.6 1.5-2.6m-114.8 0h114.8"/>
    </g>
    <g id="g4497" color="black">
     <g id="g4499" stroke="none" shape-rendering="crispEdges">
      <polygon id="polygon4501" points="74.7 25.1 72.1 26.6 74.7 16.7 77.3 26.6" fill="#000"/>
     </g>
     <path id="path4503" stroke="#000" d="m74.7 25.1l-2.6 1.5 2.6-9.9 2.6 9.9-2.6-1.5m0 114.8v-114.8"/>
    </g>
    <g id="g4505" color="black">
     <g id="g4507" stroke="none" shape-rendering="crispEdges">
      <polygon id="polygon4509" points="37.1 177.5 40.1 178.3 31.2 183.4 36.3 174.5" fill="#000"/>
     </g>
     <path id="path4511" stroke="#000" d="m37.1 177.5l3 0.8-8.9 5.1 5.1-8.9 0.8 3m37.6-37.6l-37.6 37.6"/>
    </g>
    <g id="g4513" color="black">
     <g id="g4515" stroke="none" shape-rendering="crispEdges">
      <polygon id="polygon4517" points="356.1 139.9 354.6 137.3 364.5 139.9 354.6 142.5" fill="#000"/>
     </g>
     <path id="path4519" stroke="#000" d="m356.1 139.9l-1.5-2.6 9.9 2.6-9.9 2.6 1.5-2.6m-114.7 0h114.7"/>
    </g>
    <g id="g4521" color="black">
     <g id="g4523" stroke="none" shape-rendering="crispEdges">
      <polygon id="polygon4525" points="241.4 25.1 238.8 26.6 241.4 16.7 244 26.6" fill="#000"/>
     </g>
     <path id="path4527" stroke="#000" d="m241.4 25.1l-2.6 1.5 2.6-9.9 2.6 9.9-2.6-1.5m0 114.8v-114.8"/>
    </g>
    <g id="g4529" color="black">
     <g id="g4531" stroke="none" shape-rendering="crispEdges">
      <polygon id="polygon4533" points="203.8 177.5 206.8 178.3 197.9 183.4 203 174.5" fill="#000"/>
     </g>
     <path id="path4535" stroke="#000" d="m203.8 177.5l3 0.8-8.9 5.1 5.1-8.9 0.8 3m37.6-37.6l-37.6 37.6"/>
    </g>
   </g>
   <g id="g4539" color="black" stroke="currentColor" fill="none">
    <path id="path4541" stroke="#000" stroke-dasharray="2.5,4.0" d="m197.9 139.9h43.5"/>
   </g>
   <g id="g4543" color="black" fill="none">
    <g id="g4545" fill="#009e73" shape-rendering="crispEdges">
     <polygon id="polygon4547" points="188.3 183.4 188.3 179.9 197.9 183.4 188.3 186.9"/>
     <polygon id="polygon4549" points="40.8 183.4 40.8 186.9 31.2 183.4 40.8 179.9"/>
    </g>
    <path id="path4551" stroke="#009e73" stroke-dasharray="1.0,2.0" d="m40.8 183.4h147.5"/>
   </g>
   <g id="g4555" color="black" stroke-width="1.5" fill="none">
    <g id="g4557" shape-rendering="crispEdges">
     <polygon id="polygon4559" points="200.5 73.7 193.7 71 203.9 72.3 197.7 80.4" fill="#e51e10"/>
    </g>
    <path id="path4561" stroke="#e51e10" d="m200.5 73.7l-6.8-2.7 10.2 1.3-6.2 8.1 2.8-6.7m-31.7 13.1l31.7-13.1"/>
   </g>
   <g id="g4563" color="black" stroke-width="1.5" fill="none">
    <g id="g4565" shape-rendering="crispEdges">
     <polygon id="polygon4567" points="190 111.8 190.6 104.5 192.4 114.6 182.8 111.2" fill="#0072b2"/>
    </g>
    <path id="path4569" stroke="#0072b2" d="m190 111.8l0.6-7.3 1.8 10.1-9.6-3.4 7.2 0.6m-21.2-25l21.2 25"/>
   </g>
  </g>
  <g id="gnuplot_plot_1">
   <title id="title4576">NaN</title>
  </g>
  <g stroke="currentColor" fill="none">
   <g id="g4582" color="black" stroke-width="2">
    <g id="g4584" font-size="15" transform="translate(173.3,87.9)" stroke="none" font-family="Stix Two Text" fill="#000">
     <text id="text4586"/>
    </g>
   </g>
   <g>
    <g id="g4590" color="black">
     <use id="use4592" color="rgb(  0, 255,   0)" xlink:href="#gpPt6" transform="translate(168.8,86.8) scale(3.38)"/>
    </g>
    <g id="g4594" color="black">
     <g id="g4596" font-size="12" transform="translate(173.3,86.8)" stroke="none" font-family="Arial" fill="#000">
      <text id="text4598"/>
     </g>
    </g>
    <g id="g4600" color="black">
     <use id="use4602" color="black" xlink:href="#gpPt5" transform="translate(168.8,86.8) scale(3.38)"/>
    </g>
   </g>
  </g>
 </g>
 <g stroke-width="0" fill-rule="evenodd" stroke="#000" stroke-miterlimit="10.433">
  <g id="content" xml:space="preserve" ns0:pdfconverter="pstoedit" transform="matrix(1.75 0 0 -1.75 -153.11 1414.2)" ns0:text="$\nx_0\n$" ns0:version="0.7.2" ns0:inkscapeversion="0.91" ns0:preamble="/usr/share/inkscape/extensions/default_packages.tex" ns0:scale="1.4" ns0:texconverter="pdflatex"><path id="path4729" d="m153.22 708.23-0.02-0.02-0.01-0.01-0.01-0.02-0.02-0.01-0.01-0.02-0.01-0.01-0.02-0.02-0.01-0.01-0.01-0.02-0.01-0.02-0.02-0.01-0.01-0.02-0.01-0.01-0.01-0.01v-0.01l-0.01-0.01-0.01-0.01-0.01-0.01v-0.01l-0.01-0.01c-0.23-0.3-0.35-0.4-0.46-0.4-0.15 0-0.24 0.13-0.31 0.41-0.02 0.08-0.03 0.14-0.04 0.17-0.25 1.01-0.36 1.46-0.36 1.61 0.44 0.77 0.8 1.21 0.98 1.21 0.06 0 0.14-0.03 0.24-0.08 0.12-0.07 0.19-0.09 0.27-0.09 0.21 0 0.35 0.15 0.35 0.36s-0.17 0.37-0.41 0.37c-0.44 0-0.82-0.36-1.51-1.43l-0.11 0.55c-0.14 0.68-0.25 0.88-0.52 0.88-0.21 0-0.55-0.09-1.16-0.29l-0.11-0.04 0.04-0.15c0.38 0.09 0.47 0.11 0.56 0.11 0.25 0 0.31-0.09 0.45-0.69l0.28-1.23-0.81-1.16c-0.2-0.3-0.4-0.48-0.51-0.48-0.06 0-0.16 0.03-0.26 0.09-0.13 0.07-0.24 0.1-0.32 0.1-0.19 0-0.34-0.15-0.34-0.35 0-0.26 0.2-0.42 0.5-0.42 0.31 0 0.43 0.09 0.93 0.7 0.27 0.32 0.48 0.59 0.89 1.17l0.3-1.2c0.13-0.51 0.26-0.67 0.58-0.67 0.38 0 0.64 0.24 1.22 1.14z"/><path id="path4731" d="m155.41 710.34h-0.04-0.03-0.04-0.03-0.03l-0.04-0.01h-0.03l-0.03-0.01h-0.03l-0.04-0.01-0.03-0.01-0.03-0.01h-0.03l-0.03-0.01-0.03-0.01-0.03-0.02-0.02-0.01-0.03-0.01-0.03-0.01-0.03-0.02-0.03-0.01-0.02-0.02-0.03-0.01-0.03-0.02-0.02-0.02-0.03-0.01-0.02-0.02-0.03-0.02-0.02-0.02-0.03-0.02-0.02-0.03-0.03-0.02c-0.4-0.39-0.67-1.19-0.67-2.01 0-0.76 0.24-1.57 0.56-1.96 0.26-0.31 0.62-0.48 1.02-0.48v0.18c-0.6 0-0.91 0.75-0.91 2.2 0 1.48 0.32 2.25 0.92 2.25 0.58 0 0.9-0.78 0.9-2.24s-0.31-2.21-0.91-2.21v-0.18c0.36 0 0.66 0.12 0.91 0.37 0.4 0.38 0.67 1.19 0.67 2.03 0 1.43-0.64 2.41-1.55 2.41z"/></g>
  <g id="g4980" xml:space="preserve" ns0:pdfconverter="pstoedit" transform="matrix(1.75 0 0 -1.75 -82.209 1314.2)" ns0:text="$\n\\vec{v}\n$" ns0:version="0.7.2" ns0:inkscapeversion="0.91" ns0:preamble="/usr/share/inkscape/extensions/default_packages.tex" ns0:scale="1.4" ns0:texconverter="pdflatex"><polygon id="polygon4982" points="152.64 714.32 153.18 713.32 149.85 713.32 149.76 712.93 153.1 712.93 152.12 711.92 152.31 711.68 153.98 713.12 152.93 714.56"/><path id="path4984" d="m148.92 711.14h0.02 0.02 0.02 0.02 0.02 0.01l0.02 0.01h0.02 0.03 0.02 0.02 0.02 0.02 0.02 0.02c0.39 0 0.49-0.17 0.63-1.09 0.1-0.69 0.22-2.19 0.22-2.77 0-0.28 0.02-0.35 0.08-0.35 0.25 0 1.18 1.06 2.2 2.47 0.35 0.5 0.6 1.15 0.6 1.52 0 0.32-0.25 0.59-0.55 0.59-0.22 0-0.37-0.13-0.37-0.34 0-0.16 0.06-0.28 0.24-0.44 0.13-0.12 0.18-0.2 0.18-0.3 0-0.46-0.66-1.56-1.37-2.3l-0.31-0.32c-0.07 1.4-0.13 1.92-0.26 2.66-0.2 1.02-0.2 1.04-0.29 1.04-0.05 0-0.12-0.01-0.2-0.04-0.17-0.05-0.72-0.15-1.1-0.21z"/></g>
  <g id="g5220" xml:space="preserve" ns0:pdfconverter="pstoedit" transform="matrix(1.75 0 0 -1.75 -94.057 1352.1)" ns0:text="$\n\\vec{a}\n$" ns0:version="0.7.2" ns0:inkscapeversion="0.91" ns0:preamble="/usr/share/inkscape/extensions/default_packages.tex" ns0:scale="1.4" ns0:texconverter="pdflatex"><polygon id="polygon5222" points="153.11 714.56 152.82 714.32 153.36 713.32 150.03 713.32 149.94 712.93 153.28 712.93 152.3 711.92 152.49 711.68 154.16 713.12"/><path id="path5224" d="m153.33 708.22-0.01-0.02-0.01-0.01-0.02-0.01-0.01-0.01-0.01-0.02-0.01-0.01-0.01-0.01-0.01-0.01-0.01-0.01-0.01-0.01-0.01-0.01h-0.01l-0.01-0.01-0.01-0.01-0.01-0.01-0.01-0.01v-0.01h-0.01l-0.02-0.02-0.01-0.01-0.01-0.01-0.02-0.02-0.01-0.01-0.01-0.02-0.02-0.01c-0.29-0.31-0.43-0.41-0.51-0.41s-0.14 0.06-0.14 0.13c0 0.2 0.42 1.9 0.88 3.62 0.03 0.1 0.04 0.12 0.06 0.21l-0.07 0.03-0.61-0.07-0.03-0.03-0.1-0.48c-0.08 0.37-0.37 0.58-0.8 0.58l0.06-0.22c0.34-0.02 0.56-0.26 0.56-0.61 0-0.84-0.5-2.01-1.19-2.75-0.24-0.27-0.58-0.44-0.87-0.44-0.34 0-0.57 0.29-0.57 0.75 0 0.54 0.38 1.56 0.8 2.18 0.4 0.58 0.87 0.9 1.27 0.87l-0.06 0.22c-1.32 0-2.85-1.83-2.85-3.4 0-0.7 0.38-1.11 1.02-1.11 0.69 0 1.12 0.33 2 1.57-0.2-0.78-0.23-0.91-0.23-1.15 0-0.29 0.12-0.41 0.4-0.41 0.4 0 0.64 0.19 1.38 1.1z"/></g>
 </g>
</svg>
