<?xml version="1.0" encoding="UTF-8"?>
<!-- Created with Inkscape (http://www.inkscape.org/) -->
<svg width="551" height="389.8" version="1.1" viewBox="0 0 551 389.8" xmlns="http://www.w3.org/2000/svg" xmlns:cc="http://creativecommons.org/ns#" xmlns:dc="http://purl.org/dc/elements/1.1/" xmlns:rdf="http://www.w3.org/1999/02/22-rdf-syntax-ns#">
 <style type="text/css">
  @import url('../estilo.css');
 </style>
 <defs>
  <marker id="marker5355" overflow="visible" orient="auto">
   <path transform="scale(1.1) rotate(180) translate(1)" d="m8.7186 4.0337-10.926-4.0177 10.926-4.0177c-1.7455 2.3721-1.7354 5.6175-6e-7 8.0354z" fill-rule="evenodd" stroke="#000" stroke-linejoin="round" stroke-width=".625"/>
  </marker>
  <marker id="marker5319" overflow="visible" orient="auto">
   <path transform="matrix(-1.1,0,0,-1.1,-1.1,0)" d="m8.7186 4.0337-10.926-4.0177 10.926-4.0177c-1.7455 2.3721-1.7354 5.6175-6e-7 8.0354z" fill-rule="evenodd" stroke="#000" stroke-linejoin="round" stroke-width=".625"/>
  </marker>
  <marker id="Arrow2Lstart" overflow="visible" orient="auto">
   <path transform="matrix(1.1,0,0,1.1,1.1,0)" d="m8.7186 4.0337-10.926-4.0177 10.926-4.0177c-1.7455 2.3721-1.7354 5.6175-6e-7 8.0354z" fill-rule="evenodd" stroke="#000" stroke-linejoin="round" stroke-width=".625"/>
  </marker>
  <marker id="Arrow2Lend" overflow="visible" orient="auto">
   <path transform="matrix(-1.1,0,0,-1.1,-1.1,0)" d="m8.7186 4.0337-10.926-4.0177 10.926-4.0177c-1.7455 2.3721-1.7354 5.6175-6e-7 8.0354z" fill-rule="evenodd" stroke="#000" stroke-linejoin="round" stroke-width=".625"/>
  </marker>
 </defs>
 <metadata>
  <rdf:RDF>
   <cc:Work rdf:about="">
    <dc:format>image/svg+xml</dc:format>
    <dc:type rdf:resource="http://purl.org/dc/dcmitype/StillImage"/>
    <dc:title/>
   </cc:Work>
  </rdf:RDF>
 </metadata>
 <g transform="translate(-94.5 -38.224)">
  <rect x="210" y="127.52" width="60" height="10" fill="#ccc" stroke="#000"/>
  <text x="109.50882" y="102.8375" fill="#000000" font-family="'STIX Two Text'" font-size="16px" letter-spacing="0px" word-spacing="0px" style="font-feature-settings:normal;font-variant-caps:normal;font-variant-ligatures:normal;font-variant-numeric:normal;line-height:1.25" xml:space="preserve"><tspan x="109.50882" y="102.8375"><tspan font-family="'STIX Two Text'" font-style="italic">P</tspan><tspan dy="5" font-size="65%">1</tspan><tspan dy="-5">,</tspan> <tspan font-family="'STIX Two Text'" font-style="italic">V</tspan><tspan dy="5" font-size="65%">1</tspan><tspan dy="-5">,</tspan> <tspan font-family="'STIX Two Text'" font-style="italic">T</tspan><tspan dy="5" font-size="65%">1</tspan></tspan></text>
  <rect x="100" y="82.52" width="150" height="100" fill="none" stroke="#000"/>
  <text x="109.50882" y="172.37563" fill="#000000" font-family="'STIX Two Text'" font-size="16px" letter-spacing="0px" word-spacing="0px" style="font-feature-settings:normal;font-variant-caps:normal;font-variant-ligatures:normal;font-variant-numeric:normal;line-height:1.25" xml:space="preserve"><tspan x="109.50882" y="172.37563">1</tspan></text>
  <text x="419.50882" y="102.8375" fill="#000000" font-family="'STIX Two Text'" font-size="16px" letter-spacing="0px" word-spacing="0px" style="font-feature-settings:normal;font-variant-caps:normal;font-variant-ligatures:normal;font-variant-numeric:normal;line-height:1.25" xml:space="preserve"><tspan x="419.50882" y="102.8375"><tspan font-family="'STIX Two Text'" font-style="italic">P</tspan><tspan dy="5" font-size="65%">1</tspan><tspan dy="-5">,</tspan> <tspan font-family="'STIX Two Text'" font-style="italic">V</tspan><tspan dy="5" font-size="65%">1</tspan><tspan dy="-5">,</tspan> <tspan font-family="'STIX Two Text'" font-style="italic">T</tspan><tspan dy="5" font-size="65%">1</tspan></tspan></text>
  <rect x="410" y="82.52" width="150" height="100" fill="none" stroke="#000"/>
  <text x="419.50882" y="172.37563" fill="#000000" font-family="'STIX Two Text'" font-size="16px" letter-spacing="0px" word-spacing="0px" style="font-feature-settings:normal;font-variant-caps:normal;font-variant-ligatures:normal;font-variant-numeric:normal;line-height:1.25" xml:space="preserve"><tspan x="419.50882" y="172.37563">1</tspan></text>
  <g fill="none" stroke="#000">
   <rect x="190" y="102.52" width="20" height="60"/>
   <g stroke-width="1px">
    <path d="m190 112.52h20"/>
    <path d="m190 122.52h20"/>
    <path d="m190 132.52h20"/>
    <path d="m190 142.52h20"/>
    <path d="m190 152.52h20"/>
   </g>
   <rect x="270" y="112.52" width="20" height="40"/>
  </g>
  <g stroke="#000">
   <rect x="270" y="182.52" width="20" height="20" fill="#ccc"/>
   <path d="m280 182.52v-30" fill="none" stroke-width="1px"/>
   <path d="m280 202.52v50" fill="none" opacity=".4" stroke-width="1px"/>
   <rect x="270" y="252.52" width="20" height="20" fill="#ccc" opacity=".4"/>
  </g>
  <g transform="translate(-9.6606)">
   <path d="m309.5 207.52v60h1v-60z" color="#000000" color-rendering="auto" dominant-baseline="auto" image-rendering="auto" shape-rendering="auto" solid-color="#000000" style="font-feature-settings:normal;font-variant-alternates:normal;font-variant-caps:normal;font-variant-ligatures:normal;font-variant-numeric:normal;font-variant-position:normal;isolation:auto;mix-blend-mode:normal;shape-padding:0;text-decoration-color:#000000;text-decoration-line:none;text-decoration-style:solid;text-indent:0;text-orientation:mixed;text-transform:none;white-space:normal"/>
   <path d="m310 272.52-4.0063-6.9309h8.0126z" fill-rule="evenodd"/>
   <path d="m310 202.52 4.0063 6.9309h-8.0126z" fill-rule="evenodd"/>
  </g>
  <text x="309" y="243.07965" fill="#000000" font-family="'STIX Two Text'" font-size="16px" font-style="italic" letter-spacing="0px" word-spacing="0px" style="font-feature-settings:normal;font-variant-caps:normal;font-variant-ligatures:normal;font-variant-numeric:normal;line-height:1.25" xml:space="preserve"><tspan x="309" y="243.07965">h</tspan></text>
  <text x="249.63919" y="266.43164" fill="#000000" font-family="'STIX Two Text'" font-size="16px" font-style="italic" letter-spacing="0px" word-spacing="0px" style="font-feature-settings:normal;font-variant-caps:normal;font-variant-ligatures:normal;font-variant-numeric:normal;line-height:1.25" xml:space="preserve"><tspan x="249.63919" y="266.43164">v<tspan dy="5" font-size="65%">f</tspan></tspan></text>
  <g fill="none" stroke="#000">
   <rect x="580" y="102.52" width="60" height="60" stroke-width="1.0016"/>
   <g stroke-width="1px">
    <path d="m580 112.52h-60"/>
    <path d="m580 152.52h-60"/>
    <path d="m520 152.52-5-1 10-2-10-2 10-2-10-2 10-2-10-2 10-2-10-2 10-2-10-2 10-2-10-2 10-2-10-2 10-2-10-2 10-2-10-2 10-2-5-1"/>
   </g>
  </g>
  <text x="264.50882" y="342.83752" fill="#000000" font-family="'STIX Two Text'" font-size="16px" letter-spacing="0px" word-spacing="0px" style="font-feature-settings:normal;font-variant-caps:normal;font-variant-ligatures:normal;font-variant-numeric:normal;line-height:1.25" xml:space="preserve"><tspan x="264.50882" y="342.83752"><tspan font-family="'STIX Two Text'" font-style="italic">P</tspan><tspan dy="5" font-size="65%">2</tspan><tspan dy="-5">,</tspan> <tspan font-family="'STIX Two Text'" font-style="italic">V</tspan><tspan dy="5" font-size="65%">2</tspan><tspan dy="-5">,</tspan> <tspan font-family="'STIX Two Text'" font-style="italic">T</tspan><tspan dy="5" font-size="65%">2</tspan></tspan></text>
  <rect x="255" y="322.52" width="150" height="100" fill="none" stroke="#000"/>
  <text x="264.50882" y="412.37564" fill="#000000" font-family="'STIX Two Text'" font-size="16px" letter-spacing="0px" word-spacing="0px" style="font-feature-settings:normal;font-variant-caps:normal;font-variant-ligatures:normal;font-variant-numeric:normal;line-height:1.25" xml:space="preserve"><tspan x="264.50882" y="412.37564">2</tspan></text>
  <path d="m175 187.52c-0.46853 63.764 21.167 117.09 75 180" fill="none" marker-end="url(#marker5319)" stroke="#000" stroke-width="1px"/>
  <path d="m485 187.52c-0.81936 61.831-20.895 115.03-75 180" fill="none" marker-end="url(#Arrow2Lend)" stroke="#000" stroke-width="1px"/>
  <g fill="#000000" font-family="'STIX Two Text'" font-size="16px" letter-spacing="0px" word-spacing="0px">
   <g>
    <text x="273.112" y="196.39966" style="font-feature-settings:normal;font-variant-caps:normal;font-variant-ligatures:normal;font-variant-numeric:normal;line-height:1.25" xml:space="preserve"><tspan x="273.112" y="196.39966">m</tspan></text>
    <text x="236.95399" y="54.519684" style="font-feature-settings:normal;font-variant-caps:normal;font-variant-ligatures:normal;font-variant-numeric:normal;line-height:1.25" xml:space="preserve"><tspan x="236.95399" y="54.519684">Paredes sistema adiabáticas</tspan></text>
    <text x="168.34825" y="284.51968" style="font-feature-settings:normal;font-variant-caps:normal;font-variant-ligatures:normal;font-variant-numeric:normal;line-height:1.25" xml:space="preserve"><tspan x="168.34825" y="284.51968">a)</tspan></text>
    <text x="478.26013" y="284.51968" style="font-feature-settings:normal;font-variant-caps:normal;font-variant-ligatures:normal;font-variant-numeric:normal;line-height:1.25" xml:space="preserve"><tspan x="478.26013" y="284.51968">b)</tspan></text>
    <text x="586.59674" y="129.33963" style="font-feature-settings:normal;font-variant-caps:normal;font-variant-ligatures:normal;font-variant-numeric:normal;line-height:1.25" xml:space="preserve"><tspan x="586.59674" y="129.33963">batería</tspan></text>
   </g>
   <text x="605.08801" y="146.77167" font-style="italic" style="font-feature-settings:normal;font-variant-caps:normal;font-variant-ligatures:normal;font-variant-numeric:normal;line-height:1.25" xml:space="preserve"><tspan x="605.08801" y="146.77167" font-family="'STIX Two Text'" font-style="normal">ℰ</tspan></text>
   <text x="527" y="137.7757" font-style="italic" style="font-feature-settings:normal;font-variant-caps:normal;font-variant-ligatures:normal;font-variant-numeric:normal;line-height:1.25" xml:space="preserve"><tspan x="527" y="137.7757">R</tspan></text>
  </g>
  <path d="m261 94.52 69-32" fill="none" marker-start="url(#Arrow2Lstart)" stroke="#000" stroke-width="1px"/>
  <path d="m330 62.52 70 32" fill="none" marker-end="url(#marker5355)" stroke="#000" stroke-width="1px"/>
 </g>
</svg>
