<?xml version="1.0" encoding="UTF-8" standalone="no"?>
<!-- Created with Inkscape (http://www.inkscape.org/) -->
<svg id="svg2" xmlns:rdf="http://www.w3.org/1999/02/22-rdf-syntax-ns#" xmlns="http://www.w3.org/2000/svg" height="210" width="210" version="1.1" xmlns:cc="http://creativecommons.org/ns#" xmlns:dc="http://purl.org/dc/elements/1.1/" viewBox="0 0 210 210">
 <style type="text/css">
	 @import url('../estilo.css');
 </style>
 <metadata id="metadata7">
  <rdf:RDF>
   <cc:Work rdf:about="">
    <dc:format>image/svg+xml</dc:format>
    <dc:type rdf:resource="http://purl.org/dc/dcmitype/StillImage"/>
    <dc:title/>
   </cc:Work>
  </rdf:RDF>
 </metadata>
 <g id="layer1" transform="translate(-270 -337.36)">
  <g stroke="#000" stroke-width="1px" fill="none">
   <path id="path4200" d="m275 442.36h200"/>
   <path id="path4202" d="m295 522.36 160-160"/>
   <path id="path4204" d="m375 542.36v-200"/>
   <path id="path4206" d="m335 362.36s6.0751 23.519 10 35c2.9033 8.4927 5.8216 17.057 10 25 2.7976 5.3183 5.495 11.023 10 15 2.7939 2.4664 6.2732 5 10 5s7.2061-2.5336 10-5c4.505-3.9769 7.2024-9.6817 10-15 4.1784-7.9433 7.0967-16.507 10-25 3.9249-11.481 10-35 10-35"/>
  </g>
  <text id="text4256" style="word-spacing:0px;letter-spacing:0px" xml:space="preserve" font-size="16px" line-height="125%" y="397.47189" x="289.43326" font-family="&apos;STIX Two Text&apos;" fill="#000000"><tspan id="tspan4258" x="289.43326" y="397.47189">h(t)</tspan></text>
  <text id="text4260" style="word-spacing:0px;letter-spacing:0px" xml:space="preserve" font-size="16px" line-height="125%" y="457.92896" x="378.49176" font-family="&apos;STIX Two Text&apos;" fill="#000000"><tspan id="tspan4262" x="378.49176" y="457.92896">(0,0) ?</tspan></text>
 </g>
</svg>
