<?xml version="1.0" encoding="UTF-8" standalone="no"?>
<!-- Created with Inkscape (http://www.inkscape.org/) -->
<svg id="svg2" xmlns:rdf="http://www.w3.org/1999/02/22-rdf-syntax-ns#" xmlns="http://www.w3.org/2000/svg" viewBox="0 0 281.57856 106.48676" height="106.49" width="281.58" version="1.1" xmlns:cc="http://creativecommons.org/ns#" xmlns:dc="http://purl.org/dc/elements/1.1/">
 <style type="text/css">
	@import url('../estilo.css');
 </style>
 <metadata id="metadata7">
  <rdf:RDF>
   <cc:Work rdf:about="">
    <dc:format>image/svg+xml</dc:format>
    <dc:type rdf:resource="http://purl.org/dc/dcmitype/StillImage"/>
    <dc:title/>
   </cc:Work>
  </rdf:RDF>
 </metadata>
 <g id="layer1" transform="translate(-142.35 -294.45)">
  <g id="g4604" transform="translate(-28.241 -17.13)">
   <g id="content" stroke-width="0" xml:space="preserve" transform="matrix(1.063 0 0 -1.063 -186.02 789.27)" stroke="#000" stroke-miterlimit="10.433"><path id="path4607" d="m460.93 413.17h-1.97v1.85c0 0.93 0.31 1.42 0.92 1.42 0.33 0 0.55-0.16 0.84-0.62 0.25-0.41 0.44-0.57 0.72-0.57 0.36 0 0.67 0.28 0.67 0.65 0 0.57-0.71 0.99-1.66 0.99-0.99 0-1.84-0.43-2.25-1.17-0.41-0.7-0.54-1.27-0.56-2.55h-1.3v-0.51h1.3v-5c0-1.16-0.18-1.36-1.32-1.42v-0.24h4.14v0.24c-1.3 0.05-1.48 0.22-1.48 1.42v5h1.95z"/><path id="path4609" d="m465.7 416.78-0.11-0.07-0.1-0.07-0.1-0.07-0.1-0.06-0.09-0.07-0.09-0.06-0.09-0.06-0.08-0.06-0.08-0.06-0.08-0.06-0.08-0.05-0.07-0.06-0.07-0.06-0.07-0.05-0.13-0.11-0.13-0.11-0.12-0.11-0.11-0.11-0.11-0.12-0.11-0.11-0.11-0.13-0.11-0.12-0.11-0.14c-1.13-1.38-1.68-2.98-1.68-4.84 0-2.03 0.59-3.59 1.99-5.22 0.65-0.76 1.06-1.11 1.9-1.62l0.19 0.25c-1.28 1.01-1.73 1.57-2.15 2.76-0.39 1.07-0.56 2.28-0.56 3.88 0 1.67 0.2 2.98 0.63 3.97 0.45 0.98 0.93 1.56 2.08 2.48z"/><path id="path4611" d="m470.07 413.17h-1.62v1.85c0 0.16-0.01 0.21-0.11 0.21-0.11-0.14-0.2-0.29-0.32-0.45-0.6-0.87-1.29-1.64-1.54-1.7-0.18-0.12-0.27-0.22-0.27-0.31 0-0.04 0.01-0.07 0.06-0.11h0.85v-4.8c0-1.33 0.47-2.02 1.42-2.02 0.78 0 1.38 0.38 1.91 1.21l-0.21 0.18c-0.33-0.4-0.61-0.56-0.95-0.56-0.59 0-0.84 0.43-0.84 1.44v4.55h1.62z"/><path id="path4613" d="m471.61 403.18 0.1 0.07 0.11 0.07 0.1 0.07 0.1 0.06 0.09 0.07 0.09 0.06 0.09 0.06 0.08 0.06 0.08 0.06 0.08 0.05 0.08 0.06 0.07 0.06 0.07 0.05 0.07 0.06 0.13 0.11 0.12 0.11 0.12 0.11 0.12 0.11 0.11 0.11 0.11 0.12 0.1 0.12 0.11 0.13 0.11 0.13c1.13 1.39 1.69 2.98 1.69 4.85 0 2.04-0.59 3.58-1.99 5.21-0.65 0.76-1.07 1.12-1.9 1.63l-0.19-0.26c1.28-1 1.71-1.56 2.15-2.76 0.39-1.06 0.56-2.28 0.56-3.87 0-1.66-0.21-2.98-0.63-3.95-0.45-1.01-0.93-1.58-2.08-2.51z"/><polygon id="polygon4615" points="480.99 412.15 480.99 411.26 489.15 411.26 489.15 412.15"/><polygon id="polygon4617" points="480.99 408.92 480.99 408.02 489.15 408.02 489.15 408.92"/><path id="path4619" d="m499.99 402.77-0.2 0.17-0.2 0.18-0.18 0.18-0.17 0.18-0.17 0.19-0.16 0.2-0.14 0.2-0.15 0.2-0.13 0.21-0.12 0.21-0.12 0.22-0.11 0.22-0.1 0.22-0.1 0.23-0.09 0.22-0.08 0.24-0.08 0.23-0.07 0.24-0.06 0.25-0.06 0.24-0.05 0.25-0.05 0.25-0.04 0.26-0.03 0.26-0.06 0.52-0.04 0.53-0.02 0.54-0.01 0.55c0 2.95 0.59 5.6 2.79 7.41l-0.19 0.32c-0.77-0.64-4-2.45-4-7.73 0-5.27 3.23-7.09 4-7.73z"/><path id="path4621" d="m504.93 413.17h-1.97v1.85c0 0.93 0.31 1.42 0.92 1.42 0.33 0 0.55-0.16 0.84-0.62 0.25-0.41 0.44-0.57 0.72-0.57 0.36 0 0.67 0.28 0.67 0.65 0 0.57-0.71 0.99-1.66 0.99-0.99 0-1.84-0.43-2.25-1.17-0.41-0.7-0.54-1.27-0.56-2.55h-1.3v-0.51h1.3v-5c0-1.16-0.18-1.36-1.32-1.42v-0.24h4.14v0.24c-1.3 0.05-1.48 0.22-1.48 1.42v5h1.95z"/><path id="path4623" d="m509.25 411.54-2.01-1.01v-0.16c0.13 0.06 0.26 0.1 0.3 0.12 0.2 0.08 0.39 0.13 0.5 0.13 0.24 0 0.34-0.17 0.34-0.53v-5.05c0-0.37-0.09-0.63-0.27-0.73-0.17-0.1-0.32-0.13-0.79-0.14v-0.17h3.07v0.17c-0.87 0.01-1.05 0.12-1.05 0.65v6.7z"/><path id="path4625" d="m515.7 416.78-0.11-0.07-0.1-0.07-0.1-0.07-0.1-0.06-0.09-0.07-0.09-0.06-0.09-0.06-0.08-0.06-0.08-0.06-0.08-0.06-0.08-0.05-0.07-0.06-0.07-0.06-0.07-0.05-0.13-0.11-0.13-0.11-0.12-0.11-0.11-0.11-0.11-0.12-0.11-0.11-0.11-0.13-0.11-0.12-0.11-0.14c-1.13-1.38-1.68-2.98-1.68-4.84 0-2.03 0.58-3.59 1.99-5.22 0.65-0.76 1.06-1.11 1.9-1.62l0.19 0.25c-1.28 1.01-1.73 1.57-2.15 2.76-0.39 1.07-0.56 2.28-0.56 3.88 0 1.67 0.2 2.98 0.63 3.97 0.45 0.98 0.93 1.56 2.08 2.48z"/><path id="path4627" d="m520.07 413.17h-1.62v1.85c0 0.16-0.01 0.21-0.11 0.21-0.11-0.14-0.2-0.29-0.32-0.45-0.6-0.87-1.29-1.64-1.54-1.7-0.18-0.12-0.27-0.22-0.27-0.31 0-0.04 0.01-0.07 0.06-0.11h0.85v-4.8c0-1.33 0.47-2.02 1.41-2.02 0.79 0 1.39 0.38 1.92 1.21l-0.21 0.18c-0.33-0.4-0.61-0.56-0.96-0.56-0.58 0-0.83 0.43-0.83 1.44v4.55h1.62z"/><path id="path4629" d="m521.6 403.18 0.11 0.07 0.11 0.07 0.1 0.07 0.1 0.06 0.09 0.07 0.09 0.06 0.09 0.06 0.08 0.06 0.08 0.06 0.08 0.05 0.08 0.06 0.07 0.06 0.07 0.05 0.07 0.06 0.13 0.11 0.12 0.11 0.12 0.11 0.12 0.11 0.11 0.11 0.11 0.12 0.1 0.12 0.11 0.13 0.11 0.13c1.13 1.39 1.69 2.98 1.69 4.85 0 2.04-0.59 3.58-1.99 5.21-0.65 0.76-1.07 1.12-1.9 1.63l-0.19-0.26c1.28-1 1.71-1.56 2.15-2.76 0.39-1.06 0.56-2.28 0.56-3.87 0-1.66-0.2-2.98-0.64-3.95-0.44-1.01-0.92-1.58-2.07-2.51z"/><path id="path4631" d="m529.11 406.09v0.07 0.05l-0.01 0.06v0.06l-0.01 0.05v0.06l-0.01 0.05-0.01 0.05-0.01 0.05-0.01 0.05-0.02 0.04-0.01 0.05-0.01 0.04-0.02 0.04-0.01 0.04-0.02 0.04-0.02 0.04-0.02 0.04-0.04 0.07-0.04 0.06-0.04 0.06-0.05 0.06-0.05 0.05-0.05 0.04-0.05 0.05-0.05 0.03-0.06 0.04-0.05 0.03-0.05 0.03-0.06 0.02-0.05 0.03-0.05 0.02-0.06 0.01-0.05 0.02-0.05 0.01-0.05 0.01h-0.04l-0.05 0.01h-0.04-0.04-0.03c-0.4 0-0.92-0.23-0.92-0.92 0-0.64 0.57-0.79 0.98-0.79 0.11 0 0.19 0.01 0.24 0.03 0.06 0.01 0.11 0.03 0.14 0.03 0.12 0 0.23-0.08 0.23-0.22 0-0.31-0.26-1.02-1.31-1.7l0.14-0.3c0.48 0.16 1.79 1.21 1.79 2.34z"/><path id="path4633" d="m537.93 413.17h-1.96v1.85c0 0.93 0.3 1.42 0.91 1.42 0.33 0 0.55-0.16 0.84-0.62 0.25-0.41 0.44-0.57 0.72-0.57 0.36 0 0.66 0.28 0.66 0.65 0 0.57-0.7 0.99-1.65 0.99-0.99 0-1.84-0.43-2.25-1.17-0.42-0.7-0.54-1.27-0.56-2.55h-1.3v-0.51h1.3v-5c0-1.16-0.17-1.36-1.32-1.42v-0.24h4.15v0.24c-1.31 0.05-1.49 0.22-1.49 1.42v5h1.95z"/><path id="path4635" d="m543.3 405.53-0.14 0.06c-0.42-0.64-0.56-0.74-1.07-0.74h-2.66l1.87 1.96c1 1.04 1.43 1.89 1.43 2.76 0 1.11-0.9 1.97-2.06 1.97-0.62 0-1.2-0.24-1.61-0.69-0.36-0.38-0.53-0.74-0.71-1.53l0.23-0.05c0.45 1.09 0.85 1.45 1.62 1.45 0.94 0 1.57-0.64 1.57-1.58 0-0.87-0.51-1.91-1.45-2.9l-1.98-2.11v-0.13h4.35z"/><path id="path4637" d="m547.7 416.78-0.11-0.07-0.1-0.07-0.1-0.07-0.1-0.06-0.09-0.07-0.09-0.06-0.09-0.06-0.08-0.06-0.08-0.06-0.08-0.06-0.08-0.05-0.07-0.06-0.07-0.06-0.07-0.05-0.13-0.11-0.13-0.11-0.12-0.11-0.11-0.11-0.11-0.12-0.11-0.11-0.11-0.13-0.11-0.12-0.11-0.14c-1.13-1.38-1.68-2.98-1.68-4.84 0-2.03 0.58-3.59 1.99-5.22 0.65-0.76 1.06-1.11 1.9-1.62l0.19 0.25c-1.28 1.01-1.73 1.57-2.15 2.76-0.39 1.07-0.56 2.28-0.56 3.88 0 1.67 0.2 2.98 0.63 3.97 0.45 0.98 0.93 1.56 2.08 2.48z"/><path id="path4639" d="m553.07 413.17h-1.62v1.85c0 0.16-0.01 0.21-0.11 0.21-0.11-0.14-0.2-0.29-0.32-0.45-0.6-0.87-1.29-1.64-1.54-1.7-0.18-0.12-0.27-0.22-0.27-0.31 0-0.04 0.01-0.07 0.06-0.11h0.85v-4.8c0-1.33 0.47-2.02 1.41-2.02 0.79 0 1.39 0.38 1.92 1.21l-0.21 0.18c-0.33-0.4-0.61-0.56-0.96-0.56-0.58 0-0.83 0.43-0.83 1.44v4.55h1.62z"/><path id="path4641" d="m553.6 403.18 0.11 0.07 0.11 0.07 0.1 0.07 0.1 0.06 0.09 0.07 0.09 0.06 0.09 0.06 0.08 0.06 0.08 0.06 0.08 0.05 0.08 0.06 0.07 0.06 0.07 0.05 0.07 0.06 0.13 0.11 0.12 0.11 0.12 0.11 0.12 0.11 0.11 0.11 0.11 0.12 0.1 0.12 0.11 0.13 0.11 0.13c1.13 1.39 1.69 2.98 1.69 4.85 0 2.04-0.59 3.58-1.99 5.21-0.65 0.76-1.07 1.12-1.9 1.63l-0.19-0.26c1.28-1 1.71-1.56 2.15-2.76 0.39-1.06 0.56-2.28 0.56-3.87 0-1.66-0.2-2.98-0.64-3.95-0.44-1.01-0.92-1.58-2.07-2.51z"/><path id="path4643" d="m561.11 406.09v0.07 0.05l-0.01 0.06v0.06l-0.01 0.05v0.06l-0.01 0.05-0.01 0.05-0.01 0.05-0.01 0.05-0.02 0.04-0.01 0.05-0.01 0.04-0.02 0.04-0.01 0.04-0.02 0.04-0.02 0.04-0.02 0.04-0.04 0.07-0.04 0.06-0.04 0.06-0.05 0.06-0.05 0.05-0.05 0.04-0.05 0.05-0.05 0.03-0.06 0.04-0.05 0.03-0.05 0.03-0.06 0.02-0.05 0.03-0.05 0.02-0.06 0.01-0.05 0.02-0.05 0.01-0.05 0.01h-0.04l-0.05 0.01h-0.04-0.04-0.03c-0.4 0-0.92-0.23-0.92-0.92 0-0.64 0.57-0.79 0.98-0.79 0.11 0 0.19 0.01 0.24 0.03 0.06 0.01 0.11 0.03 0.14 0.03 0.12 0 0.23-0.08 0.23-0.22 0-0.31-0.26-1.02-1.31-1.7l0.14-0.3c0.48 0.16 1.79 1.21 1.79 2.34z"/><path id="path4645" d="m569.93 413.17h-1.96v1.85c0 0.93 0.3 1.42 0.91 1.42 0.33 0 0.55-0.16 0.84-0.62 0.25-0.41 0.44-0.57 0.72-0.57 0.36 0 0.66 0.28 0.66 0.65 0 0.57-0.7 0.99-1.65 0.99-0.99 0-1.84-0.43-2.25-1.17-0.42-0.7-0.54-1.27-0.56-2.55h-1.3v-0.51h1.3v-5c0-1.16-0.17-1.36-1.32-1.42v-0.24h4.15v0.24c-1.31 0.05-1.49 0.22-1.49 1.42v5h1.95z"/><path id="path4647" d="m571.71 407.68h0.06 0.06 0.05 0.06 0.05 0.05 0.05 0.04 0.05 0.04l0.04-0.01h0.04 0.04 0.04l0.03-0.01h0.04 0.03l0.03-0.01h0.03l0.03-0.01h0.03l0.03-0.01 0.05-0.01 0.06-0.01 0.05-0.02 0.05-0.01 0.05-0.02c0.69-0.25 1.13-0.88 1.13-1.65 0-0.94-0.64-1.66-1.47-1.66-0.3 0-0.52 0.07-0.93 0.34-0.34 0.2-0.53 0.28-0.72 0.28-0.25 0-0.42-0.16-0.42-0.39 0-0.39 0.48-0.64 1.26-0.64 0.86 0 1.74 0.29 2.26 0.75 0.53 0.46 0.82 1.11 0.82 1.86 0 0.56-0.18 1.09-0.5 1.43-0.23 0.25-0.44 0.38-0.93 0.59 0.77 0.53 1.05 0.94 1.05 1.55 0 0.9-0.71 1.52-1.74 1.52-0.56 0-1.05-0.19-1.45-0.54-0.34-0.3-0.5-0.59-0.75-1.27l0.17-0.04c0.46 0.81 0.96 1.19 1.66 1.19 0.73 0 1.23-0.5 1.23-1.2 0-0.4-0.17-0.8-0.45-1.08-0.33-0.34-0.64-0.51-1.4-0.77z"/><path id="path4649" d="m580.7 416.78-0.11-0.07-0.1-0.07-0.1-0.07-0.1-0.06-0.09-0.07-0.09-0.06-0.09-0.06-0.08-0.06-0.08-0.06-0.08-0.06-0.08-0.05-0.07-0.06-0.07-0.06-0.07-0.05-0.13-0.11-0.13-0.11-0.12-0.11-0.11-0.11-0.11-0.12-0.11-0.11-0.11-0.13-0.11-0.12-0.11-0.14c-1.13-1.38-1.68-2.98-1.68-4.84 0-2.03 0.58-3.59 1.99-5.22 0.65-0.76 1.06-1.11 1.9-1.62l0.19 0.25c-1.28 1.01-1.73 1.57-2.15 2.76-0.39 1.07-0.56 2.28-0.56 3.88 0 1.67 0.2 2.98 0.63 3.97 0.45 0.98 0.93 1.56 2.08 2.48z"/><path id="path4651" d="m585.07 413.17h-1.62v1.85c0 0.16-0.01 0.21-0.11 0.21-0.11-0.14-0.2-0.29-0.32-0.45-0.6-0.87-1.29-1.64-1.54-1.7-0.18-0.12-0.27-0.22-0.27-0.31 0-0.04 0.01-0.07 0.06-0.11h0.85v-4.8c0-1.33 0.47-2.02 1.41-2.02 0.79 0 1.39 0.38 1.92 1.21l-0.21 0.18c-0.33-0.4-0.61-0.56-0.96-0.56-0.58 0-0.83 0.43-0.83 1.44v4.55h1.62z"/><path id="path4653" d="m586.6 403.18 0.11 0.07 0.11 0.07 0.1 0.07 0.1 0.06 0.09 0.07 0.09 0.06 0.09 0.06 0.08 0.06 0.08 0.06 0.08 0.05 0.08 0.06 0.07 0.06 0.07 0.05 0.07 0.06 0.13 0.11 0.12 0.11 0.12 0.11 0.12 0.11 0.11 0.11 0.11 0.12 0.1 0.12 0.11 0.13 0.11 0.13c1.13 1.39 1.69 2.98 1.69 4.85 0 2.04-0.59 3.58-1.99 5.21-0.65 0.76-1.07 1.12-1.9 1.63l-0.19-0.26c1.28-1 1.71-1.56 2.15-2.76 0.39-1.06 0.56-2.28 0.56-3.87 0-1.66-0.2-2.98-0.64-3.95-0.44-1.01-0.92-1.58-2.07-2.51z"/><path id="path4655" d="m595.67 410.16v0.24l-0.01 0.24-0.01 0.24-0.01 0.23-0.05 0.45-0.06 0.42-0.07 0.41-0.09 0.39-0.1 0.37-0.12 0.36-0.12 0.33-0.13 0.32-0.14 0.31-0.15 0.29-0.16 0.27-0.16 0.26-0.16 0.25-0.17 0.23-0.17 0.21-0.18 0.21-0.17 0.19-0.17 0.18-0.17 0.16-0.16 0.16-0.17 0.14-0.15 0.14-0.15 0.12-0.15 0.12-0.13 0.1-0.13 0.1-0.12 0.08-0.1 0.08-0.09 0.07-0.08 0.06-0.19-0.32c2.2-1.81 2.79-4.46 2.79-7.41s-0.59-5.58-2.79-7.39l0.19-0.34c0.76 0.64 4 2.46 4 7.73z"/></g>
  </g>
 </g>
 <g fill="none" stroke-width="1px">
  <path id="path4497" d="m45.024 5v58.554" stroke="#000"/>
  <path id="path4499" d="m154.81 63.554h-109.79l-39.036 37.572" stroke="#000"/>
  <path id="path4501" d="m5.4998 77.217c2.3335-85.793 90.83 12.516 118.08-50.259" stroke="#9400d3"/>
 </g>
</svg>
