<?xml version="1.0" encoding="UTF-8" standalone="no"?>
<!-- Created with Inkscape (http://www.inkscape.org/) -->
<svg id="svg2" xmlns:rdf="http://www.w3.org/1999/02/22-rdf-syntax-ns#" xmlns="http://www.w3.org/2000/svg" height="210" width="210" version="1.1" xmlns:cc="http://creativecommons.org/ns#" xmlns:dc="http://purl.org/dc/elements/1.1/" viewBox="0 0 210 210">
 <style type="text/css">
	@import url('../estilo.css');
 </style>
 <metadata id="metadata7">
  <rdf:RDF>
   <cc:Work rdf:about="">
    <dc:format>image/svg+xml</dc:format>
    <dc:type rdf:resource="http://purl.org/dc/dcmitype/StillImage"/>
    <dc:title/>
   </cc:Work>
  </rdf:RDF>
 </metadata>
 <g id="layer1" transform="translate(-275 -297.36)">
  <g stroke="#000" stroke-width="1px" fill="none">
   <path id="path4200" d="m280 402.36h200"/>
   <path id="path4202" d="m380 502.36v-200"/>
   <path id="path4206" d="m375 367.36h80"/>
   <path id="path4208" d="m415 407.36v-80"/>
  </g>
  <circle id="path4210" stroke="#000" cy="367.36" cx="415" r="1.6771"/>
  <g id="g4257" transform="translate(117.84 19.861)">
   <g id="content" stroke-width="0" xml:space="preserve" transform="matrix(1.063 0 0 -1.063 -186.02 789.27)" stroke="#000" stroke-miterlimit="10.433"><path id="path4260" d="m463.64 406.8h-0.09c-0.73 0-0.9 0.17-0.9 0.91v5.46h-2.52v-0.27c0.99-0.04 1.18-0.2 1.18-1v-3.75c0-0.44-0.08-0.67-0.31-0.84-0.43-0.35-0.92-0.54-1.4-0.54-0.62 0-1.13 0.54-1.13 1.21v5.19h-2.33v-0.22c0.77-0.05 0.99-0.29 0.99-1.02v-4.02c0-1.26 0.77-2.07 1.93-2.07 0.59 0 1.21 0.25 1.64 0.69l0.69 0.68v-1.32l0.06-0.03c0.8 0.32 1.37 0.49 2.19 0.71z"/><path id="path4262" d="m465.84 411.54h-0.06-0.06-0.05l-0.06-0.01h-0.05l-0.06-0.01h-0.05l-0.05-0.01-0.05-0.01-0.05-0.01-0.05-0.02-0.05-0.01-0.05-0.01-0.05-0.02-0.04-0.01-0.05-0.02-0.05-0.02-0.04-0.02-0.05-0.02-0.04-0.02-0.04-0.03-0.05-0.02-0.04-0.03-0.04-0.02-0.04-0.03-0.04-0.03-0.04-0.03-0.04-0.03-0.04-0.03-0.04-0.04-0.04-0.03-0.04-0.04c-0.65-0.62-1.07-1.91-1.07-3.21 0-1.22 0.37-2.52 0.89-3.15 0.41-0.49 0.98-0.76 1.63-0.76v0.29c-0.96 0-1.45 1.2-1.45 3.52 0 2.37 0.5 3.6 1.46 3.6 0.94 0 1.44-1.26 1.44-3.59s-0.49-3.53-1.45-3.53v-0.29c0.57 0 1.05 0.2 1.45 0.59 0.65 0.61 1.07 1.9 1.07 3.25 0 2.29-1.01 3.86-2.47 3.86z"/></g>
  </g>
  <g id="g4294" transform="translate(160.45 16.862)">
   <g id="g4296" stroke-width="0" xml:space="preserve" transform="matrix(1.063 0 0 -1.063 -186.02 789.27)" stroke="#000" stroke-miterlimit="10.433"><path id="path4298" d="m460.93 413.17h-1.97v1.85c0 0.93 0.31 1.42 0.92 1.42 0.33 0 0.55-0.16 0.84-0.62 0.25-0.41 0.44-0.57 0.72-0.57 0.36 0 0.67 0.28 0.67 0.65 0 0.57-0.71 0.99-1.66 0.99-0.99 0-1.84-0.43-2.25-1.17-0.41-0.7-0.54-1.27-0.56-2.55h-1.3v-0.51h1.3v-5c0-1.16-0.18-1.36-1.32-1.42v-0.24h4.14v0.24c-1.3 0.05-1.48 0.22-1.48 1.42v5h1.95z"/><path id="path4300" d="m465.25 419.54-2.01-1.01v-0.16c0.13 0.06 0.26 0.1 0.3 0.12 0.2 0.08 0.39 0.13 0.5 0.13 0.24 0 0.34-0.17 0.34-0.53v-5.05c0-0.37-0.09-0.63-0.27-0.73-0.17-0.1-0.32-0.13-0.79-0.14v-0.17h3.07v0.17c-0.87 0.01-1.05 0.12-1.05 0.65v6.7z"/></g>
  </g>
  <g id="g4340" transform="translate(101.82 -26.364)">
   <g id="g4342" stroke-width="0" xml:space="preserve" transform="matrix(1.063 0 0 -1.063 -186.02 789.27)" stroke="#000" stroke-miterlimit="10.433"><path id="path4344" d="m460.93 413.17h-1.97v1.85c0 0.93 0.31 1.42 0.92 1.42 0.33 0 0.55-0.16 0.84-0.62 0.25-0.41 0.44-0.57 0.72-0.57 0.36 0 0.67 0.28 0.67 0.65 0 0.57-0.71 0.99-1.66 0.99-0.99 0-1.84-0.43-2.25-1.17-0.41-0.7-0.54-1.27-0.56-2.55h-1.3v-0.51h1.3v-5c0-1.16-0.18-1.36-1.32-1.42v-0.24h4.14v0.24c-1.3 0.05-1.48 0.22-1.48 1.42v5h1.95z"/><path id="path4346" d="m467.3 413.53-0.14 0.06c-0.42-0.64-0.56-0.74-1.07-0.74h-2.66l1.87 1.96c1 1.04 1.43 1.89 1.43 2.76 0 1.11-0.9 1.97-2.06 1.97-0.62 0-1.2-0.24-1.61-0.69-0.36-0.38-0.52-0.74-0.71-1.53l0.23-0.05c0.45 1.09 0.85 1.45 1.62 1.45 0.94 0 1.57-0.64 1.57-1.58 0-0.87-0.51-1.91-1.45-2.9l-1.98-2.11v-0.13h4.35z"/></g>
  </g>
  <text id="text4370" style="word-spacing:0px;letter-spacing:0px" xml:space="preserve" font-size="16px" line-height="125%" y="451.90762" x="410.45456" font-family="&apos;STIX Two Text&apos;" fill="#000000"><tspan id="tspan4372" x="410.45456" y="451.90762">n = 2</tspan></text>
 </g>
</svg>
