<?xml version="1.0" ?><svg height="29.04688mm" version="1.0" viewBox="0 0 215 110" width="56.77344mm" xmlns="http://www.w3.org/2000/svg">
  <style type="text/css">
		@import url('../estilo.css');
	</style>
  <g font-size="12pt" stroke-linecap="round" transform="translate(-117,-132)">
    <g stroke="#000000" stroke-width="1.0">
      <line x1="248.35" x2="274.86" y1="190.30" y2="190.30"/>
      <line x1="251.67" x2="271.55" y1="184.30" y2="184.30"/>
    </g>
    <g stroke="#000000" stroke-width="1.0">
      <line x1="168.83" x2="142.36" y1="190.33" y2="190.33"/>
    </g>
    <g stroke="#000000" stroke-width="1.0">
      <line x1="142.36" x2="129.10" y1="144.42" y2="167.38"/>
    </g>
    <g stroke="#000000" stroke-width="1.0">
      <line x1="274.86" x2="248.35" y1="144.41" y2="144.41"/>
    </g>
    <g stroke="#000000" stroke-width="1.0">
      <line x1="168.83" x2="182.09" y1="144.42" y2="167.38"/>
    </g>
    <g stroke="#000000" stroke-width="1.0">
      <line x1="142.36" x2="129.10" y1="190.33" y2="167.38"/>
      <line x1="145.90" x2="135.95" y1="184.46" y2="167.24"/>
    </g>
    <g stroke="#000000" stroke-width="1.0">
      <line x1="235.11" x2="248.35" y1="167.38" y2="190.30"/>
    </g>
    <g stroke="#000000" stroke-width="1.0">
      <line x1="248.35" x2="235.11" y1="144.41" y2="167.38"/>
      <line x1="251.89" x2="241.96" y1="150.28" y2="167.50"/>
    </g>
    <g stroke="#000000" stroke-width="1.0">
      <line x1="288.10" x2="274.86" y1="167.33" y2="190.30"/>
    </g>
    <g stroke="#000000" stroke-width="1.0">
      <line x1="215.50" x2="235.11" y1="167.38" y2="167.38"/>
    </g>
    <g stroke="#000000" stroke-width="1.0">
      <line x1="182.09" x2="168.83" y1="167.38" y2="190.33"/>
      <line x1="175.24" x2="165.29" y1="167.24" y2="184.46"/>
    </g>
    <g stroke="#000000" stroke-width="1.0">
      <line x1="182.09" x2="201.50" y1="167.38" y2="167.38"/>
    </g>
    <g stroke="#000000" stroke-width="1.0">
      <line x1="288.10" x2="308.50" y1="167.33" y2="167.32"/>
    </g>
    <g stroke="#000000" stroke-width="1.0">
      <line x1="274.86" x2="288.10" y1="144.41" y2="167.33"/>
      <line x1="271.32" x2="281.25" y1="150.28" y2="167.47"/>
    </g>
    <g stroke="#000000" stroke-width="1.0">
      <line x1="168.83" x2="142.36" y1="144.42" y2="144.42"/>
      <line x1="165.52" x2="145.67" y1="150.42" y2="150.42"/>
    </g>
    <text fill="#000000" font-family="STIX Two Text" font-size="12pt" x="203.30" y="171.38">N</text>
    <text fill="#000000" font-family="STIX Two Text" font-size="12pt" x="203.30" y="184.89">H</text>
    <text fill="#000000" font-family="STIX Two Text" font-size="12pt" x="310.30" y="171.32">R</text>
    <text fill="#000000" font-family="STIX Two Text" font-size="12pt" textLength="75" x="191.00" y="223.25">R: H ó SO<tspan dy="6" font-size="75%">3</tspan><tspan dy="-12" font-size="75%">−</tspan></text>
  </g>
</svg>
