<?xml version="1.0" ?><svg height="46.47500mm" version="1.0" viewBox="0 0 220 176" width="58.09375mm" xmlns="http://www.w3.org/2000/svg">
  <style type="text/css">
		@import url('../estilo.css');
	</style>
  <g font-size="12pt" stroke-linecap="round" transform="translate(-135,-107)">
    <g stroke="#000000" stroke-width="1.0">
      <line x1="261.68" x2="253.31" y1="145.00" y2="132.35"/>
      <line x1="265.63" x2="259.36" y1="140.10" y2="130.62"/>
    </g>
    <g stroke="#000000" stroke-width="1.0">
      <line x1="209.57" x2="216.84" y1="132.35" y2="144.96"/>
    </g>
    <g stroke="#000000" stroke-width="1.0">
      <line x1="276.22" x2="261.68" y1="145.00" y2="145.00"/>
    </g>
    <g stroke="#000000" stroke-width="1.0">
      <line x1="199.00" x2="209.57" y1="132.35" y2="132.35"/>
    </g>
    <g stroke="#000000" stroke-width="1.0">
      <line x1="334.54" x2="341.85" y1="119.74" y2="132.35"/>
      <line x1="330.26" x2="335.74" y1="124.32" y2="133.78"/>
    </g>
    <g stroke="#000000" stroke-width="1.0">
      <line x1="319.96" x2="312.69" y1="119.74" y2="132.39"/>
      <line x1="324.25" x2="318.80" y1="124.31" y2="133.79"/>
    </g>
    <g stroke="#000000" stroke-width="1.0">
      <line x1="173.10" x2="158.56" y1="145.00" y2="145.00"/>
    </g>
    <g stroke="#000000" stroke-width="1.0">
      <line x1="283.53" x2="276.22" y1="132.39" y2="145.00"/>
      <line x1="277.42" x2="271.94" y1="130.95" y2="140.41"/>
    </g>
    <g stroke="#000000" stroke-width="1.0">
      <line x1="180.41" x2="173.10" y1="132.35" y2="145.00"/>
      <line x1="174.30" x2="168.82" y1="130.93" y2="140.41"/>
    </g>
    <g stroke="#000000" stroke-width="1.0">
      <line x1="180.41" x2="190.00" y1="132.35" y2="132.35"/>
    </g>
    <g stroke="#000000" stroke-width="1.0">
      <line x1="276.22" x2="283.53" y1="119.74" y2="132.39"/>
    </g>
    <g stroke="#000000" stroke-width="1.0">
      <line x1="158.56" x2="151.25" y1="145.00" y2="132.35"/>
      <line x1="162.84" x2="157.36" y1="140.41" y2="130.93"/>
    </g>
    <g stroke="#000000" stroke-width="1.0">
      <line x1="312.69" x2="319.96" y1="132.39" y2="144.96"/>
    </g>
    <g stroke="#000000" stroke-width="1.0">
      <line x1="231.42" x2="216.84" y1="119.74" y2="119.74"/>
    </g>
    <g stroke="#000000" stroke-width="1.0">
      <line x1="158.56" x2="151.25" y1="119.74" y2="132.35"/>
    </g>
    <g stroke="#000000" stroke-width="1.0">
      <line x1="238.73" x2="231.42" y1="132.35" y2="144.96"/>
    </g>
    <g stroke="#000000" stroke-width="1.0">
      <line x1="216.84" x2="209.57" y1="119.74" y2="132.35"/>
      <line x1="221.13" x2="215.67" y1="124.31" y2="133.77"/>
    </g>
    <g stroke="#000000" stroke-width="1.0">
      <line x1="319.96" x2="334.54" y1="144.96" y2="144.96"/>
      <line x1="321.78" x2="332.71" y1="138.96" y2="138.96"/>
    </g>
    <g stroke="#000000" stroke-width="1.0">
      <line x1="276.22" x2="261.68" y1="119.74" y2="119.74"/>
      <line x1="274.40" x2="263.49" y1="125.74" y2="125.74"/>
    </g>
    <g stroke="#000000" stroke-width="1.0">
      <line x1="261.68" x2="253.31" y1="119.74" y2="132.35"/>
    </g>
    <g stroke="#000000" stroke-width="1.0">
      <line x1="283.53" x2="294.00" y1="132.39" y2="132.39"/>
    </g>
    <g stroke="#000000" stroke-width="1.0">
      <line x1="334.54" x2="319.96" y1="119.74" y2="119.74"/>
    </g>
    <g stroke="#000000" stroke-width="1.0">
      <line x1="238.73" x2="253.31" y1="132.35" y2="132.35"/>
    </g>
    <g stroke="#000000" stroke-width="1.0">
      <line x1="341.85" x2="334.54" y1="132.35" y2="144.96"/>
    </g>
    <g stroke="#000000" stroke-width="1.0">
      <line x1="173.10" x2="158.56" y1="119.74" y2="119.74"/>
      <line x1="171.28" x2="160.37" y1="125.74" y2="125.74"/>
    </g>
    <g stroke="#000000" stroke-width="1.0">
      <line x1="303.00" x2="312.69" y1="132.39" y2="132.39"/>
    </g>
    <g stroke="#000000" stroke-width="1.0">
      <line x1="216.84" x2="231.42" y1="144.96" y2="144.96"/>
      <line x1="218.66" x2="229.60" y1="138.96" y2="138.96"/>
    </g>
    <g stroke="#000000" stroke-width="1.0">
      <line x1="173.10" x2="180.41" y1="119.74" y2="132.35"/>
    </g>
    <g stroke="#000000" stroke-width="1.0">
      <line x1="231.42" x2="238.73" y1="119.74" y2="132.35"/>
      <line x1="227.14" x2="232.62" y1="124.32" y2="133.78"/>
    </g>
    <text fill="#000000" font-family="STIX Two Text" font-size="7pt" x="191.30" y="135.35">N</text>
    <text fill="#000000" font-family="STIX Two Text" font-size="7pt" x="191.30" y="143.79">H</text>
    <text fill="#000000" font-family="STIX Two Text" font-size="7pt" x="295.30" y="135.39">N</text>
    <text fill="#000000" font-family="STIX Two Text" font-size="7pt" x="295.30" y="143.79">H</text>
    <g stroke="#000000" stroke-width="1.0">
      <line x1="275.50" x2="260.96" y1="212.10" y2="212.10"/>
      <line x1="273.68" x2="262.77" y1="218.10" y2="218.10"/>
    </g>
    <g stroke="#000000" stroke-width="1.0">
      <line x1="275.50" x2="260.96" y1="237.32" y2="237.32"/>
      <line x1="273.68" x2="262.77" y1="231.32" y2="231.32"/>
    </g>
    <g stroke="#000000" stroke-width="1.0">
      <line x1="157.84" x2="150.53" y1="212.10" y2="224.71"/>
    </g>
    <g stroke="#000000" stroke-width="1.0">
      <line x1="260.96" x2="252.55" y1="212.10" y2="224.67"/>
    </g>
    <g stroke="#000000" stroke-width="1.0">
      <line x1="208.81" x2="216.12" y1="224.71" y2="237.32"/>
    </g>
    <g stroke="#000000" stroke-width="1.0">
      <line x1="179.65" x2="172.38" y1="224.71" y2="237.32"/>
      <line x1="173.54" x2="168.09" y1="223.29" y2="232.75"/>
    </g>
    <g stroke="#000000" stroke-width="1.0">
      <line x1="333.82" x2="319.24" y1="212.06" y2="212.06"/>
    </g>
    <g stroke="#000000" stroke-width="1.0">
      <line x1="157.84" x2="150.53" y1="237.32" y2="224.71"/>
      <line x1="162.11" x2="156.63" y1="232.74" y2="223.28"/>
    </g>
    <g stroke="#000000" stroke-width="1.0">
      <line x1="230.70" x2="216.12" y1="212.06" y2="212.06"/>
      <line x1="228.88" x2="217.94" y1="218.06" y2="218.06"/>
    </g>
    <g stroke="#000000" stroke-width="1.0">
      <line x1="319.24" x2="333.82" y1="237.32" y2="237.32"/>
      <line x1="321.06" x2="332.00" y1="231.32" y2="231.32"/>
    </g>
    <g stroke="#000000" stroke-width="1.0">
      <line x1="333.82" x2="341.13" y1="212.06" y2="224.67"/>
      <line x1="329.54" x2="335.02" y1="216.65" y2="226.10"/>
    </g>
    <g stroke="#000000" stroke-width="1.0">
      <line x1="341.13" x2="333.82" y1="224.67" y2="237.32"/>
    </g>
    <g stroke="#000000" stroke-width="1.0">
      <line x1="282.81" x2="275.50" y1="224.71" y2="237.32"/>
    </g>
    <g stroke="#000000" stroke-width="1.0">
      <line x1="216.12" x2="230.70" y1="237.32" y2="237.32"/>
      <line x1="217.94" x2="228.88" y1="231.32" y2="231.32"/>
    </g>
    <g stroke="#000000" stroke-width="1.0">
      <line x1="179.65" x2="190.00" y1="224.71" y2="224.71"/>
    </g>
    <g stroke="#000000" stroke-width="1.0">
      <line x1="172.38" x2="157.84" y1="237.32" y2="237.32"/>
    </g>
    <g stroke="#000000" stroke-width="1.0">
      <line x1="275.50" x2="282.81" y1="212.10" y2="224.71"/>
    </g>
    <g stroke="#000000" stroke-width="1.0">
      <line x1="319.24" x2="311.97" y1="212.06" y2="224.71"/>
      <line x1="323.53" x2="318.08" y1="216.63" y2="226.12"/>
    </g>
    <g stroke="#000000" stroke-width="1.0">
      <line x1="237.97" x2="252.55" y1="226.67" y2="226.67"/>
      <line x1="237.97" x2="252.55" y1="222.67" y2="222.67"/>
    </g>
    <g stroke="#000000" stroke-width="1.0">
      <line x1="199.00" x2="208.81" y1="226.71" y2="226.71"/>
      <line x1="199.00" x2="208.81" y1="222.71" y2="222.71"/>
    </g>
    <g stroke="#000000" stroke-width="1.0">
      <line x1="311.97" x2="319.24" y1="224.71" y2="237.32"/>
    </g>
    <g stroke="#000000" stroke-width="1.0">
      <line x1="172.38" x2="179.65" y1="212.10" y2="224.71"/>
    </g>
    <g stroke="#000000" stroke-width="1.0">
      <line x1="172.38" x2="157.84" y1="212.10" y2="212.10"/>
      <line x1="170.56" x2="159.65" y1="218.10" y2="218.10"/>
    </g>
    <g stroke="#000000" stroke-width="1.0">
      <line x1="282.81" x2="293.00" y1="226.71" y2="226.71"/>
      <line x1="282.81" x2="293.00" y1="222.71" y2="222.71"/>
    </g>
    <g stroke="#000000" stroke-width="1.0">
      <line x1="302.00" x2="311.97" y1="224.71" y2="224.71"/>
    </g>
    <g stroke="#000000" stroke-width="1.0">
      <line x1="260.96" x2="252.55" y1="237.32" y2="224.67"/>
    </g>
    <g stroke="#000000" stroke-width="1.0">
      <line x1="216.12" x2="208.81" y1="212.06" y2="224.71"/>
    </g>
    <g stroke="#000000" stroke-width="1.0">
      <line x1="230.70" x2="237.97" y1="212.06" y2="224.67"/>
    </g>
    <g stroke="#000000" stroke-width="1.0">
      <line x1="237.97" x2="230.70" y1="224.67" y2="237.32"/>
    </g>
    <text fill="#000000" font-family="STIX Two Text" font-size="7pt" x="191.30" y="227.71">N</text>
    <text fill="#000000" font-family="STIX Two Text" font-size="7pt" x="294.30" y="227.71">N</text>
    <text fill="#000000" font-family="STIX Two Text" font-size="12pt" textLength="166" x="163.00" y="175.75">difenilbencidina (incol.)</text>
    <text fill="#000000" font-family="STIX Two Text" font-size="12pt" textLength="198" x="147.00" y="267.74">difenilbencidina ox. (violeta)</text>
  </g>
</svg>
