<?xml version="1.0" ?><svg height="90.57344mm" version="1.0" viewBox="0 0 192 343" width="50.70000mm" xmlns="http://www.w3.org/2000/svg">
  <style type="text/css">
		@import url('../estilo.css');
	</style>
  <g font-size="12pt" stroke-linecap="round" transform="translate(-77,-116)">
    <text fill="#000000" font-family="STIX Two Text" font-size="12pt" textLength="117" x="89.00" y="314.25">[Fe(C<tspan dy="6" font-size="75%">12</tspan><tspan dy="-6">H</tspan><tspan dy="6" font-size="75%">8</tspan><tspan dy="-6">N</tspan><tspan dy="6" font-size="75%">2</tspan><tspan dy="-6">)</tspan><tspan dy="6" font-size="75%">3</tspan><tspan dy="-6">]</tspan><tspan dy="-6" font-size="75%">2+</tspan></text>
    <text fill="#000000" font-family="STIX Two Text" font-size="12pt" textLength="122" x="89.00" y="417.25">[Fe(C<tspan dy="6" font-size="75%">12</tspan><tspan dy="-6">H</tspan><tspan dy="6" font-size="75%">8</tspan><tspan dy="-6">N</tspan><tspan dy="6" font-size="75%">2</tspan><tspan dy="-6">)</tspan><tspan dy="6" font-size="75%">3</tspan><tspan dy="-6">]</tspan><tspan dy="-6" font-size="75%">3+</tspan> </text>
    <g stroke="#000000" stroke-width="1.0">
      <line x1="142.01" x2="142.01" y1="192.49" y2="218.96"/>
    </g>
    <g stroke="#000000" stroke-width="1.0">
      <line x1="142.01" x2="158.00" y1="218.96" y2="228.18"/>
    </g>
    <g stroke="#000000" stroke-width="1.0">
      <line x1="165.00" x2="165.00" y1="152.69" y2="169.00"/>
      <line x1="159.00" x2="159.00" y1="154.73" y2="166.96"/>
    </g>
    <g stroke="#000000" stroke-width="1.0">
      <line x1="142.05" x2="165.00" y1="139.44" y2="152.69"/>
    </g>
    <g stroke="#000000" stroke-width="1.0">
      <line x1="142.01" x2="119.06" y1="218.96" y2="232.22"/>
      <line x1="142.14" x2="124.93" y1="225.82" y2="235.76"/>
    </g>
    <g stroke="#000000" stroke-width="1.0">
      <line x1="96.08" x2="119.06" y1="218.96" y2="232.22"/>
    </g>
    <g stroke="#000000" stroke-linecap="butt" stroke-width="1.0">
      <line x1="170.71" x2="186.00" y1="185.00" y2="200.42"/>
    </g>
    <g stroke="#000000" stroke-width="1.0">
      <line x1="119.06" x2="142.05" y1="152.69" y2="139.44"/>
      <line x1="124.93" x2="142.17" y1="156.23" y2="146.29"/>
    </g>
    <g stroke="#000000" stroke-linecap="butt" stroke-width="1.0">
      <line x1="172.00" x2="186.00" y1="225.02" y2="210.64"/>
    </g>
    <g stroke="#000000" stroke-width="1.0">
      <line x1="96.08" x2="119.06" y1="192.49" y2="179.24"/>
    </g>
    <g stroke="#000000" stroke-width="1.0">
      <line x1="165.00" x2="142.05" y1="258.76" y2="272.06"/>
    </g>
    <g stroke="#000000" stroke-width="1.0">
      <line x1="119.06" x2="142.01" y1="179.24" y2="192.49"/>
      <line x1="124.93" x2="142.14" y1="175.70" y2="185.64"/>
    </g>
    <g stroke="#000000" stroke-width="1.0">
      <line x1="119.06" x2="119.06" y1="232.22" y2="258.76"/>
    </g>
    <g stroke="#000000" stroke-width="1.0">
      <line x1="165.00" x2="165.00" y1="238.00" y2="258.76"/>
      <line x1="159.00" x2="159.00" y1="240.60" y2="256.17"/>
    </g>
    <g stroke="#000000" stroke-width="1.0">
      <line x1="119.06" x2="119.06" y1="179.24" y2="152.69"/>
    </g>
    <g stroke="#000000" stroke-width="1.0">
      <line x1="142.05" x2="119.06" y1="272.06" y2="258.76"/>
      <line x1="142.18" x2="124.94" y1="265.20" y2="255.23"/>
    </g>
    <g stroke="#000000" stroke-width="1.0">
      <line x1="96.08" x2="96.08" y1="192.49" y2="218.96"/>
      <line x1="102.08" x2="102.08" y1="195.80" y2="215.65"/>
    </g>
    <g stroke="#000000" stroke-width="1.0">
      <line x1="142.01" x2="158.00" y1="192.49" y2="183.27"/>
    </g>
    <text fill="#000000" font-family="STIX Two Text" font-size="12pt" x="187.30" y="209.48">Fe<tspan dy="-6" font-size="75%">2+</tspan></text>
    <text fill="#000000" font-family="STIX Two Text" font-size="12pt" x="159.30" y="183.24">N</text>
    <text fill="#000000" font-family="STIX Two Text" font-size="12pt" x="159.30" y="236.22">N</text>
    <polyline fill="none" points="99.18,128.98 90.02,128.98 90.02,280.99 99.18,280.99 " stroke="#000000" stroke-width="1.0"/>
    <polyline fill="none" points="168.82,128.98 177.99,128.98 177.99,280.99 168.82,280.99 " stroke="#000000" stroke-width="1.0"/>
    <text fill="#000000" font-family="STIX Two Text" font-size="12pt" textLength="8" x="181.00" y="279.26">3</text>
    <polyline fill="none" points="132.00,338.98 137.00,330.98 137.00,391.57" stroke="#000000" stroke-width="1.0"/>
    <polyline fill="none" points="143.00,330.98 143.00,391.57 148.00,383.57" stroke="#000000" stroke-width="1.0"/>
    <text fill="#000000" font-family="STIX Two Text" font-size="12pt" textLength="67" x="108.00" y="444.26">azul claro</text>
    <text fill="#000000" font-family="STIX Two Text" font-size="12pt" textLength="26" x="219.00" y="314.25">rojo</text>
    <text fill="#000000" font-family="STIX Two Text" font-size="12pt" textLength="12" x="217.00" y="417.25">+</text>
    <text fill="#000000" font-family="STIX Two Text" font-size="12pt" textLength="24" x="235.00" y="417.25">1<tspan font-style="italic">e</tspan><tspan dy="-6" font-size="75%">−</tspan></text>
  </g>
</svg>
