<?xml version="1.0" ?><svg height="29.83906mm" version="1.0" viewBox="0 0 346 113" width="91.36563mm" xmlns="http://www.w3.org/2000/svg">
  <style type="text/css">
		@import url('../estilo.css');
  </style>
  <g font-size="12pt" stroke-linecap="round" transform="translate(-122,-88)">
    <g stroke="#000000" stroke-width="1.0">
      <line x1="232.94" x2="232.94" y1="124.00" y2="113.42"/>
    </g>
    <g stroke="#000000" stroke-linecap="butt" stroke-width="1.0">
      <line x1="220.00" x2="228.00" y1="131.98" y2="131.98"/>
    </g>
    <g stroke="#000000" stroke-linecap="butt" stroke-width="1.0">
      <line x1="204.00" x2="209.00" y1="147.40" y2="152.37"/>
    </g>
    <g stroke="#000000" stroke-linecap="butt" stroke-width="1.0">
      <line x1="220.00" x2="228.00" y1="157.88" y2="157.88"/>
    </g>
    <g stroke="#000000" stroke-width="1.0">
      <line x1="161.00" x2="147.16" y1="157.88" y2="157.88"/>
    </g>
    <g stroke="#000000" stroke-width="1.0">
      <line x1="238.00" x2="251.49" y1="131.98" y2="131.98"/>
    </g>
    <g stroke="#000000" stroke-width="1.0">
      <line x1="161.00" x2="147.28" y1="131.98" y2="131.98"/>
    </g>
    <g stroke="#000000" stroke-linecap="butt" stroke-width="1.0">
      <line x1="165.81" x2="165.75" y1="137.00" y2="150.00"/>
    </g>
    <g stroke="#000000" stroke-width="1.0">
      <line x1="165.83" x2="165.83" y1="124.00" y2="113.42"/>
    </g>
    <g stroke="#000000" stroke-linecap="butt" stroke-width="1.0">
      <line x1="194.23" x2="190.00" y1="148.00" y2="152.20"/>
    </g>
    <g stroke="#000000" stroke-linecap="butt" stroke-width="1.0">
      <line x1="179.00" x2="171.00" y1="157.88" y2="157.88"/>
    </g>
    <g stroke="#000000" stroke-linecap="butt" stroke-width="1.0">
      <line x1="179.00" x2="171.00" y1="131.98" y2="131.98"/>
    </g>
    <g stroke="#000000" stroke-width="1.0">
      <line x1="165.72" x2="165.72" y1="163.00" y2="176.44"/>
    </g>
    <g stroke="#000000" stroke-linecap="butt" stroke-width="1.0">
      <line x1="194.00" x2="190.00" y1="138.92" y2="136.03"/>
    </g>
    <g stroke="#000000" stroke-linecap="butt" stroke-width="1.0">
      <line x1="204.00" x2="209.00" y1="139.52" y2="135.89"/>
    </g>
    <g stroke="#000000" stroke-linecap="butt" stroke-width="1.0">
      <line x1="232.97" x2="233.04" y1="137.00" y2="150.00"/>
    </g>
    <g stroke="#000000" stroke-width="1.0">
      <line x1="233.09" x2="233.09" y1="163.00" y2="176.44"/>
    </g>
    <g stroke="#000000" stroke-width="1.0">
      <line x1="238.00" x2="251.64" y1="157.88" y2="157.88"/>
    </g>
    <text fill="#000000" font-family="STIX Two Text" font-size="9pt" x="180.30" y="160.88">O</text>
    <text fill="#000000" font-family="STIX Two Text" font-size="9pt" x="180.30" y="134.98">O</text>
    <text fill="#000000" font-family="STIX Two Text" font-size="9pt" x="210.30" y="134.98">O</text>
    <text fill="#000000" font-family="STIX Two Text" font-size="9pt" x="210.30" y="160.88">O</text>
    <text fill="#000000" font-family="STIX Two Text" font-size="9pt" x="196.30" y="145.84">B</text>
    <text fill="#000000" font-family="STIX Two Text" font-size="9pt" x="162.30" y="134.98">C</text>
    <text fill="#000000" font-family="STIX Two Text" font-size="9pt" x="229.30" y="134.98">C</text>
    <text fill="#000000" font-family="STIX Two Text" font-size="9pt" x="229.30" y="160.88">C</text>
    <text fill="#000000" font-family="STIX Two Text" font-size="9pt" x="162.30" y="160.88">C</text>
    <polyline fill="none" points="143.53,100.77 134.78,100.77 134.78,189.20 143.53,189.20 " stroke="#000000" stroke-width="1.0"/>
    <polyline fill="none" points="254.56,100.77 263.31,100.77 263.31,189.20 254.56,189.20 " stroke="#000000" stroke-width="1.0"/>
    <text fill="#000000" font-family="STIX Two Text" font-size="9pt" x="268.30" y="110.44">−</text>
    <text fill="#000000" font-family="STIX Two Text" font-size="9pt" x="285.30" y="147.97">H<tspan dy="-5" font-size="75%">+</tspan></text>
    <polyline fill="none" points="313.83,144.97 348.24,144.97" stroke="#000000" stroke-width="1.0"/>
    <polygon fill="#000000" fill-rule="evenodd" points="356.24,144.97 346.24,141.97 348.24,144.97 346.24,147.97" stroke="#000000" stroke-width="1"/>
    <text fill="#000000" font-family="STIX Two Text" font-size="9pt" x="323.30" y="139.18">OH<tspan dy="-4" font-size="75%">−</tspan></text>
    <text fill="#000000" font-family="STIX Two Text" font-size="9pt" x="374.30" y="147.97">[<tspan font-weight="bold">C</tspan>]<tspan dy="-5" font-size="75%">−</tspan></text>
    <text fill="#000000" font-family="STIX Two Text" font-size="10pt" x="408.00" y="149.00">+</text>
    <text fill="#000000" font-family="STIX Two Text" font-size="9pt" x="434.30" y="147.97">H<tspan dy="4" font-size="75%">2</tspan><tspan dy="-4">O</tspan></text>
  </g>
</svg>
