<?xml version="1.0" encoding="UTF-8" standalone="no"?>
<svg id="svg4603" xmlns:rdf="http://www.w3.org/1999/02/22-rdf-syntax-ns#" xmlns="http://www.w3.org/2000/svg" xmlns:ns0="http://www.iki.fi/pav/software/textext/" height="200" width="200" version="1.1" xmlns:cc="http://creativecommons.org/ns#" xmlns:xlink="http://www.w3.org/1999/xlink" viewBox="0 0 200 200" xmlns:dc="http://purl.org/dc/elements/1.1/">
 <style type="text/css">
	 @import url('../estilo.css');
 </style>
 <metadata id="metadata4747">
  <rdf:RDF>
   <cc:Work rdf:about="">
    <dc:format>image/svg+xml</dc:format>
    <dc:type rdf:resource="http://purl.org/dc/dcmitype/StillImage"/>
    <dc:title>Gnuplot</dc:title>
   </cc:Work>
  </rdf:RDF>
 </metadata>
 <title id="title4605">Gnuplot</title>
 <desc id="desc4607">Produced by GNUPLOT 5.0 patchlevel 3</desc>
 <g id="gnuplot_canvas">
  <rect id="rect4610" height="200" width="200" y="0" x="0" fill="none"/>
  <g>
   <g id="g4642" font-size="16" font-family="Stix Two Text" color="black">
    <g id="g4644" transform="translate(18.7,174.2)" text-anchor="end">
     <text id="text4646">
      <tspan id="tspan4648" font-family="Stix Two Text" font-weight="bold" font-style="italic">x</tspan>
     </text>
    </g>
    <g id="g4650" transform="translate(175 150.1)" text-anchor="end">
     <text id="text4652">
      <tspan id="tspan4654" font-family="Stix Two Text" font-weight="bold" font-style="italic">y</tspan>
     </text>
    </g>
    <g id="g4656" transform="translate(67.2,28.9)">
     <text id="text4658">
      <tspan id="tspan4660" font-family="Stix Two Text" font-weight="bold" font-style="italic">z</tspan>
     </text>
    </g>
   </g>
   <g stroke="currentColor" stroke-width=".5" fill="none">
    <g id="g4664" color="black">
     <g id="g4666" stroke="none" shape-rendering="crispEdges">
      <polygon id="polygon4668" points="26.6 171.3 29.6 172.1 20.7 177.2 25.8 168.3" fill="#000"/>
     </g>
     <path id="path4670" stroke="#000" d="m26.6 171.3l3 0.8-8.9 5.1 5.1-8.9 0.8 3m34.4-34.4l-34.4 34.4"/>
    </g>
    <g id="g4672" color="black">
     <g id="g4674" stroke="none" shape-rendering="crispEdges">
      <polygon id="polygon4676" points="166.6 136.9 165.1 134.3 175 136.9 165.1 139.5" fill="#000"/>
     </g>
     <path id="path4678" stroke="#000" d="m166.6 136.9l-1.5-2.6 9.9 2.6-9.9 2.6 1.5-2.6m-105.6 0h105.6"/>
    </g>
    <g id="g4680" color="black">
     <g id="g4682" stroke="none" shape-rendering="crispEdges">
      <polygon id="polygon4684" points="61 31.3 58.4 32.8 61 22.9 63.6 32.8" fill="#000"/>
     </g>
     <path id="path4686" stroke="#000" d="m61 31.3l-2.6 1.5 2.6-9.9 2.6 9.9-2.6-1.5m0 105.6v-105.6"/>
    </g>
   </g>
   <g id="g4690" color="black" fill="none">
    <g id="g4692" shape-rendering="crispEdges">
     <polygon id="polygon4694" points="70.4 115.9 69.8 119.4 61 114.1 71.1 112.5" fill="#000"/>
    </g>
    <path id="path4696" stroke="#000" d="m69.7 115.8l0.7 0.1"/>
   </g>
  </g>
  <g id="gnuplot_plot_1">
   <title id="title4701"/>
   <g id="g4705" color="black" stroke="currentColor" stroke-width=".5" fill="none">
    <path id="path4707" stroke="#000" d="m83.8 136.9v-0.4-0.3-0.4-0.3l-0.1-0.4v-0.4-0.3l-0.1-0.4v-0.3l-0.1-0.4v-0.4l-0.1-0.3-0.1-0.4-0.1-0.3v-0.4l-0.1-0.3-0.1-0.4-0.1-0.3-0.1-0.4-0.1-0.3-0.2-0.4-0.1-0.3-0.1-0.3-0.1-0.4-0.2-0.3-0.1-0.3-0.2-0.4-0.1-0.3-0.2-0.3-0.1-0.4-0.2-0.3-0.2-0.3-0.2-0.3-0.1-0.3-0.2-0.3-0.2-0.3-0.2-0.3-0.2-0.3-0.2-0.3-0.2-0.3-0.3-0.3-0.2-0.3-0.2-0.3-0.2-0.3-0.3-0.2-0.2-0.3-0.2-0.3-0.3-0.2-0.2-0.3-0.3-0.3-0.3-0.2-0.2-0.3-0.3-0.2-0.3-0.2-0.2-0.3-0.3-0.2-0.3-0.2-0.3-0.2-0.3-0.3-0.3-0.2-0.3-0.2-0.3-0.2-0.3-0.2-0.3-0.2-0.3-0.2-0.3-0.1-0.3-0.2-0.3-0.2-0.3-0.2-0.4-0.1-0.3-0.2-0.3-0.1-0.4-0.2-0.3-0.1-0.3-0.2-0.4-0.1-0.3-0.1-0.3-0.1-0.4-0.2-0.3-0.1-0.4-0.1-0.3-0.1-0.4-0.1-0.3-0.1h-0.4l-0.3-0.1-0.4-0.1-0.3-0.1h-0.4l-0.4-0.1h-0.3l-0.4-0.1h-0.3-0.4l-0.4-0.1h-0.3-0.4-0.3-0.4"/>
   </g>
  </g>
  <g stroke="currentColor" stroke-width="1.5" fill="none">
   <g id="g4715" color="black">
    <g id="g4717" stroke="none" shape-rendering="crispEdges">
     <polygon id="polygon4719" points="43.5 154.4 50.8 154.4 40.9 157 43.5 147.1" fill="#e51e10"/>
    </g>
    <path id="path4721" stroke="#e51e10" d="m43.5 154.4h7.3l-9.9 2.6 2.6-9.9v7.3m17.5-17.5l-17.5 17.5"/>
   </g>
   <g id="g4723" color="black">
    <g id="g4725" stroke="none" shape-rendering="crispEdges">
     <polygon id="polygon4727" points="114.3 136.9 109.1 131.8 118 136.9 109.1 142" fill="#0072b2"/>
    </g>
    <path id="path4729" stroke="#0072b2" d="m114.3 136.9l-5.2-5.1 8.9 5.1-8.9 5.1 5.2-5.1m-53.3 0h53.3"/>
   </g>
   <g id="g4731" color="black">
    <g id="g4733" stroke="none" shape-rendering="crispEdges">
     <polygon id="polygon4735" points="61 83.6 55.9 88.8 61 79.9 66.1 88.8" fill="#e69f00"/>
    </g>
    <path id="path4737" stroke="#e69f00" d="m61 83.6l-5.1 5.2 5.1-8.9 5.1 8.9-5.1-5.2m0 53.3v-53.3"/>
   </g>
  </g>
 </g>
 <g stroke-width="0" fill-rule="evenodd" stroke="#000" stroke-miterlimit="10.433">
  <g id="content" xml:space="preserve" ns0:pdfconverter="pstoedit" transform="matrix(1.75 0 0 -1.75 -220.73 1381.7)" ns0:text="$\n\\vec{A}\n$" ns0:version="0.7.2" ns0:inkscapeversion="0.91" ns0:preamble="/usr/share/inkscape/extensions/default_packages.tex" ns0:scale="1.4" ns0:texconverter="pdflatex"><polygon id="polygon4563" points="154.09 714.03 154.27 713.79 155.95 715.23 154.89 716.67 154.6 716.43 155.14 715.43 151.81 715.43 151.72 715.03 155.06 715.03"/><path id="path4565" d="m154.58 707.28-0.06 0.01h-0.04l-0.05 0.01h-0.04l-0.04 0.01-0.04 0.01-0.04 0.01h-0.03l-0.03 0.01-0.03 0.02-0.03 0.01-0.03 0.01-0.02 0.02-0.03 0.02-0.02 0.02-0.02 0.02-0.01 0.02-0.02 0.02-0.02 0.03-0.01 0.03-0.02 0.03-0.01 0.04-0.02 0.03-0.01 0.04-0.01 0.05-0.01 0.04-0.01 0.05-0.01 0.06-0.01 0.02-0.01 0.03v0.03l-0.01 0.03v0.03l-0.01 0.03v0.04l-0.01 0.03-0.94 5.64h-0.26l-2.88-4.98c-0.79-1.33-0.89-1.44-1.29-1.52v-0.16h1.86v0.16c-0.51 0.05-0.58 0.1-0.58 0.35 0 0.19 0.03 0.28 0.19 0.62l0.57 1.12h2.19l-0.05 0.36h-1.93l1.5 2.59 0.43-2.59 0.05-0.36 0.2-1.3c0.01-0.09 0.02-0.18 0.02-0.26 0-0.38-0.14-0.47-0.77-0.53v-0.16h2.45z"/></g>
  <g id="g4737" xml:space="preserve" ns0:pdfconverter="pstoedit" transform="matrix(1.75 0 0 -1.75 -169.93 1394)" ns0:text="$\n\\vec{B}\n$" ns0:version="0.7.2" ns0:inkscapeversion="0.91" ns0:preamble="/usr/share/inkscape/extensions/default_packages.tex" ns0:scale="1.4" ns0:texconverter="pdflatex"><polygon id="polygon4739" points="154.53 715.03 153.55 714.03 153.74 713.79 155.41 715.23 154.36 716.67 154.07 716.43 154.61 715.43 151.28 715.43 151.19 715.03"/><path id="path4741" d="m148.98 707.12h2.81c1.57 0 2.64 0.82 2.64 1.99 0 0.37-0.12 0.72-0.34 0.94-0.2 0.23-0.39 0.35-0.91 0.57 0.7 0.17 0.99 0.29 1.31 0.57 0.28 0.24 0.43 0.58 0.43 0.97 0 0.95-0.71 1.47-1.99 1.47l-0.18-0.3c0.8 0 1.16-0.34 1.16-1.08 0-0.57-0.23-1-0.66-1.24-0.34-0.2-0.82-0.27-1.72-0.27l-0.1-0.32c0.65 0 1.07-0.04 1.27-0.12 0.41-0.17 0.66-0.61 0.66-1.14 0-1.08-0.74-1.74-1.96-1.74-0.41 0-0.63 0.15-0.63 0.42 0 0.12 0.12 0.6 0.35 1.39 0.12 0.45 0.18 0.68 0.31 1.19l0.1 0.32 0.65 2.31c0.06 0.22 0.18 0.28 0.57 0.28l0.18 0.3h-2.57v-0.16c0.62-0.05 0.76-0.13 0.76-0.41 0-0.15-0.03-0.4-0.11-0.64l-1.22-4.4c-0.18-0.58-0.25-0.64-0.81-0.74z"/></g>
  <g id="g4919" xml:space="preserve" ns0:pdfconverter="pstoedit" transform="matrix(1.75 0 0 -1.75 -215.95 1345.8)" ns0:text="$\n\\vec{C}\n$" ns0:version="0.7.2" ns0:inkscapeversion="0.91" ns0:preamble="/usr/share/inkscape/extensions/default_packages.tex" ns0:scale="1.4" ns0:texconverter="pdflatex"><polygon id="polygon4921" points="155.15 716.67 154.87 716.43 155.4 715.43 152.08 715.43 151.99 715.03 155.32 715.03 154.35 714.03 154.54 713.79 156.21 715.23"/><path id="path4923" d="m154.96 711.76 0.37 1.98h-0.21c-0.08-0.16-0.18-0.22-0.38-0.22-0.08 0-0.2 0.02-0.41 0.07-0.45 0.11-0.85 0.17-1.17 0.17-2.12 0-4.04-2-4.04-4.22 0-1.52 1.08-2.6 2.6-2.6 1.03 0 1.82 0.44 2.72 1.49l-0.17 0.14c-0.9-0.88-1.47-1.18-2.29-1.18-1.11 0-1.74 0.76-1.74 2.04 0 1.19 0.47 2.4 1.25 3.2 0.48 0.49 1.11 0.77 1.77 0.77 0.91 0 1.42-0.54 1.52-1.62z"/></g>
 </g>
</svg>
