<?xml version="1.0" encoding="UTF-8" standalone="no"?>
<svg id="svg4136" xmlns:rdf="http://www.w3.org/1999/02/22-rdf-syntax-ns#" xmlns="http://www.w3.org/2000/svg" xmlns:ns0="http://www.iki.fi/pav/software/textext/" height="200" width="200" version="1.1" xmlns:cc="http://creativecommons.org/ns#" xmlns:xlink="http://www.w3.org/1999/xlink" viewBox="0 0 200 200" xmlns:dc="http://purl.org/dc/elements/1.1/">
 <metadata id="metadata4234">
  <rdf:RDF>
   <cc:Work rdf:about="">
    <dc:format>image/svg+xml</dc:format>
    <dc:type rdf:resource="http://purl.org/dc/dcmitype/StillImage"/>
    <dc:title>Gnuplot</dc:title>
   </cc:Work>
  </rdf:RDF>
 </metadata>
 <title id="title4138">Gnuplot</title>
 <desc id="desc4140">Produced by GNUPLOT 5.0 patchlevel 3</desc>
 <g id="gnuplot_canvas">
  <rect id="rect4143" height="200" width="200" y="0" x="0" fill="none"/>
  <g id="gnuplot_plot_1">
   <title id="title4180"/>
   <g id="g4184" color="black" stroke="currentColor" stroke-width=".5" fill="none">
    <path id="path4186" stroke="#000" d="m88.6 106.9l0.3-0.2 0.3-0.1 0.3-0.1 0.3-0.1 0.4-0.2 0.3-0.1 0.3-0.1 0.3-0.2 0.3-0.1 0.3-0.1 0.3-0.2 0.3-0.1 0.3-0.1 0.2-0.2 0.3-0.1 0.3-0.1 0.3-0.2 0.3-0.1 0.2-0.1 0.3-0.2 0.2-0.1 0.3-0.1 0.3-0.2 0.2-0.1 0.2-0.2 0.3-0.1 0.2-0.1 0.3-0.2 0.2-0.1 0.2-0.2 0.2-0.1 0.3-0.1 0.2-0.2 0.2-0.1 0.2-0.2 0.2-0.1 0.2-0.2 0.2-0.1 0.2-0.1 0.2-0.2 0.1-0.1 0.2-0.2 0.2-0.1 0.2-0.2 0.1-0.1 0.2-0.1 0.2-0.2 0.1-0.1 0.2-0.2 0.1-0.1 0.1-0.2 0.2-0.1 0.1-0.2 0.1-0.1 0.2-0.1 0.1-0.2 0.1-0.1 0.1-0.2 0.1-0.1 0.1-0.2 0.1-0.1 0.1-0.1 0.1-0.2 0.1-0.1v-0.2l0.1-0.1 0.1-0.2v-0.1l0.1-0.1 0.1-0.2v-0.1l0.1-0.2v-0.1-0.1l0.1-0.2v-0.1-0.2-0.1-0.1l0.1-0.2v-0.1-0.1-0.2-0.1l-0.1-0.1v-0.2-0.1-0.1l-0.1-0.2v-0.1-0.1l-0.1-0.2v-0.1l-0.1-0.1v-0.2l-0.1-0.1-0.1-0.1v-0.1l-0.1-0.2"/>
   </g>
  </g>
  <g stroke="currentColor" stroke-width="1.5" fill="none">
   <g id="g4194" color="black">
    <g id="g4196" stroke="none" shape-rendering="crispEdges">
     <polygon id="polygon4198" points="124.8 116.2 121.1 109.9 128.4 117.1 118.5 119.8" fill="#e51e10"/>
    </g>
    <path id="path4200" stroke="#e51e10" d="m124.8 116.2l-3.7-6.3 7.3 7.2-9.9 2.7 6.3-3.6m-62.8-16.2l62.8 16.2"/>
   </g>
   <g id="g4202" color="black">
    <g id="g4204" stroke="none" shape-rendering="crispEdges">
     <polygon id="polygon4206" points="169.9 81.7 164 77.6 173.6 81.1 165.7 87.6" fill="#0072b2"/>
    </g>
    <path id="path4208" stroke="#0072b2" d="m169.9 81.7l-5.9-4.1 9.6 3.5-7.9 6.5 4.2-5.9m-107.9 18.3l107.9-18.3"/>
   </g>
   <g id="g4210" color="black">
    <g id="g4212" stroke="none" shape-rendering="crispEdges">
     <polygon id="polygon4214" points="62 20.4 56.9 25.6 62 16.7 67.1 25.6" fill="#e69f00"/>
    </g>
    <path id="path4216" stroke="#e69f00" d="m62 20.4l-5.1 5.2 5.1-8.9 5.1 8.9-5.1-5.2m0 79.6v-79.6"/>
   </g>
   <g id="g4218" color="black">
    <g id="g4220" stroke="none" shape-rendering="crispEdges">
     <polygon id="polygon4222" points="62 179.7 67.1 174.5 62 183.4 56.9 174.5" fill="#009e73"/>
    </g>
    <path id="path4224" stroke="#009e73" d="m62 179.7l5.1-5.2-5.1 8.9-5.1-8.9 5.1 5.2m0-79.7v79.7"/>
   </g>
  </g>
 </g>
 <g fill-rule="evenodd" stroke="#000" stroke-miterlimit="10.433">
  <g id="content" xml:space="preserve" stroke-width="0" ns0:pdfconverter="pstoedit" transform="matrix(1.75 0 0 -1.75 -244.96 1302.3)" ns0:text="$\n\\vec{A} \\times \\vec{B}\n$" ns0:version="0.7.2" ns0:inkscapeversion="0.91" ns0:preamble="/usr/share/inkscape/extensions/default_packages.tex" ns0:scale="1.4" ns0:texconverter="pdflatex"><polygon id="polygon4297" points="154.6 716.43 155.14 715.43 151.81 715.43 151.72 715.03 155.06 715.03 154.09 714.03 154.27 713.79 155.95 715.23 154.89 716.67"/><path id="path4299" d="m154.58 707.28-0.06 0.01h-0.04l-0.05 0.01h-0.04l-0.04 0.01-0.04 0.01-0.04 0.01h-0.03l-0.03 0.01-0.03 0.02-0.03 0.01-0.03 0.01-0.02 0.02-0.03 0.02-0.02 0.02-0.02 0.02-0.01 0.02-0.02 0.02-0.02 0.03-0.01 0.03-0.02 0.03-0.01 0.04-0.02 0.03-0.01 0.04-0.01 0.05-0.01 0.04-0.01 0.05-0.01 0.06-0.01 0.02-0.01 0.03v0.03l-0.01 0.03v0.03l-0.01 0.03v0.04l-0.01 0.03-0.94 5.64h-0.26l-2.88-4.98c-0.79-1.33-0.89-1.44-1.29-1.52v-0.16h1.86v0.16c-0.51 0.05-0.58 0.1-0.58 0.35 0 0.19 0.03 0.28 0.19 0.62l0.57 1.12h2.19l-0.05 0.36h-1.93l1.5 2.59 0.43-2.59 0.05-0.36 0.2-1.3c0.01-0.09 0.02-0.18 0.02-0.26 0-0.38-0.14-0.47-0.77-0.53v-0.16h2.45z"/><polygon id="polygon4301" points="163.04 711.91 162.64 712.3 160.43 710.08 158.22 712.3 157.82 711.91 160.03 709.68 157.82 707.47 158.22 707.07 160.43 709.29 162.64 707.07 163.04 707.47 160.82 709.68"/><polygon id="polygon4303" points="171.17 716.43 171.71 715.43 168.38 715.43 168.29 715.03 171.63 715.03 170.65 714.03 170.84 713.79 172.51 715.23 171.46 716.67"/><path id="path4305" d="m166.08 707.12h2.81c1.57 0 2.64 0.82 2.64 1.99 0 0.37-0.12 0.72-0.34 0.94-0.2 0.23-0.4 0.35-0.91 0.57 0.7 0.17 0.99 0.29 1.31 0.57 0.28 0.24 0.43 0.58 0.43 0.97 0 0.95-0.71 1.47-1.99 1.47l-0.18-0.3c0.8 0 1.16-0.34 1.16-1.08 0-0.57-0.24-1-0.66-1.24-0.34-0.2-0.82-0.27-1.72-0.27l-0.1-0.32c0.65 0 1.07-0.04 1.27-0.12 0.41-0.17 0.66-0.61 0.66-1.14 0-1.08-0.74-1.74-1.96-1.74-0.41 0-0.63 0.15-0.63 0.42 0 0.12 0.12 0.6 0.34 1.39 0.13 0.45 0.19 0.68 0.32 1.19l0.1 0.32 0.65 2.31c0.06 0.22 0.18 0.28 0.57 0.28l0.18 0.3h-2.57v-0.16c0.61-0.05 0.77-0.13 0.77-0.41 0-0.15-0.05-0.4-0.11-0.64l-1.23-4.4c-0.18-0.58-0.25-0.64-0.81-0.74z"/></g>
  <g id="g4437" xml:space="preserve" stroke-width="0" ns0:pdfconverter="pstoedit" transform="matrix(1.75 0 0 -1.75 -245.9 1383.5)" ns0:text="$\n\\vec{B} \\times \\vec{A}\n$" ns0:version="0.7.2" ns0:inkscapeversion="0.91" ns0:preamble="/usr/share/inkscape/extensions/default_packages.tex" ns0:scale="1.4" ns0:texconverter="pdflatex"><polygon id="polygon4439" points="151.28 715.43 151.19 715.03 154.53 715.03 153.55 714.03 153.74 713.79 155.41 715.23 154.36 716.67 154.07 716.43 154.61 715.43"/><path id="path4441" d="m148.98 707.12h2.81c1.57 0 2.64 0.82 2.64 1.99 0 0.37-0.12 0.72-0.34 0.94-0.2 0.23-0.39 0.35-0.91 0.57 0.7 0.17 0.99 0.29 1.31 0.57 0.28 0.24 0.43 0.58 0.43 0.97 0 0.95-0.71 1.47-1.99 1.47l-0.18-0.3c0.8 0 1.16-0.34 1.16-1.08 0-0.57-0.23-1-0.66-1.24-0.34-0.2-0.82-0.27-1.72-0.27l-0.1-0.32c0.65 0 1.07-0.04 1.27-0.12 0.41-0.17 0.66-0.61 0.66-1.14 0-1.08-0.74-1.74-1.96-1.74-0.41 0-0.63 0.15-0.63 0.42 0 0.12 0.12 0.6 0.35 1.39 0.12 0.45 0.18 0.68 0.31 1.19l0.1 0.32 0.65 2.31c0.06 0.22 0.18 0.28 0.57 0.28l0.18 0.3h-2.57v-0.16c0.62-0.05 0.76-0.13 0.76-0.41 0-0.15-0.03-0.4-0.11-0.64l-1.22-4.4c-0.18-0.58-0.25-0.64-0.81-0.74z"/><polygon id="polygon4443" points="160.43 710.08 158.22 712.3 157.82 711.91 160.03 709.68 157.82 707.47 158.22 707.07 160.43 709.29 162.64 707.07 163.04 707.47 160.82 709.68 163.04 711.91 162.64 712.3"/><polygon id="polygon4445" points="168.91 715.43 168.82 715.03 172.16 715.03 171.18 714.03 171.37 713.79 173.05 715.23 171.99 716.67 171.7 716.43 172.24 715.43"/><path id="path4447" d="m171.68 707.28-0.05 0.01h-0.05l-0.04 0.01h-0.05l-0.04 0.01-0.04 0.01-0.03 0.01h-0.04l-0.03 0.01-0.03 0.02-0.03 0.01-0.02 0.01-0.03 0.02-0.02 0.02-0.02 0.02-0.02 0.02-0.02 0.02-0.01 0.02-0.02 0.03-0.02 0.03-0.01 0.03-0.01 0.04-0.02 0.03-0.01 0.04-0.01 0.05-0.01 0.04-0.02 0.05-0.01 0.06v0.02l-0.01 0.03v0.03l-0.01 0.03-0.01 0.03v0.03l-0.01 0.04v0.03l-0.94 5.64h-0.26l-2.89-4.98c-0.79-1.33-0.88-1.44-1.28-1.52v-0.16h1.86v0.16c-0.51 0.05-0.59 0.1-0.59 0.35 0 0.19 0.03 0.28 0.2 0.62l0.57 1.12h2.19l-0.05 0.36h-1.93l1.49 2.59 0.44-2.59 0.05-0.36 0.2-1.3c0.01-0.09 0.02-0.18 0.02-0.26 0-0.38-0.14-0.47-0.78-0.53v-0.16h2.45z"/></g>
  <g id="g4591" xml:space="preserve" stroke-width="0" ns0:pdfconverter="pstoedit" transform="matrix(1.75 0 0 -1.75 -168.81 1367.4)" ns0:text="$\n\\vec{A}\n$" ns0:version="0.7.2" ns0:inkscapeversion="0.91" ns0:preamble="/usr/share/inkscape/extensions/default_packages.tex" ns0:scale="1.4" ns0:texconverter="pdflatex"><polygon id="polygon4593" points="154.89 716.67 154.6 716.43 155.14 715.43 151.81 715.43 151.72 715.03 155.06 715.03 154.09 714.03 154.27 713.79 155.95 715.23"/><path id="path4595" d="m154.58 707.28-0.06 0.01h-0.04l-0.05 0.01h-0.04l-0.04 0.01-0.04 0.01-0.04 0.01h-0.03l-0.03 0.01-0.03 0.02-0.03 0.01-0.03 0.01-0.02 0.02-0.03 0.02-0.02 0.02-0.02 0.02-0.01 0.02-0.02 0.02-0.02 0.03-0.01 0.03-0.02 0.03-0.01 0.04-0.02 0.03-0.01 0.04-0.01 0.05-0.01 0.04-0.01 0.05-0.01 0.06-0.01 0.02-0.01 0.03v0.03l-0.01 0.03v0.03l-0.01 0.03v0.04l-0.01 0.03-0.94 5.64h-0.26l-2.88-4.98c-0.79-1.33-0.89-1.44-1.29-1.52v-0.16h1.86v0.16c-0.51 0.05-0.58 0.1-0.58 0.35 0 0.19 0.03 0.28 0.19 0.62l0.57 1.12h2.19l-0.05 0.36h-1.93l1.5 2.59 0.43-2.59 0.05-0.36 0.2-1.3c0.01-0.09 0.02-0.18 0.02-0.26 0-0.38-0.14-0.47-0.77-0.53v-0.16h2.45z"/></g>
  <g id="g4745" xml:space="preserve" stroke-width="0" ns0:pdfconverter="pstoedit" transform="matrix(1.75 0 0 -1.75 -134.1 1321.9)" ns0:text="$\n\\vec{B}\n$" ns0:version="0.7.2" ns0:inkscapeversion="0.91" ns0:preamble="/usr/share/inkscape/extensions/default_packages.tex" ns0:scale="1.4" ns0:texconverter="pdflatex"><polygon id="polygon4747" points="154.36 716.67 154.07 716.43 154.61 715.43 151.28 715.43 151.19 715.03 154.53 715.03 153.55 714.03 153.74 713.79 155.41 715.23"/><path id="path4749" d="m148.98 707.12h2.81c1.57 0 2.64 0.82 2.64 1.99 0 0.37-0.12 0.72-0.34 0.94-0.2 0.23-0.39 0.35-0.91 0.57 0.7 0.17 0.99 0.29 1.31 0.57 0.28 0.24 0.43 0.58 0.43 0.97 0 0.95-0.71 1.47-1.99 1.47l-0.18-0.3c0.8 0 1.16-0.34 1.16-1.08 0-0.57-0.23-1-0.66-1.24-0.34-0.2-0.82-0.27-1.72-0.27l-0.1-0.32c0.65 0 1.07-0.04 1.27-0.12 0.41-0.17 0.66-0.61 0.66-1.14 0-1.08-0.74-1.74-1.96-1.74-0.41 0-0.63 0.15-0.63 0.42 0 0.12 0.12 0.6 0.35 1.39 0.12 0.45 0.18 0.68 0.31 1.19l0.1 0.32 0.65 2.31c0.06 0.22 0.18 0.28 0.57 0.28l0.18 0.3h-2.57v-0.16c0.62-0.05 0.76-0.13 0.76-0.41 0-0.15-0.03-0.4-0.11-0.64l-1.22-4.4c-0.18-0.58-0.25-0.64-0.81-0.74z"/></g>
  <g id="g4905" xml:space="preserve" ns0:pdfconverter="pstoedit" transform="matrix(1.75 0 0 -1.75 -156.03 1344.5)" ns0:text="$\n\\theta\n$" ns0:version="0.7.2" ns0:inkscapeversion="0.91" ns0:preamble="/usr/share/inkscape/extensions/default_packages.tex" ns0:scale="1.4" ns0:texconverter="pdflatex"><path id="path4907" stroke-width="0" d="m153.22 711.93v0.01 0.02 0.01 0.02 0.01 0.02 0.04 0.05l-0.01 0.06v0.05l-0.01 0.06-0.01 0.07-0.01 0.07-0.01 0.07-0.02 0.07-0.01 0.08-0.02 0.07-0.03 0.08-0.03 0.07-0.03 0.08-0.03 0.07-0.04 0.07-0.04 0.07-0.05 0.07-0.05 0.06-0.02 0.03-0.03 0.03-0.03 0.03-0.03 0.03-0.04 0.03-0.03 0.02-0.03 0.03-0.04 0.02-0.04 0.02-0.04 0.02-0.04 0.02-0.04 0.01-0.04 0.02-0.05 0.01-0.05 0.01-0.04 0.01-0.05 0.01h-0.05l-0.06 0.01h-0.05l-0.01-0.21c0.4 0 0.56-0.35 0.56-0.92 0-0.54-0.14-1.27-0.34-2.08h-2.16c0.35 1.45 0.98 3 1.94 3l0.01 0.21c-1.77 0-3.02-2.77-3.02-4.68 0-0.36 0.06-1.95 1.32-1.95l0.14 0.22c-0.55 0-0.74 0.48-0.74 1.15 0 0.49 0.11 1.08 0.24 1.69h2.17c-0.31-1.16-0.66-2.84-1.67-2.84l-0.14-0.22c1.99 0 2.9 3.39 2.9 4.92z"/></g>
 </g>
</svg>
