<?xml version="1.0" encoding="UTF-8" standalone="no"?>
<svg id="svg4280" xmlns:rdf="http://www.w3.org/1999/02/22-rdf-syntax-ns#" xmlns="http://www.w3.org/2000/svg" xmlns:ns0="http://www.iki.fi/pav/software/textext/" height="75" width="75" version="1.1" xmlns:cc="http://creativecommons.org/ns#" xmlns:xlink="http://www.w3.org/1999/xlink" viewBox="0 0 75 75" xmlns:dc="http://purl.org/dc/elements/1.1/">
 <metadata id="metadata4368">
  <rdf:RDF>
   <cc:Work rdf:about="">
    <dc:format>image/svg+xml</dc:format>
    <dc:type rdf:resource="http://purl.org/dc/dcmitype/StillImage"/>
    <dc:title>Gnuplot</dc:title>
   </cc:Work>
  </rdf:RDF>
 </metadata>
 <title id="title4282">Gnuplot</title>
 <desc id="desc4284">Produced by GNUPLOT 5.0 patchlevel 3</desc>
 <rect id="rect4287" height="75" width="75" y="0" x="0" fill="none"/>
 <g id="g4321" style="color:#ffffff" stroke-width=".5" fill="none">
  <path id="path4323" d="m39.9 49-0.1-1-0.1-1-0.1-1-0.2-0.9-0.2-1-0.3-1-0.3-0.9-0.4-1-0.4-0.9-0.5-0.8-0.5-0.9-0.6-0.8-0.6-0.8-0.7-0.8-0.7-0.7-0.7-0.7-0.8-0.7-0.8-0.6-1.6-1.1" stroke="#fff"/>
  <path id="path4325" stroke="#009e73" d="m39.9 49-0.1-1-0.1-1-0.1-1-0.2-0.9-0.2-1-0.3-1-0.3-0.9-0.4-1-0.4-0.9-0.5-0.8-0.5-0.9-0.6-0.8-0.6-0.8-0.7-0.8-0.7-0.7-0.7-0.7-0.8-0.7-0.8-0.6-1.6-1.1"/>
 </g>
 <g id="gnuplot_plot_1">
  <title id="title4334">NaN</title>
 </g>
 <g id="g4344" style="color:#000000" stroke="currentColor" stroke-width="1.5" fill="none">
  <g id="g4346" style="shape-rendering:crispEdges">
   <polygon id="polygon4348" points="68.7 49 59.8 54.1 65 49 65 49 59.8 43.9" fill="#e51e10"/>
  </g>
  <path id="path4350" d="m65 49-5.2-5.1 8.9 5.1-8.9 5.1 5.2-5.1m-44.3 0h44.3" stroke="#e51e10"/>
 </g>
 <g id="g4352" style="color:#000000" stroke="currentColor" stroke-width="1.5" fill="none">
  <g id="g4354" style="shape-rendering:crispEdges">
   <polygon id="polygon4356" points="44.7 7.4 44.7 17.6 42.9 10.6 42.9 10.6 35.8 12.5" fill="#0072b2"/>
  </g>
  <path id="path4358" d="m42.9 10.6-7.1 1.9 8.9-5.1v10.2l-1.8-7m-22.2 38.4 22.2-38.4" stroke="#0072b2"/>
 </g>
 <g fill-rule="evenodd" stroke="#000" stroke-miterlimit="10.433">
  <g id="content" xml:space="preserve" stroke-width="0" ns0:pdfconverter="pstoedit" transform="matrix(1.75 0 0 -1.75 -245.41 1270.2)" ns0:text="$\n\\vec{B}\n$" ns0:version="0.7.2" ns0:inkscapeversion="0.91" ns0:preamble="/usr/share/inkscape/extensions/default_packages.tex" ns0:scale="1.4" ns0:texconverter="pdflatex"><polygon id="polygon4473" points="154.36 716.67 154.07 716.43 154.61 715.43 151.28 715.43 151.19 715.03 154.53 715.03 153.55 714.03 153.74 713.79 155.41 715.23"/><path id="path4475" d="m148.98 707.12h2.81c1.57 0 2.64 0.82 2.64 1.99 0 0.37-0.12 0.72-0.34 0.94-0.2 0.23-0.39 0.35-0.91 0.57 0.7 0.17 0.99 0.29 1.31 0.57 0.28 0.24 0.43 0.58 0.43 0.97 0 0.95-0.71 1.47-1.99 1.47l-0.18-0.3c0.8 0 1.16-0.34 1.16-1.08 0-0.57-0.23-1-0.66-1.24-0.34-0.2-0.82-0.27-1.72-0.27l-0.1-0.32c0.65 0 1.07-0.04 1.27-0.12 0.41-0.17 0.66-0.61 0.66-1.14 0-1.08-0.74-1.74-1.96-1.74-0.41 0-0.63 0.15-0.63 0.42 0 0.12 0.12 0.6 0.35 1.39 0.12 0.45 0.18 0.68 0.31 1.19l0.1 0.32 0.65 2.31c0.06 0.22 0.18 0.28 0.57 0.28l0.18 0.3h-2.57v-0.16c0.62-0.05 0.76-0.13 0.76-0.41 0-0.15-0.03-0.4-0.11-0.64l-1.22-4.4c-0.18-0.58-0.25-0.64-0.81-0.74z"/></g>
  <g id="g4589" xml:space="preserve" stroke-width="0" ns0:pdfconverter="pstoedit" transform="matrix(1.75 0 0 -1.75 -224.63 1305.2)" ns0:text="$\n\\vec{A}\n$" ns0:version="0.7.2" ns0:inkscapeversion="0.91" ns0:preamble="/usr/share/inkscape/extensions/default_packages.tex" ns0:scale="1.4" ns0:texconverter="pdflatex"><polygon id="polygon4591" points="154.89 716.67 154.6 716.43 155.14 715.43 151.81 715.43 151.72 715.03 155.06 715.03 154.09 714.03 154.27 713.79 155.95 715.23"/><path id="path4593" d="m154.58 707.28-0.06 0.01h-0.04l-0.05 0.01h-0.04l-0.04 0.01-0.04 0.01-0.04 0.01h-0.03l-0.03 0.01-0.03 0.02-0.03 0.01-0.03 0.01-0.02 0.02-0.03 0.02-0.02 0.02-0.02 0.02-0.01 0.02-0.02 0.02-0.02 0.03-0.01 0.03-0.02 0.03-0.01 0.04-0.02 0.03-0.01 0.04-0.01 0.05-0.01 0.04-0.01 0.05-0.01 0.06-0.01 0.02-0.01 0.03v0.03l-0.01 0.03v0.03l-0.01 0.03v0.04l-0.01 0.03-0.94 5.64h-0.26l-2.88-4.98c-0.79-1.33-0.89-1.44-1.29-1.52v-0.16h1.86v0.16c-0.51 0.05-0.58 0.1-0.58 0.35 0 0.19 0.03 0.28 0.19 0.62l0.57 1.12h2.19l-0.05 0.36h-1.93l1.5 2.59 0.43-2.59 0.05-0.36 0.2-1.3c0.01-0.09 0.02-0.18 0.02-0.26 0-0.38-0.14-0.47-0.77-0.53v-0.16h2.45z"/></g>
  <g id="g4713" xml:space="preserve" ns0:pdfconverter="pstoedit" transform="matrix(1.75 0 0 -1.75 -219.6 1278)" ns0:text="$\n\\theta\n$" ns0:version="0.7.2" ns0:inkscapeversion="0.91" ns0:preamble="/usr/share/inkscape/extensions/default_packages.tex" ns0:scale="1.4" ns0:texconverter="pdflatex"><path id="path4715" stroke-width="0" d="m153.22 711.93v0.01 0.02 0.01 0.02 0.01 0.02 0.04 0.05l-0.01 0.06v0.05l-0.01 0.06-0.01 0.07-0.01 0.07-0.01 0.07-0.02 0.07-0.01 0.08-0.02 0.07-0.03 0.08-0.03 0.07-0.03 0.08-0.03 0.07-0.04 0.07-0.04 0.07-0.05 0.07-0.05 0.06-0.02 0.03-0.03 0.03-0.03 0.03-0.03 0.03-0.04 0.03-0.03 0.02-0.03 0.03-0.04 0.02-0.04 0.02-0.04 0.02-0.04 0.02-0.04 0.01-0.04 0.02-0.05 0.01-0.05 0.01-0.04 0.01-0.05 0.01h-0.05l-0.06 0.01h-0.05l-0.01-0.21c0.4 0 0.56-0.35 0.56-0.92 0-0.54-0.14-1.27-0.34-2.08h-2.16c0.35 1.45 0.98 3 1.94 3l0.01 0.21c-1.77 0-3.02-2.77-3.02-4.68 0-0.36 0.06-1.95 1.32-1.95l0.14 0.22c-0.55 0-0.74 0.48-0.74 1.15 0 0.49 0.11 1.08 0.24 1.69h2.17c-0.31-1.16-0.66-2.84-1.67-2.84l-0.14-0.22c1.99 0 2.9 3.39 2.9 4.92z"/></g>
 </g>
</svg>
