<?xml version="1.0" encoding="UTF-8"?>
<!-- Created with Inkscape (http://www.inkscape.org/) -->
<svg width="201.11" height="166.01" version="1.1" viewBox="0 0 201.11 166.01" xmlns="http://www.w3.org/2000/svg" xmlns:cc="http://creativecommons.org/ns#" xmlns:dc="http://purl.org/dc/elements/1.1/" xmlns:rdf="http://www.w3.org/1999/02/22-rdf-syntax-ns#">
 <style type="text/css">
  @import url('../estilo.css');
 </style>
 <metadata>
  <rdf:RDF>
   <cc:Work rdf:about="">
    <dc:format>image/svg+xml</dc:format>
    <dc:type rdf:resource="http://purl.org/dc/dcmitype/StillImage"/>
    <dc:title/>
   </cc:Work>
  </rdf:RDF>
 </metadata>
 <g transform="translate(-224.5 -387.01)">
  <g fill="none" stroke="#000">
   <g stroke-linejoin="round">
    <path d="m270 507.52a17.5 4.084 0 0 1 17.5-4.084 17.5 4.084 0 0 1 17.5 4.084" stroke-dasharray="1, 2"/>
    <path d="m345 457.52v90h-115v-90"/>
    <rect x="230" y="472.52" width="115" height="75"/>
   </g>
   <path d="m287.5 487.52v-90" stroke-width="1px"/>
  </g>
  <g>
   <text x="291.952" y="402.51965" fill="#000000" font-family="'STIX Two Text'" font-size="16px" letter-spacing="0px" word-spacing="0px" style="font-feature-settings:normal;font-variant-caps:normal;font-variant-ligatures:normal;font-variant-numeric:normal;line-height:1.25" xml:space="preserve"><tspan x="291.952" y="402.51965">Pt</tspan></text>
   <rect transform="matrix(.86603 -.5 0 1 0 0)" x="323.32" y="653.51" width="17.321" height="15" fill="#808080" stroke="#000" stroke-linejoin="round" stroke-width="1.0746"/>
   <text x="315.00967" y="502.81506" fill="#000000" font-family="'STIX Two Text'" font-size="16px" letter-spacing="0px" word-spacing="0px" style="font-feature-settings:normal;font-variant-caps:normal;font-variant-ligatures:normal;font-variant-numeric:normal;line-height:1.25" xml:space="preserve"><tspan x="315.00967" y="517.00708"/></text>
   <text x="263.43689" y="539.51971" fill="#000000" font-family="'STIX Two Text'" font-size="16px" letter-spacing="0px" word-spacing="0px" style="font-feature-settings:normal;font-variant-caps:normal;font-variant-ligatures:normal;font-variant-numeric:normal;line-height:1.25" xml:space="preserve"><tspan x="263.43689" y="539.51971">[H<tspan dy="-5" font-size="65%">+</tspan><tspan dy="5">] = 1 M</tspan></tspan></text>
  </g>
  <g fill="none" stroke="#000">
   <path d="m305 507.52v-20c0-2.77-2.23-5.0996-4.7587-5.3301s-4.2413-2.2427-4.2413-4.6699v-45h19m-36-1.4e-4v45c0 2.4272-1.7126 4.4394-4.2413 4.6699s-4.7587 2.5601-4.7587 5.3301v20" stroke-linejoin="round"/>
   <path d="m279 432.52v-5c0-4.7904 3.8056-8.6739 8.5-8.6739s8.5 3.8834 8.5 8.6739l19 2e-5" stroke-width="1px"/>
   <path d="m305 507.52a17.5 4.084 0 0 1-8.75 3.5368 17.5 4.084 0 0 1-17.5-1e-5 17.5 4.084 0 0 1-8.75-3.5368" stroke-linejoin="round"/>
  </g>
  <g transform="translate(-27 -112.51)">
   <path d="m348 542.02v1h22v-1z" color="#000000" color-rendering="auto" dominant-baseline="auto" image-rendering="auto" shape-rendering="auto" solid-color="#000000" style="font-feature-settings:normal;font-variant-alternates:normal;font-variant-caps:normal;font-variant-ligatures:normal;font-variant-numeric:normal;font-variant-position:normal;isolation:auto;mix-blend-mode:normal;shape-padding:0;text-decoration-color:#000000;text-decoration-line:none;text-decoration-style:solid;text-indent:0;text-orientation:mixed;text-transform:none;white-space:normal"/>
   <path d="m351.56 544.94-6.5555-2.4106 6.5555-2.4106c-1.0473 1.4232-1.0413 3.3705 0 4.8213z" fill-rule="evenodd" stroke="#000" stroke-linejoin="round" stroke-width=".375"/>
  </g>
  <text x="345.42401" y="432.4537" fill="#000000" font-family="'STIX Two Text'" font-size="16px" letter-spacing="0px" word-spacing="0px" style="font-feature-settings:normal;font-variant-caps:normal;font-variant-ligatures:normal;font-variant-numeric:normal;line-height:1.25" xml:space="preserve"><tspan x="345.42401" y="432.4537">H<tspan dy="5" font-size="65%">2(g)</tspan><tspan dy="-5">, 1 atm</tspan></tspan></text>
  <g fill="none" stroke="#000" stroke-linejoin="round">
   <circle cx="259" cy="482.52" r="2"/>
   <circle cx="312.5" cy="491.02" r="2"/>
   <circle cx="303.34" cy="517.83" r="2"/>
   <circle cx="266" cy="514.52" r="2"/>
   <circle cx="264" cy="496.52" r="2"/>
   <circle cx="315.5" cy="503.52" r="2"/>
   <circle cx="300.5" cy="501.52" r="2"/>
   <circle cx="275" cy="487.52" r="2"/>
   <circle cx="279" cy="519.02" r="2"/>
   <circle cx="308" cy="477.02" r="2"/>
   <circle cx="317" cy="479.52" r="2"/>
   <circle cx="266" cy="478.02" r="2"/>
   <circle cx="257.5" cy="506.02" r="2"/>
   <circle cx="311" cy="512.02" r="2"/>
   <circle cx="292.5" cy="517.02" r="2"/>
   <circle cx="291.5" cy="477.02" r="2"/>
   <circle cx="291.5" cy="507.02" r="2"/>
   <circle cx="275.5" cy="498.02" r="2"/>
   <circle cx="300.5" cy="490.02" r="2"/>
  </g>
 </g>
</svg>
