<?xml version="1.0" encoding="UTF-8"?>
<!-- Created with Inkscape (http://www.inkscape.org/) -->
<svg width="126" height="135.5" version="1.1" viewBox="0 0 126 135.5" xmlns="http://www.w3.org/2000/svg" xmlns:cc="http://creativecommons.org/ns#" xmlns:dc="http://purl.org/dc/elements/1.1/" xmlns:rdf="http://www.w3.org/1999/02/22-rdf-syntax-ns#">
 <style type="text/css">
  @import url('../estilo.css');
 </style>
 <defs>
  <marker id="Arrow2Mend" overflow="visible" orient="auto">
   <path transform="scale(.6) rotate(180) translate(0)" d="m8.7186 4.0337-10.926-4.0177 10.926-4.0177c-1.7455 2.3721-1.7354 5.6175-6e-7 8.0354z" fill-rule="evenodd" stroke="#000" stroke-linejoin="round" stroke-width=".625"/>
  </marker>
 </defs>
 <metadata>
  <rdf:RDF>
   <cc:Work rdf:about="">
    <dc:format>image/svg+xml</dc:format>
    <dc:type rdf:resource="http://purl.org/dc/dcmitype/StillImage"/>
    <dc:title/>
   </cc:Work>
  </rdf:RDF>
 </metadata>
 <g transform="translate(-224.5 -417.52)">
  <path d="m345 457.52v90h-115v-90" fill="none" stroke="#000" stroke-linejoin="round"/>
  <rect x="230" y="472.52" width="115" height="75" fill="none" stroke="#000" stroke-linejoin="round"/>
  <text x="235.45599" y="537.34369" fill="#000000" font-family="'STIX Two Text'" font-size="16px" letter-spacing="0px" word-spacing="0px" style="font-feature-settings:normal;font-variant-caps:normal;font-variant-ligatures:normal;font-variant-numeric:normal;line-height:1.25" xml:space="preserve"><tspan x="235.45599" y="537.34369">KCl</tspan></text>
  <g fill="none" stroke="#000">
   <g stroke-linejoin="round">
    <ellipse cx="287.5" cy="483.52" rx="5" ry="1"/>
    <ellipse cx="287.5" cy="485.52" rx="5" ry="1"/>
    <ellipse cx="287.5" cy="487.52" rx="5" ry="1"/>
    <ellipse cx="287.5" cy="489.52" rx="5" ry="1"/>
    <ellipse cx="287.5" cy="491.52" rx="5" ry="1"/>
    <ellipse cx="287.5" cy="493.52" rx="5" ry="1"/>
    <ellipse cx="287.5" cy="495.52" rx="5" ry="1"/>
    <ellipse cx="287.5" cy="497.52" rx="5" ry="1"/>
   </g>
   <path d="m287.5 482.52v-30" stroke-width="1px"/>
   <path d="m287.5 452.52v-30" stroke-width="1px"/>
  </g>
  <circle cx="287.5" cy="452.52" r="2" stroke="#000" stroke-linejoin="round"/>
  <g fill="#000000" font-family="'STIX Two Text'" font-size="16px" letter-spacing="0px" word-spacing="0px">
   <text x="291.952" y="442.82367" style="font-feature-settings:normal;font-variant-caps:normal;font-variant-ligatures:normal;font-variant-numeric:normal;line-height:1.25" xml:space="preserve"><tspan x="291.952" y="442.82367">Cu รณ Pt</tspan></text>
   <text x="291.952" y="466.51968" style="font-feature-settings:normal;font-variant-caps:normal;font-variant-ligatures:normal;font-variant-numeric:normal;line-height:1.25" xml:space="preserve"><tspan x="291.952" y="466.51968">Ag</tspan></text>
   <text x="296" y="514.51965" style="font-feature-settings:normal;font-variant-caps:normal;font-variant-ligatures:normal;font-variant-numeric:normal;line-height:1.25" xml:space="preserve"><tspan x="296" y="514.51965">AgCl</tspan></text>
  </g>
  <path d="m308.75 501.27-11.75-8.75" fill="none" marker-end="url(#Arrow2Mend)" stroke="#000" stroke-width="1px"/>
 </g>
</svg>
