<?xml version="1.0" encoding="UTF-8" standalone="no"?>
<svg id="svg4527" xmlns:rdf="http://www.w3.org/1999/02/22-rdf-syntax-ns#" xmlns="http://www.w3.org/2000/svg" xmlns:ns0="http://www.iki.fi/pav/software/textext/" height="240" width="240" version="1.1" xmlns:cc="http://creativecommons.org/ns#" xmlns:xlink="http://www.w3.org/1999/xlink" viewBox="0 0 240 240" xmlns:dc="http://purl.org/dc/elements/1.1/">
 <style type="text/css">
	@import url('../estilo.css');
 </style>
 <defs>
  <circle id="gpPt5" stroke-width=".222" stroke="currentColor" cy="0" cx="0" r="1"/>
  <use id="gpPt6" xlink:href="#gpPt5" fill="currentColor"/>
 </defs>
 <metadata id="metadata4643">
  <rdf:RDF>
   <cc:Work rdf:about="">
    <dc:format>image/svg+xml</dc:format>
    <dc:type rdf:resource="http://purl.org/dc/dcmitype/StillImage"/>
    <dc:title>Gnuplot</dc:title>
   </cc:Work>
  </rdf:RDF>
 </metadata>
 <title id="title4529">Gnuplot</title>
 <desc id="desc4531">Produced by GNUPLOT 5.0 patchlevel 3</desc>
 <g id="gnuplot_canvas">
  <g fill="none">
   <rect id="rect4534" height="240" width="240" y="0" x="0"/>
   <g stroke="currentColor">
    <g id="g4568" color="black">
     <path id="path4570" stroke="#000" d="m24.8 22.4v190.3h190.2m0-190.3m-190.2 0"/>
    </g>
    <g id="g4572" color="black">
     <g id="g4574" font-size="16" transform="translate(13.1,28.5)" text-anchor="middle" stroke="none" font-family="Stix Two Text" fill="#000">
      <text id="text4576">
       <tspan id="tspan4578" font-family="Stix Two Text" font-style="italic">y</tspan>
      </text>
     </g>
    </g>
    <g id="g4580" color="black">
     <g id="g4582" font-size="16" transform="translate(215 227.7)" text-anchor="middle" stroke="none" font-family="Stix Two Text" fill="#000">
      <text id="text4584">
       <tspan id="tspan4586" font-family="Stix Two Text" font-style="italic">x</tspan>
      </text>
     </g>
    </g>
   </g>
  </g>
  <g id="gnuplot_plot_1">
   <title id="title4591">[b+1.:a-.5] y(x)</title>
   <g id="g4593" color="black" stroke="currentColor" fill="none">
    <path id="path4595" stroke="#9400d3" d="m64.4 38.3l1.4 7.1 1.3 6.7 1.4 6.1 1.4 5.6 1.3 5.3 1.4 4.9 1.4 4.6 1.3 4.3 1.4 4 1.3 3.8 1.4 3.5 1.4 3.4 1.3 3.1 1.4 3 1.3 2.9 1.4 2.7 1.4 2.6 1.3 2.4 1.4 2.3 1.3 2.2 1.4 2.2 1.4 2 1.3 1.9 1.4 1.9 1.3 1.8 1.4 1.7 1.4 1.6 1.3 1.6 1.4 1.5 1.4 1.5 1.3 1.4 1.4 1.3 1.3 1.3 1.4 1.3 1.4 1.2 1.3 1.2 1.4 1.1 1.3 1.1 1.4 1.1 1.4 1 1.3 1 1.4 1 1.3 0.9 1.4 0.9 1.4 0.9 1.3 0.9 1.4 0.8 1.3 0.8 1.4 0.8 1.4 0.8 1.3 0.7 1.4 0.7 1.4 0.7 1.3 0.7 1.4 0.7 1.3 0.7 1.4 0.6 1.4 0.6 1.3 0.6 1.4 0.6 1.3 0.6 1.4 0.6 1.4 0.5 1.3 0.6 1.4 0.5 1.3 0.5 1.4 0.5 1.4 0.5 1.3 0.5 1.4 0.4 1.3 0.5 1.4 0.5 1.4 0.4 1.3 0.4 1.4 0.5 1.4 0.4 1.3 0.4 1.4 0.4 1.3 0.4 1.4 0.4 1.4 0.3 1.3 0.4 1.4 0.4 1.3 0.3 1.4 0.4 1.4 0.3 1.3 0.4 1.4 0.3 1.3 0.3 1.4 0.3 1.4 0.3 1.3 0.4 1.4 0.3 1.3 0.3 1.4 0.2 1.4 0.3 1.3 0.3 1.4 0.3 1.4 0.3"/>
   </g>
  </g>
  <g stroke="currentColor" fill="none">
   <g id="g4603" color="black">
    <path id="path4605" stroke="#000" d="m24.8 22.4v190.3h190.2m0-190.3m-190.2 0"/>
    <g id="g4607" font-size="12" transform="translate(75.5,68.3)" stroke="none" font-family="Arial" fill="#000">
     <text id="text4609"/>
    </g>
   </g>
   <g id="g4611" color="black">
    <use id="use4613" color="black" xlink:href="#gpPt6" transform="translate(71 68.3) scale(2.25)"/>
   </g>
   <g id="g4615" color="black">
    <g id="g4617" font-size="12" transform="translate(121.8,147.3)" stroke="none" font-family="Arial" fill="#000">
     <text id="text4619"/>
    </g>
   </g>
   <g id="g4621" color="black">
    <use id="use4623" color="black" xlink:href="#gpPt6" transform="translate(117.3,147.3) scale(2.25)"/>
   </g>
   <g id="g4625" color="black">
    <g id="g4627" font-size="12" transform="translate(168 170.4)" stroke="none" font-family="Arial" fill="#000">
     <text id="text4629"/>
    </g>
   </g>
   <g id="g4631" color="black">
    <use id="use4633" color="black" xlink:href="#gpPt6" transform="translate(163.5,170.4) scale(2.25)"/>
   </g>
  </g>
 </g>
 <circle id="path5099" stroke-linejoin="round" stroke="#000" cy="58.704" cx="182.74" r="11.5" fill="none"/>
 <text id="text5095" style="word-spacing:0px;letter-spacing:0px" font-size="16px" line-height="125%" y="63.959999" x="177.784" font-family="&apos;STIX Two Text&apos;" xml:space="preserve" fill="#000000"><tspan id="tspan5097" y="63.959999" x="177.784">B</tspan></text>
 <g stroke-width="0" fill-rule="evenodd" stroke="#000" stroke-miterlimit="10.433">
  <g id="g5378" xml:space="preserve" ns0:pdfconverter="pstoedit" transform="matrix(1.75 0 0 -1.75 -183.32 1307.4)" ns0:text="$(x\&apos;_3,y\&apos;_3)$" ns0:version="0.7.2" ns0:inkscapeversion="0.91" ns0:preamble="/usr/share/inkscape/extensions/default_packages.tex" ns0:scale="1.4" ns0:texconverter="pdflatex"><path id="path5380" d="m151.65 713.86-0.07-0.05-0.06-0.04-0.07-0.04-0.06-0.04-0.06-0.04-0.05-0.04-0.06-0.04-0.05-0.04-0.05-0.03-0.05-0.04-0.05-0.04-0.04-0.03-0.05-0.04-0.04-0.03-0.08-0.07-0.08-0.07-0.07-0.06-0.08-0.07-0.06-0.08-0.07-0.07-0.07-0.07-0.07-0.08-0.07-0.09c-0.7-0.87-1.05-1.86-1.05-3.03 0-1.26 0.37-2.24 1.24-3.25 0.41-0.48 0.67-0.7 1.19-1.02l0.12 0.16c-0.8 0.63-1.08 0.97-1.35 1.72-0.24 0.67-0.35 1.43-0.35 2.42 0 1.05 0.13 1.87 0.4 2.48 0.28 0.62 0.58 0.98 1.3 1.56z"/><path id="path5382" d="m156.53 708.23-0.01-0.02-0.02-0.01-0.01-0.02-0.01-0.01-0.02-0.02-0.01-0.01-0.01-0.02-0.01-0.01-0.02-0.02-0.01-0.02-0.01-0.01-0.02-0.02v-0.01l-0.01-0.01-0.01-0.01v-0.01l-0.01-0.01-0.01-0.01-0.01-0.01-0.01-0.01c-0.23-0.3-0.35-0.4-0.46-0.4-0.14 0-0.23 0.13-0.3 0.41-0.02 0.08-0.03 0.14-0.04 0.17-0.25 1.01-0.36 1.46-0.36 1.61 0.44 0.77 0.8 1.21 0.97 1.21 0.06 0 0.14-0.03 0.24-0.08 0.12-0.07 0.19-0.09 0.27-0.09 0.21 0 0.35 0.15 0.35 0.36s-0.17 0.37-0.41 0.37c-0.44 0-0.81-0.36-1.5-1.43l-0.11 0.55c-0.14 0.68-0.25 0.88-0.52 0.88-0.22 0-0.56-0.09-1.17-0.29l-0.11-0.04 0.05-0.15c0.37 0.09 0.46 0.11 0.55 0.11 0.25 0 0.31-0.09 0.45-0.69l0.29-1.23-0.82-1.16c-0.2-0.3-0.39-0.48-0.5-0.48-0.06 0-0.16 0.03-0.26 0.09-0.13 0.07-0.24 0.1-0.32 0.1-0.19 0-0.34-0.15-0.34-0.35 0-0.26 0.2-0.42 0.5-0.42 0.31 0 0.42 0.09 0.92 0.7 0.27 0.32 0.48 0.59 0.9 1.17l0.3-1.2c0.13-0.51 0.26-0.67 0.58-0.67 0.38 0 0.63 0.24 1.21 1.14z"/><path id="path5384" d="m159.05 713.61v0.02 0.03 0.02l-0.01 0.02v0.02l-0.01 0.02-0.01 0.02-0.01 0.02-0.01 0.02-0.01 0.01-0.01 0.02-0.02 0.02-0.01 0.01-0.02 0.02-0.01 0.01-0.02 0.02-0.02 0.01-0.01 0.01-0.02 0.02-0.02 0.01-0.02 0.01-0.02 0.01-0.02 0.01h-0.02l-0.02 0.01-0.02 0.01h-0.02l-0.03 0.01h-0.02-0.02-0.02-0.02c-0.26 0-0.38-0.25-0.45-0.46l-0.73-2.11c-0.02-0.06-0.07-0.18-0.07-0.24 0-0.07 0.04-0.15 0.11-0.15 0.11 0 0.23 0.15 0.27 0.22l1.15 1.81c0.1 0.14 0.19 0.34 0.19 0.52z"/><path id="path5386" d="m158.02 706.15h0.04 0.03 0.04 0.03l0.04-0.01h0.03 0.03 0.03 0.02 0.03 0.03 0.02 0.02 0.03l0.02-0.01h0.02 0.02 0.02l0.02-0.01h0.02 0.02 0.02l0.03-0.01 0.03-0.01 0.04-0.01 0.03-0.01 0.03-0.01c0.43-0.15 0.7-0.55 0.7-1.03 0-0.59-0.39-1.04-0.91-1.04-0.19 0-0.33 0.05-0.59 0.22-0.21 0.12-0.32 0.17-0.44 0.17-0.16 0-0.27-0.1-0.27-0.24 0-0.25 0.3-0.4 0.79-0.4 0.54 0 1.09 0.18 1.42 0.47 0.32 0.28 0.5 0.69 0.5 1.15 0 0.36-0.11 0.69-0.31 0.9-0.14 0.15-0.27 0.24-0.58 0.37 0.48 0.33 0.66 0.59 0.66 0.96 0 0.57-0.45 0.96-1.09 0.96-0.35 0-0.65-0.12-0.91-0.34-0.21-0.19-0.31-0.37-0.46-0.79l0.1-0.03c0.29 0.51 0.6 0.74 1.04 0.74 0.45 0 0.77-0.31 0.77-0.74 0-0.26-0.11-0.51-0.28-0.68-0.21-0.21-0.41-0.32-0.88-0.48z"/><path id="path5388" d="m162.88 707.18v0.04 0.04l-0.01 0.03v0.04 0.03l-0.01 0.04v0.03l-0.01 0.03v0.03l-0.01 0.03-0.01 0.03-0.01 0.03-0.01 0.02-0.01 0.03-0.01 0.03-0.01 0.02-0.01 0.02-0.01 0.03-0.02 0.04-0.03 0.04-0.03 0.04-0.03 0.03-0.03 0.03-0.03 0.03-0.03 0.03-0.03 0.02-0.04 0.03-0.03 0.02-0.03 0.01-0.04 0.02-0.03 0.01-0.03 0.02-0.04 0.01h-0.03l-0.03 0.01-0.03 0.01h-0.03l-0.03 0.01h-0.02-0.03-0.02c-0.25 0-0.58-0.15-0.58-0.58 0-0.4 0.36-0.5 0.62-0.5 0.07 0 0.12 0.01 0.15 0.02 0.04 0.01 0.07 0.02 0.09 0.02 0.07 0 0.14-0.05 0.14-0.14 0-0.19-0.16-0.63-0.82-1.05l0.09-0.19c0.3 0.1 1.12 0.75 1.12 1.46z"/><path id="path5390" d="m165.24 711.11h0.01 0.01l0.01 0.01h0.02 0.01 0.01 0.01l0.01 0.01h0.02 0.02l0.01 0.01h0.02 0.02 0.02 0.01 0.02l0.02 0.01h0.02 0.02 0.01 0.01c0.57 0 0.72-0.25 1.17-1.97 0.17-0.64 0.41-1.81 0.41-1.98 0-0.16-0.06-0.32-0.21-0.5-0.31-0.4-0.51-0.66-0.62-0.78-0.2-0.22-0.32-0.3-0.45-0.3-0.06 0-0.13 0.03-0.24 0.11-0.15 0.12-0.26 0.17-0.37 0.17-0.22 0-0.39-0.17-0.39-0.39 0-0.25 0.22-0.44 0.51-0.44 0.64 0 1.94 1.5 3.02 3.47 0.67 1.22 0.95 1.94 0.95 2.43 0 0.3-0.24 0.55-0.54 0.55-0.23 0-0.39-0.15-0.39-0.37 0-0.15 0.08-0.26 0.28-0.39 0.19-0.11 0.26-0.2 0.26-0.34 0-0.4-0.37-1.18-1.22-2.58l-0.2 1.15c-0.15 0.88-0.71 2.53-0.86 2.53h-0.04c-0.01-0.01-0.05-0.01-0.08-0.01-0.09-0.01-0.45-0.07-0.98-0.17-0.05-0.01-0.18-0.04-0.32-0.06z"/><path id="path5392" d="m171.58 713.61v0.02 0.03l-0.01 0.02v0.02l-0.01 0.02-0.01 0.02v0.02l-0.01 0.02-0.01 0.02-0.02 0.01-0.01 0.02-0.01 0.02-0.02 0.01-0.01 0.02-0.02 0.01-0.01 0.02-0.02 0.01-0.02 0.01-0.02 0.02-0.02 0.01-0.02 0.01-0.02 0.01-0.02 0.01h-0.02l-0.02 0.01-0.02 0.01h-0.02l-0.02 0.01h-0.02-0.02-0.02-0.03c-0.25 0-0.38-0.25-0.45-0.46l-0.72-2.11c-0.03-0.06-0.07-0.18-0.07-0.24 0-0.07 0.04-0.15 0.11-0.15 0.1 0 0.22 0.15 0.27 0.22l1.14 1.81c0.1 0.14 0.2 0.34 0.2 0.52z"/><path id="path5394" d="m170.57 706.15h0.04 0.04 0.03 0.04l0.03-0.01h0.03 0.03 0.03 0.03 0.02 0.03 0.02 0.03 0.02l0.02-0.01h0.03 0.02 0.02l0.02-0.01h0.01 0.02 0.02l0.04-0.01 0.03-0.01 0.03-0.01 0.03-0.01 0.03-0.01c0.44-0.15 0.71-0.55 0.71-1.03 0-0.59-0.4-1.04-0.92-1.04-0.18 0-0.32 0.05-0.58 0.22-0.21 0.12-0.33 0.17-0.45 0.17-0.16 0-0.26-0.1-0.26-0.24 0-0.25 0.3-0.4 0.79-0.4 0.53 0 1.08 0.18 1.41 0.47 0.33 0.28 0.51 0.69 0.51 1.15 0 0.36-0.11 0.69-0.31 0.9-0.14 0.15-0.28 0.24-0.58 0.37 0.48 0.33 0.65 0.59 0.65 0.96 0 0.57-0.44 0.96-1.08 0.96-0.35 0-0.66-0.12-0.91-0.34-0.21-0.19-0.31-0.37-0.47-0.79l0.11-0.03c0.28 0.51 0.6 0.74 1.03 0.74 0.46 0 0.77-0.31 0.77-0.74 0-0.26-0.1-0.51-0.28-0.68-0.21-0.21-0.4-0.32-0.88-0.48z"/><path id="path5396" d="m173.88 705.36 0.06 0.04 0.07 0.05 0.06 0.04 0.06 0.04 0.06 0.04 0.06 0.04 0.05 0.04 0.05 0.03 0.06 0.04 0.04 0.04 0.05 0.03 0.05 0.04 0.04 0.03 0.04 0.04 0.09 0.06 0.07 0.07 0.08 0.07 0.07 0.07 0.07 0.07 0.07 0.08 0.06 0.07 0.07 0.08 0.07 0.08c0.71 0.87 1.06 1.87 1.06 3.03 0 1.28-0.37 2.25-1.25 3.26-0.41 0.48-0.67 0.7-1.18 1.02l-0.12-0.16c0.79-0.63 1.06-0.98 1.34-1.73 0.24-0.66 0.35-1.42 0.35-2.42 0-1.03-0.13-1.86-0.4-2.47-0.28-0.62-0.58-0.98-1.29-1.56z"/></g>
  <g id="content" xml:space="preserve" ns0:pdfconverter="pstoedit" transform="matrix(1.75 0 0 -1.75 -95.08 1400.6)" ns0:text="$(x\&apos;_1,y\&apos;_1)$" ns0:version="0.7.2" ns0:inkscapeversion="0.91" ns0:preamble="/usr/share/inkscape/extensions/default_packages.tex" ns0:scale="1.4" ns0:texconverter="pdflatex"><path id="path5585" d="m151.65 713.86-0.07-0.05-0.06-0.04-0.07-0.04-0.06-0.04-0.06-0.04-0.05-0.04-0.06-0.04-0.05-0.04-0.05-0.03-0.05-0.04-0.05-0.04-0.04-0.03-0.05-0.04-0.04-0.03-0.08-0.07-0.08-0.07-0.07-0.06-0.08-0.07-0.06-0.08-0.07-0.07-0.07-0.07-0.07-0.08-0.07-0.09c-0.7-0.87-1.05-1.86-1.05-3.03 0-1.26 0.37-2.24 1.24-3.25 0.41-0.48 0.67-0.7 1.19-1.02l0.12 0.16c-0.8 0.63-1.08 0.97-1.35 1.72-0.24 0.67-0.35 1.43-0.35 2.42 0 1.05 0.13 1.87 0.4 2.48 0.28 0.62 0.58 0.98 1.3 1.56z"/><path id="path5587" d="m156.53 708.23-0.01-0.02-0.02-0.01-0.01-0.02-0.01-0.01-0.02-0.02-0.01-0.01-0.01-0.02-0.01-0.01-0.02-0.02-0.01-0.02-0.01-0.01-0.02-0.02v-0.01l-0.01-0.01-0.01-0.01v-0.01l-0.01-0.01-0.01-0.01-0.01-0.01-0.01-0.01c-0.23-0.3-0.35-0.4-0.46-0.4-0.14 0-0.23 0.13-0.3 0.41-0.02 0.08-0.03 0.14-0.04 0.17-0.25 1.01-0.36 1.46-0.36 1.61 0.44 0.77 0.8 1.21 0.97 1.21 0.06 0 0.14-0.03 0.24-0.08 0.12-0.07 0.19-0.09 0.27-0.09 0.21 0 0.35 0.15 0.35 0.36s-0.17 0.37-0.41 0.37c-0.44 0-0.81-0.36-1.5-1.43l-0.11 0.55c-0.14 0.68-0.25 0.88-0.52 0.88-0.22 0-0.56-0.09-1.17-0.29l-0.11-0.04 0.05-0.15c0.37 0.09 0.46 0.11 0.55 0.11 0.25 0 0.31-0.09 0.45-0.69l0.29-1.23-0.82-1.16c-0.2-0.3-0.39-0.48-0.5-0.48-0.06 0-0.16 0.03-0.26 0.09-0.13 0.07-0.24 0.1-0.32 0.1-0.19 0-0.34-0.15-0.34-0.35 0-0.26 0.2-0.42 0.5-0.42 0.31 0 0.42 0.09 0.92 0.7 0.27 0.32 0.48 0.59 0.9 1.17l0.3-1.2c0.13-0.51 0.26-0.67 0.58-0.67 0.38 0 0.63 0.24 1.21 1.14z"/><path id="path5589" d="m159.05 713.61v0.02 0.03 0.02l-0.01 0.02v0.02l-0.01 0.02-0.01 0.02-0.01 0.02-0.01 0.02-0.01 0.01-0.01 0.02-0.02 0.02-0.01 0.01-0.02 0.02-0.01 0.01-0.02 0.02-0.02 0.01-0.01 0.01-0.02 0.02-0.02 0.01-0.02 0.01-0.02 0.01-0.02 0.01h-0.02l-0.02 0.01-0.02 0.01h-0.02l-0.03 0.01h-0.02-0.02-0.02-0.02c-0.26 0-0.38-0.25-0.45-0.46l-0.73-2.11c-0.02-0.06-0.07-0.18-0.07-0.24 0-0.07 0.04-0.15 0.11-0.15 0.11 0 0.23 0.15 0.27 0.22l1.15 1.81c0.1 0.14 0.19 0.34 0.19 0.52z"/><path id="path5591" d="m158.98 708.56-1.25-0.64v-0.09c0.08 0.03 0.16 0.06 0.18 0.07 0.13 0.05 0.25 0.08 0.32 0.08 0.15 0 0.21-0.1 0.21-0.33v-3.16c0-0.23-0.06-0.39-0.17-0.45-0.1-0.06-0.2-0.08-0.5-0.09v-0.11h1.93v0.11c-0.55 0.01-0.66 0.08-0.66 0.41v4.18z"/><path id="path5593" d="m162.88 707.18v0.04 0.04l-0.01 0.03v0.04 0.03l-0.01 0.04v0.03l-0.01 0.03v0.03l-0.01 0.03-0.01 0.03-0.01 0.03-0.01 0.02-0.01 0.03-0.01 0.03-0.01 0.02-0.01 0.02-0.01 0.03-0.02 0.04-0.03 0.04-0.03 0.04-0.03 0.03-0.03 0.03-0.03 0.03-0.03 0.03-0.03 0.02-0.04 0.03-0.03 0.02-0.03 0.01-0.04 0.02-0.03 0.01-0.03 0.02-0.04 0.01h-0.03l-0.03 0.01-0.03 0.01h-0.03l-0.03 0.01h-0.02-0.03-0.02c-0.25 0-0.58-0.15-0.58-0.58 0-0.4 0.36-0.5 0.62-0.5 0.07 0 0.12 0.01 0.15 0.02 0.04 0.01 0.07 0.02 0.09 0.02 0.07 0 0.14-0.05 0.14-0.14 0-0.19-0.16-0.63-0.82-1.05l0.09-0.19c0.3 0.1 1.12 0.75 1.12 1.46z"/><path id="path5595" d="m165.24 711.11h0.01 0.01l0.01 0.01h0.02 0.01 0.01 0.01l0.01 0.01h0.02 0.02l0.01 0.01h0.02 0.02 0.02 0.01 0.02l0.02 0.01h0.02 0.02 0.01 0.01c0.57 0 0.72-0.25 1.17-1.97 0.17-0.64 0.41-1.81 0.41-1.98 0-0.16-0.06-0.32-0.21-0.5-0.31-0.4-0.51-0.66-0.62-0.78-0.2-0.22-0.32-0.3-0.45-0.3-0.06 0-0.13 0.03-0.24 0.11-0.15 0.12-0.26 0.17-0.37 0.17-0.22 0-0.39-0.17-0.39-0.39 0-0.25 0.22-0.44 0.51-0.44 0.64 0 1.94 1.5 3.02 3.47 0.67 1.22 0.95 1.94 0.95 2.43 0 0.3-0.24 0.55-0.54 0.55-0.23 0-0.39-0.15-0.39-0.37 0-0.15 0.08-0.26 0.28-0.39 0.19-0.11 0.26-0.2 0.26-0.34 0-0.4-0.37-1.18-1.22-2.58l-0.2 1.15c-0.15 0.88-0.71 2.53-0.86 2.53h-0.04c-0.01-0.01-0.05-0.01-0.08-0.01-0.09-0.01-0.45-0.07-0.98-0.17-0.05-0.01-0.18-0.04-0.32-0.06z"/><path id="path5597" d="m171.58 713.61v0.02 0.03l-0.01 0.02v0.02l-0.01 0.02-0.01 0.02v0.02l-0.01 0.02-0.01 0.02-0.02 0.01-0.01 0.02-0.01 0.02-0.02 0.01-0.01 0.02-0.02 0.01-0.01 0.02-0.02 0.01-0.02 0.01-0.02 0.02-0.02 0.01-0.02 0.01-0.02 0.01-0.02 0.01h-0.02l-0.02 0.01-0.02 0.01h-0.02l-0.02 0.01h-0.02-0.02-0.02-0.03c-0.25 0-0.38-0.25-0.45-0.46l-0.72-2.11c-0.03-0.06-0.07-0.18-0.07-0.24 0-0.07 0.04-0.15 0.11-0.15 0.1 0 0.22 0.15 0.27 0.22l1.14 1.81c0.1 0.14 0.2 0.34 0.2 0.52z"/><path id="path5599" d="m171.54 708.56-1.26-0.64v-0.09c0.09 0.03 0.16 0.06 0.19 0.07 0.13 0.05 0.24 0.08 0.31 0.08 0.15 0 0.21-0.1 0.21-0.33v-3.16c0-0.23-0.05-0.39-0.16-0.45s-0.21-0.08-0.5-0.09v-0.11h1.93v0.11c-0.56 0.01-0.67 0.08-0.67 0.41v4.18z"/><path id="path5601" d="m173.88 705.36 0.06 0.04 0.07 0.05 0.06 0.04 0.06 0.04 0.06 0.04 0.06 0.04 0.05 0.04 0.05 0.03 0.06 0.04 0.04 0.04 0.05 0.03 0.05 0.04 0.04 0.03 0.04 0.04 0.09 0.06 0.07 0.07 0.08 0.07 0.07 0.07 0.07 0.07 0.07 0.08 0.06 0.07 0.07 0.08 0.07 0.08c0.71 0.87 1.06 1.87 1.06 3.03 0 1.28-0.37 2.25-1.25 3.26-0.41 0.48-0.67 0.7-1.18 1.02l-0.12-0.16c0.79-0.63 1.06-0.98 1.34-1.73 0.24-0.66 0.35-1.42 0.35-2.42 0-1.03-0.13-1.86-0.4-2.47-0.28-0.62-0.58-0.98-1.29-1.56z"/></g>
  <g id="g5793" xml:space="preserve" ns0:pdfconverter="pstoedit" transform="matrix(1.75 0 0 -1.75 -194.93 1400.3)" ns0:text="$(x\&apos;_2,y\&apos;_2)$" ns0:version="0.7.2" ns0:inkscapeversion="0.91" ns0:preamble="/usr/share/inkscape/extensions/default_packages.tex" ns0:scale="1.4" ns0:texconverter="pdflatex"><path id="path5795" d="m151.65 713.86-0.07-0.05-0.06-0.04-0.07-0.04-0.06-0.04-0.06-0.04-0.05-0.04-0.06-0.04-0.05-0.04-0.05-0.03-0.05-0.04-0.05-0.04-0.04-0.03-0.05-0.04-0.04-0.03-0.08-0.07-0.08-0.07-0.07-0.06-0.08-0.07-0.06-0.08-0.07-0.07-0.07-0.07-0.07-0.08-0.07-0.09c-0.7-0.87-1.05-1.86-1.05-3.03 0-1.26 0.37-2.24 1.24-3.25 0.41-0.48 0.67-0.7 1.19-1.02l0.12 0.16c-0.8 0.63-1.08 0.97-1.35 1.72-0.24 0.67-0.35 1.43-0.35 2.42 0 1.05 0.13 1.87 0.4 2.48 0.28 0.62 0.58 0.98 1.3 1.56z"/><path id="path5797" d="m156.53 708.23-0.01-0.02-0.02-0.01-0.01-0.02-0.01-0.01-0.02-0.02-0.01-0.01-0.01-0.02-0.01-0.01-0.02-0.02-0.01-0.02-0.01-0.01-0.02-0.02v-0.01l-0.01-0.01-0.01-0.01v-0.01l-0.01-0.01-0.01-0.01-0.01-0.01-0.01-0.01c-0.23-0.3-0.35-0.4-0.46-0.4-0.14 0-0.23 0.13-0.3 0.41-0.02 0.08-0.03 0.14-0.04 0.17-0.25 1.01-0.36 1.46-0.36 1.61 0.44 0.77 0.8 1.21 0.97 1.21 0.06 0 0.14-0.03 0.24-0.08 0.12-0.07 0.19-0.09 0.27-0.09 0.21 0 0.35 0.15 0.35 0.36s-0.17 0.37-0.41 0.37c-0.44 0-0.81-0.36-1.5-1.43l-0.11 0.55c-0.14 0.68-0.25 0.88-0.52 0.88-0.22 0-0.56-0.09-1.17-0.29l-0.11-0.04 0.05-0.15c0.37 0.09 0.46 0.11 0.55 0.11 0.25 0 0.31-0.09 0.45-0.69l0.29-1.23-0.82-1.16c-0.2-0.3-0.39-0.48-0.5-0.48-0.06 0-0.16 0.03-0.26 0.09-0.13 0.07-0.24 0.1-0.32 0.1-0.19 0-0.34-0.15-0.34-0.35 0-0.26 0.2-0.42 0.5-0.42 0.31 0 0.42 0.09 0.92 0.7 0.27 0.32 0.48 0.59 0.9 1.17l0.3-1.2c0.13-0.51 0.26-0.67 0.58-0.67 0.38 0 0.63 0.24 1.21 1.14z"/><path id="path5799" d="m159.05 713.61v0.02 0.03 0.02l-0.01 0.02v0.02l-0.01 0.02-0.01 0.02-0.01 0.02-0.01 0.02-0.01 0.01-0.01 0.02-0.02 0.02-0.01 0.01-0.02 0.02-0.01 0.01-0.02 0.02-0.02 0.01-0.01 0.01-0.02 0.02-0.02 0.01-0.02 0.01-0.02 0.01-0.02 0.01h-0.02l-0.02 0.01-0.02 0.01h-0.02l-0.03 0.01h-0.02-0.02-0.02-0.02c-0.26 0-0.38-0.25-0.45-0.46l-0.73-2.11c-0.02-0.06-0.07-0.18-0.07-0.24 0-0.07 0.04-0.15 0.11-0.15 0.11 0 0.23 0.15 0.27 0.22l1.15 1.81c0.1 0.14 0.19 0.34 0.19 0.52z"/><path id="path5801" d="m160.26 704.8-0.09 0.04c-0.25-0.4-0.34-0.46-0.66-0.46h-1.66l1.17 1.22c0.62 0.65 0.89 1.18 0.89 1.73 0 0.69-0.56 1.23-1.29 1.23-0.38 0-0.75-0.15-1-0.43-0.23-0.24-0.33-0.46-0.45-0.96l0.15-0.03c0.27 0.68 0.53 0.9 1.01 0.9 0.58 0 0.98-0.39 0.98-0.98 0-0.54-0.32-1.19-0.91-1.81l-1.24-1.32v-0.09h2.72z"/><path id="path5803" d="m162.88 707.18v0.04 0.04l-0.01 0.03v0.04 0.03l-0.01 0.04v0.03l-0.01 0.03v0.03l-0.01 0.03-0.01 0.03-0.01 0.03-0.01 0.02-0.01 0.03-0.01 0.03-0.01 0.02-0.01 0.02-0.01 0.03-0.02 0.04-0.03 0.04-0.03 0.04-0.03 0.03-0.03 0.03-0.03 0.03-0.03 0.03-0.03 0.02-0.04 0.03-0.03 0.02-0.03 0.01-0.04 0.02-0.03 0.01-0.03 0.02-0.04 0.01h-0.03l-0.03 0.01-0.03 0.01h-0.03l-0.03 0.01h-0.02-0.03-0.02c-0.25 0-0.58-0.15-0.58-0.58 0-0.4 0.36-0.5 0.62-0.5 0.07 0 0.12 0.01 0.15 0.02 0.04 0.01 0.07 0.02 0.09 0.02 0.07 0 0.14-0.05 0.14-0.14 0-0.19-0.16-0.63-0.82-1.05l0.09-0.19c0.3 0.1 1.12 0.75 1.12 1.46z"/><path id="path5805" d="m165.24 711.11h0.01 0.01l0.01 0.01h0.02 0.01 0.01 0.01l0.01 0.01h0.02 0.02l0.01 0.01h0.02 0.02 0.02 0.01 0.02l0.02 0.01h0.02 0.02 0.01 0.01c0.57 0 0.72-0.25 1.17-1.97 0.17-0.64 0.41-1.81 0.41-1.98 0-0.16-0.06-0.32-0.21-0.5-0.31-0.4-0.51-0.66-0.62-0.78-0.2-0.22-0.32-0.3-0.45-0.3-0.06 0-0.13 0.03-0.24 0.11-0.15 0.12-0.26 0.17-0.37 0.17-0.22 0-0.39-0.17-0.39-0.39 0-0.25 0.22-0.44 0.51-0.44 0.64 0 1.94 1.5 3.02 3.47 0.67 1.22 0.95 1.94 0.95 2.43 0 0.3-0.24 0.55-0.54 0.55-0.23 0-0.39-0.15-0.39-0.37 0-0.15 0.08-0.26 0.28-0.39 0.19-0.11 0.26-0.2 0.26-0.34 0-0.4-0.37-1.18-1.22-2.58l-0.2 1.15c-0.15 0.88-0.71 2.53-0.86 2.53h-0.04c-0.01-0.01-0.05-0.01-0.08-0.01-0.09-0.01-0.45-0.07-0.98-0.17-0.05-0.01-0.18-0.04-0.32-0.06z"/><path id="path5807" d="m171.58 713.61v0.02 0.03l-0.01 0.02v0.02l-0.01 0.02-0.01 0.02v0.02l-0.01 0.02-0.01 0.02-0.02 0.01-0.01 0.02-0.01 0.02-0.02 0.01-0.01 0.02-0.02 0.01-0.01 0.02-0.02 0.01-0.02 0.01-0.02 0.02-0.02 0.01-0.02 0.01-0.02 0.01-0.02 0.01h-0.02l-0.02 0.01-0.02 0.01h-0.02l-0.02 0.01h-0.02-0.02-0.02-0.03c-0.25 0-0.38-0.25-0.45-0.46l-0.72-2.11c-0.03-0.06-0.07-0.18-0.07-0.24 0-0.07 0.04-0.15 0.11-0.15 0.1 0 0.22 0.15 0.27 0.22l1.14 1.81c0.1 0.14 0.2 0.34 0.2 0.52z"/><path id="path5809" d="m172.82 704.8-0.09 0.04c-0.26-0.4-0.35-0.46-0.66-0.46h-1.67l1.17 1.22c0.62 0.65 0.89 1.18 0.89 1.73 0 0.69-0.56 1.23-1.29 1.23-0.38 0-0.74-0.15-1-0.43-0.22-0.24-0.33-0.46-0.45-0.96l0.15-0.03c0.28 0.68 0.53 0.9 1.01 0.9 0.59 0 0.99-0.39 0.99-0.98 0-0.54-0.33-1.19-0.91-1.81l-1.24-1.32v-0.09h2.72z"/><path id="path5811" d="m173.88 705.36 0.06 0.04 0.07 0.05 0.06 0.04 0.06 0.04 0.06 0.04 0.06 0.04 0.05 0.04 0.05 0.03 0.06 0.04 0.04 0.04 0.05 0.03 0.05 0.04 0.04 0.03 0.04 0.04 0.09 0.06 0.07 0.07 0.08 0.07 0.07 0.07 0.07 0.07 0.07 0.08 0.06 0.07 0.07 0.08 0.07 0.08c0.71 0.87 1.06 1.87 1.06 3.03 0 1.28-0.37 2.25-1.25 3.26-0.41 0.48-0.67 0.7-1.18 1.02l-0.12-0.16c0.79-0.63 1.06-0.98 1.34-1.73 0.24-0.66 0.35-1.42 0.35-2.42 0-1.03-0.13-1.86-0.4-2.47-0.28-0.62-0.58-0.98-1.29-1.56z"/></g>
 </g>
</svg>
