<?xml version="1.0" encoding="UTF-8" standalone="no"?>
<svg id="svg4431" xmlns:rdf="http://www.w3.org/1999/02/22-rdf-syntax-ns#" xmlns="http://www.w3.org/2000/svg" xmlns:ns0="http://www.iki.fi/pav/software/textext/" height="240" width="240" version="1.1" xmlns:cc="http://creativecommons.org/ns#" xmlns:xlink="http://www.w3.org/1999/xlink" viewBox="0 0 240 240" xmlns:dc="http://purl.org/dc/elements/1.1/">
 <style type="text/css">
	 @import url('../estilo.css');
 </style>
 <defs>
  <circle id="gpPt5" stroke-width=".222" stroke="currentColor" cy="0" cx="0" r="1"/>
  <use id="gpPt6" xlink:href="#gpPt5" fill="currentColor"/>
 </defs>
 <metadata id="metadata4547">
  <rdf:RDF>
   <cc:Work rdf:about="">
    <dc:format>image/svg+xml</dc:format>
    <dc:type rdf:resource="http://purl.org/dc/dcmitype/StillImage"/>
    <dc:title>Gnuplot</dc:title>
   </cc:Work>
  </rdf:RDF>
 </metadata>
 <title id="title4433">Gnuplot</title>
 <desc id="desc4435">Produced by GNUPLOT 5.0 patchlevel 3</desc>
 <g id="gnuplot_canvas">
  <g fill="none">
   <rect id="rect4438" height="240" width="240" y="0" x="0"/>
   <g stroke="currentColor">
    <g id="g4472" color="black">
     <path id="path4474" stroke="#000" d="m24.8 22.4v190.3h190.2m0-190.3m-190.2 0"/>
    </g>
    <g id="g4476" color="black">
     <g id="g4478" font-size="16" transform="translate(13.1,28.5)" text-anchor="middle" stroke="none" font-family="Stix Two Text" fill="#000">
      <text id="text4480">
       <tspan id="tspan4482" font-family="Stix Two Text" font-style="italic">y</tspan>
      </text>
     </g>
    </g>
    <g id="g4484" color="black">
     <g id="g4486" font-size="16" transform="translate(215 227.7)" text-anchor="middle" stroke="none" font-family="Stix Two Text" fill="#000">
      <text id="text4488">
       <tspan id="tspan4490" font-family="Stix Two Text" font-style="italic">x</tspan>
      </text>
     </g>
    </g>
   </g>
  </g>
  <g id="gnuplot_plot_1">
   <title id="title4495">[1.:a-.5] y(x)</title>
   <g id="g4497" color="black" stroke="currentColor" fill="none">
    <path id="path4499" stroke="#9400d3" d="m56.5 38.3l1.4 7.5 1.5 7 1.4 6.4 1.5 5.9 1.4 5.5 1.4 5 1.5 4.8 1.4 4.4 1.5 4.1 1.4 3.9 1.5 3.6 1.4 3.4 1.4 3.3 1.5 3 1.4 2.9 1.5 2.7 1.4 2.6 1.4 2.5 1.5 2.3 1.4 2.2 1.5 2.2 1.4 2 1.4 1.9 1.5 1.9 1.4 1.7 1.5 1.7 1.4 1.7 1.4 1.5 1.5 1.6 1.4 1.4 1.5 1.4 1.4 1.3 1.5 1.3 1.4 1.3 1.4 1.2 1.5 1.1 1.4 1.2 1.5 1 1.4 1.1 1.4 1 1.5 1 1.4 0.9 1.5 1 1.4 0.9 1.4 0.8 1.5 0.9 1.4 0.8 1.5 0.8 1.4 0.7 1.4 0.8 1.5 0.7 1.4 0.7 1.5 0.7 1.4 0.7 1.5 0.7 1.4 0.6 1.4 0.6 1.5 0.6 1.4 0.6 1.5 0.6 1.4 0.6 1.4 0.5 1.5 0.6 1.4 0.5 1.5 0.5 1.4 0.5 1.4 0.5 1.5 0.5 1.4 0.4 1.5 0.5 1.4 0.4 1.4 0.5 1.5 0.4 1.4 0.4 1.5 0.4 1.4 0.4 1.5 0.4 1.4 0.4 1.4 0.4 1.5 0.4 1.4 0.3 1.5 0.4 1.4 0.4 1.4 0.3 1.5 0.3 1.4 0.4 1.5 0.3 1.4 0.3 1.4 0.3 1.5 0.3 1.4 0.3 1.5 0.3 1.4 0.3 1.4 0.3 1.5 0.3 1.4 0.3 1.5 0.3 1.4 0.2 1.5 0.3"/>
   </g>
  </g>
  <g stroke="currentColor" fill="none">
   <g id="g4507" color="black">
    <path id="path4509" stroke="#000" d="m24.8 22.4v190.3h190.2m0-190.3m-190.2 0"/>
    <g id="g4511" font-size="12" transform="translate(75.5,93.1)" stroke="none" font-family="Arial" fill="#000">
     <text id="text4513"/>
    </g>
   </g>
   <g id="g4515" color="black">
    <use id="use4517" color="black" xlink:href="#gpPt6" transform="translate(71 93.1) scale(2.25)"/>
   </g>
   <g id="g4519" color="black">
    <g id="g4521" font-size="12" transform="translate(121.8,152.9)" stroke="none" font-family="Arial" fill="#000">
     <text id="text4523"/>
    </g>
   </g>
   <g id="g4525" color="black">
    <use id="use4527" color="black" xlink:href="#gpPt6" transform="translate(117.3,152.9) scale(2.25)"/>
   </g>
   <g id="g4529" color="black">
    <g id="g4531" font-size="12" transform="translate(168 172.8)" stroke="none" font-family="Arial" fill="#000">
     <text id="text4533"/>
    </g>
   </g>
   <g id="g4535" color="black">
    <use id="use4537" color="black" xlink:href="#gpPt6" transform="translate(163.5,172.8) scale(2.25)"/>
   </g>
  </g>
 </g>
 <g stroke-width="0" fill-rule="evenodd" stroke="#000" stroke-miterlimit="10.433">
  <g id="content" xml:space="preserve" ns0:pdfconverter="pstoedit" transform="matrix(1.75 0 0 -1.75 -92.883 1404.1)" ns0:text="$(x_1,y_1)$" ns0:version="0.7.2" ns0:inkscapeversion="0.91" ns0:preamble="/usr/share/inkscape/extensions/default_packages.tex" ns0:scale="1.4" ns0:texconverter="pdflatex"><path id="path4619" d="m151.65 713.86-0.07-0.05-0.06-0.04-0.07-0.04-0.06-0.04-0.06-0.04-0.05-0.04-0.06-0.04-0.05-0.04-0.05-0.03-0.05-0.04-0.05-0.04-0.04-0.03-0.05-0.04-0.04-0.03-0.08-0.07-0.08-0.07-0.07-0.06-0.08-0.07-0.06-0.08-0.07-0.07-0.07-0.07-0.07-0.08-0.07-0.09c-0.7-0.87-1.05-1.86-1.05-3.03 0-1.26 0.37-2.24 1.24-3.25 0.41-0.48 0.67-0.7 1.19-1.02l0.12 0.16c-0.8 0.63-1.08 0.97-1.35 1.72-0.24 0.67-0.35 1.43-0.35 2.42 0 1.05 0.13 1.87 0.4 2.48 0.28 0.62 0.58 0.98 1.3 1.56z"/><path id="path4621" d="m156.53 708.23-0.01-0.02-0.02-0.01-0.01-0.02-0.01-0.01-0.02-0.02-0.01-0.01-0.01-0.02-0.01-0.01-0.02-0.02-0.01-0.02-0.01-0.01-0.02-0.02v-0.01l-0.01-0.01-0.01-0.01v-0.01l-0.01-0.01-0.01-0.01-0.01-0.01-0.01-0.01c-0.23-0.3-0.35-0.4-0.46-0.4-0.14 0-0.23 0.13-0.3 0.41-0.02 0.08-0.03 0.14-0.04 0.17-0.25 1.01-0.36 1.46-0.36 1.61 0.44 0.77 0.8 1.21 0.97 1.21 0.06 0 0.14-0.03 0.24-0.08 0.12-0.07 0.19-0.09 0.27-0.09 0.21 0 0.35 0.15 0.35 0.36s-0.17 0.37-0.41 0.37c-0.44 0-0.81-0.36-1.5-1.43l-0.11 0.55c-0.14 0.68-0.25 0.88-0.52 0.88-0.22 0-0.56-0.09-1.17-0.29l-0.11-0.04 0.05-0.15c0.37 0.09 0.46 0.11 0.55 0.11 0.25 0 0.31-0.09 0.45-0.69l0.29-1.23-0.82-1.16c-0.2-0.3-0.39-0.48-0.5-0.48-0.06 0-0.16 0.03-0.26 0.09-0.13 0.07-0.24 0.1-0.32 0.1-0.19 0-0.34-0.15-0.34-0.35 0-0.26 0.2-0.42 0.5-0.42 0.31 0 0.42 0.09 0.92 0.7 0.27 0.32 0.48 0.59 0.9 1.17l0.3-1.2c0.13-0.51 0.26-0.67 0.58-0.67 0.38 0 0.63 0.24 1.21 1.14z"/><path id="path4623" d="m158.98 710.34-1.25-0.63v-0.1c0.08 0.04 0.16 0.06 0.18 0.08 0.13 0.05 0.25 0.08 0.32 0.08 0.15 0 0.21-0.11 0.21-0.33v-3.16c0-0.23-0.06-0.39-0.17-0.45-0.1-0.07-0.2-0.09-0.5-0.1v-0.1h1.93v0.1c-0.55 0.01-0.66 0.08-0.66 0.42v4.18z"/><path id="path4625" d="m162.88 707.18v0.04 0.04l-0.01 0.03v0.04 0.03l-0.01 0.04v0.03l-0.01 0.03v0.03l-0.01 0.03-0.01 0.03-0.01 0.03-0.01 0.02-0.01 0.03-0.01 0.03-0.01 0.02-0.01 0.02-0.01 0.03-0.02 0.04-0.03 0.04-0.03 0.04-0.03 0.03-0.03 0.03-0.03 0.03-0.03 0.03-0.03 0.02-0.04 0.03-0.03 0.02-0.03 0.01-0.04 0.02-0.03 0.01-0.03 0.02-0.04 0.01h-0.03l-0.03 0.01-0.03 0.01h-0.03l-0.03 0.01h-0.02-0.03-0.02c-0.25 0-0.58-0.15-0.58-0.58 0-0.4 0.36-0.5 0.62-0.5 0.07 0 0.12 0.01 0.15 0.02 0.04 0.01 0.07 0.02 0.09 0.02 0.07 0 0.14-0.05 0.14-0.14 0-0.19-0.16-0.63-0.82-1.05l0.09-0.19c0.3 0.1 1.12 0.75 1.12 1.46z"/><path id="path4627" d="m165.24 711.11h0.01 0.01l0.01 0.01h0.02 0.01 0.01 0.01l0.01 0.01h0.02 0.02l0.01 0.01h0.02 0.02 0.02 0.01 0.02l0.02 0.01h0.02 0.02 0.01 0.01c0.57 0 0.72-0.25 1.17-1.97 0.17-0.64 0.41-1.81 0.41-1.98 0-0.16-0.06-0.32-0.21-0.5-0.31-0.4-0.51-0.66-0.62-0.78-0.2-0.22-0.32-0.3-0.45-0.3-0.06 0-0.13 0.03-0.24 0.11-0.15 0.12-0.26 0.17-0.37 0.17-0.22 0-0.39-0.17-0.39-0.39 0-0.25 0.22-0.44 0.51-0.44 0.64 0 1.94 1.5 3.02 3.47 0.67 1.22 0.95 1.94 0.95 2.43 0 0.3-0.24 0.55-0.54 0.55-0.23 0-0.39-0.15-0.39-0.37 0-0.15 0.08-0.26 0.28-0.39 0.19-0.11 0.26-0.2 0.26-0.34 0-0.4-0.37-1.18-1.22-2.58l-0.2 1.15c-0.15 0.88-0.71 2.53-0.86 2.53h-0.04c-0.01-0.01-0.05-0.01-0.08-0.01-0.09-0.01-0.45-0.07-0.98-0.17-0.05-0.01-0.18-0.04-0.32-0.06z"/><path id="path4629" d="m171.54 710.34-1.26-0.63v-0.1c0.09 0.04 0.16 0.06 0.19 0.08 0.13 0.05 0.24 0.08 0.31 0.08 0.15 0 0.21-0.11 0.21-0.33v-3.16c0-0.23-0.05-0.39-0.16-0.45-0.11-0.07-0.21-0.09-0.5-0.1v-0.1h1.93v0.1c-0.56 0.01-0.67 0.08-0.67 0.42v4.18z"/><path id="path4631" d="m173.88 705.36 0.06 0.04 0.07 0.05 0.06 0.04 0.06 0.04 0.06 0.04 0.06 0.04 0.05 0.04 0.05 0.03 0.06 0.04 0.04 0.04 0.05 0.03 0.05 0.04 0.04 0.03 0.04 0.04 0.09 0.06 0.07 0.07 0.08 0.07 0.07 0.07 0.07 0.07 0.07 0.08 0.06 0.07 0.07 0.08 0.07 0.08c0.71 0.87 1.06 1.87 1.06 3.03 0 1.28-0.37 2.25-1.25 3.26-0.41 0.48-0.67 0.7-1.18 1.02l-0.12-0.16c0.79-0.63 1.06-0.98 1.34-1.73 0.24-0.66 0.35-1.42 0.35-2.42 0-1.03-0.13-1.86-0.4-2.47-0.28-0.62-0.58-0.98-1.29-1.56z"/></g>
  <g id="g4785" xml:space="preserve" ns0:pdfconverter="pstoedit" transform="matrix(1.75 0 0 -1.75 -195.99 1404.6)" ns0:text="$(x_2,y_2)$" ns0:version="0.7.2" ns0:inkscapeversion="0.91" ns0:preamble="/usr/share/inkscape/extensions/default_packages.tex" ns0:scale="1.4" ns0:texconverter="pdflatex"><path id="path4787" d="m151.65 713.86-0.07-0.05-0.06-0.04-0.07-0.04-0.06-0.04-0.06-0.04-0.05-0.04-0.06-0.04-0.05-0.04-0.05-0.03-0.05-0.04-0.05-0.04-0.04-0.03-0.05-0.04-0.04-0.03-0.08-0.07-0.08-0.07-0.07-0.06-0.08-0.07-0.06-0.08-0.07-0.07-0.07-0.07-0.07-0.08-0.07-0.09c-0.7-0.87-1.05-1.86-1.05-3.03 0-1.26 0.37-2.24 1.24-3.25 0.41-0.48 0.67-0.7 1.19-1.02l0.12 0.16c-0.8 0.63-1.08 0.97-1.35 1.72-0.24 0.67-0.35 1.43-0.35 2.42 0 1.05 0.13 1.87 0.4 2.48 0.28 0.62 0.58 0.98 1.3 1.56z"/><path id="path4789" d="m156.53 708.23-0.01-0.02-0.02-0.01-0.01-0.02-0.01-0.01-0.02-0.02-0.01-0.01-0.01-0.02-0.01-0.01-0.02-0.02-0.01-0.02-0.01-0.01-0.02-0.02v-0.01l-0.01-0.01-0.01-0.01v-0.01l-0.01-0.01-0.01-0.01-0.01-0.01-0.01-0.01c-0.23-0.3-0.35-0.4-0.46-0.4-0.14 0-0.23 0.13-0.3 0.41-0.02 0.08-0.03 0.14-0.04 0.17-0.25 1.01-0.36 1.46-0.36 1.61 0.44 0.77 0.8 1.21 0.97 1.21 0.06 0 0.14-0.03 0.24-0.08 0.12-0.07 0.19-0.09 0.27-0.09 0.21 0 0.35 0.15 0.35 0.36s-0.17 0.37-0.41 0.37c-0.44 0-0.81-0.36-1.5-1.43l-0.11 0.55c-0.14 0.68-0.25 0.88-0.52 0.88-0.22 0-0.56-0.09-1.17-0.29l-0.11-0.04 0.05-0.15c0.37 0.09 0.46 0.11 0.55 0.11 0.25 0 0.31-0.09 0.45-0.69l0.29-1.23-0.82-1.16c-0.2-0.3-0.39-0.48-0.5-0.48-0.06 0-0.16 0.03-0.26 0.09-0.13 0.07-0.24 0.1-0.32 0.1-0.19 0-0.34-0.15-0.34-0.35 0-0.26 0.2-0.42 0.5-0.42 0.31 0 0.42 0.09 0.92 0.7 0.27 0.32 0.48 0.59 0.9 1.17l0.3-1.2c0.13-0.51 0.26-0.67 0.58-0.67 0.38 0 0.63 0.24 1.21 1.14z"/><path id="path4791" d="m160.26 706.59-0.09 0.03c-0.25-0.4-0.34-0.46-0.66-0.46h-1.66l1.17 1.23c0.62 0.65 0.89 1.18 0.89 1.72 0 0.7-0.56 1.23-1.29 1.23-0.38 0-0.75-0.15-1-0.43-0.23-0.24-0.33-0.46-0.45-0.95l0.15-0.04c0.27 0.68 0.53 0.91 1.01 0.91 0.58 0 0.98-0.4 0.98-0.99 0-0.54-0.32-1.19-0.91-1.81l-1.24-1.32v-0.08h2.72z"/><path id="path4793" d="m162.88 707.18v0.04 0.04l-0.01 0.03v0.04 0.03l-0.01 0.04v0.03l-0.01 0.03v0.03l-0.01 0.03-0.01 0.03-0.01 0.03-0.01 0.02-0.01 0.03-0.01 0.03-0.01 0.02-0.01 0.02-0.01 0.03-0.02 0.04-0.03 0.04-0.03 0.04-0.03 0.03-0.03 0.03-0.03 0.03-0.03 0.03-0.03 0.02-0.04 0.03-0.03 0.02-0.03 0.01-0.04 0.02-0.03 0.01-0.03 0.02-0.04 0.01h-0.03l-0.03 0.01-0.03 0.01h-0.03l-0.03 0.01h-0.02-0.03-0.02c-0.25 0-0.58-0.15-0.58-0.58 0-0.4 0.36-0.5 0.62-0.5 0.07 0 0.12 0.01 0.15 0.02 0.04 0.01 0.07 0.02 0.09 0.02 0.07 0 0.14-0.05 0.14-0.14 0-0.19-0.16-0.63-0.82-1.05l0.09-0.19c0.3 0.1 1.12 0.75 1.12 1.46z"/><path id="path4795" d="m165.24 711.11h0.01 0.01l0.01 0.01h0.02 0.01 0.01 0.01l0.01 0.01h0.02 0.02l0.01 0.01h0.02 0.02 0.02 0.01 0.02l0.02 0.01h0.02 0.02 0.01 0.01c0.57 0 0.72-0.25 1.17-1.97 0.17-0.64 0.41-1.81 0.41-1.98 0-0.16-0.06-0.32-0.21-0.5-0.31-0.4-0.51-0.66-0.62-0.78-0.2-0.22-0.32-0.3-0.45-0.3-0.06 0-0.13 0.03-0.24 0.11-0.15 0.12-0.26 0.17-0.37 0.17-0.22 0-0.39-0.17-0.39-0.39 0-0.25 0.22-0.44 0.51-0.44 0.64 0 1.94 1.5 3.02 3.47 0.67 1.22 0.95 1.94 0.95 2.43 0 0.3-0.24 0.55-0.54 0.55-0.23 0-0.39-0.15-0.39-0.37 0-0.15 0.08-0.26 0.28-0.39 0.19-0.11 0.26-0.2 0.26-0.34 0-0.4-0.37-1.18-1.22-2.58l-0.2 1.15c-0.15 0.88-0.71 2.53-0.86 2.53h-0.04c-0.01-0.01-0.05-0.01-0.08-0.01-0.09-0.01-0.45-0.07-0.98-0.17-0.05-0.01-0.18-0.04-0.32-0.06z"/><path id="path4797" d="m172.82 706.59-0.09 0.03c-0.26-0.4-0.35-0.46-0.66-0.46h-1.67l1.17 1.23c0.62 0.65 0.89 1.18 0.89 1.72 0 0.7-0.56 1.23-1.29 1.23-0.38 0-0.74-0.15-1-0.43-0.22-0.24-0.33-0.46-0.45-0.95l0.15-0.04c0.28 0.68 0.53 0.91 1.01 0.91 0.59 0 0.99-0.4 0.99-0.99 0-0.54-0.33-1.19-0.91-1.81l-1.24-1.32v-0.08h2.72z"/><path id="path4799" d="m173.88 705.36 0.06 0.04 0.07 0.05 0.06 0.04 0.06 0.04 0.06 0.04 0.06 0.04 0.05 0.04 0.05 0.03 0.06 0.04 0.04 0.04 0.05 0.03 0.05 0.04 0.04 0.03 0.04 0.04 0.09 0.06 0.07 0.07 0.08 0.07 0.07 0.07 0.07 0.07 0.07 0.08 0.06 0.07 0.07 0.08 0.07 0.08c0.71 0.87 1.06 1.87 1.06 3.03 0 1.28-0.37 2.25-1.25 3.26-0.41 0.48-0.67 0.7-1.18 1.02l-0.12-0.16c0.79-0.63 1.06-0.98 1.34-1.73 0.24-0.66 0.35-1.42 0.35-2.42 0-1.03-0.13-1.86-0.4-2.47-0.28-0.62-0.58-0.98-1.29-1.56z"/></g>
  <g id="g4969" xml:space="preserve" ns0:pdfconverter="pstoedit" transform="matrix(1.75 0 0 -1.75 -184.14 1331.3)" ns0:text="$(x_3,y_3)$" ns0:version="0.7.2" ns0:inkscapeversion="0.91" ns0:preamble="/usr/share/inkscape/extensions/default_packages.tex" ns0:scale="1.4" ns0:texconverter="pdflatex"><path id="path4971" d="m151.65 713.86-0.07-0.05-0.06-0.04-0.07-0.04-0.06-0.04-0.06-0.04-0.05-0.04-0.06-0.04-0.05-0.04-0.05-0.03-0.05-0.04-0.05-0.04-0.04-0.03-0.05-0.04-0.04-0.03-0.08-0.07-0.08-0.07-0.07-0.06-0.08-0.07-0.06-0.08-0.07-0.07-0.07-0.07-0.07-0.08-0.07-0.09c-0.7-0.87-1.05-1.86-1.05-3.03 0-1.26 0.37-2.24 1.24-3.25 0.41-0.48 0.67-0.7 1.19-1.02l0.12 0.16c-0.8 0.63-1.08 0.97-1.35 1.72-0.24 0.67-0.35 1.43-0.35 2.42 0 1.05 0.13 1.87 0.4 2.48 0.28 0.62 0.58 0.98 1.3 1.56z"/><path id="path4973" d="m156.53 708.23-0.01-0.02-0.02-0.01-0.01-0.02-0.01-0.01-0.02-0.02-0.01-0.01-0.01-0.02-0.01-0.01-0.02-0.02-0.01-0.02-0.01-0.01-0.02-0.02v-0.01l-0.01-0.01-0.01-0.01v-0.01l-0.01-0.01-0.01-0.01-0.01-0.01-0.01-0.01c-0.23-0.3-0.35-0.4-0.46-0.4-0.14 0-0.23 0.13-0.3 0.41-0.02 0.08-0.03 0.14-0.04 0.17-0.25 1.01-0.36 1.46-0.36 1.61 0.44 0.77 0.8 1.21 0.97 1.21 0.06 0 0.14-0.03 0.24-0.08 0.12-0.07 0.19-0.09 0.27-0.09 0.21 0 0.35 0.15 0.35 0.36s-0.17 0.37-0.41 0.37c-0.44 0-0.81-0.36-1.5-1.43l-0.11 0.55c-0.14 0.68-0.25 0.88-0.52 0.88-0.22 0-0.56-0.09-1.17-0.29l-0.11-0.04 0.05-0.15c0.37 0.09 0.46 0.11 0.55 0.11 0.25 0 0.31-0.09 0.45-0.69l0.29-1.23-0.82-1.16c-0.2-0.3-0.39-0.48-0.5-0.48-0.06 0-0.16 0.03-0.26 0.09-0.13 0.07-0.24 0.1-0.32 0.1-0.19 0-0.34-0.15-0.34-0.35 0-0.26 0.2-0.42 0.5-0.42 0.31 0 0.42 0.09 0.92 0.7 0.27 0.32 0.48 0.59 0.9 1.17l0.3-1.2c0.13-0.51 0.26-0.67 0.58-0.67 0.38 0 0.63 0.24 1.21 1.14z"/><path id="path4975" d="m158.02 707.93h0.04 0.03 0.04 0.03 0.04 0.03 0.03 0.03 0.02 0.03l0.03-0.01h0.02 0.02 0.03 0.02 0.02l0.02-0.01h0.02 0.02 0.02l0.02-0.01h0.02l0.03-0.01h0.03l0.04-0.01 0.03-0.01 0.03-0.02c0.43-0.15 0.7-0.55 0.7-1.03 0-0.58-0.39-1.04-0.91-1.04-0.19 0-0.33 0.05-0.59 0.22-0.21 0.12-0.32 0.17-0.44 0.17-0.16 0-0.27-0.09-0.27-0.24 0-0.24 0.3-0.4 0.79-0.4 0.54 0 1.09 0.18 1.42 0.47 0.32 0.29 0.5 0.69 0.5 1.16 0 0.35-0.11 0.68-0.31 0.9-0.14 0.15-0.27 0.23-0.58 0.37 0.48 0.32 0.66 0.58 0.66 0.96 0 0.56-0.45 0.95-1.09 0.95-0.35 0-0.65-0.11-0.91-0.34-0.21-0.19-0.31-0.37-0.46-0.78l0.1-0.03c0.29 0.51 0.6 0.74 1.04 0.74 0.45 0 0.77-0.31 0.77-0.75 0-0.25-0.11-0.5-0.28-0.68-0.21-0.21-0.41-0.31-0.88-0.48z"/><path id="path4977" d="m162.88 707.18v0.04 0.04l-0.01 0.03v0.04 0.03l-0.01 0.04v0.03l-0.01 0.03v0.03l-0.01 0.03-0.01 0.03-0.01 0.03-0.01 0.02-0.01 0.03-0.01 0.03-0.01 0.02-0.01 0.02-0.01 0.03-0.02 0.04-0.03 0.04-0.03 0.04-0.03 0.03-0.03 0.03-0.03 0.03-0.03 0.03-0.03 0.02-0.04 0.03-0.03 0.02-0.03 0.01-0.04 0.02-0.03 0.01-0.03 0.02-0.04 0.01h-0.03l-0.03 0.01-0.03 0.01h-0.03l-0.03 0.01h-0.02-0.03-0.02c-0.25 0-0.58-0.15-0.58-0.58 0-0.4 0.36-0.5 0.62-0.5 0.07 0 0.12 0.01 0.15 0.02 0.04 0.01 0.07 0.02 0.09 0.02 0.07 0 0.14-0.05 0.14-0.14 0-0.19-0.16-0.63-0.82-1.05l0.09-0.19c0.3 0.1 1.12 0.75 1.12 1.46z"/><path id="path4979" d="m165.24 711.11h0.01 0.01l0.01 0.01h0.02 0.01 0.01 0.01l0.01 0.01h0.02 0.02l0.01 0.01h0.02 0.02 0.02 0.01 0.02l0.02 0.01h0.02 0.02 0.01 0.01c0.57 0 0.72-0.25 1.17-1.97 0.17-0.64 0.41-1.81 0.41-1.98 0-0.16-0.06-0.32-0.21-0.5-0.31-0.4-0.51-0.66-0.62-0.78-0.2-0.22-0.32-0.3-0.45-0.3-0.06 0-0.13 0.03-0.24 0.11-0.15 0.12-0.26 0.17-0.37 0.17-0.22 0-0.39-0.17-0.39-0.39 0-0.25 0.22-0.44 0.51-0.44 0.64 0 1.94 1.5 3.02 3.47 0.67 1.22 0.95 1.94 0.95 2.43 0 0.3-0.24 0.55-0.54 0.55-0.23 0-0.39-0.15-0.39-0.37 0-0.15 0.08-0.26 0.28-0.39 0.19-0.11 0.26-0.2 0.26-0.34 0-0.4-0.37-1.18-1.22-2.58l-0.2 1.15c-0.15 0.88-0.71 2.53-0.86 2.53h-0.04c-0.01-0.01-0.05-0.01-0.08-0.01-0.09-0.01-0.45-0.07-0.98-0.17-0.05-0.01-0.18-0.04-0.32-0.06z"/><path id="path4981" d="m170.57 707.93h0.04 0.04 0.03 0.04 0.03 0.03 0.03 0.03 0.03 0.02l0.03-0.01h0.02 0.03 0.02 0.02 0.03l0.02-0.01h0.02 0.02 0.01l0.02-0.01h0.02l0.04-0.01h0.03l0.03-0.01 0.03-0.01 0.03-0.02c0.44-0.15 0.71-0.55 0.71-1.03 0-0.58-0.4-1.04-0.92-1.04-0.18 0-0.32 0.05-0.58 0.22-0.21 0.12-0.33 0.17-0.45 0.17-0.16 0-0.26-0.09-0.26-0.24 0-0.24 0.3-0.4 0.79-0.4 0.53 0 1.08 0.18 1.41 0.47s0.51 0.69 0.51 1.16c0 0.35-0.11 0.68-0.31 0.9-0.14 0.15-0.28 0.23-0.58 0.37 0.48 0.32 0.65 0.58 0.65 0.96 0 0.56-0.44 0.95-1.08 0.95-0.35 0-0.66-0.11-0.91-0.34-0.21-0.19-0.31-0.37-0.47-0.78l0.11-0.03c0.28 0.51 0.6 0.74 1.03 0.74 0.46 0 0.77-0.31 0.77-0.75 0-0.25-0.1-0.5-0.28-0.68-0.21-0.21-0.4-0.31-0.88-0.48z"/><path id="path4983" d="m173.88 705.36 0.06 0.04 0.07 0.05 0.06 0.04 0.06 0.04 0.06 0.04 0.06 0.04 0.05 0.04 0.05 0.03 0.06 0.04 0.04 0.04 0.05 0.03 0.05 0.04 0.04 0.03 0.04 0.04 0.09 0.06 0.07 0.07 0.08 0.07 0.07 0.07 0.07 0.07 0.07 0.08 0.06 0.07 0.07 0.08 0.07 0.08c0.71 0.87 1.06 1.87 1.06 3.03 0 1.28-0.37 2.25-1.25 3.26-0.41 0.48-0.67 0.7-1.18 1.02l-0.12-0.16c0.79-0.63 1.06-0.98 1.34-1.73 0.24-0.66 0.35-1.42 0.35-2.42 0-1.03-0.13-1.86-0.4-2.47-0.28-0.62-0.58-0.98-1.29-1.56z"/></g>
 </g>
 <text id="text5095" style="word-spacing:0px;letter-spacing:0px" xml:space="preserve" font-size="16px" line-height="125%" y="64" x="177" font-family="&apos;STIX Two Text&apos;" fill="#000000"><tspan id="tspan5097" x="177" y="64">A</tspan></text>
 <circle id="path5099" stroke-linejoin="round" cx="182.74" stroke="#000" cy="58.704" r="11.5" fill="none"/>
</svg>
