<?xml version="1.0" encoding="UTF-8" standalone="no"?>
<!-- Created with Inkscape (http://www.inkscape.org/) -->
<svg id="svg2" xmlns:rdf="http://www.w3.org/1999/02/22-rdf-syntax-ns#" xmlns="http://www.w3.org/2000/svg" xmlns:ns0="http://www.iki.fi/pav/software/textext/" height="241" width="201" version="1.1" xmlns:cc="http://creativecommons.org/ns#" xmlns:xlink="http://www.w3.org/1999/xlink" viewBox="0 0 200.99999 241" xmlns:dc="http://purl.org/dc/elements/1.1/">
 <style type="text/css">
	 @import url('../estilo.css');
 </style>
 <defs id="defs4">
  <pattern id="pattern5615" xlink:href="#Strips1_3" patternTransform="matrix(.92466 .92466 -.92466 .92466 270 146)"/>
  <pattern id="Strips1_3" height="1" width="4" patternUnits="userSpaceOnUse" patternTransform="translate(0) scale(10)">
   <rect id="rect4904" height="2" width="1" y="-.5" x="0"/>
  </pattern>
 </defs>
 <metadata id="metadata7">
  <rdf:RDF>
   <cc:Work rdf:about="">
    <dc:format>image/svg+xml</dc:format>
    <dc:type rdf:resource="http://purl.org/dc/dcmitype/StillImage"/>
    <dc:title/>
   </cc:Work>
  </rdf:RDF>
 </metadata>
 <g id="layer1" transform="translate(-44.5 -44.362)">
  <g stroke-linejoin="round" stroke="#000">
   <rect id="rect4165" height="230" width="180" y="49.862" x="55" fill="url(#pattern5615)"/>
   <rect id="rect4163" height="200" width="150" y="64.862" x="70" fill="#fff"/>
   <rect id="rect4142" height="25" width="190" y="152.36" x="50" fill="#fff"/>
  </g>
  <g font-size="16px" font-family="&apos;STIX Two Text&apos;" fill="#000000">
   <text id="text4136" style="word-spacing:0px;letter-spacing:0px" line-height="125%" y="170.3262" x="107.05262" xml:space="preserve"><tspan id="tspan4138" y="170.3262" x="107.05262">Diatérmica</tspan></text>
   <text id="text5651" style="word-spacing:0px;letter-spacing:0px" line-height="125%" y="87.362206" x="79" xml:space="preserve"><tspan id="tspan5653" y="87.362206" x="79">A</tspan></text>
   <text id="text5655" style="word-spacing:0px;letter-spacing:0px" line-height="125%" y="199.3622" x="79" xml:space="preserve"><tspan id="tspan5657" y="199.3622" x="79">B</tspan></text>
  </g>
  <g id="g4291" xml:space="preserve" stroke="#000" stroke-width="0" fill-rule="evenodd" ns0:pdfconverter="pstoedit" transform="matrix(1.75 0 0 -1.75 -139.84 1462)" stroke-miterlimit="10.433" ns0:text="$(x_1\&apos;,y_1\&apos;)$" ns0:version="0.7.2" ns0:inkscapeversion="0.91" ns0:preamble="/usr/share/inkscape/extensions/default_packages.tex" ns0:scale="1.4" ns0:texconverter="pdflatex"><path id="path4293" d="m151.65 713.86-0.07-0.05-0.06-0.04-0.07-0.04-0.06-0.04-0.06-0.04-0.05-0.04-0.06-0.04-0.05-0.04-0.05-0.03-0.05-0.04-0.05-0.04-0.04-0.03-0.05-0.04-0.04-0.03-0.08-0.07-0.08-0.07-0.07-0.06-0.08-0.07-0.06-0.08-0.07-0.07-0.07-0.07-0.07-0.08-0.07-0.09c-0.7-0.87-1.05-1.86-1.05-3.03 0-1.26 0.37-2.24 1.24-3.25 0.41-0.48 0.67-0.7 1.19-1.02l0.12 0.16c-0.8 0.63-1.08 0.97-1.35 1.72-0.24 0.67-0.35 1.43-0.35 2.42 0 1.05 0.13 1.87 0.4 2.48 0.28 0.62 0.58 0.98 1.3 1.56z"/><path id="path4295" d="m156.53 708.23-0.01-0.02-0.02-0.01-0.01-0.02-0.01-0.01-0.02-0.02-0.01-0.01-0.01-0.02-0.01-0.01-0.02-0.02-0.01-0.02-0.01-0.01-0.02-0.02v-0.01l-0.01-0.01-0.01-0.01v-0.01l-0.01-0.01-0.01-0.01-0.01-0.01-0.01-0.01c-0.23-0.3-0.35-0.4-0.46-0.4-0.14 0-0.23 0.13-0.3 0.41-0.02 0.08-0.03 0.14-0.04 0.17-0.25 1.01-0.36 1.46-0.36 1.61 0.44 0.77 0.8 1.21 0.97 1.21 0.06 0 0.14-0.03 0.24-0.08 0.12-0.07 0.19-0.09 0.27-0.09 0.21 0 0.35 0.15 0.35 0.36s-0.17 0.37-0.41 0.37c-0.44 0-0.81-0.36-1.5-1.43l-0.11 0.55c-0.14 0.68-0.25 0.88-0.52 0.88-0.22 0-0.56-0.09-1.17-0.29l-0.11-0.04 0.05-0.15c0.37 0.09 0.46 0.11 0.55 0.11 0.25 0 0.31-0.09 0.45-0.69l0.29-1.23-0.82-1.16c-0.2-0.3-0.39-0.48-0.5-0.48-0.06 0-0.16 0.03-0.26 0.09-0.13 0.07-0.24 0.1-0.32 0.1-0.19 0-0.34-0.15-0.34-0.35 0-0.26 0.2-0.42 0.5-0.42 0.31 0 0.42 0.09 0.92 0.7 0.27 0.32 0.48 0.59 0.9 1.17l0.3-1.2c0.13-0.51 0.26-0.67 0.58-0.67 0.38 0 0.63 0.24 1.21 1.14z"/><path id="path4297" d="m159.05 713.61v0.02 0.03 0.02l-0.01 0.02v0.02l-0.01 0.02-0.01 0.02-0.01 0.02-0.01 0.02-0.01 0.01-0.01 0.02-0.02 0.02-0.01 0.01-0.02 0.02-0.01 0.01-0.02 0.02-0.02 0.01-0.01 0.01-0.02 0.02-0.02 0.01-0.02 0.01-0.02 0.01-0.02 0.01h-0.02l-0.02 0.01-0.02 0.01h-0.02l-0.03 0.01h-0.02-0.02-0.02-0.02c-0.26 0-0.38-0.25-0.45-0.46l-0.73-2.11c-0.02-0.06-0.07-0.18-0.07-0.24 0-0.07 0.04-0.15 0.11-0.15 0.11 0 0.23 0.15 0.27 0.22l1.15 1.81c0.1 0.14 0.19 0.34 0.19 0.52z"/><path id="path4299" d="m158.98 708.56-1.25-0.64v-0.09c0.08 0.03 0.16 0.06 0.18 0.07 0.13 0.05 0.25 0.08 0.32 0.08 0.15 0 0.21-0.1 0.21-0.33v-3.16c0-0.23-0.06-0.39-0.17-0.45-0.1-0.06-0.2-0.08-0.5-0.09v-0.11h1.93v0.11c-0.55 0.01-0.66 0.08-0.66 0.41v4.18z"/><path id="path4301" d="m162.88 707.18v0.04 0.04l-0.01 0.03v0.04 0.03l-0.01 0.04v0.03l-0.01 0.03v0.03l-0.01 0.03-0.01 0.03-0.01 0.03-0.01 0.02-0.01 0.03-0.01 0.03-0.01 0.02-0.01 0.02-0.01 0.03-0.02 0.04-0.03 0.04-0.03 0.04-0.03 0.03-0.03 0.03-0.03 0.03-0.03 0.03-0.03 0.02-0.04 0.03-0.03 0.02-0.03 0.01-0.04 0.02-0.03 0.01-0.03 0.02-0.04 0.01h-0.03l-0.03 0.01-0.03 0.01h-0.03l-0.03 0.01h-0.02-0.03-0.02c-0.25 0-0.58-0.15-0.58-0.58 0-0.4 0.36-0.5 0.62-0.5 0.07 0 0.12 0.01 0.15 0.02 0.04 0.01 0.07 0.02 0.09 0.02 0.07 0 0.14-0.05 0.14-0.14 0-0.19-0.16-0.63-0.82-1.05l0.09-0.19c0.3 0.1 1.12 0.75 1.12 1.46z"/><path id="path4303" d="m165.24 711.11h0.01 0.01l0.01 0.01h0.02 0.01 0.01 0.01l0.01 0.01h0.02 0.02l0.01 0.01h0.02 0.02 0.02 0.01 0.02l0.02 0.01h0.02 0.02 0.01 0.01c0.57 0 0.72-0.25 1.17-1.97 0.17-0.64 0.41-1.81 0.41-1.98 0-0.16-0.06-0.32-0.21-0.5-0.31-0.4-0.51-0.66-0.62-0.78-0.2-0.22-0.32-0.3-0.45-0.3-0.06 0-0.13 0.03-0.24 0.11-0.15 0.12-0.26 0.17-0.37 0.17-0.22 0-0.39-0.17-0.39-0.39 0-0.25 0.22-0.44 0.51-0.44 0.64 0 1.94 1.5 3.02 3.47 0.67 1.22 0.95 1.94 0.95 2.43 0 0.3-0.24 0.55-0.54 0.55-0.23 0-0.39-0.15-0.39-0.37 0-0.15 0.08-0.26 0.28-0.39 0.19-0.11 0.26-0.2 0.26-0.34 0-0.4-0.37-1.18-1.22-2.58l-0.2 1.15c-0.15 0.88-0.71 2.53-0.86 2.53h-0.04c-0.01-0.01-0.05-0.01-0.08-0.01-0.09-0.01-0.45-0.07-0.98-0.17-0.05-0.01-0.18-0.04-0.32-0.06z"/><path id="path4305" d="m171.58 713.61v0.02 0.03l-0.01 0.02v0.02l-0.01 0.02-0.01 0.02v0.02l-0.01 0.02-0.01 0.02-0.02 0.01-0.01 0.02-0.01 0.02-0.02 0.01-0.01 0.02-0.02 0.01-0.01 0.02-0.02 0.01-0.02 0.01-0.02 0.02-0.02 0.01-0.02 0.01-0.02 0.01-0.02 0.01h-0.02l-0.02 0.01-0.02 0.01h-0.02l-0.02 0.01h-0.02-0.02-0.02-0.03c-0.25 0-0.38-0.25-0.45-0.46l-0.72-2.11c-0.03-0.06-0.07-0.18-0.07-0.24 0-0.07 0.04-0.15 0.11-0.15 0.1 0 0.22 0.15 0.27 0.22l1.14 1.81c0.1 0.14 0.2 0.34 0.2 0.52z"/><path id="path4307" d="m171.54 708.56-1.26-0.64v-0.09c0.09 0.03 0.16 0.06 0.19 0.07 0.13 0.05 0.24 0.08 0.31 0.08 0.15 0 0.21-0.1 0.21-0.33v-3.16c0-0.23-0.05-0.39-0.16-0.45s-0.21-0.08-0.5-0.09v-0.11h1.93v0.11c-0.56 0.01-0.67 0.08-0.67 0.41v4.18z"/><path id="path4309" d="m173.88 705.36 0.06 0.04 0.07 0.05 0.06 0.04 0.06 0.04 0.06 0.04 0.06 0.04 0.05 0.04 0.05 0.03 0.06 0.04 0.04 0.04 0.05 0.03 0.05 0.04 0.04 0.03 0.04 0.04 0.09 0.06 0.07 0.07 0.08 0.07 0.07 0.07 0.07 0.07 0.07 0.08 0.06 0.07 0.07 0.08 0.07 0.08c0.71 0.87 1.06 1.87 1.06 3.03 0 1.28-0.37 2.25-1.25 3.26-0.41 0.48-0.67 0.7-1.18 1.02l-0.12-0.16c0.79-0.63 1.06-0.98 1.34-1.73 0.24-0.66 0.35-1.42 0.35-2.42 0-1.03-0.13-1.86-0.4-2.47-0.28-0.62-0.58-0.98-1.29-1.56z"/></g>
  <g id="content" xml:space="preserve" stroke="#000" ns0:scale="1.4" stroke-width="0" fill-rule="evenodd" ns0:pdfconverter="pstoedit" transform="matrix(1.75 0 0 -1.75 -137.14 1349.2)" stroke-miterlimit="10.433" ns0:text="$(x_i,y_i)$" ns0:version="0.7.2" ns0:inkscapeversion="0.91" ns0:preamble="/usr/share/inkscape/extensions/default_packages.tex" ns0:texconverter="pdflatex"><path id="path4412" d="m151.65 713.86l-0.07-0.05-0.06-0.04-0.07-0.04-0.06-0.04-0.06-0.04-0.05-0.04-0.06-0.04-0.05-0.04-0.05-0.03-0.05-0.04-0.05-0.04-0.04-0.03-0.05-0.04-0.04-0.03-0.08-0.07-0.08-0.07-0.07-0.06-0.08-0.07-0.06-0.08-0.07-0.07-0.07-0.07-0.07-0.08-0.07-0.09c-0.7-0.87-1.05-1.86-1.05-3.03 0-1.26 0.37-2.24 1.24-3.25 0.41-0.48 0.67-0.7 1.19-1.02l0.12 0.16c-0.8 0.63-1.08 0.97-1.35 1.72-0.24 0.67-0.35 1.43-0.35 2.42 0 1.05 0.13 1.87 0.4 2.48 0.28 0.62 0.58 0.98 1.3 1.56z"/><path id="path4414" d="m156.53 708.23l-0.01-0.02-0.02-0.01-0.01-0.02-0.01-0.01-0.02-0.02-0.01-0.01-0.01-0.02-0.01-0.01-0.02-0.02-0.01-0.02-0.01-0.01-0.02-0.02v-0.01l-0.01-0.01-0.01-0.01v-0.01l-0.01-0.01-0.01-0.01-0.01-0.01-0.01-0.01c-0.23-0.3-0.35-0.4-0.46-0.4-0.14 0-0.23 0.13-0.3 0.41-0.02 0.08-0.03 0.14-0.04 0.17-0.25 1.01-0.36 1.46-0.36 1.61 0.44 0.77 0.8 1.21 0.97 1.21 0.06 0 0.14-0.03 0.24-0.08 0.12-0.07 0.19-0.09 0.27-0.09 0.21 0 0.35 0.15 0.35 0.36s-0.17 0.37-0.41 0.37c-0.44 0-0.81-0.36-1.5-1.43l-0.11 0.55c-0.14 0.68-0.25 0.88-0.52 0.88-0.22 0-0.56-0.09-1.17-0.29l-0.11-0.04 0.05-0.15c0.37 0.09 0.46 0.11 0.55 0.11 0.25 0 0.31-0.09 0.45-0.69l0.29-1.23-0.82-1.16c-0.2-0.3-0.39-0.48-0.5-0.48-0.06 0-0.16 0.03-0.26 0.09-0.13 0.07-0.24 0.1-0.32 0.1-0.19 0-0.34-0.15-0.34-0.35 0-0.26 0.2-0.42 0.5-0.42 0.31 0 0.42 0.09 0.92 0.7 0.27 0.32 0.48 0.59 0.9 1.17l0.3-1.2c0.13-0.51 0.26-0.67 0.58-0.67 0.38 0 0.63 0.24 1.21 1.14z"/><path id="path4416" d="m158.5 706.42l-0.01-0.02-0.02-0.01-0.01-0.02-0.02-0.02-0.01-0.02-0.01-0.01-0.01-0.02-0.01-0.01-0.02-0.02-0.01-0.01-0.01-0.01-0.01-0.02v-0.01l-0.01-0.01-0.01-0.01-0.01-0.01-0.01-0.01v-0.01h-0.01l-0.01-0.01-0.01-0.01v-0.01l-0.01-0.01-0.02-0.02-0.01-0.01-0.01-0.02-0.02-0.01c-0.11-0.12-0.22-0.19-0.28-0.19s-0.11 0.06-0.11 0.11c0 0.06 0.02 0.17 0.07 0.3 0 0.02 0.02 0.07 0.03 0.13v0.01l0.01 0.02 0.61 2.24-0.02 0.02c-0.7-0.14-0.84-0.16-1.11-0.18v-0.11c0.36-0.01 0.44-0.03 0.44-0.17 0-0.05-0.03-0.16-0.07-0.3l-0.33-1.24c-0.11-0.4-0.16-0.62-0.16-0.76 0-0.26 0.12-0.4 0.33-0.4 0.32 0 0.57 0.21 0.97 0.8z"/><path id="path4418" d="m158.45 710.19h-0.02-0.02-0.02l-0.01-0.01h-0.02l-0.02-0.01h-0.01l-0.02-0.01h-0.01l-0.01-0.01-0.02-0.01-0.01-0.01-0.01-0.01-0.02-0.01-0.01-0.01-0.01-0.02-0.01-0.01-0.01-0.01-0.01-0.02-0.01-0.01-0.01-0.02v-0.01l-0.01-0.02-0.01-0.01v-0.02l-0.01-0.02v-0.01l-0.01-0.02v-0.02-0.02-0.02-0.02c0-0.22 0.13-0.37 0.33-0.37 0.18 0 0.34 0.16 0.34 0.36s-0.16 0.38-0.34 0.38z"/><path id="path4420" d="m161.33 707.18v0.04 0.04 0.03 0.04l-0.01 0.03v0.04l-0.01 0.03v0.03l-0.01 0.03-0.01 0.03v0.03l-0.01 0.03-0.01 0.02-0.01 0.03-0.01 0.03-0.01 0.02-0.01 0.02-0.01 0.03-0.03 0.04-0.02 0.04-0.03 0.04-0.03 0.03-0.03 0.03-0.03 0.03-0.03 0.03-0.04 0.02-0.03 0.03-0.03 0.02-0.04 0.01-0.03 0.02-0.04 0.01-0.03 0.02-0.03 0.01h-0.03l-0.03 0.01-0.03 0.01h-0.03l-0.03 0.01h-0.03-0.02-0.02c-0.25 0-0.58-0.15-0.58-0.58 0-0.4 0.36-0.5 0.62-0.5 0.06 0 0.11 0.01 0.14 0.02 0.05 0.01 0.08 0.02 0.09 0.02 0.07 0 0.14-0.05 0.14-0.14 0-0.19-0.15-0.63-0.81-1.05l0.09-0.19c0.3 0.1 1.11 0.75 1.11 1.46z"/><path id="path4422" d="m163.69 711.11h0.01 0.01l0.01 0.01h0.01 0.01 0.01 0.01l0.01 0.01h0.02 0.02l0.02 0.01h0.02 0.02 0.01 0.02 0.02l0.02 0.01h0.02 0.02 0.01 0.01c0.56 0 0.71-0.25 1.17-1.97 0.17-0.64 0.41-1.81 0.41-1.98 0-0.16-0.06-0.32-0.21-0.5-0.31-0.4-0.51-0.66-0.62-0.78-0.21-0.22-0.33-0.3-0.46-0.3-0.05 0-0.13 0.03-0.23 0.11-0.15 0.12-0.26 0.17-0.37 0.17-0.22 0-0.39-0.17-0.39-0.39 0-0.25 0.22-0.44 0.51-0.44 0.63 0 1.94 1.5 3.01 3.47 0.68 1.22 0.96 1.94 0.96 2.43 0 0.3-0.25 0.55-0.55 0.55-0.22 0-0.38-0.15-0.38-0.37 0-0.15 0.08-0.26 0.27-0.39 0.19-0.11 0.26-0.2 0.26-0.34 0-0.4-0.37-1.18-1.21-2.58l-0.2 1.15c-0.15 0.88-0.71 2.53-0.86 2.53h-0.04c-0.01-0.01-0.05-0.01-0.09-0.01-0.09-0.01-0.45-0.07-0.97-0.17-0.05-0.01-0.18-0.04-0.32-0.06z"/><path id="path4424" d="m169.51 706.42l-0.01-0.02-0.02-0.01-0.01-0.02-0.02-0.02-0.01-0.02-0.01-0.01-0.01-0.02-0.01-0.01-0.02-0.02-0.01-0.01-0.01-0.01-0.01-0.02v-0.01l-0.01-0.01-0.01-0.01-0.01-0.01-0.01-0.01v-0.01h-0.01l-0.01-0.01-0.01-0.01v-0.01l-0.01-0.01-0.02-0.02-0.01-0.01-0.01-0.02-0.01-0.01c-0.12-0.12-0.23-0.19-0.29-0.19s-0.11 0.06-0.11 0.11c0 0.06 0.02 0.17 0.07 0.3 0 0.02 0.02 0.07 0.03 0.13v0.01l0.01 0.02 0.61 2.24-0.02 0.02c-0.7-0.14-0.84-0.16-1.11-0.18v-0.11c0.37-0.01 0.43-0.03 0.43-0.17 0-0.05-0.02-0.16-0.06-0.3l-0.33-1.24c-0.11-0.4-0.16-0.62-0.16-0.76 0-0.26 0.12-0.4 0.32-0.4 0.33 0 0.58 0.21 0.98 0.8z"/><path id="path4426" d="m169.46 710.19h-0.02-0.02-0.02l-0.01-0.01h-0.02l-0.02-0.01h-0.01l-0.02-0.01h-0.01l-0.01-0.01-0.02-0.01-0.01-0.01-0.01-0.01-0.02-0.01-0.01-0.01-0.01-0.02-0.01-0.01-0.01-0.01-0.01-0.02-0.01-0.01-0.01-0.02v-0.01l-0.01-0.02-0.01-0.01v-0.02l-0.01-0.02v-0.01l-0.01-0.02v-0.02-0.02-0.02-0.02c0-0.22 0.13-0.37 0.33-0.37 0.18 0 0.34 0.16 0.34 0.36s-0.16 0.38-0.34 0.38z"/><path id="path4428" d="m170.78 705.36l0.07 0.04 0.06 0.05 0.07 0.04 0.06 0.04 0.05 0.04 0.06 0.04 0.06 0.04 0.05 0.03 0.05 0.04 0.05 0.04 0.04 0.03 0.05 0.04 0.04 0.03 0.05 0.04 0.08 0.06 0.08 0.07 0.07 0.07 0.07 0.07 0.07 0.07 0.07 0.08 0.07 0.07 0.06 0.08 0.07 0.08c0.71 0.87 1.06 1.87 1.06 3.03 0 1.28-0.37 2.25-1.25 3.26-0.4 0.48-0.66 0.7-1.18 1.02l-0.12-0.16c0.8-0.63 1.07-0.98 1.34-1.73 0.24-0.66 0.35-1.42 0.35-2.42 0-1.03-0.13-1.86-0.4-2.47-0.27-0.62-0.57-0.98-1.29-1.56z"/></g>
 </g>
</svg>
