<?xml version="1.0" ?><svg height="77.89844mm" version="1.0" viewBox="0 0 517 295" width="136.52031mm" xmlns="http://www.w3.org/2000/svg">
  <style type="text/css">
		@import url('../estilo.css');
  </style>
  <g font-size="12pt" stroke-linecap="round" transform="translate(-57,-68)">
    <g stroke="#000000" stroke-width="1.0">
      <line x1="204.00" x2="184.12" y1="140.43" y2="140.43"/>
      <line x1="204.00" x2="184.12" y1="144.43" y2="144.43"/>
    </g>
    <g stroke="#000000" stroke-linecap="butt" stroke-width="1.0">
      <line x1="218.00" x2="230.00" y1="142.43" y2="142.43"/>
    </g>
    <g stroke="#000000" stroke-linecap="butt" stroke-width="1.0">
      <line x1="101.36" x2="97.31" y1="148.00" y2="155.00"/>
    </g>
    <g stroke="#000000" stroke-width="1.0">
      <line x1="276.87" x2="263.65" y1="165.38" y2="142.43"/>
      <line x1="280.41" x2="270.50" y1="159.51" y2="142.30"/>
    </g>
    <g stroke="#000000" stroke-width="1.0">
      <line x1="170.87" x2="184.12" y1="119.44" y2="142.43"/>
    </g>
    <g stroke="#000000" stroke-width="1.0">
      <line x1="184.12" x2="170.87" y1="142.43" y2="165.34"/>
    </g>
    <g stroke="#000000" stroke-width="1.0">
      <line x1="131.11" x2="112.00" y1="140.39" y2="140.39"/>
      <line x1="131.11" x2="112.00" y1="144.39" y2="144.39"/>
    </g>
    <g stroke="#000000" stroke-width="1.0">
      <line x1="170.87" x2="144.36" y1="165.34" y2="165.34"/>
      <line x1="167.56" x2="147.67" y1="159.34" y2="159.34"/>
    </g>
    <g stroke="#000000" stroke-width="1.0">
      <line x1="303.38" x2="316.63" y1="165.38" y2="142.47"/>
      <line x1="299.84" x2="309.78" y1="159.51" y2="142.33"/>
    </g>
    <g stroke="#000000" stroke-width="1.0">
      <line x1="263.65" x2="276.87" y1="142.43" y2="119.52"/>
    </g>
    <g stroke="#000000" stroke-width="1.0">
      <line x1="244.00" x2="263.65" y1="142.43" y2="142.43"/>
    </g>
    <g stroke="#000000" stroke-linecap="butt" stroke-width="1.0">
      <line x1="237.14" x2="237.14" y1="148.00" y2="159.00"/>
    </g>
    <g stroke="#000000" stroke-width="1.0">
      <line x1="276.87" x2="303.38" y1="119.52" y2="119.52"/>
      <line x1="280.18" x2="300.06" y1="125.52" y2="125.52"/>
    </g>
    <g stroke="#000000" stroke-width="1.0">
      <line x1="144.36" x2="170.87" y1="119.44" y2="119.44"/>
      <line x1="147.67" x2="167.56" y1="125.44" y2="125.44"/>
    </g>
    <g stroke="#000000" stroke-width="1.0">
      <line x1="144.36" x2="131.11" y1="119.44" y2="142.39"/>
    </g>
    <g stroke="#000000" stroke-width="1.0">
      <line x1="316.63" x2="303.38" y1="142.47" y2="119.52"/>
    </g>
    <g stroke="#000000" stroke-width="1.0">
      <line x1="303.38" x2="276.87" y1="165.38" y2="165.38"/>
    </g>
    <g stroke="#000000" stroke-linecap="butt" stroke-width="1.0">
      <line x1="98.61" x2="94.57" y1="132.00" y2="125.00"/>
    </g>
    <g stroke="#000000" stroke-width="1.0">
      <line x1="316.63" x2="338.00" y1="142.47" y2="142.47"/>
    </g>
    <g stroke="#000000" stroke-width="1.0">
      <line x1="131.11" x2="144.36" y1="142.39" y2="165.34"/>
    </g>
    <text fill="#000000" font-family="STIX Two Text" font-size="12pt" x="339.30" y="146.47">SO<tspan dy="6" font-size="75%">3</tspan></text>
    <g>
      <ellipse cx="371.313609467" cy="137.732544379" fill="none" rx="5.0" ry="5.0" stroke="#000" stroke-width="1"/>
      <line fill="#000" stroke="#000" stroke-width="1" x1="368.313609467" x2="374.313609467" y1="137.732544379" y2="137.732544379"/>
    </g>
    <text fill="#000000" font-family="STIX Two Text" font-size="12pt" x="68.30" y="123.40">H<tspan dy="6" font-size="75%">3</tspan><tspan dy="-6">C</tspan></text>
    <text fill="#000000" font-family="STIX Two Text" font-size="12pt" x="68.30" y="169.34">H<tspan dy="6" font-size="75%">3</tspan><tspan dy="-6">C</tspan></text>
    <text fill="#000000" font-family="STIX Two Text" font-size="12pt" x="99.30" y="146.39">N</text>
    <g>
      <ellipse cx="112.889940828" cy="128.037869822" fill="none" rx="5.0" ry="5.0" stroke="#000" stroke-width="1"/>
      <line fill="#000" stroke="#000" stroke-width="1" x1="109.889940828" x2="115.889940828" y1="128.037869822" y2="128.037869822"/>
      <line fill="#000" stroke="#000" stroke-width="1" x1="112.889940828" x2="112.889940828" y1="125.037869822" y2="131.037869822"/>
    </g>
    <text fill="#000000" font-family="STIX Two Text" font-size="12pt" x="205.30" y="146.43">N</text>
    <text fill="#000000" font-family="STIX Two Text" font-size="12pt" x="231.30" y="146.43">N</text>
    <text fill="#000000" font-family="STIX Two Text" font-size="12pt" x="231.30" y="172.94">H</text>
    <path d="M185.56,87.25 Q156.48,87.25 157.16,105.35" fill="none" stroke="#ff0000" stroke-width="1.0"/>
    <polygon fill="#ff0000" fill-rule="evenodd" points="157.46,113.34 160.08,103.24 157.16,105.35 154.09,103.46" stroke="#ff0000" stroke-width="1"/>
    <text fill="#000000" font-family="STIX Two Text" font-size="12pt" textLength="116" x="191.00" y="90.52">quinona-diimina</text>
    <text fill="#000000" font-family="STIX Two Text" font-size="12pt" textLength="145" x="419.00" y="146.68">anaranjado de metilo</text>
    <text fill="#000000" font-family="STIX Two Text" font-size="12pt" textLength="36" x="473.00" y="172.05">&quot;rojo&quot;</text>
    <polyline fill="none" points="206.12,205.07 211.12,197.07 211.12,257.67" stroke="#000000" stroke-width="1.0"/>
    <polyline fill="none" points="217.12,197.07 217.12,257.67 222.12,249.67" stroke="#000000" stroke-width="1.0"/>
    <text fill="#000000" font-family="STIX Two Text" font-size="12pt" x="226.30" y="231.18">− H<tspan dy="-6" font-size="75%">+</tspan></text>
    <text fill="#000000" font-family="STIX Two Text" font-size="12pt" textLength="86" x="117.00" y="231.43">pH = 3,1-4,5</text>
    <g stroke="#000000" stroke-width="1.0">
      <line x1="145.34" x2="171.85" y1="280.92" y2="280.92"/>
    </g>
    <g stroke="#000000" stroke-linecap="butt" stroke-width="1.0">
      <line x1="219.00" x2="231.00" y1="301.91" y2="301.91"/>
      <line x1="219.00" x2="231.00" y1="305.91" y2="305.91"/>
    </g>
    <g stroke="#000000" stroke-width="1.0">
      <line x1="145.34" x2="132.09" y1="280.92" y2="303.87"/>
      <line x1="148.88" x2="138.94" y1="286.79" y2="304.00"/>
    </g>
    <g stroke="#000000" stroke-width="1.0">
      <line x1="317.61" x2="304.36" y1="303.94" y2="280.99"/>
    </g>
    <g stroke="#000000" stroke-width="1.0">
      <line x1="304.36" x2="317.61" y1="326.85" y2="303.94"/>
      <line x1="300.82" x2="310.76" y1="320.99" y2="303.80"/>
    </g>
    <g stroke="#000000" stroke-width="1.0">
      <line x1="277.85" x2="264.63" y1="326.85" y2="303.91"/>
      <line x1="281.40" x2="271.49" y1="320.99" y2="303.78"/>
    </g>
    <g stroke="#000000" stroke-width="1.0">
      <line x1="185.11" x2="171.85" y1="303.91" y2="326.82"/>
    </g>
    <g stroke="#000000" stroke-width="1.0">
      <line x1="171.85" x2="185.11" y1="280.92" y2="303.91"/>
      <line x1="168.31" x2="178.25" y1="286.79" y2="304.03"/>
    </g>
    <g stroke="#000000" stroke-width="1.0">
      <line x1="132.09" x2="145.34" y1="303.87" y2="326.82"/>
    </g>
    <g stroke="#000000" stroke-width="1.0">
      <line x1="171.85" x2="145.34" y1="326.82" y2="326.82"/>
      <line x1="168.54" x2="148.66" y1="320.82" y2="320.82"/>
    </g>
    <g stroke="#000000" stroke-width="1.0">
      <line x1="317.61" x2="339.00" y1="303.94" y2="303.94"/>
    </g>
    <g stroke="#000000" stroke-width="1.0">
      <line x1="304.36" x2="277.85" y1="326.85" y2="326.85"/>
    </g>
    <g stroke="#000000" stroke-width="1.0">
      <line x1="132.09" x2="113.00" y1="303.87" y2="303.87"/>
    </g>
    <g stroke="#000000" stroke-linecap="butt" stroke-width="1.0">
      <line x1="99.89" x2="95.86" y1="294.00" y2="287.00"/>
    </g>
    <g stroke="#000000" stroke-linecap="butt" stroke-width="1.0">
      <line x1="102.04" x2="98.00" y1="310.00" y2="317.00"/>
    </g>
    <g stroke="#000000" stroke-width="1.0">
      <line x1="277.85" x2="304.36" y1="280.99" y2="280.99"/>
      <line x1="281.16" x2="301.05" y1="286.99" y2="286.99"/>
    </g>
    <g stroke="#000000" stroke-width="1.0">
      <line x1="185.11" x2="205.00" y1="303.91" y2="303.91"/>
    </g>
    <g stroke="#000000" stroke-width="1.0">
      <line x1="245.00" x2="264.63" y1="303.91" y2="303.91"/>
    </g>
    <g stroke="#000000" stroke-width="1.0">
      <line x1="264.63" x2="277.85" y1="303.91" y2="280.99"/>
    </g>
    <text fill="#000000" font-family="STIX Two Text" font-size="12pt" x="340.30" y="307.94">SO<tspan dy="6" font-size="75%">3</tspan></text>
    <text fill="#000000" font-family="STIX Two Text" font-size="12pt" x="206.30" y="307.91">N</text>
    <text fill="#000000" font-family="STIX Two Text" font-size="12pt" x="232.30" y="307.91">N</text>
    <g>
      <ellipse cx="372.298224852" cy="299.209467456" fill="none" rx="5.0" ry="5.0" stroke="#000" stroke-width="1"/>
      <line fill="#000" stroke="#000" stroke-width="1" x1="369.298224852" x2="375.298224852" y1="299.209467456" y2="299.209467456"/>
    </g>
    <text fill="#000000" font-family="STIX Two Text" font-size="12pt" x="69.30" y="330.82">H<tspan dy="6" font-size="75%">3</tspan><tspan dy="-6">C</tspan></text>
    <text fill="#000000" font-family="STIX Two Text" font-size="12pt" x="100.30" y="307.87">N</text>
    <text fill="#000000" font-family="STIX Two Text" font-size="12pt" x="69.30" y="284.88">H<tspan dy="6" font-size="75%">3</tspan><tspan dy="-6">C</tspan></text>
    <ellipse cx="224.15" cy="303.91" fill="none" rx="24.58" ry="15.03" stroke="#c0c0c0" stroke-width="1.0"/>
    <path d="M201.58,345.03 Q184.54,333.56 198.58,323.26" fill="none" stroke="#ff0000" stroke-width="1.0"/>
    <polygon fill="#ff0000" fill-rule="evenodd" points="205.03,318.52 195.19,322.02 198.58,323.26 198.74,326.86" stroke="#ff0000" stroke-width="1"/>
    <text fill="#000000" font-family="STIX Two Text" font-size="12pt" textLength="23" x="206.00" y="348.26">azo</text>
    <text fill="#000000" font-family="STIX Two Text" font-size="12pt" textLength="69" x="457.00" y="310.35">&quot;amarillo&quot;</text>
  </g>
</svg>
