<?xml version="1.0" ?><svg height="121.73281mm" version="1.0" viewBox="0 0 658 461" width="173.75313mm" xmlns="http://www.w3.org/2000/svg">
  <style type="text/css">
		@import url('../estilo.css');
	</style>
  <g font-size="12pt" stroke-linecap="round" transform="translate(-30,-66)">
    <g stroke="#000000" stroke-width="1.0">
      <line x1="73.24" x2="60.04" y1="98.20" y2="85.00"/>
    </g>
    <g stroke="#000000" stroke-width="1.0">
      <line x1="98.80" x2="73.24" y1="91.38" y2="98.20"/>
      <line x1="97.15" x2="77.98" y1="98.03" y2="103.14"/>
    </g>
    <g stroke="#000000" stroke-width="1.0">
      <line x1="129.44" x2="110.69" y1="154.47" y2="173.22"/>
    </g>
    <g stroke="#000000" stroke-width="1.0">
      <line x1="85.13" x2="66.39" y1="142.54" y2="123.80"/>
      <line x1="87.03" x2="72.97" y1="135.96" y2="121.90"/>
    </g>
    <g stroke="#000000" stroke-width="1.0">
      <line x1="73.24" x2="66.39" y1="98.20" y2="123.80"/>
    </g>
    <g stroke="#000000" stroke-width="1.0">
      <line x1="129.44" x2="148.19" y1="154.47" y2="135.73"/>
    </g>
    <g stroke="#000000" stroke-width="1.0">
      <line x1="98.80" x2="117.55" y1="91.38" y2="110.13"/>
    </g>
    <g stroke="#000000" stroke-width="1.0">
      <line x1="185.68" x2="160.08" y1="98.27" y2="91.38"/>
    </g>
    <g stroke="#000000" stroke-width="1.0">
      <line x1="110.69" x2="85.13" y1="135.73" y2="142.54"/>
    </g>
    <g stroke="#000000" stroke-width="1.0">
      <line x1="148.19" x2="141.33" y1="135.73" y2="110.13"/>
    </g>
    <g stroke="#000000" stroke-width="1.0">
      <line x1="173.79" x2="148.19" y1="142.58" y2="135.73"/>
      <line x1="172.14" x2="152.94" y1="135.93" y2="130.79"/>
    </g>
    <g stroke="#000000" stroke-width="1.0">
      <line x1="129.44" x2="110.69" y1="154.47" y2="135.73"/>
    </g>
    <g stroke="#000000" stroke-width="1.0">
      <line x1="192.53" x2="185.68" y1="123.83" y2="98.27"/>
      <line x1="185.88" x2="180.74" y1="122.19" y2="103.02"/>
    </g>
    <g stroke="#000000" stroke-width="1.0">
      <line x1="117.55" x2="137.56" y1="198.78" y2="198.78"/>
    </g>
    <g stroke="#000000" stroke-linecap="butt" stroke-width="1.0">
      <line x1="150.56" x2="163.56" y1="200.78" y2="200.78"/>
      <line x1="150.56" x2="163.56" y1="196.78" y2="196.78"/>
    </g>
    <g stroke="#000000" stroke-width="1.0">
      <line x1="66.35" x2="73.17" y1="185.07" y2="210.63"/>
      <line x1="73.00" x2="78.11" y1="186.72" y2="205.89"/>
    </g>
    <g stroke="#000000" stroke-width="1.0">
      <line x1="85.09" x2="110.69" y1="166.32" y2="173.22"/>
      <line x1="86.73" x2="105.93" y1="172.98" y2="178.15"/>
    </g>
    <g stroke="#000000" stroke-width="1.0">
      <line x1="73.17" x2="98.80" y1="210.63" y2="217.52"/>
    </g>
    <g stroke="#000000" stroke-width="1.0">
      <line x1="192.53" x2="173.79" y1="123.83" y2="142.58"/>
    </g>
    <g stroke="#000000" stroke-width="1.0">
      <line x1="66.35" x2="85.09" y1="185.07" y2="166.32"/>
    </g>
    <g stroke="#000000" stroke-width="1.0">
      <line x1="117.55" x2="110.69" y1="110.13" y2="135.73"/>
      <line x1="110.90" x2="105.76" y1="111.77" y2="130.97"/>
    </g>
    <g stroke="#000000" stroke-width="1.0">
      <line x1="110.69" x2="117.55" y1="173.22" y2="198.78"/>
    </g>
    <g stroke="#000000" stroke-width="1.0">
      <line x1="141.33" x2="160.08" y1="110.13" y2="91.38"/>
      <line x1="147.92" x2="161.98" y1="112.02" y2="97.97"/>
    </g>
    <g stroke="#000000" stroke-width="1.0">
      <line x1="117.55" x2="98.80" y1="198.78" y2="217.52"/>
      <line x1="110.96" x2="96.90" y1="196.88" y2="210.94"/>
    </g>
    <g stroke="#000000" stroke-width="1.0">
      <line x1="185.68" x2="197.95" y1="98.27" y2="86.00"/>
    </g>
    <g stroke="#000000" stroke-width="1.0">
      <line x1="129.44" x2="141.56" y1="154.47" y2="166.59"/>
    </g>
    <g stroke="#000000" stroke-linecap="butt" stroke-width="1.0">
      <line x1="145.61" x2="147.24" y1="189.00" y2="179.00"/>
    </g>
    <text fill="#000000" font-family="STIX Two Text" font-size="12pt" x="139.30" y="202.78">C</text>
    <text fill="#000000" font-family="STIX Two Text" font-size="12pt" x="143.30" y="177.22">O</text>
    <text fill="#000000" font-family="STIX Two Text" font-size="12pt" x="165.30" y="202.78">O</text>
    <text fill="#000000" font-family="STIX Two Text" font-size="12pt" x="199.30" y="83.53">OH</text>
    <text fill="#000000" font-family="STIX Two Text" font-size="12pt" x="37.30" y="83.45">HO</text>
    <text fill="#000000" font-family="STIX Two Text" font-size="12pt" textLength="86" x="88.00" y="247.98">fenolftaleína</text>
    <polyline fill="none" points="207.61,143.41 259.22,143.41" stroke="#000000" stroke-width="1.0"/>
    <polygon fill="#000000" fill-rule="evenodd" points="267.22,143.41 257.22,140.41 259.22,143.41 257.22,146.41" stroke="#000000" stroke-width="1"/>
    <text fill="#000000" font-family="STIX Two Text" font-size="12pt" x="223.30" y="131.39">H<tspan dy="6" font-size="75%">2</tspan><tspan dy="-6">O</tspan></text>
    <g stroke="#000000" stroke-width="1.0">
      <line x1="321.14" x2="295.57" y1="91.08" y2="97.93"/>
      <line x1="319.49" x2="300.32" y1="97.73" y2="102.87"/>
    </g>
    <g stroke="#000000" stroke-width="1.0">
      <line x1="295.57" x2="288.72" y1="97.93" y2="123.53"/>
    </g>
    <g stroke="#000000" stroke-width="1.0">
      <line x1="333.03" x2="307.47" y1="135.42" y2="142.28"/>
    </g>
    <g stroke="#000000" stroke-width="1.0">
      <line x1="321.14" x2="339.88" y1="91.08" y2="109.82"/>
    </g>
    <g stroke="#000000" stroke-width="1.0">
      <line x1="363.66" x2="382.41" y1="109.86" y2="91.11"/>
      <line x1="370.25" x2="384.31" y1="111.76" y2="97.70"/>
    </g>
    <g stroke="#000000" stroke-width="1.0">
      <line x1="396.12" x2="370.52" y1="142.31" y2="135.42"/>
      <line x1="394.48" x2="375.28" y1="135.66" y2="130.49"/>
    </g>
    <g stroke="#000000" stroke-width="1.0">
      <line x1="339.88" x2="360.23" y1="198.51" y2="198.51"/>
    </g>
    <g stroke="#000000" stroke-width="1.0">
      <line x1="351.77" x2="333.03" y1="154.17" y2="135.42"/>
    </g>
    <g stroke="#000000" stroke-width="1.0">
      <line x1="295.50" x2="321.14" y1="210.37" y2="217.26"/>
    </g>
    <g stroke="#000000" stroke-width="1.0">
      <line x1="288.68" x2="295.50" y1="184.80" y2="210.37"/>
      <line x1="295.33" x2="300.44" y1="186.45" y2="205.63"/>
    </g>
    <g stroke="#000000" stroke-width="1.0">
      <line x1="333.03" x2="339.88" y1="172.91" y2="198.51"/>
    </g>
    <g stroke="#000000" stroke-width="1.0">
      <line x1="288.68" x2="307.43" y1="184.80" y2="166.06"/>
    </g>
    <g stroke="#000000" stroke-width="1.0">
      <line x1="351.77" x2="363.23" y1="154.17" y2="165.62"/>
    </g>
    <g stroke="#000000" stroke-width="1.0">
      <line x1="339.88" x2="321.14" y1="198.51" y2="217.26"/>
      <line x1="333.30" x2="319.24" y1="196.61" y2="210.67"/>
    </g>
    <g stroke="#000000" stroke-width="1.0">
      <line x1="295.57" x2="282.64" y1="97.93" y2="85.00"/>
    </g>
    <g stroke="#000000" stroke-width="1.0">
      <line x1="351.77" x2="333.03" y1="154.17" y2="172.91"/>
    </g>
    <g stroke="#000000" stroke-width="1.0">
      <line x1="307.47" x2="288.72" y1="142.28" y2="123.53"/>
      <line x1="309.36" x2="295.31" y1="135.69" y2="121.63"/>
    </g>
    <g stroke="#000000" stroke-width="1.0">
      <line x1="408.01" x2="382.41" y1="98.01" y2="91.11"/>
    </g>
    <g stroke="#000000" stroke-width="1.0">
      <line x1="351.77" x2="370.52" y1="154.17" y2="135.42"/>
    </g>
    <g stroke="#000000" stroke-width="1.0">
      <line x1="339.88" x2="333.03" y1="109.82" y2="135.42"/>
      <line x1="333.23" x2="328.09" y1="111.47" y2="130.67"/>
    </g>
    <g stroke="#000000" stroke-width="1.0">
      <line x1="370.52" x2="363.66" y1="135.42" y2="109.86"/>
    </g>
    <g stroke="#000000" stroke-width="1.0">
      <line x1="307.43" x2="333.03" y1="166.06" y2="172.91"/>
      <line x1="309.08" x2="328.28" y1="172.71" y2="177.85"/>
    </g>
    <g stroke="#000000" stroke-width="1.0">
      <line x1="414.86" x2="396.12" y1="123.57" y2="142.31"/>
    </g>
    <g stroke="#000000" stroke-width="1.0">
      <line x1="408.01" x2="421.02" y1="98.01" y2="85.00"/>
    </g>
    <g stroke="#000000" stroke-width="1.0">
      <line x1="414.86" x2="408.01" y1="123.57" y2="98.01"/>
      <line x1="408.21" x2="403.07" y1="121.93" y2="102.76"/>
    </g>
    <text fill="#000000" font-family="STIX Two Text" font-size="12pt" x="361.30" y="202.51">COOH</text>
    <text fill="#000000" font-family="STIX Two Text" font-size="12pt" x="421.30" y="83.26">OH</text>
    <text fill="#000000" font-family="STIX Two Text" font-size="12pt" x="259.30" y="83.19">HO</text>
    <text fill="#000000" font-family="STIX Two Text" font-size="12pt" x="364.30" y="176.91">OH</text>
    <text fill="#000000" font-family="STIX Two Text" font-size="12pt" x="336.30" y="247.73">H<tspan dy="6" font-size="75%">2</tspan><tspan dy="-6">In</tspan></text>
    <polyline fill="none" points="449.30,152.44 441.30,147.44 501.90,147.44" stroke="#000000" stroke-width="1.0"/>
    <polyline fill="none" points="441.30,141.44 501.90,141.44 493.90,136.44" stroke="#000000" stroke-width="1.0"/>
    <text fill="#000000" font-family="STIX Two Text" font-size="12pt" x="458.30" y="131.39">− H<tspan dy="-6" font-size="75%">+</tspan></text>
    <g stroke="#000000" stroke-width="1.0">
      <line x1="588.37" x2="599.63" y1="154.17" y2="165.43"/>
    </g>
    <g stroke="#000000" stroke-width="1.0">
      <line x1="576.48" x2="569.62" y1="109.82" y2="135.42"/>
      <line x1="569.83" x2="564.69" y1="111.47" y2="130.67"/>
    </g>
    <g stroke="#000000" stroke-width="1.0">
      <line x1="644.61" x2="619.01" y1="98.01" y2="91.11"/>
    </g>
    <g stroke="#000000" stroke-width="1.0">
      <line x1="632.72" x2="607.12" y1="142.31" y2="135.42"/>
      <line x1="631.08" x2="611.88" y1="135.66" y2="130.49"/>
    </g>
    <g stroke="#000000" stroke-width="1.0">
      <line x1="588.37" x2="569.62" y1="154.17" y2="135.42"/>
    </g>
    <g stroke="#000000" stroke-width="1.0">
      <line x1="576.48" x2="557.73" y1="198.51" y2="217.26"/>
      <line x1="569.89" x2="555.83" y1="196.61" y2="210.67"/>
    </g>
    <g stroke="#000000" stroke-width="1.0">
      <line x1="588.37" x2="607.12" y1="154.17" y2="135.42"/>
    </g>
    <g stroke="#000000" stroke-width="1.0">
      <line x1="544.06" x2="525.32" y1="142.28" y2="123.53"/>
      <line x1="545.96" x2="531.90" y1="135.69" y2="121.63"/>
    </g>
    <g stroke="#000000" stroke-width="1.0">
      <line x1="651.46" x2="632.72" y1="123.57" y2="142.31"/>
    </g>
    <g stroke="#000000" stroke-width="1.0">
      <line x1="607.12" x2="600.26" y1="135.42" y2="109.86"/>
    </g>
    <g stroke="#000000" stroke-width="1.0">
      <line x1="544.02" x2="569.62" y1="166.06" y2="172.91"/>
      <line x1="545.67" x2="564.87" y1="172.71" y2="177.85"/>
    </g>
    <g stroke="#000000" stroke-width="1.0">
      <line x1="651.46" x2="644.61" y1="123.57" y2="98.01"/>
      <line x1="644.81" x2="639.67" y1="121.93" y2="102.76"/>
    </g>
    <g stroke="#000000" stroke-width="1.0">
      <line x1="532.17" x2="519.24" y1="97.93" y2="85.00"/>
    </g>
    <g stroke="#000000" stroke-width="1.0">
      <line x1="557.73" x2="532.17" y1="91.08" y2="97.93"/>
      <line x1="556.09" x2="536.92" y1="97.73" y2="102.87"/>
    </g>
    <g stroke="#000000" stroke-width="1.0">
      <line x1="557.73" x2="576.48" y1="91.08" y2="109.82"/>
    </g>
    <g stroke="#000000" stroke-width="1.0">
      <line x1="525.28" x2="532.10" y1="184.80" y2="210.37"/>
      <line x1="531.93" x2="537.04" y1="186.45" y2="205.63"/>
    </g>
    <g stroke="#000000" stroke-width="1.0">
      <line x1="644.61" x2="657.61" y1="98.01" y2="85.00"/>
    </g>
    <g stroke="#000000" stroke-width="1.0">
      <line x1="569.62" x2="544.06" y1="135.42" y2="142.28"/>
    </g>
    <g stroke="#000000" stroke-width="1.0">
      <line x1="532.17" x2="525.32" y1="97.93" y2="123.53"/>
    </g>
    <g stroke="#000000" stroke-width="1.0">
      <line x1="576.48" x2="596.63" y1="198.51" y2="198.51"/>
    </g>
    <g stroke="#000000" stroke-width="1.0">
      <line x1="600.26" x2="619.01" y1="109.86" y2="91.11"/>
      <line x1="606.85" x2="620.91" y1="111.76" y2="97.70"/>
    </g>
    <g stroke="#000000" stroke-width="1.0">
      <line x1="569.62" x2="576.48" y1="172.91" y2="198.51"/>
    </g>
    <g stroke="#000000" stroke-width="1.0">
      <line x1="532.10" x2="557.73" y1="210.37" y2="217.26"/>
    </g>
    <g stroke="#000000" stroke-width="1.0">
      <line x1="525.28" x2="544.02" y1="184.80" y2="166.06"/>
    </g>
    <g stroke="#000000" stroke-width="1.0">
      <line x1="588.37" x2="569.62" y1="154.17" y2="172.91"/>
    </g>
    <text fill="#000000" font-family="STIX Two Text" font-size="12pt" x="598.30" y="202.51">COO</text>
    <g>
      <ellipse cx="639.903550296" cy="192.378698225" fill="none" rx="5.0" ry="5.0" stroke="#000" stroke-width="1"/>
      <line fill="#000" stroke="#000" stroke-width="1" x1="636.903550296" x2="642.903550296" y1="192.378698225" y2="192.378698225"/>
    </g>
    <text fill="#000000" font-family="STIX Two Text" font-size="12pt" x="658.30" y="83.26">OH</text>
    <text fill="#000000" font-family="STIX Two Text" font-size="12pt" x="496.30" y="83.19">HO</text>
    <text fill="#000000" font-family="STIX Two Text" font-size="12pt" x="601.30" y="176.91">OH</text>
    <text fill="#000000" font-family="STIX Two Text" font-size="12pt" x="575.30" y="247.73">HIn<tspan dy="-6" font-size="75%">−</tspan></text>
    <text fill="#000000" font-family="STIX Two Text" font-size="12pt" textLength="56" x="561.00" y="271.04">incoloro</text>
    <polyline fill="none" points="85.21,392.15 77.21,387.15 137.80,387.15" stroke="#000000" stroke-width="1.0"/>
    <polyline fill="none" points="77.21,381.15 137.80,381.15 129.80,376.15" stroke="#000000" stroke-width="1.0"/>
    <text fill="#000000" font-family="STIX Two Text" font-size="12pt" x="84.30" y="370.09">− H<tspan dy="6" font-size="75%">3</tspan><tspan dy="-6">O</tspan><tspan dy="-6" font-size="75%">+</tspan></text>
    <text fill="#000000" font-family="STIX Two Text" font-size="10pt" textLength="58" x="79.00" y="405.93">pH = 8-10</text>
    <g stroke="#000000" stroke-width="1.0">
      <line x1="272.16" x2="290.91" y1="389.87" y2="371.12"/>
      <line x1="270.26" x2="284.32" y1="383.28" y2="369.22"/>
    </g>
    <g stroke="#000000" stroke-width="1.0">
      <line x1="260.27" x2="279.02" y1="434.22" y2="415.47"/>
      <line x1="266.86" x2="280.91" y1="436.11" y2="422.06"/>
    </g>
    <g stroke="#000000" stroke-width="1.0">
      <line x1="272.16" x2="246.52" y1="389.87" y2="383.02"/>
    </g>
    <g stroke="#000000" stroke-width="1.0">
      <line x1="335.25" x2="316.47" y1="359.27" y2="378.02"/>
      <line x1="328.67" x2="314.58" y1="357.37" y2="371.43"/>
    </g>
    <g stroke="#000000" stroke-width="1.0">
      <line x1="239.67" x2="246.52" y1="357.42" y2="383.02"/>
      <line x1="234.73" x2="239.87" y1="362.17" y2="381.37"/>
    </g>
    <g stroke="#000000" stroke-width="1.0">
      <line x1="326.98" x2="339.67" y1="332.30" y2="319.59"/>
      <line x1="329.81" x2="342.50" y1="335.12" y2="322.41"/>
    </g>
    <g stroke="#000000" stroke-width="1.0">
      <line x1="195.32" x2="176.84" y1="369.34" y2="364.40"/>
    </g>
    <g stroke="#000000" stroke-width="1.0">
      <line x1="284.05" x2="302.80" y1="345.56" y2="326.82"/>
      <line x1="290.64" x2="304.70" y1="347.46" y2="333.40"/>
    </g>
    <g stroke="#000000" stroke-width="1.0">
      <line x1="246.52" x2="227.82" y1="383.02" y2="401.76"/>
    </g>
    <g stroke="#000000" stroke-width="1.0">
      <line x1="328.40" x2="302.80" y1="333.71" y2="326.82"/>
    </g>
    <g stroke="#000000" stroke-width="1.0">
      <line x1="227.82" x2="202.22" y1="401.76" y2="394.94"/>
      <line x1="226.16" x2="206.96" y1="395.11" y2="390.00"/>
    </g>
    <g stroke="#000000" stroke-width="1.0">
      <line x1="279.02" x2="272.16" y1="415.47" y2="389.87"/>
    </g>
    <g stroke="#000000" stroke-width="1.0">
      <line x1="316.47" x2="290.91" y1="378.02" y2="371.12"/>
    </g>
    <g stroke="#000000" stroke-width="1.0">
      <line x1="304.58" x2="316.90" y1="422.32" y2="410.00"/>
    </g>
    <g stroke="#000000" stroke-width="1.0">
      <line x1="267.16" x2="292.72" y1="459.82" y2="466.67"/>
      <line x1="271.91" x2="291.08" y1="454.88" y2="460.02"/>
    </g>
    <g stroke="#000000" stroke-width="1.0">
      <line x1="290.91" x2="284.05" y1="371.12" y2="345.56"/>
    </g>
    <g stroke="#000000" stroke-width="1.0">
      <line x1="292.72" x2="311.47" y1="466.67" y2="447.92"/>
    </g>
    <g stroke="#000000" stroke-width="1.0">
      <line x1="335.25" x2="328.40" y1="359.27" y2="333.71"/>
    </g>
    <g stroke="#000000" stroke-width="1.0">
      <line x1="267.16" x2="260.27" y1="459.82" y2="434.22"/>
    </g>
    <g stroke="#000000" stroke-width="1.0">
      <line x1="214.03" x2="195.32" y1="350.60" y2="369.34"/>
      <line x1="215.94" x2="201.91" y1="357.18" y2="371.24"/>
    </g>
    <g stroke="#000000" stroke-width="1.0">
      <line x1="279.02" x2="304.58" y1="415.47" y2="422.32"/>
    </g>
    <g stroke="#000000" stroke-width="1.0">
      <line x1="195.32" x2="202.22" y1="369.34" y2="394.94"/>
    </g>
    <g stroke="#000000" stroke-width="1.0">
      <line x1="304.58" x2="311.47" y1="422.32" y2="447.92"/>
      <line x1="299.65" x2="304.81" y1="427.08" y2="446.28"/>
    </g>
    <g stroke="#000000" stroke-width="1.0">
      <line x1="214.03" x2="239.67" y1="350.60" y2="357.42"/>
    </g>
    <text fill="#000000" font-family="STIX Two Text" font-size="12pt" x="318.30" y="407.58">COO</text>
    <text fill="#000000" font-family="STIX Two Text" font-size="12pt" x="341.30" y="318.96">O</text>
    <g>
      <ellipse cx="359.223668639" cy="398.542011834" fill="none" rx="5.0" ry="5.0" stroke="#000" stroke-width="1"/>
      <line fill="#000" stroke="#000" stroke-width="1" x1="356.223668639" x2="362.223668639" y1="398.542011834" y2="398.542011834"/>
    </g>
    <text fill="#000000" font-family="STIX Two Text" font-size="12pt" x="164.30" y="366.49">O</text>
    <g>
      <ellipse cx="155.976331361" cy="359.043786982" fill="none" rx="5.0" ry="5.0" stroke="#000" stroke-width="1"/>
      <line fill="#000" stroke="#000" stroke-width="1" x1="152.976331361" x2="158.976331361" y1="359.043786982" y2="359.043786982"/>
    </g>
    <polyline fill="none" points="241.72,293.87 279.18,325.69" stroke="#ff0000" stroke-width="1.0"/>
    <polygon fill="#ff0000" fill-rule="evenodd" points="285.27,330.87 279.59,322.11 279.18,325.69 275.71,326.68" stroke="#ff0000" stroke-width="1"/>
    <text fill="#000000" font-family="STIX Two Text" font-size="12pt" x="265.30" y="493.43">In<tspan dy="-6" font-size="75%">2−</tspan></text>
    <text fill="#000000" font-family="STIX Two Text" font-size="12pt" textLength="26" x="260.00" y="517.27">rojo</text>
    <polyline fill="none" points="393.63,391.62 385.63,386.62 446.22,386.62" stroke="#000000" stroke-width="1.0"/>
    <polyline fill="none" points="385.63,380.62 446.22,380.62 438.22,375.62" stroke="#000000" stroke-width="1.0"/>
    <text fill="#000000" font-family="STIX Two Text" font-size="12pt" x="396.30" y="370.09">+ OH<tspan dy="-6" font-size="75%">−</tspan></text>
    <g stroke="#000000" stroke-width="1.0">
      <line x1="528.05" x2="534.91" y1="415.13" y2="440.73"/>
    </g>
    <g stroke="#000000" stroke-width="1.0">
      <line x1="603.04" x2="616.26" y1="340.22" y2="327.00"/>
    </g>
    <g stroke="#000000" stroke-width="1.0">
      <line x1="609.89" x2="591.14" y1="365.78" y2="384.53"/>
    </g>
    <g stroke="#000000" stroke-width="1.0">
      <line x1="591.14" x2="565.54" y1="384.53" y2="377.64"/>
      <line x1="589.50" x2="570.30" y1="377.87" y2="372.71"/>
    </g>
    <g stroke="#000000" stroke-width="1.0">
      <line x1="565.54" x2="558.69" y1="377.64" y2="352.08"/>
    </g>
    <g stroke="#000000" stroke-width="1.0">
      <line x1="516.16" x2="490.60" y1="333.29" y2="340.15"/>
      <line x1="514.52" x2="495.35" y1="339.94" y2="345.09"/>
    </g>
    <g stroke="#000000" stroke-width="1.0">
      <line x1="490.52" x2="516.16" y1="452.58" y2="459.47"/>
    </g>
    <g stroke="#000000" stroke-width="1.0">
      <line x1="546.80" x2="565.54" y1="396.38" y2="377.64"/>
    </g>
    <g stroke="#000000" stroke-width="1.0">
      <line x1="483.71" x2="502.45" y1="427.02" y2="408.27"/>
    </g>
    <g stroke="#000000" stroke-width="1.0">
      <line x1="546.80" x2="558.20" y1="396.38" y2="407.79"/>
    </g>
    <g stroke="#000000" stroke-width="1.0">
      <line x1="546.80" x2="528.05" y1="396.38" y2="377.64"/>
    </g>
    <g stroke="#000000" stroke-width="1.0">
      <line x1="558.69" x2="577.44" y1="352.08" y2="333.33"/>
      <line x1="565.28" x2="579.33" y1="353.98" y2="339.92"/>
    </g>
    <g stroke="#000000" stroke-width="1.0">
      <line x1="516.16" x2="534.91" y1="333.29" y2="352.04"/>
    </g>
    <g stroke="#000000" stroke-width="1.0">
      <line x1="534.91" x2="555.20" y1="440.73" y2="440.73"/>
    </g>
    <g stroke="#000000" stroke-width="1.0">
      <line x1="609.89" x2="603.04" y1="365.78" y2="340.22"/>
      <line x1="603.24" x2="598.10" y1="364.14" y2="344.97"/>
    </g>
    <g stroke="#000000" stroke-width="1.0">
      <line x1="490.60" x2="477.45" y1="340.15" y2="327.00"/>
    </g>
    <g stroke="#000000" stroke-width="1.0">
      <line x1="546.80" x2="528.05" y1="396.38" y2="415.13"/>
    </g>
    <g stroke="#000000" stroke-width="1.0">
      <line x1="534.91" x2="516.16" y1="440.73" y2="459.47"/>
      <line x1="528.32" x2="514.26" y1="438.83" y2="452.89"/>
    </g>
    <g stroke="#000000" stroke-width="1.0">
      <line x1="490.60" x2="483.75" y1="340.15" y2="365.75"/>
    </g>
    <g stroke="#000000" stroke-width="1.0">
      <line x1="483.71" x2="490.52" y1="427.02" y2="452.58"/>
      <line x1="490.36" x2="495.47" y1="428.67" y2="447.84"/>
    </g>
    <g stroke="#000000" stroke-width="1.0">
      <line x1="502.49" x2="483.75" y1="384.49" y2="365.75"/>
      <line x1="504.39" x2="490.33" y1="377.91" y2="363.85"/>
    </g>
    <g stroke="#000000" stroke-width="1.0">
      <line x1="528.05" x2="502.49" y1="377.64" y2="384.49"/>
    </g>
    <g stroke="#000000" stroke-width="1.0">
      <line x1="534.91" x2="528.05" y1="352.04" y2="377.64"/>
      <line x1="528.26" x2="523.11" y1="353.69" y2="372.89"/>
    </g>
    <g stroke="#000000" stroke-width="1.0">
      <line x1="603.04" x2="577.44" y1="340.22" y2="333.33"/>
    </g>
    <g stroke="#000000" stroke-width="1.0">
      <line x1="502.45" x2="528.05" y1="408.27" y2="415.13"/>
      <line x1="504.10" x2="523.30" y1="414.93" y2="420.07"/>
    </g>
    <text fill="#000000" font-family="STIX Two Text" font-size="12pt" x="556.30" y="444.73">COO</text>
    <g>
      <ellipse cx="598.332544379" cy="434.59408284" fill="none" rx="5.0" ry="5.0" stroke="#000" stroke-width="1"/>
      <line fill="#000" stroke="#000" stroke-width="1" x1="595.332544379" x2="601.332544379" y1="434.59408284" y2="434.59408284"/>
    </g>
    <text fill="#000000" font-family="STIX Two Text" font-size="12pt" x="559.30" y="419.13">OH</text>
    <text fill="#000000" font-family="STIX Two Text" font-size="12pt" x="616.30" y="325.48">O</text>
    <g>
      <ellipse cx="633.596449704" cy="309.661538462" fill="none" rx="5.0" ry="5.0" stroke="#000" stroke-width="1"/>
      <line fill="#000" stroke="#000" stroke-width="1" x1="630.596449704" x2="636.596449704" y1="309.661538462" y2="309.661538462"/>
    </g>
    <text fill="#000000" font-family="STIX Two Text" font-size="12pt" x="466.30" y="325.40">O</text>
    <g>
      <ellipse cx="460.039053254" cy="309.547928994" fill="none" rx="5.0" ry="5.0" stroke="#000" stroke-width="1"/>
      <line fill="#000" stroke="#000" stroke-width="1" x1="457.039053254" x2="463.039053254" y1="309.547928994" y2="309.547928994"/>
    </g>
    <text fill="#000000" font-family="STIX Two Text" font-size="12pt" x="540.30" y="492.94">In<tspan dy="-6" font-size="75%">3−</tspan></text>
    <text fill="#000000" font-family="STIX Two Text" font-size="12pt" textLength="56" x="519.00" y="516.78">incoloro</text>
  </g>
</svg>
