<?xml version="1.0" encoding="UTF-8"?>
<!-- Created with Inkscape (http://www.inkscape.org/) -->
<svg width="468.66" height="288" version="1.1" viewBox="0 0 468.66 288" xmlns="http://www.w3.org/2000/svg" xmlns:cc="http://creativecommons.org/ns#" xmlns:dc="http://purl.org/dc/elements/1.1/" xmlns:ns0="http://www.iki.fi/pav/software/textext/" xmlns:rdf="http://www.w3.org/1999/02/22-rdf-syntax-ns#">
 <style type="text/css">
  @import url('../estilo.css');
 </style>
 <defs>
  <marker id="marker2184" overflow="visible" orient="auto">
   <path transform="matrix(-1.1,0,0,-1.1,-1.1,0)" d="m8.7186 4.0337-10.926-4.0177 10.926-4.0177c-1.7455 2.3721-1.7354 5.6175-6e-7 8.0354z" fill-rule="evenodd" stroke="#000" stroke-linejoin="round" stroke-width=".625"/>
  </marker>
  <marker id="marker2302" overflow="visible" orient="auto">
   <path transform="matrix(-1.1,0,0,-1.1,-1.1,0)" d="m8.7186 4.0337-10.926-4.0177 10.926-4.0177c-1.7455 2.3721-1.7354 5.6175-6e-7 8.0354z" fill-rule="evenodd" stroke="#000" stroke-linejoin="round" stroke-width=".625"/>
  </marker>
  <marker id="marker1051-3" overflow="visible" orient="auto">
   <path transform="matrix(-1.1,0,0,-1.1,-1.1,0)" d="m8.7186 4.0337-10.926-4.0177 10.926-4.0177c-1.7455 2.3721-1.7354 5.6175-6e-7 8.0354z" fill-rule="evenodd" stroke="#000" stroke-linejoin="round" stroke-width=".625"/>
  </marker>
  <marker id="marker1193-7" overflow="visible" orient="auto">
   <path transform="matrix(-1.1,0,0,-1.1,-1.1,0)" d="m8.7186 4.0337-10.926-4.0177 10.926-4.0177c-1.7455 2.3721-1.7354 5.6175-6e-7 8.0354z" fill-rule="evenodd" stroke="#000" stroke-linejoin="round" stroke-width=".625"/>
  </marker>
  <marker id="Arrow2Lend" overflow="visible" orient="auto">
   <path transform="matrix(-1.1,0,0,-1.1,-1.1,0)" d="m8.7186 4.0337-10.926-4.0177 10.926-4.0177c-1.7455 2.3721-1.7354 5.6175-6e-7 8.0354z" fill-rule="evenodd" stroke="#000" stroke-linejoin="round" stroke-width=".625"/>
  </marker>
 </defs>
 <metadata>
  <rdf:RDF>
   <cc:Work rdf:about="">
    <dc:format>image/svg+xml</dc:format>
    <dc:type rdf:resource="http://purl.org/dc/dcmitype/StillImage"/>
    <dc:title/>
   </cc:Work>
  </rdf:RDF>
 </metadata>
 <g transform="translate(-66.032 -39.412)">
  <path d="m150 122.52v50" fill="none" marker-end="url(#Arrow2Lend)" stroke="#000" stroke-width="1px"/>
  <g>
   <text x="150.02473" y="56.989655" fill="#000000" font-family="'STIX Two Text'" font-size="19px" letter-spacing="0px" text-anchor="middle" word-spacing="0px" style="font-feature-settings:normal;font-variant-caps:normal;font-variant-ligatures:normal;font-variant-numeric:normal;line-height:1.25" xml:space="preserve"><tspan x="150.02473" y="56.989655" text-align="center">A<tspan dy="6" font-size="65%" text-align="center" text-anchor="middle">(l)</tspan></tspan><tspan x="150.02473" y="80.739655" text-align="center">(puro, <tspan font-family="'STIX Two Text'" font-style="italic" text-align="center" text-anchor="middle">P</tspan> = 1 atm, <tspan font-family="'STIX Two Text'" font-style="italic" text-align="center" text-anchor="middle">T</tspan>)</tspan></text>
   <g transform="matrix(2 0 0 -2 -163.84 1417.8)" fill-rule="evenodd" stroke="#000" stroke-miterlimit="10.433" stroke-width="0" inkscapeversion="0.92.4" ns0:alignment="middle center" ns0:jacobian_sqrt="2.000001" ns0:pdfconverter="pstoedit" ns0:preamble="/home/antonio/.config/inkscape/extensions/textext/default_packages.tex" ns0:scale="1.5" ns0:texconverter="pdflatex" ns0:text="$a_{\\rm A(l)}^\\circ$" ns0:version="0.10.0" xml:space="preserve">
<path d="m153.34 658.33-0.01-0.02-0.02-0.01-0.02-0.02-0.01-0.02-0.02-0.01-0.05-0.05h-0.01l-0.01-0.01v-0.01l-0.02-0.02h-0.01l-0.01-0.01-0.01-0.02-0.01-0.01-0.02-0.01-0.01-0.02-0.04-0.04c-0.3-0.31-0.43-0.41-0.52-0.41-0.08 0-0.14 0.06-0.14 0.13 0 0.2 0.42 1.9 0.89 3.61 0.03 0.1 0.04 0.12 0.06 0.21l-0.07 0.03-0.61-0.07-0.03-0.03-0.11-0.48c-0.08 0.37-0.37 0.58-0.8 0.58l0.06-0.22c0.34-0.02 0.56-0.26 0.56-0.61 0-0.83-0.5-2.01-1.19-2.74-0.23-0.27-0.57-0.44-0.86-0.44-0.35 0-0.58 0.29-0.58 0.75 0 0.53 0.38 1.56 0.81 2.17 0.4 0.58 0.87 0.9 1.26 0.87l-0.06 0.22c-1.31 0-2.85-1.82-2.85-3.39 0-0.7 0.38-1.1 1.02-1.1 0.7 0 1.13 0.32 2 1.55-0.2-0.77-0.23-0.9-0.23-1.14 0-0.28 0.12-0.4 0.4-0.4 0.4 0 0.65 0.18 1.39 1.09z"/>
<path d="m156.74 662.64-0.01 0.07v0.06l-0.01 0.07-0.02 0.12-0.04 0.12-0.03 0.06-0.02 0.06-0.03 0.06-0.03 0.05-0.04 0.05-0.03 0.05-0.08 0.1-0.09 0.09-0.1 0.08-0.05 0.03-0.05 0.04-0.05 0.03-0.06 0.02-0.06 0.03-0.24 0.08-0.07 0.01-0.06 0.01h-0.14v-0.33c0.53 0 0.97-0.43 0.97-0.96 0-0.54-0.44-0.96-0.97-0.96-0.54 0-0.97 0.42-0.97 0.96 0 0.53 0.43 0.96 0.97 0.96v0.33c-0.73 0-1.3-0.58-1.3-1.29 0-0.72 0.57-1.29 1.3-1.29 0.72 0 1.31 0.57 1.31 1.29z"/>
<path d="m158.63 653.99-0.03 0.01h-0.08l-0.02 0.01h-0.02l-0.03 0.01h-0.02l-0.04 0.02-0.01 0.01-0.06 0.03-0.01 0.02-0.02 0.01-0.05 0.05-0.02 0.03-0.01 0.02-0.02 0.02-0.01 0.03-0.06 0.09-0.02 0.04-0.01 0.04-0.02 0.03-0.03 0.05-0.03 0.06-0.01 0.03-1.74 3.95h-0.14l-1.45-3.42c-0.45-1.01-0.54-1.12-0.87-1.14v-0.13h1.38v0.13c-0.33 0-0.47 0.09-0.47 0.29 0 0.08 0.02 0.18 0.05 0.27l0.33 0.81h1.83l-0.1 0.29h-1.62l0.81 1.91 0.81-1.91 0.1-0.29 0.28-0.66c0.09-0.19 0.14-0.37 0.14-0.47 0-0.17-0.12-0.23-0.49-0.24v-0.13h1.78z"/>
<path d="m160.79 658.56-0.05-0.03-0.04-0.03-0.05-0.03-0.04-0.03-0.04-0.02-0.08-0.06-0.03-0.02-0.04-0.03-0.03-0.03-0.04-0.02-0.03-0.02-0.03-0.03-0.03-0.02-0.06-0.05-0.1-0.1-0.05-0.04-0.05-0.05-0.05-0.06-0.1-0.1-0.04-0.06c-0.5-0.61-0.74-1.3-0.74-2.12 0-0.88 0.25-1.56 0.87-2.27 0.29-0.33 0.47-0.49 0.83-0.71l0.08 0.11c-0.56 0.44-0.75 0.68-0.94 1.2-0.17 0.47-0.24 1-0.24 1.69 0 0.73 0.09 1.3 0.28 1.74 0.19 0.43 0.4 0.68 0.9 1.08z"/>
<path d="m161.18 658.19h0.05c0.07 0.01 0.16 0.02 0.21 0.02 0.23 0 0.3-0.1 0.3-0.43v-3.31c0-0.38-0.1-0.47-0.54-0.5v-0.11h1.65v0.11c-0.44 0.02-0.53 0.09-0.53 0.48v4.15l-0.02 0.01c-0.37-0.12-0.63-0.19-1.12-0.31z"/>
<path d="m163.26 652.63 0.04 0.03 0.05 0.03 0.04 0.03 0.05 0.03 0.04 0.03 0.04 0.02 0.03 0.03 0.04 0.03 0.04 0.02 0.03 0.03 0.03 0.02 0.04 0.03 0.06 0.04 0.06 0.05 0.3 0.3 0.04 0.06 0.05 0.06c0.5 0.6 0.74 1.3 0.74 2.11 0 0.89-0.26 1.56-0.87 2.27-0.29 0.34-0.47 0.49-0.83 0.71l-0.09-0.11c0.56-0.44 0.75-0.68 0.95-1.2 0.16-0.47 0.24-1 0.24-1.69 0-0.73-0.09-1.3-0.28-1.73s-0.4-0.68-0.91-1.09z"/>
</g>
   <text x="150.02473" y="194.58966" fill="#000000" font-family="'STIX Two Text'" font-size="19px" letter-spacing="0px" text-align="center" text-anchor="middle" word-spacing="0px" style="font-feature-settings:normal;font-variant-caps:normal;font-variant-ligatures:normal;font-variant-numeric:normal;line-height:1.25" xml:space="preserve"><tspan x="150.02473" y="194.58966">A<tspan dy="6" font-size="65%">(l)</tspan></tspan><tspan x="150.02473" y="218.33966">(puro, <tspan font-family="'STIX Two Text'" font-style="italic">P</tspan>, <tspan font-family="'STIX Two Text'" font-style="italic">T</tspan>)</tspan></text>
   <g id="content" transform="matrix(2 0 0 -2 -163.84 1555.5)" fill-rule="evenodd" stroke="#000" stroke-miterlimit="10.433" stroke-width="0" inkscapeversion="0.92.4" ns0:alignment="middle center" ns0:jacobian_sqrt="2.000001" ns0:pdfconverter="pstoedit" ns0:preamble="/home/antonio/.config/inkscape/extensions/textext/default_packages.tex" ns0:scale="1.5" ns0:texconverter="pdflatex" ns0:text="$a_{\\rm A(l)}^*$" ns0:version="0.10.0" xml:space="preserve">
<path d="m153.34 658.33-0.01-0.02-0.02-0.01-0.02-0.02-0.01-0.02-0.02-0.01-0.05-0.05h-0.01l-0.01-0.01v-0.01l-0.02-0.02h-0.01l-0.01-0.01-0.01-0.02-0.01-0.01-0.02-0.01-0.01-0.02-0.04-0.04c-0.3-0.31-0.43-0.41-0.52-0.41-0.08 0-0.14 0.06-0.14 0.13 0 0.2 0.42 1.9 0.89 3.61 0.03 0.1 0.04 0.12 0.06 0.21l-0.07 0.03-0.61-0.07-0.03-0.03-0.11-0.48c-0.08 0.37-0.37 0.58-0.8 0.58l0.06-0.22c0.34-0.02 0.56-0.26 0.56-0.61 0-0.83-0.5-2.01-1.19-2.74-0.23-0.27-0.57-0.44-0.86-0.44-0.35 0-0.58 0.29-0.58 0.75 0 0.53 0.38 1.56 0.81 2.17 0.4 0.58 0.87 0.9 1.26 0.87l-0.06 0.22c-1.31 0-2.85-1.82-2.85-3.39 0-0.7 0.38-1.1 1.02-1.1 0.7 0 1.13 0.32 2 1.55-0.2-0.77-0.23-0.9-0.23-1.14 0-0.28 0.12-0.4 0.4-0.4 0.4 0 0.65 0.18 1.39 1.09z"/>
<path d="m156.55 663.17v0.06l-0.01 0.01v0.02l-0.01 0.01v0.01l-0.01 0.01v0.01l-0.02 0.02v0.01l-0.06 0.06h-0.01l-0.01 0.01h-0.01l-0.01 0.01h-0.04l-0.01 0.01h-0.02c-0.16 0-0.73-0.57-0.94-0.69 0 0.39 0.2 0.78 0.2 1.01 0 0.15-0.1 0.24-0.25 0.24-0.14 0-0.22-0.1-0.22-0.24 0-0.27 0.17-0.64 0.17-1.01-0.23 0.13-0.77 0.72-0.92 0.72-0.12 0-0.24-0.12-0.24-0.25 0-0.24 0.83-0.41 1.1-0.56-0.29-0.17-0.84-0.25-0.98-0.34-0.07-0.05-0.12-0.11-0.12-0.2 0-0.13 0.1-0.24 0.22-0.24 0.16 0 0.73 0.56 0.94 0.68 0-0.38-0.2-0.77-0.2-1.01 0-0.14 0.11-0.24 0.25-0.24s0.22 0.1 0.22 0.24c0 0.28-0.16 0.64-0.16 1.01 0.22-0.12 0.77-0.71 0.91-0.71 0.12 0 0.24 0.12 0.24 0.25 0 0.09-0.07 0.15-0.14 0.19-0.18 0.12-0.66 0.2-0.96 0.37 0.33 0.19 0.78 0.22 0.98 0.34 0.08 0.04 0.12 0.1 0.12 0.19z"/>
<path d="m158.63 653.99-0.03 0.01h-0.08l-0.02 0.01h-0.02l-0.03 0.01h-0.02l-0.04 0.02-0.01 0.01-0.06 0.03-0.01 0.02-0.02 0.01-0.05 0.05-0.02 0.03-0.01 0.02-0.02 0.02-0.01 0.03-0.06 0.09-0.02 0.04-0.01 0.04-0.02 0.03-0.03 0.05-0.03 0.06-0.01 0.03-1.74 3.95h-0.14l-1.45-3.42c-0.45-1.01-0.54-1.12-0.87-1.14v-0.13h1.38v0.13c-0.33 0-0.47 0.09-0.47 0.29 0 0.08 0.02 0.18 0.05 0.27l0.33 0.81h1.83l-0.1 0.29h-1.62l0.81 1.91 0.81-1.91 0.1-0.29 0.28-0.66c0.09-0.19 0.14-0.37 0.14-0.47 0-0.17-0.12-0.23-0.49-0.24v-0.13h1.78z"/>
<path d="m160.79 658.56-0.05-0.03-0.04-0.03-0.05-0.03-0.04-0.03-0.04-0.02-0.08-0.06-0.03-0.02-0.04-0.03-0.03-0.03-0.04-0.02-0.03-0.02-0.03-0.03-0.03-0.02-0.06-0.05-0.1-0.1-0.05-0.04-0.05-0.05-0.05-0.06-0.1-0.1-0.04-0.06c-0.5-0.61-0.74-1.3-0.74-2.12 0-0.88 0.25-1.56 0.87-2.27 0.29-0.33 0.47-0.49 0.83-0.71l0.08 0.11c-0.56 0.44-0.75 0.68-0.94 1.2-0.17 0.47-0.24 1-0.24 1.69 0 0.73 0.09 1.3 0.28 1.74 0.19 0.43 0.4 0.68 0.9 1.08z"/>
<path d="m161.18 658.19h0.05c0.07 0.01 0.16 0.02 0.21 0.02 0.23 0 0.3-0.1 0.3-0.43v-3.31c0-0.38-0.1-0.47-0.54-0.5v-0.11h1.65v0.11c-0.44 0.02-0.53 0.09-0.53 0.48v4.15l-0.02 0.01c-0.37-0.12-0.63-0.19-1.12-0.31z"/>
<path d="m163.26 652.63 0.04 0.03 0.05 0.03 0.04 0.03 0.05 0.03 0.04 0.03 0.04 0.02 0.03 0.03 0.04 0.03 0.04 0.02 0.03 0.03 0.03 0.02 0.04 0.03 0.06 0.04 0.06 0.05 0.3 0.3 0.04 0.06 0.05 0.06c0.5 0.6 0.74 1.3 0.74 2.11 0 0.89-0.26 1.56-0.87 2.27-0.29 0.34-0.47 0.49-0.83 0.71l-0.09-0.11c0.56-0.44 0.75-0.68 0.95-1.2 0.16-0.47 0.24-1 0.24-1.69 0-0.73-0.09-1.3-0.28-1.73s-0.4-0.68-0.91-1.09z"/>
</g>
   <text x="460.50665" y="194.58966" fill="#000000" font-family="'STIX Two Text'" font-size="19px" letter-spacing="0px" text-align="center" text-anchor="middle" word-spacing="0px" style="font-feature-settings:normal;font-variant-caps:normal;font-variant-ligatures:normal;font-variant-numeric:normal;line-height:1.25" xml:space="preserve"><tspan x="460.50665" y="194.58966">A<tspan dy="6" font-size="65%">(g)</tspan></tspan><tspan x="460.50665" y="218.33966">(mezcla, <tspan font-family="'STIX Two Text'" font-style="italic">P</tspan>, <tspan font-family="'STIX Two Text'" font-style="italic">P</tspan><tspan dy="6" font-family="'STIX Two Text'" font-size="65%">A</tspan><tspan dy="-6">, </tspan><tspan font-family="'STIX Two Text'" font-style="italic">T</tspan>)</tspan></text>
   <text x="460.50665" y="56.989655" fill="#000000" font-family="'STIX Two Text'" font-size="19px" letter-spacing="0px" text-anchor="middle" word-spacing="0px" style="font-feature-settings:normal;font-variant-caps:normal;font-variant-ligatures:normal;font-variant-numeric:normal;line-height:1.25" xml:space="preserve"><tspan x="460.50665" y="56.989655" text-align="center">A<tspan dy="6" font-size="65%" text-align="center" text-anchor="middle">(l)</tspan></tspan><tspan x="460.50665" y="80.739655" text-align="center">(mezcla, <tspan font-family="'STIX Two Text'" font-style="italic">P</tspan>, <tspan font-family="'STIX Two Text'" font-style="italic">T</tspan>, <tspan font-family="'STIX Two Text'" font-style="italic">x</tspan><tspan dy="6" font-size="65%">A</tspan><tspan dy="-6">)</tspan></tspan></text>
  </g>
  <g transform="rotate(60 432.58 380.33)" fill="none" stroke="#000" stroke-width="1px">
   <path d="m225.54 224.48 43.301 25" marker-end="url(#marker2184)"/>
   <path d="m265.75 255.85-43.301-25" marker-end="url(#marker2302)"/>
  </g>
  <path d="m240.3 64.683h139.13" fill="none" marker-end="url(#marker1193-7)" stroke="#000" stroke-width="1px"/>
  <g fill="#000000" font-family="'STIX Two Text'" letter-spacing="0px" word-spacing="0px">
   <text x="301.2554" y="84.199646" font-size="16px" style="font-feature-settings:normal;font-variant-caps:normal;font-variant-ligatures:normal;font-variant-numeric:normal;line-height:1.25" xml:space="preserve"><tspan x="301.2554" y="84.199646">(1)</tspan></text>
   <text x="159.52" y="152.7075" font-size="16px" style="font-feature-settings:normal;font-variant-caps:normal;font-variant-ligatures:normal;font-variant-numeric:normal;line-height:1.25" xml:space="preserve"><tspan x="159.52" y="152.7075">(2)</tspan></text>
   <text x="295.32663" y="266.58966" font-size="19px" text-align="center" text-anchor="middle" style="font-feature-settings:normal;font-variant-caps:normal;font-variant-ligatures:normal;font-variant-numeric:normal;line-height:1.25" xml:space="preserve"><tspan x="295.32663" y="266.58966">A<tspan dy="6" font-size="65%">(g)</tspan></tspan><tspan x="295.32663" y="290.33966">(puro, <tspan font-family="'STIX Two Text'" font-style="italic">P</tspan>, <tspan font-family="'STIX Two Text'" font-style="italic">P</tspan>*<tspan dx="-6.5" dy="6" font-size="65%">A</tspan><tspan dy="-6">, </tspan><tspan font-family="'STIX Two Text'" font-style="italic">T</tspan>)</tspan></text>
  </g>
  <g transform="matrix(2 0 0 -2 -20.091 1627.3)" fill-rule="evenodd" stroke="#000" stroke-miterlimit="10.433" stroke-width="0" inkscapeversion="0.92.4" ns0:alignment="middle center" ns0:jacobian_sqrt="2.000001" ns0:pdfconverter="pstoedit" ns0:preamble="/home/antonio/.config/inkscape/extensions/textext/default_packages.tex" ns0:scale="1.5" ns0:texconverter="pdflatex" ns0:text="$a_{\\rm A(g)}^*$" ns0:version="0.10.0" xml:space="preserve">
<path d="m153.34 658.33-0.01-0.02-0.02-0.01-0.02-0.02-0.01-0.02-0.02-0.01-0.05-0.05h-0.01l-0.01-0.01v-0.01l-0.02-0.02h-0.01l-0.01-0.01-0.01-0.02-0.01-0.01-0.02-0.01-0.01-0.02-0.04-0.04c-0.3-0.31-0.43-0.41-0.52-0.41-0.08 0-0.14 0.06-0.14 0.13 0 0.2 0.42 1.9 0.89 3.61 0.03 0.1 0.04 0.12 0.06 0.21l-0.07 0.03-0.61-0.07-0.03-0.03-0.11-0.48c-0.08 0.37-0.37 0.58-0.8 0.58l0.06-0.22c0.34-0.02 0.56-0.26 0.56-0.61 0-0.83-0.5-2.01-1.19-2.74-0.23-0.27-0.57-0.44-0.86-0.44-0.35 0-0.58 0.29-0.58 0.75 0 0.53 0.38 1.56 0.81 2.17 0.4 0.58 0.87 0.9 1.26 0.87l-0.06 0.22c-1.31 0-2.85-1.82-2.85-3.39 0-0.7 0.38-1.1 1.02-1.1 0.7 0 1.13 0.32 2 1.55-0.2-0.77-0.23-0.9-0.23-1.14 0-0.28 0.12-0.4 0.4-0.4 0.4 0 0.65 0.18 1.39 1.09z"/>
<path d="m156.55 663.17v0.06l-0.01 0.01v0.02l-0.01 0.01v0.01l-0.01 0.01v0.01l-0.02 0.02v0.01l-0.06 0.06h-0.01l-0.01 0.01h-0.01l-0.01 0.01h-0.04l-0.01 0.01h-0.02c-0.16 0-0.73-0.57-0.94-0.69 0 0.39 0.2 0.78 0.2 1.01 0 0.15-0.1 0.24-0.25 0.24-0.14 0-0.22-0.1-0.22-0.24 0-0.27 0.17-0.64 0.17-1.01-0.23 0.13-0.77 0.72-0.92 0.72-0.12 0-0.24-0.12-0.24-0.25 0-0.24 0.83-0.41 1.1-0.56-0.29-0.17-0.84-0.25-0.98-0.34-0.07-0.05-0.12-0.11-0.12-0.2 0-0.13 0.1-0.24 0.22-0.24 0.16 0 0.73 0.56 0.94 0.68 0-0.38-0.2-0.77-0.2-1.01 0-0.14 0.11-0.24 0.25-0.24s0.22 0.1 0.22 0.24c0 0.28-0.16 0.64-0.16 1.01 0.22-0.12 0.77-0.71 0.91-0.71 0.12 0 0.24 0.12 0.24 0.25 0 0.09-0.07 0.15-0.14 0.19-0.18 0.12-0.66 0.2-0.96 0.37 0.33 0.19 0.78 0.22 0.98 0.34 0.08 0.04 0.12 0.1 0.12 0.19z"/>
<path d="m158.63 654.09h-0.08l-0.03 0.01h-0.02l-0.02 0.01h-0.03l-0.04 0.02h-0.02l-0.01 0.01-0.04 0.02-0.03 0.03-0.02 0.01-0.02 0.02-0.01 0.02-0.04 0.04-0.01 0.02-0.02 0.03-0.01 0.02-0.04 0.06-0.02 0.04-0.02 0.03-0.01 0.04-0.02 0.04-0.03 0.04-0.01 0.02-0.01 0.03-0.02 0.04-1.74 3.95h-0.14l-1.45-3.41c-0.45-1.02-0.54-1.13-0.87-1.14v-0.13h1.38v0.13c-0.33 0-0.47 0.09-0.47 0.28 0 0.09 0.02 0.18 0.05 0.27l0.33 0.82h1.83l-0.1 0.28h-1.62l0.81 1.91 0.81-1.91 0.1-0.28 0.28-0.67c0.09-0.19 0.14-0.37 0.14-0.47 0-0.17-0.12-0.23-0.49-0.23v-0.13h1.78z"/>
<path d="m160.79 658.66-0.05-0.03-0.04-0.03-0.05-0.03-0.12-0.09-0.04-0.02-0.03-0.03-0.04-0.03-0.03-0.02-0.04-0.03-0.06-0.04-0.03-0.03-0.06-0.05-0.05-0.04-0.25-0.25-0.05-0.06-0.04-0.06c-0.5-0.6-0.74-1.3-0.74-2.11 0-0.89 0.25-1.57 0.87-2.28 0.29-0.33 0.47-0.48 0.83-0.71l0.08 0.12c-0.56 0.43-0.75 0.68-0.94 1.2-0.17 0.46-0.24 0.99-0.24 1.69 0 0.73 0.09 1.3 0.28 1.73s0.4 0.68 0.9 1.08z"/>
<path d="m164.34 656.65v0.27h-0.54c-0.14 0-0.25 0.03-0.39 0.07l-0.15 0.06c-0.19 0.07-0.38 0.1-0.56 0.1-0.65 0-1.17-0.5-1.17-1.13 0-0.44 0.19-0.7 0.65-0.93-0.13-0.13-0.25-0.25-0.3-0.28-0.23-0.2-0.32-0.34-0.32-0.48 0-0.15 0.09-0.23 0.37-0.37l0.15-0.02c0.23-0.05 0.79-0.09 1.13-0.09 0.64 0 0.87-0.09 0.87-0.34 0-0.4-0.53-0.67-1.32-0.67-0.62 0-1.02 0.2-1.02 0.5 0 0.16 0.05 0.25 0.34 0.6l-0.15 0.02c-0.49-0.36-0.68-0.59-0.68-0.85 0-0.37 0.54-0.67 1.21-0.67 0.52 0 1.07 0.18 1.43 0.47 0.27 0.22 0.38 0.44 0.38 0.7 0 0.43-0.32 0.73-0.84 0.75l-0.9 0.04c-0.37 0.01-0.55 0.08-0.55 0.19 0 0.14 0.23 0.38 0.42 0.44 0.06-0.01 0.11-0.02 0.13-0.02 0.14-0.01 0.23-0.02 0.27-0.02l0.03 0.17c-0.42 0-0.72 0.46-0.72 1.12v0.02c0 0.42 0.2 0.66 0.52 0.66 0.22 0 0.4-0.12 0.51-0.33 0.13-0.24 0.21-0.56 0.21-0.83 0-0.39-0.2-0.64-0.52-0.64l-0.03-0.17c0.26 0 0.54 0.1 0.75 0.29 0.24 0.2 0.34 0.44 0.34 0.79 0 0.2-0.04 0.36-0.13 0.58z"/>
<path d="m164.8 652.72 0.1 0.06 0.08 0.06 0.05 0.03 0.03 0.03 0.04 0.02 0.08 0.06 0.03 0.02 0.03 0.03 0.03 0.02 0.04 0.02 0.08 0.08 0.06 0.04 0.2 0.2 0.04 0.05 0.1 0.12c0.5 0.6 0.74 1.3 0.74 2.11 0 0.89-0.26 1.57-0.87 2.28-0.29 0.33-0.47 0.48-0.84 0.71l-0.08-0.12c0.56-0.43 0.75-0.68 0.94-1.2 0.17-0.46 0.25-0.99 0.25-1.69 0-0.72-0.09-1.3-0.28-1.72-0.2-0.44-0.41-0.69-0.91-1.09z"/>
</g>
  <g transform="translate(-11.681 -4.5159e-6)" fill="none" stroke="#000" stroke-width="1px">
   <path d="m225.54 224.48 43.301 25" marker-end="url(#marker2184)"/>
   <path d="m265.75 255.85-43.301-25" marker-end="url(#marker2302)"/>
  </g>
  <path d="m332.4 255.85 43.301-25" fill="none" marker-end="url(#marker1051-3)" stroke="#000" stroke-width="1px"/>
  <g fill="#000000" font-family="'STIX Two Text'" font-size="16px" letter-spacing="0px" word-spacing="0px">
   <text x="237.83948" y="229.54366" style="font-feature-settings:normal;font-variant-caps:normal;font-variant-ligatures:normal;font-variant-numeric:normal;line-height:1.25" xml:space="preserve"><tspan x="237.83948" y="229.54366">(3)</tspan></text>
   <text x="331.90527" y="237.19965" style="font-feature-settings:normal;font-variant-caps:normal;font-variant-ligatures:normal;font-variant-numeric:normal;line-height:1.25" xml:space="preserve"><tspan x="331.90527" y="237.19965">(4)</tspan></text>
   <text x="429.58575" y="152.7075" style="font-feature-settings:normal;font-variant-caps:normal;font-variant-ligatures:normal;font-variant-numeric:normal;line-height:1.25" xml:space="preserve"><tspan x="429.58575" y="152.7075">(5)</tspan></text>
  </g>
  <g transform="matrix(2 0 0 -2 145.09 1552.9)" fill-rule="evenodd" stroke="#000" stroke-miterlimit="10.433" stroke-width="0" inkscapeversion="0.92.4" ns0:alignment="middle center" ns0:jacobian_sqrt="2.0" ns0:pdfconverter="pstoedit" ns0:preamble="/home/antonio/.config/inkscape/extensions/textext/default_packages.tex" ns0:scale="1.5" ns0:texconverter="pdflatex" ns0:text="$a_{\\rm A(g)}^{}$" ns0:version="0.10.0" xml:space="preserve">
<path d="m153.34 658.33-0.01-0.02-0.02-0.01-0.02-0.02-0.01-0.02-0.02-0.01-0.05-0.05h-0.01l-0.01-0.01v-0.01l-0.02-0.02h-0.01l-0.01-0.01-0.01-0.02-0.01-0.01-0.02-0.01-0.01-0.02-0.04-0.04c-0.3-0.31-0.43-0.41-0.52-0.41-0.08 0-0.14 0.06-0.14 0.13 0 0.2 0.42 1.9 0.89 3.61 0.03 0.1 0.04 0.12 0.06 0.21l-0.07 0.03-0.61-0.07-0.03-0.03-0.11-0.48c-0.08 0.37-0.37 0.58-0.8 0.58l0.06-0.22c0.34-0.02 0.56-0.26 0.56-0.61 0-0.83-0.5-2.01-1.19-2.74-0.23-0.27-0.57-0.44-0.86-0.44-0.35 0-0.58 0.29-0.58 0.75 0 0.53 0.38 1.56 0.81 2.17 0.4 0.58 0.87 0.9 1.26 0.87l-0.06 0.22c-1.31 0-2.85-1.82-2.85-3.39 0-0.7 0.38-1.1 1.02-1.1 0.7 0 1.13 0.32 2 1.55-0.2-0.77-0.23-0.9-0.23-1.14 0-0.28 0.12-0.4 0.4-0.4 0.4 0 0.65 0.18 1.39 1.09z"/>
<path d="m158.63 654.09h-0.08l-0.03 0.01h-0.02l-0.02 0.01h-0.03l-0.02 0.01h-0.02l-0.02 0.01-0.01 0.01-0.04 0.02-0.03 0.03-0.02 0.01-0.02 0.02-0.01 0.02-0.04 0.04-0.01 0.02-0.02 0.03-0.01 0.02-0.04 0.06-0.02 0.04-0.02 0.03-0.01 0.04-0.02 0.04-0.03 0.04-0.01 0.02-0.01 0.03-0.02 0.04-1.74 3.95h-0.14l-1.45-3.41c-0.45-1.02-0.54-1.13-0.87-1.14v-0.13h1.38v0.13c-0.33 0-0.47 0.09-0.47 0.28 0 0.09 0.02 0.18 0.05 0.27l0.33 0.82h1.83l-0.1 0.28h-1.62l0.81 1.91 0.81-1.91 0.1-0.28 0.28-0.67c0.09-0.19 0.14-0.37 0.14-0.47 0-0.17-0.12-0.23-0.49-0.23v-0.13h1.78z"/>
<path d="m160.79 658.66-0.05-0.03-0.04-0.03-0.05-0.03-0.12-0.09-0.04-0.02-0.03-0.03-0.04-0.03-0.03-0.02-0.04-0.03-0.06-0.04-0.03-0.03-0.06-0.05-0.05-0.04-0.25-0.25-0.05-0.06-0.04-0.06c-0.5-0.6-0.74-1.3-0.74-2.11 0-0.89 0.25-1.57 0.87-2.28 0.29-0.33 0.47-0.48 0.83-0.71l0.08 0.12c-0.56 0.43-0.75 0.68-0.94 1.2-0.17 0.46-0.24 0.99-0.24 1.69 0 0.73 0.09 1.3 0.28 1.73s0.4 0.68 0.9 1.08z"/>
<path d="m164.34 656.65v0.27h-0.54c-0.14 0-0.25 0.03-0.39 0.07l-0.15 0.06c-0.19 0.07-0.38 0.1-0.56 0.1-0.65 0-1.17-0.5-1.17-1.13 0-0.44 0.19-0.7 0.65-0.93-0.13-0.13-0.25-0.25-0.3-0.28-0.23-0.2-0.32-0.34-0.32-0.48 0-0.15 0.09-0.23 0.37-0.37l0.15-0.02c0.23-0.05 0.79-0.09 1.13-0.09 0.64 0 0.87-0.09 0.87-0.34 0-0.4-0.53-0.67-1.32-0.67-0.62 0-1.02 0.2-1.02 0.5 0 0.16 0.05 0.25 0.34 0.6l-0.15 0.02c-0.49-0.36-0.68-0.59-0.68-0.85 0-0.37 0.54-0.67 1.21-0.67 0.52 0 1.07 0.18 1.43 0.47 0.27 0.22 0.38 0.44 0.38 0.7 0 0.43-0.32 0.73-0.84 0.75l-0.9 0.04c-0.37 0.01-0.55 0.08-0.55 0.19 0 0.14 0.23 0.38 0.42 0.44 0.06-0.01 0.11-0.02 0.13-0.02 0.14-0.01 0.23-0.02 0.27-0.02l0.03 0.17c-0.42 0-0.72 0.46-0.72 1.12v0.02c0 0.42 0.2 0.66 0.52 0.66 0.22 0 0.4-0.12 0.51-0.33 0.13-0.24 0.21-0.56 0.21-0.83 0-0.39-0.2-0.64-0.52-0.64l-0.03-0.17c0.26 0 0.54 0.1 0.75 0.29 0.24 0.2 0.34 0.44 0.34 0.79 0 0.2-0.04 0.36-0.13 0.58z"/>
<path d="m164.8 652.72 0.1 0.06 0.08 0.06 0.05 0.03 0.03 0.03 0.04 0.02 0.08 0.06 0.03 0.02 0.03 0.03 0.03 0.02 0.04 0.02 0.08 0.08 0.06 0.04 0.2 0.2 0.04 0.05 0.1 0.12c0.5 0.6 0.74 1.3 0.74 2.11 0 0.89-0.26 1.57-0.87 2.28-0.29 0.33-0.47 0.48-0.84 0.71l-0.08-0.12c0.56-0.43 0.75-0.68 0.94-1.2 0.17-0.46 0.25-0.99 0.25-1.69 0-0.72-0.09-1.3-0.28-1.72-0.2-0.44-0.41-0.69-0.91-1.09z"/>
</g>
  <g transform="matrix(2 0 0 -2 146.64 1415.5)" fill-rule="evenodd" stroke="#000" stroke-miterlimit="10.433" stroke-width="0" inkscapeversion="0.92.4" ns0:alignment="middle center" ns0:jacobian_sqrt="2.000001" ns0:pdfconverter="pstoedit" ns0:preamble="/home/antonio/.config/inkscape/extensions/textext/default_packages.tex" ns0:scale="1.5" ns0:texconverter="pdflatex" ns0:text="$a_{\\rm A(l)}^{}$" ns0:version="0.10.0" xml:space="preserve">
<path d="m153.34 658.33-0.01-0.02-0.02-0.01-0.02-0.02-0.01-0.02-0.02-0.01-0.05-0.05h-0.01l-0.01-0.01v-0.01l-0.02-0.02h-0.01l-0.01-0.01-0.01-0.02-0.01-0.01-0.02-0.01-0.01-0.02-0.04-0.04c-0.3-0.31-0.43-0.41-0.52-0.41-0.08 0-0.14 0.06-0.14 0.13 0 0.2 0.42 1.9 0.89 3.61 0.03 0.1 0.04 0.12 0.06 0.21l-0.07 0.03-0.61-0.07-0.03-0.03-0.11-0.48c-0.08 0.37-0.37 0.58-0.8 0.58l0.06-0.22c0.34-0.02 0.56-0.26 0.56-0.61 0-0.83-0.5-2.01-1.19-2.74-0.23-0.27-0.57-0.44-0.86-0.44-0.35 0-0.58 0.29-0.58 0.75 0 0.53 0.38 1.56 0.81 2.17 0.4 0.58 0.87 0.9 1.26 0.87l-0.06 0.22c-1.31 0-2.85-1.82-2.85-3.39 0-0.7 0.38-1.1 1.02-1.1 0.7 0 1.13 0.32 2 1.55-0.2-0.77-0.23-0.9-0.23-1.14 0-0.28 0.12-0.4 0.4-0.4 0.4 0 0.65 0.18 1.39 1.09z"/>
<path d="m158.63 653.99-0.03 0.01h-0.08l-0.02 0.01h-0.02l-0.03 0.01h-0.02l-0.04 0.02-0.01 0.01-0.06 0.03-0.01 0.02-0.02 0.01-0.05 0.05-0.02 0.03-0.01 0.02-0.02 0.02-0.01 0.03-0.06 0.09-0.02 0.04-0.01 0.04-0.02 0.03-0.03 0.05-0.03 0.06-0.01 0.03-1.74 3.95h-0.14l-1.45-3.42c-0.45-1.01-0.54-1.12-0.87-1.14v-0.13h1.38v0.13c-0.33 0-0.47 0.09-0.47 0.29 0 0.08 0.02 0.18 0.05 0.27l0.33 0.81h1.83l-0.1 0.29h-1.62l0.81 1.91 0.81-1.91 0.1-0.29 0.28-0.66c0.09-0.19 0.14-0.37 0.14-0.47 0-0.17-0.12-0.23-0.49-0.24v-0.13h1.78z"/>
<path d="m160.79 658.56-0.05-0.03-0.04-0.03-0.05-0.03-0.04-0.03-0.04-0.02-0.08-0.06-0.03-0.02-0.04-0.03-0.03-0.03-0.04-0.02-0.03-0.02-0.03-0.03-0.03-0.02-0.06-0.05-0.1-0.1-0.05-0.04-0.05-0.05-0.05-0.06-0.1-0.1-0.04-0.06c-0.5-0.61-0.74-1.3-0.74-2.12 0-0.88 0.25-1.56 0.87-2.27 0.29-0.33 0.47-0.49 0.83-0.71l0.08 0.11c-0.56 0.44-0.75 0.68-0.94 1.2-0.17 0.47-0.24 1-0.24 1.69 0 0.73 0.09 1.3 0.28 1.74 0.19 0.43 0.4 0.68 0.9 1.08z"/>
<path d="m161.18 658.19h0.05c0.07 0.01 0.16 0.02 0.21 0.02 0.23 0 0.3-0.1 0.3-0.43v-3.31c0-0.38-0.1-0.47-0.54-0.5v-0.11h1.65v0.11c-0.44 0.02-0.53 0.09-0.53 0.48v4.15l-0.02 0.01c-0.37-0.12-0.63-0.19-1.12-0.31z"/>
<path d="m163.26 652.63 0.04 0.03 0.05 0.03 0.04 0.03 0.05 0.03 0.04 0.03 0.04 0.02 0.03 0.03 0.04 0.03 0.04 0.02 0.03 0.03 0.03 0.02 0.04 0.03 0.06 0.04 0.06 0.05 0.3 0.3 0.04 0.06 0.05 0.06c0.5 0.6 0.74 1.3 0.74 2.11 0 0.89-0.26 1.56-0.87 2.27-0.29 0.34-0.47 0.49-0.83 0.71l-0.09-0.11c0.56-0.44 0.75-0.68 0.95-1.2 0.16-0.47 0.24-1 0.24-1.69 0-0.73-0.09-1.3-0.28-1.73s-0.4-0.68-0.91-1.09z"/>
</g>
 </g>
</svg>
