<?xml version="1.0" encoding="UTF-8" standalone="no"?>
<svg id="svg4393" xmlns:rdf="http://www.w3.org/1999/02/22-rdf-syntax-ns#" xmlns="http://www.w3.org/2000/svg" xmlns:ns0="http://www.iki.fi/pav/software/textext/" height="200" width="200" version="1.1" xmlns:cc="http://creativecommons.org/ns#" xmlns:xlink="http://www.w3.org/1999/xlink" viewBox="0 0 200 200" xmlns:dc="http://purl.org/dc/elements/1.1/">
 <style type="text/css">
	 @import url('../estilo.css');
 </style>
 <metadata id="metadata4513">
  <rdf:RDF>
   <cc:Work rdf:about="">
    <dc:format>image/svg+xml</dc:format>
    <dc:type rdf:resource="http://purl.org/dc/dcmitype/StillImage"/>
    <dc:title>Gnuplot</dc:title>
   </cc:Work>
  </rdf:RDF>
 </metadata>
 <title id="title4395">Gnuplot</title>
 <desc id="desc4397">Produced by GNUPLOT 5.0 patchlevel 3</desc>
 <g id="gnuplot_canvas">
  <rect id="rect4400" height="200" width="200" y="0" x="0" fill="none"/>
  <g>
   <g id="g4432" font-size="16" font-family="Stix Two Text" color="black">
    <g id="g4434" transform="translate(18.7,174.2)" text-anchor="end">
     <text id="text4436">
      <tspan id="tspan4438" font-weight="bold" font-style="italic" font-family="Stix Two Text">x</tspan>
     </text>
    </g>
    <g id="g4440" transform="translate(175 150.1)" text-anchor="end">
     <text id="text4442">
      <tspan id="tspan4444" font-weight="bold" font-style="italic" font-family="Stix Two Text">y</tspan>
     </text>
    </g>
    <g id="g4446" transform="translate(67.2,28.9)">
     <text id="text4448">
      <tspan id="tspan4450" font-weight="bold" font-style="italic" font-family="Stix Two Text">z</tspan>
     </text>
    </g>
   </g>
   <g stroke="currentColor" stroke-width=".5" fill="none">
    <g id="g4454" color="black">
     <g id="g4456" stroke="none" shape-rendering="crispEdges">
      <polygon id="polygon4458" points="26.6 171.3 29.6 172.1 20.7 177.2 25.8 168.3" fill="#000"/>
     </g>
     <path id="path4460" stroke="#000" d="m26.6 171.3l3 0.8-8.9 5.1 5.1-8.9 0.8 3m34.4-34.4l-34.4 34.4"/>
    </g>
    <g id="g4462" color="black">
     <g id="g4464" stroke="none" shape-rendering="crispEdges">
      <polygon id="polygon4466" points="166.6 136.9 165.1 134.3 175 136.9 165.1 139.5" fill="#000"/>
     </g>
     <path id="path4468" stroke="#000" d="m166.6 136.9l-1.5-2.6 9.9 2.6-9.9 2.6 1.5-2.6m-105.6 0h105.6"/>
    </g>
    <g id="g4470" color="black">
     <g id="g4472" stroke="none" shape-rendering="crispEdges">
      <polygon id="polygon4474" points="61 31.3 58.4 32.8 61 22.9 63.6 32.8" fill="#000"/>
     </g>
     <path id="path4476" stroke="#000" d="m61 31.3l-2.6 1.5 2.6-9.9 2.6 9.9-2.6-1.5m0 105.6v-105.6"/>
    </g>
   </g>
   <g stroke="currentColor" stroke-width="2" fill="none">
    <g id="g4480" color="black">
     <path id="path4482" d="m33.224 111.57-1.7-10.1 9.6 3.5m19.876 31.93-30.2-36.3" stroke="#000"/>
    </g>
    <g id="g4484" color="black">
     <path id="path4486" d="m99.436 91.164 9.9-2.6-2.6 9.9m-45.74 38.436 49.1-49.1" stroke="#000"/>
    </g>
    <g id="g4488" color="black">
     <path id="path4490" stroke="#000" d="m155.6 105.8l9.9 2.6-7.2 7.3m-97.3 21.2l104.5-28.5"/>
    </g>
   </g>
  </g>
  <g id="gnuplot_plot_1">
   <title id="title4497">NaN</title>
  </g>
 </g>
 <path id="path4517" d="m20 115s5.1419-7.5373 10.8-14.4c25.498-30.927 49.186-42.513 79.3-12.8 14.024 13.838 35.698 20.479 55.4 20.6 3.3633 0.0207 9.5-1.4 9.5-1.4" stroke="#f00" stroke-width="2" fill="none"/>
 <g stroke-width="0" fill-rule="evenodd" stroke="#000" stroke-miterlimit="10.433">
  <g id="content" xml:space="preserve" ns0:pdfconverter="pstoedit" transform="matrix(1.75 0 0 -1.75 -248.16 1333.9)" ns0:text="$\nP_1\n$" ns0:version="0.7.2" ns0:inkscapeversion="0.91" ns0:preamble="/usr/share/inkscape/extensions/default_packages.tex" ns0:scale="1.4" ns0:texconverter="pdflatex"><path id="path5249" d="m150.41 713.47h0.03l0.02-0.01h0.05l0.05-0.01 0.05-0.01 0.04-0.01h0.04l0.04-0.01 0.03-0.01 0.04-0.01 0.03-0.01 0.03-0.01 0.03-0.01 0.02-0.01 0.03-0.01 0.02-0.01 0.02-0.01 0.02-0.01 0.01-0.01 0.02-0.02 0.02-0.01 0.01-0.02 0.01-0.01 0.01-0.02 0.01-0.02 0.01-0.01v-0.02l0.01-0.02v-0.02l0.01-0.02v-0.02-0.03-0.02c0-0.14-0.04-0.35-0.17-0.8l-1.18-4.23c-0.17-0.6-0.25-0.66-0.81-0.74v-0.16h2.44v0.16c-0.63 0.09-0.68 0.12-0.68 0.46 0 0.12 0.02 0.22 0.12 0.58l0.53 1.92 0.09 0.34 0.7 2.47c0.07 0.21 0.19 0.28 0.46 0.28 0.39 0 0.77-0.1 0.97-0.24 0.26-0.18 0.37-0.48 0.37-0.95 0-0.64-0.23-1.1-0.67-1.36-0.31-0.17-0.7-0.25-1.31-0.25-0.17 0-0.25 0.01-0.52 0.05l-0.09-0.34c0.25-0.06 0.51-0.08 0.92-0.08 0.81 0 1.48 0.17 1.91 0.48 0.5 0.37 0.79 0.92 0.79 1.5 0 0.96-0.75 1.49-2.11 1.49h-2.47z"/><path id="path5251" d="m157.08 710.34-1.26-0.63v-0.1c0.08 0.04 0.16 0.06 0.19 0.08 0.12 0.05 0.24 0.08 0.31 0.08 0.15 0 0.21-0.11 0.21-0.33v-3.16c0-0.23-0.05-0.39-0.16-0.45-0.11-0.07-0.21-0.09-0.5-0.1v-0.1h1.92v0.1c-0.55 0.01-0.66 0.08-0.66 0.42v4.18z"/></g>
  <g id="g5403" xml:space="preserve" ns0:pdfconverter="pstoedit" transform="matrix(1.75 0 0 -1.75 -148.16 1321.4)" ns0:text="$\nP_2\n$" ns0:version="0.7.2" ns0:inkscapeversion="0.91" ns0:preamble="/usr/share/inkscape/extensions/default_packages.tex" ns0:scale="1.4" ns0:texconverter="pdflatex"><path id="path5405" d="m150.41 713.47h0.03l0.02-0.01h0.05l0.05-0.01 0.05-0.01 0.04-0.01h0.04l0.04-0.01 0.03-0.01 0.04-0.01 0.03-0.01 0.03-0.01 0.03-0.01 0.02-0.01 0.03-0.01 0.02-0.01 0.02-0.01 0.02-0.01 0.01-0.01 0.02-0.02 0.02-0.01 0.01-0.02 0.01-0.01 0.01-0.02 0.01-0.02 0.01-0.01v-0.02l0.01-0.02v-0.02l0.01-0.02v-0.02-0.03-0.02c0-0.14-0.04-0.35-0.17-0.8l-1.18-4.23c-0.17-0.6-0.25-0.66-0.81-0.74v-0.16h2.44v0.16c-0.63 0.09-0.68 0.12-0.68 0.46 0 0.12 0.02 0.22 0.12 0.58l0.53 1.92 0.09 0.34 0.7 2.47c0.07 0.21 0.19 0.28 0.46 0.28 0.39 0 0.77-0.1 0.97-0.24 0.26-0.18 0.37-0.48 0.37-0.95 0-0.64-0.23-1.1-0.67-1.36-0.31-0.17-0.7-0.25-1.31-0.25-0.17 0-0.25 0.01-0.52 0.05l-0.09-0.34c0.25-0.06 0.51-0.08 0.92-0.08 0.81 0 1.48 0.17 1.91 0.48 0.5 0.37 0.79 0.92 0.79 1.5 0 0.96-0.75 1.49-2.11 1.49h-2.47z"/><path id="path5407" d="m158.36 706.59-0.09 0.03c-0.26-0.4-0.35-0.46-0.66-0.46h-1.67l1.17 1.23c0.62 0.65 0.89 1.18 0.89 1.72 0 0.7-0.56 1.23-1.29 1.23-0.38 0-0.74-0.15-1-0.43-0.22-0.24-0.33-0.46-0.45-0.95l0.15-0.04c0.28 0.68 0.53 0.91 1.01 0.91 0.59 0 0.98-0.4 0.98-0.99 0-0.54-0.32-1.19-0.9-1.81l-1.24-1.32v-0.08h2.72z"/></g>
  <g id="g5565" xml:space="preserve" ns0:pdfconverter="pstoedit" transform="matrix(1.75 0 0 -1.75 -102.89 1337.5)" ns0:text="$\nP_3\n$" ns0:version="0.7.2" ns0:inkscapeversion="0.91" ns0:preamble="/usr/share/inkscape/extensions/default_packages.tex" ns0:scale="1.4" ns0:texconverter="pdflatex"><path id="path5567" d="m150.41 713.47h0.03l0.02-0.01h0.05l0.05-0.01 0.05-0.01 0.04-0.01h0.04l0.04-0.01 0.03-0.01 0.04-0.01 0.03-0.01 0.03-0.01 0.03-0.01 0.02-0.01 0.03-0.01 0.02-0.01 0.02-0.01 0.02-0.01 0.01-0.01 0.02-0.02 0.02-0.01 0.01-0.02 0.01-0.01 0.01-0.02 0.01-0.02 0.01-0.01v-0.02l0.01-0.02v-0.02l0.01-0.02v-0.02-0.03-0.02c0-0.14-0.04-0.35-0.17-0.8l-1.18-4.23c-0.17-0.6-0.25-0.66-0.81-0.74v-0.16h2.44v0.16c-0.63 0.09-0.68 0.12-0.68 0.46 0 0.12 0.02 0.22 0.12 0.58l0.53 1.92 0.09 0.34 0.7 2.47c0.07 0.21 0.19 0.28 0.46 0.28 0.39 0 0.77-0.1 0.97-0.24 0.26-0.18 0.37-0.48 0.37-0.95 0-0.64-0.23-1.1-0.67-1.36-0.31-0.17-0.7-0.25-1.31-0.25-0.17 0-0.25 0.01-0.52 0.05l-0.09-0.34c0.25-0.06 0.51-0.08 0.92-0.08 0.81 0 1.48 0.17 1.91 0.48 0.5 0.37 0.79 0.92 0.79 1.5 0 0.96-0.75 1.49-2.11 1.49h-2.47z"/><path id="path5569" d="m156.12 707.93h0.03 0.04 0.03 0.04 0.03 0.03 0.03 0.03 0.03 0.02l0.03-0.01h0.03 0.02 0.02 0.02 0.03l0.02-0.01h0.02 0.02 0.01l0.02-0.01h0.02l0.04-0.01h0.03l0.03-0.01 0.03-0.01 0.03-0.02c0.44-0.15 0.71-0.55 0.71-1.03 0-0.58-0.4-1.04-0.91-1.04-0.19 0-0.33 0.05-0.59 0.22-0.21 0.12-0.33 0.17-0.45 0.17-0.16 0-0.26-0.09-0.26-0.24 0-0.24 0.3-0.4 0.78-0.4 0.54 0 1.09 0.18 1.42 0.47s0.51 0.69 0.51 1.16c0 0.35-0.11 0.68-0.31 0.9-0.14 0.15-0.28 0.23-0.58 0.37 0.48 0.32 0.65 0.58 0.65 0.96 0 0.56-0.44 0.95-1.08 0.95-0.35 0-0.66-0.11-0.91-0.34-0.21-0.19-0.32-0.37-0.47-0.78l0.11-0.03c0.28 0.51 0.6 0.74 1.04 0.74 0.45 0 0.76-0.31 0.76-0.75 0-0.25-0.1-0.5-0.28-0.68-0.21-0.21-0.4-0.31-0.87-0.48z"/></g>
  <g id="g5733" xml:space="preserve" ns0:pdfconverter="pstoedit" transform="matrix(1.75 0 0 -1.75 -225.89 1370.9)" ns0:text="$\n\\vec{r}_1\n$" ns0:version="0.7.2" ns0:inkscapeversion="0.91" ns0:preamble="/usr/share/inkscape/extensions/default_packages.tex" ns0:scale="1.4" ns0:texconverter="pdflatex"><polygon id="polygon5735" points="153.11 713.32 149.78 713.32 149.69 712.93 153.03 712.93 152.05 711.92 152.24 711.68 153.91 713.12 152.86 714.56 152.57 714.32"/><path id="path5737" d="m149.91 707.12 0.05 0.16 0.05 0.15 0.04 0.14 0.04 0.13 0.05 0.13 0.03 0.12 0.04 0.12 0.04 0.11 0.03 0.11 0.04 0.1 0.03 0.1 0.03 0.09 0.04 0.09 0.03 0.08 0.03 0.08 0.03 0.08 0.03 0.08 0.03 0.07 0.06 0.14 0.07 0.14 0.06 0.13 0.07 0.13 0.07 0.13 0.08 0.13 0.04 0.07 0.04 0.07c0.33 0.56 0.61 0.87 0.78 0.87 0.06 0 0.11-0.04 0.16-0.14 0.08-0.17 0.16-0.22 0.36-0.22 0.29 0 0.46 0.18 0.46 0.49s-0.2 0.52-0.47 0.52c-0.23 0-0.5-0.15-0.76-0.42-0.41-0.42-0.81-1.01-0.97-1.41l-0.14-0.36 0.53 2.17-0.03 0.02c-0.73-0.13-0.82-0.15-1.54-0.27v-0.17c0.24 0.05 0.27 0.05 0.34 0.05 0.21 0 0.34-0.1 0.34-0.28 0-0.14 0-0.14-0.16-0.82l-0.8-2.91z"/><path id="path5739" d="m154.62 710.34-1.26-0.63v-0.1c0.09 0.04 0.16 0.06 0.19 0.08 0.13 0.05 0.24 0.08 0.31 0.08 0.15 0 0.21-0.11 0.21-0.33v-3.16c0-0.23-0.05-0.39-0.16-0.45-0.11-0.07-0.21-0.09-0.5-0.1v-0.1h1.93v0.1c-0.56 0.01-0.67 0.08-0.67 0.42v4.18z"/></g>
  <g id="g5911" xml:space="preserve" ns0:pdfconverter="pstoedit" transform="matrix(1.75 0 0 -1.75 -185 1340)" ns0:text="$\n\\vec{r}_2\n$" ns0:version="0.7.2" ns0:inkscapeversion="0.91" ns0:preamble="/usr/share/inkscape/extensions/default_packages.tex" ns0:scale="1.4" ns0:texconverter="pdflatex"><polygon id="polygon5913" points="149.78 713.32 149.69 712.93 153.03 712.93 152.05 711.92 152.24 711.68 153.91 713.12 152.86 714.56 152.57 714.32 153.11 713.32"/><path id="path5915" d="m149.91 707.12 0.05 0.16 0.05 0.15 0.04 0.14 0.04 0.13 0.05 0.13 0.03 0.12 0.04 0.12 0.04 0.11 0.03 0.11 0.04 0.1 0.03 0.1 0.03 0.09 0.04 0.09 0.03 0.08 0.03 0.08 0.03 0.08 0.03 0.08 0.03 0.07 0.06 0.14 0.07 0.14 0.06 0.13 0.07 0.13 0.07 0.13 0.08 0.13 0.04 0.07 0.04 0.07c0.33 0.56 0.61 0.87 0.78 0.87 0.06 0 0.11-0.04 0.16-0.14 0.08-0.17 0.16-0.22 0.36-0.22 0.29 0 0.46 0.18 0.46 0.49s-0.2 0.52-0.47 0.52c-0.23 0-0.5-0.15-0.76-0.42-0.41-0.42-0.81-1.01-0.97-1.41l-0.14-0.36 0.53 2.17-0.03 0.02c-0.73-0.13-0.82-0.15-1.54-0.27v-0.17c0.24 0.05 0.27 0.05 0.34 0.05 0.21 0 0.34-0.1 0.34-0.28 0-0.14 0-0.14-0.16-0.82l-0.8-2.91z"/><path id="path5917" d="m155.9 706.59-0.09 0.03c-0.26-0.4-0.35-0.46-0.66-0.46h-1.67l1.17 1.23c0.62 0.65 0.89 1.18 0.89 1.72 0 0.7-0.56 1.23-1.29 1.23-0.38 0-0.74-0.15-1-0.43-0.22-0.24-0.33-0.46-0.45-0.95l0.15-0.04c0.28 0.68 0.53 0.91 1.01 0.91 0.59 0 0.99-0.4 0.99-0.99 0-0.54-0.33-1.19-0.91-1.81l-1.24-1.32v-0.08h2.72z"/></g>
  <g id="g6097" xml:space="preserve" ns0:pdfconverter="pstoedit" transform="matrix(1.75 0 0 -1.75 -123.69 1368)" ns0:text="$\n\\vec{r}_3\n$" ns0:version="0.7.2" ns0:inkscapeversion="0.91" ns0:preamble="/usr/share/inkscape/extensions/default_packages.tex" ns0:scale="1.4" ns0:texconverter="pdflatex"><polygon id="polygon6099" points="152.86 714.56 152.57 714.32 153.11 713.32 149.78 713.32 149.69 712.93 153.03 712.93 152.05 711.92 152.24 711.68 153.91 713.12"/><path id="path6101" d="m149.91 707.12 0.05 0.16 0.05 0.15 0.04 0.14 0.04 0.13 0.05 0.13 0.03 0.12 0.04 0.12 0.04 0.11 0.03 0.11 0.04 0.1 0.03 0.1 0.03 0.09 0.04 0.09 0.03 0.08 0.03 0.08 0.03 0.08 0.03 0.08 0.03 0.07 0.06 0.14 0.07 0.14 0.06 0.13 0.07 0.13 0.07 0.13 0.08 0.13 0.04 0.07 0.04 0.07c0.33 0.56 0.61 0.87 0.78 0.87 0.06 0 0.11-0.04 0.16-0.14 0.08-0.17 0.16-0.22 0.36-0.22 0.29 0 0.46 0.18 0.46 0.49s-0.2 0.52-0.47 0.52c-0.23 0-0.5-0.15-0.76-0.42-0.41-0.42-0.81-1.01-0.97-1.41l-0.14-0.36 0.53 2.17-0.03 0.02c-0.73-0.13-0.82-0.15-1.54-0.27v-0.17c0.24 0.05 0.27 0.05 0.34 0.05 0.21 0 0.34-0.1 0.34-0.28 0-0.14 0-0.14-0.16-0.82l-0.8-2.91z"/><path id="path6103" d="m153.65 707.93h0.04 0.04 0.03 0.04 0.03 0.03 0.03 0.03 0.03 0.02l0.03-0.01h0.02 0.03 0.02 0.02 0.03l0.02-0.01h0.02 0.02 0.01l0.02-0.01h0.02l0.04-0.01h0.03l0.03-0.01 0.03-0.01 0.03-0.02c0.44-0.15 0.71-0.55 0.71-1.03 0-0.58-0.4-1.04-0.92-1.04-0.18 0-0.32 0.05-0.58 0.22-0.21 0.12-0.33 0.17-0.45 0.17-0.16 0-0.26-0.09-0.26-0.24 0-0.24 0.3-0.4 0.79-0.4 0.53 0 1.08 0.18 1.41 0.47s0.51 0.69 0.51 1.16c0 0.35-0.11 0.68-0.31 0.9-0.14 0.15-0.28 0.23-0.58 0.37 0.48 0.32 0.65 0.58 0.65 0.96 0 0.56-0.44 0.95-1.09 0.95-0.34 0-0.65-0.11-0.9-0.34-0.21-0.19-0.32-0.37-0.47-0.78l0.11-0.03c0.28 0.51 0.6 0.74 1.03 0.74 0.46 0 0.77-0.31 0.77-0.75 0-0.25-0.1-0.5-0.28-0.68-0.21-0.21-0.4-0.31-0.88-0.48z"/></g>
 </g>
</svg>
