<?xml version="1.0" encoding="UTF-8" standalone="no"?>
<svg id="svg4393" xmlns:rdf="http://www.w3.org/1999/02/22-rdf-syntax-ns#" xmlns="http://www.w3.org/2000/svg" xmlns:ns0="http://www.iki.fi/pav/software/textext/" height="200" width="200" version="1.1" xmlns:cc="http://creativecommons.org/ns#" xmlns:xlink="http://www.w3.org/1999/xlink" viewBox="0 0 200 200" xmlns:dc="http://purl.org/dc/elements/1.1/">
 <style type="text/css">
	@import url('../estilo.css');
 </style>
 <metadata id="metadata4513">
  <rdf:RDF>
   <cc:Work rdf:about="">
    <dc:format>image/svg+xml</dc:format>
    <dc:type rdf:resource="http://purl.org/dc/dcmitype/StillImage"/>
    <dc:title>Gnuplot</dc:title>
   </cc:Work>
  </rdf:RDF>
 </metadata>
 <title id="title4395">Gnuplot</title>
 <desc id="desc4397">Produced by GNUPLOT 5.0 patchlevel 3</desc>
 <g id="g5826" transform="translate(11.691 1.1252)">
  <g>
   <g id="g4432" style="color:#000000" font-family="&apos;Stix Two Text&apos;" font-size="16px">
    <g id="g4434" style="text-anchor:end" transform="translate(18.7,174.2)">
     <text id="text4436">
      <tspan id="tspan4438" font-weight="bold" font-style="italic" font-family="&apos;Stix Two Text&apos;">x</tspan>
     </text>
    </g>
    <g id="g4440" style="text-anchor:end" transform="translate(175,150.1)">
     <text id="text4442">
      <tspan id="tspan4444" font-weight="bold" font-style="italic" font-family="&apos;Stix Two Text&apos;">y</tspan>
     </text>
    </g>
    <g id="g4446" transform="translate(67.2,28.9)">
     <text id="text4448">
      <tspan id="tspan4450" font-weight="bold" font-style="italic" font-family="&apos;Stix Two Text&apos;">z</tspan>
     </text>
    </g>
   </g>
   <g stroke-width=".5" fill="none">
    <g id="g4454" style="color:#000000">
     <g id="g4456" style="shape-rendering:crispEdges">
      <polygon id="polygon4458" points="25.8 168.3 26.6 171.3 26.6 171.3 29.6 172.1 20.7 177.2" fill="#000"/>
     </g>
     <path id="path4460" d="m26.6 171.3 3 0.8-8.9 5.1 5.1-8.9 0.8 3m34.4-34.4-34.4 34.4" stroke="#000"/>
    </g>
    <g id="g4462" style="color:#000000">
     <g id="g4464" style="shape-rendering:crispEdges">
      <polygon id="polygon4466" points="165.1 139.5 166.6 136.9 166.6 136.9 165.1 134.3 175 136.9" fill="#000"/>
     </g>
     <path id="path4468" d="m166.6 136.9-1.5-2.6 9.9 2.6-9.9 2.6 1.5-2.6m-105.6 0h105.6" stroke="#000"/>
    </g>
    <g id="g4470" style="color:#000000">
     <g id="g4472" style="shape-rendering:crispEdges">
      <polygon id="polygon4474" points="63.6 32.8 61 31.3 61 31.3 58.4 32.8 61 22.9" fill="#000"/>
     </g>
     <path id="path4476" d="m61 31.3-2.6 1.5 2.6-9.9 2.6 9.9-2.6-1.5m0 105.6v-105.6" stroke="#000"/>
    </g>
   </g>
   <g stroke-width="2" fill="none">
    <g id="g4480" style="color:#000000">
     <path id="path4482" d="m34.597 99.272 0.2-10.2 8.8 5.3m17.403 42.528-26.9-49.1" stroke="#000"/>
    </g>
    <g id="g4484" style="color:#000000">
     <path id="path4486" d="m100 82.3 9.6-3.5-1.7 10.1m-46.9 48 48.6-58.1" stroke="#000"/>
    </g>
    <g id="g4488" style="color:#000000">
     <path id="path4490" d="m99.23 74.916 9.4 4-8.2 6.1m-66.33 2.784l75.5-9" stroke="#d3d3d3"/>
    </g>
   </g>
  </g>
  <g id="gnuplot_plot_1">
   <title id="title4497">NaN</title>
  </g>
  <g stroke="#f00" stroke-width="2" fill="none">
   <path id="path4636" d="m20 100s5-5 14.1-12.2" stroke-dasharray="4, 4"/>
   <path id="path4634" d="m34.1 87.8c35.935-28.432 85.9-37.8 75.5-9"/>
   <path id="path4517" d="m109.6 78.8c-12.661 35.06 35.4 41.2 60.4 41.2" stroke-dasharray="4, 4"/>
  </g>
 </g>
 <g stroke-width="0" fill-rule="evenodd" stroke="#000" stroke-miterlimit="10.433">
  <g id="content" xml:space="preserve" ns0:pdfconverter="pstoedit" transform="matrix(1.75 0 0 -1.75 -249.68 1320)" ns0:text="$\nP_1, t_1\n$" ns0:version="0.7.2" ns0:inkscapeversion="0.91" ns0:preamble="/usr/share/inkscape/extensions/default_packages.tex" ns0:scale="1.4" ns0:texconverter="pdflatex"><path id="path4714" d="m150.41 713.47h0.03l0.02-0.01h0.05l0.05-0.01 0.05-0.01 0.04-0.01h0.04l0.04-0.01 0.03-0.01 0.04-0.01 0.03-0.01 0.03-0.01 0.03-0.01 0.02-0.01 0.03-0.01 0.02-0.01 0.02-0.01 0.02-0.01 0.01-0.01 0.02-0.02 0.02-0.01 0.01-0.02 0.01-0.01 0.01-0.02 0.01-0.02 0.01-0.01v-0.02l0.01-0.02v-0.02l0.01-0.02v-0.02-0.03-0.02c0-0.14-0.04-0.35-0.17-0.8l-1.18-4.23c-0.17-0.6-0.25-0.66-0.81-0.74v-0.16h2.44v0.16c-0.63 0.09-0.68 0.12-0.68 0.46 0 0.12 0.02 0.22 0.12 0.58l0.53 1.92 0.09 0.34 0.7 2.47c0.07 0.21 0.19 0.28 0.46 0.28 0.39 0 0.77-0.1 0.97-0.24 0.26-0.18 0.37-0.48 0.37-0.95 0-0.64-0.23-1.1-0.67-1.36-0.31-0.17-0.7-0.25-1.31-0.25-0.17 0-0.25 0.01-0.52 0.05l-0.09-0.34c0.25-0.06 0.51-0.08 0.92-0.08 0.81 0 1.48 0.17 1.91 0.48 0.5 0.37 0.79 0.92 0.79 1.5 0 0.96-0.75 1.49-2.11 1.49h-2.47z"/><path id="path4716" d="m157.08 710.34-1.26-0.63v-0.1c0.08 0.04 0.16 0.06 0.19 0.08 0.12 0.05 0.24 0.08 0.31 0.08 0.15 0 0.21-0.11 0.21-0.33v-3.16c0-0.23-0.05-0.39-0.16-0.45-0.11-0.07-0.21-0.09-0.5-0.1v-0.1h1.92v0.1c-0.55 0.01-0.66 0.08-0.66 0.42v4.18z"/><path id="path4718" d="m160.98 707.18v0.04 0.04 0.03l-0.01 0.04v0.03 0.04l-0.01 0.03-0.01 0.03v0.03l-0.01 0.03-0.01 0.03v0.03l-0.01 0.02-0.01 0.03-0.01 0.03-0.01 0.02-0.01 0.02-0.02 0.03-0.02 0.04-0.03 0.04-0.02 0.04-0.03 0.03-0.03 0.03-0.04 0.03-0.03 0.03-0.03 0.02-0.03 0.03-0.04 0.02-0.03 0.01-0.03 0.02-0.04 0.01-0.03 0.02-0.03 0.01h-0.04l-0.03 0.01-0.03 0.01h-0.03l-0.02 0.01h-0.03-0.02-0.03c-0.25 0-0.57-0.15-0.57-0.58 0-0.4 0.35-0.5 0.61-0.5 0.07 0 0.12 0.01 0.15 0.02 0.04 0.01 0.07 0.02 0.09 0.02 0.07 0 0.14-0.05 0.14-0.14 0-0.19-0.16-0.63-0.82-1.05l0.09-0.19c0.3 0.1 1.12 0.75 1.12 1.46z"/><path id="path4720" d="m166.13 711.39h-0.79l0.28 1.02c0.01 0.02 0.01 0.04 0.01 0.05 0 0.07-0.03 0.1-0.08 0.1-0.06 0-0.09-0.01-0.15-0.09-0.39-0.51-1.01-1-1.33-1.09-0.25-0.08-0.32-0.14-0.32-0.25 0-0.01 0-0.03 0.01-0.06h0.74l-0.72-2.74c-0.02-0.09-0.03-0.12-0.06-0.21-0.09-0.3-0.17-0.65-0.17-0.73 0-0.22 0.21-0.38 0.48-0.38 0.46 0 0.79 0.28 1.42 1.21l-0.13 0.07c-0.49-0.63-0.65-0.79-0.81-0.79-0.09 0-0.15 0.08-0.15 0.2 0 0.01 0 0.02 0.01 0.05l0.88 3.32h0.83z"/><path id="path4722" d="m167.98 710.34-1.25-0.63v-0.1c0.08 0.04 0.16 0.06 0.18 0.08 0.13 0.05 0.25 0.08 0.32 0.08 0.15 0 0.21-0.11 0.21-0.33v-3.16c0-0.23-0.06-0.39-0.17-0.45-0.1-0.07-0.2-0.09-0.5-0.1v-0.1h1.93v0.1c-0.55 0.01-0.66 0.08-0.66 0.42v4.18z"/></g>
  <g id="g4884" xml:space="preserve" ns0:pdfconverter="pstoedit" transform="matrix(1.75 0 0 -1.75 -136.39 1322.7)" ns0:text="$\nP_2, t_2\n$" ns0:version="0.7.2" ns0:inkscapeversion="0.91" ns0:preamble="/usr/share/inkscape/extensions/default_packages.tex" ns0:scale="1.4" ns0:texconverter="pdflatex"><path id="path4886" d="m150.41 713.47h0.03l0.02-0.01h0.05l0.05-0.01 0.05-0.01 0.04-0.01h0.04l0.04-0.01 0.03-0.01 0.04-0.01 0.03-0.01 0.03-0.01 0.03-0.01 0.02-0.01 0.03-0.01 0.02-0.01 0.02-0.01 0.02-0.01 0.01-0.01 0.02-0.02 0.02-0.01 0.01-0.02 0.01-0.01 0.01-0.02 0.01-0.02 0.01-0.01v-0.02l0.01-0.02v-0.02l0.01-0.02v-0.02-0.03-0.02c0-0.14-0.04-0.35-0.17-0.8l-1.18-4.23c-0.17-0.6-0.25-0.66-0.81-0.74v-0.16h2.44v0.16c-0.63 0.09-0.68 0.12-0.68 0.46 0 0.12 0.02 0.22 0.12 0.58l0.53 1.92 0.09 0.34 0.7 2.47c0.07 0.21 0.19 0.28 0.46 0.28 0.39 0 0.77-0.1 0.97-0.24 0.26-0.18 0.37-0.48 0.37-0.95 0-0.64-0.23-1.1-0.67-1.36-0.31-0.17-0.7-0.25-1.31-0.25-0.17 0-0.25 0.01-0.52 0.05l-0.09-0.34c0.25-0.06 0.51-0.08 0.92-0.08 0.81 0 1.48 0.17 1.91 0.48 0.5 0.37 0.79 0.92 0.79 1.5 0 0.96-0.75 1.49-2.11 1.49h-2.47z"/><path id="path4888" d="m158.36 706.59-0.09 0.03c-0.26-0.4-0.35-0.46-0.66-0.46h-1.67l1.17 1.23c0.62 0.65 0.89 1.18 0.89 1.72 0 0.7-0.56 1.23-1.29 1.23-0.38 0-0.74-0.15-1-0.43-0.22-0.24-0.33-0.46-0.45-0.95l0.15-0.04c0.28 0.68 0.53 0.91 1.01 0.91 0.59 0 0.98-0.4 0.98-0.99 0-0.54-0.32-1.19-0.9-1.81l-1.24-1.32v-0.08h2.72z"/><path id="path4890" d="m160.98 707.18v0.04 0.04 0.03l-0.01 0.04v0.03 0.04l-0.01 0.03-0.01 0.03v0.03l-0.01 0.03-0.01 0.03v0.03l-0.01 0.02-0.01 0.03-0.01 0.03-0.01 0.02-0.01 0.02-0.02 0.03-0.02 0.04-0.03 0.04-0.02 0.04-0.03 0.03-0.03 0.03-0.04 0.03-0.03 0.03-0.03 0.02-0.03 0.03-0.04 0.02-0.03 0.01-0.03 0.02-0.04 0.01-0.03 0.02-0.03 0.01h-0.04l-0.03 0.01-0.03 0.01h-0.03l-0.02 0.01h-0.03-0.02-0.03c-0.25 0-0.57-0.15-0.57-0.58 0-0.4 0.35-0.5 0.61-0.5 0.07 0 0.12 0.01 0.15 0.02 0.04 0.01 0.07 0.02 0.09 0.02 0.07 0 0.14-0.05 0.14-0.14 0-0.19-0.16-0.63-0.82-1.05l0.09-0.19c0.3 0.1 1.12 0.75 1.12 1.46z"/><path id="path4892" d="m166.13 711.39h-0.79l0.28 1.02c0.01 0.02 0.01 0.04 0.01 0.05 0 0.07-0.03 0.1-0.08 0.1-0.06 0-0.09-0.01-0.15-0.09-0.39-0.51-1.01-1-1.33-1.09-0.25-0.08-0.32-0.14-0.32-0.25 0-0.01 0-0.03 0.01-0.06h0.74l-0.72-2.74c-0.02-0.09-0.03-0.12-0.06-0.21-0.09-0.3-0.17-0.65-0.17-0.73 0-0.22 0.21-0.38 0.48-0.38 0.46 0 0.79 0.28 1.42 1.21l-0.13 0.07c-0.49-0.63-0.65-0.79-0.81-0.79-0.09 0-0.15 0.08-0.15 0.2 0 0.01 0 0.02 0.01 0.05l0.88 3.32h0.83z"/><path id="path4894" d="m169.26 706.59-0.09 0.03c-0.25-0.4-0.34-0.46-0.66-0.46h-1.66l1.17 1.23c0.62 0.65 0.89 1.18 0.89 1.72 0 0.7-0.56 1.23-1.29 1.23-0.38 0-0.75-0.15-1-0.43-0.23-0.24-0.33-0.46-0.45-0.95l0.15-0.04c0.27 0.68 0.53 0.91 1.01 0.91 0.58 0 0.98-0.4 0.98-0.99 0-0.54-0.32-1.19-0.91-1.81l-1.24-1.32v-0.08h2.72z"/></g>
  <g id="g5068" xml:space="preserve" ns0:pdfconverter="pstoedit" transform="matrix(1.75 0 0 -1.75 -215.75 1364.1)" ns0:text="$\n\\vec{r}_1\n$" ns0:version="0.7.2" ns0:inkscapeversion="0.91" ns0:preamble="/usr/share/inkscape/extensions/default_packages.tex" ns0:scale="1.4" ns0:texconverter="pdflatex"><polygon id="polygon5070" points="153.91 713.12 152.86 714.56 152.57 714.32 153.11 713.32 149.78 713.32 149.69 712.93 153.03 712.93 152.05 711.92 152.24 711.68"/><path id="path5072" d="m149.91 707.12 0.05 0.16 0.05 0.15 0.04 0.14 0.04 0.13 0.05 0.13 0.03 0.12 0.04 0.12 0.04 0.11 0.03 0.11 0.04 0.1 0.03 0.1 0.03 0.09 0.04 0.09 0.03 0.08 0.03 0.08 0.03 0.08 0.03 0.08 0.03 0.07 0.06 0.14 0.07 0.14 0.06 0.13 0.07 0.13 0.07 0.13 0.08 0.13 0.04 0.07 0.04 0.07c0.33 0.56 0.61 0.87 0.78 0.87 0.06 0 0.11-0.04 0.16-0.14 0.08-0.17 0.16-0.22 0.36-0.22 0.29 0 0.46 0.18 0.46 0.49s-0.2 0.52-0.47 0.52c-0.23 0-0.5-0.15-0.76-0.42-0.41-0.42-0.81-1.01-0.97-1.41l-0.14-0.36 0.53 2.17-0.03 0.02c-0.73-0.13-0.82-0.15-1.54-0.27v-0.17c0.24 0.05 0.27 0.05 0.34 0.05 0.21 0 0.34-0.1 0.34-0.28 0-0.14 0-0.14-0.16-0.82l-0.8-2.91z"/><path id="path5074" d="m154.62 710.34-1.26-0.63v-0.1c0.09 0.04 0.16 0.06 0.19 0.08 0.13 0.05 0.24 0.08 0.31 0.08 0.15 0 0.21-0.11 0.21-0.33v-3.16c0-0.23-0.05-0.39-0.16-0.45-0.11-0.07-0.21-0.09-0.5-0.1v-0.1h1.93v0.1c-0.56 0.01-0.67 0.08-0.67 0.42v4.18z"/></g>
  <g id="g5256" xml:space="preserve" ns0:pdfconverter="pstoedit" transform="matrix(1.75 0 0 -1.75 -161.24 1359.1)" ns0:text="$\n\\vec{r}_2\n$" ns0:version="0.7.2" ns0:inkscapeversion="0.91" ns0:preamble="/usr/share/inkscape/extensions/default_packages.tex" ns0:scale="1.4" ns0:texconverter="pdflatex"><polygon id="polygon5258" points="153.91 713.12 152.86 714.56 152.57 714.32 153.11 713.32 149.78 713.32 149.69 712.93 153.03 712.93 152.05 711.92 152.24 711.68"/><path id="path5260" d="m149.91 707.12 0.05 0.16 0.05 0.15 0.04 0.14 0.04 0.13 0.05 0.13 0.03 0.12 0.04 0.12 0.04 0.11 0.03 0.11 0.04 0.1 0.03 0.1 0.03 0.09 0.04 0.09 0.03 0.08 0.03 0.08 0.03 0.08 0.03 0.08 0.03 0.07 0.06 0.14 0.07 0.14 0.06 0.13 0.07 0.13 0.07 0.13 0.08 0.13 0.04 0.07 0.04 0.07c0.33 0.56 0.61 0.87 0.78 0.87 0.06 0 0.11-0.04 0.16-0.14 0.08-0.17 0.16-0.22 0.36-0.22 0.29 0 0.46 0.18 0.46 0.49s-0.2 0.52-0.47 0.52c-0.23 0-0.5-0.15-0.76-0.42-0.41-0.42-0.81-1.01-0.97-1.41l-0.14-0.36 0.53 2.17-0.03 0.02c-0.73-0.13-0.82-0.15-1.54-0.27v-0.17c0.24 0.05 0.27 0.05 0.34 0.05 0.21 0 0.34-0.1 0.34-0.28 0-0.14 0-0.14-0.16-0.82l-0.8-2.91z"/><path id="path5262" d="m155.9 706.59-0.09 0.03c-0.26-0.4-0.35-0.46-0.66-0.46h-1.67l1.17 1.23c0.62 0.65 0.89 1.18 0.89 1.72 0 0.7-0.56 1.23-1.29 1.23-0.38 0-0.74-0.15-1-0.43-0.22-0.24-0.33-0.46-0.45-0.95l0.15-0.04c0.28 0.68 0.53 0.91 1.01 0.91 0.59 0 0.99-0.4 0.99-0.99 0-0.54-0.33-1.19-0.91-1.81l-1.24-1.32v-0.08h2.72z"/></g>
  <g id="g5452" xml:space="preserve" ns0:pdfconverter="pstoedit" transform="matrix(1.75 0 0 -1.75 -182.74 1337.4)" ns0:text="$\n\\Delta \\vec{r}\n$" ns0:version="0.7.2" ns0:inkscapeversion="0.91" ns0:preamble="/usr/share/inkscape/extensions/default_packages.tex" ns0:scale="1.4" ns0:texconverter="pdflatex"><polygon id="polygon5454" points="153.7 707.54 149.61 707.54 148.95 707.12 154.87 707.12 152.08 713.87 151.91 713.87 148.95 707.12 149.61 707.54 151.74 712.38"/><polygon id="polygon5456" points="159.43 712.93 158.46 711.92 158.65 711.68 160.32 713.12 159.26 714.56 158.98 714.32 159.51 713.32 156.19 713.32 156.1 712.93"/><path id="path5458" d="m156.32 707.12 0.05 0.16 0.04 0.15 0.05 0.14 0.04 0.13 0.04 0.13 0.04 0.12 0.04 0.12 0.03 0.11 0.04 0.11 0.03 0.1 0.04 0.1 0.03 0.09 0.03 0.09 0.03 0.08 0.03 0.08 0.04 0.08 0.03 0.08 0.03 0.07 0.06 0.14 0.06 0.14 0.07 0.13 0.06 0.13 0.08 0.13 0.07 0.13 0.04 0.07 0.05 0.07c0.32 0.56 0.6 0.87 0.77 0.87 0.06 0 0.11-0.04 0.16-0.14 0.08-0.17 0.16-0.22 0.36-0.22 0.29 0 0.46 0.18 0.46 0.49s-0.19 0.52-0.47 0.52c-0.23 0-0.5-0.15-0.76-0.42-0.4-0.42-0.8-1.01-0.96-1.41l-0.14-0.36 0.53 2.17-0.03 0.02c-0.73-0.13-0.82-0.15-1.55-0.27v-0.17c0.24 0.05 0.27 0.05 0.34 0.05 0.22 0 0.35-0.1 0.35-0.28 0-0.14 0-0.14-0.16-0.82l-0.81-2.91z"/></g>
  <g id="g5656" xml:space="preserve" ns0:pdfconverter="pstoedit" transform="matrix(1.75 0 0 -1.75 -162.97 1295.3)" ns0:text="$\n\\Delta s\n$" ns0:version="0.7.2" ns0:inkscapeversion="0.91" ns0:preamble="/usr/share/inkscape/extensions/default_packages.tex" ns0:scale="1.4" ns0:texconverter="pdflatex"><polygon id="polygon5658" points="154.87 707.12 152.08 713.87 151.91 713.87 148.95 707.12 149.61 707.54 151.74 712.38 153.7 707.54 149.61 707.54 148.95 707.12"/><path id="path5660" d="m155.98 708.58-0.2-1.59h0.16c0.08 0.16 0.14 0.21 0.24 0.21 0.11 0 0.28-0.04 0.48-0.09 0.22-0.07 0.39-0.1 0.55-0.1 0.84 0 1.44 0.54 1.44 1.3 0 0.38-0.21 0.81-0.68 1.39-0.38 0.47-0.54 0.78-0.54 1.05 0 0.33 0.21 0.54 0.56 0.54 0.52 0 0.82-0.37 0.91-1.15h0.17l0.19 1.39h-0.14c-0.08-0.14-0.16-0.18-0.3-0.18-0.06 0-0.16 0.02-0.35 0.07-0.25 0.08-0.4 0.1-0.56 0.1-0.73 0-1.21-0.43-1.21-1.1 0-0.32 0.21-0.75 0.63-1.28 0.39-0.51 0.56-0.86 0.56-1.15 0-0.45-0.3-0.77-0.74-0.77-0.55 0-0.86 0.41-1.01 1.36z"/></g>
 </g>
</svg>
