<?xml version="1.0" encoding="UTF-8" standalone="no"?>
<svg id="svg4474" xmlns:rdf="http://www.w3.org/1999/02/22-rdf-syntax-ns#" xmlns="http://www.w3.org/2000/svg" xmlns:ns0="http://www.iki.fi/pav/software/textext/" height="200" width="350" version="1.1" xmlns:cc="http://creativecommons.org/ns#" xmlns:xlink="http://www.w3.org/1999/xlink" viewBox="0 0 350 200" xmlns:dc="http://purl.org/dc/elements/1.1/">
 <metadata id="metadata4675">
  <rdf:RDF>
   <cc:Work rdf:about="">
    <dc:format>image/svg+xml</dc:format>
    <dc:type rdf:resource="http://purl.org/dc/dcmitype/StillImage"/>
    <dc:title>Gnuplot</dc:title>
   </cc:Work>
  </rdf:RDF>
 </metadata>
 <title id="title4476">Gnuplot</title>
 <desc id="desc4478">Produced by GNUPLOT 5.0 patchlevel 3</desc>
 <g id="gnuplot_canvas">
  <g fill="none">
   <rect id="rect4481" height="200" width="350" y="0" x="0"/>
   <g stroke="currentColor">
    <g stroke-width=".5">
     <g id="g4515" color="white">
      <path id="path4517" stroke="#fff" d="m97.9 87.2h-0.7l-0.7 0.1h-0.7l-0.6 0.2-0.7 0.1-0.6 0.2-0.7 0.2-0.6 0.3-0.6 0.3-0.6 0.3-0.6 0.4-0.5 0.3-0.5 0.5-0.6 0.4-0.4 0.5-0.5 0.4-0.4 0.6-0.5 0.5-0.3 0.5-0.4 0.6-0.3 0.6-0.3 0.6-0.3 0.6-0.2 0.7-0.2 0.6-0.1 0.7-0.2 0.6v0.7l-0.1 0.7v0.6"/>
      <path id="path4519" stroke="#009e73" d="m97.9 87.2h-0.7l-0.7 0.1h-0.7l-0.6 0.2-0.7 0.1-0.6 0.2-0.7 0.2-0.6 0.3-0.6 0.3-0.6 0.3-0.6 0.4-0.5 0.3-0.5 0.5-0.6 0.4-0.4 0.5-0.5 0.4-0.4 0.6-0.5 0.5-0.3 0.5-0.4 0.6-0.3 0.6-0.3 0.6-0.3 0.6-0.2 0.7-0.2 0.6-0.1 0.7-0.2 0.6v0.7l-0.1 0.7v0.6h12.9v-12.8"/>
     </g>
     <g id="g4527" color="black">
      <path id="path4529" stroke="#000" d="m20.7 100h154.3"/>
     </g>
     <g id="g4531" color="black">
      <path id="path4533" stroke="#000" d="m97.9 177.2v-154.3"/>
     </g>
    </g>
    <g id="g4537" color="white">
     <path id="path4539" stroke="#fff" d="m149.3 100l-0.1-2.6-0.2-2.7-0.3-2.7-0.5-2.6-0.7-2.7-0.7-2.5-0.9-2.6-1.1-2.5-1.1-2.4-1.3-2.4-1.4-2.3-1.5-2.2-1.7-2.1-1.7-2.1-1.9-1.9-1.9-1.9-2.1-1.7-2.1-1.7-2.2-1.5-2.3-1.4-2.4-1.3-2.4-1.1-2.5-1.1-2.6-0.9-2.5-0.7-2.7-0.7-2.6-0.5-2.7-0.3-2.7-0.2-2.6-0.1-2.7 0.1-2.7 0.2-2.7 0.3-2.6 0.5-2.7 0.7-2.5 0.7-2.6 0.9-2.5 1.1-2.4 1.1-2.4 1.3-2.3 1.4-2.2 1.5-2.1 1.7-2.1 1.7-1.9 1.9-1.9 1.9-1.7 2.1-1.7 2.1-1.5 2.2-1.4 2.3-1.3 2.4-1.1 2.4-1.1 2.5-0.9 2.6-0.7 2.5-0.7 2.7-0.5 2.6-0.3 2.7-0.2 2.7-0.1 2.6 0.1 2.7 0.2 2.7 0.3 2.7 0.5 2.6 0.7 2.7 0.7 2.5 0.9 2.6 1.1 2.5 1.1 2.4 1.3 2.4 1.4 2.3 1.5 2.2 1.7 2.1 1.7 2.1 1.9 1.9 1.9 1.9 2.1 1.7 2.1 1.7 2.2 1.5 2.3 1.4 2.4 1.3 2.4 1.1 2.5 1.1 2.6 0.9 2.5 0.7 2.7 0.7 2.6 0.5 2.7 0.3 2.7 0.2 2.6 0.1 2.7-0.1 2.7-0.2 2.7-0.3 2.6-0.5 2.7-0.7 2.5-0.7 2.6-0.9 2.5-1.1 2.4-1.1 2.4-1.3 2.3-1.4 2.2-1.5 2.1-1.7 2.1-1.7 1.9-1.9 1.9-1.9 1.7-2.1 1.7-2.1 1.5-2.2 1.4-2.3 1.3-2.4 1.1-2.4 1.1-2.5 0.9-2.6 0.7-2.5 0.7-2.7 0.5-2.6 0.3-2.7 0.2-2.7 0.1-2.6"/>
     <path id="path4541" stroke="#d3d3d3" d="m149.3 100l-0.1-2.6-0.2-2.7-0.3-2.7-0.5-2.6-0.7-2.7-0.7-2.5-0.9-2.6-1.1-2.5-1.1-2.4-1.3-2.4-1.4-2.3-1.5-2.2-1.7-2.1-1.7-2.1-1.9-1.9-1.9-1.9-2.1-1.7-2.1-1.7-2.2-1.5-2.3-1.4-2.4-1.3-2.4-1.1-2.5-1.1-2.6-0.9-2.5-0.7-2.7-0.7-2.6-0.5-2.7-0.3-2.7-0.2-2.6-0.1-2.7 0.1-2.7 0.2-2.7 0.3-2.6 0.5-2.7 0.7-2.5 0.7-2.6 0.9-2.5 1.1-2.4 1.1-2.4 1.3-2.3 1.4-2.2 1.5-2.1 1.7-2.1 1.7-1.9 1.9-1.9 1.9-1.7 2.1-1.7 2.1-1.5 2.2-1.4 2.3-1.3 2.4-1.1 2.4-1.1 2.5-0.9 2.6-0.7 2.5-0.7 2.7-0.5 2.6-0.3 2.7-0.2 2.7-0.1 2.6 0.1 2.7 0.2 2.7 0.3 2.7 0.5 2.6 0.7 2.7 0.7 2.5 0.9 2.6 1.1 2.5 1.1 2.4 1.3 2.4 1.4 2.3 1.5 2.2 1.7 2.1 1.7 2.1 1.9 1.9 1.9 1.9 2.1 1.7 2.1 1.7 2.2 1.5 2.3 1.4 2.4 1.3 2.4 1.1 2.5 1.1 2.6 0.9 2.5 0.7 2.7 0.7 2.6 0.5 2.7 0.3 2.7 0.2 2.6 0.1 2.7-0.1 2.7-0.2 2.7-0.3 2.6-0.5 2.7-0.7 2.5-0.7 2.6-0.9 2.5-1.1 2.4-1.1 2.4-1.3 2.3-1.4 2.2-1.5 2.1-1.7 2.1-1.7 1.9-1.9 1.9-1.9 1.7-2.1 1.7-2.1 1.5-2.2 1.4-2.3 1.3-2.4 1.1-2.4 1.1-2.5 0.9-2.6 0.7-2.5 0.7-2.7 0.5-2.6 0.3-2.7 0.2-2.7 0.1-2.6"/>
    </g>
    <g id="g4545" color="black" stroke-width=".5">
     <g id="g4547" stroke="none" shape-rendering="crispEdges">
      <polygon id="polygon4549" points="166.6 100 165.1 97.4 175 100 165.1 102.6" fill="#000"/>
     </g>
     <path id="path4551" stroke="#000" d="m166.6 100l-1.5-2.6 9.9 2.6-9.9 2.6 1.5-2.6m0.7 0h-0.7"/>
    </g>
    <g id="g4553" color="black" stroke-width=".5">
     <g id="g4555" stroke="none" shape-rendering="crispEdges">
      <polygon id="polygon4557" points="97.9 31.3 95.3 32.8 97.9 22.9 100.5 32.8" fill="#000"/>
     </g>
     <path id="path4559" stroke="#000" d="m97.9 31.3l-2.6 1.5 2.6-9.9 2.6 9.9-2.6-1.5m0-0.7v0.7"/>
    </g>
    <g id="g4563" color="black">
     <g id="g4565" stroke="none" fill="#000" shape-rendering="crispEdges">
      <polygon id="polygon4567" points="139.7 105.2 139.7 101.7 149.3 105.2 139.7 108.7"/>
      <polygon id="polygon4569" points="107.5 105.2 107.5 108.7 97.9 105.2 107.5 101.7"/>
     </g>
     <path id="path4571" stroke="#000" stroke-dasharray="1.0,2.0" d="m107.5 105.2h32.2"/>
    </g>
   </g>
  </g>
  <g id="gnuplot_plot_1a">
   <title id="title4576"/>
   <g id="g4580" color="black" stroke="currentColor" stroke-width="1.5" fill="none">
    <path id="path4582" stroke="#000" d="m97.9 48.6h-0.9-0.8l-0.8 0.1h-0.8l-0.8 0.1h-0.8l-0.9 0.1-0.8 0.1-0.8 0.1-0.8 0.2-0.8 0.1-0.8 0.1-0.8 0.2-0.8 0.2-0.8 0.2-0.8 0.2-0.8 0.2-0.7 0.2-0.8 0.2-0.8 0.3-0.8 0.2-0.7 0.3-0.8 0.3-0.8 0.3-0.7 0.3-0.8 0.3-0.7 0.4-0.8 0.3-0.7 0.4-0.7 0.3-0.7 0.4-0.8 0.4-0.7 0.4-0.7 0.4-0.7 0.4-0.7 0.5-0.6 0.4-0.7 0.5-0.7 0.5-0.6 0.4-0.7 0.5-0.6 0.5-0.7 0.5-0.6 0.5-0.6 0.6-0.6 0.5-0.6 0.6-0.6 0.5-0.6 0.6-0.6 0.6-0.6 0.6-0.5 0.6-0.6 0.6-0.5 0.6-0.6 0.6-0.5 0.6-0.5 0.7-0.5 0.6-0.5 0.7-0.4 0.6-0.5 0.7-0.5 0.7-0.4 0.6-0.5 0.7-0.4 0.7-0.4 0.7-0.4 0.7-0.4 0.8-0.4 0.7-0.3 0.7-0.4 0.7-0.3 0.8-0.4 0.7-0.3 0.8-0.3 0.7-0.3 0.8-0.3 0.8-0.3 0.7-0.2 0.8-0.3 0.8-0.2 0.8-0.2 0.7-0.2 0.8-0.2 0.8-0.2 0.8-0.2 0.8-0.2 0.8-0.1 0.8-0.1 0.8-0.2 0.8-0.1 0.8-0.1 0.8-0.1 0.9v0.8l-0.1 0.8v0.8l-0.1 0.8v0.8 0.8"/>
   </g>
  </g>
  <g stroke="currentColor" fill="none">
   <g stroke-width="1.5">
    <g id="g4590" color="black">
     <g id="g4592" stroke="none" shape-rendering="crispEdges">
      <polygon id="polygon4594" points="46.4 65.1 41.3 70.3 46.4 61.4 51.5 70.3" fill="#e51e10"/>
     </g>
     <path id="path4596" stroke="#e51e10" d="m46.4 65.1l-5.1 5.2 5.1-8.9 5.1 8.9-5.1-5.2m0 34.9v-34.9"/>
    </g>
    <g id="g4598" color="black">
     <g id="g4600" stroke="none" shape-rendering="crispEdges">
      <polygon id="polygon4602" points="132.8 48.6 127.6 43.5 136.5 48.6 127.6 53.7" fill="#e51e10"/>
     </g>
     <path id="path4604" stroke="#e51e10" d="m132.8 48.6l-5.2-5.1 8.9 5.1-8.9 5.1 5.2-5.1m-34.9 0h34.9"/>
    </g>
    <g id="g4606" color="black">
     <g id="g4608" stroke="none" shape-rendering="crispEdges">
      <polygon id="polygon4610" points="71.6 100 66.4 94.9 75.3 100 66.4 105.1" fill="#e69f00"/>
     </g>
     <path id="path4612" stroke="#e69f00" d="m71.6 100l-5.2-5.1 8.9 5.1-8.9 5.1 5.2-5.1m-25.2 0h25.2"/>
    </g>
   </g>
   <g id="g4620" color="white" stroke-width=".5">
    <path id="path4622" stroke="#fff" d="m217.1 80.1l-0.1-0.5v-0.5l-0.1-0.6-0.1-0.5-0.1-0.5-0.2-0.6-0.1-0.5-0.2-0.5-0.3-0.5-0.2-0.4-0.3-0.5-0.3-0.5-0.4-0.4-0.3-0.4-0.4-0.4-0.4-0.4-0.4-0.3-0.4-0.4-0.5-0.3-0.4-0.3-0.5-0.2-0.5-0.3-0.5-0.2-0.5-0.1-0.6-0.2-0.5-0.1-0.5-0.1-0.6-0.1h-0.5l-0.5-0.1"/>
    <path id="path4624" stroke="#009e73" d="m217.1 80.1l-0.1-0.5v-0.5l-0.1-0.6-0.1-0.5-0.1-0.5-0.2-0.6-0.1-0.5-0.2-0.5-0.3-0.5-0.2-0.4-0.3-0.5-0.3-0.5-0.4-0.4-0.3-0.4-0.4-0.4-0.4-0.4-0.4-0.3-0.4-0.4-0.5-0.3-0.4-0.3-0.5-0.2-0.5-0.3-0.5-0.2-0.5-0.1-0.6-0.2-0.5-0.1-0.5-0.1-0.6-0.1h-0.5l-0.5-0.1v10.4h10.4"/>
   </g>
  </g>
  <g id="gnuplot_plot_1b">
   <title id="title4633">NaN</title>
  </g>
  <g stroke="currentColor" stroke-width="1.5" fill="none">
   <g id="g4643" color="black">
    <g id="g4645" stroke="none" shape-rendering="crispEdges">
     <polygon id="polygon4647" points="206.7 42.1 201.6 47.3 206.7 38.4 211.8 47.3" fill="#e51e10"/>
    </g>
    <path id="path4649" stroke="#e51e10" d="m206.7 42.1l-5.1 5.2 5.1-8.9 5.1 8.9-5.1-5.2m0 38v-38"/>
   </g>
   <g id="g4651" color="black">
    <g id="g4653" stroke="none" shape-rendering="crispEdges">
     <polygon id="polygon4655" points="244.6 80.1 239.4 75 248.3 80.1 239.4 85.2" fill="#e51e10"/>
    </g>
    <path id="path4657" stroke="#e51e10" d="m244.6 80.1l-5.2-5.1 8.9 5.1-8.9 5.1 5.2-5.1m-37.9 0h37.9"/>
   </g>
   <g id="g4659" color="black">
    <g id="g4661" stroke="none" shape-rendering="crispEdges">
     <polygon id="polygon4663" points="245.7 77.5 245.7 70.2 248.3 80.1 238.4 77.5" fill="#0072b2"/>
    </g>
    <path id="path4665" stroke="#0072b2" d="m245.7 77.5v-7.3l2.6 9.9-9.9-2.6h7.3m-39-39.1l39 39.1"/>
   </g>
  </g>
 </g>
 <g fill-rule="evenodd" stroke="#000" stroke-miterlimit="10.433">
  <g id="content" xml:space="preserve" stroke-width="0" ns0:pdfconverter="pstoedit" transform="matrix(1.75 0 0 -1.75 -231.09 1351.2)" ns0:text="$\nP_1\n$" ns0:version="0.7.2" ns0:inkscapeversion="0.91" ns0:preamble="/usr/share/inkscape/extensions/default_packages.tex" ns0:scale="1.4" ns0:texconverter="pdflatex"><path id="path4790" d="m150.41 713.47h0.03l0.02-0.01h0.05l0.05-0.01 0.05-0.01 0.04-0.01h0.04l0.04-0.01 0.03-0.01 0.04-0.01 0.03-0.01 0.03-0.01 0.03-0.01 0.02-0.01 0.03-0.01 0.02-0.01 0.02-0.01 0.02-0.01 0.01-0.01 0.02-0.02 0.02-0.01 0.01-0.02 0.01-0.01 0.01-0.02 0.01-0.02 0.01-0.01v-0.02l0.01-0.02v-0.02l0.01-0.02v-0.02-0.03-0.02c0-0.14-0.04-0.35-0.17-0.8l-1.18-4.23c-0.17-0.6-0.25-0.66-0.81-0.74v-0.16h2.44v0.16c-0.63 0.09-0.68 0.12-0.68 0.46 0 0.12 0.02 0.22 0.12 0.58l0.53 1.92 0.09 0.34 0.7 2.47c0.07 0.21 0.19 0.28 0.46 0.28 0.39 0 0.77-0.1 0.97-0.24 0.26-0.18 0.37-0.48 0.37-0.95 0-0.64-0.23-1.1-0.67-1.36-0.31-0.17-0.7-0.25-1.31-0.25-0.17 0-0.25 0.01-0.52 0.05l-0.09-0.34c0.25-0.06 0.51-0.08 0.92-0.08 0.81 0 1.48 0.17 1.91 0.48 0.5 0.37 0.79 0.92 0.79 1.5 0 0.96-0.75 1.49-2.11 1.49h-2.47z"/><path id="path4792" d="m157.08 710.34-1.26-0.63v-0.1c0.08 0.04 0.16 0.06 0.19 0.08 0.12 0.05 0.24 0.08 0.31 0.08 0.15 0 0.21-0.11 0.21-0.33v-3.16c0-0.23-0.05-0.39-0.16-0.45-0.11-0.07-0.21-0.09-0.5-0.1v-0.1h1.92v0.1c-0.55 0.01-0.66 0.08-0.66 0.42v4.18z"/></g>
  <g id="g5022" xml:space="preserve" stroke-width="0" ns0:pdfconverter="pstoedit" transform="matrix(1.75 0 0 -1.75 -229.91 1325.8)" ns0:text="$\n\\vec{v}_1\n$" ns0:version="0.7.2" ns0:inkscapeversion="0.91" ns0:preamble="/usr/share/inkscape/extensions/default_packages.tex" ns0:scale="1.4" ns0:texconverter="pdflatex"><polygon id="polygon5024" points="153.18 713.32 149.85 713.32 149.76 712.93 153.1 712.93 152.12 711.92 152.31 711.68 153.98 713.12 152.93 714.56 152.64 714.32"/><path id="path5026" d="m148.92 711.14h0.02 0.02 0.02 0.02 0.02 0.01l0.02 0.01h0.02 0.03 0.02 0.02 0.02 0.02 0.02 0.02c0.39 0 0.49-0.17 0.63-1.09 0.1-0.69 0.22-2.19 0.22-2.77 0-0.28 0.02-0.35 0.08-0.35 0.25 0 1.18 1.06 2.2 2.47 0.35 0.5 0.6 1.15 0.6 1.52 0 0.32-0.25 0.59-0.55 0.59-0.22 0-0.37-0.13-0.37-0.34 0-0.16 0.06-0.28 0.24-0.44 0.13-0.12 0.18-0.2 0.18-0.3 0-0.46-0.66-1.56-1.37-2.3l-0.31-0.32c-0.07 1.4-0.13 1.92-0.26 2.66-0.2 1.02-0.2 1.04-0.29 1.04-0.05 0-0.12-0.01-0.2-0.04-0.17-0.05-0.72-0.15-1.1-0.21z"/><path id="path5028" d="m155.16 710.34-1.25-0.63v-0.1c0.08 0.04 0.16 0.06 0.19 0.08 0.12 0.05 0.24 0.08 0.31 0.08 0.15 0 0.21-0.11 0.21-0.33v-3.16c0-0.23-0.05-0.39-0.17-0.45-0.1-0.07-0.2-0.09-0.49-0.1v-0.1h1.92v0.1c-0.55 0.01-0.66 0.08-0.66 0.42v4.18z"/></g>
  <g id="g5266" xml:space="preserve" stroke-width="0" ns0:pdfconverter="pstoedit" transform="matrix(1.75 0 0 -1.75 -205.5 1334.4)" ns0:text="$\n\\vec{a}\n$" ns0:version="0.7.2" ns0:inkscapeversion="0.91" ns0:preamble="/usr/share/inkscape/extensions/default_packages.tex" ns0:scale="1.4" ns0:texconverter="pdflatex"><polygon id="polygon5268" points="150.03 713.32 149.94 712.93 153.28 712.93 152.3 711.92 152.49 711.68 154.16 713.12 153.11 714.56 152.82 714.32 153.36 713.32"/><path id="path5270" d="m153.33 708.22-0.01-0.02-0.01-0.01-0.02-0.01-0.01-0.01-0.01-0.02-0.01-0.01-0.01-0.01-0.01-0.01-0.01-0.01-0.01-0.01-0.01-0.01h-0.01l-0.01-0.01-0.01-0.01-0.01-0.01-0.01-0.01v-0.01h-0.01l-0.02-0.02-0.01-0.01-0.01-0.01-0.02-0.02-0.01-0.01-0.01-0.02-0.02-0.01c-0.29-0.31-0.43-0.41-0.51-0.41s-0.14 0.06-0.14 0.13c0 0.2 0.42 1.9 0.88 3.62 0.03 0.1 0.04 0.12 0.06 0.21l-0.07 0.03-0.61-0.07-0.03-0.03-0.1-0.48c-0.08 0.37-0.37 0.58-0.8 0.58l0.06-0.22c0.34-0.02 0.56-0.26 0.56-0.61 0-0.84-0.5-2.01-1.19-2.75-0.24-0.27-0.58-0.44-0.87-0.44-0.34 0-0.57 0.29-0.57 0.75 0 0.54 0.38 1.56 0.8 2.18 0.4 0.58 0.87 0.9 1.27 0.87l-0.06 0.22c-1.32 0-2.85-1.83-2.85-3.4 0-0.7 0.38-1.11 1.02-1.11 0.69 0 1.12 0.33 2 1.57-0.2-0.78-0.23-0.91-0.23-1.15 0-0.29 0.12-0.41 0.4-0.41 0.4 0 0.64 0.19 1.38 1.1z"/></g>
  <g id="g5514" xml:space="preserve" stroke-width="0" ns0:pdfconverter="pstoedit" transform="matrix(1.75 0 0 -1.75 -206.66 1291.2)" ns0:text="$\n\\Delta s\n$" ns0:version="0.7.2" ns0:inkscapeversion="0.91" ns0:preamble="/usr/share/inkscape/extensions/default_packages.tex" ns0:scale="1.4" ns0:texconverter="pdflatex"><polygon id="polygon5516" points="151.74 712.38 153.7 707.54 149.61 707.54 148.95 707.12 154.87 707.12 152.08 713.87 151.91 713.87 148.95 707.12 149.61 707.54"/><path id="path5518" d="m155.98 708.58-0.2-1.59h0.16c0.08 0.16 0.14 0.21 0.24 0.21 0.11 0 0.28-0.04 0.48-0.09 0.22-0.07 0.39-0.1 0.55-0.1 0.84 0 1.44 0.54 1.44 1.3 0 0.38-0.21 0.81-0.68 1.39-0.38 0.47-0.54 0.78-0.54 1.05 0 0.33 0.21 0.54 0.56 0.54 0.52 0 0.82-0.37 0.91-1.15h0.17l0.19 1.39h-0.14c-0.08-0.14-0.16-0.18-0.3-0.18-0.06 0-0.16 0.02-0.35 0.07-0.25 0.08-0.4 0.1-0.56 0.1-0.73 0-1.21-0.43-1.21-1.1 0-0.32 0.21-0.75 0.63-1.28 0.39-0.51 0.56-0.86 0.56-1.15 0-0.45-0.3-0.77-0.74-0.77-0.55 0-0.86 0.41-1.01 1.36z"/></g>
  <g id="g5768" xml:space="preserve" stroke-width="0" ns0:pdfconverter="pstoedit" transform="matrix(1.75 0 0 -1.75 -187.65 1325.1)" ns0:text="$\n\\Delta \\theta\n$" ns0:version="0.7.2" ns0:inkscapeversion="0.91" ns0:preamble="/usr/share/inkscape/extensions/default_packages.tex" ns0:scale="1.4" ns0:texconverter="pdflatex"><polygon id="polygon5770" points="151.91 713.87 148.95 707.12 149.61 707.54 151.74 712.38 153.7 707.54 149.61 707.54 148.95 707.12 154.87 707.12 152.08 713.87"/><path id="path5772" d="m159.63 711.93v0.01 0.02 0.01 0.02 0.01 0.02l-0.01 0.04v0.05 0.06l-0.01 0.05v0.06l-0.01 0.07-0.01 0.07-0.02 0.07-0.01 0.07-0.02 0.08-0.02 0.07-0.02 0.08-0.03 0.07-0.03 0.08-0.03 0.07-0.04 0.07-0.04 0.07-0.05 0.07-0.05 0.06-0.03 0.03-0.03 0.03-0.03 0.03-0.03 0.03-0.03 0.03-0.03 0.02-0.04 0.03-0.04 0.02-0.03 0.02-0.04 0.02-0.04 0.02-0.04 0.01-0.05 0.02-0.04 0.01-0.05 0.01-0.05 0.01-0.05 0.01h-0.05l-0.05 0.01h-0.06l-0.01-0.21c0.4 0 0.56-0.35 0.56-0.92 0-0.54-0.14-1.27-0.34-2.08h-2.16c0.36 1.45 0.99 3 1.94 3l0.01 0.21c-1.76 0-3.02-2.77-3.02-4.68 0-0.36 0.06-1.95 1.33-1.95l0.14 0.22c-0.55 0-0.75 0.48-0.75 1.15 0 0.49 0.11 1.08 0.25 1.69h2.16c-0.31-1.16-0.65-2.84-1.66-2.84l-0.14-0.22c1.98 0 2.9 3.39 2.9 4.92z"/></g>
  <g id="g6028" xml:space="preserve" stroke-width="0" ns0:pdfconverter="pstoedit" transform="matrix(1.75 0 0 -1.75 -181.9 1280.9)" ns0:text="$\nP_2\n$" ns0:version="0.7.2" ns0:inkscapeversion="0.91" ns0:preamble="/usr/share/inkscape/extensions/default_packages.tex" ns0:scale="1.4" ns0:texconverter="pdflatex"><path id="path6030" d="m150.41 713.47h0.03l0.02-0.01h0.05l0.05-0.01 0.05-0.01 0.04-0.01h0.04l0.04-0.01 0.03-0.01 0.04-0.01 0.03-0.01 0.03-0.01 0.03-0.01 0.02-0.01 0.03-0.01 0.02-0.01 0.02-0.01 0.02-0.01 0.01-0.01 0.02-0.02 0.02-0.01 0.01-0.02 0.01-0.01 0.01-0.02 0.01-0.02 0.01-0.01v-0.02l0.01-0.02v-0.02l0.01-0.02v-0.02-0.03-0.02c0-0.14-0.04-0.35-0.17-0.8l-1.18-4.23c-0.17-0.6-0.25-0.66-0.81-0.74v-0.16h2.44v0.16c-0.63 0.09-0.68 0.12-0.68 0.46 0 0.12 0.02 0.22 0.12 0.58l0.53 1.92 0.09 0.34 0.7 2.47c0.07 0.21 0.19 0.28 0.46 0.28 0.39 0 0.77-0.1 0.97-0.24 0.26-0.18 0.37-0.48 0.37-0.95 0-0.64-0.23-1.1-0.67-1.36-0.31-0.17-0.7-0.25-1.31-0.25-0.17 0-0.25 0.01-0.52 0.05l-0.09-0.34c0.25-0.06 0.51-0.08 0.92-0.08 0.81 0 1.48 0.17 1.91 0.48 0.5 0.37 0.79 0.92 0.79 1.5 0 0.96-0.75 1.49-2.11 1.49h-2.47z"/><path id="path6032" d="m158.36 706.59-0.09 0.03c-0.26-0.4-0.35-0.46-0.66-0.46h-1.67l1.17 1.23c0.62 0.65 0.89 1.18 0.89 1.72 0 0.7-0.56 1.23-1.29 1.23-0.38 0-0.74-0.15-1-0.43-0.22-0.24-0.33-0.46-0.45-0.95l0.15-0.04c0.28 0.68 0.53 0.91 1.01 0.91 0.59 0 0.98-0.4 0.98-0.99 0-0.54-0.32-1.19-0.9-1.81l-1.24-1.32v-0.08h2.72z"/></g>
  <g id="g6294" xml:space="preserve" stroke-width="0" ns0:pdfconverter="pstoedit" transform="matrix(1.75 0 0 -1.75 -153.94 1280.9)" ns0:text="$\n\\vec{v}_2\n$" ns0:version="0.7.2" ns0:inkscapeversion="0.91" ns0:preamble="/usr/share/inkscape/extensions/default_packages.tex" ns0:scale="1.4" ns0:texconverter="pdflatex"><polygon id="polygon6296" points="152.64 714.32 153.18 713.32 149.85 713.32 149.76 712.93 153.1 712.93 152.12 711.92 152.31 711.68 153.98 713.12 152.93 714.56"/><path id="path6298" d="m148.92 711.14h0.02 0.02 0.02 0.02 0.02 0.01l0.02 0.01h0.02 0.03 0.02 0.02 0.02 0.02 0.02 0.02c0.39 0 0.49-0.17 0.63-1.09 0.1-0.69 0.22-2.19 0.22-2.77 0-0.28 0.02-0.35 0.08-0.35 0.25 0 1.18 1.06 2.2 2.47 0.35 0.5 0.6 1.15 0.6 1.52 0 0.32-0.25 0.59-0.55 0.59-0.22 0-0.37-0.13-0.37-0.34 0-0.16 0.06-0.28 0.24-0.44 0.13-0.12 0.18-0.2 0.18-0.3 0-0.46-0.66-1.56-1.37-2.3l-0.31-0.32c-0.07 1.4-0.13 1.92-0.26 2.66-0.2 1.02-0.2 1.04-0.29 1.04-0.05 0-0.12-0.01-0.2-0.04-0.17-0.05-0.72-0.15-1.1-0.21z"/><path id="path6300" d="m156.45 706.59-0.09 0.03c-0.26-0.4-0.35-0.46-0.67-0.46h-1.66l1.17 1.23c0.62 0.65 0.89 1.18 0.89 1.72 0 0.7-0.56 1.23-1.29 1.23-0.38 0-0.74-0.15-1-0.43-0.23-0.24-0.33-0.46-0.45-0.95l0.15-0.04c0.28 0.68 0.53 0.91 1.01 0.91 0.59 0 0.98-0.4 0.98-0.99 0-0.54-0.32-1.19-0.9-1.81l-1.25-1.32v-0.08h2.72z"/></g>
  <g id="g6570" xml:space="preserve" ns0:pdfconverter="pstoedit" transform="matrix(1.75 0 0 -1.75 -141.41 1353.5)" ns0:text="$\nr\n$" ns0:version="0.7.2" ns0:inkscapeversion="0.91" ns0:preamble="/usr/share/inkscape/extensions/default_packages.tex" ns0:scale="1.4" ns0:texconverter="pdflatex"><path id="path6572" d="m149.91 707.12 0.05 0.16 0.05 0.15 0.04 0.14 0.04 0.13 0.05 0.13 0.03 0.12 0.04 0.12 0.04 0.11 0.03 0.11 0.04 0.1 0.03 0.1 0.03 0.09 0.04 0.09 0.03 0.08 0.03 0.08 0.03 0.08 0.03 0.08 0.03 0.07 0.06 0.14 0.07 0.14 0.06 0.13 0.07 0.13 0.07 0.13 0.08 0.13 0.04 0.07 0.04 0.07c0.33 0.56 0.61 0.87 0.78 0.87 0.06 0 0.11-0.04 0.16-0.14 0.08-0.17 0.16-0.22 0.36-0.22 0.29 0 0.46 0.18 0.46 0.49s-0.2 0.52-0.47 0.52c-0.23 0-0.5-0.15-0.76-0.42-0.41-0.42-0.81-1.01-0.97-1.41l-0.14-0.36 0.53 2.17-0.03 0.02c-0.73-0.13-0.82-0.15-1.54-0.27v-0.17c0.24 0.05 0.27 0.05 0.34 0.05 0.21 0 0.34-0.1 0.34-0.28 0-0.14 0-0.14-0.16-0.82l-0.8-2.91z" stroke-width="0"/></g>
  <g id="g6846" xml:space="preserve" stroke-width="0" ns0:pdfconverter="pstoedit" transform="matrix(1.75 0 0 -1.75 -69.961 1303.2)" ns0:text="$\n\\vec{v}_1\n$" ns0:version="0.7.2" ns0:inkscapeversion="0.91" ns0:preamble="/usr/share/inkscape/extensions/default_packages.tex" ns0:scale="1.4" ns0:texconverter="pdflatex"><polygon id="polygon6848" points="152.64 714.32 153.18 713.32 149.85 713.32 149.76 712.93 153.1 712.93 152.12 711.92 152.31 711.68 153.98 713.12 152.93 714.56"/><path id="path6850" d="m148.92 711.14h0.02 0.02 0.02 0.02 0.02 0.01l0.02 0.01h0.02 0.03 0.02 0.02 0.02 0.02 0.02 0.02c0.39 0 0.49-0.17 0.63-1.09 0.1-0.69 0.22-2.19 0.22-2.77 0-0.28 0.02-0.35 0.08-0.35 0.25 0 1.18 1.06 2.2 2.47 0.35 0.5 0.6 1.15 0.6 1.52 0 0.32-0.25 0.59-0.55 0.59-0.22 0-0.37-0.13-0.37-0.34 0-0.16 0.06-0.28 0.24-0.44 0.13-0.12 0.18-0.2 0.18-0.3 0-0.46-0.66-1.56-1.37-2.3l-0.31-0.32c-0.07 1.4-0.13 1.92-0.26 2.66-0.2 1.02-0.2 1.04-0.29 1.04-0.05 0-0.12-0.01-0.2-0.04-0.17-0.05-0.72-0.15-1.1-0.21z"/><path id="path6852" d="m155.16 710.34-1.25-0.63v-0.1c0.08 0.04 0.16 0.06 0.19 0.08 0.12 0.05 0.24 0.08 0.31 0.08 0.15 0 0.21-0.11 0.21-0.33v-3.16c0-0.23-0.05-0.39-0.17-0.45-0.1-0.07-0.2-0.09-0.49-0.1v-0.1h1.92v0.1c-0.55 0.01-0.66 0.08-0.66 0.42v4.18z"/></g>
  <g id="g7134" xml:space="preserve" stroke-width="0" ns0:pdfconverter="pstoedit" transform="matrix(1.75 0 0 -1.75 -41.329 1332.6)" ns0:text="$\n\\vec{v}_2\n$" ns0:version="0.7.2" ns0:inkscapeversion="0.91" ns0:preamble="/usr/share/inkscape/extensions/default_packages.tex" ns0:scale="1.4" ns0:texconverter="pdflatex"><polygon id="polygon7136" points="152.93 714.56 152.64 714.32 153.18 713.32 149.85 713.32 149.76 712.93 153.1 712.93 152.12 711.92 152.31 711.68 153.98 713.12"/><path id="path7138" d="m148.92 711.14h0.02 0.02 0.02 0.02 0.02 0.01l0.02 0.01h0.02 0.03 0.02 0.02 0.02 0.02 0.02 0.02c0.39 0 0.49-0.17 0.63-1.09 0.1-0.69 0.22-2.19 0.22-2.77 0-0.28 0.02-0.35 0.08-0.35 0.25 0 1.18 1.06 2.2 2.47 0.35 0.5 0.6 1.15 0.6 1.52 0 0.32-0.25 0.59-0.55 0.59-0.22 0-0.37-0.13-0.37-0.34 0-0.16 0.06-0.28 0.24-0.44 0.13-0.12 0.18-0.2 0.18-0.3 0-0.46-0.66-1.56-1.37-2.3l-0.31-0.32c-0.07 1.4-0.13 1.92-0.26 2.66-0.2 1.02-0.2 1.04-0.29 1.04-0.05 0-0.12-0.01-0.2-0.04-0.17-0.05-0.72-0.15-1.1-0.21z"/><path id="path7140" d="m156.45 706.59-0.09 0.03c-0.26-0.4-0.35-0.46-0.67-0.46h-1.66l1.17 1.23c0.62 0.65 0.89 1.18 0.89 1.72 0 0.7-0.56 1.23-1.29 1.23-0.38 0-0.74-0.15-1-0.43-0.23-0.24-0.33-0.46-0.45-0.95l0.15-0.04c0.28 0.68 0.53 0.91 1.01 0.91 0.59 0 0.98-0.4 0.98-0.99 0-0.54-0.32-1.19-0.9-1.81l-1.25-1.32v-0.08h2.72z"/></g>
  <g id="g7727" xml:space="preserve" stroke-width="0" ns0:pdfconverter="pstoedit" transform="matrix(1.75 0 0 -1.75 -45.272 1309.2)" ns0:text="$\n\\scriptstyle \\Delta \\theta\n$" ns0:version="0.7.2" ns0:inkscapeversion="0.91" ns0:preamble="/usr/share/inkscape/extensions/default_packages.tex" ns0:scale="1.4" ns0:texconverter="pdflatex"><polygon id="polygon7729" points="148.88 707.12 149.34 707.41 150.83 710.8 152.2 707.41 149.34 707.41 148.88 707.12 153.02 707.12 151.07 711.84 150.95 711.84"/><path id="path7731" d="m156.35 710.49v0.01 0.01 0.01 0.01 0.01 0.01 0.03 0.04 0.03l-0.01 0.04v0.05l-0.01 0.04v0.05l-0.01 0.05-0.01 0.05-0.02 0.05-0.01 0.05-0.02 0.06-0.02 0.05-0.02 0.05-0.02 0.05-0.03 0.05-0.03 0.05-0.03 0.05-0.04 0.04-0.02 0.03-0.02 0.02-0.02 0.02-0.02 0.02-0.02 0.01-0.02 0.02-0.03 0.02-0.02 0.01-0.03 0.02-0.03 0.01-0.03 0.02-0.03 0.01-0.03 0.01-0.03 0.01h-0.03l-0.03 0.01-0.04 0.01h-0.03-0.04-0.04l-0.01-0.14c0.28 0 0.39-0.25 0.39-0.64 0-0.38-0.09-0.9-0.23-1.46h-1.52c0.26 1.01 0.69 2.1 1.36 2.1l0.01 0.14c-1.23 0-2.11-1.94-2.11-3.27 0-0.25 0.04-1.36 0.92-1.36l0.1 0.15c-0.38 0-0.52 0.33-0.52 0.8 0 0.34 0.08 0.76 0.17 1.19h1.52c-0.22-0.82-0.46-1.99-1.17-1.99l-0.1-0.15c1.39 0 2.03 2.37 2.03 3.44z"/></g>
  <g id="g8027" xml:space="preserve" stroke-width="0" ns0:pdfconverter="pstoedit" transform="matrix(1.75 0 0 -1.75 -30.945 1294)" ns0:text="$\n\\Delta \\vec{v} = \\vec{v}_2 - \\vec{v}_1\n$" ns0:version="0.7.2" ns0:inkscapeversion="0.91" ns0:preamble="/usr/share/inkscape/extensions/default_packages.tex" ns0:scale="1.4" ns0:texconverter="pdflatex"><polygon id="polygon8029" points="152.08 713.87 151.91 713.87 148.95 707.12 149.61 707.54 151.74 712.38 153.7 707.54 149.61 707.54 148.95 707.12 154.87 707.12"/><polygon id="polygon8031" points="159.33 714.56 159.04 714.32 159.58 713.32 156.25 713.32 156.16 712.93 159.5 712.93 158.52 711.92 158.71 711.68 160.39 713.12"/><path id="path8033" d="m155.32 711.14h0.02 0.02 0.02 0.02 0.02 0.02l0.02 0.01h0.01 0.04 0.02 0.02 0.01 0.02 0.02 0.02c0.39 0 0.49-0.17 0.63-1.09 0.1-0.69 0.22-2.19 0.22-2.77 0-0.28 0.02-0.35 0.09-0.35 0.25 0 1.18 1.06 2.19 2.47 0.35 0.5 0.61 1.15 0.61 1.52 0 0.32-0.26 0.59-0.56 0.59-0.22 0-0.37-0.13-0.37-0.34 0-0.16 0.06-0.28 0.24-0.44 0.13-0.12 0.18-0.2 0.18-0.3 0-0.46-0.66-1.56-1.36-2.3l-0.31-0.32c-0.07 1.4-0.13 1.92-0.26 2.66-0.2 1.02-0.2 1.04-0.29 1.04-0.05 0-0.12-0.01-0.2-0.04-0.18-0.05-0.73-0.15-1.11-0.21z"/><polygon id="polygon8035" points="168.03 710.97 162.93 710.97 162.93 710.41 168.03 710.41"/><polygon id="polygon8037" points="168.03 708.95 162.93 708.95 162.93 708.39 168.03 708.39"/><polygon id="polygon8039" points="175.63 714.56 175.34 714.32 175.88 713.32 172.55 713.32 172.46 712.93 175.8 712.93 174.82 711.92 175.01 711.68 176.68 713.12"/><path id="path8041" d="m171.62 711.14h0.02 0.02 0.02 0.02 0.02 0.02l0.03 0.01h0.04 0.01 0.02 0.02 0.02 0.02 0.02c0.39 0 0.49-0.17 0.63-1.09 0.1-0.69 0.22-2.19 0.22-2.77 0-0.28 0.02-0.35 0.09-0.35 0.25 0 1.17 1.06 2.19 2.47 0.35 0.5 0.61 1.15 0.61 1.52 0 0.32-0.26 0.59-0.56 0.59-0.22 0-0.37-0.13-0.37-0.34 0-0.16 0.06-0.28 0.24-0.44 0.13-0.12 0.18-0.2 0.18-0.3 0-0.46-0.66-1.56-1.37-2.3l-0.3-0.32c-0.08 1.4-0.13 1.92-0.26 2.66-0.2 1.02-0.2 1.04-0.29 1.04-0.05 0-0.12-0.01-0.2-0.04-0.18-0.05-0.73-0.15-1.11-0.21z"/><path id="path8043" d="m179.15 706.59-0.09 0.03c-0.26-0.4-0.35-0.46-0.66-0.46h-1.67l1.17 1.23c0.62 0.65 0.89 1.18 0.89 1.72 0 0.7-0.56 1.23-1.29 1.23-0.38 0-0.74-0.15-1-0.43-0.22-0.24-0.33-0.46-0.45-0.95l0.15-0.04c0.28 0.68 0.53 0.91 1.01 0.91 0.59 0 0.99-0.4 0.99-0.99 0-0.54-0.33-1.19-0.91-1.81l-1.24-1.32v-0.08h2.72z"/><polygon id="polygon8045" points="187.75 709.96 182.65 709.96 182.65 709.4 187.75 709.4"/><polygon id="polygon8047" points="194.8 714.56 194.51 714.32 195.05 713.32 191.72 713.32 191.63 712.93 194.97 712.93 193.99 711.92 194.18 711.68 195.85 713.12"/><path id="path8049" d="m190.79 711.14h0.02 0.02 0.02 0.02 0.02 0.02l0.03 0.01h0.04 0.01 0.02 0.02 0.02 0.02 0.02c0.39 0 0.49-0.17 0.63-1.09 0.1-0.69 0.22-2.19 0.22-2.77 0-0.28 0.02-0.35 0.09-0.35 0.25 0 1.17 1.06 2.19 2.47 0.35 0.5 0.61 1.15 0.61 1.52 0 0.32-0.26 0.59-0.56 0.59-0.22 0-0.37-0.13-0.37-0.34 0-0.16 0.06-0.28 0.24-0.44 0.13-0.12 0.18-0.2 0.18-0.3 0-0.46-0.66-1.56-1.37-2.3l-0.3-0.32c-0.08 1.4-0.14 1.92-0.26 2.66-0.2 1.02-0.2 1.04-0.29 1.04-0.05 0-0.12-0.01-0.2-0.04-0.18-0.05-0.73-0.15-1.11-0.21z"/><path id="path8051" d="m197.04 710.34-1.26-0.63v-0.1c0.09 0.04 0.16 0.06 0.19 0.08 0.13 0.05 0.24 0.08 0.31 0.08 0.15 0 0.21-0.11 0.21-0.33v-3.16c0-0.23-0.05-0.39-0.16-0.45-0.11-0.07-0.21-0.09-0.5-0.1v-0.1h1.93v0.1c-0.56 0.01-0.67 0.08-0.67 0.42v4.18z"/></g>
 </g>
</svg>
