<?xml version="1.0" encoding="UTF-8"?>
<!-- Created with Inkscape (http://www.inkscape.org/) -->
<svg width="369.57" height="238" version="1.1" viewBox="0 0 369.57 238" xmlns="http://www.w3.org/2000/svg" xmlns:cc="http://creativecommons.org/ns#" xmlns:dc="http://purl.org/dc/elements/1.1/" xmlns:ns0="http://www.iki.fi/pav/software/textext/" xmlns:rdf="http://www.w3.org/1999/02/22-rdf-syntax-ns#">
 <style type="text/css">
  @import url('../estilo.css');
 </style>
 <defs>
  <marker id="Arrow2Mstart" overflow="visible" orient="auto">
   <path transform="scale(.6)" d="m8.7186 4.0337-10.926-4.0177 10.926-4.0177c-1.7455 2.3721-1.7354 5.6175-6e-7 8.0354z" fill-rule="evenodd" stroke="#000" stroke-linejoin="round" stroke-width=".625"/>
  </marker>
  <marker id="marker1405" overflow="visible" orient="auto">
   <path transform="scale(-.6)" d="m8.7186 4.0337-10.926-4.0177 10.926-4.0177c-1.7455 2.3721-1.7354 5.6175-6e-7 8.0354z" fill-rule="evenodd" stroke="#000" stroke-linejoin="round" stroke-width=".625"/>
  </marker>
  <marker id="marker1386" overflow="visible" orient="auto">
   <path transform="scale(-.6)" d="m8.7186 4.0337-10.926-4.0177 10.926-4.0177c-1.7455 2.3721-1.7354 5.6175-6e-7 8.0354z" fill-rule="evenodd" stroke="#000" stroke-linejoin="round" stroke-width=".625"/>
  </marker>
  <marker id="Arrow2Mend" overflow="visible" orient="auto">
   <path transform="scale(-.6)" d="m8.7186 4.0337-10.926-4.0177 10.926-4.0177c-1.7455 2.3721-1.7354 5.6175-6e-7 8.0354z" fill-rule="evenodd" stroke="#000" stroke-linejoin="round" stroke-width=".625"/>
  </marker>
  <marker id="marker1330" overflow="visible" orient="auto">
   <path transform="matrix(-1.1,0,0,-1.1,-1.1,0)" d="m8.7186 4.0337-10.926-4.0177 10.926-4.0177c-1.7455 2.3721-1.7354 5.6175-6e-7 8.0354z" fill-rule="evenodd" stroke="#000" stroke-linejoin="round" stroke-width=".625"/>
  </marker>
  <marker id="Arrow2Lend" overflow="visible" orient="auto">
   <path transform="matrix(-1.1,0,0,-1.1,-1.1,0)" d="m8.7186 4.0337-10.926-4.0177 10.926-4.0177c-1.7455 2.3721-1.7354 5.6175-6e-7 8.0354z" fill-rule="evenodd" stroke="#000" stroke-linejoin="round" stroke-width=".625"/>
  </marker>
 </defs>
 <metadata>
  <rdf:RDF>
   <cc:Work rdf:about="">
    <dc:format>image/svg+xml</dc:format>
    <dc:type rdf:resource="http://purl.org/dc/dcmitype/StillImage"/>
    <dc:title/>
   </cc:Work>
  </rdf:RDF>
 </metadata>
 <g transform="translate(-109.18 -367.52)">
  <rect x="190" y="472.52" width="205" height="125" fill="#0ff" fill-opacity=".33182"/>
  <path d="m395 442.52v155h-205v-155" fill="none" stroke="#000" stroke-width="6"/>
  <g fill="none" stroke="#000">
   <g>
    <path d="m297.5 382.52v25" stroke-width="3"/>
    <path d="m287.5 372.52v40" stroke-width="3"/>
    <path d="m287.5 392.52h-65v90" stroke-width="1px"/>
    <path d="m297.5 392.52h65v90" stroke-width="1px"/>
   </g>
   <rect x="207.5" y="482.52" width="25" height="80"/>
   <rect x="352.5" y="482.52" width="25" height="80"/>
  </g>
  <g fill="#000000" font-family="'STIX Two Text'" font-size="16px" letter-spacing="0px" word-spacing="0px">
   <text x="212.60512" y="527.69568" style="font-feature-settings:normal;font-variant-caps:normal;font-variant-ligatures:normal;font-variant-numeric:normal;line-height:1.25" xml:space="preserve"><tspan x="212.60512" y="527.69568">Pt</tspan></text>
   <text x="357.60513" y="527.69568" style="font-feature-settings:normal;font-variant-caps:normal;font-variant-ligatures:normal;font-variant-numeric:normal;line-height:1.25" xml:space="preserve"><tspan x="357.60513" y="527.69568">Pt</tspan></text>
   <text x="271.508" y="386.86365" style="font-feature-settings:normal;font-variant-caps:normal;font-variant-ligatures:normal;font-variant-numeric:normal;line-height:1.25" xml:space="preserve"><tspan x="271.508" y="386.86365">+</tspan></text>
   <text x="301.97198" y="386.86365" style="font-feature-settings:normal;font-variant-caps:normal;font-variant-ligatures:normal;font-variant-numeric:normal;line-height:1.25" xml:space="preserve"><tspan x="301.97198" y="386.86365">−</tspan></text>
  </g>
  <g transform="translate(0 -4.666e-5)" fill="none" fill-rule="evenodd" stroke="#000" stroke-miterlimit="10.433">
   <g id="content" transform="matrix(2 0 0 -2 -11.26 1832.1)" inkscapeversion="0.92.4" ns0:alignment="middle center" ns0:jacobian_sqrt="2.0" ns0:pdfconverter="pstoedit" ns0:preamble="/home/antonio/.config/inkscape/extensions/textext/default_packages.tex" ns0:scale="1.5" ns0:texconverter="pdflatex" ns0:text="$\\oplus$" ns0:version="0.10.0" xml:space="preserve">
<path d="m154.88 659.79v0.15l-0.01 0.15-0.02 0.15-0.03 0.15-0.03 0.14-0.04 0.15-0.05 0.14-0.05 0.13-0.06 0.13-0.14 0.26-0.16 0.24-0.09 0.11-0.1 0.11-0.2 0.2-0.22 0.18-0.12 0.09-0.12 0.07-0.13 0.08-0.26 0.12-0.14 0.06-0.42 0.12-0.3 0.04-0.15 0.01-0.16 0.01-0.22-0.46h0.44c1.23-0.11 2.22-1.07 2.33-2.3h-2.33v-0.45h-0.44v-2.31c-1.23 0.1-2.21 1.08-2.32 2.31h2.76l2.33-0.01c-0.11-1.22-1.1-2.2-2.33-2.3v5.06h-0.44l-0.01-2.3h-2.31c0.11 1.22 1.09 2.19 2.32 2.3l0.22 0.46c-1.65 0-3-1.34-3-2.99s1.35-2.99 3-2.99c1.66 0 3 1.34 3 2.99z" fill="#000" stroke-width="0"/>
</g>
   <g transform="matrix(2 0 0 -2 -11.26 1852.1)" inkscapeversion="0.92.4" ns0:alignment="middle center" ns0:jacobian_sqrt="2.0" ns0:pdfconverter="pstoedit" ns0:preamble="/home/antonio/.config/inkscape/extensions/textext/default_packages.tex" ns0:scale="1.5" ns0:texconverter="pdflatex" ns0:text="$\\ominus$" ns0:version="0.10.0" xml:space="preserve">
<path d="m154.88 659.79v0.15l-0.01 0.15-0.02 0.15-0.03 0.15-0.03 0.14-0.04 0.15-0.05 0.14-0.05 0.13-0.06 0.13-0.14 0.26-0.16 0.24-0.09 0.11-0.1 0.11-0.2 0.2-0.22 0.18-0.12 0.09-0.12 0.07-0.13 0.08-0.26 0.12-0.14 0.06-0.42 0.12-0.3 0.04-0.15 0.01-0.16 0.01v-0.45c1.32 0 2.43-1.01 2.55-2.31h-5.09v-0.45l5.09-0.01c-0.12-1.29-1.23-2.32-2.55-2.32s-2.43 1.03-2.54 2.33v0.45c0.11 1.29 1.22 2.31 2.54 2.31v0.45c-1.65 0-3-1.34-3-2.99s1.35-2.99 3-2.99c1.66 0 3 1.34 3 2.99z" fill="#000" stroke-width="0"/>
</g>
  </g>
  <g fill="none" stroke="#000" stroke-width="1px">
   <path d="m303 512.52h42" marker-end="url(#marker1330)"/>
   <path d="m282 532.52h-42" marker-end="url(#Arrow2Lend)"/>
   <path d="m160 557.52 45-15" marker-end="url(#Arrow2Mend)"/>
   <path d="m425 557.52-45-15" marker-end="url(#marker1386)"/>
  </g>
  <text x="113.57" y="562.51965" fill="#000000" font-family="'STIX Two Text'" font-size="16px" letter-spacing="0px" word-spacing="0px" style="font-feature-settings:normal;font-variant-caps:normal;font-variant-ligatures:normal;font-variant-numeric:normal;line-height:1.25" xml:space="preserve"><tspan x="113.57" y="562.51965">ánodo</tspan></text>
  <text x="429.47198" y="562.51965" fill="#000000" font-family="'STIX Two Text'" font-size="16px" letter-spacing="0px" word-spacing="0px" style="font-feature-settings:normal;font-variant-caps:normal;font-variant-ligatures:normal;font-variant-numeric:normal;line-height:1.25" xml:space="preserve"><tspan x="429.47198" y="562.51965">cátodo</tspan></text>
  <path d="m228 478.52v-76c0-2.77 2.23-5 5-5h48" fill="none" marker-end="url(#marker1405)" stroke="#000"/>
  <path d="m357 478.52v-76c0-2.77-2.23-5-5-5h-48" fill="none" marker-start="url(#Arrow2Mstart)" stroke="#000"/>
  <text x="234.48801" y="412.51965" fill="#000000" font-family="'STIX Two Text'" font-size="16px" letter-spacing="0px" word-spacing="0px" style="font-feature-settings:normal;font-variant-caps:normal;font-variant-ligatures:normal;font-variant-numeric:normal;line-height:1.25" xml:space="preserve"><tspan x="234.48801" y="412.51965"><tspan font-family="'STIX Two Text'" font-style="italic">e</tspan><tspan dy="5" font-size="65%">0</tspan></tspan></text>
  <text x="338.53906" y="412.51965" fill="#000000" font-family="'STIX Two Text'" font-size="16px" letter-spacing="0px" word-spacing="0px" style="font-feature-settings:normal;font-variant-caps:normal;font-variant-ligatures:normal;font-variant-numeric:normal;line-height:1.25" xml:space="preserve"><tspan x="338.53906" y="412.51965"><tspan font-family="'STIX Two Text'" font-style="italic">e</tspan><tspan dy="5" font-size="65%">0</tspan></tspan></text>
 </g>
</svg>
