<?xml version="1.0" encoding="UTF-8" standalone="no"?>
<svg id="svg4661" xmlns:rdf="http://www.w3.org/1999/02/22-rdf-syntax-ns#" xmlns="http://www.w3.org/2000/svg" height="300" width="300" version="1.1" xmlns:cc="http://creativecommons.org/ns#" xmlns:xlink="http://www.w3.org/1999/xlink" viewBox="0 0 300 300" xmlns:dc="http://purl.org/dc/elements/1.1/">
 <style type="text/css">
	 @import url('../estilo.css');
 </style>
 <defs>
  <radialGradient id="radialGradient4843" gradientUnits="userSpaceOnUse" cy="150.05" cx="147.8" gradientTransform="matrix(.73325 .73325 -.92957 .92957 178.91 -97.806)" r="95.85">
   <stop id="stop4839" stop-color="#d3d3d0" stop-opacity=".66667" offset="0"/>
   <stop id="stop4841" stop-color="#d3d3d0" stop-opacity=".0039216" offset="1"/>
  </radialGradient>
  <circle id="gpPt5" stroke-width=".222" stroke="currentColor" cy="0" cx="0" r="1"/>
  <use id="gpPt6" xlink:href="#gpPt5" fill="currentColor"/>
 </defs>
 <metadata id="metadata4769">
  <rdf:RDF>
   <cc:Work rdf:about="">
    <dc:format>image/svg+xml</dc:format>
    <dc:type rdf:resource="http://purl.org/dc/dcmitype/StillImage"/>
    <dc:title>Gnuplot</dc:title>
   </cc:Work>
  </rdf:RDF>
 </metadata>
 <title id="title4663">Gnuplot</title>
 <desc id="desc4665">Produced by GNUPLOT 5.0 patchlevel 3</desc>
 <g fill="none">
  <rect id="rect4668" height="300" width="300" y="0" x="0"/>
  <g stroke="none">
   <g>
    <g id="g4700" style="color:#000000">
     <g id="g4702" style="text-anchor:end" font-size="16px" transform="translate(129.5,146.3)" font-family="&apos;Stix Two Text&apos;" fill="#000">
      <text id="text4704">
       <tspan id="tspan4706" font-family="&apos;Stix Two Text&apos;" font-style="italic">r</tspan>
      </text>
     </g>
    </g>
    <g id="g4708" style="color:#000000">
     <path id="path4710" d="m20.7 277.2 254.3-254.3" stroke-dasharray="2.5, 4" stroke="#808080"/>
    </g>
    <g id="g4712" style="color:#000000">
     <path id="path4714" d="m147.9 150-28.5-28.4" stroke="#000"/>
    </g>
   </g>
   <g id="g4729" style="color:#000000" stroke-width="2">
    <g id="g4731" style="text-anchor:middle" font-size="16px" transform="translate(123.9,112.3)" font-family="&apos;Stix Two Text&apos;" fill="#000">
     <text id="text4733">
       <tspan id="tspan4735">Δ</tspan><tspan id="tspan4737" font-style="italic">m</tspan><tspan id="tspan4739">(</tspan><tspan id="tspan4741" font-style="italic">r</tspan><tspan id="tspan4743">)</tspan>
     </text>
    </g>
   </g>
   <g>
    <g id="g4747" style="color:#000000">
     <use id="use4749" style="color:#ffffff" xlink:href="#gpPt6" transform="matrix(4.5,0,0,4.5,119.4,121.6)" height="100%" width="100%" y="0" x="0"/>
    </g>
    <g id="g4751" style="color:#000000">
     <g id="g4753" font-size="12px" transform="translate(123.9,121.6)" font-family="Arial" fill="#000">
      <text id="text4755"/>
     </g>
    </g>
    <g id="g4757" style="color:#000000">
     <use id="use4759" style="color:#000000" xlink:href="#gpPt5" transform="matrix(4.5,0,0,4.5,119.4,121.6)" height="100%" width="100%" y="0" x="0"/>
    </g>
   </g>
  </g>
 </g>
 <g id="gnuplot_plot_1" fill="url(#radialGradient4843)">
  <title id="title4719"/>
  <g id="g4723" style="color:#000000" stroke="currentColor" stroke-width="1.5">
   <path id="path4725" d="m210.4 200.9 6.3-7.6 6.1-8.4 5.6-9.3 5-10.1 4.2-10.8 3.1-11.3 1.9-11.8 0.3-11.9-1.2-11.8-3.1-11.2-4.9-10.5-6.6-9.3-8.3-7.9-9.6-6.2-10.7-4.4-11.5-2.6-11.8-0.9-11.9 0.8-11.7 2.2-11.2 3.4-10.6 4.4-9.9 5.2-9 5.7-8.3 6.2-7.4 6.3-6.6 6.5-5.8 6.5-5.1 6.4-4.5 6.3-3.9 6.2-3.3 5.9-2.8 5.8-2.4 5.5-2 5.3-1.7 5-1.3 4.8-1.1 4.7-0.8 4.4-0.6 4.2-0.4 4-0.2 3.8v3.7l0.1 3.5 0.2 3.3 0.4 3.2 0.5 3.1 0.5 2.9 0.7 2.8 0.7 2.7 0.9 2.6 0.9 2.5 1 2.4 1 2.3 1.1 2.2 1.2 2.1 1.2 2 1.3 2 1.4 1.9 1.4 1.8 1.4 1.8 1.6 1.7 1.6 1.6 1.6 1.6 1.7 1.5 1.8 1.5 1.9 1.4 1.9 1.3 2 1.3 2 1.2 2.2 1.2 2.2 1.1 2.3 1 2.4 1 2.5 0.8 2.7 0.8 2.7 0.8 2.8 0.6 3 0.6 3.1 0.4 3.2 0.3 3.4 0.2 3.5 0.1 3.7-0.1 3.9-0.2 4.1-0.5 4.2-0.6 4.5-0.9 4.6-1.1 4.9-1.4 5.1-1.7 5.4-2.1 5.5-2.5 5.8-3 6-3.4 6.2-4.1 6.4-4.6 6.4-5.3 6.5-6 6.5-6.8" stroke="#0072b2" fill="url(#radialGradient4843)"/>
  </g>
 </g>
</svg>
