<?xml version="1.0" ?><svg height="20.06875mm" version="1.0" viewBox="0 0 394 76" width="104.04063mm" xmlns="http://www.w3.org/2000/svg">
  <style type="text/css">
		@import url('../estilo.css');
	</style>
  <g font-size="12pt" stroke-linecap="round" transform="translate(-71,-113)">
    <g stroke="#000000" stroke-width="1.0">
      <line x1="93.54" x2="83.75" y1="157.00" y2="173.96"/>
    </g>
    <g stroke="#000000" stroke-width="1.0">
      <line x1="126.97" x2="136.76" y1="157.00" y2="173.96"/>
    </g>
    <g stroke="#000000" stroke-width="1.0">
      <line x1="128.13" x2="136.76" y1="143.00" y2="128.04"/>
    </g>
    <g stroke="#000000" stroke-width="1.0">
      <line x1="92.38" x2="83.75" y1="143.00" y2="128.04"/>
    </g>
    <g stroke="#000000" stroke-linecap="butt" stroke-width="1.0">
      <line x1="104.00" x2="117.00" y1="153.00" y2="153.00"/>
      <line x1="104.00" x2="117.00" y1="149.00" y2="149.00"/>
    </g>
    <text fill="#000000" font-family="STIX Two Text" font-size="12pt" x="92.30" y="155.00">C</text>
    <text fill="#000000" font-family="STIX Two Text" font-size="12pt" x="118.30" y="155.00">C</text>
    <text fill="#000000" font-family="STIX Two Text" font-size="14pt" x="148.00" y="156.00">+</text>
    <text fill="#000000" font-family="STIX Two Text" font-size="12pt" x="173.30" y="155.00">IBr</text>
    <polyline fill="none" points="207.00,151.00 259.59,151.00" stroke="#000000" stroke-width="1.0"/>
    <polygon fill="#000000" fill-rule="evenodd" points="267.59,151.00 257.59,148.00 259.59,151.00 257.59,154.00" stroke="#000000" stroke-width="1"/>
    <g stroke="#000000" stroke-width="1.0">
      <line x1="296.00" x2="279.04" y1="157.46" y2="167.25"/>
    </g>
    <g stroke="#000000" stroke-width="1.0">
      <line x1="335.00" x2="351.47" y1="157.75" y2="167.25"/>
    </g>
    <g stroke="#000000" stroke-width="1.0">
      <line x1="331.97" x2="341.76" y1="160.00" y2="176.96"/>
    </g>
    <g stroke="#000000" stroke-linecap="butt" stroke-width="1.0">
      <line x1="297.38" x2="292.19" y1="146.00" y2="137.00"/>
    </g>
    <g stroke="#000000" stroke-width="1.0">
      <line x1="298.54" x2="288.75" y1="160.00" y2="176.96"/>
    </g>
    <g stroke="#000000" stroke-linecap="butt" stroke-width="1.0">
      <line x1="309.00" x2="322.00" y1="154.00" y2="154.00"/>
    </g>
    <g stroke="#000000" stroke-linecap="butt" stroke-width="1.0">
      <line x1="333.13" x2="338.32" y1="146.00" y2="137.00"/>
    </g>
    <text fill="#000000" font-family="STIX Two Text" font-size="12pt" x="297.30" y="158.00">C</text>
    <text fill="#000000" font-family="STIX Two Text" font-size="12pt" x="323.30" y="158.00">C</text>
    <text fill="#000000" font-family="STIX Two Text" font-size="12pt" x="286.30" y="135.04">I</text>
    <text fill="#000000" font-family="STIX Two Text" font-size="12pt" x="337.30" y="135.04">Br</text>
    <text fill="#000000" font-family="STIX Two Text" font-size="14pt" x="362.00" y="156.00">+</text>
    <text fill="#000000" font-family="STIX Two Text" font-size="12pt" textLength="69" x="386.00" y="155.25">exceso IBr</text>
  </g>
</svg>
