<?xml version="1.0" ?><svg height="54.13281mm" version="1.0" viewBox="0 0 450 205" width="118.82813mm" xmlns="http://www.w3.org/2000/svg">
  <style type="text/css">
		@import url('../estilo.css');
	</style>
  <g font-size="12pt" stroke-linecap="round" transform="translate(-79,-34)">
    <text fill="#000000" font-family="STIX Two Text" font-size="12pt" x="90.30" y="220.00">KBrO<tspan dy="6" font-size="75%">3</tspan></text>
    <text fill="#000000" font-family="STIX Two Text" font-size="14pt" x="143.00" y="221.00">+</text>
    <text fill="#000000" font-family="STIX Two Text" font-size="12pt" x="165.30" y="220.00">KBr</text>
    <polyline fill="none" points="149.50,196.00 149.50,143.41" stroke="#000000" stroke-width="1.0"/>
    <polygon fill="#000000" fill-rule="evenodd" points="149.50,135.41 146.50,145.41 149.50,143.41 152.50,145.41" stroke="#000000" stroke-width="1"/>
    <text fill="#000000" font-family="STIX Two Text" font-size="12pt" x="142.30" y="120.00">Br<tspan dy="6" font-size="75%">2</tspan></text>
    <g stroke="#000000" stroke-width="1.0">
      <line x1="267.05" x2="267.05" y1="150.73" y2="169.00"/>
    </g>
    <g stroke="#000000" stroke-width="1.0">
      <line x1="290.00" x2="312.95" y1="111.00" y2="97.74"/>
    </g>
    <g stroke="#000000" stroke-width="1.0">
      <line x1="244.09" x2="267.05" y1="137.47" y2="150.73"/>
    </g>
    <g stroke="#000000" stroke-width="1.0">
      <line x1="335.91" x2="320.00" y1="137.47" y2="146.66"/>
      <line x1="330.92" x2="318.99" y1="133.42" y2="140.32"/>
    </g>
    <g stroke="#000000" stroke-width="1.0">
      <line x1="335.91" x2="335.91" y1="111.00" y2="137.47"/>
    </g>
    <g stroke="#000000" stroke-width="1.0">
      <line x1="290.00" x2="290.00" y1="111.00" y2="137.47"/>
    </g>
    <g stroke="#000000" stroke-width="1.0">
      <line x1="312.95" x2="335.91" y1="97.74" y2="111.00"/>
      <line x1="312.82" x2="330.04" y1="104.59" y2="114.54"/>
    </g>
    <g stroke="#000000" stroke-width="1.0">
      <line x1="244.09" x2="244.09" y1="111.00" y2="137.47"/>
      <line x1="250.09" x2="250.09" y1="114.31" y2="134.16"/>
    </g>
    <g stroke="#000000" stroke-width="1.0">
      <line x1="244.09" x2="267.05" y1="111.00" y2="97.74"/>
    </g>
    <g stroke="#000000" stroke-width="1.0">
      <line x1="267.05" x2="290.00" y1="97.74" y2="111.00"/>
      <line x1="266.91" x2="284.13" y1="104.59" y2="114.54"/>
    </g>
    <g stroke="#000000" stroke-width="1.0">
      <line x1="290.00" x2="306.00" y1="137.47" y2="146.71"/>
    </g>
    <g stroke="#000000" stroke-width="1.0">
      <line x1="290.00" x2="267.05" y1="137.47" y2="150.73"/>
      <line x1="284.13" x2="266.91" y1="133.93" y2="143.88"/>
    </g>
    <text fill="#000000" font-family="STIX Two Text" font-size="12pt" x="307.30" y="154.73">N</text>
    <text fill="#000000" font-family="STIX Two Text" font-size="12pt" x="261.30" y="181.24">OH</text>
    <polyline fill="none" points="267.00,64.00 267.00,85.59" stroke="#000000" stroke-width="1.0"/>
    <polygon fill="#000000" fill-rule="evenodd" points="267.00,93.59 270.00,83.59 267.00,85.59 264.00,83.59" stroke="#000000" stroke-width="1"/>
    <polyline fill="none" points="214.21,155.34 232.61,144.08" stroke="#000000" stroke-width="1.0"/>
    <polygon fill="#000000" fill-rule="evenodd" points="239.44,139.90 229.34,142.56 232.61,144.08 232.47,147.68" stroke="#000000" stroke-width="1"/>
    <text fill="#000000" font-family="STIX Two Text" font-size="12pt" x="260.30" y="56.00">Br</text>
    <text fill="#000000" font-family="STIX Two Text" font-size="12pt" x="194.30" y="166.50">Br</text>
    <text fill="#000000" font-family="STIX Two Text" font-size="12pt" textLength="38" x="329.00" y="181.25">oxina</text>
    <text fill="#000000" font-family="STIX Two Text" font-size="12pt" textLength="148" x="371.00" y="181.25">(8-hidroxiquinoleína)</text>
    <text fill="#000000" font-family="STIX Two Text" font-size="12pt" textLength="12" x="342.00" y="201.25">|||</text>
    <text fill="#000000" font-family="STIX Two Text" font-size="12pt" textLength="28" x="334.00" y="220.25">(ox)</text>
  </g>
</svg>
