<?xml version="1.0" encoding="UTF-8" standalone="no"?>
<svg id="svg4461" xmlns:rdf="http://www.w3.org/1999/02/22-rdf-syntax-ns#" xmlns="http://www.w3.org/2000/svg" xmlns:ns0="http://www.iki.fi/pav/software/textext/" height="200" width="200" version="1.1" xmlns:cc="http://creativecommons.org/ns#" xmlns:xlink="http://www.w3.org/1999/xlink" viewBox="0 0 200 200" xmlns:dc="http://purl.org/dc/elements/1.1/">
 <defs>
  <marker id="marker6773" refY="0.0" refX="0.0" orient="auto" overflow="visible">
   <path id="path6775" stroke-linejoin="round" d="m8.7186 4.0337l-10.926-4.0177 10.926-4.0177c-1.7455 2.3721-1.7355 5.6174 0 8.0354z" fill-rule="evenodd" transform="scale(.6) rotate(180) translate(0)" stroke="#000" stroke-width=".625"/>
  </marker>
  <rect id="gpPt4" height="2" width="2" stroke="currentColor" y="-1" x="-1" stroke-width=".222" fill="currentColor"/>
 </defs>
 <metadata id="metadata4707">
  <rdf:RDF>
   <cc:Work rdf:about="">
    <dc:format>image/svg+xml</dc:format>
    <dc:type rdf:resource="http://purl.org/dc/dcmitype/StillImage"/>
    <dc:title>Gnuplot</dc:title>
   </cc:Work>
  </rdf:RDF>
 </metadata>
 <title id="title4463">Gnuplot</title>
 <desc id="desc4465">Produced by GNUPLOT 5.0 patchlevel 3</desc>
 <g id="gnuplot_canvas">
  <g fill="none">
   <rect id="rect4468" height="200" width="200" y="0" x="0"/>
   <g stroke="currentColor">
    <g id="g4500" color="black">
     <g id="g4502" font-size="12" transform="translate(39.3,101.3)" stroke="none" font-family="Arial" fill="#000">
      <text id="text4504"/>
     </g>
    </g>
    <g id="g4506" color="black">
     <use id="use4508" color="black" xlink:href="#gpPt4" transform="translate(34.8,101.3) scale(1.12)"/>
    </g>
    <g id="g4510" color="black">
     <g id="g4512" font-size="12" transform="translate(96.3,164.8)" stroke="none" font-family="Arial" fill="#000">
      <text id="text4514"/>
     </g>
    </g>
    <g id="g4516" color="black">
     <use id="use4518" color="black" xlink:href="#gpPt4" transform="translate(91.8,164.8) scale(1.12)"/>
    </g>
    <g id="g4520" color="black">
     <g id="g4522" font-size="12" transform="translate(43 138.5)" stroke="none" font-family="Arial" fill="#000">
      <text id="text4524"/>
     </g>
    </g>
    <g id="g4526" color="black">
     <use id="use4528" color="black" xlink:href="#gpPt4" transform="translate(38.5,138.5) scale(1.12)"/>
    </g>
    <g id="g4530" color="black">
     <g id="g4532" font-size="12" transform="translate(47.7,104.7)" stroke="none" font-family="Arial" fill="#000">
      <text id="text4534"/>
     </g>
    </g>
    <g id="g4536" color="black">
     <use id="use4538" color="black" xlink:href="#gpPt4" transform="translate(43.2,104.7) scale(1.12)"/>
    </g>
    <g id="g4540" color="black">
     <g id="g4542" font-size="12" transform="translate(77.4,24.1)" stroke="none" font-family="Arial" fill="#000">
      <text id="text4544"/>
     </g>
    </g>
    <g id="g4546" color="black">
     <use id="use4548" color="black" xlink:href="#gpPt4" transform="translate(72.9,24.1) scale(1.12)"/>
    </g>
    <g id="g4550" color="black">
     <g id="g4552" font-size="12" transform="translate(28.7,5.4)" stroke="none" font-family="Arial" fill="#000">
      <text id="text4554"/>
     </g>
    </g>
    <g id="g4556" color="black">
     <use id="use4558" color="black" xlink:href="#gpPt4" transform="translate(24.2,5.4) scale(1.12)"/>
    </g>
    <g id="g4560" color="black">
     <g id="g4562" font-size="12" transform="translate(23.6,86.5)" stroke="none" font-family="Arial" fill="#000">
      <text id="text4564"/>
     </g>
    </g>
    <g id="g4566" color="black">
     <use id="use4568" color="black" xlink:href="#gpPt4" transform="translate(19.1,86.5) scale(1.12)"/>
    </g>
    <g id="g4570" color="black">
     <g id="g4572" font-size="12" transform="translate(66 34)" stroke="none" font-family="Arial" fill="#000">
      <text id="text4574"/>
     </g>
    </g>
    <g id="g4576" color="black">
     <use id="use4578" color="black" xlink:href="#gpPt4" transform="translate(61.5 34) scale(1.12)"/>
    </g>
    <g id="g4580" color="black">
     <g id="g4582" font-size="12" transform="translate(120.8,181.8)" stroke="none" font-family="Arial" fill="#000">
      <text id="text4584"/>
     </g>
    </g>
    <g id="g4586" color="black">
     <use id="use4588" color="black" xlink:href="#gpPt4" transform="translate(116.3,181.8) scale(1.12)"/>
    </g>
    <g id="g4590" color="black">
     <g id="g4592" font-size="12" transform="translate(128.5,143.6)" stroke="none" font-family="Arial" fill="#000">
      <text id="text4594"/>
     </g>
    </g>
    <g id="g4596" color="black">
     <use id="use4598" color="black" xlink:href="#gpPt4" transform="translate(124 143.6) scale(1.12)"/>
    </g>
    <g id="g4600" color="black">
     <g id="g4602" font-size="12" transform="translate(158 111.2)" stroke="none" font-family="Arial" fill="#000">
      <text id="text4604"/>
     </g>
    </g>
    <g id="g4606" color="black">
     <use id="use4608" color="black" xlink:href="#gpPt4" transform="translate(153.5,111.2) scale(1.12)"/>
    </g>
    <g id="g4610" color="black">
     <g id="g4612" font-size="12" transform="translate(116.8,147.5)" stroke="none" font-family="Arial" fill="#000">
      <text id="text4614"/>
     </g>
    </g>
    <g id="g4616" color="black">
     <use id="use4618" color="black" xlink:href="#gpPt4" transform="translate(112.3,147.5) scale(1.12)"/>
    </g>
    <g id="g4620" color="black">
     <g id="g4622" font-size="12" transform="translate(198 28.9)" stroke="none" font-family="Arial" fill="#000">
      <text id="text4624"/>
     </g>
    </g>
    <g id="g4626" color="black">
     <use id="use4628" color="black" xlink:href="#gpPt4" transform="translate(193.5,28.9) scale(1.12)"/>
    </g>
    <g id="g4630" color="black">
     <g id="g4632" font-size="12" transform="translate(174 50.7)" stroke="none" font-family="Arial" fill="#000">
      <text id="text4634"/>
     </g>
    </g>
    <g id="g4636" color="black">
     <use id="use4638" color="black" xlink:href="#gpPt4" transform="translate(169.5,50.7) scale(1.12)"/>
    </g>
    <g id="g4640" color="black">
     <g id="g4642" font-size="12" transform="translate(175.9,32.2)" stroke="none" font-family="Arial" fill="#000">
      <text id="text4644"/>
     </g>
    </g>
    <g id="g4646" color="black">
     <use id="use4648" color="black" xlink:href="#gpPt4" transform="translate(171.4,32.2) scale(1.12)"/>
    </g>
    <g id="g4650" color="black">
     <g id="g4652" font-size="12" transform="translate(187 74.9)" stroke="none" font-family="Arial" fill="#000">
      <text id="text4654"/>
     </g>
    </g>
    <g id="g4656" color="black">
     <use id="use4658" color="black" xlink:href="#gpPt4" transform="translate(182.5,74.9) scale(1.12)"/>
    </g>
   </g>
  </g>
  <g id="gnuplot_plot_1">
   <title id="title4665">NaN</title>
  </g>
  <g stroke="currentColor" stroke-width="1.5" fill="none">
   <g id="g4675" color="black">
    <g id="g4677" stroke="none" shape-rendering="crispEdges">
     <polygon id="polygon4679" points="97.9 52.3 92.8 57.5 97.9 48.6 103 57.5" fill="#e51e10"/>
    </g>
    <path id="path4681" stroke="#e51e10" d="m97.9 52.3l-5.1 5.2 5.1-8.9 5.1 8.9-5.1-5.2m0 47.7v-47.7"/>
   </g>
   <g id="g4683" color="black">
    <g id="g4685" stroke="none" shape-rendering="crispEdges">
     <polygon id="polygon4687" points="131.6 66.3 124.3 66.3 134.2 63.7 131.6 73.6" fill="#0072b2"/>
    </g>
    <path id="path4689" stroke="#0072b2" d="m131.6 66.3h-7.3l9.9-2.6-2.6 9.9v-7.3m-33.7 33.7l33.7-33.7"/>
   </g>
   <g id="g4691" color="black">
    <g id="g4693" stroke="none" shape-rendering="crispEdges">
     <polygon id="polygon4695" points="101.3 50 104.1 56.7 97.9 48.6 108.1 47.3" fill="#000"/>
    </g>
    <path id="path4697" stroke="#000" d="m101.3 50l2.8 6.7-6.2-8.1 10.2-1.3-6.8 2.7m32.9 13.7l-32.9-13.7"/>
   </g>
  </g>
 </g>
 <g fill-rule="evenodd" stroke="#000" stroke-miterlimit="10.433">
  <g id="content" xml:space="preserve" ns0:pdfconverter="pstoedit" transform="matrix(1.75 0 0 -1.75 -172.06 1351.5)" ns0:text="$O$" ns0:version="0.7.2" ns0:inkscapeversion="0.91" ns0:preamble="/usr/share/inkscape/extensions/default_packages.tex" ns0:scale="1.4" ns0:texconverter="pdflatex"><path id="path4844" d="m153.43 713.76h-0.08l-0.08-0.01h-0.07l-0.08-0.01-0.08-0.01-0.08-0.01-0.08-0.02-0.08-0.02-0.08-0.02-0.09-0.02-0.08-0.02-0.08-0.03-0.08-0.02-0.08-0.04-0.08-0.03-0.08-0.03-0.08-0.04-0.08-0.04-0.08-0.04-0.08-0.04-0.08-0.05-0.08-0.04-0.15-0.11-0.16-0.1-0.15-0.12-0.16-0.13-0.15-0.13c-1-0.92-1.59-2.14-1.59-3.31 0-1.39 0.9-2.38 2.17-2.38 2.07 0 4.08 2.09 4.19 4.35 0.07 1.4-0.9 2.47-2.24 2.47l-0.09-0.33c0.79 0 1.29-0.58 1.29-1.52 0-1.07-0.47-2.53-1.12-3.46-0.55-0.79-1.16-1.18-1.86-1.18-0.84 0-1.3 0.61-1.3 1.69 0 0.93 0.5 2.42 1.1 3.28 0.56 0.81 1.17 1.19 1.89 1.19l0.09 0.33z" stroke-width="0"/></g>
  <g id="g5116" xml:space="preserve" stroke-width="0" ns0:pdfconverter="pstoedit" transform="matrix(1.75 0 0 -1.75 -181.32 1318.4)" ns0:text="$\\vec{r}_k$" ns0:version="0.7.2" ns0:inkscapeversion="0.91" ns0:preamble="/usr/share/inkscape/extensions/default_packages.tex" ns0:scale="1.4" ns0:texconverter="pdflatex"><polygon id="polygon5118" points="153.03 712.93 152.05 711.92 152.24 711.68 153.91 713.12 152.86 714.56 152.57 714.32 153.11 713.32 149.78 713.32 149.69 712.93"/><path id="path5120" d="m149.91 707.12 0.05 0.16 0.05 0.15 0.04 0.14 0.04 0.13 0.05 0.13 0.03 0.12 0.04 0.12 0.04 0.11 0.03 0.11 0.04 0.1 0.03 0.1 0.03 0.09 0.04 0.09 0.03 0.08 0.03 0.08 0.03 0.08 0.03 0.08 0.03 0.07 0.06 0.14 0.07 0.14 0.06 0.13 0.07 0.13 0.07 0.13 0.08 0.13 0.04 0.07 0.04 0.07c0.33 0.56 0.61 0.87 0.78 0.87 0.06 0 0.11-0.04 0.16-0.14 0.08-0.17 0.16-0.22 0.36-0.22 0.29 0 0.46 0.18 0.46 0.49s-0.2 0.52-0.47 0.52c-0.23 0-0.5-0.15-0.76-0.42-0.41-0.42-0.81-1.01-0.97-1.41l-0.14-0.36 0.53 2.17-0.03 0.02c-0.73-0.13-0.82-0.15-1.54-0.27v-0.17c0.24 0.05 0.27 0.05 0.34 0.05 0.21 0 0.34-0.1 0.34-0.28 0-0.14 0-0.14-0.16-0.82l-0.8-2.91z"/><path id="path5122" d="m155.48 706.39-0.11-0.18c-0.13-0.22-0.21-0.29-0.31-0.29-0.15 0-0.3 0.23-0.57 0.9-0.03 0.09-0.14 0.34-0.26 0.61 1.03 0.91 1.25 1.05 1.57 1.07v0.11h-1.27v-0.11h0.11c0.17 0 0.27-0.05 0.27-0.12 0-0.14-0.35-0.48-1-0.98-0.09-0.07-0.18-0.14-0.3-0.23l0.84 3.19-0.04 0.03c-0.41-0.09-0.67-0.14-1.08-0.18v-0.12c0.33 0.01 0.46-0.04 0.47-0.17-0.01-0.12-0.06-0.31-0.15-0.63-0.03-0.1-0.05-0.17-0.06-0.23l-0.02-0.06-0.89-3.37h0.53l0.33 1.26 0.3 0.22c0.11-0.31 0.29-0.73 0.41-0.99 0.23-0.43 0.35-0.57 0.55-0.57 0.28 0 0.46 0.18 0.78 0.76z"/></g>
  <g id="g5405" xml:space="preserve" stroke-width="0" ns0:pdfconverter="pstoedit" transform="matrix(1.75 0 0 -1.75 -145.41 1334.9)" ns0:text="$\\vec{r}_Q$" ns0:version="0.7.2" ns0:inkscapeversion="0.91" ns0:preamble="/usr/share/inkscape/extensions/default_packages.tex" ns0:scale="1.4" ns0:texconverter="pdflatex"><polygon id="polygon5407" points="152.86 714.56 152.57 714.32 153.11 713.32 149.78 713.32 149.69 712.93 153.03 712.93 152.05 711.92 152.24 711.68 153.91 713.12"/><path id="path5409" d="m149.91 707.12 0.05 0.16 0.05 0.15 0.04 0.14 0.04 0.13 0.05 0.13 0.03 0.12 0.04 0.12 0.04 0.11 0.03 0.11 0.04 0.1 0.03 0.1 0.03 0.09 0.04 0.09 0.03 0.08 0.03 0.08 0.03 0.08 0.03 0.08 0.03 0.07 0.06 0.14 0.07 0.14 0.06 0.13 0.07 0.13 0.07 0.13 0.08 0.13 0.04 0.07 0.04 0.07c0.33 0.56 0.61 0.87 0.78 0.87 0.06 0 0.11-0.04 0.16-0.14 0.08-0.17 0.16-0.22 0.36-0.22 0.29 0 0.46 0.18 0.46 0.49s-0.2 0.52-0.47 0.52c-0.23 0-0.5-0.15-0.76-0.42-0.41-0.42-0.81-1.01-0.97-1.41l-0.14-0.36 0.53 2.17-0.03 0.02c-0.73-0.13-0.82-0.15-1.54-0.27v-0.17c0.24 0.05 0.27 0.05 0.34 0.05 0.21 0 0.34-0.1 0.34-0.28 0-0.14 0-0.14-0.16-0.82l-0.8-2.91z"/><path id="path5411" d="m154.71 705.52h0.05l0.04 0.01h0.05 0.05l0.04 0.01h0.04l0.04 0.01h0.04l0.04 0.01h0.04l0.04 0.01 0.04 0.01 0.07 0.01 0.07 0.02 0.06 0.02 0.07 0.02 0.07 0.03 0.06 0.02 0.07 0.03 0.07 0.03 0.03 0.02 0.04 0.02 0.03 0.02 0.04 0.02c1.03 0.58 1.73 1.71 1.73 2.81 0 0.94-0.67 1.63-1.59 1.63l-0.04-0.24c0.56 0 0.9-0.4 0.9-1.06 0-0.74-0.33-1.77-0.77-2.41-0.39-0.55-0.82-0.82-1.33-0.82-0.56 0-0.89 0.42-0.89 1.16 0 0.66 0.34 1.7 0.77 2.31 0.39 0.56 0.81 0.82 1.32 0.82l0.04 0.24c-0.56 0-1.19-0.29-1.75-0.79-0.7-0.66-1.11-1.5-1.11-2.32 0-0.57 0.21-1.05 0.58-1.34 0.19-0.14 0.34-0.21 0.65-0.28-0.64-0.56-0.7-0.62-1.24-0.99l0.07-0.11c0.27 0.15 0.53 0.22 0.8 0.22 0.14 0 0.34-0.04 0.65-0.13 0.43-0.12 0.8-0.19 1.06-0.19 0.38 0 0.87 0.18 1.23 0.46 0.17 0.13 0.26 0.23 0.44 0.48l-0.11 0.07c-0.39-0.4-0.67-0.53-1.18-0.53-0.18 0-0.32 0.03-0.85 0.15-0.37 0.09-0.69 0.16-0.74 0.15-0.02-0.01-0.04-0.01-0.04-0.01h-0.17z"/></g>
  <g id="g5701" xml:space="preserve" ns0:pdfconverter="pstoedit" transform="matrix(1.75 0 0 -1.75 -173.16 1286.3)" ns0:text="$k$" ns0:version="0.7.2" ns0:inkscapeversion="0.91" ns0:preamble="/usr/share/inkscape/extensions/default_packages.tex" ns0:scale="1.4" ns0:texconverter="pdflatex"><path id="path5703" stroke-width="0" d="m152.84 708.21-0.16-0.26c-0.17-0.31-0.29-0.42-0.44-0.42-0.21 0-0.42 0.33-0.81 1.29-0.05 0.13-0.2 0.48-0.37 0.87 1.47 1.31 1.78 1.51 2.24 1.54v0.16h-1.82v-0.16h0.16c0.25 0 0.39-0.07 0.39-0.18 0-0.2-0.5-0.69-1.43-1.4-0.14-0.11-0.26-0.21-0.43-0.33l1.2 4.56-0.05 0.05c-0.59-0.13-0.97-0.2-1.55-0.27v-0.16c0.47 0.01 0.66-0.06 0.67-0.25-0.02-0.17-0.09-0.44-0.22-0.9-0.04-0.14-0.07-0.25-0.09-0.33l-0.01-0.09-1.27-4.81h0.75l0.47 1.8 0.42 0.31c0.16-0.43 0.42-1.04 0.6-1.4 0.32-0.63 0.5-0.82 0.79-0.82 0.4 0 0.66 0.25 1.1 1.09z"/></g>
  <g id="g5997" xml:space="preserve" ns0:pdfconverter="pstoedit" transform="matrix(1.75 0 0 -1.75 -123.04 1303.7)" ns0:text="$Q$" ns0:version="0.7.2" ns0:inkscapeversion="0.91" ns0:preamble="/usr/share/inkscape/extensions/default_packages.tex" ns0:scale="1.4" ns0:texconverter="pdflatex"><path id="path5999" d="m151.74 706.96 0.07 0.01h0.07l0.06 0.01h0.07l0.06 0.01 0.06 0.01h0.06l0.06 0.01 0.05 0.01 0.06 0.01 0.05 0.01 0.06 0.01 0.1 0.02 0.1 0.03 0.09 0.02 0.1 0.03 0.09 0.04 0.1 0.04 0.09 0.04 0.1 0.04 0.05 0.03 0.05 0.03 0.05 0.02 0.05 0.03c1.47 0.83 2.48 2.44 2.48 4.02 0 1.34-0.96 2.32-2.28 2.32l-0.05-0.33c0.8 0 1.29-0.58 1.29-1.52 0-1.06-0.47-2.53-1.11-3.44-0.55-0.79-1.17-1.18-1.89-1.18-0.81 0-1.28 0.61-1.28 1.66 0 0.94 0.49 2.43 1.1 3.29 0.56 0.81 1.16 1.19 1.89 1.19l0.05 0.33c-0.8 0-1.69-0.41-2.49-1.13-1.01-0.93-1.6-2.14-1.6-3.31 0-0.81 0.3-1.49 0.84-1.91 0.26-0.21 0.48-0.31 0.92-0.41-0.91-0.79-1-0.87-1.77-1.41l0.11-0.15c0.37 0.21 0.75 0.31 1.14 0.31 0.2 0 0.49-0.06 0.93-0.18 0.6-0.17 1.14-0.27 1.51-0.27 0.55 0 1.25 0.26 1.76 0.66 0.23 0.18 0.36 0.32 0.62 0.67l-0.15 0.11c-0.56-0.57-0.96-0.76-1.68-0.76-0.26 0-0.47 0.04-1.23 0.22-0.51 0.13-0.98 0.21-1.04 0.21-0.04-0.01-0.06-0.01-0.06-0.01h-0.25z" stroke-width="0"/></g>
  <g id="g6316" xml:space="preserve" stroke-width="0" ns0:pdfconverter="pstoedit" transform="matrix(1.75 0 0 -1.75 -157.4 1266.2)" ns0:text="$\\left( \\vec{r}_k - \\vec{r}_Q \\right)$" ns0:version="0.7.2" ns0:inkscapeversion="0.91" ns0:preamble="/usr/share/inkscape/extensions/default_packages.tex" ns0:scale="1.4" ns0:texconverter="pdflatex"><path id="path6318" d="m151.83 705.07-0.13 0.1-0.12 0.11-0.11 0.12-0.11 0.12-0.11 0.11-0.09 0.13-0.1 0.12-0.08 0.13-0.09 0.13-0.08 0.13-0.07 0.14-0.07 0.13-0.06 0.14-0.06 0.14-0.06 0.15-0.05 0.14-0.05 0.15-0.04 0.15-0.04 0.15-0.04 0.16-0.03 0.15-0.03 0.16-0.02 0.16-0.03 0.16-0.03 0.33-0.03 0.33-0.01 0.34v0.34c0 1.84 0.36 3.49 1.74 4.63l-0.12 0.2c-0.48-0.4-2.5-1.53-2.5-4.83s2.02-4.43 2.5-4.83z"/><polygon id="polygon6320" points="156.27 714.56 155.98 714.32 156.52 713.32 153.19 713.32 153.1 712.93 156.44 712.93 155.46 711.92 155.65 711.68 157.33 713.12"/><path id="path6322" d="m153.34 707.12 0.04 0.16 0.05 0.15 0.04 0.14 0.04 0.13 0.05 0.13 0.03 0.12 0.04 0.12 0.04 0.11 0.03 0.11 0.04 0.1 0.03 0.1 0.03 0.09 0.04 0.09 0.03 0.08 0.03 0.08 0.03 0.08 0.03 0.08 0.03 0.07 0.06 0.14 0.07 0.14 0.06 0.13 0.07 0.13 0.07 0.13 0.08 0.13 0.04 0.07 0.04 0.07c0.33 0.56 0.61 0.87 0.78 0.87 0.06 0 0.11-0.04 0.16-0.14 0.08-0.17 0.16-0.22 0.36-0.22 0.29 0 0.46 0.18 0.46 0.49s-0.2 0.52-0.47 0.52c-0.23 0-0.5-0.15-0.76-0.42-0.41-0.42-0.81-1.01-0.97-1.41l-0.14-0.36 0.53 2.17-0.03 0.02c-0.73-0.13-0.81-0.15-1.54-0.27v-0.17c0.24 0.05 0.27 0.05 0.34 0.05 0.21 0 0.34-0.1 0.34-0.28 0-0.14 0-0.14-0.16-0.82l-0.8-2.91z"/><path id="path6324" d="m158.9 706.39-0.11-0.18c-0.13-0.22-0.21-0.29-0.31-0.29-0.15 0-0.3 0.23-0.57 0.9-0.03 0.09-0.14 0.34-0.26 0.61 1.03 0.91 1.25 1.05 1.57 1.07v0.11h-1.27v-0.11h0.11c0.17 0 0.27-0.05 0.27-0.12 0-0.14-0.35-0.48-1-0.98-0.09-0.07-0.18-0.14-0.3-0.23l0.84 3.19-0.03 0.03c-0.42-0.09-0.68-0.14-1.09-0.18v-0.12c0.33 0.01 0.46-0.04 0.47-0.17-0.01-0.12-0.06-0.31-0.15-0.63-0.03-0.1-0.05-0.17-0.06-0.23l-0.02-0.06-0.89-3.37h0.53l0.33 1.26 0.3 0.22c0.11-0.31 0.29-0.73 0.41-0.99 0.23-0.43 0.35-0.57 0.56-0.57 0.27 0 0.45 0.18 0.77 0.76z"/><polygon id="polygon6326" points="167.65 709.96 162.55 709.96 162.55 709.4 167.65 709.4"/><polygon id="polygon6328" points="174.62 714.56 174.34 714.32 174.87 713.32 171.55 713.32 171.46 712.93 174.79 712.93 173.82 711.92 174.01 711.68 175.68 713.12"/><path id="path6330" d="m171.69 707.12 0.05 0.16 0.04 0.15 0.05 0.14 0.04 0.13 0.04 0.13 0.04 0.12 0.03 0.12 0.04 0.11 0.04 0.11 0.03 0.1 0.03 0.1 0.04 0.09 0.03 0.09 0.03 0.08 0.03 0.08 0.03 0.08 0.03 0.08 0.03 0.07 0.07 0.14 0.06 0.14 0.06 0.13 0.07 0.13 0.07 0.13 0.08 0.13 0.04 0.07 0.04 0.07c0.33 0.56 0.61 0.87 0.78 0.87 0.06 0 0.11-0.04 0.16-0.14 0.08-0.17 0.16-0.22 0.36-0.22 0.29 0 0.46 0.18 0.46 0.49s-0.19 0.52-0.47 0.52c-0.23 0-0.5-0.15-0.76-0.42-0.41-0.42-0.81-1.01-0.96-1.41l-0.14-0.36 0.52 2.17-0.03 0.02c-0.72-0.13-0.81-0.15-1.54-0.27v-0.17c0.24 0.05 0.27 0.05 0.34 0.05 0.22 0 0.35-0.1 0.35-0.28 0-0.14 0-0.14-0.16-0.82l-0.81-2.91z"/><path id="path6332" d="m176.48 705.52h0.05l0.05 0.01h0.04 0.05l0.04 0.01h0.04l0.05 0.01h0.04l0.04 0.01h0.03l0.04 0.01 0.04 0.01 0.07 0.01 0.07 0.02 0.07 0.02 0.06 0.02 0.07 0.03 0.07 0.02 0.06 0.03 0.07 0.03 0.03 0.02 0.04 0.02 0.03 0.02 0.04 0.02c1.03 0.58 1.74 1.71 1.74 2.81 0 0.94-0.67 1.63-1.6 1.63l-0.04-0.24c0.56 0 0.91-0.4 0.91-1.06 0-0.74-0.33-1.77-0.78-2.41-0.38-0.55-0.81-0.82-1.32-0.82-0.57 0-0.9 0.42-0.9 1.16 0 0.66 0.34 1.7 0.77 2.31 0.39 0.56 0.82 0.82 1.32 0.82l0.04 0.24c-0.56 0-1.19-0.29-1.74-0.79-0.71-0.66-1.12-1.5-1.12-2.32 0-0.57 0.21-1.05 0.59-1.34 0.18-0.14 0.33-0.21 0.64-0.28-0.64-0.56-0.7-0.62-1.24-0.99l0.07-0.11c0.27 0.15 0.53 0.22 0.81 0.22 0.14 0 0.34-0.04 0.64-0.13 0.43-0.12 0.81-0.19 1.06-0.19 0.39 0 0.88 0.18 1.23 0.46 0.17 0.13 0.26 0.23 0.44 0.48l-0.1 0.07c-0.39-0.4-0.68-0.53-1.18-0.53-0.18 0-0.33 0.03-0.86 0.15-0.36 0.09-0.69 0.16-0.73 0.15-0.03-0.01-0.04-0.01-0.04-0.01h-0.18z"/><path id="path6334" d="m182.99 709.69v0.15 0.15l-0.01 0.15-0.01 0.14-0.03 0.28-0.03 0.27-0.05 0.25-0.06 0.25-0.06 0.23-0.07 0.22-0.08 0.21-0.08 0.2-0.09 0.19-0.09 0.18-0.1 0.17-0.1 0.16-0.1 0.16-0.11 0.14-0.1 0.14-0.11 0.12-0.11 0.12-0.11 0.12-0.1 0.1-0.1 0.1-0.11 0.09-0.09 0.08-0.1 0.08-0.09 0.07-0.08 0.06-0.08 0.06-0.07 0.06-0.07 0.05-0.06 0.04-0.05 0.04-0.12-0.2c1.38-1.14 1.75-2.79 1.75-4.63s-0.37-3.49-1.75-4.62l0.12-0.21c0.48 0.4 2.5 1.53 2.5 4.83z"/></g>
 </g>
 <path id="path6493" marker-end="url(#marker6773)" d="m130.53 34-9.8667 18.637" stroke="#000" stroke-width="1px" fill="none"/>
</svg>
