<?xml version="1.0" encoding="UTF-8" standalone="no"?>
<!-- Created with Inkscape (http://www.inkscape.org/) -->
<svg id="svg2" xmlns:rdf="http://www.w3.org/1999/02/22-rdf-syntax-ns#" xmlns="http://www.w3.org/2000/svg" xmlns:ns0="http://www.iki.fi/pav/software/textext/" height="169.81" width="393.13" version="1.1" xmlns:cc="http://creativecommons.org/ns#" viewBox="0 0 393.1253 169.80565" xmlns:dc="http://purl.org/dc/elements/1.1/">
 <style type="text/css">
	 @import url('../estilo.css');
 </style>
 <metadata id="metadata7">
  <rdf:RDF>
   <cc:Work rdf:about="">
    <dc:format>image/svg+xml</dc:format>
    <dc:type rdf:resource="http://purl.org/dc/dcmitype/StillImage"/>
    <dc:title/>
   </cc:Work>
  </rdf:RDF>
 </metadata>
 <g id="layer1" transform="translate(-134.5 -291.42)">
  <path id="path4332" d="m170 372.36h180" stroke="#000" stroke-width="2" fill="none"/>
  <rect id="rect4336" height="5" width="5" y="309.86" x="217.5" fill="#00f"/>
  <rect id="rect4338" height="5" width="5" y="429.86" x="217.5" fill="#00f"/>
  <path id="path4340" d="m220 432.36v-120" stroke="#00f" stroke-dasharray="2, 2" fill="none"/>
  <circle id="path4452" cy="332.36" cx="300" r="3" fill="#f00"/>
  <circle id="circle4454" cx="300" cy="412.36" r="3" fill="#f00"/>
  <path id="path4456" d="m300 412.36v-80" stroke="#f00" stroke-dasharray="2, 2" fill="none"/>
  <g fill-rule="evenodd" stroke="#000" stroke-miterlimit="10.433">
   <g id="content" xml:space="preserve" stroke-width="0" ns0:pdfconverter="pstoedit" transform="matrix(1.75 0 0 -1.75 -120.96 1582.3)" ns0:text="$m = m\&apos;$" ns0:version="0.7.2" ns0:inkscapeversion="0.91" ns0:preamble="/usr/share/inkscape/extensions/default_packages.tex" ns0:scale="1.4" ns0:texconverter="pdflatex"><path id="path4473" d="m155.57 708.29-0.01-0.02-0.02-0.03-0.02-0.02-0.02-0.02v-0.01l-0.01-0.01-0.01-0.01-0.01-0.01h-0.01v-0.01l-0.01-0.01-0.01-0.01v-0.01l-0.01-0.01-0.01-0.01-0.01-0.01v-0.01h-0.01v-0.01l-0.01-0.01-0.01-0.01-0.01-0.01v-0.01c-0.28-0.36-0.49-0.53-0.64-0.53-0.08 0-0.13 0.06-0.13 0.16 0 0.05 0.04 0.21 0.1 0.45l0.68 2.5c0 0.04 0.02 0.22 0.02 0.28 0 0.36-0.24 0.63-0.58 0.63-0.19 0-0.39-0.07-0.63-0.22-0.49-0.32-0.9-0.8-1.59-1.9 0.25 0.76 0.4 1.33 0.4 1.52 0 0.35-0.23 0.6-0.56 0.6-0.61 0-1.31-0.66-2.23-2.11l0.58 2.09-0.03 0.02c-0.56-0.12-0.77-0.16-1.59-0.31v-0.16h0.25c0.26 0 0.39-0.07 0.39-0.22 0-0.11-0.23-1.02-0.59-2.28-0.23-0.82-0.26-0.92-0.39-1.43h0.75c0.47 1.59 0.62 1.96 0.96 2.47 0.56 0.85 1.16 1.41 1.5 1.41 0.13 0 0.2-0.09 0.2-0.25 0-0.09-0.32-1.3-0.95-3.63h0.75c0.4 1.56 0.59 2.05 1.1 2.76 0.49 0.68 0.99 1.12 1.28 1.12 0.11 0 0.2-0.1 0.2-0.21 0-0.05-0.02-0.17-0.07-0.35l-0.58-2.29c-0.09-0.37-0.13-0.56-0.13-0.66 0-0.3 0.14-0.46 0.4-0.46 0.47 0 0.91 0.33 1.43 1.07l0.05 0.07z"/><polygon id="polygon4475" points="159.29 710.41 164.39 710.41 164.39 710.97 159.29 710.97"/><polygon id="polygon4477" points="159.29 708.39 164.39 708.39 164.39 708.95 159.29 708.95"/><path id="path4479" d="m174.64 708.29-0.02-0.02-0.02-0.03-0.01-0.02-0.02-0.02-0.01-0.01-0.01-0.01-0.01-0.01v-0.01h-0.01l-0.01-0.01v-0.01l-0.01-0.01-0.01-0.01v-0.01l-0.01-0.01h-0.01v-0.01l-0.01-0.01-0.01-0.01v-0.01h-0.01v-0.01h-0.01v-0.01l-0.01-0.01c-0.28-0.36-0.49-0.53-0.64-0.53-0.08 0-0.13 0.06-0.13 0.16 0 0.05 0.04 0.21 0.1 0.45l0.68 2.5c0.01 0.04 0.03 0.22 0.03 0.28 0 0.36-0.25 0.63-0.59 0.63-0.19 0-0.39-0.07-0.63-0.22-0.48-0.32-0.89-0.8-1.58-1.9 0.25 0.76 0.4 1.33 0.4 1.52 0 0.35-0.23 0.6-0.57 0.6-0.61 0-1.3-0.66-2.22-2.11l0.58 2.09-0.03 0.02c-0.56-0.12-0.77-0.16-1.6-0.31v-0.16h0.25c0.26 0 0.39-0.07 0.39-0.22 0-0.11-0.23-1.02-0.59-2.28-0.23-0.82-0.26-0.92-0.38-1.43h0.74c0.48 1.59 0.63 1.96 0.97 2.47 0.56 0.85 1.15 1.41 1.49 1.41 0.13 0 0.2-0.09 0.2-0.25 0-0.09-0.32-1.3-0.95-3.63h0.75c0.4 1.56 0.6 2.05 1.11 2.76 0.49 0.68 0.99 1.12 1.27 1.12 0.11 0 0.2-0.1 0.2-0.21 0-0.05-0.02-0.17-0.07-0.35l-0.57-2.29c-0.09-0.37-0.13-0.56-0.13-0.66 0-0.3 0.13-0.46 0.39-0.46 0.47 0 0.91 0.33 1.44 1.07l0.05 0.07z"/><path id="path4481" d="m177.04 713.61v0.02 0.03l-0.01 0.02v0.02l-0.01 0.02-0.01 0.02v0.02l-0.01 0.02-0.01 0.02-0.02 0.01-0.01 0.02-0.01 0.02-0.02 0.01-0.01 0.02-0.02 0.01-0.01 0.02-0.02 0.01-0.02 0.01-0.02 0.02-0.02 0.01-0.02 0.01-0.02 0.01-0.02 0.01h-0.02l-0.02 0.01-0.02 0.01h-0.02l-0.02 0.01h-0.02-0.02-0.02-0.02c-0.26 0-0.39-0.25-0.46-0.46l-0.72-2.11c-0.02-0.06-0.07-0.18-0.07-0.24 0-0.07 0.04-0.15 0.11-0.15 0.1 0 0.22 0.15 0.27 0.22l1.14 1.81c0.1 0.14 0.2 0.34 0.2 0.52z"/></g>
   <g id="g4521" xml:space="preserve" ns0:pdfconverter="pstoedit" transform="matrix(1.75 0 0 -1.75 -46.481 1541.6)" ns0:text="$m$" ns0:version="0.7.2" ns0:inkscapeversion="0.91" ns0:preamble="/usr/share/inkscape/extensions/default_packages.tex" ns0:scale="1.4" ns0:texconverter="pdflatex"><path id="path4523" d="m155.57 708.29-0.01-0.02-0.02-0.03-0.02-0.02-0.02-0.02v-0.01l-0.01-0.01-0.01-0.01-0.01-0.01h-0.01v-0.01l-0.01-0.01-0.01-0.01v-0.01l-0.01-0.01-0.01-0.01-0.01-0.01v-0.01h-0.01v-0.01l-0.01-0.01-0.01-0.01-0.01-0.01v-0.01c-0.28-0.36-0.49-0.53-0.64-0.53-0.08 0-0.13 0.06-0.13 0.16 0 0.05 0.04 0.21 0.1 0.45l0.68 2.5c0 0.04 0.02 0.22 0.02 0.28 0 0.36-0.24 0.63-0.58 0.63-0.19 0-0.39-0.07-0.63-0.22-0.49-0.32-0.9-0.8-1.59-1.9 0.25 0.76 0.4 1.33 0.4 1.52 0 0.35-0.23 0.6-0.56 0.6-0.61 0-1.31-0.66-2.23-2.11l0.58 2.09-0.03 0.02c-0.56-0.12-0.77-0.16-1.59-0.31v-0.16h0.25c0.26 0 0.39-0.07 0.39-0.22 0-0.11-0.23-1.02-0.59-2.28-0.23-0.82-0.26-0.92-0.39-1.43h0.75c0.47 1.59 0.62 1.96 0.96 2.47 0.56 0.85 1.16 1.41 1.5 1.41 0.13 0 0.2-0.09 0.2-0.25 0-0.09-0.32-1.3-0.95-3.63h0.75c0.4 1.56 0.59 2.05 1.1 2.76 0.49 0.68 0.99 1.12 1.28 1.12 0.11 0 0.2-0.1 0.2-0.21 0-0.05-0.02-0.17-0.07-0.35l-0.58-2.29c-0.09-0.37-0.13-0.56-0.13-0.66 0-0.3 0.14-0.46 0.4-0.46 0.47 0 0.91 0.33 1.43 1.07l0.05 0.07z" stroke-width="0"/></g>
   <g id="g4567" xml:space="preserve" stroke-width="0" ns0:pdfconverter="pstoedit" transform="matrix(1.75 0 0 -1.75 -46.481 1687.5)" ns0:text="$m\&apos;$" ns0:version="0.7.2" ns0:inkscapeversion="0.91" ns0:preamble="/usr/share/inkscape/extensions/default_packages.tex" ns0:scale="1.4" ns0:texconverter="pdflatex"><path id="path4569" d="m155.57 708.29-0.01-0.02-0.02-0.03-0.02-0.02-0.02-0.02v-0.01l-0.01-0.01-0.01-0.01-0.01-0.01h-0.01v-0.01l-0.01-0.01-0.01-0.01v-0.01l-0.01-0.01-0.01-0.01-0.01-0.01v-0.01h-0.01v-0.01l-0.01-0.01-0.01-0.01-0.01-0.01v-0.01c-0.28-0.36-0.49-0.53-0.64-0.53-0.08 0-0.13 0.06-0.13 0.16 0 0.05 0.04 0.21 0.1 0.45l0.68 2.5c0 0.04 0.02 0.22 0.02 0.28 0 0.36-0.24 0.63-0.58 0.63-0.19 0-0.39-0.07-0.63-0.22-0.49-0.32-0.9-0.8-1.59-1.9 0.25 0.76 0.4 1.33 0.4 1.52 0 0.35-0.23 0.6-0.56 0.6-0.61 0-1.31-0.66-2.23-2.11l0.58 2.09-0.03 0.02c-0.56-0.12-0.77-0.16-1.59-0.31v-0.16h0.25c0.26 0 0.39-0.07 0.39-0.22 0-0.11-0.23-1.02-0.59-2.28-0.23-0.82-0.26-0.92-0.39-1.43h0.75c0.47 1.59 0.62 1.96 0.96 2.47 0.56 0.85 1.16 1.41 1.5 1.41 0.13 0 0.2-0.09 0.2-0.25 0-0.09-0.32-1.3-0.95-3.63h0.75c0.4 1.56 0.59 2.05 1.1 2.76 0.49 0.68 0.99 1.12 1.28 1.12 0.11 0 0.2-0.1 0.2-0.21 0-0.05-0.02-0.17-0.07-0.35l-0.58-2.29c-0.09-0.37-0.13-0.56-0.13-0.66 0-0.3 0.14-0.46 0.4-0.46 0.47 0 0.91 0.33 1.43 1.07l0.05 0.07z"/><path id="path4571" d="m157.97 713.61v0.02 0.03 0.02l-0.01 0.02v0.02l-0.01 0.02-0.01 0.02-0.01 0.02-0.01 0.02-0.01 0.01-0.01 0.02-0.02 0.02-0.01 0.01-0.02 0.02-0.01 0.01-0.02 0.02-0.02 0.01-0.01 0.01-0.02 0.02-0.02 0.01-0.02 0.01-0.02 0.01-0.02 0.01h-0.02l-0.02 0.01-0.02 0.01h-0.02l-0.03 0.01h-0.02-0.02-0.02-0.02c-0.26 0-0.38-0.25-0.45-0.46l-0.73-2.11c-0.02-0.06-0.07-0.18-0.07-0.24 0-0.07 0.04-0.15 0.11-0.15 0.11 0 0.23 0.15 0.27 0.22l1.15 1.81c0.1 0.14 0.19 0.34 0.19 0.52z"/></g>
   <g id="g4621" xml:space="preserve" stroke-width="0" ns0:pdfconverter="pstoedit" transform="matrix(1.75 0 0 -1.75 15.091 1559.2)" ns0:text="$(x,y,z)$" ns0:version="0.7.2" ns0:inkscapeversion="0.91" ns0:preamble="/usr/share/inkscape/extensions/default_packages.tex" ns0:scale="1.4" ns0:texconverter="pdflatex"><path id="path4623" d="m151.65 713.86-0.07-0.05-0.06-0.04-0.07-0.04-0.06-0.04-0.06-0.04-0.05-0.04-0.06-0.04-0.05-0.04-0.05-0.03-0.05-0.04-0.05-0.04-0.04-0.03-0.05-0.04-0.04-0.03-0.08-0.07-0.08-0.07-0.07-0.06-0.08-0.07-0.06-0.08-0.07-0.07-0.07-0.07-0.07-0.08-0.07-0.09c-0.7-0.87-1.05-1.86-1.05-3.03 0-1.26 0.37-2.24 1.24-3.25 0.41-0.48 0.67-0.7 1.19-1.02l0.12 0.16c-0.8 0.63-1.08 0.97-1.35 1.72-0.24 0.67-0.35 1.43-0.35 2.42 0 1.05 0.13 1.87 0.4 2.48 0.28 0.62 0.58 0.98 1.3 1.56z"/><path id="path4625" d="m156.53 708.23-0.01-0.02-0.02-0.01-0.01-0.02-0.01-0.01-0.02-0.02-0.01-0.01-0.01-0.02-0.01-0.01-0.02-0.02-0.01-0.02-0.01-0.01-0.02-0.02v-0.01l-0.01-0.01-0.01-0.01v-0.01l-0.01-0.01-0.01-0.01-0.01-0.01-0.01-0.01c-0.23-0.3-0.35-0.4-0.46-0.4-0.14 0-0.23 0.13-0.3 0.41-0.02 0.08-0.03 0.14-0.04 0.17-0.25 1.01-0.36 1.46-0.36 1.61 0.44 0.77 0.8 1.21 0.97 1.21 0.06 0 0.14-0.03 0.24-0.08 0.12-0.07 0.19-0.09 0.27-0.09 0.21 0 0.35 0.15 0.35 0.36s-0.17 0.37-0.41 0.37c-0.44 0-0.81-0.36-1.5-1.43l-0.11 0.55c-0.14 0.68-0.25 0.88-0.52 0.88-0.22 0-0.56-0.09-1.17-0.29l-0.11-0.04 0.05-0.15c0.37 0.09 0.46 0.11 0.55 0.11 0.25 0 0.31-0.09 0.45-0.69l0.29-1.23-0.82-1.16c-0.2-0.3-0.39-0.48-0.5-0.48-0.06 0-0.16 0.03-0.26 0.09-0.13 0.07-0.24 0.1-0.32 0.1-0.19 0-0.34-0.15-0.34-0.35 0-0.26 0.2-0.42 0.5-0.42 0.31 0 0.42 0.09 0.92 0.7 0.27 0.32 0.48 0.59 0.9 1.17l0.3-1.2c0.13-0.51 0.26-0.67 0.58-0.67 0.38 0 0.63 0.24 1.21 1.14z"/><path id="path4627" d="m158.93 707.18-0.01 0.04v0.04 0.03 0.04l-0.01 0.03v0.04 0.03l-0.01 0.03-0.01 0.03v0.03l-0.01 0.03-0.01 0.03-0.01 0.02-0.01 0.03-0.01 0.03-0.01 0.02-0.01 0.02-0.01 0.03-0.03 0.04-0.02 0.04-0.03 0.04-0.03 0.03-0.03 0.03-0.03 0.03-0.03 0.03-0.04 0.02-0.03 0.03-0.03 0.02-0.04 0.01-0.03 0.02-0.03 0.01-0.04 0.02-0.03 0.01h-0.03l-0.03 0.01-0.03 0.01h-0.03l-0.03 0.01h-0.03-0.02-0.02c-0.25 0-0.58-0.15-0.58-0.58 0-0.4 0.36-0.5 0.62-0.5 0.07 0 0.12 0.01 0.15 0.02 0.04 0.01 0.07 0.02 0.09 0.02 0.07 0 0.14-0.05 0.14-0.14 0-0.19-0.16-0.63-0.82-1.05l0.09-0.19c0.3 0.1 1.12 0.75 1.12 1.46z"/><path id="path4629" d="m161.28 711.11h0.01 0.01l0.01 0.01h0.02 0.01 0.01 0.01l0.01 0.01h0.02 0.02l0.01 0.01h0.02 0.02 0.02 0.01 0.02l0.02 0.01h0.02 0.02 0.01 0.01c0.57 0 0.72-0.25 1.17-1.97 0.17-0.64 0.41-1.81 0.41-1.98 0-0.16-0.06-0.32-0.21-0.5-0.31-0.4-0.5-0.66-0.61-0.78-0.21-0.22-0.33-0.3-0.46-0.3-0.06 0-0.13 0.03-0.24 0.11-0.15 0.12-0.26 0.17-0.37 0.17-0.22 0-0.39-0.17-0.39-0.39 0-0.25 0.22-0.44 0.51-0.44 0.64 0 1.94 1.5 3.02 3.47 0.68 1.22 0.95 1.94 0.95 2.43 0 0.3-0.25 0.55-0.54 0.55-0.23 0-0.39-0.15-0.39-0.37 0-0.15 0.08-0.26 0.28-0.39 0.19-0.11 0.26-0.2 0.26-0.34 0-0.4-0.37-1.18-1.22-2.58l-0.2 1.15c-0.15 0.88-0.71 2.53-0.86 2.53h-0.04c-0.01-0.01-0.05-0.01-0.09-0.01-0.08-0.01-0.44-0.07-0.97-0.17-0.05-0.01-0.18-0.04-0.32-0.06z"/><path id="path4631" d="m167.5 707.18v0.04 0.04l-0.01 0.03v0.04 0.03l-0.01 0.04v0.03l-0.01 0.03v0.03l-0.01 0.03-0.01 0.03-0.01 0.03-0.01 0.02-0.01 0.03-0.01 0.03-0.01 0.02-0.01 0.02-0.01 0.03-0.02 0.04-0.03 0.04-0.03 0.04-0.03 0.03-0.03 0.03-0.03 0.03-0.03 0.03-0.03 0.02-0.04 0.03-0.03 0.02-0.03 0.01-0.04 0.02-0.03 0.01-0.03 0.02-0.04 0.01h-0.03l-0.03 0.01-0.03 0.01h-0.03l-0.03 0.01h-0.02-0.03-0.02c-0.25 0-0.58-0.15-0.58-0.58 0-0.4 0.36-0.5 0.62-0.5 0.07 0 0.12 0.01 0.15 0.02 0.04 0.01 0.07 0.02 0.09 0.02 0.07 0 0.14-0.05 0.14-0.14 0-0.19-0.16-0.63-0.82-1.05l0.09-0.19c0.3 0.1 1.12 0.75 1.12 1.46z"/><path id="path4633" d="m170.52 710.2 0.02 0.05 0.02 0.04 0.01 0.04 0.02 0.04 0.02 0.04 0.02 0.03 0.02 0.03 0.02 0.03 0.01 0.03 0.02 0.03 0.02 0.02 0.02 0.03 0.02 0.02 0.02 0.02 0.02 0.02 0.02 0.01 0.03 0.02 0.02 0.01 0.02 0.01 0.03 0.01 0.02 0.01 0.03 0.01 0.03 0.01 0.03 0.01h0.03l0.03 0.01h0.04 0.03l0.04 0.01h0.04 0.04 0.04 1.46l-3.09-3.71 0.09-0.09c0.16 0.13 0.29 0.18 0.46 0.18 0.24 0 0.57-0.13 1.03-0.42 0.5-0.3 0.84-0.43 1.12-0.43 0.5 0 0.94 0.35 0.94 0.75 0 0.21-0.14 0.36-0.35 0.36-0.2 0-0.34-0.13-0.34-0.31 0-0.09 0.03-0.19 0.09-0.3 0.03-0.06 0.05-0.12 0.05-0.15 0-0.08-0.11-0.14-0.27-0.14-0.25 0-0.37 0.07-0.7 0.49-0.44 0.57-0.63 0.7-1.2 0.83l2.89 3.43v0.11h-2.83l-0.31-1.15z"/><path id="path4635" d="m173.96 705.36 0.07 0.04 0.06 0.05 0.07 0.04 0.06 0.04 0.05 0.04 0.06 0.04 0.06 0.04 0.05 0.03 0.05 0.04 0.05 0.04 0.04 0.03 0.05 0.04 0.04 0.03 0.05 0.04 0.08 0.06 0.08 0.07 0.07 0.07 0.07 0.07 0.07 0.07 0.07 0.08 0.07 0.07 0.06 0.08 0.07 0.08c0.71 0.87 1.06 1.87 1.06 3.03 0 1.28-0.37 2.25-1.25 3.26-0.4 0.48-0.66 0.7-1.18 1.02l-0.12-0.16c0.8-0.63 1.06-0.98 1.34-1.73 0.24-0.66 0.35-1.42 0.35-2.42 0-1.03-0.13-1.86-0.4-2.47-0.28-0.62-0.57-0.98-1.29-1.56z"/></g>
   <g id="g4701" xml:space="preserve" stroke-width="0" ns0:pdfconverter="pstoedit" transform="matrix(1.75 0 0 -1.75 15.091 1666.9)" ns0:text="$(x,y,-z)$" ns0:version="0.7.2" ns0:inkscapeversion="0.91" ns0:preamble="/usr/share/inkscape/extensions/default_packages.tex" ns0:scale="1.4" ns0:texconverter="pdflatex"><path id="path4703" d="m151.65 713.86-0.07-0.05-0.06-0.04-0.07-0.04-0.06-0.04-0.06-0.04-0.05-0.04-0.06-0.04-0.05-0.04-0.05-0.03-0.05-0.04-0.05-0.04-0.04-0.03-0.05-0.04-0.04-0.03-0.08-0.07-0.08-0.07-0.07-0.06-0.08-0.07-0.06-0.08-0.07-0.07-0.07-0.07-0.07-0.08-0.07-0.09c-0.7-0.87-1.05-1.86-1.05-3.03 0-1.26 0.37-2.24 1.24-3.25 0.41-0.48 0.67-0.7 1.19-1.02l0.12 0.16c-0.8 0.63-1.08 0.97-1.35 1.72-0.24 0.67-0.35 1.43-0.35 2.42 0 1.05 0.13 1.87 0.4 2.48 0.28 0.62 0.58 0.98 1.3 1.56z"/><path id="path4705" d="m156.53 708.23-0.01-0.02-0.02-0.01-0.01-0.02-0.01-0.01-0.02-0.02-0.01-0.01-0.01-0.02-0.01-0.01-0.02-0.02-0.01-0.02-0.01-0.01-0.02-0.02v-0.01l-0.01-0.01-0.01-0.01v-0.01l-0.01-0.01-0.01-0.01-0.01-0.01-0.01-0.01c-0.23-0.3-0.35-0.4-0.46-0.4-0.14 0-0.23 0.13-0.3 0.41-0.02 0.08-0.03 0.14-0.04 0.17-0.25 1.01-0.36 1.46-0.36 1.61 0.44 0.77 0.8 1.21 0.97 1.21 0.06 0 0.14-0.03 0.24-0.08 0.12-0.07 0.19-0.09 0.27-0.09 0.21 0 0.35 0.15 0.35 0.36s-0.17 0.37-0.41 0.37c-0.44 0-0.81-0.36-1.5-1.43l-0.11 0.55c-0.14 0.68-0.25 0.88-0.52 0.88-0.22 0-0.56-0.09-1.17-0.29l-0.11-0.04 0.05-0.15c0.37 0.09 0.46 0.11 0.55 0.11 0.25 0 0.31-0.09 0.45-0.69l0.29-1.23-0.82-1.16c-0.2-0.3-0.39-0.48-0.5-0.48-0.06 0-0.16 0.03-0.26 0.09-0.13 0.07-0.24 0.1-0.32 0.1-0.19 0-0.34-0.15-0.34-0.35 0-0.26 0.2-0.42 0.5-0.42 0.31 0 0.42 0.09 0.92 0.7 0.27 0.32 0.48 0.59 0.9 1.17l0.3-1.2c0.13-0.51 0.26-0.67 0.58-0.67 0.38 0 0.63 0.24 1.21 1.14z"/><path id="path4707" d="m158.93 707.18-0.01 0.04v0.04 0.03 0.04l-0.01 0.03v0.04 0.03l-0.01 0.03-0.01 0.03v0.03l-0.01 0.03-0.01 0.03-0.01 0.02-0.01 0.03-0.01 0.03-0.01 0.02-0.01 0.02-0.01 0.03-0.03 0.04-0.02 0.04-0.03 0.04-0.03 0.03-0.03 0.03-0.03 0.03-0.03 0.03-0.04 0.02-0.03 0.03-0.03 0.02-0.04 0.01-0.03 0.02-0.03 0.01-0.04 0.02-0.03 0.01h-0.03l-0.03 0.01-0.03 0.01h-0.03l-0.03 0.01h-0.03-0.02-0.02c-0.25 0-0.58-0.15-0.58-0.58 0-0.4 0.36-0.5 0.62-0.5 0.07 0 0.12 0.01 0.15 0.02 0.04 0.01 0.07 0.02 0.09 0.02 0.07 0 0.14-0.05 0.14-0.14 0-0.19-0.16-0.63-0.82-1.05l0.09-0.19c0.3 0.1 1.12 0.75 1.12 1.46z"/><path id="path4709" d="m161.28 711.11h0.01 0.01l0.01 0.01h0.02 0.01 0.01 0.01l0.01 0.01h0.02 0.02l0.01 0.01h0.02 0.02 0.02 0.01 0.02l0.02 0.01h0.02 0.02 0.01 0.01c0.57 0 0.72-0.25 1.17-1.97 0.17-0.64 0.41-1.81 0.41-1.98 0-0.16-0.06-0.32-0.21-0.5-0.31-0.4-0.5-0.66-0.61-0.78-0.21-0.22-0.33-0.3-0.46-0.3-0.06 0-0.13 0.03-0.24 0.11-0.15 0.12-0.26 0.17-0.37 0.17-0.22 0-0.39-0.17-0.39-0.39 0-0.25 0.22-0.44 0.51-0.44 0.64 0 1.94 1.5 3.02 3.47 0.68 1.22 0.95 1.94 0.95 2.43 0 0.3-0.25 0.55-0.54 0.55-0.23 0-0.39-0.15-0.39-0.37 0-0.15 0.08-0.26 0.28-0.39 0.19-0.11 0.26-0.2 0.26-0.34 0-0.4-0.37-1.18-1.22-2.58l-0.2 1.15c-0.15 0.88-0.71 2.53-0.86 2.53h-0.04c-0.01-0.01-0.05-0.01-0.09-0.01-0.08-0.01-0.44-0.07-0.97-0.17-0.05-0.01-0.18-0.04-0.32-0.06z"/><path id="path4711" d="m167.5 707.18v0.04 0.04l-0.01 0.03v0.04 0.03l-0.01 0.04v0.03l-0.01 0.03v0.03l-0.01 0.03-0.01 0.03-0.01 0.03-0.01 0.02-0.01 0.03-0.01 0.03-0.01 0.02-0.01 0.02-0.01 0.03-0.02 0.04-0.03 0.04-0.03 0.04-0.03 0.03-0.03 0.03-0.03 0.03-0.03 0.03-0.03 0.02-0.04 0.03-0.03 0.02-0.03 0.01-0.04 0.02-0.03 0.01-0.03 0.02-0.04 0.01h-0.03l-0.03 0.01-0.03 0.01h-0.03l-0.03 0.01h-0.02-0.03-0.02c-0.25 0-0.58-0.15-0.58-0.58 0-0.4 0.36-0.5 0.62-0.5 0.07 0 0.12 0.01 0.15 0.02 0.04 0.01 0.07 0.02 0.09 0.02 0.07 0 0.14-0.05 0.14-0.14 0-0.19-0.16-0.63-0.82-1.05l0.09-0.19c0.3 0.1 1.12 0.75 1.12 1.46z"/><polygon id="polygon4713" points="175.43 709.96 170.33 709.96 170.33 709.4 175.43 709.4"/><path id="path4715" d="m176.85 710.2 0.02 0.05 0.02 0.04 0.01 0.04 0.02 0.04 0.02 0.04 0.02 0.03 0.02 0.03 0.02 0.03 0.01 0.03 0.02 0.03 0.02 0.02 0.02 0.03 0.02 0.02 0.02 0.02 0.02 0.02 0.02 0.01 0.03 0.02 0.02 0.01 0.02 0.01 0.03 0.01 0.02 0.01 0.03 0.01 0.03 0.01 0.03 0.01h0.03l0.03 0.01h0.04 0.03l0.04 0.01h0.04 0.04 0.04 1.46l-3.09-3.71 0.09-0.09c0.16 0.13 0.29 0.18 0.46 0.18 0.24 0 0.57-0.13 1.03-0.42 0.5-0.3 0.84-0.43 1.12-0.43 0.5 0 0.94 0.35 0.94 0.75 0 0.21-0.14 0.36-0.35 0.36-0.2 0-0.34-0.13-0.34-0.31 0-0.09 0.03-0.19 0.09-0.3 0.03-0.06 0.05-0.12 0.05-0.15 0-0.08-0.11-0.14-0.27-0.14-0.25 0-0.37 0.07-0.7 0.49-0.44 0.57-0.63 0.7-1.2 0.83l2.89 3.43v0.11h-2.83l-0.31-1.15z"/><path id="path4717" d="m180.3 705.36 0.06 0.04 0.07 0.05 0.06 0.04 0.06 0.04 0.06 0.04 0.06 0.04 0.05 0.04 0.05 0.03 0.06 0.04 0.04 0.04 0.05 0.03 0.05 0.04 0.04 0.03 0.04 0.04 0.09 0.06 0.07 0.07 0.08 0.07 0.07 0.07 0.07 0.07 0.07 0.08 0.06 0.07 0.07 0.08 0.07 0.08c0.71 0.87 1.06 1.87 1.06 3.03 0 1.28-0.37 2.25-1.25 3.26-0.41 0.48-0.67 0.7-1.18 1.02l-0.12-0.16c0.79-0.63 1.06-0.98 1.34-1.73 0.24-0.66 0.35-1.42 0.35-2.42 0-1.03-0.13-1.86-0.4-2.47-0.28-0.62-0.58-0.98-1.29-1.56z"/></g>
  </g>
  <text id="text4759" style="word-spacing:0px;letter-spacing:0px" xml:space="preserve" font-size="16px" line-height="125%" y="376.4422" x="357.48831" font-family="&apos;STIX Two Text&apos;" fill="#000000"><tspan id="tspan4761" x="357.48831" y="376.4422">plano de simetría (<tspan id="tspan4763" font-family="&apos;STIX Two Text&apos;" font-style="italic">z</tspan> = 0)</tspan></text>
  <text id="text4765" style="word-spacing:0px;letter-spacing:0px" xml:space="preserve" font-size="16px" line-height="125%" y="452.46664" x="295.60202" font-family="&apos;STIX Two Text&apos;" fill="#000000"><tspan id="tspan4767" x="295.60202" y="452.46664">imagen especular</tspan></text>
 </g>
</svg>
