<?xml version="1.0" encoding="UTF-8" standalone="no"?>
<svg id="svg4369" xmlns:rdf="http://www.w3.org/1999/02/22-rdf-syntax-ns#" xmlns="http://www.w3.org/2000/svg" height="200" width="300" version="1.1" xmlns:cc="http://creativecommons.org/ns#" xmlns:xlink="http://www.w3.org/1999/xlink" viewBox="0 0 300 200" xmlns:dc="http://purl.org/dc/elements/1.1/">
 <style type="text/css">
	 @import url('../estilo.css');
 </style>
 <defs>
  <marker id="marker4816" refY="0.0" refX="0.0" orient="auto" overflow="visible">
   <path id="path4818" stroke-linejoin="round" d="m8.7186 4.0337l-10.926-4.0177 10.926-4.0177c-1.7455 2.3721-1.7355 5.6174 0 8.0354z" fill-rule="evenodd" transform="scale(.6) rotate(180) translate(0)" stroke="#000" stroke-width=".625"/>
  </marker>
 </defs>
 <metadata id="metadata4542">
  <rdf:RDF>
   <cc:Work rdf:about="">
    <dc:format>image/svg+xml</dc:format>
    <dc:type rdf:resource="http://purl.org/dc/dcmitype/StillImage"/>
    <dc:title>Gnuplot</dc:title>
   </cc:Work>
  </rdf:RDF>
 </metadata>
 <title id="title4371">Gnuplot</title>
 <desc id="desc4373">Produced by GNUPLOT 5.0 patchlevel 3</desc>
 <g id="gnuplot_canvas">
  <rect id="rect4376" height="200" width="300" y="0" x="0" fill="none"/>
  <g>
   <g id="g4408" color="black" fill="none">
    <path id="path4410" stroke="#000" d="m231.2 141.7"/>
    <g id="g4412" font-size="16" transform="translate(231.2,156.7)" text-anchor="middle" font-family="Stix Two Text" fill="#000">
     <text id="text4414">
      <tspan id="tspan4416" font-family="Stix Two Text" font-style="italic">R</tspan>
     </text>
    </g>
   </g>
   <g id="g4418" font-size="16" font-family="Stix Two Text" color="black" text-anchor="middle">
    <g id="g4420" transform="translate(139.5,156.2)">
     <text id="text4422">
      <tspan id="tspan4424" font-family="Stix Two Text" font-style="italic">O</tspan>
     </text>
    </g>
    <g id="g4426" transform="translate(192.6,127.3)">
     <text id="text4428">
      <tspan id="tspan4430" font-family="Stix Two Text" font-style="italic">θ</tspan>
     </text>
    </g>
    <g id="g4432" transform="translate(209.7,74.9)">
     <text id="text4434">
      <tspan id="tspan4436" font-family="Stix Two Text" font-style="italic">dl</tspan>
     </text>
    </g>
    <g id="g4438" transform="translate(169.8,85.5)">
     <text id="text4440">
      <tspan id="tspan4442" font-family="Stix Two Text" font-style="italic">dθ</tspan>
     </text>
    </g>
    <g id="g4444" transform="translate(82.7,75.3)">
     <text id="text4446">
      <tspan id="tspan4448" font-family="Stix Two Text" font-style="italic">L</tspan>
     </text>
    </g>
   </g>
   <g stroke="currentColor" stroke-width=".5" fill="none">
    <g id="g4452" color="black">
     <g id="g4454" stroke="none" shape-rendering="crispEdges">
      <polygon id="polygon4456" points="264.5 141.7 263 139.1 272.9 141.7 263 144.3" fill="#000"/>
     </g>
     <path id="path4458" stroke="#000" d="m264.5 141.7l-1.5-2.6 9.9 2.6-9.9 2.6 1.5-2.6m-241.7 0h241.7"/>
    </g>
    <g id="g4460" color="black">
     <g id="g4462" stroke="none" shape-rendering="crispEdges">
      <polygon id="polygon4464" points="147.8 25.1 145.2 26.6 147.8 16.7 150.4 26.6" fill="#000"/>
     </g>
     <path id="path4466" stroke="#000" d="m147.8 25.1l-2.6 1.5 2.6-9.9 2.6 9.9-2.6-1.5m0 158.3v-158.3"/>
    </g>
    <g id="g4468" color="black">
     <path id="path4470" stroke="#000" stroke-dasharray="1.2,2.0" d="m147.8 141.7l59-58.9"/>
    </g>
    <g id="g4472" color="black">
     <path id="path4474" stroke="#000" stroke-dasharray="1.2,2.0" d="m147.8 141.7l47.9-68.3"/>
    </g>
   </g>
   <g id="g4478" color="black" stroke="currentColor" fill="none">
    <g id="g4480" font-size="16" transform="translate(138.1,26.1)" text-anchor="middle" stroke="none" font-family="Stix Two Text" fill="#000">
     <text id="text4482">
      <tspan id="tspan4484" font-family="Stix Two Text" font-weight="bold" font-style="italic">y</tspan>
     </text>
    </g>
   </g>
   <g id="g4486" color="black" stroke="currentColor" fill="none">
    <g id="g4488" font-size="16" transform="translate(267.8,156.2)" text-anchor="middle" stroke="none" font-family="Stix Two Text" fill="#000">
     <text id="text4490">
      <tspan id="tspan4492" font-family="Stix Two Text" font-weight="bold" font-style="italic">x</tspan>
     </text>
    </g>
   </g>
  </g>
  <g id="gnuplot_plot_1">
   <title id="title4497"/>
   <g id="g4501" color="black" stroke="currentColor" stroke-width="1.5" fill="none">
    <path id="path4503" stroke="#d3d3d3" d="m231.2 141.7v-2.6l-0.2-2.7-0.2-2.6-0.3-2.6-0.3-2.6-0.5-2.6-0.5-2.6-0.7-2.6-0.7-2.6-0.7-2.5-0.9-2.5-1-2.5-1-2.4-1.1-2.4-1.2-2.4-1.2-2.3-1.3-2.3-1.4-2.2-1.5-2.2-1.5-2.2-1.6-2.1-1.7-2.1-1.7-2-1.8-1.9-1.9-1.9-1.9-1.8-2-1.8-2-1.7-2.1-1.6-2.1-1.6-2.2-1.5-2.2-1.4-2.3-1.4-2.3-1.2-2.3-1.3-2.4-1.1-2.4-1.1-2.5-0.9-2.5-0.9-2.5-0.9-2.5-0.7-2.6-0.7-2.6-0.6-2.6-0.5-2.6-0.4-2.6-0.3-2.6-0.3-2.7-0.1-2.6-0.1h-2.7l-2.6 0.1-2.7 0.1-2.6 0.3-2.6 0.3-2.6 0.4-2.6 0.5-2.6 0.6-2.6 0.7-2.5 0.7-2.5 0.9-2.5 0.9-2.5 0.9-2.4 1.1-2.4 1.1-2.3 1.3-2.3 1.2-2.3 1.4-2.2 1.4-2.2 1.5-2.1 1.6-2.1 1.6-2 1.7-2 1.8-1.9 1.8-1.9 1.9-1.8 1.9-1.7 2-1.7 2.1-1.6 2.1-1.5 2.2-1.5 2.2-1.4 2.2-1.3 2.3-1.2 2.3-1.2 2.4-1.1 2.4-1 2.4-1 2.5-0.9 2.5-0.7 2.5-0.7 2.6-0.7 2.6-0.5 2.6-0.5 2.6-0.3 2.6-0.3 2.6-0.2 2.6-0.2 2.7v2.6"/>
   </g>
  </g>
  <g id="gnuplot_plot_2">
   <title id="title4506"/>
   <g id="g4510" color="black" stroke="currentColor" stroke-width="2" fill="none">
    <path id="path4512" stroke="#e51e10" d="m206.8 82.8l-0.1-0.1-0.1-0.1-0.1-0.1-0.1-0.1-0.1-0.1-0.1-0.1-0.1-0.1-0.1-0.1-0.1-0.1-0.1-0.1-0.2-0.1-0.1-0.1-0.1-0.1-0.1-0.1-0.1-0.2-0.1-0.1-0.1-0.1-0.1-0.1-0.1-0.1-0.1-0.1-0.1-0.1-0.1-0.1-0.1-0.1-0.1-0.1-0.2-0.1-0.1-0.1h-0.1l-0.1-0.1-0.1-0.1-0.1-0.1-0.1-0.1-0.1-0.1-0.1-0.1-0.1-0.1-0.1-0.1-0.2-0.1-0.1-0.1-0.1-0.1-0.1-0.1-0.1-0.1-0.1-0.1-0.1-0.1-0.1-0.1-0.1-0.1-0.2-0.1-0.1-0.1-0.1-0.1-0.1-0.1-0.1-0.1-0.1-0.1-0.1-0.1-0.1-0.1-0.2-0.1h-0.1l-0.1-0.1-0.1-0.1-0.1-0.1-0.1-0.1-0.1-0.1-0.2-0.1-0.1-0.1-0.1-0.1-0.1-0.1-0.1-0.1-0.1-0.1-0.1-0.1h-0.2l-0.1-0.1-0.1-0.1-0.1-0.1-0.1-0.1-0.1-0.1-0.2-0.1-0.1-0.1-0.1-0.1-0.1-0.1h-0.1l-0.1-0.1-0.2-0.1-0.1-0.1-0.1-0.1-0.1-0.1-0.1-0.1-0.1-0.1-0.2-0.1h-0.1l-0.1-0.1-0.1-0.1-0.1-0.1-0.2-0.1-0.1-0.1-0.1-0.1h-0.1l-0.1-0.1-0.2-0.1-0.1-0.1-0.1-0.1-0.1-0.1-0.1-0.1"/>
   </g>
  </g>
  <g id="gnuplot_plot_3">
   <title id="title4515"/>
   <g id="g4519" color="black" stroke="currentColor" stroke-width=".5" fill="none">
    <path id="path4521" stroke="#56b4e9" d="m189.5 141.7v-0.3-0.3-0.4-0.3-0.3-0.4-0.3l-0.1-0.3v-0.3-0.4-0.3l-0.1-0.3v-0.4-0.3l-0.1-0.3v-0.4-0.3l-0.1-0.3v-0.3l-0.1-0.4v-0.3l-0.1-0.3-0.1-0.3v-0.4l-0.1-0.3-0.1-0.3v-0.3l-0.1-0.4-0.1-0.3v-0.3l-0.1-0.3-0.1-0.3-0.1-0.4-0.1-0.3-0.1-0.3-0.1-0.3v-0.3l-0.1-0.3-0.1-0.4-0.1-0.3-0.2-0.3-0.1-0.3-0.1-0.3-0.1-0.3-0.1-0.3-0.1-0.3-0.1-0.4-0.2-0.3-0.1-0.3-0.1-0.3-0.1-0.3-0.2-0.3-0.1-0.3-0.1-0.3-0.2-0.3-0.1-0.3-0.2-0.3-0.1-0.3-0.2-0.3-0.1-0.3-0.2-0.3-0.1-0.3-0.2-0.2-0.1-0.3-0.2-0.3-0.2-0.3-0.1-0.3-0.2-0.3-0.2-0.3-0.1-0.2-0.2-0.3-0.2-0.3-0.2-0.3-0.1-0.3-0.2-0.2-0.2-0.3-0.2-0.3-0.2-0.2-0.2-0.3-0.2-0.3-0.2-0.2-0.2-0.3-0.2-0.3-0.2-0.2-0.2-0.3-0.2-0.3-0.2-0.2-0.2-0.3-0.2-0.2-0.2-0.3-0.3-0.2-0.2-0.3-0.2-0.2-0.2-0.3-0.3-0.2-0.2-0.2-0.2-0.3-0.2-0.2-0.3-0.2"/>
   </g>
  </g>
  <g id="gnuplot_plot_4">
   <title id="title4524"/>
   <g id="g4526" color="black" stroke="currentColor" stroke-width=".5" fill="none">
    <path id="path4528" stroke="#e51e10" d="m177.3 112.3v-0.1h-0.1v-0.1l-0.1-0.1-0.1-0.1-0.1-0.1-0.1-0.1h-0.1v-0.1h-0.1v-0.1h-0.1v-0.1h-0.1v-0.1h-0.1v-0.1h-0.1v-0.1h-0.1v-0.1h-0.1l-0.1-0.1-0.1-0.1-0.1-0.1-0.1-0.1-0.1-0.1-0.1-0.1h-0.1v-0.1h-0.1l-0.1-0.1-0.1-0.1-0.1-0.1h-0.1v-0.1h-0.1v-0.1h-0.1v-0.1h-0.1l-0.1-0.1-0.1-0.1-0.1-0.1h-0.1l-0.1-0.1-0.1-0.1-0.1-0.1-0.1-0.1h-0.1v-0.1h-0.1l-0.1-0.1-0.1-0.1h-0.1v-0.1h-0.1v-0.1h-0.1-0.1v-0.1h-0.1v-0.1h-0.1v-0.1h-0.1l-0.1-0.1h-0.1v-0.1h-0.1l-0.1-0.1-0.1-0.1h-0.1l-0.1-0.1-0.1-0.1"/>
   </g>
  </g>
 </g>
 <path id="path4546" stroke-linejoin="round" marker-end="url(#marker4816)" d="m170 88.009 13.88 10.991-6.88 8.14" stroke="#000" stroke-width="1px" fill="none"/>
</svg>
