<?xml version="1.0" encoding="UTF-8"?>
<svg width="300" height="225" version="1.1" viewBox="0 0 300 225" xmlns="http://www.w3.org/2000/svg" xmlns:cc="http://creativecommons.org/ns#" xmlns:dc="http://purl.org/dc/elements/1.1/" xmlns:ns0="http://www.iki.fi/pav/software/textext/" xmlns:rdf="http://www.w3.org/1999/02/22-rdf-syntax-ns#" xmlns:xlink="http://www.w3.org/1999/xlink">
 <style type="text/css">
  @import url('../estilo.css');
 </style>
 <metadata>
  <rdf:RDF>
   <cc:Work rdf:about="">
    <dc:format>image/svg+xml</dc:format>
    <dc:type rdf:resource="http://purl.org/dc/dcmitype/StillImage"/>
    <dc:title>Gnuplot</dc:title>
   </cc:Work>
  </rdf:RDF>
 </metadata>
 <title>Gnuplot</title>
 <desc>Produced by GNUPLOT 5.2 patchlevel 2</desc>
 <g fill="none">
  <rect width="300" height="225"/>
  <g>
   <path d="m84.3 171v4.5" color="#000000" stroke="#000"/>
   <g color="#000000">
    <path d="m147.9 171v4.5" stroke="#000"/>
    <g transform="translate(147.9,189.4)" fill="#000" font-family="'Stix Two Text'" font-size="15px" text-anchor="middle">
     <text/>
    </g>
   </g>
   <path d="m211.4 171v4.5" color="#000000" stroke="#000"/>
   <g color="#000000" stroke="currentColor">
    <path d="m20.7 18.1v152.9h254.3m0-152.9m-254.3 0" stroke="#000"/>
   </g>
  </g>
 </g>
 <g color="#000000" fill="none" stroke="currentColor">
  <defs>
   <pattern id="gpPat1" width="8" height="8" patternUnits="userSpaceOnUse">
    <path d="m0 0 8 8m-8 0 8-8m-8 4 4 4 4-4-4-4-4 4" fill="none" stroke="#d3d3d3"/>
   </pattern>
  </defs>
  <g fill="url(#gpPat1)" shape-rendering="crispEdges" stroke="none">
   <polygon points="86.8 94.2 88.1 93.5 89.4 92.7 90.7 92 92 91.3 93.3 90.6 94.5 89.9 95.8 89.2 97.1 88.5 98.4 87.9 99.7 87.2 101 86.5 102.3 85.8 103.5 85.2 104.8 84.5 106.1 83.9 107.4 83.2 108.7 82.5 110 81.9 111.2 81.3 112.5 80.6 113.8 80 115.1 79.4 116.4 78.7 117.7 78.1 119 77.5 120.2 76.9 121.5 76.3 122.8 75.7 124.1 75.1 125.4 74.5 126.7 73.9 127.9 73.3 129.2 72.8 130.5 72.2 131.8 71.6 133.1 71 134.4 70.5 135.6 69.9 136.9 69.4 138.2 68.8 139.5 68.3 140.8 67.7 142.1 67.2 143.4 66.7 144.6 66.1 145.9 65.6 147.2 65.1 147.9 64.8 147.2 64.8 145.9 64.8 144.6 64.8 143.4 64.8 142.1 64.8 140.8 64.8 139.5 64.8 138.2 64.8 136.9 64.8 135.6 64.8 134.4 64.8 133.1 64.8 131.8 64.8 130.5 64.8 129.2 64.8 127.9 64.8 126.7 64.8 125.4 64.8 124.1 64.8 122.8 64.8 121.5 64.8 120.2 64.8 119 64.8 117.7 64.8 116.4 64.8 115.1 64.8 113.8 64.8 112.5 64.8 111.2 64.8 110 64.8 108.7 64.8 107.4 64.8 106.1 64.8 104.8 64.8 103.5 64.8 102.3 64.8 101 64.8 99.7 64.8 98.4 64.8 97.1 64.8 95.8 64.8 94.5 64.8 93.3 64.8 92 64.8 90.7 64.8 89.4 64.8 88.1 64.8 86.8 64.8 85.6 64.8 84.3 64.8 84.3 95.6 85.6 94.9"/>
   <polygon points="149.8 64.1 151.1 63.6 152.3 63.1 153.6 62.6 154.9 62.1 156.2 61.6 157.5 61.1 158.8 60.6 160.1 60.1 161.3 59.7 162.6 59.2 163.9 58.7 165.2 58.3 166.5 57.8 167.8 57.4 169 56.9 170.3 56.5 171.6 56.1 172.9 55.6 174.2 55.2 175.5 54.8 176.7 54.4 178 53.9 179.3 53.5 180.6 53.1 181.9 52.7 183.2 52.3 184.5 51.9 185.7 51.5 187 51.2 188.3 50.8 189.6 50.4 190.9 50 192.2 49.7 193.4 49.3 194.7 48.9 196 48.6 197.3 48.2 198.6 47.9 199.9 47.5 201.2 47.2 202.4 46.9 203.7 46.6 205 46.2 206.3 45.9 207.6 45.6 208.9 45.3 210.1 45 211.4 44.7 211.4 64.8 210.1 64.8 208.9 64.8 207.6 64.8 206.3 64.8 205 64.8 203.7 64.8 202.4 64.8 201.2 64.8 199.9 64.8 198.6 64.8 197.3 64.8 196 64.8 194.7 64.8 193.4 64.8 192.2 64.8 190.9 64.8 189.6 64.8 188.3 64.8 187 64.8 185.7 64.8 184.5 64.8 183.2 64.8 181.9 64.8 180.6 64.8 179.3 64.8 178 64.8 176.7 64.8 175.5 64.8 174.2 64.8 172.9 64.8 171.6 64.8 170.3 64.8 169 64.8 167.8 64.8 166.5 64.8 165.2 64.8 163.9 64.8 162.6 64.8 161.3 64.8 160.1 64.8 158.8 64.8 157.5 64.8 156.2 64.8 154.9 64.8 153.6 64.8 152.3 64.8 151.1 64.8 149.8 64.8 148.5 64.8 147.9 64.8 148.5 64.6"/>
  </g>
 </g>
 <g color="#000000" fill="none" stroke="currentColor">
  <path d="m84.3 95.6 1.3-0.7 1.2-0.7 1.3-0.7 1.3-0.8 3.9-2.1 1.2-0.7 2.6-1.4 1.3-0.6 3.9-2.1 1.2-0.6 1.3-0.7 1.3-0.6 2.6-1.4 1.3-0.6 1.2-0.6 1.3-0.7 2.6-1.2 1.3-0.7 2.6-1.2 1.2-0.6 6.5-3 1.2-0.6 1.3-0.5 3.9-1.8 1.3-0.5 1.2-0.6 1.3-0.5 1.3-0.6 1.3-0.5 1.3-0.6 2.6-1 1.2-0.6 6.5-2.5 1.2-0.5 7.8-3 1.2-0.4 2.6-1 1.3-0.4 1.3-0.5 1.3-0.4 1.2-0.5 2.6-0.8 1.3-0.5 2.6-0.8 1.2-0.4 1.3-0.5 6.5-2 1.2-0.4 1.3-0.3 3.9-1.2 1.3-0.3 1.2-0.4 1.3-0.4 1.3-0.3 1.3-0.4 1.3-0.3 1.3-0.4 1.3-0.3 1.2-0.3 1.3-0.3 1.3-0.4 3.9-0.9 1.2-0.3 1.3-0.3" stroke="#9400d3"/>
 </g>
 <g>
  <g fill="none" stroke="currentColor">
   <g color="#000000">
    <path d="m20.7 18.1v152.9h254.3m0-152.9m-254.3 0" stroke="#000"/>
   </g>
   <g color="#808080">
    <path d="m84.3 171v-106.2" stroke="#000" stroke-dasharray="2, 4"/>
   </g>
   <g color="#808080">
    <path d="m147.9 171v-106.2" stroke="#000" stroke-dasharray="2, 4"/>
   </g>
   <g color="#808080">
    <path d="m211.4 171v-106.2" stroke="#000" stroke-dasharray="2, 4"/>
   </g>
   <g color="#808080">
    <path d="m84.3 64.8h127.2" stroke="#000" stroke-dasharray="2, 4"/>
   </g>
  </g>
  <g fill-rule="evenodd" stroke="#000" stroke-miterlimit="10.433">
   <g id="content" transform="matrix(1.6 0 0 -1.6 -118.68 1248.6)" fill="none" ns0:alignment="middle center" ns0:jacobian_sqrt="1.6" ns0:pdfconverter="pstoedit" ns0:preamble="/home/antonio/.config/inkscape/extensions/textext/default_packages.tex" ns0:scale="1.2" ns0:texconverter="pdflatex" ns0:text="$\\dfrac{x_{i-1} + x_i}{2}$" ns0:version="0.10.0" xml:space="preserve"><g fill="#000" stroke-width="0">
<path d="m154.41 663.21-0.01-0.02-0.04-0.04-0.01-0.02-0.02-0.01-0.01-0.02-0.01-0.01-0.01-0.02-0.02-0.01-0.02-0.04-0.03-0.03v-0.01l-0.03-0.03v-0.01c-0.23-0.3-0.35-0.4-0.46-0.4-0.15 0-0.24 0.13-0.31 0.41-0.02 0.08-0.03 0.14-0.04 0.17-0.25 1-0.36 1.46-0.36 1.61 0.44 0.76 0.8 1.2 0.98 1.2 0.06 0 0.14-0.03 0.23-0.08 0.13-0.07 0.19-0.09 0.27-0.09 0.21 0 0.35 0.15 0.35 0.36s-0.17 0.37-0.4 0.37c-0.44 0-0.82-0.36-1.51-1.42l-0.11 0.54c-0.14 0.68-0.25 0.88-0.52 0.88-0.22 0-0.56-0.09-1.17-0.29l-0.11-0.04 0.04-0.15c0.38 0.09 0.47 0.11 0.56 0.11 0.25 0 0.31-0.09 0.45-0.69l0.29-1.22-0.82-1.16c-0.2-0.3-0.4-0.48-0.51-0.48-0.06 0-0.15 0.03-0.26 0.09-0.13 0.07-0.23 0.1-0.31 0.1-0.19 0-0.34-0.15-0.34-0.35 0-0.25 0.2-0.41 0.49-0.41 0.31 0 0.43 0.09 0.93 0.69 0.27 0.32 0.48 0.59 0.9 1.16l0.3-1.19c0.13-0.5 0.26-0.66 0.58-0.66 0.38 0 0.64 0.24 1.21 1.13z"/>
<path d="m156.38 661.41-0.01-0.02-0.02-0.02-0.01-0.02-0.02-0.02-0.01-0.02-0.01-0.01-0.01-0.02-0.06-0.06v-0.02l-0.07-0.07v-0.01l-0.05-0.05-0.01-0.02c-0.12-0.12-0.23-0.19-0.29-0.19s-0.11 0.06-0.11 0.11c0 0.07 0.02 0.17 0.07 0.3 0 0.02 0.02 0.07 0.03 0.13v0.01l0.01 0.02 0.61 2.24-0.02 0.01c-0.7-0.13-0.84-0.15-1.12-0.17v-0.12c0.37 0 0.44-0.02 0.44-0.16 0-0.06-0.02-0.17-0.06-0.31l-0.34-1.23c-0.11-0.4-0.15-0.62-0.15-0.76 0-0.25 0.11-0.39 0.32-0.39 0.33 0 0.58 0.2 0.98 0.79z"/>
<path d="m156.32 665.16h-0.05l-0.01-0.01h-0.02l-0.02-0.01h-0.01l-0.02-0.01h-0.01l-0.01-0.01-0.02-0.01-0.02-0.02-0.02-0.01-0.01-0.01-0.01-0.02-0.03-0.03-0.01-0.02-0.01-0.01v-0.02l-0.01-0.02-0.01-0.01v-0.02l-0.01-0.02v-0.01l-0.01-0.02v-0.08c0-0.22 0.13-0.37 0.33-0.37 0.18 0 0.35 0.16 0.35 0.36s-0.17 0.38-0.36 0.38z"/>
<polygon points="160.78 662.21 160.78 662.59 157.2 662.59 157.2 662.21"/>
<path d="m163.24 665.31-1.26-0.63v-0.1c0.08 0.04 0.16 0.07 0.19 0.08 0.12 0.05 0.24 0.08 0.31 0.08 0.15 0 0.21-0.11 0.21-0.33v-3.15c0-0.23-0.05-0.39-0.17-0.45-0.1-0.07-0.2-0.09-0.49-0.09v-0.11h1.93v0.11c-0.56 0-0.67 0.07-0.67 0.41v4.17z"/>
<polygon points="173.13 664.38 173.13 664.94 170.85 664.94 170.85 667.18 170.29 667.18 170.29 664.94 168.02 664.94 168.02 664.38 170.29 664.38 170.29 662.11 170.85 662.11 170.85 664.38"/>
<path d="m180.46 663.21-0.01-0.02-0.02-0.01-0.01-0.02-0.02-0.01-0.01-0.02-0.01-0.01-0.01-0.02-0.02-0.01-0.01-0.02-0.03-0.03-0.01-0.02-0.01-0.01v-0.01l-0.03-0.03v-0.01l-0.02-0.02c-0.23-0.3-0.35-0.4-0.46-0.4-0.15 0-0.24 0.13-0.31 0.41-0.02 0.08-0.03 0.14-0.04 0.17-0.25 1-0.36 1.46-0.36 1.61 0.44 0.76 0.8 1.2 0.98 1.2 0.06 0 0.14-0.03 0.24-0.08 0.12-0.07 0.19-0.09 0.27-0.09 0.21 0 0.35 0.15 0.35 0.36s-0.17 0.37-0.41 0.37c-0.44 0-0.82-0.36-1.51-1.42l-0.11 0.54c-0.14 0.68-0.25 0.88-0.51 0.88-0.22 0-0.56-0.09-1.17-0.29l-0.11-0.04 0.04-0.15c0.38 0.09 0.47 0.11 0.56 0.11 0.25 0 0.31-0.09 0.45-0.69l0.29-1.22-0.82-1.16c-0.2-0.3-0.4-0.48-0.51-0.48-0.06 0-0.16 0.03-0.26 0.09-0.13 0.07-0.24 0.1-0.32 0.1-0.19 0-0.34-0.15-0.34-0.35 0-0.25 0.2-0.41 0.5-0.41 0.31 0 0.43 0.09 0.93 0.69 0.27 0.32 0.48 0.59 0.9 1.16l0.29-1.19c0.13-0.5 0.26-0.66 0.58-0.66 0.38 0 0.64 0.24 1.22 1.13z"/>
<path d="m182.43 661.41-0.02-0.02-0.01-0.02-0.02-0.02-0.02-0.04-0.02-0.01-0.01-0.02-0.01-0.01-0.01-0.02-0.03-0.03-0.01-0.02-0.02-0.02v-0.01l-0.01-0.01h-0.01l-0.01-0.01v-0.01l-0.03-0.03-0.01-0.02-0.01-0.01-0.02-0.01-0.01-0.02c-0.12-0.12-0.22-0.19-0.29-0.19-0.05 0-0.11 0.06-0.11 0.11 0 0.07 0.02 0.17 0.07 0.3 0 0.02 0.02 0.07 0.04 0.13v0.03l0.62 2.24-0.02 0.01c-0.71-0.13-0.85-0.15-1.12-0.17v-0.12c0.37 0 0.44-0.02 0.44-0.16 0-0.06-0.02-0.17-0.06-0.31l-0.34-1.23c-0.11-0.4-0.15-0.62-0.15-0.76 0-0.25 0.11-0.39 0.32-0.39 0.32 0 0.58 0.2 0.98 0.79z"/>
<path d="m182.37 665.16h-0.05l-0.02-0.01h-0.01l-0.02-0.01h-0.02l-0.01-0.01h-0.02l-0.02-0.02-0.02-0.01-0.03-0.03-0.01-0.02-0.02-0.01-0.02-0.02v-0.02l-0.01-0.01-0.02-0.04v-0.01l-0.01-0.02v-0.02l-0.01-0.01v-0.04l-0.01-0.02v-0.04c0-0.22 0.14-0.37 0.34-0.37 0.18 0 0.34 0.16 0.34 0.36s-0.16 0.38-0.35 0.38z"/>
</g><line x1="149.91" x2="183.31" y1="657.92" y2="657.92" stroke-width=".558"/>
<path d="m168.86 649.89-0.13 0.05c-0.37-0.57-0.5-0.66-0.95-0.66h-2.38l1.67 1.75c0.89 0.93 1.28 1.68 1.28 2.45 0 1-0.81 1.76-1.85 1.76-0.55 0-1.07-0.21-1.43-0.61-0.32-0.34-0.47-0.66-0.64-1.36l0.21-0.05c0.4 0.97 0.76 1.29 1.44 1.29 0.84 0 1.41-0.57 1.41-1.4 0-0.78-0.46-1.7-1.3-2.58l-1.77-1.88v-0.12h3.89z" fill="#000" stroke-width="0"/>
</g>
   <g transform="matrix(1.6 0 0 -1.6 -165.06 1240.8)" stroke-width="0" inkscapeversion="0.92.5" ns0:alignment="middle center" ns0:jacobian_sqrt="1.6" ns0:pdfconverter="pstoedit" ns0:preamble="/home/antonio/.config/inkscape/extensions/textext/default_packages.tex" ns0:scale="1.2" ns0:texconverter="pdflatex" ns0:text="$x_{i-1}$" ns0:version="0.10.0" xml:space="preserve">
<path d="m153.22 658.34-0.03-0.03-0.01-0.02-0.03-0.03-0.01-0.02-0.04-0.04-0.01-0.02-0.02-0.01-0.01-0.02-0.01-0.01v-0.01l-0.03-0.03v-0.01l-0.02-0.02c-0.23-0.3-0.35-0.4-0.46-0.4-0.15 0-0.24 0.13-0.31 0.41-0.02 0.08-0.03 0.14-0.04 0.17-0.25 1-0.36 1.46-0.36 1.61 0.44 0.76 0.8 1.2 0.98 1.2 0.06 0 0.14-0.03 0.24-0.08 0.12-0.07 0.19-0.09 0.27-0.09 0.21 0 0.35 0.15 0.35 0.36s-0.17 0.37-0.41 0.37c-0.44 0-0.82-0.36-1.51-1.42l-0.11 0.54c-0.14 0.68-0.25 0.88-0.52 0.88-0.22 0-0.55-0.09-1.16-0.29l-0.11-0.04 0.04-0.15c0.38 0.09 0.47 0.11 0.56 0.11 0.25 0 0.31-0.09 0.45-0.69l0.28-1.22-0.81-1.16c-0.2-0.3-0.4-0.48-0.51-0.48-0.06 0-0.16 0.03-0.26 0.09-0.13 0.07-0.24 0.1-0.32 0.1-0.19 0-0.34-0.15-0.34-0.35 0-0.26 0.2-0.41 0.5-0.41 0.31 0 0.43 0.09 0.93 0.69 0.27 0.32 0.48 0.59 0.89 1.16l0.3-1.19c0.13-0.51 0.26-0.66 0.58-0.66 0.38 0 0.64 0.23 1.22 1.13z"/>
<path d="m155.19 656.53-0.02-0.02-0.01-0.02-0.02-0.01-0.02-0.04-0.02-0.01-0.01-0.02-0.01-0.01-0.01-0.02-0.02-0.02-0.01-0.02-0.03-0.03v-0.01l-0.06-0.06-0.01-0.02-0.04-0.04c-0.12-0.12-0.22-0.19-0.29-0.19-0.05 0-0.11 0.06-0.11 0.11 0 0.06 0.02 0.17 0.07 0.3 0 0.02 0.02 0.07 0.04 0.13v0.02l0.62 2.24-0.02 0.02c-0.71-0.14-0.85-0.15-1.12-0.18v-0.11c0.37 0 0.44-0.03 0.44-0.16 0-0.06-0.02-0.17-0.06-0.31l-0.34-1.23c-0.11-0.41-0.15-0.62-0.15-0.76 0-0.26 0.11-0.4 0.32-0.4 0.32 0 0.58 0.21 0.98 0.8z"/>
<path d="m155.13 660.29h-0.03l-0.02-0.01h-0.03l-0.02-0.01h-0.02l-0.01-0.01-0.02-0.01h-0.01l-0.01-0.01-0.02-0.01-0.02-0.02-0.01-0.02-0.01-0.01-0.02-0.01-0.01-0.01-0.01-0.02v-0.01l-0.01-0.02-0.01-0.01-0.01-0.02v-0.01l-0.01-0.02v-0.02l-0.01-0.02v-0.03l-0.01-0.02v-0.04c0-0.22 0.13-0.37 0.34-0.37 0.18 0 0.34 0.16 0.34 0.36s-0.16 0.38-0.35 0.38z"/>
<polygon points="156.01 657.33 159.59 657.33 159.59 657.72 156.01 657.72"/>
<path d="m162.04 660.44-1.26-0.63v-0.1c0.09 0.04 0.17 0.06 0.19 0.08 0.13 0.05 0.25 0.07 0.32 0.07 0.14 0 0.21-0.1 0.21-0.32v-3.15c0-0.23-0.06-0.39-0.17-0.45-0.1-0.07-0.2-0.09-0.5-0.1v-0.1h1.93v0.1c-0.55 0.01-0.66 0.08-0.66 0.42v4.17z"/>
</g>
   <g transform="matrix(1.6 0 0 -1.6 -32.136 1240.8)" stroke-width="0" inkscapeversion="0.92.5" ns0:alignment="middle center" ns0:jacobian_sqrt="1.6" ns0:pdfconverter="pstoedit" ns0:preamble="/home/antonio/.config/inkscape/extensions/textext/default_packages.tex" ns0:scale="1.2" ns0:texconverter="pdflatex" ns0:text="$x_i$" ns0:version="0.10.0" xml:space="preserve">
<path d="m153.22 658.34-0.03-0.03-0.01-0.02-0.03-0.03-0.01-0.02-0.04-0.04-0.01-0.02-0.02-0.01-0.01-0.02-0.01-0.01v-0.01l-0.03-0.03v-0.01l-0.02-0.02c-0.23-0.3-0.35-0.4-0.46-0.4-0.15 0-0.24 0.13-0.31 0.41-0.02 0.08-0.03 0.14-0.04 0.17-0.25 1-0.36 1.46-0.36 1.61 0.44 0.76 0.8 1.2 0.98 1.2 0.06 0 0.14-0.03 0.24-0.08 0.12-0.07 0.19-0.09 0.27-0.09 0.21 0 0.35 0.15 0.35 0.36s-0.17 0.37-0.41 0.37c-0.44 0-0.82-0.36-1.51-1.42l-0.11 0.54c-0.14 0.68-0.25 0.88-0.52 0.88-0.22 0-0.55-0.09-1.16-0.29l-0.11-0.04 0.04-0.15c0.38 0.09 0.47 0.11 0.56 0.11 0.25 0 0.31-0.09 0.45-0.69l0.28-1.22-0.81-1.16c-0.2-0.3-0.4-0.48-0.51-0.48-0.06 0-0.16 0.03-0.26 0.09-0.13 0.07-0.24 0.1-0.32 0.1-0.19 0-0.34-0.15-0.34-0.35 0-0.26 0.2-0.41 0.5-0.41 0.31 0 0.43 0.09 0.93 0.69 0.27 0.32 0.48 0.59 0.89 1.16l0.3-1.19c0.13-0.51 0.26-0.66 0.58-0.66 0.38 0 0.64 0.23 1.22 1.13z"/>
<path d="m155.19 656.53-0.02-0.02-0.01-0.02-0.02-0.01-0.02-0.04-0.02-0.01-0.01-0.02-0.01-0.01-0.01-0.02-0.02-0.02-0.01-0.02-0.03-0.03v-0.01l-0.06-0.06-0.01-0.02-0.04-0.04c-0.12-0.12-0.22-0.19-0.29-0.19-0.05 0-0.11 0.06-0.11 0.11 0 0.06 0.02 0.17 0.07 0.3 0 0.02 0.02 0.07 0.04 0.13v0.02l0.62 2.24-0.02 0.02c-0.71-0.14-0.85-0.15-1.12-0.18v-0.11c0.37 0 0.44-0.03 0.44-0.16 0-0.06-0.02-0.17-0.06-0.31l-0.34-1.23c-0.11-0.41-0.15-0.62-0.15-0.76 0-0.26 0.11-0.4 0.32-0.4 0.32 0 0.58 0.21 0.98 0.8z"/>
<path d="m155.13 660.29h-0.03l-0.02-0.01h-0.03l-0.02-0.01h-0.02l-0.01-0.01-0.02-0.01h-0.01l-0.01-0.01-0.02-0.01-0.02-0.02-0.01-0.02-0.01-0.01-0.02-0.01-0.01-0.01-0.01-0.02v-0.01l-0.01-0.02-0.01-0.01-0.01-0.02v-0.01l-0.01-0.02v-0.02l-0.01-0.02v-0.03l-0.01-0.02v-0.04c0-0.22 0.13-0.37 0.34-0.37 0.18 0 0.34 0.16 0.34 0.36s-0.16 0.38-0.35 0.38z"/>
</g>
  </g>
 </g>
</svg>
