<?xml version="1.0" encoding="UTF-8"?>
<!-- Created with Inkscape (http://www.inkscape.org/) -->
<svg width="226" height="148" version="1.1" viewBox="0 0 226 148" xmlns="http://www.w3.org/2000/svg" xmlns:cc="http://creativecommons.org/ns#" xmlns:dc="http://purl.org/dc/elements/1.1/" xmlns:ns0="http://www.iki.fi/pav/software/textext/" xmlns:rdf="http://www.w3.org/1999/02/22-rdf-syntax-ns#">
 <style type="text/css">
  @import url('../estilo.css');
 </style>
 <defs>
  <marker id="Arrow2Lend" overflow="visible" orient="auto">
   <path transform="matrix(-1.1,0,0,-1.1,-1.1,0)" d="m8.7186 4.0337-10.926-4.0177 10.926-4.0177c-1.7455 2.3721-1.7354 5.6175-6e-7 8.0354z" fill-rule="evenodd" stroke="#000" stroke-linejoin="round" stroke-width=".625"/>
  </marker>
 </defs>
 <metadata>
  <rdf:RDF>
   <cc:Work rdf:about="">
    <dc:format>image/svg+xml</dc:format>
    <dc:type rdf:resource="http://purl.org/dc/dcmitype/StillImage"/>
    <dc:title/>
   </cc:Work>
  </rdf:RDF>
 </metadata>
 <g transform="translate(-37.836 -48.502)">
  <path d="m100 122.52h100" fill="none" marker-end="url(#Arrow2Lend)" stroke="#000" stroke-width="1px"/>
  <g transform="translate(-5 3.3203e-6)" fill="none" stroke="#000" stroke-width="1px">
   <path d="m90 127.52 10-10"/>
   <path d="m100 127.52-10-10"/>
  </g>
  <g transform="translate(115 3.3203e-6)" fill="none" stroke="#000" stroke-width="1px">
   <path d="m90 127.52 10-10"/>
   <path d="m100 127.52-10-10"/>
  </g>
  <g>
   <g id="content" transform="matrix(1.7333 0 0 -1.7333 -117.53 1254)" fill-rule="evenodd" stroke="#000" stroke-miterlimit="10.433" stroke-width="0" inkscapeversion="0.92.4" ns0:alignment="middle center" ns0:jacobian_sqrt="1.733333" ns0:pdfconverter="pstoedit" ns0:preamble="/home/antonio/.config/inkscape/extensions/textext/default_packages.tex" ns0:scale="1.3" ns0:texconverter="pdflatex" ns0:text="$dn_i$" ns0:version="0.10.0" xml:space="preserve">
<path d="m153.33 658.34-0.03-0.03-0.04-0.06-0.03-0.02-0.02-0.03-0.02-0.02-0.02-0.03-0.06-0.06-0.02-0.03-0.09-0.09-0.03-0.04-0.09-0.09-0.03-0.02-0.07-0.07-0.02-0.01-0.02-0.02-0.02-0.01-0.02-0.02-0.02-0.01-0.01-0.01-0.02-0.01h-0.02l-0.01-0.01-0.02-0.01h-0.03l-0.01-0.01h-0.05c-0.1 0-0.18 0.09-0.18 0.2 0 0.14 0.32 1.35 0.65 2.45 0.27 0.91 0.48 1.7 0.99 3.69l-0.05 0.05c-0.53-0.11-0.89-0.17-1.53-0.23v-0.17c0.55-0.02 0.62-0.05 0.62-0.26 0-0.13-0.01-0.19-0.15-0.69l-0.44-1.63c-0.08 0.42-0.26 0.58-0.65 0.58l0.04-0.23c0.3-0.02 0.45-0.21 0.45-0.57 0-1.51-1.03-3.22-1.95-3.22-0.34 0-0.58 0.27-0.58 0.66 0 0.82 0.5 1.97 1.16 2.67 0.27 0.29 0.64 0.48 0.92 0.46l-0.04 0.23c-1.29 0-2.91-1.87-2.91-3.36 0-0.71 0.4-1.13 1.05-1.13 0.68 0 1.12 0.31 1.79 1.31-0.11-0.51-0.13-0.66-0.13-0.89 0-0.27 0.17-0.44 0.42-0.44 0.42 0 0.94 0.4 1.46 1.13z"/>
<path d="m158.55 658.4-0.21-0.26c-0.29-0.37-0.47-0.53-0.61-0.53-0.08 0-0.16 0.08-0.16 0.16 0 0.07 0 0.07 0.14 0.63l0.57 2.04c0.05 0.21 0.09 0.43 0.09 0.57 0 0.36-0.27 0.61-0.66 0.61-0.64 0-1.26-0.6-2.29-2.19l0.67 2.17-0.03 0.02c-0.54-0.11-0.75-0.15-1.62-0.31v-0.16c0.51-0.01 0.64-0.07 0.64-0.27 0-0.06-0.01-0.12-0.02-0.17l-0.96-3.48h0.75c0.47 1.57 0.56 1.79 1 2.47 0.6 0.91 1.1 1.41 1.47 1.41 0.15 0 0.24-0.11 0.24-0.29 0-0.12-0.06-0.45-0.14-0.75l-0.44-1.64c-0.13-0.51-0.16-0.65-0.16-0.75 0-0.38 0.14-0.53 0.47-0.53 0.45 0 0.71 0.2 1.4 1.12z"/>
<path d="m160.5 656.53-0.02-0.02-0.01-0.02-0.02-0.01-0.02-0.04-0.02-0.01-0.01-0.02-0.01-0.01-0.01-0.02-0.02-0.02-0.01-0.02-0.03-0.03v-0.01l-0.06-0.06-0.01-0.02-0.04-0.04c-0.12-0.12-0.22-0.19-0.29-0.19-0.05 0-0.11 0.06-0.11 0.11 0 0.06 0.02 0.17 0.07 0.3 0 0.02 0.02 0.07 0.04 0.13v0.02l0.62 2.24-0.02 0.02c-0.71-0.14-0.85-0.15-1.12-0.18v-0.11c0.37 0 0.44-0.03 0.44-0.16 0-0.06-0.02-0.17-0.06-0.31l-0.34-1.23c-0.11-0.41-0.15-0.62-0.15-0.76 0-0.26 0.11-0.4 0.32-0.4 0.32 0 0.58 0.21 0.98 0.8z"/>
<path d="m160.44 660.29h-0.03l-0.02-0.01h-0.03l-0.02-0.01h-0.02l-0.01-0.01-0.02-0.01h-0.01l-0.01-0.01-0.02-0.01-0.02-0.02-0.01-0.02-0.01-0.01-0.02-0.01-0.01-0.01-0.01-0.02v-0.01l-0.01-0.02-0.01-0.01-0.01-0.02v-0.01l-0.01-0.02v-0.02l-0.01-0.02v-0.03l-0.01-0.02v-0.04c0-0.22 0.13-0.37 0.34-0.37 0.18 0 0.34 0.16 0.34 0.36s-0.16 0.38-0.35 0.38z"/>
</g>
   <text x="84.264" y="112.51965" fill="#000000" font-family="'STIX Two Text'" font-size="16px" letter-spacing="0px" word-spacing="0px" style="font-feature-settings:normal;font-variant-caps:normal;font-variant-ligatures:normal;font-variant-numeric:normal;line-height:1.25" xml:space="preserve"><tspan x="84.264" y="112.51965">A</tspan></text>
   <text x="205.048" y="112.51965" fill="#000000" font-family="'STIX Two Text'" font-size="16px" letter-spacing="0px" word-spacing="0px" style="font-feature-settings:normal;font-variant-caps:normal;font-variant-ligatures:normal;font-variant-numeric:normal;line-height:1.25" xml:space="preserve"><tspan x="205.048" y="112.51965">B</tspan></text>
  </g>
  <g stroke="#000">
   <g transform="matrix(1.7333 0 0 -1.7333 -176.24 1286)" fill-rule="evenodd" stroke-miterlimit="10.433" stroke-width="0" inkscapeversion="0.92.4" ns0:alignment="middle center" ns0:jacobian_sqrt="1.733333" ns0:pdfconverter="pstoedit" ns0:preamble="/home/antonio/.config/inkscape/extensions/textext/default_packages.tex" ns0:scale="1.3" ns0:texconverter="pdflatex" ns0:text="$\\mu_i^{\\rm A}$" ns0:version="0.10.0" xml:space="preserve">
<path d="m153.65 658v0.04l-0.01 0.01v0.02l-0.01 0.01h-0.01v0.01h-0.01c-0.15 0-0.14-0.59-0.68-0.59-0.15 0-0.21 0.13-0.21 0.32 0 0.26 0.1 0.64 0.2 1.03l0.7 2.77-0.87-0.15-0.8-2.99c-0.02-0.05-0.6-0.88-1.21-0.88-0.57 0-0.75 0.52-0.75 0.91 0 0.12 0.02 0.22 0.04 0.31l0.71 2.8-0.74-0.13-1.09-4.26c-0.21-0.8-0.61-1.87-0.69-2.05h0.88l0.64 2.48h0.01c0-0.01 0.04-0.53 0.76-0.53 0.79 0 1.28 0.78 1.38 0.9-0.01-0.08-0.02-0.15-0.02-0.22 0-0.65 0.61-0.68 0.78-0.68h0.03c0.69 0 0.97 0.64 0.97 0.87z"/>
<path d="m158.98 660.98-0.03 0.01h-0.08l-0.02 0.01h-0.03l-0.04 0.02h-0.02l-0.04 0.02-0.01 0.01-0.04 0.02-0.05 0.05-0.01 0.02-0.04 0.04-0.01 0.02-0.02 0.03-0.02 0.02-0.01 0.03-0.04 0.06-0.1 0.2-0.01 0.03-0.01 0.02-1.74 3.95h-0.14l-1.46-3.42c-0.44-1.01-0.53-1.12-0.86-1.14v-0.13h1.38v0.13c-0.33 0-0.47 0.1-0.47 0.29 0 0.08 0.02 0.18 0.05 0.27l0.32 0.81h1.83l-0.09 0.29h-1.62l0.81 1.91 0.81-1.91 0.09-0.29 0.29-0.66c0.09-0.19 0.13-0.37 0.13-0.47 0-0.17-0.11-0.23-0.48-0.24v-0.13h1.78z"/>
<path d="m155.59 654.86-0.01-0.02-0.02-0.02-0.02-0.04-0.03-0.03-0.01-0.02-0.01-0.01-0.01-0.02-0.03-0.03-0.01-0.02-0.03-0.03v-0.01h-0.01l-0.02-0.02v-0.01l-0.02-0.02-0.01-0.02-0.02-0.01-0.01-0.01-0.01-0.02c-0.12-0.12-0.23-0.19-0.29-0.19s-0.11 0.06-0.11 0.11c0 0.07 0.02 0.17 0.07 0.3 0 0.02 0.02 0.07 0.03 0.13v0.01l0.01 0.02 0.62 2.24-0.02 0.01c-0.71-0.13-0.85-0.15-1.12-0.17v-0.12c0.37 0 0.44-0.02 0.44-0.16 0-0.06-0.02-0.17-0.07-0.31l-0.33-1.23c-0.11-0.4-0.16-0.62-0.16-0.76 0-0.25 0.12-0.39 0.33-0.39 0.32 0 0.58 0.21 0.97 0.79z"/>
<path d="m155.54 658.61h-0.05l-0.02-0.01h-0.02l-0.01-0.01h-0.02l-0.01-0.01h-0.02l-0.01-0.01-0.02-0.01-0.03-0.03-0.02-0.01-0.01-0.02-0.03-0.03-0.01-0.02v-0.01l-0.02-0.04-0.01-0.01v-0.02l-0.01-0.02v-0.03l-0.01-0.02v-0.06c0-0.22 0.13-0.37 0.33-0.37 0.19 0 0.35 0.16 0.35 0.36s-0.16 0.38-0.35 0.38z"/>
</g>
   <g transform="matrix(1.7333 0 0 -1.7333 -55.555 1286)" fill-rule="evenodd" stroke-miterlimit="10.433" stroke-width="0" inkscapeversion="0.92.4" ns0:alignment="middle center" ns0:jacobian_sqrt="1.733333" ns0:pdfconverter="pstoedit" ns0:preamble="/home/antonio/.config/inkscape/extensions/textext/default_packages.tex" ns0:scale="1.3" ns0:texconverter="pdflatex" ns0:text="$\\mu_i^{\\rm B}$" ns0:version="0.10.0" xml:space="preserve">
<path d="m153.65 658v0.04l-0.01 0.01v0.02l-0.01 0.01h-0.01v0.01h-0.01c-0.15 0-0.14-0.59-0.68-0.59-0.15 0-0.21 0.13-0.21 0.32 0 0.26 0.1 0.64 0.2 1.03l0.7 2.77-0.87-0.15-0.8-2.99c-0.02-0.05-0.6-0.88-1.21-0.88-0.57 0-0.75 0.52-0.75 0.91 0 0.12 0.02 0.22 0.04 0.31l0.71 2.8-0.74-0.13-1.09-4.26c-0.21-0.8-0.61-1.87-0.69-2.05h0.88l0.64 2.48h0.01c0-0.01 0.04-0.53 0.76-0.53 0.79 0 1.28 0.78 1.38 0.9-0.01-0.08-0.02-0.15-0.02-0.22 0-0.65 0.61-0.68 0.78-0.68h0.03c0.69 0 0.97 0.64 0.97 0.87z"/>
<path d="m154.16 665.46v-0.14c0.59-0.03 0.67-0.11 0.67-0.62v-3.09c0-0.52-0.09-0.6-0.67-0.63v-0.13h2.34c0.54 0 1.04 0.15 1.3 0.38 0.25 0.23 0.39 0.54 0.39 0.87 0 0.31-0.13 0.59-0.34 0.79-0.21 0.19-0.4 0.27-0.86 0.38 0.37 0.09 0.51 0.16 0.68 0.31 0.18 0.15 0.28 0.41 0.28 0.69 0 0.78-0.62 1.19-1.83 1.19l-0.11-0.26c0.8 0 1.23-0.34 1.23-0.96 0-0.54-0.37-0.84-1.03-0.84h-0.67v-0.28c0.68 0 1-0.04 1.26-0.14 0.4-0.17 0.58-0.45 0.58-0.88 0-0.38-0.14-0.65-0.42-0.81-0.23-0.13-0.51-0.18-0.97-0.18-0.35 0-0.45 0.06-0.45 0.28v3.6c0 0.15 0.05 0.21 0.16 0.21h0.31l0.11 0.26z"/>
<path d="m155.59 654.86-0.01-0.02-0.02-0.02-0.02-0.04-0.03-0.03-0.01-0.02-0.01-0.01-0.01-0.02-0.03-0.03-0.01-0.02-0.03-0.03v-0.01h-0.01l-0.02-0.02v-0.01l-0.02-0.02-0.01-0.02-0.02-0.01-0.01-0.01-0.01-0.02c-0.12-0.12-0.23-0.19-0.29-0.19s-0.11 0.06-0.11 0.11c0 0.07 0.02 0.17 0.07 0.3 0 0.02 0.02 0.07 0.03 0.13v0.01l0.01 0.02 0.62 2.24-0.02 0.01c-0.71-0.13-0.85-0.15-1.12-0.17v-0.12c0.37 0 0.44-0.02 0.44-0.16 0-0.06-0.02-0.17-0.07-0.31l-0.33-1.23c-0.11-0.4-0.16-0.62-0.16-0.76 0-0.25 0.12-0.39 0.33-0.39 0.32 0 0.58 0.21 0.97 0.79z"/>
<path d="m155.54 658.61h-0.05l-0.02-0.01h-0.02l-0.01-0.01h-0.02l-0.01-0.01h-0.02l-0.01-0.01-0.02-0.01-0.03-0.03-0.02-0.01-0.01-0.02-0.03-0.03-0.01-0.02v-0.01l-0.02-0.04-0.01-0.01v-0.02l-0.01-0.02v-0.03l-0.01-0.02v-0.06c0-0.22 0.13-0.37 0.33-0.37 0.19 0 0.35 0.16 0.35 0.36s-0.16 0.38-0.35 0.38z"/>
</g>
   <ellipse cx="150.84" cy="122.5" rx="107.5" ry="68.5" fill="none"/>
  </g>
 </g>
</svg>
