<?xml version="1.0" encoding="UTF-8" standalone="no"?>
<svg id="svg4366" xmlns:rdf="http://www.w3.org/1999/02/22-rdf-syntax-ns#" xmlns="http://www.w3.org/2000/svg" xmlns:ns0="http://www.iki.fi/pav/software/textext/" height="500" width="500" version="1.1" xmlns:cc="http://creativecommons.org/ns#" xmlns:xlink="http://www.w3.org/1999/xlink" viewBox="0 0 500 500" xmlns:dc="http://purl.org/dc/elements/1.1/">
 <style type="text/css">
	 @import url('../estilo.css');
 </style>
 <metadata id="metadata4494">
  <rdf:RDF>
   <cc:Work rdf:about="">
    <dc:format>image/svg+xml</dc:format>
    <dc:type rdf:resource="http://purl.org/dc/dcmitype/StillImage"/>
    <dc:title>Gnuplot</dc:title>
   </cc:Work>
  </rdf:RDF>
 </metadata>
 <title id="title4368">Gnuplot</title>
 <desc id="desc4370">Produced by GNUPLOT 5.0 patchlevel 3</desc>
 <g id="gnuplot_canvas">
  <g fill="none">
   <rect id="rect4373" height="500" width="500" y="0" x="0"/>
   <g stroke="currentColor">
    <g id="g4405" color="black">
     <path id="path4407" stroke="#000" d="m37.3 250"/>
     <g id="g4409" font-size="16" transform="translate(31 256)" text-anchor="end" stroke="none" font-family="Stix Two Text" fill="#000">
      <text id="text4411">
       <tspan id="tspan4413" font-family="Stix Two Text">0</tspan>
      </text>
     </g>
    </g>
    <g id="g4419" color="black" stroke-width=".5">
     <g id="g4421" stroke="none" shape-rendering="crispEdges">
      <polygon id="polygon4423" points="466.6 250 465.1 247.4 475 250 465.1 252.6" fill="#000"/>
     </g>
     <path id="path4425" stroke="#000" d="m466.6 250l-1.5-2.6 9.9 2.6-9.9 2.6 1.5-2.6m-429.3 0h429.3"/>
    </g>
    <g id="g4427" color="black" stroke-width=".5">
     <g id="g4429" stroke="none" shape-rendering="crispEdges">
      <polygon id="polygon4431" points="37.3 39.6 34.7 41.1 37.3 31.2 39.9 41.1" fill="#000"/>
     </g>
     <path id="path4433" stroke="#000" d="m37.3 39.6l-2.6 1.5 2.6-9.9 2.6 9.9-2.6-1.5m0 429.3v-429.3"/>
    </g>
    <g>
     <g id="g4437" color="black">
      <path id="path4439" stroke="#000" stroke-dasharray="2.5,4.0" d="m92 250v109.5"/>
     </g>
     <g id="g4441" color="black">
      <g id="g4443" font-size="16" transform="translate(24.1,41.7)" text-anchor="middle" stroke="none" font-family="Stix Two Text" fill="#000">
       <text id="text4445">
        <tspan id="tspan4447" font-family="Stix Two Text" font-weight="bold" font-style="italic">E</tspan>
       </text>
      </g>
     </g>
     <g id="g4449" color="black">
      <g id="g4451" font-size="16" transform="translate(470.5,264.6)" text-anchor="middle" stroke="none" font-family="Stix Two Text" fill="#000">
       <text id="text4453">
        <tspan id="tspan4455" font-family="Stix Two Text" font-weight="bold" font-style="italic">r</tspan>
       </text>
      </g>
     </g>
    </g>
   </g>
  </g>
  <g id="gnuplot_plot_1">
   <title id="title4460"/>
   <g id="g4462" color="black" stroke="currentColor" fill="none">
    <path id="path4464" stroke="#0072b2" d="m92 468.9l1-3.8 2-7.7 2.1-7.1 2.1-6.7 2-6.2 2.1-5.9 2-5.5 2.1-5.2 2.1-4.8 2-4.6 2.1-4.4 2.1-4.1 2-4 2.1-3.7 2-3.5 2.1-3.4 2.1-3.2 2-3.1 2.1-2.9 2.1-2.8 2-2.7 2.1-2.6 2-2.4 2.1-2.4 2.1-2.3 2-2.2 2.1-2.1 2-2 2.1-2 2.1-1.9 2-1.8 2.1-1.7 2.1-1.7 2-1.7 2.1-1.6 2-1.5 2.1-1.5 2.1-1.4 2-1.4 2.1-1.4 2.1-1.3 2-1.3 2.1-1.2 2-1.2 2.1-1.2 2.1-1.1 2-1.1 2.1-1.1 2.1-1 2-1 2.1-1 2-1 2.1-0.9 2.1-1 2-0.9 2.1-0.8 2-0.9 2.1-0.8 2.1-0.8 2-0.8 2.1-0.8 2.1-0.8 2-0.7 2.1-0.7 2-0.7 2.1-0.7 2.1-0.7 2-0.7 2.1-0.6 2.1-0.7 2-0.6 2.1-0.6 2-0.6 2.1-0.6 2.1-0.6 2-0.5 2.1-0.6 2.1-0.5 2-0.5 2.1-0.6 2-0.5 2.1-0.5 2.1-0.5 2-0.5 2.1-0.4 2-0.5 2.1-0.5 2.1-0.4 2-0.5 2.1-0.4 2.1-0.4 2-0.4 2.1-0.5 2-0.4 2.1-0.4 2.1-0.4 2-0.3 2.1-0.4 2.1-0.4 2-0.4 2.1-0.3 2-0.4 2.1-0.3 2.1-0.4 2-0.3 2.1-0.4 2-0.3 2.1-0.3 2.1-0.3 2-0.4 2.1-0.3 2.1-0.3 2-0.3 2.1-0.3 2-0.3 2.1-0.3 2.1-0.2 2-0.3 2.1-0.3 2.1-0.3 2-0.2 2.1-0.3 2-0.3 2.1-0.2 2.1-0.3 2-0.2 2.1-0.3 2.1-0.2 2-0.3 2.1-0.2 2-0.3 2.1-0.2 2.1-0.2 2-0.3 2.1-0.2 2-0.2 2.1-0.2 2.1-0.2 2-0.3 2.1-0.2 2.1-0.2 2-0.2 2.1-0.2 2-0.2 2.1-0.2 2.1-0.2 2-0.2 2.1-0.2 2.1-0.2 2-0.2 2.1-0.1 2-0.2 2.1-0.2 2.1-0.2 2-0.2 2.1-0.1 2.1-0.2 2-0.2 2.1-0.2 2-0.1 2.1-0.2 2.1-0.2 2-0.1 2.1-0.2 2-0.1 2.1-0.2 2.1-0.2 2-0.1 2.1-0.2 2.1-0.1 2-0.2 2.1-0.1 2-0.2"/>
   </g>
  </g>
  <g id="gnuplot_plot_2">
   <title id="title4467"/>
   <g id="g4469" color="black" stroke="currentColor" fill="none">
    <path id="path4471" stroke="#009e73" d="m76 31.2l0.5 5.5 2 20.8 2.1 17.9 2.1 15.5 2 13.5 2.1 11.9 2.1 10.5 2 9.3 2.1 8.3 2 7.4 2.1 6.6 2.1 6.1 2 5.4 2.1 4.9 2 4.5 2.1 4.1 2.1 3.8 2 3.4 2.1 3.2 2.1 2.9 2 2.7 2.1 2.5 2 2.3 2.1 2.2 2.1 2 2 1.9 2.1 1.7 2.1 1.6 2 1.6 2.1 1.4 2 1.4 2.1 1.2 2.1 1.2 2 1.2 2.1 1 2 1 2.1 1 2.1 0.9 2 0.8 2.1 0.8 2.1 0.8 2 0.8 2.1 0.6 2 0.7 2.1 0.6 2.1 0.6 2 0.6 2.1 0.6 2.1 0.5 2 0.5 2.1 0.5 2 0.4 2.1 0.5 2.1 0.4 2 0.4 2.1 0.4 2.1 0.4 2 0.3 2.1 0.4 2 0.3 2.1 0.3 2.1 0.3 2 0.3 2.1 0.3 2 0.3 2.1 0.2 2.1 0.3 2 0.2 2.1 0.3 2.1 0.2 2 0.2 2.1 0.2 2 0.2 2.1 0.2 2.1 0.2 2 0.2 2.1 0.2 2.1 0.2 2 0.2 2.1 0.1 2 0.2 2.1 0.1 2.1 0.2 2 0.1 2.1 0.2 2.1 0.1 2 0.2 2.1 0.1 2 0.1 2.1 0.1 2.1 0.2 2 0.1 2.1 0.1 2 0.1 2.1 0.1 2.1 0.1 2 0.1 2.1 0.1 2.1 0.1 2 0.1 2.1 0.1 2 0.1 2.1 0.1 2.1 0.1 2 0.1h2.1l2.1 0.1 2 0.1 2.1 0.1h2l2.1 0.1 2.1 0.1 2 0.1h2.1l2 0.1 2.1 0.1h2.1l2 0.1h2.1l2.1 0.1 2 0.1h2.1l2 0.1h2.1l2.1 0.1h2l2.1 0.1h2.1l2 0.1h2.1l2 0.1h2.1l2.1 0.1h2l2.1 0.1h2.1 2l2.1 0.1h2l2.1 0.1h2.1 2l2.1 0.1h2l2.1 0.1h2.1 2l2.1 0.1h2.1 2l2.1 0.1h2 2.1 2.1l2 0.1h2.1 2.1l2 0.1h2.1 2 2.1l2.1 0.1h2 2.1 2.1l2 0.1h2.1 2 2.1l2.1 0.1h2 2.1 2l2.1 0.1h2.1 2 2.1 2.1l2 0.1h2.1 2"/>
   </g>
  </g>
  <g id="gnuplot_plot_3">
   <title id="title4474"/>
   <g id="g4478" color="black" stroke="currentColor" stroke-width="1.5" fill="none">
    <path id="path4480" stroke="#e51e10" d="m57.4 31.2l0.5 29.2 2.1 80.9 2 57.7 2.1 41.9 2.1 30.9 2 23 2.1 17.2 2.1 13.1 2 9.8 2.1 7.4 2 5.5 2.1 4.1 2.1 2.9 2 2.1 2.1 1.4 2.1 0.8 2 0.3h2.1l2-0.2 2.1-0.5 2.1-0.7 2-0.8 2.1-0.9 2-1 2.1-1.1 2.1-1.1 2-1.2 2.1-1.2 2.1-1.2 2-1.2 2.1-1.2 2-1.2 2.1-1.3 2.1-1.2 2-1.2 2.1-1.2 2.1-1.1 2-1.2 2.1-1.1 2-1.1 2.1-1.1 2.1-1.1 2-1.1 2.1-1 2-1 2.1-1 2.1-1 2-1 2.1-0.9 2.1-1 2-0.9 2.1-0.9 2-0.8 2.1-0.9 2.1-0.8 2-0.8 2.1-0.9 2.1-0.7 2-0.8 2.1-0.8 2-0.7 2.1-0.7 2.1-0.8 2-0.7 2.1-0.6 2.1-0.7 2-0.7 2.1-0.6 2-0.7 2.1-0.6 2.1-0.6 2-0.6 2.1-0.6 2-0.6 2.1-0.5 2.1-0.6 2-0.5 2.1-0.6 2.1-0.5 2-0.5 2.1-0.5 2-0.5 2.1-0.5 2.1-0.5 2-0.5 2.1-0.5 2.1-0.4 2-0.5 2.1-0.4 2-0.5 2.1-0.4 2.1-0.4 2-0.4 2.1-0.4 2.1-0.4 2-0.4 2.1-0.4 2-0.4 2.1-0.4 2.1-0.4 2-0.3 2.1-0.4 2-0.3 2.1-0.4 2.1-0.3 2-0.4 2.1-0.3 2.1-0.3 2-0.4 2.1-0.3 2-0.3 2.1-0.3 2.1-0.3 2-0.3 2.1-0.3 2.1-0.3 2-0.3 2.1-0.3 2-0.3 2.1-0.3 2.1-0.2 2-0.3 2.1-0.3 2-0.2 2.1-0.3 2.1-0.3 2-0.2 2.1-0.3 2.1-0.2 2-0.3 2.1-0.2 2-0.2 2.1-0.3 2.1-0.2 2-0.2 2.1-0.3 2.1-0.2 2-0.2 2.1-0.2 2-0.2 2.1-0.3 2.1-0.2 2-0.2 2.1-0.2 2.1-0.2 2-0.2 2.1-0.2 2-0.2 2.1-0.2 2.1-0.2 2-0.2 2.1-0.2 2-0.1 2.1-0.2 2.1-0.2 2-0.2 2.1-0.2 2.1-0.1 2-0.2 2.1-0.2 2-0.2 2.1-0.1 2.1-0.2 2-0.2 2.1-0.1 2.1-0.2 2-0.1 2.1-0.2 2-0.2 2.1-0.1 2.1-0.2 2-0.1 2.1-0.2 2.1-0.1 2-0.2 2.1-0.1 2-0.2 2.1-0.1 2.1-0.1 2-0.2 2.1-0.1 2-0.2 2.1-0.1 2.1-0.1 2-0.2 2.1-0.1 2.1-0.1 2-0.2 2.1-0.1 2-0.1"/>
   </g>
  </g>
 </g>
 <g fill-rule="evenodd" stroke="#000" stroke-miterlimit="10.433">
  <g id="content" xml:space="preserve" ns0:pdfconverter="pstoedit" transform="matrix(1.75 0 0 -1.75 -156.07 1383.6)" ns0:text="$\\dfrac{L^2}{2mr^2}$" ns0:version="0.7.2" ns0:inkscapeversion="0.91" ns0:preamble="/usr/share/inkscape/extensions/default_packages.tex" ns0:scale="1.4" ns0:texconverter="pdflatex"><path id="path4573" d="m159.4 715.31h-2.72v-0.16c0.62-0.06 0.77-0.14 0.77-0.43 0-0.14-0.04-0.37-0.11-0.62l-1.23-4.4c-0.18-0.58-0.25-0.64-0.81-0.74v-0.16h5.08l0.57 1.79-0.19 0.06c-0.35-0.72-0.62-1.04-1.06-1.26-0.35-0.17-0.76-0.23-1.63-0.23-0.75 0-1 0.08-1 0.34 0 0.07 0.05 0.31 0.1 0.5l1.22 4.41c0.15 0.51 0.41 0.7 1.01 0.74z" stroke-width="0"/><path id="path4575" d="m164.27 713.38-0.09 0.03c-0.26-0.39-0.35-0.45-0.66-0.45h-1.67l1.17 1.22c0.62 0.65 0.89 1.18 0.89 1.73 0 0.69-0.56 1.23-1.29 1.23-0.38 0-0.74-0.15-1-0.43-0.22-0.24-0.33-0.46-0.45-0.96l0.15-0.03c0.28 0.68 0.53 0.9 1.01 0.9 0.59 0 0.99-0.39 0.99-0.98 0-0.54-0.33-1.19-0.91-1.81l-1.24-1.32v-0.09h2.72z" stroke-width="0"/><line id="line4577" stroke-width="0.558" y2="704.62" x2="170.17" y1="704.62" x1="149.91"/><g stroke-width="0"><path id="path4579" d="m154.64 696.49-0.13 0.05c-0.37-0.57-0.5-0.66-0.94-0.66h-2.39l1.68 1.75c0.89 0.93 1.27 1.69 1.27 2.46 0 1-0.8 1.77-1.84 1.77-0.55 0-1.06-0.22-1.43-0.62-0.32-0.34-0.47-0.66-0.64-1.36l0.21-0.05c0.4 0.97 0.75 1.29 1.44 1.29 0.84 0 1.41-0.57 1.41-1.4 0-0.78-0.46-1.71-1.3-2.6l-1.77-1.88v-0.12h3.88z"/><path id="path4581" d="m161.75 696.29-0.01-0.02-0.02-0.03-0.02-0.02-0.02-0.02v-0.01l-0.01-0.01-0.01-0.01-0.01-0.01h-0.01v-0.01l-0.01-0.01-0.01-0.01v-0.01l-0.01-0.01-0.01-0.01-0.01-0.01v-0.01h-0.01v-0.01l-0.01-0.01-0.01-0.01-0.01-0.01v-0.01h-0.01c-0.27-0.36-0.48-0.53-0.63-0.53-0.08 0-0.13 0.06-0.13 0.16 0 0.05 0.04 0.21 0.1 0.45l0.67 2.5c0.02 0.04 0.04 0.22 0.04 0.28 0 0.36-0.25 0.63-0.59 0.63-0.19 0-0.39-0.07-0.63-0.22-0.49-0.32-0.9-0.8-1.58-1.9 0.24 0.76 0.39 1.33 0.39 1.52 0 0.35-0.22 0.6-0.56 0.6-0.61 0-1.31-0.66-2.23-2.11l0.58 2.09-0.03 0.02c-0.56-0.12-0.76-0.16-1.59-0.31v-0.16h0.25c0.26 0 0.39-0.07 0.39-0.22 0-0.11-0.23-1.02-0.59-2.28-0.23-0.82-0.26-0.92-0.39-1.43h0.75c0.48 1.59 0.62 1.96 0.96 2.47 0.56 0.85 1.16 1.41 1.5 1.41 0.13 0 0.2-0.09 0.2-0.25 0-0.09-0.32-1.3-0.95-3.63h0.75c0.4 1.56 0.6 2.05 1.1 2.76 0.49 0.68 0.99 1.12 1.28 1.12 0.11 0 0.2-0.1 0.2-0.21 0-0.05-0.02-0.17-0.07-0.35l-0.58-2.29c-0.09-0.37-0.13-0.56-0.13-0.66 0-0.3 0.14-0.46 0.4-0.46 0.47 0 0.91 0.33 1.43 1.07l0.05 0.07z"/><path id="path4583" d="m163.29 695.12 0.05 0.16 0.04 0.15 0.05 0.14 0.04 0.13 0.04 0.13 0.04 0.12 0.03 0.12 0.04 0.11 0.04 0.11 0.03 0.1 0.03 0.1 0.04 0.09 0.03 0.09 0.03 0.08 0.03 0.08 0.03 0.08 0.03 0.08 0.03 0.07 0.07 0.14 0.06 0.14 0.06 0.13 0.07 0.13 0.07 0.13 0.08 0.13 0.04 0.07 0.04 0.07c0.33 0.56 0.61 0.87 0.78 0.87 0.06 0 0.11-0.04 0.16-0.14 0.08-0.17 0.16-0.22 0.36-0.22 0.29 0 0.46 0.18 0.46 0.49s-0.19 0.52-0.47 0.52c-0.23 0-0.5-0.15-0.76-0.42-0.41-0.42-0.81-1.01-0.97-1.41l-0.13-0.36 0.52 2.17-0.03 0.02c-0.72-0.13-0.81-0.15-1.54-0.27v-0.17c0.24 0.05 0.27 0.05 0.34 0.05 0.22 0 0.35-0.1 0.35-0.28 0-0.14 0-0.14-0.16-0.82l-0.81-2.91z"/><path id="path4585" d="m169.5 698.96-0.09 0.03c-0.26-0.4-0.35-0.46-0.67-0.46h-1.66l1.17 1.23c0.62 0.65 0.89 1.18 0.89 1.72 0 0.7-0.56 1.24-1.29 1.24-0.38 0-0.74-0.16-1-0.44-0.23-0.23-0.33-0.46-0.45-0.95l0.15-0.04c0.28 0.69 0.53 0.91 1.01 0.91 0.59 0 0.98-0.4 0.98-0.98 0-0.55-0.32-1.19-0.9-1.82l-1.25-1.31v-0.09h2.72z"/></g></g>
  <g id="g4950" xml:space="preserve" stroke-width="0" ns0:pdfconverter="pstoedit" transform="matrix(1.75 0 0 -1.75 -209.86 1497.9)" ns0:text="$r_{\\text{c}}$" ns0:version="0.7.2" ns0:inkscapeversion="0.91" ns0:preamble="/usr/share/inkscape/extensions/default_packages.tex" ns0:scale="1.4" ns0:texconverter="pdflatex"><path id="path4952" d="m149.91 707.12 0.05 0.16 0.05 0.15 0.04 0.14 0.04 0.13 0.05 0.13 0.03 0.12 0.04 0.12 0.04 0.11 0.03 0.11 0.04 0.1 0.03 0.1 0.03 0.09 0.04 0.09 0.03 0.08 0.03 0.08 0.03 0.08 0.03 0.08 0.03 0.07 0.06 0.14 0.07 0.14 0.06 0.13 0.07 0.13 0.07 0.13 0.08 0.13 0.04 0.07 0.04 0.07c0.33 0.56 0.61 0.87 0.78 0.87 0.06 0 0.11-0.04 0.16-0.14 0.08-0.17 0.16-0.22 0.36-0.22 0.29 0 0.46 0.18 0.46 0.49s-0.2 0.52-0.47 0.52c-0.23 0-0.5-0.15-0.76-0.42-0.41-0.42-0.81-1.01-0.97-1.41l-0.14-0.36 0.53 2.17-0.03 0.02c-0.73-0.13-0.82-0.15-1.54-0.27v-0.17c0.24 0.05 0.27 0.05 0.34 0.05 0.21 0 0.34-0.1 0.34-0.28 0-0.14 0-0.14-0.16-0.82l-0.8-2.91z"/><path id="path4954" d="m155.36 706.72-0.03-0.05-0.03-0.04-0.03-0.04-0.03-0.04-0.03-0.04-0.03-0.03-0.03-0.04-0.03-0.03-0.02-0.03-0.03-0.03-0.03-0.03-0.03-0.02-0.03-0.03-0.03-0.02-0.03-0.02-0.03-0.02-0.02-0.02-0.03-0.02-0.03-0.01-0.03-0.02-0.03-0.01-0.03-0.01-0.03-0.01-0.04-0.01-0.03-0.01-0.03-0.01-0.03-0.01h-0.04-0.03l-0.04-0.01h-0.03-0.04c-0.64 0-1.08 0.56-1.08 1.36 0 0.72 0.38 1.22 0.95 1.22 0.25 0 0.34-0.08 0.41-0.34l0.04-0.15c0.06-0.2 0.18-0.32 0.33-0.32 0.18 0 0.33 0.13 0.33 0.29 0 0.39-0.48 0.72-1.07 0.72-0.34 0-0.7-0.14-0.98-0.39-0.35-0.31-0.55-0.78-0.55-1.34 0-0.9 0.55-1.55 1.33-1.55 0.31 0 0.59 0.11 0.84 0.33 0.19 0.16 0.32 0.35 0.53 0.77z"/></g>
  <g id="g5131" xml:space="preserve" stroke-width="0" ns0:pdfconverter="pstoedit" transform="matrix(1.75 0 0 -1.75 -174.94 1481.9)" ns0:text="$r_0$" ns0:version="0.7.2" ns0:inkscapeversion="0.91" ns0:preamble="/usr/share/inkscape/extensions/default_packages.tex" ns0:scale="1.4" ns0:texconverter="pdflatex"><path id="path5133" d="m149.91 707.12 0.05 0.16 0.05 0.15 0.04 0.14 0.04 0.13 0.05 0.13 0.03 0.12 0.04 0.12 0.04 0.11 0.03 0.11 0.04 0.1 0.03 0.1 0.03 0.09 0.04 0.09 0.03 0.08 0.03 0.08 0.03 0.08 0.03 0.08 0.03 0.07 0.06 0.14 0.07 0.14 0.06 0.13 0.07 0.13 0.07 0.13 0.08 0.13 0.04 0.07 0.04 0.07c0.33 0.56 0.61 0.87 0.78 0.87 0.06 0 0.11-0.04 0.16-0.14 0.08-0.17 0.16-0.22 0.36-0.22 0.29 0 0.46 0.18 0.46 0.49s-0.2 0.52-0.47 0.52c-0.23 0-0.5-0.15-0.76-0.42-0.41-0.42-0.81-1.01-0.97-1.41l-0.14-0.36 0.53 2.17-0.03 0.02c-0.73-0.13-0.82-0.15-1.54-0.27v-0.17c0.24 0.05 0.27 0.05 0.34 0.05 0.21 0 0.34-0.1 0.34-0.28 0-0.14 0-0.14-0.16-0.82l-0.8-2.91z"/><path id="path5135" d="m154.36 710.34h-0.04-0.03-0.04-0.03-0.03l-0.04-0.01h-0.03l-0.03-0.01h-0.03l-0.04-0.01-0.03-0.01-0.03-0.01h-0.03l-0.03-0.01-0.03-0.01-0.03-0.02-0.02-0.01-0.03-0.01-0.03-0.01-0.03-0.02-0.03-0.01-0.02-0.02-0.03-0.01-0.03-0.02-0.02-0.02-0.03-0.01-0.02-0.02-0.03-0.02-0.02-0.02-0.03-0.02-0.02-0.03-0.03-0.02c-0.4-0.39-0.66-1.19-0.66-2.01 0-0.76 0.23-1.57 0.55-1.96 0.26-0.31 0.62-0.48 1.02-0.48v0.18c-0.6 0-0.91 0.75-0.91 2.2 0 1.48 0.32 2.25 0.92 2.25 0.58 0 0.9-0.78 0.9-2.24s-0.31-2.21-0.91-2.21v-0.18c0.36 0 0.66 0.12 0.91 0.37 0.4 0.38 0.67 1.19 0.67 2.03 0 1.43-0.64 2.41-1.55 2.41z"/></g>
  <g id="g5315" xml:space="preserve" stroke-width="0" ns0:pdfconverter="pstoedit" transform="matrix(1.75 0 0 -1.75 -114.38 1547.8)" ns0:text="$V_{\\text{ef}}(r)$" ns0:version="0.7.2" ns0:inkscapeversion="0.91" ns0:preamble="/usr/share/inkscape/extensions/default_packages.tex" ns0:scale="1.4" ns0:texconverter="pdflatex"><path id="path5317" d="m155.56 713.63h-1.85v-0.16c0.45-0.05 0.63-0.15 0.63-0.34s-0.19-0.62-0.52-1.19l-2.05-3.54-0.66 4.41c-0.01 0.05-0.01 0.09-0.01 0.15 0 0.34 0.14 0.44 0.77 0.51v0.16h-2.4v-0.16c0.55-0.07 0.57-0.1 0.78-1.35l0.85-5.18h0.19l3.72 6.13c0.17 0.27 0.33 0.39 0.55 0.4z"/><path id="path5319" d="m157.65 706.77-0.04-0.04-0.03-0.05-0.03-0.05-0.03-0.04-0.03-0.04-0.03-0.04-0.03-0.04-0.03-0.03-0.03-0.04-0.03-0.03-0.03-0.03-0.04-0.03-0.03-0.03-0.03-0.02-0.03-0.03-0.03-0.02-0.04-0.02-0.03-0.02-0.03-0.02-0.04-0.02-0.03-0.01-0.03-0.02-0.04-0.01-0.04-0.01-0.03-0.01-0.04-0.01h-0.04l-0.03-0.01h-0.04l-0.04-0.01h-0.04-0.05c-0.39 0-0.69 0.2-0.9 0.6-0.12 0.27-0.17 0.5-0.18 0.92l0.01 0.22c0.08 0.55 0.31 0.81 0.74 0.81 0.42 0 0.59-0.2 0.68-0.81h-1.42l-0.01-0.22h2.14c-0.05 0.46-0.12 0.66-0.3 0.88-0.2 0.25-0.53 0.4-0.89 0.4-0.35 0-0.67-0.13-0.94-0.37-0.33-0.28-0.52-0.78-0.52-1.35 0-0.96 0.51-1.56 1.31-1.56 0.66 0 1.18 0.41 1.48 1.16z"/><path id="path5321" d="m160.05 708.77h-0.85v0.81c0 0.4 0.13 0.62 0.39 0.62 0.15 0 0.25-0.07 0.37-0.27 0.11-0.19 0.2-0.26 0.32-0.26 0.16 0 0.29 0.13 0.29 0.29 0 0.25-0.31 0.43-0.73 0.43-0.43 0-0.8-0.18-0.98-0.51-0.18-0.3-0.24-0.55-0.24-1.11h-0.58v-0.23h0.58v-2.19c0-0.5-0.08-0.59-0.58-0.62v-0.1h1.81v0.1c-0.57 0.03-0.65 0.1-0.65 0.62v2.19h0.85z"/><path id="path5323" d="m163.66 713.86-0.07-0.05-0.07-0.04-0.06-0.04-0.06-0.04-0.06-0.04-0.06-0.04-0.05-0.04-0.05-0.04-0.05-0.03-0.05-0.04-0.05-0.04-0.05-0.03-0.04-0.04-0.04-0.03-0.08-0.07-0.08-0.07-0.08-0.06-0.07-0.07-0.07-0.08-0.06-0.07-0.07-0.07-0.07-0.08-0.07-0.09c-0.71-0.87-1.05-1.86-1.05-3.03 0-1.26 0.36-2.24 1.24-3.25 0.41-0.48 0.67-0.7 1.19-1.02l0.12 0.16c-0.8 0.63-1.08 0.97-1.35 1.72-0.24 0.67-0.35 1.43-0.35 2.42 0 1.05 0.13 1.87 0.4 2.48 0.28 0.62 0.58 0.98 1.3 1.56z"/><path id="path5325" d="m165.24 707.12 0.05 0.16 0.04 0.15 0.05 0.14 0.04 0.13 0.04 0.13 0.04 0.12 0.03 0.12 0.04 0.11 0.04 0.11 0.03 0.1 0.03 0.1 0.04 0.09 0.03 0.09 0.03 0.08 0.03 0.08 0.03 0.08 0.03 0.08 0.03 0.07 0.07 0.14 0.06 0.14 0.06 0.13 0.07 0.13 0.07 0.13 0.08 0.13 0.04 0.07 0.04 0.07c0.33 0.56 0.61 0.87 0.78 0.87 0.06 0 0.11-0.04 0.16-0.14 0.08-0.17 0.16-0.22 0.36-0.22 0.29 0 0.46 0.18 0.46 0.49s-0.19 0.52-0.47 0.52c-0.23 0-0.5-0.15-0.76-0.42-0.41-0.42-0.81-1.01-0.96-1.41l-0.14-0.36 0.52 2.17-0.03 0.02c-0.72-0.13-0.81-0.15-1.54-0.27v-0.17c0.24 0.05 0.27 0.05 0.34 0.05 0.22 0 0.35-0.1 0.35-0.28 0-0.14 0-0.14-0.16-0.82l-0.81-2.91z"/><path id="path5327" d="m168.51 705.36 0.07 0.04 0.07 0.05 0.06 0.04 0.06 0.04 0.06 0.04 0.06 0.04 0.05 0.04 0.05 0.03 0.05 0.04 0.05 0.04 0.05 0.03 0.05 0.04 0.04 0.03 0.04 0.04 0.08 0.06 0.08 0.07 0.08 0.07 0.07 0.07 0.07 0.07 0.06 0.08 0.07 0.07 0.07 0.08 0.07 0.08c0.71 0.87 1.05 1.87 1.05 3.03 0 1.28-0.36 2.25-1.24 3.26-0.41 0.48-0.67 0.7-1.19 1.02l-0.12-0.16c0.8-0.63 1.07-0.98 1.35-1.73 0.24-0.66 0.35-1.42 0.35-2.42 0-1.03-0.13-1.86-0.4-2.47-0.28-0.62-0.58-0.98-1.3-1.56z"/></g>
  <g id="g5521" xml:space="preserve" ns0:pdfconverter="pstoedit" transform="matrix(1.75 0 0 -1.75 -144.58 1661.3)" ns0:text="$\\dfrac{K}{r}, K &lt; 0$" ns0:version="0.7.2" ns0:inkscapeversion="0.91" ns0:preamble="/usr/share/inkscape/extensions/default_packages.tex" ns0:scale="1.4" ns0:texconverter="pdflatex"><path id="path5523" stroke-width="0" d="m157.35 717.09h-2.21v-0.16c0.12-0.01 0.23-0.03 0.27-0.03 0.24-0.02 0.34-0.08 0.34-0.19 0-0.24-0.55-0.78-1.44-1.4l-1.51-1.05 0.53 1.93c0.15 0.5 0.41 0.7 1 0.74v0.16h-2.72v-0.16c0.62-0.06 0.77-0.14 0.77-0.43 0-0.14-0.04-0.37-0.11-0.62l-1.23-4.4c-0.17-0.6-0.22-0.65-0.81-0.74v-0.16h2.47v0.16c-0.63 0.07-0.72 0.13-0.72 0.44 0 0.1 0.02 0.19 0.08 0.39l0.06 0.21 0.62 2.27 1.2-2.08c0.24-0.4 0.38-0.75 0.38-0.94 0-0.15-0.14-0.23-0.46-0.26-0.05 0-0.16-0.01-0.29-0.03v-0.16h2.74v0.16c-0.62 0.06-0.68 0.09-0.96 0.56l-1.73 3.02 2.98 2.25c0.28 0.21 0.51 0.32 0.75 0.36z"/><line id="line5525" stroke-width="0.558" y2="706.39" y1="706.39" x2="157.35" x1="149.91"/><g stroke-width="0"><path id="path5527" d="m152.78 697 0.05 0.15 0.04 0.15 0.05 0.14 0.04 0.14 0.04 0.12 0.04 0.13 0.04 0.11 0.03 0.12 0.04 0.1 0.03 0.1 0.04 0.1 0.03 0.09 0.03 0.09 0.03 0.09 0.03 0.08 0.04 0.08 0.03 0.07 0.03 0.08 0.06 0.14 0.06 0.13 0.07 0.14 0.06 0.13 0.08 0.13 0.07 0.13 0.04 0.07 0.05 0.07c0.33 0.55 0.6 0.86 0.77 0.86 0.06 0 0.11-0.04 0.16-0.14 0.08-0.17 0.16-0.21 0.36-0.21 0.29 0 0.46 0.17 0.46 0.48s-0.19 0.52-0.47 0.52c-0.23 0-0.5-0.15-0.76-0.42-0.4-0.42-0.8-1-0.96-1.4l-0.14-0.36 0.53 2.16-0.03 0.02c-0.73-0.13-0.82-0.15-1.55-0.27v-0.17c0.24 0.05 0.27 0.05 0.34 0.05 0.22 0 0.35-0.1 0.35-0.28 0-0.14 0-0.14-0.16-0.81l-0.81-2.91z"/><path id="path5529" d="m160.49 703.89-0.01 0.04v0.04 0.03 0.04l-0.01 0.03v0.03 0.04l-0.01 0.03-0.01 0.03v0.03l-0.01 0.03-0.01 0.03-0.01 0.02-0.01 0.03-0.01 0.02-0.01 0.03-0.01 0.02-0.01 0.02-0.03 0.05-0.02 0.04-0.03 0.04-0.03 0.03-0.03 0.03-0.03 0.03-0.03 0.03-0.04 0.02-0.03 0.02-0.03 0.02-0.04 0.02-0.03 0.02-0.03 0.01-0.04 0.01-0.03 0.01-0.03 0.01-0.03 0.01h-0.03l-0.03 0.01h-0.03-0.03l-0.02 0.01h-0.02c-0.25 0-0.58-0.15-0.58-0.58 0-0.4 0.36-0.5 0.62-0.5 0.07 0 0.12 0.01 0.15 0.02 0.04 0.01 0.07 0.02 0.09 0.02 0.07 0 0.14-0.05 0.14-0.14 0-0.19-0.16-0.64-0.82-1.06l0.09-0.19c0.3 0.11 1.12 0.76 1.12 1.47z"/><path id="path5531" d="m170.14 710.34h-2.21v-0.16c0.12-0.01 0.22-0.03 0.27-0.03 0.23-0.02 0.33-0.08 0.33-0.19 0-0.24-0.54-0.78-1.43-1.4l-1.51-1.05 0.52 1.93c0.15 0.5 0.42 0.7 1.01 0.74v0.16h-2.72v-0.16c0.62-0.06 0.77-0.14 0.77-0.43 0-0.14-0.04-0.37-0.11-0.62l-1.23-4.4c-0.18-0.6-0.23-0.65-0.82-0.74v-0.16h2.48v0.16c-0.63 0.07-0.72 0.13-0.72 0.44 0 0.1 0.02 0.19 0.08 0.39l0.06 0.21 0.61 2.27 1.21-2.08c0.24-0.4 0.38-0.75 0.38-0.94 0-0.15-0.14-0.23-0.46-0.26-0.05 0-0.16-0.01-0.29-0.03v-0.16h2.74v0.16c-0.63 0.06-0.69 0.09-0.96 0.56l-1.74 3.02 2.99 2.25c0.28 0.21 0.51 0.32 0.75 0.36z"/><polygon id="polygon5533" points="173.52 706.29 178.62 703.89 178.62 704.45 174.48 706.39 178.62 708.33 178.62 708.89 173.52 706.49"/><path id="path5535" d="m184.54 710.57-0.05-0.01h-0.05-0.05-0.05l-0.05-0.01h-0.04l-0.05-0.01-0.05-0.01-0.04-0.01-0.05-0.01-0.04-0.01-0.05-0.01-0.04-0.01-0.04-0.01-0.04-0.02-0.04-0.01-0.04-0.02-0.05-0.02-0.04-0.02-0.03-0.02-0.04-0.02-0.04-0.02-0.04-0.02-0.04-0.03-0.03-0.02-0.04-0.03-0.04-0.02-0.03-0.03-0.04-0.03-0.03-0.03-0.04-0.03-0.03-0.03c-0.58-0.56-0.96-1.71-0.96-2.87 0-1.09 0.33-2.25 0.8-2.81 0.36-0.44 0.87-0.68 1.45-0.68v0.26c-0.86 0-1.29 1.07-1.29 3.14 0 2.11 0.44 3.22 1.3 3.22 0.84 0 1.29-1.13 1.29-3.21s-0.44-3.15-1.3-3.15v-0.26c0.51 0 0.94 0.17 1.3 0.52 0.57 0.55 0.95 1.7 0.95 2.91 0 2.04-0.9 3.45-2.21 3.45z"/></g></g>
 </g>
</svg>
