<?xml version="1.0" encoding="UTF-8" standalone="no"?>
<svg id="svg7912" xmlns:rdf="http://www.w3.org/1999/02/22-rdf-syntax-ns#" xmlns="http://www.w3.org/2000/svg" xmlns:ns0="http://www.iki.fi/pav/software/textext/" height="280" width="320" version="1.1" xmlns:cc="http://creativecommons.org/ns#" xmlns:xlink="http://www.w3.org/1999/xlink" viewBox="0 0 320 280" xmlns:dc="http://purl.org/dc/elements/1.1/">
 <style type="text/css">
	 @import url('../estilo.css');
 </style>
 <metadata id="metadata8018">
  <rdf:RDF>
   <cc:Work rdf:about="">
    <dc:format>image/svg+xml</dc:format>
    <dc:type rdf:resource="http://purl.org/dc/dcmitype/StillImage"/>
    <dc:title>Gnuplot</dc:title>
   </cc:Work>
  </rdf:RDF>
 </metadata>
 <title id="title7914">Gnuplot</title>
 <desc id="desc7916">Produced by GNUPLOT 5.0 patchlevel 3</desc>
 <g id="gnuplot_canvas">
  <g fill="none">
   <rect id="rect7919" height="280" width="320" y="0" x="0"/>
   <g stroke="currentColor">
    <g id="g7951" color="black">
     <g id="g7953" font-size="16" transform="translate(108 155)" text-anchor="end" stroke="none" font-family="Stix Two Text" fill="#000">
      <text id="text7955">
       <tspan id="tspan7957" font-family="Stix Two Text" font-style="italic">O</tspan>
      </text>
     </g>
    </g>
    <g id="g7961" color="black" stroke-width=".5">
     <g id="g7963" stroke="none" shape-rendering="crispEdges">
      <polygon id="polygon7965" points="286.6 140 285.1 137.4 295 140 285.1 142.6" fill="#000"/>
     </g>
     <path id="path7967" stroke="#000" d="m286.6 140l-1.5-2.6 9.9 2.6-9.9 2.6 1.5-2.6m-265.9 0h265.9"/>
    </g>
    <g id="g7969" color="black" stroke-width=".5">
     <g id="g7971" stroke="none" shape-rendering="crispEdges">
      <polygon id="polygon7973" points="112.1 28.4 109.5 29.9 112.1 20 114.7 29.9" fill="#000"/>
     </g>
     <path id="path7975" stroke="#000" d="m112.1 28.4l-2.6 1.5 2.6-9.9 2.6 9.9-2.6-1.5m0 231.7v-231.7"/>
    </g>
    <g id="g7979" color="black">
     <g id="g7981" font-size="16" transform="translate(102.3,28.5)" text-anchor="middle" stroke="none" font-family="Stix Two Text" fill="#000">
      <text id="text7983">
       <tspan id="tspan7985" font-family="Stix Two Text" font-weight="bold" font-style="italic">y</tspan>
      </text>
     </g>
    </g>
    <g id="g7987" color="black">
     <g id="g7989" font-size="16" transform="translate(292.2,152.7)" text-anchor="middle" stroke="none" font-family="Stix Two Text" fill="#000">
      <text id="text7991">
       <tspan id="tspan7993" font-family="Stix Two Text" font-weight="bold" font-style="italic">x</tspan>
      </text>
     </g>
    </g>
   </g>
  </g>
  <g id="gnuplot_plot_1">
   <title id="title7998"/>
   <g id="g8002" color="black" stroke="currentColor" stroke-width="1.5" fill="none">
    <path id="path8004" stroke="#0072b2" d="m249.3 140l-0.2-4.3-0.4-4.3-0.6-4.3-1-4.2-1.2-4.2-1.4-4-1.7-4-2-3.9-2.1-3.7-2.3-3.6-2.6-3.5-2.7-3.3-2.9-3.2-3-3-3.1-2.8-3.3-2.7-3.3-2.5-3.5-2.3-3.5-2.1-3.6-2-3.6-1.7-3.6-1.7-3.7-1.4-3.6-1.3-3.7-1.1-3.7-1-3.6-0.8-3.6-0.7-3.6-0.6-3.5-0.4-3.5-0.3-3.4-0.2-3.4-0.1-3.3 0.1-3.3 0.1-3.1 0.2-3.2 0.4-3 0.4-3 0.4-2.9 0.6-2.8 0.6-2.8 0.7-2.6 0.8-2.7 0.8-2.5 0.8-2.5 1-2.4 0.9-2.3 1-2.2 1-2.2 1.1-2.1 1.1-2.1 1.2-1.9 1.1-2 1.2-1.8 1.2-1.8 1.3-1.7 1.2-1.7 1.3-1.6 1.3-1.6 1.3-1.5 1.4-1.4 1.3-1.4 1.3-1.4 1.4-1.3 1.4-1.2 1.4-1.2 1.3-1.1 1.4-1.1 1.4-1.1 1.5-1 1.4-1 1.4-0.9 1.4-0.9 1.4-0.8 1.4-0.8 1.5-0.8 1.4-0.7 1.4-0.7 1.5-0.6 1.4-0.6 1.5-0.6 1.4-0.6 1.4-0.5 1.5-0.4 1.4-0.5 1.5-0.4 1.4-0.4 1.4-0.3 1.5-0.3 1.4-0.3 1.5-0.2 1.4-0.2 1.5-0.2 1.4-0.2 1.5-0.1 1.4-0.1 1.4v1.5l-0.1 1.4v1.5l0.1 1.4v1.5l0.1 1.4 0.1 1.4 0.2 1.5 0.2 1.4 0.2 1.5 0.2 1.4 0.3 1.5 0.3 1.4 0.3 1.5 0.4 1.4 0.4 1.4 0.5 1.5 0.4 1.4 0.5 1.5 0.6 1.4 0.6 1.4 0.6 1.5 0.6 1.4 0.7 1.5 0.7 1.4 0.8 1.4 0.8 1.5 0.8 1.4 0.9 1.4 0.9 1.4 1 1.4 1 1.4 1.1 1.5 1.1 1.4 1.1 1.4 1.2 1.3 1.2 1.4 1.3 1.4 1.4 1.4 1.4 1.3 1.4 1.3 1.5 1.4 1.6 1.3 1.6 1.3 1.7 1.3 1.7 1.2 1.8 1.3 1.8 1.2 2 1.2 1.9 1.1 2.1 1.2 2.1 1.1 2.2 1.1 2.2 1 2.3 1 2.4 0.9 2.5 1 2.5 0.8 2.7 0.8 2.6 0.8 2.8 0.7 2.8 0.6 2.9 0.6 3 0.4 3 0.4 3.2 0.4 3.1 0.2 3.3 0.1 3.3 0.1 3.4-0.1 3.4-0.2 3.5-0.3 3.5-0.4 3.6-0.6 3.6-0.7 3.6-0.8 3.7-1 3.7-1.1 3.6-1.3 3.7-1.4 3.6-1.7 3.6-1.7 3.6-2 3.5-2.1 3.5-2.3 3.3-2.5 3.3-2.7 3.1-2.8 3-3 2.9-3.2 2.7-3.3 2.6-3.5 2.3-3.6 2.1-3.7 2-3.9 1.7-4 1.4-4 1.2-4.2 1-4.2 0.6-4.3 0.4-4.3 0.2-4.3"/>
   </g>
  </g>
 </g>
 <g id="g12594" xml:space="preserve" stroke="#000" stroke-width="0" fill-rule="evenodd" ns0:pdfconverter="pstoedit" transform="matrix(1.75 0 0 -1.75 -8.6475 1389.8)" stroke-miterlimit="10.433" ns0:text="$r_3$" ns0:version="0.7.2" ns0:inkscapeversion="0.91" ns0:preamble="/usr/share/inkscape/extensions/default_packages.tex" ns0:scale="1.4" ns0:texconverter="pdflatex"><path id="path12596" d="m149.91 707.12 0.05 0.16 0.05 0.15 0.04 0.14 0.04 0.13 0.05 0.13 0.03 0.12 0.04 0.12 0.04 0.11 0.03 0.11 0.04 0.1 0.03 0.1 0.03 0.09 0.04 0.09 0.03 0.08 0.03 0.08 0.03 0.08 0.03 0.08 0.03 0.07 0.06 0.14 0.07 0.14 0.06 0.13 0.07 0.13 0.07 0.13 0.08 0.13 0.04 0.07 0.04 0.07c0.33 0.56 0.61 0.87 0.78 0.87 0.06 0 0.11-0.04 0.16-0.14 0.08-0.17 0.16-0.22 0.36-0.22 0.29 0 0.46 0.18 0.46 0.49s-0.2 0.52-0.47 0.52c-0.23 0-0.5-0.15-0.76-0.42-0.41-0.42-0.81-1.01-0.97-1.41l-0.14-0.36 0.53 2.17-0.03 0.02c-0.73-0.13-0.82-0.15-1.54-0.27v-0.17c0.24 0.05 0.27 0.05 0.34 0.05 0.21 0 0.34-0.1 0.34-0.28 0-0.14 0-0.14-0.16-0.82l-0.8-2.91z"/><path id="path12598" d="m153.65 707.93h0.04 0.04 0.03 0.04 0.03 0.03 0.03 0.03 0.03 0.02l0.03-0.01h0.02 0.03 0.02 0.02 0.03l0.02-0.01h0.02 0.02 0.01l0.02-0.01h0.02l0.04-0.01h0.03l0.03-0.01 0.03-0.01 0.03-0.02c0.44-0.15 0.71-0.55 0.71-1.03 0-0.58-0.4-1.04-0.92-1.04-0.18 0-0.32 0.05-0.58 0.22-0.21 0.12-0.33 0.17-0.45 0.17-0.16 0-0.26-0.09-0.26-0.24 0-0.24 0.3-0.4 0.79-0.4 0.53 0 1.08 0.18 1.41 0.47s0.51 0.69 0.51 1.16c0 0.35-0.11 0.68-0.31 0.9-0.14 0.15-0.28 0.23-0.58 0.37 0.48 0.32 0.65 0.58 0.65 0.96 0 0.56-0.44 0.95-1.09 0.95-0.34 0-0.65-0.11-0.9-0.34-0.21-0.19-0.32-0.37-0.47-0.78l0.11-0.03c0.28 0.51 0.6 0.74 1.03 0.74 0.46 0 0.77-0.31 0.77-0.75 0-0.25-0.1-0.5-0.28-0.68-0.21-0.21-0.4-0.31-0.88-0.48z"/></g>
 <g id="g12388" xml:space="preserve" stroke="#000" stroke-width="0" fill-rule="evenodd" ns0:pdfconverter="pstoedit" transform="matrix(1.75 0 0 -1.75 -210.23 1389.8)" stroke-miterlimit="10.433" ns0:text="$r_2$" ns0:version="0.7.2" ns0:inkscapeversion="0.91" ns0:preamble="/usr/share/inkscape/extensions/default_packages.tex" ns0:scale="1.4" ns0:texconverter="pdflatex"><path id="path12390" d="m149.91 707.12 0.05 0.16 0.05 0.15 0.04 0.14 0.04 0.13 0.05 0.13 0.03 0.12 0.04 0.12 0.04 0.11 0.03 0.11 0.04 0.1 0.03 0.1 0.03 0.09 0.04 0.09 0.03 0.08 0.03 0.08 0.03 0.08 0.03 0.08 0.03 0.07 0.06 0.14 0.07 0.14 0.06 0.13 0.07 0.13 0.07 0.13 0.08 0.13 0.04 0.07 0.04 0.07c0.33 0.56 0.61 0.87 0.78 0.87 0.06 0 0.11-0.04 0.16-0.14 0.08-0.17 0.16-0.22 0.36-0.22 0.29 0 0.46 0.18 0.46 0.49s-0.2 0.52-0.47 0.52c-0.23 0-0.5-0.15-0.76-0.42-0.41-0.42-0.81-1.01-0.97-1.41l-0.14-0.36 0.53 2.17-0.03 0.02c-0.73-0.13-0.82-0.15-1.54-0.27v-0.17c0.24 0.05 0.27 0.05 0.34 0.05 0.21 0 0.34-0.1 0.34-0.28 0-0.14 0-0.14-0.16-0.82l-0.8-2.91z"/><path id="path12392" d="m155.9 706.59-0.09 0.03c-0.26-0.4-0.35-0.46-0.66-0.46h-1.67l1.17 1.23c0.62 0.65 0.89 1.18 0.89 1.72 0 0.7-0.56 1.23-1.29 1.23-0.38 0-0.74-0.15-1-0.43-0.22-0.24-0.33-0.46-0.45-0.95l0.15-0.04c0.28 0.68 0.53 0.91 1.01 0.91 0.59 0 0.99-0.4 0.99-0.99 0-0.54-0.33-1.19-0.91-1.81l-1.24-1.32v-0.08h2.72z"/></g>
</svg>
