<?xml version="1.0" encoding="UTF-8" standalone="no"?>
<svg id="svg7499" xmlns:rdf="http://www.w3.org/1999/02/22-rdf-syntax-ns#" xmlns="http://www.w3.org/2000/svg" xmlns:ns0="http://www.iki.fi/pav/software/textext/" height="375" width="500" version="1.1" xmlns:cc="http://creativecommons.org/ns#" xmlns:xlink="http://www.w3.org/1999/xlink" viewBox="0 0 500 375" xmlns:dc="http://purl.org/dc/elements/1.1/">
 <style type="text/css">
	@import url('../estilo.css');
 </style>
 <defs>
  <circle id="gpPt5" stroke-width=".222" cy="0" stroke="currentColor" cx="0" r="1"/>
  <use id="gpPt6" xlink:href="#gpPt5" fill="currentColor"/>
 </defs>
 <metadata id="metadata7637">
  <rdf:RDF>
   <cc:Work rdf:about="">
    <dc:format>image/svg+xml</dc:format>
    <dc:type rdf:resource="http://purl.org/dc/dcmitype/StillImage"/>
    <dc:title>Gnuplot</dc:title>
   </cc:Work>
  </rdf:RDF>
 </metadata>
 <title id="title7501">Gnuplot</title>
 <desc id="desc7503">Produced by GNUPLOT 5.0 patchlevel 3</desc>
 <g id="gnuplot_canvas">
  <g fill="none">
   <rect id="rect7506" height="375" width="500" y="0" x="0"/>
   <g stroke="currentColor">
    <g id="g7538" color="black">
     <path id="path7540" stroke="#000" d="m37.3 187.6"/>
     <g id="g7542" font-size="16" transform="translate(31 193.6)" text-anchor="end" stroke="none" font-family="Stix Two Text" fill="#000">
      <text id="text7544">
       <tspan id="tspan7546" font-family="Stix Two Text">0</tspan>
      </text>
     </g>
    </g>
    <g id="g7552" color="black" stroke-width=".5">
     <g id="g7554" stroke="none" shape-rendering="crispEdges">
      <polygon id="polygon7556" points="466.6 187.6 465.1 185 475 187.6 465.1 190.2" fill="#000"/>
     </g>
     <path id="path7558" stroke="#000" d="m466.6 187.6l-1.5-2.6 9.9 2.6-9.9 2.6 1.5-2.6m-429.3 0h429.3"/>
    </g>
    <g id="g7560" color="black" stroke-width=".5">
     <g id="g7562" stroke="none" shape-rendering="crispEdges">
      <polygon id="polygon7564" points="37.3 31.8 34.7 33.3 37.3 23.4 39.9 33.3" fill="#000"/>
     </g>
     <path id="path7566" stroke="#000" d="m37.3 31.8l-2.6 1.5 2.6-9.9 2.6 9.9-2.6-1.5m0 319.9v-319.9"/>
    </g>
    <g>
     <g id="g7570" color="black">
      <path id="path7572" stroke="#000" stroke-dasharray="2.5,4.0" d="m92 187.6v109.4"/>
     </g>
     <g id="g7574" color="black">
      <path id="path7576" stroke="#000" stroke-dasharray="2.5,4.0" d="m37.3 297h54.7"/>
     </g>
     <g id="g7578" color="black">
      <g id="g7580" font-size="16" transform="translate(24.1,32.8)" text-anchor="middle" stroke="none" font-family="Stix Two Text" fill="#000">
       <text id="text7582">
        <tspan id="tspan7584" font-family="Stix Two Text" font-weight="bold" font-style="italic">E</tspan>
       </text>
      </g>
     </g>
     <g id="g7586" color="black">
      <g id="g7588" font-size="16" transform="translate(470.5,201.6)" text-anchor="middle" stroke="none" font-family="Stix Two Text" fill="#000">
       <text id="text7590">
        <tspan id="tspan7592" font-family="Stix Two Text" font-weight="bold" font-style="italic">r</tspan>
       </text>
      </g>
     </g>
    </g>
   </g>
  </g>
  <g id="gnuplot_plot_1">
   <title id="title7597"/>
   <g id="g7601" color="black" stroke="currentColor" stroke-width="1.5" fill="none">
    <path id="path7603" stroke="#e51e10" d="m58.6 23.4l1.4 55.4 2 57.7 2.1 41.9 2.1 30.9 2 23 2.1 17.3 2.1 13 2 9.8 2.1 7.4 2 5.5 2.1 4.1 2.1 2.9 2 2.1 2.1 1.4 2.1 0.8 2 0.3 2.1 0.1 2-0.3 2.1-0.5 2.1-0.7 2-0.8 2.1-0.9 2-1 2.1-1.1 2.1-1.1 2-1.2 2.1-1.2 2.1-1.2 2-1.2 2.1-1.2 2-1.2 2.1-1.3 2.1-1.2 2-1.2 2.1-1.1 2.1-1.2 2-1.2 2.1-1.1 2-1.1 2.1-1.1 2.1-1.1 2-1.1 2.1-1 2-1 2.1-1 2.1-1 2-1 2.1-0.9 2.1-1 2-0.9 2.1-0.9 2-0.8 2.1-0.9 2.1-0.8 2-0.8 2.1-0.8 2.1-0.8 2-0.8 2.1-0.8 2-0.7 2.1-0.7 2.1-0.8 2-0.7 2.1-0.6 2.1-0.7 2-0.7 2.1-0.6 2-0.7 2.1-0.6 2.1-0.6 2-0.6 2.1-0.6 2-0.6 2.1-0.5 2.1-0.6 2-0.5 2.1-0.6 2.1-0.5 2-0.5 2.1-0.5 2-0.5 2.1-0.5 2.1-0.5 2-0.5 2.1-0.5 2.1-0.4 2-0.5 2.1-0.4 2-0.5 2.1-0.4 2.1-0.4 2-0.4 2.1-0.4 2.1-0.4 2-0.4 2.1-0.4 2-0.4 2.1-0.4 2.1-0.4 2-0.3 2.1-0.4 2-0.3 2.1-0.4 2.1-0.3 2-0.4 2.1-0.3 2.1-0.3 2-0.4 2.1-0.3 2-0.3 2.1-0.3 2.1-0.3 2-0.3 2.1-0.3 2.1-0.3 2-0.3 2.1-0.3 2-0.3 2.1-0.3 2.1-0.2 2-0.3 2.1-0.3 2-0.2 2.1-0.3 2.1-0.3 2-0.2 2.1-0.3 2.1-0.2 2-0.3 2.1-0.2 2-0.2 2.1-0.3 2.1-0.2 2-0.2 2.1-0.3 2.1-0.2 2-0.2 2.1-0.2 2-0.2 2.1-0.3 2.1-0.2 2-0.2 2.1-0.2 2.1-0.2 2-0.2 2.1-0.2 2-0.2 2.1-0.2 2.1-0.2 2-0.2 2.1-0.2 2-0.1 2.1-0.2 2.1-0.2 2-0.2 2.1-0.2 2.1-0.1 2-0.2 2.1-0.2 2-0.2 2.1-0.1 2.1-0.2 2-0.2 2.1-0.1 2.1-0.2 2-0.1 2.1-0.2 2-0.2 2.1-0.1 2.1-0.2 2-0.1 2.1-0.2 2.1-0.1 2-0.2 2.1-0.1 2-0.2 2.1-0.1 2.1-0.1 2-0.2 2.1-0.1 2-0.2 2.1-0.1 2.1-0.1 2-0.2 2.1-0.1 2.1-0.1 2-0.2 2.1-0.1 2-0.1"/>
   </g>
  </g>
  <g stroke="currentColor" fill="none">
   <g id="g7607" color="black" stroke-width="2">
    <g id="g7609" font-size="12" transform="translate(96.5 297)" stroke="none" font-family="Arial" fill="#000">
     <text id="text7611"/>
    </g>
   </g>
   <g>
    <g id="g7615" color="black">
     <use id="use7617" color="rgb(240, 228,  66)" xlink:href="#gpPt6" transform="translate(92 297) scale(2.25)"/>
    </g>
    <g id="g7619" color="black">
     <g id="g7621" font-size="12" transform="translate(96.5 297)" stroke="none" font-family="Arial" fill="#000">
      <text id="text7623"/>
     </g>
    </g>
    <g id="g7625" color="black">
     <use id="use7627" color="black" xlink:href="#gpPt5" transform="translate(92 297) scale(2.25)"/>
    </g>
   </g>
  </g>
 </g>
 <g stroke-width="0" fill-rule="evenodd" stroke="#000" stroke-miterlimit="10.433">
  <g id="g5131" xml:space="preserve" ns0:pdfconverter="pstoedit" transform="matrix(1.75 0 0 -1.75 -174.94 1418.9)" ns0:text="$r_0$" ns0:version="0.7.2" ns0:inkscapeversion="0.91" ns0:preamble="/usr/share/inkscape/extensions/default_packages.tex" ns0:scale="1.4" ns0:texconverter="pdflatex"><path id="path5133" d="m149.91 707.12 0.05 0.16 0.05 0.15 0.04 0.14 0.04 0.13 0.05 0.13 0.03 0.12 0.04 0.12 0.04 0.11 0.03 0.11 0.04 0.1 0.03 0.1 0.03 0.09 0.04 0.09 0.03 0.08 0.03 0.08 0.03 0.08 0.03 0.08 0.03 0.07 0.06 0.14 0.07 0.14 0.06 0.13 0.07 0.13 0.07 0.13 0.08 0.13 0.04 0.07 0.04 0.07c0.33 0.56 0.61 0.87 0.78 0.87 0.06 0 0.11-0.04 0.16-0.14 0.08-0.17 0.16-0.22 0.36-0.22 0.29 0 0.46 0.18 0.46 0.49s-0.2 0.52-0.47 0.52c-0.23 0-0.5-0.15-0.76-0.42-0.41-0.42-0.81-1.01-0.97-1.41l-0.14-0.36 0.53 2.17-0.03 0.02c-0.73-0.13-0.82-0.15-1.54-0.27v-0.17c0.24 0.05 0.27 0.05 0.34 0.05 0.21 0 0.34-0.1 0.34-0.28 0-0.14 0-0.14-0.16-0.82l-0.8-2.91z"/><path id="path5135" d="m154.36 710.34h-0.04-0.03-0.04-0.03-0.03l-0.04-0.01h-0.03l-0.03-0.01h-0.03l-0.04-0.01-0.03-0.01-0.03-0.01h-0.03l-0.03-0.01-0.03-0.01-0.03-0.02-0.02-0.01-0.03-0.01-0.03-0.01-0.03-0.02-0.03-0.01-0.02-0.02-0.03-0.01-0.03-0.02-0.02-0.02-0.03-0.01-0.02-0.02-0.03-0.02-0.02-0.02-0.03-0.02-0.02-0.03-0.03-0.02c-0.4-0.39-0.66-1.19-0.66-2.01 0-0.76 0.23-1.57 0.55-1.96 0.26-0.31 0.62-0.48 1.02-0.48v0.18c-0.6 0-0.91 0.75-0.91 2.2 0 1.48 0.32 2.25 0.92 2.25 0.58 0 0.9-0.78 0.9-2.24s-0.31-2.21-0.91-2.21v-0.18c0.36 0 0.66 0.12 0.91 0.37 0.4 0.38 0.67 1.19 0.67 2.03 0 1.43-0.64 2.41-1.55 2.41z"/></g>
  <g id="g5315" xml:space="preserve" ns0:pdfconverter="pstoedit" transform="matrix(1.75 0 0 -1.75 -5.1983 1489.8)" ns0:text="$V_{\\text{ef}}(r)$" ns0:version="0.7.2" ns0:inkscapeversion="0.91" ns0:preamble="/usr/share/inkscape/extensions/default_packages.tex" ns0:scale="1.4" ns0:texconverter="pdflatex"><path id="path5317" d="m155.56 713.63h-1.85v-0.16c0.45-0.05 0.63-0.15 0.63-0.34s-0.19-0.62-0.52-1.19l-2.05-3.54-0.66 4.41c-0.01 0.05-0.01 0.09-0.01 0.15 0 0.34 0.14 0.44 0.77 0.51v0.16h-2.4v-0.16c0.55-0.07 0.57-0.1 0.78-1.35l0.85-5.18h0.19l3.72 6.13c0.17 0.27 0.33 0.39 0.55 0.4z"/><path id="path5319" d="m157.65 706.77-0.04-0.04-0.03-0.05-0.03-0.05-0.03-0.04-0.03-0.04-0.03-0.04-0.03-0.04-0.03-0.03-0.03-0.04-0.03-0.03-0.03-0.03-0.04-0.03-0.03-0.03-0.03-0.02-0.03-0.03-0.03-0.02-0.04-0.02-0.03-0.02-0.03-0.02-0.04-0.02-0.03-0.01-0.03-0.02-0.04-0.01-0.04-0.01-0.03-0.01-0.04-0.01h-0.04l-0.03-0.01h-0.04l-0.04-0.01h-0.04-0.05c-0.39 0-0.69 0.2-0.9 0.6-0.12 0.27-0.17 0.5-0.18 0.92l0.01 0.22c0.08 0.55 0.31 0.81 0.74 0.81 0.42 0 0.59-0.2 0.68-0.81h-1.42l-0.01-0.22h2.14c-0.05 0.46-0.12 0.66-0.3 0.88-0.2 0.25-0.53 0.4-0.89 0.4-0.35 0-0.67-0.13-0.94-0.37-0.33-0.28-0.52-0.78-0.52-1.35 0-0.96 0.51-1.56 1.31-1.56 0.66 0 1.18 0.41 1.48 1.16z"/><path id="path5321" d="m160.05 708.77h-0.85v0.81c0 0.4 0.13 0.62 0.39 0.62 0.15 0 0.25-0.07 0.37-0.27 0.11-0.19 0.2-0.26 0.32-0.26 0.16 0 0.29 0.13 0.29 0.29 0 0.25-0.31 0.43-0.73 0.43-0.43 0-0.8-0.18-0.98-0.51-0.18-0.3-0.24-0.55-0.24-1.11h-0.58v-0.23h0.58v-2.19c0-0.5-0.08-0.59-0.58-0.62v-0.1h1.81v0.1c-0.57 0.03-0.65 0.1-0.65 0.62v2.19h0.85z"/><path id="path5323" d="m163.66 713.86-0.07-0.05-0.07-0.04-0.06-0.04-0.06-0.04-0.06-0.04-0.06-0.04-0.05-0.04-0.05-0.04-0.05-0.03-0.05-0.04-0.05-0.04-0.05-0.03-0.04-0.04-0.04-0.03-0.08-0.07-0.08-0.07-0.08-0.06-0.07-0.07-0.07-0.08-0.06-0.07-0.07-0.07-0.07-0.08-0.07-0.09c-0.71-0.87-1.05-1.86-1.05-3.03 0-1.26 0.36-2.24 1.24-3.25 0.41-0.48 0.67-0.7 1.19-1.02l0.12 0.16c-0.8 0.63-1.08 0.97-1.35 1.72-0.24 0.67-0.35 1.43-0.35 2.42 0 1.05 0.13 1.87 0.4 2.48 0.28 0.62 0.58 0.98 1.3 1.56z"/><path id="path5325" d="m165.24 707.12 0.05 0.16 0.04 0.15 0.05 0.14 0.04 0.13 0.04 0.13 0.04 0.12 0.03 0.12 0.04 0.11 0.04 0.11 0.03 0.1 0.03 0.1 0.04 0.09 0.03 0.09 0.03 0.08 0.03 0.08 0.03 0.08 0.03 0.08 0.03 0.07 0.07 0.14 0.06 0.14 0.06 0.13 0.07 0.13 0.07 0.13 0.08 0.13 0.04 0.07 0.04 0.07c0.33 0.56 0.61 0.87 0.78 0.87 0.06 0 0.11-0.04 0.16-0.14 0.08-0.17 0.16-0.22 0.36-0.22 0.29 0 0.46 0.18 0.46 0.49s-0.19 0.52-0.47 0.52c-0.23 0-0.5-0.15-0.76-0.42-0.41-0.42-0.81-1.01-0.96-1.41l-0.14-0.36 0.52 2.17-0.03 0.02c-0.72-0.13-0.81-0.15-1.54-0.27v-0.17c0.24 0.05 0.27 0.05 0.34 0.05 0.22 0 0.35-0.1 0.35-0.28 0-0.14 0-0.14-0.16-0.82l-0.81-2.91z"/><path id="path5327" d="m168.51 705.36 0.07 0.04 0.07 0.05 0.06 0.04 0.06 0.04 0.06 0.04 0.06 0.04 0.05 0.04 0.05 0.03 0.05 0.04 0.05 0.04 0.05 0.03 0.05 0.04 0.04 0.03 0.04 0.04 0.08 0.06 0.08 0.07 0.08 0.07 0.07 0.07 0.07 0.07 0.06 0.08 0.07 0.07 0.07 0.08 0.07 0.08c0.71 0.87 1.05 1.87 1.05 3.03 0 1.28-0.36 2.25-1.24 3.26-0.41 0.48-0.67 0.7-1.19 1.02l-0.12-0.16c0.8-0.63 1.07-0.98 1.35-1.73 0.24-0.66 0.35-1.42 0.35-2.42 0-1.03-0.13-1.86-0.4-2.47-0.28-0.62-0.58-0.98-1.3-1.56z"/></g>
  <g id="content" xml:space="preserve" ns0:pdfconverter="pstoedit" transform="matrix(1.75 0 0 -1.75 -184.98 1553.8)" ns0:text="$V_{\\text{ef}}(r_0)$" ns0:version="0.7.2" ns0:inkscapeversion="0.91" ns0:preamble="/usr/share/inkscape/extensions/default_packages.tex" ns0:scale="1.4" ns0:texconverter="pdflatex"><path id="path7005" d="m155.56 713.63h-1.85v-0.16c0.45-0.05 0.63-0.15 0.63-0.34s-0.19-0.62-0.52-1.19l-2.05-3.54-0.66 4.41c-0.01 0.05-0.01 0.09-0.01 0.15 0 0.34 0.14 0.44 0.77 0.51v0.16h-2.4v-0.16c0.55-0.07 0.57-0.1 0.78-1.35l0.85-5.18h0.19l3.72 6.13c0.17 0.27 0.33 0.39 0.55 0.4z"/><path id="path7007" d="m157.65 706.77-0.04-0.04-0.03-0.05-0.03-0.05-0.03-0.04-0.03-0.04-0.03-0.04-0.03-0.04-0.03-0.03-0.03-0.04-0.03-0.03-0.03-0.03-0.04-0.03-0.03-0.03-0.03-0.02-0.03-0.03-0.03-0.02-0.04-0.02-0.03-0.02-0.03-0.02-0.04-0.02-0.03-0.01-0.03-0.02-0.04-0.01-0.04-0.01-0.03-0.01-0.04-0.01h-0.04l-0.03-0.01h-0.04l-0.04-0.01h-0.04-0.05c-0.39 0-0.69 0.2-0.9 0.6-0.12 0.27-0.17 0.5-0.18 0.92l0.01 0.22c0.08 0.55 0.31 0.81 0.74 0.81 0.42 0 0.59-0.2 0.68-0.81h-1.42l-0.01-0.22h2.14c-0.05 0.46-0.12 0.66-0.3 0.88-0.2 0.25-0.53 0.4-0.89 0.4-0.35 0-0.67-0.13-0.94-0.37-0.33-0.28-0.52-0.78-0.52-1.35 0-0.96 0.51-1.56 1.31-1.56 0.66 0 1.18 0.41 1.48 1.16z"/><path id="path7009" d="m160.05 708.77h-0.85v0.81c0 0.4 0.13 0.62 0.39 0.62 0.15 0 0.25-0.07 0.37-0.27 0.11-0.19 0.2-0.26 0.32-0.26 0.16 0 0.29 0.13 0.29 0.29 0 0.25-0.31 0.43-0.73 0.43-0.43 0-0.8-0.18-0.98-0.51-0.18-0.3-0.24-0.55-0.24-1.11h-0.58v-0.23h0.58v-2.19c0-0.5-0.08-0.59-0.58-0.62v-0.1h1.81v0.1c-0.57 0.03-0.65 0.1-0.65 0.62v2.19h0.85z"/><path id="path7011" d="m163.66 713.86-0.07-0.05-0.07-0.04-0.06-0.04-0.06-0.04-0.06-0.04-0.06-0.04-0.05-0.04-0.05-0.04-0.05-0.03-0.05-0.04-0.05-0.04-0.05-0.03-0.04-0.04-0.04-0.03-0.08-0.07-0.08-0.07-0.08-0.06-0.07-0.07-0.07-0.08-0.06-0.07-0.07-0.07-0.07-0.08-0.07-0.09c-0.71-0.87-1.05-1.86-1.05-3.03 0-1.26 0.36-2.24 1.24-3.25 0.41-0.48 0.67-0.7 1.19-1.02l0.12 0.16c-0.8 0.63-1.08 0.97-1.35 1.72-0.24 0.67-0.35 1.43-0.35 2.42 0 1.05 0.13 1.87 0.4 2.48 0.28 0.62 0.58 0.98 1.3 1.56z"/><path id="path7013" d="m165.24 707.12 0.05 0.16 0.04 0.15 0.05 0.14 0.04 0.13 0.04 0.13 0.04 0.12 0.03 0.12 0.04 0.11 0.04 0.11 0.03 0.1 0.03 0.1 0.04 0.09 0.03 0.09 0.03 0.08 0.03 0.08 0.03 0.08 0.03 0.08 0.03 0.07 0.07 0.14 0.06 0.14 0.06 0.13 0.07 0.13 0.07 0.13 0.08 0.13 0.04 0.07 0.04 0.07c0.33 0.56 0.61 0.87 0.78 0.87 0.06 0 0.11-0.04 0.16-0.14 0.08-0.17 0.16-0.22 0.36-0.22 0.29 0 0.46 0.18 0.46 0.49s-0.19 0.52-0.47 0.52c-0.23 0-0.5-0.15-0.76-0.42-0.41-0.42-0.81-1.01-0.96-1.41l-0.14-0.36 0.52 2.17-0.03 0.02c-0.72-0.13-0.81-0.15-1.54-0.27v-0.17c0.24 0.05 0.27 0.05 0.34 0.05 0.22 0 0.35-0.1 0.35-0.28 0-0.14 0-0.14-0.16-0.82l-0.81-2.91z"/><path id="path7015" d="m169.68 710.34h-0.03-0.04-0.03-0.04-0.03l-0.04-0.01h-0.03l-0.03-0.01h-0.03l-0.03-0.01-0.03-0.01-0.03-0.01h-0.03l-0.03-0.01-0.03-0.01-0.03-0.02-0.03-0.01-0.03-0.01-0.03-0.01-0.03-0.02-0.02-0.01-0.03-0.02-0.03-0.01-0.02-0.02-0.03-0.02-0.02-0.01-0.03-0.02-0.02-0.02-0.03-0.02-0.02-0.02-0.03-0.03-0.02-0.02c-0.41-0.39-0.67-1.19-0.67-2.01 0-0.76 0.23-1.57 0.55-1.96 0.26-0.31 0.62-0.48 1.02-0.48v0.18c-0.6 0-0.9 0.75-0.9 2.2 0 1.48 0.31 2.25 0.91 2.25 0.59 0 0.9-0.78 0.9-2.24s-0.31-2.21-0.91-2.21v-0.18c0.36 0 0.66 0.12 0.91 0.37 0.4 0.38 0.67 1.19 0.67 2.03 0 1.43-0.63 2.41-1.55 2.41z"/><path id="path7017" d="m172.27 705.36 0.07 0.04 0.06 0.05 0.07 0.04 0.06 0.04 0.06 0.04 0.05 0.04 0.06 0.04 0.05 0.03 0.05 0.04 0.05 0.04 0.05 0.03 0.04 0.04 0.05 0.03 0.04 0.04 0.08 0.06 0.08 0.07 0.07 0.07 0.08 0.07 0.06 0.07 0.07 0.08 0.07 0.07 0.07 0.08 0.07 0.08c0.7 0.87 1.05 1.87 1.05 3.03 0 1.28-0.37 2.25-1.24 3.26-0.41 0.48-0.67 0.7-1.19 1.02l-0.12-0.16c0.8-0.63 1.07-0.98 1.35-1.73 0.23-0.66 0.35-1.42 0.35-2.42 0-1.03-0.13-1.86-0.4-2.47-0.28-0.62-0.58-0.98-1.3-1.56z"/></g>
  <g id="g7215" xml:space="preserve" ns0:pdfconverter="pstoedit" transform="matrix(1.75 0 0 -1.75 -246.99 1538.5)" ns0:text="$E_0$" ns0:version="0.7.2" ns0:inkscapeversion="0.91" ns0:preamble="/usr/share/inkscape/extensions/default_packages.tex" ns0:scale="1.4" ns0:texconverter="pdflatex"><path id="path7217" d="m155.27 713.63h-4.95v-0.16c0.62-0.06 0.77-0.14 0.77-0.41 0-0.11-0.06-0.46-0.11-0.64l-1.22-4.4c-0.17-0.57-0.25-0.64-0.81-0.74v-0.16h5.05l0.62 1.62-0.16 0.08c-0.47-0.64-0.73-0.9-1.16-1.1-0.37-0.17-1.04-0.27-1.79-0.27-0.56 0-0.8 0.1-0.8 0.34 0 0.11 0.11 0.58 0.36 1.45 0.13 0.44 0.22 0.77 0.32 1.15 0.35-0.02 0.66-0.03 0.77-0.03 0.39 0.01 0.67-0.05 0.78-0.15 0.05-0.05 0.07-0.14 0.07-0.31s-0.02-0.3-0.07-0.52l0.2-0.05 0.68 2.32-0.18 0.03c-0.38-0.84-0.47-0.9-1.38-0.94-0.11 0-0.43-0.01-0.78-0.02l0.66 2.32c0.06 0.22 0.16 0.26 0.72 0.26 1.57 0 1.92-0.13 1.92-0.73 0-0.13-0.01-0.28-0.02-0.45l0.2-0.02z"/><path id="path7219" d="m157.07 710.34h-0.04-0.03-0.04-0.03-0.04l-0.03-0.01h-0.03l-0.04-0.01h-0.03l-0.03-0.01-0.03-0.01-0.03-0.01h-0.03l-0.03-0.01-0.03-0.01-0.03-0.02-0.03-0.01-0.02-0.01-0.03-0.01-0.03-0.02-0.03-0.01-0.02-0.02-0.03-0.01-0.03-0.02-0.02-0.02-0.03-0.01-0.02-0.02-0.03-0.02-0.02-0.02-0.03-0.02-0.02-0.03-0.03-0.02c-0.4-0.39-0.67-1.19-0.67-2.01 0-0.76 0.23-1.57 0.56-1.96 0.26-0.31 0.61-0.48 1.02-0.48v0.18c-0.6 0-0.91 0.75-0.91 2.2 0 1.48 0.32 2.25 0.91 2.25s0.91-0.78 0.91-2.24-0.31-2.21-0.91-2.21v-0.18c0.35 0 0.65 0.12 0.91 0.37 0.4 0.38 0.67 1.19 0.67 2.03 0 1.43-0.64 2.41-1.55 2.41z"/></g>
 </g>
</svg>
