<?xml version="1.0" encoding="UTF-8" standalone="no"?>
<svg id="svg5498" xmlns:rdf="http://www.w3.org/1999/02/22-rdf-syntax-ns#" xmlns="http://www.w3.org/2000/svg" xmlns:ns0="http://www.iki.fi/pav/software/textext/" height="300" width="300" version="1.1" xmlns:cc="http://creativecommons.org/ns#" xmlns:xlink="http://www.w3.org/1999/xlink" viewBox="0 0 300 300" xmlns:dc="http://purl.org/dc/elements/1.1/">
 <style type="text/css">
	 @import url('../estilo.css');
 </style>
 <defs>
  <path id="gpPt2" stroke="currentColor" stroke-width=".222" d="m-1 0h2m-1-1v2m-1-2l2 2m-2 0l2-2"/>
 </defs>
 <metadata id="metadata5596">
  <rdf:RDF>
   <cc:Work rdf:about="">
    <dc:format>image/svg+xml</dc:format>
    <dc:type rdf:resource="http://purl.org/dc/dcmitype/StillImage"/>
    <dc:title>Gnuplot</dc:title>
   </cc:Work>
  </rdf:RDF>
 </metadata>
 <title id="title5500">Gnuplot</title>
 <desc id="desc5502">Produced by GNUPLOT 5.0 patchlevel 3</desc>
 <g id="gnuplot_canvas">
  <g fill="none">
   <rect id="rect5505" height="300" width="300" y="0" x="0"/>
   <g stroke="currentColor">
    <g id="g5537" color="black">
     <g id="g5539" font-size="16" transform="translate(144.1 165)" text-anchor="end" stroke="none" font-family="Stix Two Text" fill="#000">
      <text id="text5541">
       <tspan id="tspan5543" font-family="Stix Two Text" font-style="italic">O</tspan>
      </text>
     </g>
    </g>
    <g id="g5545" color="black">
     <use id="use5547" color="black" xlink:href="#gpPt2" transform="translate(147.9 150) scale(3.38)"/>
    </g>
    <g id="g5551" color="black">
     <path id="path5553" stroke="#000" stroke-dasharray="1.0,2.0" d="m147.9 150h127.1"/>
    </g>
    <g id="g5555" color="black">
     <path id="path5557" stroke="#000" stroke-dasharray="1.0,2.0" d="m147.9 150v-42.3"/>
    </g>
   </g>
  </g>
  <g id="gnuplot_plot_1">
   <title id="title5562"/>
   <g id="g5564" color="gray" stroke="currentColor" fill="none">
    <path id="path5566" stroke="gray" stroke-dasharray="2,4" d="m190.2 150l-0.1-2.6-0.2-2.7-0.4-2.7-0.6-2.6-0.8-2.6-0.9-2.5-1.1-2.5-1.2-2.4-1.4-2.3-1.5-2.2-1.7-2.1-1.8-2-1.9-1.9-2-1.7-2.2-1.7-2.2-1.5-2.3-1.3-2.4-1.2-2.5-1-2.6-0.9-2.6-0.7-2.6-0.6-2.7-0.4-2.6-0.2h-2.7l-2.7 0.1-2.7 0.3-2.6 0.5-2.6 0.6-2.6 0.8-2.5 1-2.5 1.1-2.3 1.2-2.3 1.5-2.2 1.5-2.1 1.7-2 1.8-1.8 2-1.8 2.1-1.6 2.1-1.4 2.3-1.3 2.3-1.2 2.5-1 2.5-0.8 2.5-0.7 2.6-0.5 2.7-0.3 2.6-0.2 2.7v2.7l0.2 2.7 0.3 2.6 0.5 2.7 0.7 2.6 0.8 2.5 1 2.5 1.2 2.5 1.3 2.3 1.4 2.3 1.6 2.1 1.8 2.1 1.8 2 2 1.8 2.1 1.7 2.2 1.5 2.3 1.5 2.3 1.2 2.5 1.1 2.5 1 2.6 0.8 2.6 0.6 2.6 0.5 2.7 0.3 2.7 0.1h2.7l2.6-0.2 2.7-0.4 2.6-0.6 2.6-0.7 2.6-0.9 2.5-1 2.4-1.2 2.3-1.3 2.2-1.5 2.2-1.7 2-1.7 1.9-1.9 1.8-2 1.7-2.1 1.5-2.2 1.4-2.3 1.2-2.4 1.1-2.5 0.9-2.5 0.8-2.6 0.6-2.6 0.4-2.7 0.2-2.7 0.1-2.6"/>
   </g>
  </g>
  <g id="gnuplot_plot_2">
   <title id="title5569"/>
   <g id="g5571" color="gray" stroke="currentColor" fill="none">
    <path id="path5573" stroke="gray" stroke-dasharray="2,4" d="m275 150l-0.3-8-0.7-8-1.3-8-1.8-7.9-2.2-7.7-2.8-7.6-3.2-7.4-3.7-7.2-4.2-6.9-4.6-6.6-4.9-6.4-5.4-6-5.8-5.7-6.1-5.2-6.4-4.9-6.7-4.5-7-4-7.2-3.6-7.5-3.1-7.6-2.7-7.8-2.1-7.9-1.7-8-1.1-8-0.7-8.1-0.1-8 0.4-8 0.9-8 1.4-7.8 1.9-7.7 2.4-7.6 2.9-7.3 3.3-7.1 3.8-6.9 4.3-6.6 4.7-6.2 5.1-5.9 5.4-5.6 5.9-5.2 6.2-4.8 6.4-4.3 6.8-4 7.1-3.4 7.3-3 7.5-2.5 7.6-2.1 7.8-1.5 8-1 8-0.5 8v8.1l0.5 8 1 8 1.5 8 2.1 7.8 2.5 7.6 3 7.5 3.4 7.3 4 7.1 4.3 6.8 4.8 6.4 5.2 6.2 5.6 5.9 5.9 5.4 6.2 5.1 6.6 4.7 6.9 4.3 7.1 3.8 7.3 3.3 7.6 2.9 7.7 2.4 7.8 1.9 8 1.4 8 0.9 8 0.4 8.1-0.1 8-0.7 8-1.1 7.9-1.7 7.8-2.1 7.6-2.7 7.5-3.1 7.2-3.6 7-4 6.7-4.5 6.4-4.9 6.1-5.2 5.8-5.7 5.4-6 4.9-6.4 4.6-6.6 4.2-6.9 3.7-7.2 3.2-7.4 2.8-7.6 2.2-7.7 1.8-7.9 1.3-8 0.7-8 0.3-8"/>
   </g>
  </g>
  <g id="gnuplot_plot_3">
   <title id="title5576"/>
   <g id="g5580" color="black" stroke="currentColor" stroke-width="1.5" fill="none">
    <path id="path5582" stroke="#0072b2" d="m275 150l-0.5-8-1.5-7.9-2.5-7.7-3.4-7.3-4.2-6.8-4.9-6.3-5.5-5.8-6-5-6.3-4.5-6.6-3.8-6.8-3.1-6.8-2.5-6.9-1.9-6.7-1.4-6.6-0.9-6.4-0.4h-6.2l-6 0.4-5.7 0.7-5.5 1-5.2 1.2-4.9 1.5-4.6 1.7-4.4 1.8-4.1 2-3.8 2.1-3.6 2.2-3.4 2.3-3.1 2.4-2.9 2.4-2.7 2.5-2.6 2.5-2.3 2.6-2.1 2.6-2 2.6-1.8 2.7-1.7 2.6-1.5 2.7-1.3 2.6-1.2 2.7-1.1 2.7-1 2.7-0.8 2.7-0.7 2.7-0.6 2.6-0.4 2.7-0.4 2.7-0.2 2.7-0.1 2.7v2.7l0.1 2.7 0.2 2.7 0.4 2.7 0.4 2.7 0.6 2.6 0.7 2.7 0.8 2.7 1 2.7 1.1 2.7 1.2 2.7 1.3 2.6 1.5 2.7 1.7 2.6 1.8 2.7 2 2.6 2.1 2.6 2.3 2.6 2.6 2.5 2.7 2.5 2.9 2.4 3.1 2.4 3.4 2.3 3.6 2.2 3.8 2.1 4.1 2 4.4 1.8 4.6 1.7 4.9 1.5 5.2 1.2 5.5 1 5.7 0.7 6 0.4h6.2l6.4-0.4 6.6-0.9 6.7-1.4 6.9-1.9 6.8-2.5 6.8-3.1 6.6-3.8 6.3-4.5 6-5 5.5-5.8 4.9-6.3 4.2-6.8 3.4-7.3 2.5-7.7 1.5-7.9 0.5-8"/>
   </g>
  </g>
 </g>
 <g id="g12594" xml:space="preserve" stroke="#000" stroke-width="0" fill-rule="evenodd" ns0:pdfconverter="pstoedit" transform="matrix(1.75 0 0 -1.75 -45.049 1399)" stroke-miterlimit="10.433" ns0:text="$r_3$" ns0:version="0.7.2" ns0:inkscapeversion="0.91" ns0:preamble="/usr/share/inkscape/extensions/default_packages.tex" ns0:scale="1.4" ns0:texconverter="pdflatex"><path id="path12596" d="m149.91 707.12 0.05 0.16 0.05 0.15 0.04 0.14 0.04 0.13 0.05 0.13 0.03 0.12 0.04 0.12 0.04 0.11 0.03 0.11 0.04 0.1 0.03 0.1 0.03 0.09 0.04 0.09 0.03 0.08 0.03 0.08 0.03 0.08 0.03 0.08 0.03 0.07 0.06 0.14 0.07 0.14 0.06 0.13 0.07 0.13 0.07 0.13 0.08 0.13 0.04 0.07 0.04 0.07c0.33 0.56 0.61 0.87 0.78 0.87 0.06 0 0.11-0.04 0.16-0.14 0.08-0.17 0.16-0.22 0.36-0.22 0.29 0 0.46 0.18 0.46 0.49s-0.2 0.52-0.47 0.52c-0.23 0-0.5-0.15-0.76-0.42-0.41-0.42-0.81-1.01-0.97-1.41l-0.14-0.36 0.53 2.17-0.03 0.02c-0.73-0.13-0.82-0.15-1.54-0.27v-0.17c0.24 0.05 0.27 0.05 0.34 0.05 0.21 0 0.34-0.1 0.34-0.28 0-0.14 0-0.14-0.16-0.82l-0.8-2.91z"/><path id="path12598" d="m153.65 707.93h0.04 0.04 0.03 0.04 0.03 0.03 0.03 0.03 0.03 0.02l0.03-0.01h0.02 0.03 0.02 0.02 0.03l0.02-0.01h0.02 0.02 0.01l0.02-0.01h0.02l0.04-0.01h0.03l0.03-0.01 0.03-0.01 0.03-0.02c0.44-0.15 0.71-0.55 0.71-1.03 0-0.58-0.4-1.04-0.92-1.04-0.18 0-0.32 0.05-0.58 0.22-0.21 0.12-0.33 0.17-0.45 0.17-0.16 0-0.26-0.09-0.26-0.24 0-0.24 0.3-0.4 0.79-0.4 0.53 0 1.08 0.18 1.41 0.47s0.51 0.69 0.51 1.16c0 0.35-0.11 0.68-0.31 0.9-0.14 0.15-0.28 0.23-0.58 0.37 0.48 0.32 0.65 0.58 0.65 0.96 0 0.56-0.44 0.95-1.09 0.95-0.34 0-0.65-0.11-0.9-0.34-0.21-0.19-0.32-0.37-0.47-0.78l0.11-0.03c0.28 0.51 0.6 0.74 1.03 0.74 0.46 0 0.77-0.31 0.77-0.75 0-0.25-0.1-0.5-0.28-0.68-0.21-0.21-0.4-0.31-0.88-0.48z"/></g>
 <g id="g12388" xml:space="preserve" stroke="#000" stroke-width="0" fill-rule="evenodd" ns0:pdfconverter="pstoedit" transform="matrix(1.75 0 0 -1.75 -129.05 1369.4)" stroke-miterlimit="10.433" ns0:text="$r_2$" ns0:version="0.7.2" ns0:inkscapeversion="0.91" ns0:preamble="/usr/share/inkscape/extensions/default_packages.tex" ns0:scale="1.4" ns0:texconverter="pdflatex"><path id="path12390" d="m149.91 707.12 0.05 0.16 0.05 0.15 0.04 0.14 0.04 0.13 0.05 0.13 0.03 0.12 0.04 0.12 0.04 0.11 0.03 0.11 0.04 0.1 0.03 0.1 0.03 0.09 0.04 0.09 0.03 0.08 0.03 0.08 0.03 0.08 0.03 0.08 0.03 0.07 0.06 0.14 0.07 0.14 0.06 0.13 0.07 0.13 0.07 0.13 0.08 0.13 0.04 0.07 0.04 0.07c0.33 0.56 0.61 0.87 0.78 0.87 0.06 0 0.11-0.04 0.16-0.14 0.08-0.17 0.16-0.22 0.36-0.22 0.29 0 0.46 0.18 0.46 0.49s-0.2 0.52-0.47 0.52c-0.23 0-0.5-0.15-0.76-0.42-0.41-0.42-0.81-1.01-0.97-1.41l-0.14-0.36 0.53 2.17-0.03 0.02c-0.73-0.13-0.82-0.15-1.54-0.27v-0.17c0.24 0.05 0.27 0.05 0.34 0.05 0.21 0 0.34-0.1 0.34-0.28 0-0.14 0-0.14-0.16-0.82l-0.8-2.91z"/><path id="path12392" d="m155.9 706.59-0.09 0.03c-0.26-0.4-0.35-0.46-0.66-0.46h-1.67l1.17 1.23c0.62 0.65 0.89 1.18 0.89 1.72 0 0.7-0.56 1.23-1.29 1.23-0.38 0-0.74-0.15-1-0.43-0.22-0.24-0.33-0.46-0.45-0.95l0.15-0.04c0.28 0.68 0.53 0.91 1.01 0.91 0.59 0 0.99-0.4 0.99-0.99 0-0.54-0.33-1.19-0.91-1.81l-1.24-1.32v-0.08h2.72z"/></g>
</svg>
