<?xml version="1.0" encoding="UTF-8" standalone="no"?>
<svg id="svg8307" xmlns:rdf="http://www.w3.org/1999/02/22-rdf-syntax-ns#" xmlns="http://www.w3.org/2000/svg" xmlns:ns0="http://www.iki.fi/pav/software/textext/" height="250" width="500" version="1.1" xmlns:cc="http://creativecommons.org/ns#" xmlns:xlink="http://www.w3.org/1999/xlink" viewBox="0 0 500 250" xmlns:dc="http://purl.org/dc/elements/1.1/">
 <style type="text/css">
	 @import url('../estilo.css');
 </style>
 <defs>
  <circle id="gpPt5" stroke-width=".222" cy="0" stroke="currentColor" cx="0" r="1"/>
  <use id="gpPt6" xlink:href="#gpPt5" fill="currentColor"/>
 </defs>
 <metadata id="metadata8469">
  <rdf:RDF>
   <cc:Work rdf:about="">
    <dc:format>image/svg+xml</dc:format>
    <dc:type rdf:resource="http://purl.org/dc/dcmitype/StillImage"/>
    <dc:title>Gnuplot</dc:title>
   </cc:Work>
  </rdf:RDF>
 </metadata>
 <title id="title8309">Gnuplot</title>
 <desc id="desc8311">Produced by GNUPLOT 5.0 patchlevel 3</desc>
 <g id="gnuplot_canvas">
  <g fill="none">
   <rect id="rect8314" height="250" width="500" y="0" x="0"/>
   <g stroke="currentColor">
    <g id="g8346" color="black">
     <path id="path8348" stroke="#000" d="m37.3 225"/>
     <g id="g8350" font-size="16" transform="translate(31 231)" text-anchor="end" stroke="none" font-family="Stix Two Text" fill="#000">
      <text id="text8352">
       <tspan id="tspan8354" font-family="Stix Two Text">0</tspan>
      </text>
     </g>
    </g>
    <g id="g8360" color="black" stroke-width=".5">
     <g id="g8362" stroke="none" shape-rendering="crispEdges">
      <polygon id="polygon8364" points="466.6 225 465.1 222.4 475 225 465.1 227.6" fill="#000"/>
     </g>
     <path id="path8366" stroke="#000" d="m466.6 225l-1.5-2.6 9.9 2.6-9.9 2.6 1.5-2.6m-429.3 0h429.3"/>
    </g>
    <g id="g8368" color="black" stroke-width=".5">
     <g id="g8370" stroke="none" shape-rendering="crispEdges">
      <polygon id="polygon8372" points="37.3 28.2 34.7 29.7 37.3 19.8 39.9 29.7" fill="#000"/>
     </g>
     <path id="path8374" stroke="#000" d="m37.3 28.2l-2.6 1.5 2.6-9.9 2.6 9.9-2.6-1.5m0 210.5v-210.5"/>
    </g>
    <g>
     <g id="g8378" color="black">
      <path id="path8380" stroke="#000" stroke-dasharray="2.5,4.0" d="m37.3 88.2h437.7"/>
     </g>
     <g id="g8382" color="black">
      <path id="path8384" stroke="#000" stroke-dasharray="2.5,4.0" d="m146.7 225v-136.8"/>
     </g>
     <g id="g8386" color="black">
      <g id="g8388" stroke="none" fill="gray" shape-rendering="crispEdges">
       <polygon id="polygon8390" points="365.6 97.8 362.1 97.8 365.6 88.2 369.1 97.8"/>
       <polygon id="polygon8392" points="365.6 175.9 369.1 175.9 365.6 185.5 362.1 175.9"/>
      </g>
      <path id="path8394" stroke="gray" stroke-dasharray="1.0,2.0" d="m365.6 175.9v-78.1"/>
     </g>
     <g id="g8396" color="black">
      <g id="g8398" font-size="16" transform="translate(24.1,28.1)" text-anchor="middle" stroke="none" font-family="Stix Two Text" fill="#000">
       <text id="text8400">
        <tspan id="tspan8402" font-family="Stix Two Text" font-weight="bold" font-style="italic">E</tspan>
       </text>
      </g>
     </g>
     <g id="g8404" color="black">
      <g id="g8406" font-size="16" transform="translate(470.5,240.3)" text-anchor="middle" stroke="none" font-family="Stix Two Text" fill="#000">
       <text id="text8408">
        <tspan id="tspan8410" font-family="Stix Two Text" font-weight="bold" font-style="italic">r</tspan>
       </text>
      </g>
     </g>
    </g>
   </g>
  </g>
  <g id="gnuplot_plot_1">
   <title id="title8415"/>
   <g id="g8417" color="black" stroke="currentColor" fill="none">
    <path id="path8419" stroke="#0072b2" d="m95.7 19.8l3.8 12.6 4.1 12 4.2 10.6 4.1 9.5 4.2 8.4 4.1 7.6 4.1 6.9 4.2 6.3 4.1 5.7 4.2 5.2 4.1 4.8 4.2 4.5 4.1 4.1 4.2 3.8 4.1 3.6 4.1 3.3 4.2 3.1 4.1 2.9 4.2 2.8 4.1 2.5 4.2 2.5 4.1 2.3 4.2 2.1 4.1 2.1 4.2 1.9 4.1 1.9 4.1 1.7 4.2 1.7 4.1 1.6 4.2 1.5 4.1 1.5 4.2 1.4 4.1 1.3 4.2 1.3 4.1 1.2 4.1 1.2 4.2 1.2 4.1 1.1 4.2 1 4.1 1 4.2 1 4.1 0.9 4.2 0.9 4.1 0.9 4.1 0.8 4.2 0.9 4.1 0.8 4.2 0.7 4.1 0.8 4.2 0.7 4.1 0.7 4.2 0.6 4.1 0.7 4.2 0.6 4.1 0.6 4.1 0.6 4.2 0.6 4.1 0.6 4.2 0.5 4.1 0.6 4.2 0.5 4.1 0.5 4.2 0.5 4.1 0.5 4.1 0.4 4.2 0.5 4.1 0.4 4.2 0.5 4.1 0.4 4.2 0.4 4.1 0.4 4.2 0.4 4.1 0.4 4.2 0.4 4.1 0.4 4.1 0.3 4.2 0.4 4.1 0.3 4.2 0.3 4.1 0.4 4.2 0.3 4.1 0.3 4.2 0.3 4.1 0.3 4.1 0.3"/>
   </g>
  </g>
  <g id="gnuplot_plot_2">
   <title id="title8422"/>
   <g id="g8424" color="black" stroke="currentColor" fill="none">
    <path id="path8426" stroke="#009e73" d="m77.4 19.8l1.3 14.5 4.2 33.1 4.1 25.2 4.2 19.6 4.1 15.5 4.2 12.6 4.1 10.2 4.2 8.5 4.1 7.2 4.2 6 4.1 5.1 4.1 4.5 4.2 3.8 4.1 3.4 4.2 2.9 4.1 2.6 4.2 2.3 4.1 2.1 4.2 1.8 4.1 1.6 4.1 1.5 4.2 1.4 4.1 1.2 4.2 1.1 4.1 1 4.2 1 4.1 0.8 4.2 0.8 4.1 0.7 4.2 0.7 4.1 0.6 4.1 0.6 4.2 0.5 4.1 0.5 4.2 0.5 4.1 0.4 4.2 0.4 4.1 0.4 4.2 0.3 4.1 0.4 4.1 0.3 4.2 0.3 4.1 0.3 4.2 0.2 4.1 0.3 4.2 0.2 4.1 0.2 4.2 0.2 4.1 0.2 4.1 0.2 4.2 0.2 4.1 0.2 4.2 0.2 4.1 0.1 4.2 0.2 4.1 0.1 4.2 0.1 4.1 0.2 4.2 0.1 4.1 0.1 4.1 0.1 4.2 0.1 4.1 0.1 4.2 0.1 4.1 0.1 4.2 0.1 4.1 0.1 4.2 0.1 4.1 0.1 4.1 0.1h4.2l4.1 0.1 4.2 0.1 4.1 0.1h4.2l4.1 0.1h4.2l4.1 0.1 4.2 0.1h4.1l4.1 0.1h4.2l4.1 0.1h4.2l4.1 0.1h4.2 4.1l4.2 0.1h4.1l4.1 0.1"/>
   </g>
  </g>
  <g id="gnuplot_plot_3">
   <title id="title8429"/>
   <g id="g8433" color="black" stroke="currentColor" stroke-width="1.5" fill="none">
    <path id="path8435" stroke="#e51e10" d="m116 19.8l0.1 0.3 4.1 12.8 4.1 11.3 4.2 10.1 4.1 9 4.2 8.2 4.1 7.4 4.2 6.8 4.1 6.1 4.2 5.7 4.1 5.2 4.1 4.8 4.2 4.5 4.1 4.1 4.2 3.8 4.1 3.6 4.2 3.4 4.1 3.1 4.2 3 4.1 2.8 4.2 2.6 4.1 2.5 4.1 2.3 4.2 2.2 4.1 2.1 4.2 2 4.1 1.9 4.2 1.8 4.1 1.7 4.2 1.6 4.1 1.6 4.1 1.5 4.2 1.4 4.1 1.4 4.2 1.3 4.1 1.3 4.2 1.2 4.1 1.1 4.2 1.2 4.1 1 4.1 1.1 4.2 1 4.1 0.9 4.2 1 4.1 0.8 4.2 0.9 4.1 0.9 4.2 0.8 4.1 0.7 4.2 0.8 4.1 0.7 4.1 0.7 4.2 0.7 4.1 0.7 4.2 0.7 4.1 0.6 4.2 0.6 4.1 0.6 4.2 0.6 4.1 0.5 4.1 0.6 4.2 0.5 4.1 0.5 4.2 0.5 4.1 0.5 4.2 0.5 4.1 0.5 4.2 0.4 4.1 0.5 4.2 0.4 4.1 0.4 4.1 0.5 4.2 0.4 4.1 0.4 4.2 0.3 4.1 0.4 4.2 0.4 4.1 0.4 4.2 0.3 4.1 0.3 4.1 0.4"/>
   </g>
  </g>
  <g stroke="currentColor" fill="none">
   <g id="g8439" color="black" stroke-width="2">
    <g id="g8441" font-size="12" transform="translate(151.2,88.2)" stroke="none" font-family="Arial" fill="#000">
     <text id="text8443"/>
    </g>
   </g>
   <g>
    <g id="g8447" color="gray">
     <use id="use8449" color="gray" xlink:href="#gpPt6" transform="translate(146.7,88.2) scale(2.25)"/>
    </g>
    <g id="g8451" color="black">
     <g id="g8453" font-size="12" transform="translate(151.2,88.2)" stroke="none" font-family="Arial" fill="#000">
      <text id="text8455"/>
     </g>
    </g>
    <g id="g8457" color="black">
     <use id="use8459" color="black" xlink:href="#gpPt5" transform="translate(146.7,88.2) scale(2.25)"/>
    </g>
   </g>
  </g>
 </g>
 <g fill-rule="evenodd" stroke="#000" stroke-miterlimit="10.433">
  <g id="content" xml:space="preserve" ns0:pdfconverter="pstoedit" transform="matrix(1.75 0 0 -1.75 -193.24 1402.3)" ns0:text="$\\dfrac{L^2}{2mr^2}$" ns0:version="0.7.2" ns0:inkscapeversion="0.91" ns0:preamble="/usr/share/inkscape/extensions/default_packages.tex" ns0:scale="1.4" ns0:texconverter="pdflatex"><path id="path4573" d="m159.4 715.31h-2.72v-0.16c0.62-0.06 0.77-0.14 0.77-0.43 0-0.14-0.04-0.37-0.11-0.62l-1.23-4.4c-0.18-0.58-0.25-0.64-0.81-0.74v-0.16h5.08l0.57 1.79-0.19 0.06c-0.35-0.72-0.62-1.04-1.06-1.26-0.35-0.17-0.76-0.23-1.63-0.23-0.75 0-1 0.08-1 0.34 0 0.07 0.05 0.31 0.1 0.5l1.22 4.41c0.15 0.51 0.41 0.7 1.01 0.74z" stroke-width="0"/><path id="path4575" d="m164.27 713.38-0.09 0.03c-0.26-0.39-0.35-0.45-0.66-0.45h-1.67l1.17 1.22c0.62 0.65 0.89 1.18 0.89 1.73 0 0.69-0.56 1.23-1.29 1.23-0.38 0-0.74-0.15-1-0.43-0.22-0.24-0.33-0.46-0.45-0.96l0.15-0.03c0.28 0.68 0.53 0.9 1.01 0.9 0.59 0 0.99-0.39 0.99-0.98 0-0.54-0.33-1.19-0.91-1.81l-1.24-1.32v-0.09h2.72z" stroke-width="0"/><line id="line4577" stroke-width="0.558" y2="704.62" x2="170.17" y1="704.62" x1="149.91"/><g stroke-width="0"><path id="path4579" d="m154.64 696.49-0.13 0.05c-0.37-0.57-0.5-0.66-0.94-0.66h-2.39l1.68 1.75c0.89 0.93 1.27 1.69 1.27 2.46 0 1-0.8 1.77-1.84 1.77-0.55 0-1.06-0.22-1.43-0.62-0.32-0.34-0.47-0.66-0.64-1.36l0.21-0.05c0.4 0.97 0.75 1.29 1.44 1.29 0.84 0 1.41-0.57 1.41-1.4 0-0.78-0.46-1.71-1.3-2.6l-1.77-1.88v-0.12h3.88z"/><path id="path4581" d="m161.75 696.29-0.01-0.02-0.02-0.03-0.02-0.02-0.02-0.02v-0.01l-0.01-0.01-0.01-0.01-0.01-0.01h-0.01v-0.01l-0.01-0.01-0.01-0.01v-0.01l-0.01-0.01-0.01-0.01-0.01-0.01v-0.01h-0.01v-0.01l-0.01-0.01-0.01-0.01-0.01-0.01v-0.01h-0.01c-0.27-0.36-0.48-0.53-0.63-0.53-0.08 0-0.13 0.06-0.13 0.16 0 0.05 0.04 0.21 0.1 0.45l0.67 2.5c0.02 0.04 0.04 0.22 0.04 0.28 0 0.36-0.25 0.63-0.59 0.63-0.19 0-0.39-0.07-0.63-0.22-0.49-0.32-0.9-0.8-1.58-1.9 0.24 0.76 0.39 1.33 0.39 1.52 0 0.35-0.22 0.6-0.56 0.6-0.61 0-1.31-0.66-2.23-2.11l0.58 2.09-0.03 0.02c-0.56-0.12-0.76-0.16-1.59-0.31v-0.16h0.25c0.26 0 0.39-0.07 0.39-0.22 0-0.11-0.23-1.02-0.59-2.28-0.23-0.82-0.26-0.92-0.39-1.43h0.75c0.48 1.59 0.62 1.96 0.96 2.47 0.56 0.85 1.16 1.41 1.5 1.41 0.13 0 0.2-0.09 0.2-0.25 0-0.09-0.32-1.3-0.95-3.63h0.75c0.4 1.56 0.6 2.05 1.1 2.76 0.49 0.68 0.99 1.12 1.28 1.12 0.11 0 0.2-0.1 0.2-0.21 0-0.05-0.02-0.17-0.07-0.35l-0.58-2.29c-0.09-0.37-0.13-0.56-0.13-0.66 0-0.3 0.14-0.46 0.4-0.46 0.47 0 0.91 0.33 1.43 1.07l0.05 0.07z"/><path id="path4583" d="m163.29 695.12 0.05 0.16 0.04 0.15 0.05 0.14 0.04 0.13 0.04 0.13 0.04 0.12 0.03 0.12 0.04 0.11 0.04 0.11 0.03 0.1 0.03 0.1 0.04 0.09 0.03 0.09 0.03 0.08 0.03 0.08 0.03 0.08 0.03 0.08 0.03 0.07 0.07 0.14 0.06 0.14 0.06 0.13 0.07 0.13 0.07 0.13 0.08 0.13 0.04 0.07 0.04 0.07c0.33 0.56 0.61 0.87 0.78 0.87 0.06 0 0.11-0.04 0.16-0.14 0.08-0.17 0.16-0.22 0.36-0.22 0.29 0 0.46 0.18 0.46 0.49s-0.19 0.52-0.47 0.52c-0.23 0-0.5-0.15-0.76-0.42-0.41-0.42-0.81-1.01-0.97-1.41l-0.13-0.36 0.52 2.17-0.03 0.02c-0.72-0.13-0.81-0.15-1.54-0.27v-0.17c0.24 0.05 0.27 0.05 0.34 0.05 0.22 0 0.35-0.1 0.35-0.28 0-0.14 0-0.14-0.16-0.82l-0.81-2.91z"/><path id="path4585" d="m169.5 698.96-0.09 0.03c-0.26-0.4-0.35-0.46-0.67-0.46h-1.66l1.17 1.23c0.62 0.65 0.89 1.18 0.89 1.72 0 0.7-0.56 1.24-1.29 1.24-0.38 0-0.74-0.16-1-0.44-0.23-0.23-0.33-0.46-0.45-0.95l0.15-0.04c0.28 0.69 0.53 0.91 1.01 0.91 0.59 0 0.98-0.4 0.98-0.98 0-0.55-0.32-1.19-0.9-1.82l-1.25-1.31v-0.09h2.72z"/></g></g>
  <g id="g9184" xml:space="preserve" ns0:pdfconverter="pstoedit" transform="matrix(1.75 0 0 -1.75 -83.439 1414.8)" ns0:text="$\\dfrac{K}{r}, K &gt; 0$" ns0:version="0.7.2" ns0:inkscapeversion="0.91" ns0:preamble="/usr/share/inkscape/extensions/default_packages.tex" ns0:scale="1.4" ns0:texconverter="pdflatex"><path id="path9186" stroke-width="0" d="m157.35 717.09h-2.21v-0.16c0.12-0.01 0.23-0.03 0.27-0.03 0.24-0.02 0.34-0.08 0.34-0.19 0-0.24-0.55-0.78-1.44-1.4l-1.51-1.05 0.53 1.93c0.15 0.5 0.41 0.7 1 0.74v0.16h-2.72v-0.16c0.62-0.06 0.77-0.14 0.77-0.43 0-0.14-0.04-0.37-0.11-0.62l-1.23-4.4c-0.17-0.6-0.22-0.65-0.81-0.74v-0.16h2.47v0.16c-0.63 0.07-0.72 0.13-0.72 0.44 0 0.1 0.02 0.19 0.08 0.39l0.06 0.21 0.62 2.27 1.2-2.08c0.24-0.4 0.38-0.75 0.38-0.94 0-0.15-0.14-0.23-0.46-0.26-0.05 0-0.16-0.01-0.29-0.03v-0.16h2.74v0.16c-0.62 0.06-0.68 0.09-0.96 0.56l-1.73 3.02 2.98 2.25c0.28 0.21 0.51 0.32 0.75 0.36z"/><line id="line9188" stroke="#000" y1="706.39" y2="706.39" stroke-width="0.558" x2="157.35" x1="149.91"/><g stroke-width="0"><path id="path9190" d="m152.78 697 0.05 0.15 0.04 0.15 0.05 0.14 0.04 0.14 0.04 0.12 0.04 0.13 0.04 0.11 0.03 0.12 0.04 0.1 0.03 0.1 0.04 0.1 0.03 0.09 0.03 0.09 0.03 0.09 0.03 0.08 0.04 0.08 0.03 0.07 0.03 0.08 0.06 0.14 0.06 0.13 0.07 0.14 0.06 0.13 0.08 0.13 0.07 0.13 0.04 0.07 0.05 0.07c0.33 0.55 0.6 0.86 0.77 0.86 0.06 0 0.11-0.04 0.16-0.14 0.08-0.17 0.16-0.21 0.36-0.21 0.29 0 0.46 0.17 0.46 0.48s-0.19 0.52-0.47 0.52c-0.23 0-0.5-0.15-0.76-0.42-0.4-0.42-0.8-1-0.96-1.4l-0.14-0.36 0.53 2.16-0.03 0.02c-0.73-0.13-0.82-0.15-1.55-0.27v-0.17c0.24 0.05 0.27 0.05 0.34 0.05 0.22 0 0.35-0.1 0.35-0.28 0-0.14 0-0.14-0.16-0.81l-0.81-2.91z"/><path id="path9192" d="m160.49 703.89-0.01 0.04v0.04 0.03 0.04l-0.01 0.03v0.03 0.04l-0.01 0.03-0.01 0.03v0.03l-0.01 0.03-0.01 0.03-0.01 0.02-0.01 0.03-0.01 0.02-0.01 0.03-0.01 0.02-0.01 0.02-0.03 0.05-0.02 0.04-0.03 0.04-0.03 0.03-0.03 0.03-0.03 0.03-0.03 0.03-0.04 0.02-0.03 0.02-0.03 0.02-0.04 0.02-0.03 0.02-0.03 0.01-0.04 0.01-0.03 0.01-0.03 0.01-0.03 0.01h-0.03l-0.03 0.01h-0.03-0.03l-0.02 0.01h-0.02c-0.25 0-0.58-0.15-0.58-0.58 0-0.4 0.36-0.5 0.62-0.5 0.07 0 0.12 0.01 0.15 0.02 0.04 0.01 0.07 0.02 0.09 0.02 0.07 0 0.14-0.05 0.14-0.14 0-0.19-0.16-0.64-0.82-1.06l0.09-0.19c0.3 0.11 1.12 0.76 1.12 1.47z"/><path id="path9194" d="m170.14 710.34h-2.21v-0.16c0.12-0.01 0.22-0.03 0.27-0.03 0.23-0.02 0.33-0.08 0.33-0.19 0-0.24-0.54-0.78-1.43-1.4l-1.51-1.05 0.52 1.93c0.15 0.5 0.42 0.7 1.01 0.74v0.16h-2.72v-0.16c0.62-0.06 0.77-0.14 0.77-0.43 0-0.14-0.04-0.37-0.11-0.62l-1.23-4.4c-0.18-0.6-0.23-0.65-0.82-0.74v-0.16h2.48v0.16c-0.63 0.07-0.72 0.13-0.72 0.44 0 0.1 0.02 0.19 0.08 0.39l0.06 0.21 0.61 2.27 1.21-2.08c0.24-0.4 0.38-0.75 0.38-0.94 0-0.15-0.14-0.23-0.46-0.26-0.05 0-0.16-0.01-0.29-0.03v-0.16h2.74v0.16c-0.63 0.06-0.69 0.09-0.96 0.56l-1.74 3.02 2.99 2.25c0.28 0.21 0.51 0.32 0.75 0.36z"/><polygon id="polygon9196" points="178.62 706.49 173.52 708.89 173.52 708.33 177.67 706.39 173.52 704.45 173.52 703.89 178.62 706.29"/><path id="path9198" d="m184.54 710.57-0.05-0.01h-0.05-0.05-0.05l-0.05-0.01h-0.04l-0.05-0.01-0.05-0.01-0.04-0.01-0.05-0.01-0.04-0.01-0.05-0.01-0.04-0.01-0.04-0.01-0.04-0.02-0.04-0.01-0.04-0.02-0.05-0.02-0.04-0.02-0.03-0.02-0.04-0.02-0.04-0.02-0.04-0.02-0.04-0.03-0.03-0.02-0.04-0.03-0.04-0.02-0.03-0.03-0.04-0.03-0.03-0.03-0.04-0.03-0.03-0.03c-0.58-0.56-0.96-1.71-0.96-2.87 0-1.09 0.33-2.25 0.8-2.81 0.36-0.44 0.87-0.68 1.45-0.68v0.26c-0.86 0-1.29 1.07-1.29 3.14 0 2.11 0.44 3.22 1.3 3.22 0.84 0 1.29-1.13 1.29-3.21s-0.44-3.15-1.3-3.15v-0.26c0.51 0 0.94 0.17 1.3 0.52 0.57 0.55 0.95 1.7 0.95 2.91 0 2.04-0.9 3.45-2.21 3.45z"/></g></g>
  <g id="g5315" xml:space="preserve" stroke-width="0" ns0:pdfconverter="pstoedit" transform="matrix(1.75 0 0 -1.75 -6.6199 1395.4)" ns0:text="$V_{\\text{ef}}(r)$" ns0:version="0.7.2" ns0:inkscapeversion="0.91" ns0:preamble="/usr/share/inkscape/extensions/default_packages.tex" ns0:scale="1.4" ns0:texconverter="pdflatex"><path id="path5317" d="m155.56 713.63h-1.85v-0.16c0.45-0.05 0.63-0.15 0.63-0.34s-0.19-0.62-0.52-1.19l-2.05-3.54-0.66 4.41c-0.01 0.05-0.01 0.09-0.01 0.15 0 0.34 0.14 0.44 0.77 0.51v0.16h-2.4v-0.16c0.55-0.07 0.57-0.1 0.78-1.35l0.85-5.18h0.19l3.72 6.13c0.17 0.27 0.33 0.39 0.55 0.4z"/><path id="path5319" d="m157.65 706.77-0.04-0.04-0.03-0.05-0.03-0.05-0.03-0.04-0.03-0.04-0.03-0.04-0.03-0.04-0.03-0.03-0.03-0.04-0.03-0.03-0.03-0.03-0.04-0.03-0.03-0.03-0.03-0.02-0.03-0.03-0.03-0.02-0.04-0.02-0.03-0.02-0.03-0.02-0.04-0.02-0.03-0.01-0.03-0.02-0.04-0.01-0.04-0.01-0.03-0.01-0.04-0.01h-0.04l-0.03-0.01h-0.04l-0.04-0.01h-0.04-0.05c-0.39 0-0.69 0.2-0.9 0.6-0.12 0.27-0.17 0.5-0.18 0.92l0.01 0.22c0.08 0.55 0.31 0.81 0.74 0.81 0.42 0 0.59-0.2 0.68-0.81h-1.42l-0.01-0.22h2.14c-0.05 0.46-0.12 0.66-0.3 0.88-0.2 0.25-0.53 0.4-0.89 0.4-0.35 0-0.67-0.13-0.94-0.37-0.33-0.28-0.52-0.78-0.52-1.35 0-0.96 0.51-1.56 1.31-1.56 0.66 0 1.18 0.41 1.48 1.16z"/><path id="path5321" d="m160.05 708.77h-0.85v0.81c0 0.4 0.13 0.62 0.39 0.62 0.15 0 0.25-0.07 0.37-0.27 0.11-0.19 0.2-0.26 0.32-0.26 0.16 0 0.29 0.13 0.29 0.29 0 0.25-0.31 0.43-0.73 0.43-0.43 0-0.8-0.18-0.98-0.51-0.18-0.3-0.24-0.55-0.24-1.11h-0.58v-0.23h0.58v-2.19c0-0.5-0.08-0.59-0.58-0.62v-0.1h1.81v0.1c-0.57 0.03-0.65 0.1-0.65 0.62v2.19h0.85z"/><path id="path5323" d="m163.66 713.86-0.07-0.05-0.07-0.04-0.06-0.04-0.06-0.04-0.06-0.04-0.06-0.04-0.05-0.04-0.05-0.04-0.05-0.03-0.05-0.04-0.05-0.04-0.05-0.03-0.04-0.04-0.04-0.03-0.08-0.07-0.08-0.07-0.08-0.06-0.07-0.07-0.07-0.08-0.06-0.07-0.07-0.07-0.07-0.08-0.07-0.09c-0.71-0.87-1.05-1.86-1.05-3.03 0-1.26 0.36-2.24 1.24-3.25 0.41-0.48 0.67-0.7 1.19-1.02l0.12 0.16c-0.8 0.63-1.08 0.97-1.35 1.72-0.24 0.67-0.35 1.43-0.35 2.42 0 1.05 0.13 1.87 0.4 2.48 0.28 0.62 0.58 0.98 1.3 1.56z"/><path id="path5325" d="m165.24 707.12 0.05 0.16 0.04 0.15 0.05 0.14 0.04 0.13 0.04 0.13 0.04 0.12 0.03 0.12 0.04 0.11 0.04 0.11 0.03 0.1 0.03 0.1 0.04 0.09 0.03 0.09 0.03 0.08 0.03 0.08 0.03 0.08 0.03 0.08 0.03 0.07 0.07 0.14 0.06 0.14 0.06 0.13 0.07 0.13 0.07 0.13 0.08 0.13 0.04 0.07 0.04 0.07c0.33 0.56 0.61 0.87 0.78 0.87 0.06 0 0.11-0.04 0.16-0.14 0.08-0.17 0.16-0.22 0.36-0.22 0.29 0 0.46 0.18 0.46 0.49s-0.19 0.52-0.47 0.52c-0.23 0-0.5-0.15-0.76-0.42-0.41-0.42-0.81-1.01-0.96-1.41l-0.14-0.36 0.52 2.17-0.03 0.02c-0.72-0.13-0.81-0.15-1.54-0.27v-0.17c0.24 0.05 0.27 0.05 0.34 0.05 0.22 0 0.35-0.1 0.35-0.28 0-0.14 0-0.14-0.16-0.82l-0.81-2.91z"/><path id="path5327" d="m168.51 705.36 0.07 0.04 0.07 0.05 0.06 0.04 0.06 0.04 0.06 0.04 0.06 0.04 0.05 0.04 0.05 0.03 0.05 0.04 0.05 0.04 0.05 0.03 0.05 0.04 0.04 0.03 0.04 0.04 0.08 0.06 0.08 0.07 0.08 0.07 0.07 0.07 0.07 0.07 0.06 0.08 0.07 0.07 0.07 0.08 0.07 0.08c0.71 0.87 1.05 1.87 1.05 3.03 0 1.28-0.36 2.25-1.24 3.26-0.41 0.48-0.67 0.7-1.19 1.02l-0.12-0.16c0.8-0.63 1.07-0.98 1.35-1.73 0.24-0.66 0.35-1.42 0.35-2.42 0-1.03-0.13-1.86-0.4-2.47-0.28-0.62-0.58-0.98-1.3-1.56z"/></g>
  <g id="g7067" xml:space="preserve" ns0:pdfconverter="pstoedit" transform="matrix(1.75 0 0 -1.75 107.51 1375.8)" ns0:text="$\\dfrac{1}{2}m\\dot{r}^2$" ns0:version="0.7.2" ns0:inkscapeversion="0.91" ns0:preamble="/usr/share/inkscape/extensions/default_packages.tex" ns0:scale="1.4" ns0:texconverter="pdflatex"><path id="path7069" stroke-width="0" d="m152.81 717.16-1.79-0.91v-0.14c0.11 0.05 0.22 0.09 0.27 0.11 0.17 0.07 0.34 0.11 0.44 0.11 0.21 0 0.3-0.15 0.3-0.47v-4.51c0-0.33-0.08-0.56-0.24-0.65-0.15-0.09-0.29-0.12-0.7-0.13v-0.15h2.75v0.15c-0.79 0.01-0.95 0.11-0.95 0.59v5.98z"/><line id="line7071" stroke-width="0.558" y2="706.24" y1="706.24" x2="154.89" x1="149.91"/><g stroke-width="0"><path id="path7073" d="m154.64 698.21-0.13 0.05c-0.37-0.57-0.5-0.66-0.94-0.66h-2.39l1.68 1.76c0.89 0.92 1.27 1.68 1.27 2.46 0 1-0.8 1.76-1.84 1.76-0.55 0-1.06-0.22-1.43-0.61-0.32-0.34-0.47-0.66-0.64-1.37l0.21-0.05c0.4 0.98 0.75 1.29 1.44 1.29 0.84 0 1.41-0.56 1.41-1.4 0-0.78-0.46-1.7-1.3-2.59l-1.77-1.88v-0.12h3.88z"/><path id="path7075" d="m162.95 704.85-0.02-0.03-0.02-0.02-0.02-0.02-0.01-0.02-0.01-0.01-0.01-0.01-0.01-0.01-0.01-0.01v-0.01l-0.01-0.01-0.01-0.01-0.01-0.01-0.01-0.01v-0.01l-0.01-0.01h-0.01v-0.01l-0.01-0.01-0.01-0.01v-0.01l-0.01-0.01-0.01-0.01c-0.28-0.36-0.49-0.53-0.64-0.53-0.08 0-0.13 0.06-0.13 0.16 0 0.05 0.04 0.21 0.1 0.45l0.68 2.5c0.01 0.04 0.03 0.22 0.03 0.28 0 0.35-0.25 0.62-0.59 0.62-0.19 0-0.39-0.07-0.63-0.22-0.49-0.31-0.9-0.79-1.58-1.89 0.25 0.76 0.4 1.33 0.4 1.52 0 0.34-0.23 0.59-0.57 0.59-0.61 0-1.31-0.65-2.22-2.1l0.57 2.08-0.03 0.02c-0.55-0.12-0.76-0.16-1.59-0.3v-0.17h0.25c0.26 0 0.39-0.06 0.39-0.21 0-0.11-0.23-1.02-0.59-2.29-0.23-0.81-0.26-0.91-0.39-1.42h0.75c0.48 1.58 0.63 1.95 0.97 2.47 0.55 0.85 1.15 1.4 1.49 1.4 0.13 0 0.2-0.08 0.2-0.24 0-0.09-0.32-1.3-0.95-3.63h0.75c0.4 1.55 0.6 2.05 1.11 2.76 0.48 0.68 0.98 1.11 1.27 1.11 0.11 0 0.2-0.09 0.2-0.2 0-0.05-0.02-0.17-0.07-0.35l-0.58-2.29c-0.09-0.37-0.13-0.56-0.13-0.66 0-0.3 0.14-0.46 0.4-0.46 0.47 0 0.91 0.33 1.44 1.07l0.05 0.07z"/><path id="path7077" d="m165.51 709.88h-0.02l-0.02-0.01h-0.03-0.02l-0.02-0.01-0.02-0.01h-0.02l-0.03-0.01-0.02-0.01-0.02-0.01-0.02-0.02-0.02-0.01-0.02-0.01-0.01-0.02-0.02-0.01-0.02-0.02-0.01-0.02-0.02-0.01-0.01-0.02-0.02-0.02-0.01-0.02-0.01-0.02-0.01-0.02-0.01-0.03-0.01-0.02-0.01-0.02-0.01-0.02v-0.03l-0.01-0.02v-0.02-0.03-0.02c0-0.28 0.2-0.5 0.47-0.5 0.28 0 0.51 0.22 0.51 0.49s-0.23 0.5-0.51 0.5z"/><path id="path7079" d="m164.48 703.68 0.05 0.16 0.04 0.14 0.05 0.14 0.04 0.14 0.04 0.13 0.04 0.12 0.04 0.12 0.03 0.11 0.04 0.1 0.03 0.11 0.04 0.09 0.03 0.1 0.03 0.08 0.03 0.09 0.03 0.08 0.04 0.08 0.03 0.08 0.03 0.07 0.06 0.14 0.06 0.14 0.07 0.13 0.06 0.13 0.08 0.13 0.07 0.13 0.04 0.07 0.05 0.07c0.33 0.56 0.6 0.87 0.77 0.87 0.06 0 0.11-0.04 0.16-0.14 0.08-0.17 0.16-0.22 0.36-0.22 0.29 0 0.46 0.18 0.46 0.48 0 0.31-0.19 0.52-0.47 0.52-0.23 0-0.5-0.15-0.76-0.41-0.4-0.42-0.8-1.01-0.96-1.41l-0.14-0.36 0.53 2.16-0.03 0.02c-0.73-0.13-0.82-0.15-1.55-0.27v-0.16c0.24 0.04 0.27 0.04 0.34 0.04 0.22 0 0.35-0.09 0.35-0.27 0-0.14 0-0.14-0.16-0.82l-0.81-2.91z"/><path id="path7081" d="m170.7 708.25-0.09 0.03c-0.26-0.39-0.35-0.45-0.67-0.45h-1.66l1.17 1.22c0.62 0.65 0.89 1.18 0.89 1.73 0 0.69-0.56 1.23-1.29 1.23-0.38 0-0.74-0.15-1-0.43-0.23-0.24-0.33-0.46-0.45-0.96l0.15-0.03c0.28 0.68 0.53 0.9 1.01 0.9 0.59 0 0.98-0.39 0.98-0.98 0-0.54-0.32-1.19-0.9-1.81l-1.25-1.32v-0.09h2.72z"/></g></g>
  <g id="g9786" xml:space="preserve" stroke-width="0" ns0:pdfconverter="pstoedit" transform="matrix(1.75 0 0 -1.75 11.046 1320.7)" ns0:text="$E &gt; 0$" ns0:version="0.7.2" ns0:inkscapeversion="0.91" ns0:preamble="/usr/share/inkscape/extensions/default_packages.tex" ns0:scale="1.4" ns0:texconverter="pdflatex"><path id="path9788" d="m155.27 713.63h-4.95v-0.16c0.62-0.06 0.77-0.14 0.77-0.41 0-0.11-0.06-0.46-0.11-0.64l-1.22-4.4c-0.17-0.57-0.25-0.64-0.81-0.74v-0.16h5.05l0.62 1.62-0.16 0.08c-0.47-0.64-0.73-0.9-1.16-1.1-0.37-0.17-1.04-0.27-1.79-0.27-0.56 0-0.8 0.1-0.8 0.34 0 0.11 0.11 0.58 0.36 1.45 0.13 0.44 0.22 0.77 0.32 1.15 0.35-0.02 0.66-0.03 0.77-0.03 0.39 0.01 0.67-0.05 0.78-0.15 0.05-0.05 0.07-0.14 0.07-0.31s-0.02-0.3-0.07-0.52l0.2-0.05 0.68 2.32-0.18 0.03c-0.38-0.84-0.47-0.9-1.38-0.94-0.11 0-0.43-0.01-0.78-0.02l0.66 2.32c0.06 0.22 0.16 0.26 0.72 0.26 1.57 0 1.92-0.13 1.92-0.73 0-0.13-0.01-0.28-0.02-0.45l0.2-0.02z"/><polygon id="polygon9790" points="158.91 712.18 158.91 711.63 163.06 709.68 158.91 707.74 158.91 707.18 164.01 709.58 164.01 709.78"/><path id="path9792" d="m169.93 713.86h-0.05-0.05l-0.05-0.01h-0.05l-0.05-0.01h-0.04l-0.05-0.01h-0.05l-0.04-0.01-0.05-0.01-0.04-0.01-0.05-0.01-0.04-0.02-0.04-0.01-0.04-0.02-0.04-0.01-0.04-0.02-0.05-0.02-0.04-0.01-0.03-0.02-0.04-0.02-0.04-0.03-0.04-0.02-0.04-0.02-0.03-0.03-0.04-0.02-0.04-0.03-0.03-0.03-0.04-0.03-0.03-0.03-0.04-0.03-0.03-0.03c-0.58-0.56-0.96-1.7-0.96-2.87 0-1.09 0.33-2.25 0.8-2.81 0.36-0.44 0.87-0.68 1.45-0.68v0.26c-0.86 0-1.29 1.07-1.29 3.14 0 2.11 0.44 3.22 1.3 3.22 0.84 0 1.29-1.13 1.29-3.21s-0.44-3.15-1.3-3.15v-0.26c0.51 0 0.94 0.17 1.3 0.52 0.57 0.55 0.95 1.71 0.95 2.91 0 2.04-0.9 3.45-2.21 3.45z"/></g>
  <g id="g10548" xml:space="preserve" stroke-width="0" ns0:pdfconverter="pstoedit" transform="matrix(1.75 0 0 -1.75 -111.44 1316.5)" ns0:text="$V_{\\text{ef}}(r_\\text{p})$" ns0:version="0.7.2" ns0:inkscapeversion="0.91" ns0:preamble="/usr/share/inkscape/extensions/default_packages.tex" ns0:scale="1.4" ns0:texconverter="pdflatex"><path id="path10550" d="m155.56 713.63h-1.85v-0.16c0.45-0.05 0.63-0.15 0.63-0.34s-0.19-0.62-0.52-1.19l-2.05-3.54-0.66 4.41c-0.01 0.05-0.01 0.09-0.01 0.15 0 0.34 0.14 0.44 0.77 0.51v0.16h-2.4v-0.16c0.55-0.07 0.57-0.1 0.78-1.35l0.85-5.18h0.19l3.72 6.13c0.17 0.27 0.33 0.39 0.55 0.4z"/><path id="path10552" d="m157.65 706.77-0.04-0.04-0.03-0.05-0.03-0.05-0.03-0.04-0.03-0.04-0.03-0.04-0.03-0.04-0.03-0.03-0.03-0.04-0.03-0.03-0.03-0.03-0.04-0.03-0.03-0.03-0.03-0.02-0.03-0.03-0.03-0.02-0.04-0.02-0.03-0.02-0.03-0.02-0.04-0.02-0.03-0.01-0.03-0.02-0.04-0.01-0.04-0.01-0.03-0.01-0.04-0.01h-0.04l-0.03-0.01h-0.04l-0.04-0.01h-0.04-0.05c-0.39 0-0.69 0.2-0.9 0.6-0.12 0.27-0.17 0.5-0.18 0.92l0.01 0.22c0.08 0.55 0.31 0.81 0.74 0.81 0.42 0 0.59-0.2 0.68-0.81h-1.42l-0.01-0.22h2.14c-0.05 0.46-0.12 0.66-0.3 0.88-0.2 0.25-0.53 0.4-0.89 0.4-0.35 0-0.67-0.13-0.94-0.37-0.33-0.28-0.52-0.78-0.52-1.35 0-0.96 0.51-1.56 1.31-1.56 0.66 0 1.18 0.41 1.48 1.16z"/><path id="path10554" d="m160.05 708.77h-0.85v0.81c0 0.4 0.13 0.62 0.39 0.62 0.15 0 0.25-0.07 0.37-0.27 0.11-0.19 0.2-0.26 0.32-0.26 0.16 0 0.29 0.13 0.29 0.29 0 0.25-0.31 0.43-0.73 0.43-0.43 0-0.8-0.18-0.98-0.51-0.18-0.3-0.24-0.55-0.24-1.11h-0.58v-0.23h0.58v-2.19c0-0.5-0.08-0.59-0.58-0.62v-0.1h1.81v0.1c-0.57 0.03-0.65 0.1-0.65 0.62v2.19h0.85z"/><path id="path10556" d="m163.66 713.86-0.07-0.05-0.07-0.04-0.06-0.04-0.06-0.04-0.06-0.04-0.06-0.04-0.05-0.04-0.05-0.04-0.05-0.03-0.05-0.04-0.05-0.04-0.05-0.03-0.04-0.04-0.04-0.03-0.08-0.07-0.08-0.07-0.08-0.06-0.07-0.07-0.07-0.08-0.06-0.07-0.07-0.07-0.07-0.08-0.07-0.09c-0.71-0.87-1.05-1.86-1.05-3.03 0-1.26 0.36-2.24 1.24-3.25 0.41-0.48 0.67-0.7 1.19-1.02l0.12 0.16c-0.8 0.63-1.08 0.97-1.35 1.72-0.24 0.67-0.35 1.43-0.35 2.42 0 1.05 0.13 1.87 0.4 2.48 0.28 0.62 0.58 0.98 1.3 1.56z"/><path id="path10558" d="m165.24 707.12 0.05 0.16 0.04 0.15 0.05 0.14 0.04 0.13 0.04 0.13 0.04 0.12 0.03 0.12 0.04 0.11 0.04 0.11 0.03 0.1 0.03 0.1 0.04 0.09 0.03 0.09 0.03 0.08 0.03 0.08 0.03 0.08 0.03 0.08 0.03 0.07 0.07 0.14 0.06 0.14 0.06 0.13 0.07 0.13 0.07 0.13 0.08 0.13 0.04 0.07 0.04 0.07c0.33 0.56 0.61 0.87 0.78 0.87 0.06 0 0.11-0.04 0.16-0.14 0.08-0.17 0.16-0.22 0.36-0.22 0.29 0 0.46 0.18 0.46 0.49s-0.19 0.52-0.47 0.52c-0.23 0-0.5-0.15-0.76-0.42-0.41-0.42-0.81-1.01-0.96-1.41l-0.14-0.36 0.52 2.17-0.03 0.02c-0.72-0.13-0.81-0.15-1.54-0.27v-0.17c0.24 0.05 0.27 0.05 0.34 0.05 0.22 0 0.35-0.1 0.35-0.28 0-0.14 0-0.14-0.16-0.82l-0.81-2.91z"/><path id="path10560" d="m167.97 708.37h0.01 0.02 0.01l0.01 0.01h0.01 0.01 0.01 0.01 0.02 0.01 0.01 0.01 0.01 0.02 0.01c0.23 0 0.28-0.07 0.28-0.4v-3.26c0-0.37-0.07-0.44-0.48-0.49v-0.11h1.68v0.12c-0.52 0.01-0.61 0.09-0.61 0.53v1.09c0.24-0.23 0.41-0.3 0.7-0.3l0.02 0.22c-0.32 0-0.72 0.25-0.72 0.46v1.72c0 0.21 0.39 0.46 0.71 0.46 0.52 0 0.86-0.53 0.86-1.34 0-0.77-0.34-1.3-0.85-1.3l-0.02-0.22c0.83 0 1.47 0.78 1.47 1.79 0 0.87-0.49 1.49-1.17 1.49-0.39 0-0.69-0.18-1-0.55v0.53l-0.04 0.02c-0.38-0.15-0.62-0.24-1.01-0.36z"/><path id="path10562" d="m172.27 705.36 0.07 0.04 0.06 0.05 0.07 0.04 0.06 0.04 0.06 0.04 0.05 0.04 0.06 0.04 0.05 0.03 0.05 0.04 0.05 0.04 0.05 0.03 0.04 0.04 0.05 0.03 0.04 0.04 0.08 0.06 0.08 0.07 0.07 0.07 0.08 0.07 0.06 0.07 0.07 0.08 0.07 0.07 0.07 0.08 0.07 0.08c0.7 0.87 1.05 1.87 1.05 3.03 0 1.28-0.37 2.25-1.24 3.26-0.41 0.48-0.67 0.7-1.19 1.02l-0.12-0.16c0.8-0.63 1.07-0.98 1.35-1.73 0.23-0.66 0.35-1.42 0.35-2.42 0-1.03-0.13-1.86-0.4-2.47-0.28-0.62-0.58-0.98-1.3-1.56z"/></g>
  <g id="g10837" xml:space="preserve" stroke-width="0" ns0:pdfconverter="pstoedit" transform="matrix(1.75 0 0 -1.75 -117.94 1474.9)" ns0:text="$r_{\\text p}$" ns0:version="0.7.2" ns0:inkscapeversion="0.91" ns0:preamble="/usr/share/inkscape/extensions/default_packages.tex" ns0:scale="1.4" ns0:texconverter="pdflatex"><path id="path10839" d="m149.91 707.12 0.05 0.16 0.05 0.15 0.04 0.14 0.04 0.13 0.05 0.13 0.03 0.12 0.04 0.12 0.04 0.11 0.03 0.11 0.04 0.1 0.03 0.1 0.03 0.09 0.04 0.09 0.03 0.08 0.03 0.08 0.03 0.08 0.03 0.08 0.03 0.07 0.06 0.14 0.07 0.14 0.06 0.13 0.07 0.13 0.07 0.13 0.08 0.13 0.04 0.07 0.04 0.07c0.33 0.56 0.61 0.87 0.78 0.87 0.06 0 0.11-0.04 0.16-0.14 0.08-0.17 0.16-0.22 0.36-0.22 0.29 0 0.46 0.18 0.46 0.49s-0.2 0.52-0.47 0.52c-0.23 0-0.5-0.15-0.76-0.42-0.41-0.42-0.81-1.01-0.97-1.41l-0.14-0.36 0.53 2.17-0.03 0.02c-0.73-0.13-0.82-0.15-1.54-0.27v-0.17c0.24 0.05 0.27 0.05 0.34 0.05 0.21 0 0.34-0.1 0.34-0.28 0-0.14 0-0.14-0.16-0.82l-0.8-2.91z"/><path id="path10841" d="m152.65 708.37h0.01 0.01 0.01l0.02 0.01h0.01 0.01 0.01 0.01 0.02 0.01 0.01 0.01 0.01 0.01 0.01c0.24 0 0.29-0.07 0.29-0.4v-3.26c0-0.37-0.08-0.44-0.49-0.49v-0.11h1.69v0.12c-0.52 0.01-0.61 0.09-0.61 0.53v1.09c0.24-0.23 0.41-0.3 0.7-0.3l0.02 0.22c-0.33 0-0.72 0.25-0.72 0.46v1.72c0 0.21 0.39 0.46 0.71 0.46 0.51 0 0.85-0.53 0.85-1.34 0-0.77-0.34-1.3-0.84-1.3l-0.02-0.22c0.82 0 1.47 0.78 1.47 1.79 0 0.87-0.49 1.49-1.17 1.49-0.39 0-0.7-0.18-1-0.55v0.53l-0.05 0.02c-0.37-0.15-0.62-0.24-1-0.36z"/></g>
 </g>
</svg>
