<?xml version="1.0" encoding="UTF-8" standalone="no"?>
<svg id="svg8195" xmlns:rdf="http://www.w3.org/1999/02/22-rdf-syntax-ns#" xmlns="http://www.w3.org/2000/svg" xmlns:ns0="http://www.iki.fi/pav/software/textext/" height="300" width="300" version="1.1" xmlns:cc="http://creativecommons.org/ns#" xmlns:xlink="http://www.w3.org/1999/xlink" viewBox="0 0 300 300" xmlns:dc="http://purl.org/dc/elements/1.1/">
 <style type="text/css">
	 @import url('../estilo.css');
 </style>
 <defs>
  <path id="gpPt2" stroke="currentColor" stroke-width=".222" d="m-1 0h2m-1-1v2m-1-2l2 2m-2 0l2-2"/>
 </defs>
 <metadata id="metadata8275">
  <rdf:RDF>
   <cc:Work rdf:about="">
    <dc:format>image/svg+xml</dc:format>
    <dc:type rdf:resource="http://purl.org/dc/dcmitype/StillImage"/>
    <dc:title>Gnuplot</dc:title>
   </cc:Work>
  </rdf:RDF>
 </metadata>
 <title id="title8197">Gnuplot</title>
 <desc id="desc8199">Produced by GNUPLOT 5.0 patchlevel 3</desc>
 <g id="gnuplot_canvas">
  <g fill="none">
   <rect id="rect8202" height="300" width="300" y="0" x="0"/>
   <g stroke="currentColor">
    <g id="g8234" color="black">
     <g id="g8236" font-size="16" transform="translate(178.7,133.7)" text-anchor="end" stroke="none" font-family="Stix Two Text" fill="#000">
      <text id="text8238">
       <tspan id="tspan8240" font-family="Stix Two Text" font-style="italic">O</tspan>
      </text>
     </g>
    </g>
    <g id="g8242" color="black">
     <use id="use8244" color="black" xlink:href="#gpPt2" transform="translate(178.3 116) scale(3.38)"/>
    </g>
    <g id="g8248" color="black">
     <path id="path8250" stroke="#000" stroke-dasharray="1.0,2.0" d="m178.3 116l28.8-32.2"/>
    </g>
   </g>
  </g>
  <g id="gnuplot_plot_1">
   <title id="title8255"/>
   <g id="g8259" color="black" stroke="currentColor" stroke-width="1.5" fill="none">
    <path id="path8261" stroke="#000" d="m275 263.8l-3.3-17.7-3.2-16.1-2.9-13.6-2.7-11.7-2.4-10.3-2.3-9-2.2-7.9-2-7.2-2-6.4-1.8-5.8-1.8-5.3-1.8-4.9-1.6-4.5-1.7-4.1-1.5-3.9-1.6-3.5-1.5-3.4-1.5-3.1-1.4-3-1.5-2.8-1.4-2.6-1.4-2.5-1.4-2.4-1.4-2.2-1.3-2.2-1.4-2.1-1.4-2-1.3-1.9-1.4-1.8-1.3-1.8-1.4-1.7-1.4-1.6-1.4-1.6-1.3-1.6-1.4-1.5-1.5-1.5-1.4-1.4-1.4-1.4-1.5-1.4-1.5-1.3-1.5-1.3-1.6-1.3-1.6-1.3-1.6-1.2-1.7-1.2-1.7-1.3-1.7-1.2-1.8-1.1-1.8-1.2-2-1.2-1.9-1.1-2.1-1.1-2.1-1.2-2.2-1.1-2.3-1.1-2.4-1.1-2.5-1.2-2.7-1.1-2.7-1.1-3-1.1-3.1-1.1-3.2-1.2-3.5-1.1-3.8-1.1-4-1.2-4.2-1.1-4.7-1.2-5-1.2-5.5-1.2-6-1.2-6.6-1.2-7.3-1.2-8.2-1.3-9.2-1.3-10.4-1.3-12-1.3-13.8-1.4-16.3-1.4-18-1.3"/>
   </g>
  </g>
 </g>
 <g id="g6156" xml:space="preserve" stroke="#000" stroke-width="0" fill-rule="evenodd" ns0:pdfconverter="pstoedit" transform="matrix(1.75 0 0 -1.75 -68.342 1348.3)" stroke-miterlimit="10.433" ns0:text="$r_1$" ns0:version="0.7.2" ns0:inkscapeversion="0.91" ns0:preamble="/usr/share/inkscape/extensions/default_packages.tex" ns0:scale="1.4" ns0:texconverter="pdflatex"><path id="path6158" d="m149.91 707.12 0.05 0.16 0.05 0.15 0.04 0.14 0.04 0.13 0.05 0.13 0.03 0.12 0.04 0.12 0.04 0.11 0.03 0.11 0.04 0.1 0.03 0.1 0.03 0.09 0.04 0.09 0.03 0.08 0.03 0.08 0.03 0.08 0.03 0.08 0.03 0.07 0.06 0.14 0.07 0.14 0.06 0.13 0.07 0.13 0.07 0.13 0.08 0.13 0.04 0.07 0.04 0.07c0.33 0.56 0.61 0.87 0.78 0.87 0.06 0 0.11-0.04 0.16-0.14 0.08-0.17 0.16-0.22 0.36-0.22 0.29 0 0.46 0.18 0.46 0.49s-0.2 0.52-0.47 0.52c-0.23 0-0.5-0.15-0.76-0.42-0.41-0.42-0.81-1.01-0.97-1.41l-0.14-0.36 0.53 2.17-0.03 0.02c-0.73-0.13-0.82-0.15-1.54-0.27v-0.17c0.24 0.05 0.27 0.05 0.34 0.05 0.21 0 0.34-0.1 0.34-0.28 0-0.14 0-0.14-0.16-0.82l-0.8-2.91z"/><path id="path6160" d="m154.62 710.34-1.26-0.63v-0.1c0.09 0.04 0.16 0.06 0.19 0.08 0.13 0.05 0.24 0.08 0.31 0.08 0.15 0 0.21-0.11 0.21-0.33v-3.16c0-0.23-0.05-0.39-0.16-0.45-0.11-0.07-0.21-0.09-0.5-0.1v-0.1h1.93v0.1c-0.56 0.01-0.67 0.08-0.67 0.42v4.18z"/></g>
</svg>
