<?xml version="1.0" encoding="UTF-8" standalone="no"?>
<!-- Created with Inkscape (http://www.inkscape.org/) -->
<svg id="svg7557" xmlns:rdf="http://www.w3.org/1999/02/22-rdf-syntax-ns#" xmlns="http://www.w3.org/2000/svg" xmlns:ns0="http://www.iki.fi/pav/software/textext/" height="271.92" width="413.54" version="1.1" xmlns:cc="http://creativecommons.org/ns#" viewBox="0 0 413.53919 271.91962" xmlns:dc="http://purl.org/dc/elements/1.1/">
 <style type="text/css">
	 @import url('../estilo.css');
 </style>
 <defs id="defs7559">
  <marker id="marker5287" refY="0" refX="0" overflow="visible" orient="auto">
   <path id="path5176" d="m5.77 0-8.65 5v-10l8.65 5z" fill-rule="evenodd" transform="scale(.4)" stroke="#000" stroke-width="1pt"/>
  </marker>
  <marker id="marker9852" refY="0" refX="0" orient="auto" overflow="visible">
   <path id="path9854" d="m5.77 0-8.65 5v-10l8.65 5z" fill-rule="evenodd" transform="scale(.4)" stroke="#000" stroke-width="1pt"/>
  </marker>
  <marker id="marker9188" refY="0" refX="0" overflow="visible" orient="auto">
   <path id="path9190" d="m5.77 0-8.65 5v-10l8.65 5z" fill-rule="evenodd" transform="scale(.8)" stroke="#00f" stroke-width="1pt" fill="#00f"/>
  </marker>
  <marker id="marker9030" refY="0" refX="0" orient="auto" overflow="visible">
   <path id="path9032" d="m5.77 0-8.65 5v-10l8.65 5z" fill-rule="evenodd" transform="scale(.8)" stroke="#00f" stroke-width="1pt" fill="#00f"/>
  </marker>
  <marker id="Arrow2Mstart" refY="0" refX="0" overflow="visible" orient="auto">
   <path id="path8218" stroke-linejoin="round" d="m8.7186 4.0337-10.926-4.0177 10.926-4.0177c-1.7455 2.3721-1.7354 5.6175-6e-7 8.0354z" fill-rule="evenodd" transform="scale(.6)" stroke="#000" stroke-width=".625"/>
  </marker>
  <marker id="Arrow2Mend" refY="0" refX="0" overflow="visible" orient="auto">
   <path id="path8221" stroke-linejoin="round" d="m8.7186 4.0337-10.926-4.0177 10.926-4.0177c-1.7455 2.3721-1.7354 5.6175-6e-7 8.0354z" fill-rule="evenodd" transform="scale(-.6)" stroke="#000" stroke-width=".625"/>
  </marker>
 </defs>
 <metadata id="metadata7562">
  <rdf:RDF>
   <cc:Work rdf:about="">
    <dc:format>image/svg+xml</dc:format>
    <dc:type rdf:resource="http://purl.org/dc/dcmitype/StillImage"/>
    <dc:title/>
   </cc:Work>
  </rdf:RDF>
 </metadata>
 <g id="layer1" transform="translate(-157.97 -245.85)">
  <g fill="none">
   <g stroke-width="1px">
    <path id="path8188" marker-end="url(#Arrow2Mend)" d="m565 442.36h-290v-190" marker-start="url(#Arrow2Mstart)" stroke="#000"/>
    <path id="path8954" d="m305 267.36c0.3031-0.0758 11.588 46.114 20 75 4.2062 14.443 10.013 29.384 15 35 3.9885 4.4912 5.9257 5 10 5 5.9357 0.00001 15-5 25-40 3.2482-11.369 0.90662-4.1245 5-15 19.636-52.17 40.413-53.047 135-60" stroke="#000"/>
    <path id="path8994" marker-end="url(#marker9030)" d="m320 312.36h20" stroke="#00f"/>
    <path id="path8996" marker-end="url(#marker9188)" d="m382 312.36h-15" stroke="#00f"/>
    <path id="path9234" d="m275 342.36h200" stroke="#f00"/>
   </g>
   <g stroke="#000">
    <path id="path9236" d="m325 342.36v100" stroke-dasharray="2, 2"/>
    <path id="path9238" d="m375 342.36v100" stroke-dasharray="2, 2"/>
    <path id="path9240" d="m350 382.36v60" stroke-dasharray="3, 3"/>
   </g>
  </g>
  <g fill-rule="evenodd" fill="#ff7f2a">
   <path id="path9242" style="color-rendering:auto;text-decoration-color:#000000;color:#000000;isolation:auto;mix-blend-mode:normal;shape-rendering:auto;solid-color:#000000;block-progression:tb;text-decoration-line:none;text-decoration-style:solid;image-rendering:auto;white-space:normal;text-indent:0;text-transform:none" d="m339.5 379.36v61h1v-61z"/>
   <path id="path9380" d="m340 378.6 2 3.46h-4z" stroke="#ff7f2a" stroke-width=".4pt"/>
   <path id="path9382" d="m340 441.42-2-3.46h4z" stroke="#ff7f2a" stroke-width=".4pt"/>
  </g>
  <g fill-rule="evenodd" fill="#f0f">
   <path id="path9387" style="color-rendering:auto;text-decoration-color:#000000;color:#000000;isolation:auto;mix-blend-mode:normal;shape-rendering:auto;solid-color:#000000;block-progression:tb;text-decoration-line:none;text-decoration-style:solid;image-rendering:auto;white-space:normal;text-indent:0;text-transform:none" d="m339.5 346.36v27h1v-27z"/>
   <path id="path9547" d="m340 376.09-2-3.46h4z" stroke="#f0f" stroke-width=".4pt"/>
   <path id="path9549" d="m340 343.36 2 3.46h-4z" stroke="#f0f" stroke-width=".4pt"/>
  </g>
  <g fill-rule="evenodd" stroke="#000" stroke-miterlimit="10.433">
   <g id="content" xml:space="preserve" ns0:pdfconverter="pstoedit" transform="matrix(1.75 0 0 -1.75 -3.5916 1510.1)" ns0:text="$U$" ns0:version="0.7.2" ns0:inkscapeversion="0.91" ns0:preamble="/usr/share/inkscape/extensions/default_packages.tex" ns0:scale="1.4" ns0:texconverter="pdflatex"><path id="path9594" stroke-width="0" d="m156.33 713.63h-1.98v-0.16c0.32-0.03 0.42-0.05 0.54-0.13 0.1-0.06 0.17-0.2 0.17-0.33 0-0.16-0.26-1.17-0.74-2.86-0.04-0.13-0.08-0.3-0.13-0.49-0.18-0.64-0.33-1.04-0.55-1.38-0.39-0.62-0.93-0.93-1.62-0.93-0.83 0-1.4 0.48-1.4 1.18 0 0.34 0.31 1.54 0.98 3.84 0.02 0.07 0.04 0.14 0.05 0.19 0.21 0.7 0.37 0.84 1.05 0.91v0.16h-2.72v-0.16c0.66-0.06 0.77-0.12 0.77-0.41 0-0.12-0.03-0.28-0.07-0.45l-0.53-1.91c-0.29-1.08-0.42-1.71-0.42-2.11 0-0.96 0.91-1.65 2.17-1.65 1.3 0 2.13 0.71 2.57 2.21l0.82 2.83c0.38 1.3 0.42 1.35 1.04 1.49z"/></g>
   <g id="g9676" xml:space="preserve" ns0:pdfconverter="pstoedit" transform="matrix(1.75 0 0 -1.75 -1.7366 1585.5)" ns0:text="$E$" ns0:version="0.7.2" ns0:inkscapeversion="0.91" ns0:preamble="/usr/share/inkscape/extensions/default_packages.tex" ns0:scale="1.4" ns0:texconverter="pdflatex"><path id="path9678" d="m155.27 713.63h-4.95v-0.16c0.62-0.06 0.77-0.14 0.77-0.41 0-0.11-0.06-0.46-0.11-0.64l-1.22-4.4c-0.17-0.57-0.25-0.64-0.81-0.74v-0.16h5.05l0.62 1.62-0.16 0.08c-0.47-0.64-0.73-0.9-1.16-1.1-0.37-0.17-1.04-0.27-1.79-0.27-0.56 0-0.8 0.1-0.8 0.34 0 0.11 0.11 0.58 0.36 1.45 0.13 0.44 0.22 0.77 0.32 1.15 0.35-0.02 0.66-0.03 0.77-0.03 0.39 0.01 0.67-0.05 0.78-0.15 0.05-0.05 0.07-0.14 0.07-0.31s-0.02-0.3-0.07-0.52l0.2-0.05 0.68 2.32-0.18 0.03c-0.38-0.84-0.47-0.9-1.38-0.94-0.11 0-0.43-0.01-0.78-0.02l0.66 2.32c0.06 0.22 0.16 0.26 0.72 0.26 1.57 0 1.92-0.13 1.92-0.73 0-0.13-0.01-0.28-0.02-0.45l0.2-0.02z" stroke-width="0"/></g>
   <g id="g9764" xml:space="preserve" ns0:pdfconverter="pstoedit" transform="matrix(1.75 0 0 -1.75 -97.27 1629.9)" ns0:text="$\n\\boxed{E = E_{\\text{cin}} + U}\n$" ns0:version="0.7.2" ns0:inkscapeversion="0.91" ns0:preamble="/usr/share/inkscape/extensions/default_packages.tex" ns0:scale="1.4" ns0:texconverter="pdflatex"><line id="line9766" stroke-width=".398" y2="716.82" y1="716.82" x2="208.41" x1="148.71"/><line id="line9768" stroke-width=".398" y2="716.62" y1="702.57" x2="148.91" x1="148.91"/><g stroke-width="0"><path id="path9770" d="m158.66 713.63h-4.95v-0.16c0.62-0.06 0.77-0.14 0.77-0.41 0-0.11-0.06-0.46-0.11-0.64l-1.22-4.4c-0.17-0.57-0.25-0.64-0.81-0.74v-0.16h5.05l0.62 1.62-0.16 0.08c-0.47-0.64-0.73-0.9-1.16-1.1-0.37-0.17-1.04-0.27-1.79-0.27-0.56 0-0.8 0.1-0.8 0.34 0 0.11 0.11 0.58 0.36 1.45 0.13 0.44 0.22 0.77 0.32 1.15 0.35-0.02 0.66-0.03 0.77-0.03 0.39 0.01 0.67-0.05 0.78-0.15 0.05-0.05 0.07-0.14 0.07-0.31s-0.02-0.3-0.07-0.52l0.2-0.05 0.68 2.32-0.18 0.03c-0.38-0.84-0.47-0.9-1.38-0.94-0.11 0-0.43-0.01-0.78-0.02l0.66 2.32c0.06 0.22 0.17 0.26 0.72 0.26 1.57 0 1.92-0.13 1.92-0.73 0-0.13-0.01-0.28-0.02-0.45l0.2-0.02z"/><polygon id="polygon9772" points="162.29 710.97 162.29 710.41 167.4 710.41 167.4 710.97"/><polygon id="polygon9774" points="162.29 708.95 162.29 708.39 167.4 708.39 167.4 708.95"/><path id="path9776" d="m177.35 713.63h-4.95v-0.16c0.62-0.06 0.77-0.14 0.77-0.41 0-0.11-0.06-0.46-0.11-0.64l-1.22-4.4c-0.18-0.57-0.25-0.64-0.81-0.74v-0.16h5.05l0.62 1.62-0.16 0.08c-0.47-0.64-0.73-0.9-1.16-1.1-0.37-0.17-1.04-0.27-1.79-0.27-0.56 0-0.8 0.1-0.8 0.34 0 0.11 0.11 0.58 0.36 1.45 0.13 0.44 0.22 0.77 0.32 1.15 0.35-0.02 0.66-0.03 0.77-0.03 0.39 0.01 0.67-0.05 0.78-0.15 0.05-0.05 0.07-0.14 0.07-0.31s-0.02-0.3-0.07-0.52l0.2-0.05 0.68 2.32-0.18 0.03c-0.38-0.84-0.47-0.9-1.37-0.94-0.12 0-0.44-0.01-0.79-0.02l0.66 2.32c0.05 0.22 0.16 0.26 0.72 0.26 1.57 0 1.92-0.13 1.92-0.73 0-0.13-0.01-0.28-0.02-0.45l0.2-0.02z"/><path id="path9778" d="m180.14 706.72-0.03-0.05-0.03-0.04-0.03-0.04-0.03-0.04-0.03-0.04-0.03-0.03-0.03-0.04-0.03-0.03-0.02-0.03-0.03-0.03-0.03-0.03-0.03-0.02-0.03-0.03-0.03-0.02-0.03-0.02-0.03-0.02-0.02-0.02-0.03-0.02-0.03-0.01-0.03-0.02-0.03-0.01-0.03-0.01-0.03-0.01-0.04-0.01-0.03-0.01-0.03-0.01-0.03-0.01h-0.04-0.03l-0.04-0.01h-0.03-0.04c-0.64 0-1.08 0.56-1.08 1.36 0 0.72 0.38 1.22 0.95 1.22 0.25 0 0.34-0.08 0.41-0.34l0.04-0.15c0.06-0.2 0.18-0.32 0.33-0.32 0.18 0 0.33 0.13 0.33 0.29 0 0.39-0.49 0.72-1.07 0.72-0.34 0-0.7-0.14-0.98-0.39-0.35-0.31-0.55-0.78-0.55-1.34 0-0.9 0.55-1.55 1.33-1.55 0.31 0 0.59 0.11 0.84 0.33 0.19 0.16 0.32 0.35 0.53 0.77z"/><path id="path9780" d="m181.68 708.84-1.08-0.39v-0.1l0.06 0.01c0.08 0.01 0.18 0.02 0.24 0.02 0.17 0 0.23-0.11 0.23-0.42v-1.62c0-0.5-0.07-0.58-0.55-0.61v-0.1h1.65v0.1c-0.46 0.04-0.52 0.11-0.52 0.61v2.48z"/><path id="path9782" d="m181.36 710.39h-0.02-0.02-0.01-0.02l-0.02-0.01h-0.01l-0.02-0.01-0.02-0.01h-0.01l-0.02-0.01-0.01-0.01-0.02-0.01-0.01-0.01-0.01-0.01-0.02-0.01-0.01-0.01-0.01-0.01-0.01-0.02-0.01-0.01-0.01-0.01-0.01-0.02-0.01-0.01-0.01-0.02v-0.01l-0.01-0.02v-0.02l-0.01-0.01v-0.02l-0.01-0.02v-0.02-0.01-0.02c0-0.2 0.15-0.36 0.35-0.36s0.36 0.16 0.36 0.36c0 0.19-0.16 0.35-0.36 0.35z"/><path id="path9784" d="m182.52 708.41h0.01 0.01l0.01 0.01h0.01 0.01 0.01l0.01 0.01h0.01 0.01 0.02 0.01 0.01 0.02 0.01 0.01 0.02c0.19 0 0.25-0.1 0.25-0.44v-1.73c0-0.4-0.07-0.5-0.43-0.53v-0.1h1.48v0.1c-0.35 0.03-0.46 0.12-0.46 0.37v1.96c0.34 0.31 0.49 0.39 0.72 0.39 0.34 0 0.51-0.21 0.51-0.67v-1.46c0-0.44-0.09-0.56-0.44-0.59v-0.1h1.45v0.1c-0.34 0.04-0.43 0.12-0.43 0.47v1.59c0 0.66-0.3 1.05-0.82 1.05-0.32 0-0.53-0.12-1.01-0.57v0.55l-0.05 0.02c-0.34-0.13-0.58-0.2-0.96-0.32z"/><polygon id="polygon9786" points="189.22 709.96 189.22 709.4 191.49 709.4 191.49 707.12 192.05 707.12 192.05 709.4 194.32 709.4 194.32 709.96 192.05 709.96 192.05 712.21 191.49 712.21 191.49 709.96"/><path id="path9788" d="m204.77 713.63h-1.98v-0.16c0.32-0.03 0.42-0.05 0.54-0.13 0.1-0.06 0.17-0.2 0.17-0.33 0-0.16-0.26-1.17-0.74-2.86-0.04-0.13-0.08-0.3-0.13-0.49-0.18-0.64-0.33-1.04-0.55-1.38-0.38-0.62-0.92-0.93-1.62-0.93-0.83 0-1.39 0.48-1.39 1.18 0 0.34 0.3 1.54 0.97 3.84 0.02 0.07 0.04 0.14 0.05 0.19 0.21 0.7 0.37 0.84 1.05 0.91v0.16h-2.72v-0.16c0.67-0.06 0.78-0.12 0.78-0.41 0-0.12-0.04-0.28-0.08-0.45l-0.52-1.91c-0.3-1.08-0.43-1.71-0.43-2.11 0-0.96 0.92-1.65 2.17-1.65 1.31 0 2.13 0.71 2.57 2.21l0.83 2.83c0.38 1.3 0.42 1.35 1.03 1.49z"/></g><line id="line9790" stroke-width=".398" y2="716.62" y1="702.57" x2="208.21" x1="208.21"/><line id="line9792" stroke-width=".398" y2="702.37" y1="702.37" x2="208.41" x1="148.71"/></g>
  </g>
  <path id="path9850" marker-end="url(#marker9852)" d="m258 350.62-36.997 21.453" stroke="#000" stroke-width="1px" fill="none"/>
  <text id="text9948" style="word-spacing:0px;letter-spacing:0px" xml:space="preserve" font-size="16px" line-height="125%" y="415.74561" x="174.92653" font-family="&apos;STIX Two Text&apos;" fill="#000000"><tspan id="tspan9950" x="174.92653" y="415.74561">La energía</tspan><tspan id="tspan9952" x="174.92653" y="435.74561">se conserva.</tspan></text>
  <g fill-rule="evenodd" stroke="#000" stroke-miterlimit="10.433">
   <g id="g10180" xml:space="preserve" stroke-width="0" ns0:pdfconverter="pstoedit" transform="matrix(1.75 0 0 -1.75 65.819 1545.5)" ns0:text="$\\vec{F}$" ns0:version="0.7.2" ns0:inkscapeversion="0.91" ns0:preamble="/usr/share/inkscape/extensions/default_packages.tex" ns0:scale="1.4" ns0:texconverter="pdflatex"><polygon id="polygon10182" points="154.42 713.79 156.09 715.23 155.03 716.67 154.74 716.43 155.28 715.43 151.96 715.43 151.87 715.03 155.2 715.03 154.23 714.03"/><path id="path10184" d="m155.38 713.63h-4.96v-0.16c0.65-0.06 0.77-0.12 0.77-0.41 0-0.15-0.04-0.4-0.11-0.64l-1.23-4.4c-0.17-0.6-0.25-0.66-0.81-0.74v-0.16h2.51v0.16c-0.58 0.03-0.76 0.14-0.76 0.44 0 0.08 0.03 0.23 0.09 0.45l0.62 2.22c0.37-0.02 0.59-0.03 0.8-0.03 0.39 0 0.46-0.01 0.55-0.05 0.15-0.08 0.22-0.21 0.22-0.41 0-0.16-0.02-0.28-0.08-0.59l0.17-0.05 0.76 2.34-0.18 0.05c-0.45-0.9-0.48-0.91-2.15-0.93l0.65 2.32c0.06 0.2 0.2 0.26 0.61 0.26 1.68 0 2.03-0.13 2.03-0.75v-0.24c-0.01-0.06-0.01-0.07-0.03-0.19l0.22-0.02z"/></g>
   <g id="g10336" xml:space="preserve" stroke-width="0" ns0:pdfconverter="pstoedit" transform="matrix(1.75 0 0 -1.75 110.7 1545.5)" ns0:text="$\\vec{F}$" ns0:version="0.7.2" ns0:inkscapeversion="0.91" ns0:preamble="/usr/share/inkscape/extensions/default_packages.tex" ns0:scale="1.4" ns0:texconverter="pdflatex"><polygon id="polygon10338" points="151.96 715.43 151.87 715.03 155.2 715.03 154.23 714.03 154.42 713.79 156.09 715.23 155.03 716.67 154.74 716.43 155.28 715.43"/><path id="path10340" d="m155.38 713.63h-4.96v-0.16c0.65-0.06 0.77-0.12 0.77-0.41 0-0.15-0.04-0.4-0.11-0.64l-1.23-4.4c-0.17-0.6-0.25-0.66-0.81-0.74v-0.16h2.51v0.16c-0.58 0.03-0.76 0.14-0.76 0.44 0 0.08 0.03 0.23 0.09 0.45l0.62 2.22c0.37-0.02 0.59-0.03 0.8-0.03 0.39 0 0.46-0.01 0.55-0.05 0.15-0.08 0.22-0.21 0.22-0.41 0-0.16-0.02-0.28-0.08-0.59l0.17-0.05 0.76 2.34-0.18 0.05c-0.45-0.9-0.48-0.91-2.15-0.93l0.65 2.32c0.06 0.2 0.2 0.26 0.61 0.26 1.68 0 2.03-0.13 2.03-0.75v-0.24c-0.01-0.06-0.01-0.07-0.03-0.19l0.22-0.02z"/></g>
   <g id="g4276" xml:space="preserve" stroke-width="0" ns0:pdfconverter="pstoedit" transform="matrix(1.75 0 0 -1.75 81.756 1600.7)" ns0:text="\\footnotesize\n$E_{\\text{cin}}$" ns0:version="0.7.2" ns0:inkscapeversion="0.91" ns0:preamble="/usr/share/inkscape/extensions/default_packages.tex" ns0:scale="1.4" ns0:texconverter="pdflatex"><path id="path4278" d="m153.97 712.33h-3.97v-0.13c0.5-0.05 0.62-0.11 0.62-0.33 0-0.09-0.05-0.36-0.09-0.51l-0.98-3.52c-0.14-0.45-0.2-0.51-0.65-0.59v-0.13h4.05l0.49 1.29-0.13 0.07c-0.37-0.51-0.58-0.72-0.92-0.88-0.3-0.13-0.84-0.21-1.44-0.21-0.44 0-0.63 0.08-0.63 0.27 0 0.08 0.08 0.46 0.28 1.16 0.11 0.35 0.18 0.61 0.26 0.92 0.28-0.02 0.52-0.03 0.62-0.03 0.31 0.01 0.53-0.04 0.62-0.12 0.04-0.04 0.06-0.11 0.06-0.24 0-0.14-0.02-0.24-0.06-0.42l0.16-0.04 0.54 1.85-0.14 0.03c-0.3-0.68-0.38-0.72-1.1-0.75-0.1 0-0.35-0.01-0.63-0.02l0.53 1.86c0.04 0.17 0.13 0.2 0.58 0.2 1.25 0 1.53-0.1 1.53-0.58 0-0.1-0.01-0.22-0.02-0.36l0.17-0.01z"/><path id="path4280" d="m156.36 706.79-0.02-0.04-0.03-0.04-0.03-0.03-0.02-0.04-0.03-0.03-0.02-0.03-0.03-0.03-0.02-0.03-0.03-0.02-0.02-0.03-0.03-0.02-0.02-0.02-0.03-0.02-0.02-0.02-0.02-0.02-0.03-0.02-0.02-0.02-0.03-0.01-0.02-0.01-0.03-0.02-0.03-0.01-0.02-0.01-0.03-0.01-0.03-0.01h-0.02l-0.03-0.01h-0.03l-0.03-0.01h-0.03-0.03-0.03-0.03c-0.54 0-0.93 0.47-0.93 1.16 0 0.62 0.33 1.04 0.81 1.04 0.22 0 0.3-0.06 0.36-0.29l0.03-0.13c0.05-0.16 0.16-0.27 0.28-0.27 0.16 0 0.29 0.11 0.29 0.25 0 0.33-0.42 0.61-0.92 0.61-0.29 0-0.6-0.12-0.84-0.33-0.3-0.26-0.47-0.67-0.47-1.14 0-0.78 0.47-1.34 1.14-1.34 0.27 0 0.51 0.1 0.72 0.29 0.16 0.14 0.28 0.3 0.46 0.65z"/><path id="path4282" d="m157.68 708.6-0.92-0.32v-0.09h0.04c0.08 0.01 0.15 0.02 0.21 0.02 0.14 0 0.2-0.1 0.2-0.36v-1.38c0-0.44-0.06-0.5-0.48-0.52v-0.1h1.42v0.1c-0.39 0.02-0.44 0.08-0.44 0.52v2.12z"/><path id="path4284" d="m157.4 709.94h-0.01-0.02l-0.01-0.01h-0.02-0.01l-0.01-0.01h-0.02l-0.01-0.01h-0.02l-0.01-0.01-0.01-0.01h-0.01l-0.01-0.01-0.02-0.01-0.01-0.01-0.01-0.01-0.01-0.01-0.01-0.01-0.01-0.02v-0.01l-0.01-0.01-0.01-0.01-0.01-0.02v-0.01l-0.01-0.01v-0.02l-0.01-0.01v-0.02-0.01-0.02l-0.01-0.01v-0.02c0-0.16 0.14-0.3 0.3-0.3 0.18 0 0.31 0.13 0.31 0.3s-0.13 0.31-0.31 0.31z"/><path id="path4286" d="m158.39 708.23v0.01h0.01 0.01 0.01v0.01h0.01 0.01 0.01 0.01 0.01l0.01 0.01h0.01 0.01 0.02 0.01 0.01 0.01c0.17 0 0.22-0.09 0.22-0.38v-1.49c0-0.34-0.06-0.42-0.37-0.44v-0.1h1.27v0.1c-0.3 0.02-0.4 0.09-0.4 0.31v1.67c0.29 0.27 0.42 0.35 0.62 0.35 0.29 0 0.44-0.19 0.44-0.58v-1.25c0-0.38-0.08-0.48-0.38-0.5v-0.1h1.24v0.1c-0.29 0.02-0.36 0.1-0.36 0.39v1.37c0 0.56-0.26 0.89-0.71 0.89-0.27 0-0.46-0.1-0.86-0.48v0.47l-0.04 0.01c-0.3-0.1-0.5-0.17-0.83-0.26z"/></g>
   <g id="g4438" xml:space="preserve" ns0:pdfconverter="pstoedit" transform="matrix(1.75 0 0 -1.75 67.399 1651.8)" ns0:text="\\footnotesize\n$U$" ns0:version="0.7.2" ns0:inkscapeversion="0.91" ns0:preamble="/usr/share/inkscape/extensions/default_packages.tex" ns0:scale="1.4" ns0:texconverter="pdflatex"><path id="path4440" stroke-width="0" d="m154.81 712.33h-1.59v-0.13c0.26-0.02 0.34-0.04 0.43-0.1 0.08-0.05 0.14-0.16 0.14-0.27 0-0.12-0.21-0.94-0.59-2.29-0.04-0.1-0.07-0.23-0.11-0.38-0.14-0.52-0.26-0.84-0.44-1.11-0.31-0.5-0.74-0.74-1.29-0.74-0.66 0-1.12 0.38-1.12 0.94 0 0.27 0.25 1.23 0.78 3.07 0.02 0.06 0.03 0.11 0.04 0.15 0.17 0.56 0.3 0.67 0.84 0.73v0.13h-2.18v-0.13c0.54-0.05 0.62-0.1 0.62-0.33 0-0.09-0.02-0.22-0.05-0.36l-0.42-1.53c-0.24-0.86-0.35-1.37-0.35-1.69 0-0.76 0.74-1.31 1.74-1.31 1.04 0 1.71 0.56 2.06 1.76l0.66 2.27c0.3 1.04 0.33 1.08 0.83 1.19z"/></g>
   <g id="g4596" xml:space="preserve" stroke-width="0" ns0:pdfconverter="pstoedit" transform="matrix(1.75 0 0 -1.75 57.845 1691.5)" ns0:text="$x_1$" ns0:version="0.7.2" ns0:inkscapeversion="0.91" ns0:preamble="/usr/share/inkscape/extensions/default_packages.tex" ns0:scale="1.4" ns0:texconverter="pdflatex"><path id="path4598" d="m153.22 708.23-0.02-0.02-0.01-0.01-0.01-0.02-0.02-0.01-0.01-0.02-0.01-0.01-0.02-0.02-0.01-0.01-0.01-0.02-0.01-0.02-0.02-0.01-0.01-0.02-0.01-0.01-0.01-0.01v-0.01l-0.01-0.01-0.01-0.01-0.01-0.01v-0.01l-0.01-0.01c-0.23-0.3-0.35-0.4-0.46-0.4-0.15 0-0.24 0.13-0.31 0.41-0.02 0.08-0.03 0.14-0.04 0.17-0.25 1.01-0.36 1.46-0.36 1.61 0.44 0.77 0.8 1.21 0.98 1.21 0.06 0 0.14-0.03 0.24-0.08 0.12-0.07 0.19-0.09 0.27-0.09 0.21 0 0.35 0.15 0.35 0.36s-0.17 0.37-0.41 0.37c-0.44 0-0.82-0.36-1.51-1.43l-0.11 0.55c-0.14 0.68-0.25 0.88-0.52 0.88-0.21 0-0.55-0.09-1.16-0.29l-0.11-0.04 0.04-0.15c0.38 0.09 0.47 0.11 0.56 0.11 0.25 0 0.31-0.09 0.45-0.69l0.28-1.23-0.81-1.16c-0.2-0.3-0.4-0.48-0.51-0.48-0.06 0-0.16 0.03-0.26 0.09-0.13 0.07-0.24 0.1-0.32 0.1-0.19 0-0.34-0.15-0.34-0.35 0-0.26 0.2-0.42 0.5-0.42 0.31 0 0.43 0.09 0.93 0.7 0.27 0.32 0.48 0.59 0.89 1.17l0.3-1.2c0.13-0.51 0.26-0.67 0.58-0.67 0.38 0 0.64 0.24 1.22 1.14z"/><path id="path4600" d="m155.67 710.34-1.26-0.63v-0.1c0.08 0.04 0.16 0.06 0.19 0.08 0.13 0.05 0.24 0.08 0.31 0.08 0.15 0 0.21-0.11 0.21-0.33v-3.16c0-0.23-0.05-0.39-0.16-0.45-0.11-0.07-0.21-0.09-0.5-0.1v-0.1h1.92v0.1c-0.55 0.01-0.66 0.08-0.66 0.42v4.18z"/></g>
   <g id="g4762" xml:space="preserve" stroke-width="0" ns0:pdfconverter="pstoedit" transform="matrix(1.75 0 0 -1.75 82.338 1691.5)" ns0:text="$x_0$" ns0:version="0.7.2" ns0:inkscapeversion="0.91" ns0:preamble="/usr/share/inkscape/extensions/default_packages.tex" ns0:scale="1.4" ns0:texconverter="pdflatex"><path id="path4764" d="m153.22 708.23-0.02-0.02-0.01-0.01-0.01-0.02-0.02-0.01-0.01-0.02-0.01-0.01-0.02-0.02-0.01-0.01-0.01-0.02-0.01-0.02-0.02-0.01-0.01-0.02-0.01-0.01-0.01-0.01v-0.01l-0.01-0.01-0.01-0.01-0.01-0.01v-0.01l-0.01-0.01c-0.23-0.3-0.35-0.4-0.46-0.4-0.15 0-0.24 0.13-0.31 0.41-0.02 0.08-0.03 0.14-0.04 0.17-0.25 1.01-0.36 1.46-0.36 1.61 0.44 0.77 0.8 1.21 0.98 1.21 0.06 0 0.14-0.03 0.24-0.08 0.12-0.07 0.19-0.09 0.27-0.09 0.21 0 0.35 0.15 0.35 0.36s-0.17 0.37-0.41 0.37c-0.44 0-0.82-0.36-1.51-1.43l-0.11 0.55c-0.14 0.68-0.25 0.88-0.52 0.88-0.21 0-0.55-0.09-1.16-0.29l-0.11-0.04 0.04-0.15c0.38 0.09 0.47 0.11 0.56 0.11 0.25 0 0.31-0.09 0.45-0.69l0.28-1.23-0.81-1.16c-0.2-0.3-0.4-0.48-0.51-0.48-0.06 0-0.16 0.03-0.26 0.09-0.13 0.07-0.24 0.1-0.32 0.1-0.19 0-0.34-0.15-0.34-0.35 0-0.26 0.2-0.42 0.5-0.42 0.31 0 0.43 0.09 0.93 0.7 0.27 0.32 0.48 0.59 0.89 1.17l0.3-1.2c0.13-0.51 0.26-0.67 0.58-0.67 0.38 0 0.64 0.24 1.22 1.14z"/><path id="path4766" d="m155.41 710.34h-0.04-0.03-0.04-0.03-0.03l-0.04-0.01h-0.03l-0.03-0.01h-0.03l-0.04-0.01-0.03-0.01-0.03-0.01h-0.03l-0.03-0.01-0.03-0.01-0.03-0.02-0.02-0.01-0.03-0.01-0.03-0.01-0.03-0.02-0.03-0.01-0.02-0.02-0.03-0.01-0.03-0.02-0.02-0.02-0.03-0.01-0.02-0.02-0.03-0.02-0.02-0.02-0.03-0.02-0.02-0.03-0.03-0.02c-0.4-0.39-0.67-1.19-0.67-2.01 0-0.76 0.24-1.57 0.56-1.96 0.26-0.31 0.62-0.48 1.02-0.48v0.18c-0.6 0-0.91 0.75-0.91 2.2 0 1.48 0.32 2.25 0.92 2.25 0.58 0 0.9-0.78 0.9-2.24s-0.31-2.21-0.91-2.21v-0.18c0.36 0 0.66 0.12 0.91 0.37 0.4 0.38 0.67 1.19 0.67 2.03 0 1.43-0.64 2.41-1.55 2.41z"/></g>
   <g id="g4934" xml:space="preserve" stroke-width="0" ns0:pdfconverter="pstoedit" transform="matrix(1.75 0 0 -1.75 107.35 1691.5)" ns0:text="$x_2$" ns0:version="0.7.2" ns0:inkscapeversion="0.91" ns0:preamble="/usr/share/inkscape/extensions/default_packages.tex" ns0:scale="1.4" ns0:texconverter="pdflatex"><path id="path4936" d="m153.22 708.23-0.02-0.02-0.01-0.01-0.01-0.02-0.02-0.01-0.01-0.02-0.01-0.01-0.02-0.02-0.01-0.01-0.01-0.02-0.01-0.02-0.02-0.01-0.01-0.02-0.01-0.01-0.01-0.01v-0.01l-0.01-0.01-0.01-0.01-0.01-0.01v-0.01l-0.01-0.01c-0.23-0.3-0.35-0.4-0.46-0.4-0.15 0-0.24 0.13-0.31 0.41-0.02 0.08-0.03 0.14-0.04 0.17-0.25 1.01-0.36 1.46-0.36 1.61 0.44 0.77 0.8 1.21 0.98 1.21 0.06 0 0.14-0.03 0.24-0.08 0.12-0.07 0.19-0.09 0.27-0.09 0.21 0 0.35 0.15 0.35 0.36s-0.17 0.37-0.41 0.37c-0.44 0-0.82-0.36-1.51-1.43l-0.11 0.55c-0.14 0.68-0.25 0.88-0.52 0.88-0.21 0-0.55-0.09-1.16-0.29l-0.11-0.04 0.04-0.15c0.38 0.09 0.47 0.11 0.56 0.11 0.25 0 0.31-0.09 0.45-0.69l0.28-1.23-0.81-1.16c-0.2-0.3-0.4-0.48-0.51-0.48-0.06 0-0.16 0.03-0.26 0.09-0.13 0.07-0.24 0.1-0.32 0.1-0.19 0-0.34-0.15-0.34-0.35 0-0.26 0.2-0.42 0.5-0.42 0.31 0 0.43 0.09 0.93 0.7 0.27 0.32 0.48 0.59 0.89 1.17l0.3-1.2c0.13-0.51 0.26-0.67 0.58-0.67 0.38 0 0.64 0.24 1.22 1.14z"/><path id="path4938" d="m156.95 706.59-0.09 0.03c-0.26-0.4-0.35-0.46-0.66-0.46h-1.67l1.17 1.23c0.62 0.65 0.89 1.18 0.89 1.72 0 0.7-0.56 1.23-1.29 1.23-0.38 0-0.74-0.15-1-0.43-0.22-0.24-0.33-0.46-0.45-0.95l0.15-0.04c0.28 0.68 0.53 0.91 1.01 0.91 0.59 0 0.98-0.4 0.98-0.99 0-0.54-0.32-1.19-0.9-1.81l-1.24-1.32v-0.08h2.72z"/></g>
  </g>
  <path id="path5025" marker-end="url(#marker5287)" d="m345 477.36 3-16" stroke="#000" stroke-width="1px" fill="none"/>
  <text id="text5310" style="word-spacing:0px;letter-spacing:0px" font-size="16px" line-height="125%" y="489.24997" x="326.56024" font-family="&apos;STIX Two Text&apos;" xml:space="preserve" fill="#000000"><tspan id="tspan5312" y="489.24997" x="326.56024">Punto de</tspan><tspan id="tspan5314" y="509.24997" x="326.56024">equilibrio</tspan></text>
  <g id="g5409" xml:space="preserve" stroke="#000" fill-rule="evenodd" ns0:pdfconverter="pstoedit" transform="matrix(1.75 0 0 -1.75 286.53 1691.5)" stroke-miterlimit="10.433" ns0:text="$x$" ns0:version="0.7.2" ns0:inkscapeversion="0.91" ns0:preamble="/usr/share/inkscape/extensions/default_packages.tex" ns0:scale="1.4" ns0:texconverter="pdflatex"><path id="path5411" stroke-width="0" d="m153.22 708.23-0.02-0.02-0.01-0.01-0.01-0.02-0.02-0.01-0.01-0.02-0.01-0.01-0.02-0.02-0.01-0.01-0.01-0.02-0.01-0.02-0.02-0.01-0.01-0.02-0.01-0.01-0.01-0.01v-0.01l-0.01-0.01-0.01-0.01-0.01-0.01v-0.01l-0.01-0.01c-0.23-0.3-0.35-0.4-0.46-0.4-0.15 0-0.24 0.13-0.31 0.41-0.02 0.08-0.03 0.14-0.04 0.17-0.25 1.01-0.36 1.46-0.36 1.61 0.44 0.77 0.8 1.21 0.98 1.21 0.06 0 0.14-0.03 0.24-0.08 0.12-0.07 0.19-0.09 0.27-0.09 0.21 0 0.35 0.15 0.35 0.36s-0.17 0.37-0.41 0.37c-0.44 0-0.82-0.36-1.51-1.43l-0.11 0.55c-0.14 0.68-0.25 0.88-0.52 0.88-0.21 0-0.55-0.09-1.16-0.29l-0.11-0.04 0.04-0.15c0.38 0.09 0.47 0.11 0.56 0.11 0.25 0 0.31-0.09 0.45-0.69l0.28-1.23-0.81-1.16c-0.2-0.3-0.4-0.48-0.51-0.48-0.06 0-0.16 0.03-0.26 0.09-0.13 0.07-0.24 0.1-0.32 0.1-0.19 0-0.34-0.15-0.34-0.35 0-0.26 0.2-0.42 0.5-0.42 0.31 0 0.43 0.09 0.93 0.7 0.27 0.32 0.48 0.59 0.89 1.17l0.3-1.2c0.13-0.51 0.26-0.67 0.58-0.67 0.38 0 0.64 0.24 1.22 1.14z"/></g>
 </g>
</svg>
