<?xml version="1.0" encoding="UTF-8" standalone="no"?>
<!-- Created with Inkscape (http://www.inkscape.org/) -->
<svg id="svg2" xmlns:rdf="http://www.w3.org/1999/02/22-rdf-syntax-ns#" xmlns="http://www.w3.org/2000/svg" xmlns:ns0="http://www.iki.fi/pav/software/textext/" height="136" width="311" version="1.1" xmlns:cc="http://creativecommons.org/ns#" viewBox="0 0 311.00003 136" xmlns:dc="http://purl.org/dc/elements/1.1/">
 <metadata id="metadata7">
  <rdf:RDF>
   <cc:Work rdf:about="">
    <dc:format>image/svg+xml</dc:format>
    <dc:type rdf:resource="http://purl.org/dc/dcmitype/StillImage"/>
    <dc:title/>
   </cc:Work>
  </rdf:RDF>
 </metadata>
 <g id="layer1" transform="translate(-44.5 -56.862)">
  <path id="path4199" d="m287.5 62.362v125" stroke="#808080" stroke-width="1px" fill="none"/>
  <g stroke="#000">
   <rect id="rect4138" stroke-linejoin="round" stroke-opacity=".94118" height="125" width="125" y="62.362" x="50" fill="none"/>
   <g id="content" xml:space="preserve" stroke-width="0" fill-rule="evenodd" ns0:pdfconverter="pstoedit" transform="matrix(1.75 0 0 -1.75 -178.6 1358.6)" stroke-miterlimit="10.433" ns0:text="$\n\\begin{array}{c}\nP, V, T \\\\\nm, \\rho\n\\end{array}\n$" ns0:version="0.7.2" ns0:inkscapeversion="0.91" ns0:preamble="/usr/share/inkscape/extensions/default_packages.tex" ns0:scale="1.4" ns0:texconverter="pdflatex"><path id="path4148" d="m155.4 715.07 0.03-0.01h0.02l0.05-0.01h0.05l0.04-0.01 0.05-0.01 0.04-0.01h0.03l0.04-0.01 0.03-0.01 0.04-0.01 0.03-0.01 0.02-0.01 0.03-0.01 0.02-0.01 0.03-0.01 0.02-0.01 0.02-0.01 0.01-0.02 0.02-0.01 0.01-0.01 0.02-0.02 0.01-0.01 0.01-0.02 0.01-0.02v-0.01l0.01-0.02 0.01-0.02v-0.02-0.02l0.01-0.03v-0.02-0.02c0-0.14-0.04-0.35-0.17-0.8l-1.18-4.23c-0.18-0.6-0.25-0.66-0.81-0.74v-0.16h2.44v0.16c-0.63 0.09-0.68 0.12-0.68 0.46 0 0.12 0.02 0.22 0.12 0.58l0.53 1.92 0.09 0.34 0.7 2.47c0.06 0.21 0.18 0.28 0.46 0.28 0.39 0 0.77-0.1 0.97-0.24 0.26-0.18 0.37-0.48 0.37-0.95 0-0.65-0.23-1.1-0.67-1.36-0.31-0.17-0.7-0.25-1.32-0.25-0.17 0-0.25 0.01-0.51 0.05l-0.09-0.34c0.24-0.06 0.5-0.08 0.91-0.08 0.82 0 1.49 0.17 1.91 0.48 0.5 0.36 0.79 0.91 0.79 1.5 0 0.96-0.74 1.49-2.1 1.49h-2.47z"/><path id="path4150" d="m160.87 708.78v0.04 0.04l-0.01 0.03v0.04 0.03l-0.01 0.03v0.04l-0.01 0.03v0.03l-0.01 0.03-0.01 0.03-0.01 0.03-0.01 0.02-0.01 0.03-0.01 0.02-0.01 0.03-0.01 0.02-0.01 0.02-0.02 0.05-0.03 0.04-0.03 0.04-0.03 0.03-0.03 0.03-0.03 0.03-0.03 0.03-0.03 0.02-0.04 0.02-0.03 0.02-0.03 0.02-0.04 0.02-0.03 0.01-0.03 0.01-0.04 0.01-0.03 0.01-0.03 0.01h-0.03l-0.03 0.01h-0.03-0.02l-0.03 0.01h-0.02c-0.25 0-0.58-0.15-0.58-0.58 0-0.4 0.36-0.5 0.62-0.5 0.07 0 0.12 0.01 0.15 0.02 0.04 0.01 0.07 0.02 0.09 0.02 0.07 0 0.14-0.05 0.14-0.14 0-0.19-0.16-0.64-0.82-1.05l0.09-0.19c0.3 0.09 1.12 0.75 1.12 1.46z"/><path id="path4152" d="m169.93 715.23h-1.86v-0.16c0.45-0.05 0.63-0.15 0.63-0.34s-0.19-0.62-0.52-1.19l-2.05-3.55-0.66 4.42c-0.01 0.05-0.01 0.09-0.01 0.15 0 0.34 0.14 0.44 0.77 0.51v0.16h-2.4v-0.16c0.56-0.07 0.58-0.1 0.79-1.35l0.84-5.18h0.19l3.72 6.13c0.17 0.27 0.33 0.39 0.56 0.4z"/><path id="path4154" d="m170.22 708.78v0.04 0.04 0.03l-0.01 0.04v0.03 0.03l-0.01 0.04-0.01 0.03v0.03l-0.01 0.03-0.01 0.03v0.03l-0.01 0.02-0.01 0.03-0.01 0.02-0.01 0.03-0.01 0.02-0.02 0.02-0.02 0.05-0.03 0.04-0.02 0.04-0.03 0.03-0.03 0.03-0.04 0.03-0.03 0.03-0.03 0.02-0.03 0.02-0.04 0.02-0.03 0.02-0.03 0.02-0.04 0.01-0.03 0.01-0.03 0.01-0.04 0.01-0.03 0.01h-0.03l-0.03 0.01h-0.02-0.03l-0.02 0.01h-0.03c-0.25 0-0.57-0.15-0.57-0.58 0-0.4 0.35-0.5 0.61-0.5 0.07 0 0.12 0.01 0.15 0.02 0.04 0.01 0.07 0.02 0.09 0.02 0.07 0 0.14-0.05 0.14-0.14 0-0.19-0.16-0.64-0.82-1.05l0.09-0.19c0.3 0.09 1.12 0.75 1.12 1.46z"/><path id="path4156" d="m178.73 715.23h-5.3l-0.42-1.54 0.18-0.04c0.53 1.08 0.85 1.25 2.37 1.23l-1.43-5.26c-0.16-0.53-0.4-0.69-1.06-0.74v-0.16h2.89v0.16c-0.17 0.01-0.32 0.03-0.38 0.03-0.4 0.03-0.51 0.12-0.51 0.42 0 0.13 0.03 0.25 0.11 0.59l1.39 4.96h0.55c0.72 0 1.03-0.25 1.03-0.81 0-0.13-0.01-0.28-0.03-0.45l0.17-0.02z"/><path id="path4158" d="m165.08 697.93-0.02-0.02-0.02-0.02-0.02-0.02-0.01-0.02-0.01-0.01-0.01-0.01-0.01-0.01-0.01-0.01v-0.01l-0.01-0.01-0.01-0.01v-0.01l-0.01-0.01-0.01-0.01-0.01-0.01-0.01-0.01-0.01-0.01v-0.01h-0.01v-0.01-0.01h-0.01v-0.01h-0.01v-0.01c-0.28-0.36-0.49-0.53-0.64-0.53-0.08 0-0.13 0.06-0.13 0.16 0 0.05 0.04 0.21 0.1 0.45l0.68 2.5c0.01 0.04 0.03 0.22 0.03 0.28 0 0.36-0.25 0.63-0.59 0.63-0.19 0-0.39-0.07-0.63-0.22-0.49-0.32-0.9-0.8-1.58-1.89 0.25 0.75 0.4 1.32 0.4 1.51 0 0.35-0.23 0.6-0.57 0.6-0.61 0-1.31-0.66-2.22-2.1l0.57 2.08-0.03 0.02c-0.55-0.12-0.76-0.16-1.59-0.31v-0.16h0.25c0.26 0 0.39-0.07 0.39-0.22 0-0.11-0.23-1.01-0.59-2.28-0.23-0.82-0.26-0.92-0.39-1.42h0.75c0.48 1.58 0.63 1.95 0.97 2.47 0.55 0.84 1.15 1.4 1.49 1.4 0.13 0 0.2-0.09 0.2-0.25 0-0.09-0.32-1.29-0.95-3.62h0.75c0.4 1.55 0.6 2.05 1.11 2.76 0.48 0.67 0.98 1.11 1.27 1.11 0.11 0 0.2-0.1 0.2-0.21 0-0.05-0.02-0.17-0.07-0.35l-0.58-2.29c-0.09-0.37-0.13-0.56-0.13-0.66 0-0.29 0.14-0.46 0.4-0.46 0.47 0 0.91 0.33 1.44 1.07l0.05 0.07z"/><path id="path4160" d="m167.35 696.83v0.03 0.04l-0.01 0.04v0.03 0.04l-0.01 0.03v0.03l-0.01 0.03v0.03l-0.01 0.03-0.01 0.03-0.01 0.03-0.01 0.03-0.01 0.02-0.01 0.03-0.01 0.02-0.01 0.03-0.01 0.02-0.02 0.04-0.03 0.04-0.03 0.04-0.03 0.04-0.03 0.03-0.03 0.03-0.03 0.02-0.03 0.03-0.04 0.02-0.03 0.02-0.03 0.02-0.04 0.01-0.03 0.02-0.03 0.01-0.04 0.01-0.03 0.01h-0.03l-0.03 0.01h-0.03l-0.03 0.01h-0.02-0.03-0.02c-0.25 0-0.58-0.15-0.58-0.58 0-0.4 0.36-0.49 0.62-0.49 0.07 0 0.12 0.01 0.15 0.01 0.04 0.01 0.07 0.02 0.09 0.02 0.07 0 0.14-0.04 0.14-0.13 0-0.19-0.16-0.64-0.82-1.06l0.09-0.19c0.3 0.1 1.12 0.76 1.12 1.47z"/><path id="path4162" d="m174.37 699.65v0.05 0.04l-0.01 0.05v0.05l-0.01 0.06-0.01 0.06-0.01 0.05-0.02 0.06-0.02 0.07-0.02 0.06-0.02 0.06-0.03 0.06-0.03 0.07-0.03 0.06-0.04 0.06-0.04 0.06-0.04 0.06-0.05 0.06-0.05 0.05-0.06 0.06-0.06 0.05-0.06 0.05-0.07 0.04-0.07 0.05-0.08 0.03-0.04 0.02-0.05 0.02-0.04 0.01-0.05 0.02-0.04 0.01-0.05 0.01-0.05 0.01-0.05 0.01-0.05 0.01-0.05 0.01h-0.06l-0.06 0.01h-0.05-0.06l-0.16-0.24c0.84 0 0.94-0.89 0.94-1.29 0-0.73-0.42-2.71-1.8-2.71-0.86 0-0.94 1.01-0.94 1.22 0 0.76 0.4 2.78 1.8 2.78l0.16 0.24c-1.4 0-2.37-0.98-2.76-2.62l-0.42-1.78c-0.07-0.32-0.32-1.26-0.73-2.06h1.01l0.64 2.32h0.01c0-0.01 0.23-0.36 1.01-0.36 1.54 0 2.77 1.52 2.77 2.99z"/></g>
   <rect id="rect4197" stroke-linejoin="round" stroke-opacity=".94118" height="125" width="125" y="62.362" x="225" fill="none"/>
   <g id="g4219" xml:space="preserve" stroke-width="0" fill-rule="evenodd" ns0:pdfconverter="pstoedit" transform="matrix(1.75 0 0 -1.75 -39.938 1358.6)" stroke-miterlimit="10.433" ns0:text="$\n\\begin{array}{c}\n  P, V_{A}, T \\\\\n  m_{A}, \\rho\n\\end{array}\n$" ns0:version="0.7.2" ns0:inkscapeversion="0.91" ns0:preamble="/usr/share/inkscape/extensions/default_packages.tex" ns0:scale="1.4" ns0:texconverter="pdflatex"><path id="path4221" d="m155.4 715.07 0.03-0.01h0.02l0.05-0.01h0.05l0.04-0.01 0.05-0.01 0.04-0.01h0.03l0.04-0.01 0.03-0.01 0.04-0.01 0.03-0.01 0.02-0.01 0.03-0.01 0.02-0.01 0.03-0.01 0.02-0.01 0.02-0.01 0.01-0.02 0.02-0.01 0.01-0.01 0.02-0.02 0.01-0.01 0.01-0.02 0.01-0.02v-0.01l0.01-0.02 0.01-0.02v-0.02-0.02l0.01-0.03v-0.02-0.02c0-0.14-0.04-0.35-0.17-0.8l-1.18-4.23c-0.18-0.6-0.25-0.66-0.81-0.74v-0.16h2.44v0.16c-0.63 0.09-0.68 0.12-0.68 0.46 0 0.12 0.02 0.22 0.12 0.58l0.53 1.92 0.09 0.34 0.7 2.47c0.06 0.21 0.18 0.28 0.46 0.28 0.39 0 0.77-0.1 0.97-0.24 0.26-0.18 0.37-0.48 0.37-0.95 0-0.65-0.23-1.1-0.67-1.36-0.31-0.17-0.7-0.25-1.32-0.25-0.17 0-0.25 0.01-0.51 0.05l-0.09-0.34c0.24-0.06 0.5-0.08 0.91-0.08 0.82 0 1.49 0.17 1.91 0.48 0.5 0.36 0.79 0.91 0.79 1.5 0 0.96-0.74 1.49-2.1 1.49h-2.47z"/><path id="path4223" d="m160.87 708.78v0.04 0.04l-0.01 0.03v0.04 0.03l-0.01 0.03v0.04l-0.01 0.03v0.03l-0.01 0.03-0.01 0.03-0.01 0.03-0.01 0.02-0.01 0.03-0.01 0.02-0.01 0.03-0.01 0.02-0.01 0.02-0.02 0.05-0.03 0.04-0.03 0.04-0.03 0.03-0.03 0.03-0.03 0.03-0.03 0.03-0.03 0.02-0.04 0.02-0.03 0.02-0.03 0.02-0.04 0.02-0.03 0.01-0.03 0.01-0.04 0.01-0.03 0.01-0.03 0.01h-0.03l-0.03 0.01h-0.03-0.02l-0.03 0.01h-0.02c-0.25 0-0.58-0.15-0.58-0.58 0-0.4 0.36-0.5 0.62-0.5 0.07 0 0.12 0.01 0.15 0.02 0.04 0.01 0.07 0.02 0.09 0.02 0.07 0 0.14-0.05 0.14-0.14 0-0.19-0.16-0.64-0.82-1.05l0.09-0.19c0.3 0.09 1.12 0.75 1.12 1.46z"/><path id="path4225" d="m169.93 715.23h-1.86v-0.16c0.45-0.05 0.63-0.15 0.63-0.34s-0.19-0.62-0.52-1.19l-2.05-3.55-0.66 4.42c-0.01 0.05-0.01 0.09-0.01 0.15 0 0.34 0.14 0.44 0.77 0.51v0.16h-2.4v-0.16c0.56-0.07 0.58-0.1 0.79-1.35l0.84-5.18h0.19l3.72 6.13c0.17 0.27 0.33 0.39 0.56 0.4z"/><path id="path4227" d="m173.27 707.34h-0.04l-0.03 0.01h-0.03-0.04l-0.02 0.01h-0.03l-0.03 0.01-0.02 0.01h-0.02l-0.02 0.01-0.02 0.01-0.02 0.01-0.02 0.01-0.01 0.01-0.02 0.02-0.01 0.01-0.01 0.02-0.02 0.01-0.01 0.02-0.01 0.02-0.01 0.03-0.01 0.02-0.01 0.03-0.01 0.03-0.01 0.03v0.03l-0.01 0.03-0.01 0.04v0.02l-0.01 0.02v0.02l-0.01 0.02v0.02 0.02l-0.01 0.03v0.02l-0.66 3.95h-0.18l-2.02-3.49c-0.55-0.93-0.62-1-0.9-1.06v-0.11h1.3v0.11c-0.35 0.03-0.41 0.07-0.41 0.24 0 0.14 0.02 0.2 0.14 0.44l0.4 0.78h1.53l-0.03 0.25h-1.36l1.05 1.82 0.31-1.82 0.03-0.25 0.14-0.91c0.01-0.06 0.02-0.12 0.02-0.18 0-0.27-0.1-0.33-0.55-0.37v-0.11h1.72z"/><path id="path4229" d="m176.04 708.78v0.04 0.04 0.03l-0.01 0.04v0.03 0.03l-0.01 0.04-0.01 0.03v0.03l-0.01 0.03-0.01 0.03v0.03l-0.01 0.02-0.01 0.03-0.01 0.02-0.01 0.03-0.01 0.02-0.02 0.02-0.02 0.05-0.03 0.04-0.02 0.04-0.03 0.03-0.03 0.03-0.04 0.03-0.03 0.03-0.03 0.02-0.03 0.02-0.04 0.02-0.03 0.02-0.03 0.02-0.04 0.01-0.03 0.01-0.03 0.01-0.04 0.01-0.03 0.01h-0.03l-0.03 0.01h-0.02-0.03l-0.02 0.01h-0.03c-0.25 0-0.58-0.15-0.58-0.58 0-0.4 0.36-0.5 0.62-0.5 0.07 0 0.12 0.01 0.15 0.02 0.04 0.01 0.07 0.02 0.09 0.02 0.07 0 0.14-0.05 0.14-0.14 0-0.19-0.16-0.64-0.81-1.05l0.08-0.19c0.3 0.09 1.12 0.75 1.12 1.46z"/><path id="path4231" d="m184.55 715.23h-5.3l-0.42-1.54 0.18-0.04c0.53 1.08 0.85 1.25 2.37 1.23l-1.43-5.26c-0.16-0.53-0.4-0.69-1.06-0.74v-0.16h2.89v0.16c-0.17 0.01-0.32 0.03-0.38 0.03-0.39 0.03-0.52 0.12-0.52 0.42 0 0.13 0.03 0.25 0.13 0.59l1.38 4.96h0.55c0.71 0 1.03-0.25 1.03-0.81 0-0.13-0.01-0.28-0.03-0.45l0.17-0.02z"/><path id="path4233" d="m165.52 697.93-0.02-0.02-0.02-0.02-0.01-0.02-0.02-0.02-0.01-0.01-0.01-0.01-0.01-0.01v-0.01l-0.01-0.01-0.01-0.01v-0.01l-0.01-0.01-0.01-0.01v-0.01h-0.01l-0.01-0.01v-0.01h-0.01v-0.01l-0.01-0.01-0.01-0.01v-0.01h-0.01v-0.01h-0.01v-0.01c-0.28-0.36-0.49-0.53-0.64-0.53-0.08 0-0.13 0.06-0.13 0.16 0 0.05 0.04 0.21 0.1 0.45l0.68 2.5c0.01 0.04 0.03 0.22 0.03 0.28 0 0.36-0.25 0.63-0.59 0.63-0.19 0-0.39-0.07-0.63-0.22-0.48-0.32-0.89-0.8-1.58-1.89 0.25 0.75 0.4 1.32 0.4 1.51 0 0.35-0.23 0.6-0.57 0.6-0.61 0-1.3-0.66-2.22-2.1l0.58 2.08-0.03 0.02c-0.56-0.12-0.77-0.16-1.6-0.31v-0.16h0.25c0.26 0 0.39-0.07 0.39-0.22 0-0.11-0.23-1.01-0.59-2.28-0.23-0.82-0.26-0.92-0.39-1.42h0.75c0.48 1.58 0.63 1.95 0.97 2.47 0.56 0.84 1.15 1.4 1.49 1.4 0.13 0 0.2-0.09 0.2-0.25 0-0.09-0.32-1.29-0.94-3.62h0.74c0.4 1.55 0.6 2.05 1.11 2.76 0.49 0.67 0.98 1.11 1.27 1.11 0.11 0 0.2-0.1 0.2-0.21 0-0.05-0.02-0.17-0.07-0.35l-0.58-2.29c-0.08-0.37-0.12-0.56-0.12-0.66 0-0.29 0.14-0.46 0.39-0.46 0.47 0 0.91 0.33 1.44 1.07l0.05 0.07z"/><path id="path4235" d="m169.96 695.38-0.04 0.01h-0.03-0.03l-0.03 0.01h-0.03l-0.03 0.01h-0.02l-0.03 0.01-0.02 0.01-0.02 0.01-0.02 0.01-0.02 0.01-0.01 0.01-0.02 0.01-0.02 0.01-0.01 0.02-0.01 0.01-0.01 0.02-0.02 0.02-0.01 0.02-0.01 0.02-0.01 0.03-0.01 0.02v0.03l-0.01 0.03-0.01 0.03-0.01 0.04-0.01 0.03v0.02 0.02l-0.01 0.02v0.02l-0.01 0.03v0.02 0.02l-0.01 0.02-0.66 3.95h-0.18l-2.02-3.49c-0.55-0.92-0.62-1-0.9-1.06v-0.11h1.31v0.11c-0.36 0.04-0.42 0.07-0.42 0.25 0 0.13 0.03 0.19 0.14 0.43l0.4 0.79h1.54l-0.04 0.25h-1.35l1.04 1.81 0.31-1.81 0.04-0.25 0.13-0.92c0.01-0.06 0.02-0.12 0.02-0.18 0-0.26-0.1-0.32-0.55-0.37v-0.11h1.72z"/><path id="path4237" d="m172.73 696.83-0.01 0.03v0.04 0.04 0.03l-0.01 0.04v0.03 0.03l-0.01 0.03-0.01 0.03v0.03l-0.01 0.03-0.01 0.03-0.01 0.03-0.01 0.02-0.01 0.03-0.01 0.02-0.01 0.03-0.01 0.02-0.03 0.04-0.02 0.04-0.03 0.04-0.03 0.04-0.03 0.03-0.03 0.03-0.03 0.02-0.04 0.03-0.03 0.02-0.03 0.02-0.04 0.02-0.03 0.01-0.03 0.02-0.04 0.01-0.03 0.01-0.03 0.01h-0.03l-0.03 0.01h-0.03l-0.03 0.01h-0.03-0.02-0.02c-0.25 0-0.58-0.15-0.58-0.58 0-0.4 0.36-0.49 0.62-0.49 0.07 0 0.12 0.01 0.15 0.01 0.04 0.01 0.07 0.02 0.09 0.02 0.07 0 0.14-0.04 0.14-0.13 0-0.19-0.16-0.64-0.82-1.06l0.09-0.19c0.3 0.1 1.12 0.76 1.12 1.47z"/><path id="path4239" d="m179.75 699.65v0.05 0.04l-0.01 0.05v0.05l-0.01 0.06-0.01 0.06-0.02 0.05-0.01 0.06-0.02 0.07-0.02 0.06-0.02 0.06-0.03 0.06-0.03 0.07-0.03 0.06-0.04 0.06-0.04 0.06-0.04 0.06-0.05 0.06-0.05 0.05-0.06 0.06-0.06 0.05-0.06 0.05-0.07 0.04-0.08 0.05-0.08 0.03-0.04 0.02-0.04 0.02-0.04 0.01-0.05 0.02-0.05 0.01-0.04 0.01-0.05 0.01-0.05 0.01-0.05 0.01-0.06 0.01h-0.05l-0.06 0.01h-0.06-0.06l-0.15-0.24c0.84 0 0.93-0.89 0.93-1.29 0-0.73-0.42-2.71-1.79-2.71-0.87 0-0.94 1.01-0.94 1.22 0 0.76 0.4 2.78 1.8 2.78l0.15 0.24c-1.39 0-2.37-0.98-2.75-2.62l-0.42-1.78c-0.07-0.32-0.32-1.26-0.73-2.06h1.01l0.63 2.32h0.01c0-0.01 0.24-0.36 1.02-0.36 1.53 0 2.77 1.52 2.77 2.99z"/></g>
   <g id="g4319" xml:space="preserve" stroke-width="0" fill-rule="evenodd" ns0:pdfconverter="pstoedit" transform="matrix(1.75 0 0 -1.75 23.686 1358.6)" stroke-miterlimit="10.433" ns0:text="$\n\\begin{array}{c}\n  P, V_{B}, T \\\\\n  m_{B}, \\rho\n\\end{array}\n$" ns0:version="0.7.2" ns0:inkscapeversion="0.91" ns0:preamble="/usr/share/inkscape/extensions/default_packages.tex" ns0:scale="1.4" ns0:texconverter="pdflatex"><path id="path4321" d="m155.4 715.07 0.03-0.01h0.02l0.05-0.01h0.05l0.04-0.01 0.05-0.01 0.04-0.01h0.03l0.04-0.01 0.03-0.01 0.04-0.01 0.03-0.01 0.02-0.01 0.03-0.01 0.02-0.01 0.03-0.01 0.02-0.01 0.02-0.01 0.01-0.02 0.02-0.01 0.01-0.01 0.02-0.02 0.01-0.01 0.01-0.02 0.01-0.02v-0.01l0.01-0.02 0.01-0.02v-0.02-0.02l0.01-0.03v-0.02-0.02c0-0.14-0.04-0.35-0.17-0.8l-1.18-4.23c-0.18-0.6-0.25-0.66-0.81-0.74v-0.16h2.44v0.16c-0.63 0.09-0.68 0.12-0.68 0.46 0 0.12 0.02 0.22 0.12 0.58l0.53 1.92 0.09 0.34 0.7 2.47c0.06 0.21 0.18 0.28 0.46 0.28 0.39 0 0.77-0.1 0.97-0.24 0.26-0.18 0.37-0.48 0.37-0.95 0-0.65-0.23-1.1-0.67-1.36-0.31-0.17-0.7-0.25-1.32-0.25-0.17 0-0.25 0.01-0.51 0.05l-0.09-0.34c0.24-0.06 0.5-0.08 0.91-0.08 0.82 0 1.49 0.17 1.91 0.48 0.5 0.36 0.79 0.91 0.79 1.5 0 0.96-0.74 1.49-2.1 1.49h-2.47z"/><path id="path4323" d="m160.87 708.78v0.04 0.04l-0.01 0.03v0.04 0.03l-0.01 0.03v0.04l-0.01 0.03v0.03l-0.01 0.03-0.01 0.03-0.01 0.03-0.01 0.02-0.01 0.03-0.01 0.02-0.01 0.03-0.01 0.02-0.01 0.02-0.02 0.05-0.03 0.04-0.03 0.04-0.03 0.03-0.03 0.03-0.03 0.03-0.03 0.03-0.03 0.02-0.04 0.02-0.03 0.02-0.03 0.02-0.04 0.02-0.03 0.01-0.03 0.01-0.04 0.01-0.03 0.01-0.03 0.01h-0.03l-0.03 0.01h-0.03-0.02l-0.03 0.01h-0.02c-0.25 0-0.58-0.15-0.58-0.58 0-0.4 0.36-0.5 0.62-0.5 0.07 0 0.12 0.01 0.15 0.02 0.04 0.01 0.07 0.02 0.09 0.02 0.07 0 0.14-0.05 0.14-0.14 0-0.19-0.16-0.64-0.82-1.05l0.09-0.19c0.3 0.09 1.12 0.75 1.12 1.46z"/><path id="path4325" d="m169.93 715.23h-1.86v-0.16c0.45-0.05 0.63-0.15 0.63-0.34s-0.19-0.62-0.52-1.19l-2.05-3.55-0.66 4.42c-0.01 0.05-0.01 0.09-0.01 0.15 0 0.34 0.14 0.44 0.77 0.51v0.16h-2.4v-0.16c0.56-0.07 0.58-0.1 0.79-1.35l0.84-5.18h0.19l3.72 6.13c0.17 0.27 0.33 0.39 0.56 0.4z"/><path id="path4327" d="m169.35 707.23h1.96c1.1 0 1.85 0.57 1.85 1.39 0 0.26-0.08 0.5-0.24 0.66-0.13 0.16-0.27 0.24-0.64 0.39 0.5 0.12 0.7 0.21 0.92 0.4 0.2 0.17 0.3 0.41 0.3 0.69 0 0.66-0.49 1.02-1.39 1.02l-0.13-0.21c0.56 0 0.82-0.23 0.82-0.75 0-0.4-0.17-0.71-0.47-0.87-0.24-0.14-0.57-0.19-1.2-0.19l-0.07-0.22c0.46 0 0.75-0.03 0.89-0.09 0.28-0.12 0.46-0.42 0.46-0.8 0-0.75-0.52-1.21-1.37-1.21-0.29 0-0.44 0.1-0.44 0.29 0 0.08 0.08 0.42 0.24 0.98 0.09 0.31 0.13 0.47 0.22 0.83l0.07 0.22 0.46 1.62c0.04 0.15 0.12 0.19 0.39 0.19l0.13 0.21h-1.8v-0.11c0.43-0.03 0.54-0.09 0.54-0.29 0-0.1-0.03-0.28-0.08-0.44l-0.86-3.09c-0.12-0.4-0.17-0.44-0.56-0.51z"/><path id="path4329" d="m176.04 708.78v0.04 0.04 0.03l-0.01 0.04v0.03 0.03l-0.01 0.04-0.01 0.03v0.03l-0.01 0.03-0.01 0.03v0.03l-0.01 0.02-0.01 0.03-0.01 0.02-0.01 0.03-0.01 0.02-0.02 0.02-0.02 0.05-0.03 0.04-0.02 0.04-0.03 0.03-0.03 0.03-0.04 0.03-0.03 0.03-0.03 0.02-0.03 0.02-0.04 0.02-0.03 0.02-0.03 0.02-0.04 0.01-0.03 0.01-0.03 0.01-0.04 0.01-0.03 0.01h-0.03l-0.03 0.01h-0.02-0.03l-0.02 0.01h-0.03c-0.25 0-0.58-0.15-0.58-0.58 0-0.4 0.36-0.5 0.62-0.5 0.07 0 0.12 0.01 0.15 0.02 0.04 0.01 0.07 0.02 0.09 0.02 0.07 0 0.14-0.05 0.14-0.14 0-0.19-0.16-0.64-0.81-1.05l0.08-0.19c0.3 0.09 1.12 0.75 1.12 1.46z"/><path id="path4331" d="m184.55 715.23h-5.3l-0.42-1.54 0.18-0.04c0.53 1.08 0.85 1.25 2.37 1.23l-1.43-5.26c-0.16-0.53-0.4-0.69-1.06-0.74v-0.16h2.89v0.16c-0.17 0.01-0.32 0.03-0.38 0.03-0.39 0.03-0.52 0.12-0.52 0.42 0 0.13 0.03 0.25 0.13 0.59l1.38 4.96h0.55c0.71 0 1.03-0.25 1.03-0.81 0-0.13-0.01-0.28-0.03-0.45l0.17-0.02z"/><path id="path4333" d="m165.52 697.93-0.02-0.02-0.02-0.02-0.01-0.02-0.02-0.02-0.01-0.01-0.01-0.01-0.01-0.01v-0.01l-0.01-0.01-0.01-0.01v-0.01l-0.01-0.01-0.01-0.01v-0.01h-0.01l-0.01-0.01v-0.01h-0.01v-0.01l-0.01-0.01-0.01-0.01v-0.01h-0.01v-0.01h-0.01v-0.01c-0.28-0.36-0.49-0.53-0.64-0.53-0.08 0-0.13 0.06-0.13 0.16 0 0.05 0.04 0.21 0.1 0.45l0.68 2.5c0.01 0.04 0.03 0.22 0.03 0.28 0 0.36-0.25 0.63-0.59 0.63-0.19 0-0.39-0.07-0.63-0.22-0.48-0.32-0.89-0.8-1.58-1.89 0.25 0.75 0.4 1.32 0.4 1.51 0 0.35-0.23 0.6-0.57 0.6-0.61 0-1.3-0.66-2.22-2.1l0.58 2.08-0.03 0.02c-0.56-0.12-0.77-0.16-1.6-0.31v-0.16h0.25c0.26 0 0.39-0.07 0.39-0.22 0-0.11-0.23-1.01-0.59-2.28-0.23-0.82-0.26-0.92-0.39-1.42h0.75c0.48 1.58 0.63 1.95 0.97 2.47 0.56 0.84 1.15 1.4 1.49 1.4 0.13 0 0.2-0.09 0.2-0.25 0-0.09-0.32-1.29-0.94-3.62h0.74c0.4 1.55 0.6 2.05 1.11 2.76 0.49 0.67 0.98 1.11 1.27 1.11 0.11 0 0.2-0.1 0.2-0.21 0-0.05-0.02-0.17-0.07-0.35l-0.58-2.29c-0.08-0.37-0.12-0.56-0.12-0.66 0-0.29 0.14-0.46 0.39-0.46 0.47 0 0.91 0.33 1.44 1.07l0.05 0.07z"/><path id="path4335" d="m166.04 695.27h1.97c1.09 0 1.84 0.57 1.84 1.4 0 0.25-0.08 0.5-0.23 0.65-0.14 0.16-0.28 0.25-0.64 0.4 0.49 0.12 0.69 0.2 0.92 0.4 0.19 0.16 0.3 0.4 0.3 0.68 0 0.66-0.5 1.03-1.4 1.03l-0.12-0.21c0.55 0 0.81-0.24 0.81-0.76 0-0.39-0.17-0.7-0.47-0.87-0.23-0.14-0.57-0.19-1.2-0.19l-0.06-0.22c0.45 0 0.74-0.03 0.88-0.08 0.29-0.12 0.46-0.43 0.46-0.8 0-0.76-0.51-1.22-1.37-1.22-0.29 0-0.44 0.11-0.44 0.3 0 0.08 0.08 0.41 0.24 0.97 0.09 0.32 0.13 0.47 0.23 0.83l0.06 0.22 0.46 1.62c0.04 0.16 0.12 0.2 0.4 0.2l0.12 0.21h-1.8v-0.11c0.43-0.04 0.54-0.1 0.54-0.29 0-0.11-0.03-0.28-0.08-0.45l-0.86-3.08c-0.12-0.4-0.17-0.45-0.56-0.52z"/><path id="path4337" d="m172.73 696.83-0.01 0.03v0.04 0.04 0.03l-0.01 0.04v0.03 0.03l-0.01 0.03-0.01 0.03v0.03l-0.01 0.03-0.01 0.03-0.01 0.03-0.01 0.02-0.01 0.03-0.01 0.02-0.01 0.03-0.01 0.02-0.03 0.04-0.02 0.04-0.03 0.04-0.03 0.04-0.03 0.03-0.03 0.03-0.03 0.02-0.04 0.03-0.03 0.02-0.03 0.02-0.04 0.02-0.03 0.01-0.03 0.02-0.04 0.01-0.03 0.01-0.03 0.01h-0.03l-0.03 0.01h-0.03l-0.03 0.01h-0.03-0.02-0.02c-0.25 0-0.58-0.15-0.58-0.58 0-0.4 0.36-0.49 0.62-0.49 0.07 0 0.12 0.01 0.15 0.01 0.04 0.01 0.07 0.02 0.09 0.02 0.07 0 0.14-0.04 0.14-0.13 0-0.19-0.16-0.64-0.82-1.06l0.09-0.19c0.3 0.1 1.12 0.76 1.12 1.47z"/><path id="path4339" d="m179.75 699.65v0.05 0.04l-0.01 0.05v0.05l-0.01 0.06-0.01 0.06-0.02 0.05-0.01 0.06-0.02 0.07-0.02 0.06-0.02 0.06-0.03 0.06-0.03 0.07-0.03 0.06-0.04 0.06-0.04 0.06-0.04 0.06-0.05 0.06-0.05 0.05-0.06 0.06-0.06 0.05-0.06 0.05-0.07 0.04-0.08 0.05-0.08 0.03-0.04 0.02-0.04 0.02-0.04 0.01-0.05 0.02-0.05 0.01-0.04 0.01-0.05 0.01-0.05 0.01-0.05 0.01-0.06 0.01h-0.05l-0.06 0.01h-0.06-0.06l-0.15-0.24c0.84 0 0.93-0.89 0.93-1.29 0-0.73-0.42-2.71-1.79-2.71-0.87 0-0.94 1.01-0.94 1.22 0 0.76 0.4 2.78 1.8 2.78l0.15 0.24c-1.39 0-2.37-0.98-2.75-2.62l-0.42-1.78c-0.07-0.32-0.32-1.26-0.73-2.06h1.01l0.63 2.32h0.01c0-0.01 0.24-0.36 1.02-0.36 1.53 0 2.77 1.52 2.77 2.99z"/></g>
  </g>
 </g>
</svg>
