<?xml version="1.0" encoding="UTF-8" standalone="no"?>
<!-- Created with Inkscape (http://www.inkscape.org/) -->
<svg id="svg2" xmlns:rdf="http://www.w3.org/1999/02/22-rdf-syntax-ns#" xmlns="http://www.w3.org/2000/svg" xmlns:ns0="http://www.iki.fi/pav/software/textext/" height="235.82" width="234.81" version="1.1" xmlns:cc="http://creativecommons.org/ns#" viewBox="0 0 234.80747 235.8151" xmlns:dc="http://purl.org/dc/elements/1.1/">
 <style type="text/css">
	 @import url('../estilo.css');
 </style>
 <defs id="defs4">
  <marker id="TriangleInL" refY="0" refX="0" overflow="visible" orient="auto">
   <path id="path4286" d="m5.77 0-8.65 5v-10l8.65 5z" fill-rule="evenodd" transform="scale(-.8)" stroke="#000" stroke-width="1pt"/>
  </marker>
  <marker id="TriangleOutL" refY="0" refX="0" overflow="visible" orient="auto">
   <path id="path4295" d="m5.77 0-8.65 5v-10l8.65 5z" fill-rule="evenodd" transform="scale(.8)" stroke="#000" stroke-width="1pt"/>
  </marker>
  <marker id="marker5045" refY="0" refX="0" overflow="visible" orient="auto">
   <path id="path5047" stroke-linejoin="round" d="m8.7186 4.0337-10.926-4.0177 10.926-4.0177c-1.7455 2.3721-1.7354 5.6175-6e-7 8.0354z" fill-rule="evenodd" transform="matrix(-1.1,0,0,-1.1,-1.1,0)" stroke="#000" stroke-width=".625"/>
  </marker>
  <marker id="Arrow2Lend" refY="0" refX="0" overflow="visible" orient="auto">
   <path id="path4174" stroke-linejoin="round" d="m8.7186 4.0337-10.926-4.0177 10.926-4.0177c-1.7455 2.3721-1.7354 5.6175-6e-7 8.0354z" fill-rule="evenodd" transform="matrix(-1.1,0,0,-1.1,-1.1,0)" stroke="#000" stroke-width=".625"/>
  </marker>
 </defs>
 <metadata id="metadata7">
  <rdf:RDF>
   <cc:Work rdf:about="">
    <dc:format>image/svg+xml</dc:format>
    <dc:type rdf:resource="http://purl.org/dc/dcmitype/StillImage"/>
    <dc:title/>
   </cc:Work>
  </rdf:RDF>
 </metadata>
 <g id="layer1" transform="translate(-40.808 -31.747)">
  <g fill="none">
   <path id="path5213" d="m115 242.36v-50h-50" stroke="#b3b3b3" stroke-dasharray="6, 6"/>
   <path id="path5215" d="m220 242.36v-150h-155" stroke="#b3b3b3" stroke-dasharray="6, 6"/>
   <path id="rect4138" stroke-linejoin="round" marker-end="url(#TriangleOutL)" d="m265 242.36h-200v-200" marker-start="url(#TriangleInL)" stroke="#000"/>
  </g>
  <g font-size="16px" font-family="&apos;STIX Two Text&apos;" fill="#000000">
   <text id="text5251" style="word-spacing:0px;letter-spacing:0px" line-height="125%" y="207.11221" x="104.25" xml:space="preserve"><tspan id="tspan5253" y="207.11221" x="104.25">1</tspan></text>
   <text id="text5255" style="word-spacing:0px;letter-spacing:0px" line-height="125%" y="89.362198" x="225" xml:space="preserve"><tspan id="tspan5257" y="89.362198" x="225">2</tspan></text>
   <text id="text5259" style="word-spacing:0px;letter-spacing:0px" line-height="125%" y="123.3622" x="122" xml:space="preserve"><tspan id="tspan5261" y="123.3622" x="122">R</tspan></text>
   <text id="text5263" style="word-spacing:0px;letter-spacing:0px" line-height="125%" y="188.3622" x="188" xml:space="preserve"><tspan id="tspan5265" y="188.3622" x="188">I</tspan></text>
   <text id="text5267" style="word-spacing:0px;letter-spacing:0px" line-height="125%" y="259.36218" x="248" xml:space="preserve"><tspan id="tspan5269" font-style="italic" y="259.36218" x="248" font-family="&apos;STIX Two Text&apos;">X</tspan></text>
   <text id="text5271" style="word-spacing:0px;letter-spacing:0px" line-height="125%" y="59.362206" x="48" xml:space="preserve"><tspan id="tspan5273" font-style="italic" y="59.362206" x="48" font-family="&apos;STIX Two Text&apos;">Y</tspan></text>
   <text id="text5368" style="word-spacing:0px;letter-spacing:0px" xml:space="preserve" line-height="125%" y="259.36218" x="108.13105"><tspan id="tspan5370" x="108.13105" y="259.36218"><tspan id="tspan5372" font-family="&apos;STIX Two Text&apos;" font-style="italic">X</tspan><tspan id="tspan5374" dy="5" font-size="65%">1</tspan></tspan></text>
   <text id="text5376" style="word-spacing:0px;letter-spacing:0px" xml:space="preserve" line-height="125%" y="259.36218" x="212.93346"><tspan id="tspan5378" x="212.93346" y="259.36218"><tspan id="tspan5380" font-family="&apos;STIX Two Text&apos;" font-style="italic">X</tspan><tspan id="tspan5382" dy="5" font-size="65%">2</tspan></tspan></text>
   <text id="text6204" style="word-spacing:0px;letter-spacing:0px" xml:space="preserve" line-height="125%" y="196.0182" x="45.290852"><tspan id="tspan6206" x="45.290852" y="196.0182"><tspan id="tspan6208" font-family="&apos;STIX Two Text&apos;" font-style="italic">Y</tspan><tspan id="tspan6210" dy="5" font-size="65%">1</tspan></tspan></text>
   <text id="text6212" style="word-spacing:0px;letter-spacing:0px" xml:space="preserve" line-height="125%" y="96.018204" x="44.895649"><tspan id="tspan6214" x="44.895649" y="96.018204"><tspan id="tspan6218" font-family="&apos;STIX Two Text&apos;" font-style="italic">Y</tspan><tspan id="tspan6216" dy="5" font-size="65%">2</tspan></tspan></text>
  </g>
  <g stroke="#000">
   <g id="content" xml:space="preserve" fill="#f00" fill-rule="evenodd" ns0:pdfconverter="pstoedit" transform="matrix(1.75 0 0 -1.75 -149.36 1434.3)" stroke-miterlimit="10.433" ns0:text="$\\ast$" ns0:version="0.7.2" ns0:inkscapeversion="0.91" ns0:preamble="/usr/share/inkscape/extensions/default_packages.tex" ns0:scale="1.4" ns0:texconverter="pdflatex"><path id="path4191" d="m152.79 710.45-0.01 0.02v0.01 0.02 0.01 0.02l-0.01 0.01v0.02l-0.01 0.02-0.01 0.01v0.02l-0.01 0.01-0.01 0.01-0.01 0.02-0.01 0.01-0.01 0.02-0.01 0.01-0.01 0.01-0.01 0.01-0.01 0.01-0.01 0.01-0.02 0.01-0.01 0.01-0.01 0.01-0.02 0.01-0.01 0.01h-0.02l-0.01 0.01h-0.02-0.01l-0.02 0.01h-0.02-0.01c-0.23 0-1.05-0.82-1.34-0.99 0 0.56 0.28 1.12 0.28 1.46 0 0.21-0.14 0.34-0.35 0.34-0.2 0-0.32-0.14-0.32-0.34 0-0.39 0.24-0.92 0.24-1.46-0.32 0.19-1.09 1.03-1.3 1.03-0.18 0-0.34-0.17-0.34-0.35 0-0.35 1.17-0.59 1.56-0.81-0.42-0.24-1.19-0.36-1.39-0.48-0.1-0.08-0.18-0.17-0.18-0.29 0-0.18 0.14-0.34 0.32-0.34 0.23 0 1.03 0.8 1.33 0.97 0-0.55-0.28-1.1-0.28-1.45 0-0.2 0.15-0.34 0.35-0.34s0.32 0.15 0.32 0.34c0 0.41-0.23 0.93-0.23 1.45 0.31-0.18 1.1-1.01 1.3-1.01 0.18 0 0.33 0.17 0.33 0.35 0 0.13-0.09 0.21-0.18 0.28-0.26 0.16-0.95 0.27-1.38 0.52 0.47 0.28 1.11 0.32 1.39 0.49 0.11 0.06 0.19 0.15 0.19 0.28z" stroke-width="0" fill="#f00"/></g>
   <g id="g4200" xml:space="preserve" fill="#f00" fill-rule="evenodd" ns0:pdfconverter="pstoedit" transform="matrix(1.75 0 0 -1.75 -44.355 1334.3)" stroke-miterlimit="10.433" ns0:text="$\\ast$" ns0:version="0.7.2" ns0:inkscapeversion="0.91" ns0:preamble="/usr/share/inkscape/extensions/default_packages.tex" ns0:scale="1.4" ns0:texconverter="pdflatex"><path id="path4202" stroke-width="0" fill="#f00" d="m152.79 710.45-0.01 0.02v0.01 0.02 0.01 0.02l-0.01 0.01v0.02l-0.01 0.02-0.01 0.01v0.02l-0.01 0.01-0.01 0.01-0.01 0.02-0.01 0.01-0.01 0.02-0.01 0.01-0.01 0.01-0.01 0.01-0.01 0.01-0.01 0.01-0.02 0.01-0.01 0.01-0.01 0.01-0.02 0.01-0.01 0.01h-0.02l-0.01 0.01h-0.02-0.01l-0.02 0.01h-0.02-0.01c-0.23 0-1.05-0.82-1.34-0.99 0 0.56 0.28 1.12 0.28 1.46 0 0.21-0.14 0.34-0.35 0.34-0.2 0-0.32-0.14-0.32-0.34 0-0.39 0.24-0.92 0.24-1.46-0.32 0.19-1.09 1.03-1.3 1.03-0.18 0-0.34-0.17-0.34-0.35 0-0.35 1.17-0.59 1.56-0.81-0.42-0.24-1.19-0.36-1.39-0.48-0.1-0.08-0.18-0.17-0.18-0.29 0-0.18 0.14-0.34 0.32-0.34 0.23 0 1.03 0.8 1.33 0.97 0-0.55-0.28-1.1-0.28-1.45 0-0.2 0.15-0.34 0.35-0.34s0.32 0.15 0.32 0.34c0 0.41-0.23 0.93-0.23 1.45 0.31-0.18 1.1-1.01 1.3-1.01 0.18 0 0.33 0.17 0.33 0.35 0 0.13-0.09 0.21-0.18 0.28-0.26 0.16-0.95 0.27-1.38 0.52 0.47 0.28 1.11 0.32 1.39 0.49 0.11 0.06 0.19 0.15 0.19 0.28z"/></g>
   <path id="path4147" d="m115 192.36c3.7084-28.011 12.978-51.448 29.811-68.663 16.83-17.22 41.23-28.211 75.19-31.338" marker-mid="url(#Arrow2Lend)" stroke-width="1px" fill="none"/>
   <path id="path5029" d="m115 192.36c27.813-3.153 52.854-9.9391 71.545-25.044 18.7-15.11 31.04-38.53 33.46-74.958" marker-mid="url(#marker5045)" stroke-dasharray="3, 3" fill="none"/>
  </g>
 </g>
</svg>
