<?xml version="1.0" encoding="UTF-8" standalone="no"?>
<!-- Created with Inkscape (http://www.inkscape.org/) -->
<svg id="svg4146" xmlns:rdf="http://www.w3.org/1999/02/22-rdf-syntax-ns#" xmlns="http://www.w3.org/2000/svg" height="120" width="160.69" version="1.1" xmlns:cc="http://creativecommons.org/ns#" xmlns:dc="http://purl.org/dc/elements/1.1/" viewBox="0 0 160.68735 120">
 <style type="text/css">
	@import url('../estilo.css');
 </style>
 <defs id="defs4148">
  <marker id="marker4823" refY="0" refX="0" orient="auto" overflow="visible">
   <path id="path4825" stroke-linejoin="round" d="m8.7186 4.0337-10.926-4.0177 10.926-4.0177c-1.7455 2.3721-1.7354 5.6175-6e-7 8.0354z" fill-rule="evenodd" transform="scale(.6)" stroke="#000" stroke-width=".625"/>
  </marker>
  <marker id="Arrow2Mend" refY="0" refX="0" orient="auto" overflow="visible">
   <path id="path4353" stroke-linejoin="round" d="m8.7186 4.0337-10.926-4.0177 10.926-4.0177c-1.7455 2.3721-1.7354 5.6175-6e-7 8.0354z" fill-rule="evenodd" transform="scale(-.6)" stroke="#000" stroke-width=".625"/>
  </marker>
 </defs>
 <metadata id="metadata4151">
  <rdf:RDF>
   <cc:Work rdf:about="">
    <dc:format>image/svg+xml</dc:format>
    <dc:type rdf:resource="http://purl.org/dc/dcmitype/StillImage"/>
    <dc:title/>
   </cc:Work>
  </rdf:RDF>
 </metadata>
 <g id="layer1" transform="translate(-295 -472.36)">
  <g fill="none" stroke-width="1px">
   <path id="path4308" d="m300 532.36h150" stroke="#000"/>
   <path id="path4310" d="m375 587.36v-110" stroke="#000"/>
   <g stroke="#bebebe">
    <path id="path4312" d="m325 502.36c27.204-15.51 44.332 0.1786 51.088 1.2533 26.713 4.2496 22.308-9.9933 48.912-1.2533"/>
    <path id="path4314" d="m330 497.36v70"/>
    <path id="path4316" d="m325 562.36c14.468 9.1516 33.2-6.0191 50 0 15.168 10.459 34.522-0.9551 50 0"/>
    <path id="path4318" d="m420 497.36v70"/>
   </g>
  </g>
  <path id="path4320" style="color-rendering:auto;text-decoration-color:#000000;color:#000000;isolation:auto;mix-blend-mode:normal;shape-rendering:auto;solid-color:#000000;block-progression:tb;text-decoration-line:none;text-decoration-style:solid;image-rendering:auto;white-space:normal;text-indent:0;text-transform:none" d="m399.62 501.64-4.82 13.11c1.1642-0.83559 2.4897-1.3217 3.8418-1.4883v41.084c-1.3478-0.16441-2.6605-0.64973-3.8027-1.4902l4.8203 13.111 4.8223-13.111c-1.1637 0.83519-2.4884 1.3214-3.8398 1.4883v-41.084c1.3472 0.16466 2.6591 0.65013 3.8008 1.4902l-4.8203-13.111z" fill-rule="evenodd"/>
  <path id="path4873" marker-end="url(#Arrow2Mend)" d="m385 522.36h30" marker-start="url(#marker4823)" stroke="#000" stroke-width="1px" fill="none"/>
  <text id="text4905" style="word-spacing:0px;letter-spacing:0px" xml:space="preserve" font-size="16px" line-height="125%" y="543.23651" x="442.97534" font-family="&apos;STIX Two Text&apos;" fill="#000000"><tspan id="tspan4907" x="442.97534" y="543.23651">x</tspan></text>
  <text id="text4909" style="word-spacing:0px;letter-spacing:0px" xml:space="preserve" font-size="16px" line-height="125%" y="488.81024" x="378.09366" font-family="&apos;STIX Two Text&apos;" fill="#000000"><tspan id="tspan4911" x="378.09366" y="488.81024">y</tspan></text>
 </g>
</svg>
