<?xml version="1.0" encoding="UTF-8" standalone="no"?>
<!-- Created with Inkscape (http://www.inkscape.org/) -->
<svg id="svg9120" xmlns:rdf="http://www.w3.org/1999/02/22-rdf-syntax-ns#" xmlns="http://www.w3.org/2000/svg" height="110.4" width="160.3" version="1.1" xmlns:cc="http://creativecommons.org/ns#" xmlns:xlink="http://www.w3.org/1999/xlink" viewBox="0 0 160.3 110.4" xmlns:dc="http://purl.org/dc/elements/1.1/">
 <style type="text/css">
	@import url('../estilo.css');
 </style>
 <defs id="defs9122">
  <linearGradient id="linearGradient4158" y2="430.27" gradientUnits="userSpaceOnUse" x2="287.6" y1="364.42" x1="404.67">
   <stop id="stop4156" stop-color="#d3d3d3" stop-opacity="0" offset="0"/>
   <stop id="stop4158" stop-color="#d3d3d3" offset="1"/>
  </linearGradient>
 </defs>
 <metadata id="metadata9125">
  <rdf:RDF>
   <cc:Work rdf:about="">
    <dc:format>image/svg+xml</dc:format>
    <dc:type rdf:resource="http://purl.org/dc/dcmitype/StillImage"/>
    <dc:title/>
   </cc:Work>
  </rdf:RDF>
 </metadata>
 <g id="layer1" transform="translate(-234.7 -387.36)">
  <g stroke="#000" fill="none">
   <g stroke-width="1px">
    <path id="path9732" d="m240 492.36 60-45v-55"/>
    <path id="path9734" d="m300 447.36h90"/>
    <path id="path9739" d="m280 477.36h30c12.3-9.2844 31.789-8.2531 40-20h-30c-3.9816 8.6475-33.035 9.2428-40 20z"/>
   </g>
   <g stroke-dasharray="4, 4">
    <path id="path9741" d="m280 417.36v60"/>
    <path id="path9743" d="m310 427.36v50"/>
    <path id="path9745" d="m350 407.36v50"/>
    <path id="path9747" d="m320 397.36v60"/>
   </g>
  </g>
  <g>
   <path id="rect9736" d="m280 417.36c3.4879 9.5154 23.138-15.067 40-20 10.387 7.9779 20.203 9.0986 30 10-15.448 18.129-26.254 3.3683-40 20-20.647 11.652-25.205 0.65824-30-10z" stroke="#000" fill="url(#linearGradient4158)"/>
   <text id="text4151" style="word-spacing:0px;letter-spacing:0px" xml:space="preserve" font-size="16px" line-height="125%" y="411.04294" x="286.06326" font-family="&apos;STIX Two Text&apos;" fill="#000000"><tspan id="tspan4153" x="286.06326" y="411.04294">f</tspan></text>
   <text id="text4155" style="word-spacing:0px;letter-spacing:0px" xml:space="preserve" font-size="16px" line-height="125%" y="483.03992" x="328.2229" font-family="&apos;STIX Two Text&apos;" fill="#000000"><tspan id="tspan4157" x="328.2229" y="483.03992">S</tspan></text>
  </g>
 </g>
</svg>
