<?xml version="1.0" encoding="UTF-8" standalone="no"?>
<!-- Created with Inkscape (http://www.inkscape.org/) -->
<svg id="svg2" xmlns:rdf="http://www.w3.org/1999/02/22-rdf-syntax-ns#" xmlns="http://www.w3.org/2000/svg" xmlns:ns0="http://www.iki.fi/pav/software/textext/" height="160" width="209.44" version="1.1" xmlns:cc="http://creativecommons.org/ns#" xmlns:xlink="http://www.w3.org/1999/xlink" viewBox="0 0 209.43598 160" xmlns:dc="http://purl.org/dc/elements/1.1/">
 <style type="text/css">
	@import url('../estilo.css');
 </style>
 <defs id="defs4">
  <pattern id="pattern5739-644" xlink:href="#Strips1_5-931" patternTransform="matrix(.78496 .78496 -.78496 .78496 350.14 336.3)"/>
  <pattern id="Strips1_5-931" height="1" width="6" patternUnits="userSpaceOnUse" patternTransform="translate(0) scale(10)">
   <rect id="rect5748" height="2" width="1" y="-.5" x="0" fill="#d3d3d3"/>
  </pattern>
 </defs>
 <metadata id="metadata7">
  <rdf:RDF>
   <cc:Work rdf:about="">
    <dc:format>image/svg+xml</dc:format>
    <dc:type rdf:resource="http://purl.org/dc/dcmitype/StillImage"/>
    <dc:title/>
   </cc:Work>
  </rdf:RDF>
 </metadata>
 <g id="layer1" transform="translate(-142.81 -237.36)">
  <path id="path4290" d="m165 317.36h165" stroke="#000" stroke-width="1px" fill="none"/>
  <path id="path4292" d="m245 392.36v-150" stroke="#000" stroke-width="1px" fill="none"/>
  <g stroke="#000">
   <path id="rect4294" d="m190 272.36h115c-24.045 14.158 10.886 14.854 9.3012 32.967-2.0464 23.392-32.543 40.493-9.3012 62.033h-115c-12.864-11.082 0.44504-33.068 6.8609-46.32 9.6994-20.034-28.038-27.581-6.8609-48.68z" stroke-opacity=".66859" fill="url(#pattern5739-644)"/>
   <g id="content" xml:space="preserve" stroke-width="0" fill-rule="evenodd" ns0:pdfconverter="pstoedit" transform="matrix(1.75 0 0 -1.75 -112.92 1581.4)" stroke-miterlimit="10.433" ns0:text="$\n\\rm\ng_1(y)\n$" ns0:version="0.7.2" ns0:inkscapeversion="0.91" ns0:preamble="/usr/share/inkscape/extensions/default_packages.tex" ns0:scale="1.4" ns0:texconverter="pdflatex"><path id="path5842" d="m153.39 710.99v0.39h-0.77c-0.19 0-0.34 0.03-0.54 0.1l-0.22 0.08c-0.27 0.1-0.54 0.15-0.8 0.15-0.93 0-1.66-0.72-1.66-1.63 0-0.63 0.27-1 0.92-1.33-0.19-0.18-0.36-0.35-0.42-0.4-0.33-0.29-0.46-0.49-0.46-0.69 0-0.21 0.12-0.33 0.52-0.53l0.21-0.03c0.33-0.07 1.13-0.13 1.62-0.13 0.91 0 1.23-0.13 1.23-0.49 0-0.57-0.75-0.96-1.88-0.96-0.88 0-1.45 0.29-1.45 0.73 0 0.22 0.07 0.35 0.48 0.85l-0.21 0.03c-0.7-0.52-0.97-0.84-0.97-1.21 0-0.53 0.78-0.97 1.72-0.97 0.75 0 1.53 0.26 2.05 0.68 0.37 0.31 0.54 0.63 0.54 1 0 0.62-0.46 1.04-1.2 1.07l-1.29 0.06c-0.53 0.02-0.77 0.11-0.77 0.27 0 0.2 0.32 0.55 0.59 0.63 0.09-0.01 0.16-0.02 0.19-0.02 0.19-0.02 0.32-0.03 0.38-0.03l0.04 0.25c-0.6 0-1.02 0.64-1.02 1.6v0.03c0 0.59 0.28 0.94 0.74 0.94 0.31 0 0.57-0.17 0.73-0.47 0.18-0.35 0.3-0.81 0.3-1.2 0-0.55-0.29-0.9-0.75-0.9l-0.04-0.25c0.37 0 0.77 0.15 1.08 0.42 0.32 0.27 0.48 0.62 0.48 1.12 0 0.29-0.05 0.52-0.19 0.84z"/><path id="path5844" d="m155.73 710.34-1.26-0.63v-0.1c0.08 0.04 0.16 0.06 0.19 0.08 0.13 0.05 0.24 0.08 0.31 0.08 0.15 0 0.21-0.11 0.21-0.33v-3.16c0-0.23-0.05-0.39-0.16-0.45-0.11-0.07-0.21-0.09-0.5-0.1v-0.1h1.93v0.1c-0.56 0.01-0.67 0.08-0.67 0.42v4.18z"/><path id="path5846" d="m160.62 713.86-0.07-0.05-0.06-0.04-0.07-0.04-0.06-0.04-0.06-0.04-0.05-0.04-0.06-0.04-0.05-0.04-0.05-0.03-0.05-0.04-0.05-0.04-0.04-0.03-0.05-0.04-0.04-0.03-0.08-0.07-0.08-0.07-0.07-0.06-0.08-0.07-0.06-0.08-0.07-0.07-0.07-0.07-0.07-0.08-0.07-0.09c-0.7-0.87-1.05-1.86-1.05-3.03 0-1.26 0.37-2.24 1.24-3.25 0.41-0.48 0.67-0.7 1.19-1.02l0.12 0.16c-0.8 0.63-1.08 0.97-1.35 1.72-0.24 0.67-0.35 1.43-0.35 2.42 0 1.05 0.14 1.87 0.4 2.48 0.28 0.62 0.58 0.98 1.3 1.56z"/><path id="path5848" d="m165.73 711.61h-1.35v-0.15c0.32 0 0.48-0.09 0.48-0.25 0-0.04-0.01-0.1-0.04-0.17l-0.97-2.75-1.14 2.52c-0.06 0.14-0.1 0.27-0.1 0.38 0 0.18 0.15 0.25 0.58 0.27v0.15h-2.06v-0.14c0.26-0.04 0.43-0.15 0.51-0.32l1.14-2.45 0.03-0.08 0.15-0.3c0.28-0.5 0.44-0.86 0.44-1.01s-0.23-0.78-0.4-1.07c-0.14-0.26-0.36-0.45-0.5-0.45-0.06 0-0.15 0.02-0.25 0.07-0.19 0.07-0.36 0.11-0.53 0.11-0.23 0-0.43-0.2-0.43-0.44 0-0.33 0.32-0.58 0.74-0.58 0.67 0 1.15 0.56 1.68 1.99l1.54 4.07c0.13 0.32 0.24 0.42 0.48 0.45z"/><path id="path5850" d="m166.35 705.36 0.07 0.04 0.07 0.05 0.06 0.04 0.06 0.04 0.06 0.04 0.06 0.04 0.05 0.04 0.05 0.03 0.05 0.04 0.05 0.04 0.05 0.03 0.05 0.04 0.04 0.03 0.04 0.04 0.08 0.06 0.08 0.07 0.08 0.07 0.07 0.07 0.07 0.07 0.06 0.08 0.07 0.07 0.07 0.08 0.07 0.08c0.71 0.87 1.05 1.87 1.05 3.03 0 1.28-0.36 2.25-1.24 3.26-0.41 0.48-0.67 0.7-1.19 1.02l-0.12-0.16c0.8-0.63 1.07-0.98 1.35-1.73 0.24-0.66 0.35-1.42 0.35-2.42 0-1.03-0.13-1.86-0.4-2.47-0.28-0.62-0.58-0.98-1.3-1.56z"/></g>
   <g id="g5894" xml:space="preserve" stroke-width="0" fill-rule="evenodd" ns0:pdfconverter="pstoedit" transform="matrix(1.75 0 0 -1.75 51.827 1526.6)" stroke-miterlimit="10.433" ns0:text="$\n\\rm\ng_2(y)\n$" ns0:version="0.7.2" ns0:inkscapeversion="0.91" ns0:preamble="/usr/share/inkscape/extensions/default_packages.tex" ns0:scale="1.4" ns0:texconverter="pdflatex"><path id="path5896" d="m153.39 710.99v0.39h-0.77c-0.19 0-0.34 0.03-0.54 0.1l-0.22 0.08c-0.27 0.1-0.54 0.15-0.8 0.15-0.93 0-1.66-0.72-1.66-1.63 0-0.63 0.27-1 0.92-1.33-0.19-0.18-0.36-0.35-0.42-0.4-0.33-0.29-0.46-0.49-0.46-0.69 0-0.21 0.12-0.33 0.52-0.53l0.21-0.03c0.33-0.07 1.13-0.13 1.62-0.13 0.91 0 1.23-0.13 1.23-0.49 0-0.57-0.75-0.96-1.88-0.96-0.88 0-1.45 0.29-1.45 0.73 0 0.22 0.07 0.35 0.48 0.85l-0.21 0.03c-0.7-0.52-0.97-0.84-0.97-1.21 0-0.53 0.78-0.97 1.72-0.97 0.75 0 1.53 0.26 2.05 0.68 0.37 0.31 0.54 0.63 0.54 1 0 0.62-0.46 1.04-1.2 1.07l-1.29 0.06c-0.53 0.02-0.77 0.11-0.77 0.27 0 0.2 0.32 0.55 0.59 0.63 0.09-0.01 0.16-0.02 0.19-0.02 0.19-0.02 0.32-0.03 0.38-0.03l0.04 0.25c-0.6 0-1.02 0.64-1.02 1.6v0.03c0 0.59 0.28 0.94 0.74 0.94 0.31 0 0.57-0.17 0.73-0.47 0.18-0.35 0.3-0.81 0.3-1.2 0-0.55-0.29-0.9-0.75-0.9l-0.04-0.25c0.37 0 0.77 0.15 1.08 0.42 0.32 0.27 0.48 0.62 0.48 1.12 0 0.29-0.05 0.52-0.19 0.84z"/><path id="path5898" d="m157.01 706.59-0.09 0.03c-0.26-0.4-0.35-0.46-0.66-0.46h-1.67l1.17 1.23c0.62 0.65 0.89 1.18 0.89 1.72 0 0.7-0.56 1.23-1.29 1.23-0.38 0-0.74-0.15-1-0.43-0.22-0.24-0.33-0.46-0.45-0.95l0.15-0.04c0.28 0.68 0.53 0.91 1.01 0.91 0.59 0 0.98-0.4 0.98-0.99 0-0.54-0.32-1.19-0.9-1.81l-1.24-1.32v-0.08h2.72z"/><path id="path5900" d="m160.62 713.86-0.07-0.05-0.06-0.04-0.07-0.04-0.06-0.04-0.06-0.04-0.05-0.04-0.06-0.04-0.05-0.04-0.05-0.03-0.05-0.04-0.05-0.04-0.04-0.03-0.05-0.04-0.04-0.03-0.08-0.07-0.08-0.07-0.07-0.06-0.08-0.07-0.06-0.08-0.07-0.07-0.07-0.07-0.07-0.08-0.07-0.09c-0.7-0.87-1.05-1.86-1.05-3.03 0-1.26 0.37-2.24 1.24-3.25 0.41-0.48 0.67-0.7 1.19-1.02l0.12 0.16c-0.8 0.63-1.08 0.97-1.35 1.72-0.24 0.67-0.35 1.43-0.35 2.42 0 1.05 0.14 1.87 0.4 2.48 0.28 0.62 0.58 0.98 1.3 1.56z"/><path id="path5902" d="m165.73 711.61h-1.35v-0.15c0.32 0 0.48-0.09 0.48-0.25 0-0.04-0.01-0.1-0.04-0.17l-0.97-2.75-1.14 2.52c-0.06 0.14-0.1 0.27-0.1 0.38 0 0.18 0.15 0.25 0.58 0.27v0.15h-2.06v-0.14c0.26-0.04 0.43-0.15 0.51-0.32l1.14-2.45 0.03-0.08 0.15-0.3c0.28-0.5 0.44-0.86 0.44-1.01s-0.23-0.78-0.4-1.07c-0.14-0.26-0.36-0.45-0.5-0.45-0.06 0-0.15 0.02-0.25 0.07-0.19 0.07-0.36 0.11-0.53 0.11-0.23 0-0.43-0.2-0.43-0.44 0-0.33 0.32-0.58 0.74-0.58 0.67 0 1.15 0.56 1.68 1.99l1.54 4.07c0.13 0.32 0.24 0.42 0.48 0.45z"/><path id="path5904" d="m166.35 705.36 0.07 0.04 0.07 0.05 0.06 0.04 0.06 0.04 0.06 0.04 0.06 0.04 0.05 0.04 0.05 0.03 0.05 0.04 0.05 0.04 0.05 0.03 0.05 0.04 0.04 0.03 0.04 0.04 0.08 0.06 0.08 0.07 0.08 0.07 0.07 0.07 0.07 0.07 0.06 0.08 0.07 0.07 0.07 0.08 0.07 0.08c0.71 0.87 1.05 1.87 1.05 3.03 0 1.28-0.36 2.25-1.24 3.26-0.41 0.48-0.67 0.7-1.19 1.02l-0.12-0.16c0.8-0.63 1.07-0.98 1.35-1.73 0.24-0.66 0.35-1.42 0.35-2.42 0-1.03-0.13-1.86-0.4-2.47-0.28-0.62-0.58-0.98-1.3-1.56z"/></g>
  </g>
  <g font-size="16px" font-family="&apos;STIX Two Text&apos;" fill="#000000">
   <text id="text5932" style="word-spacing:0px;letter-spacing:0px" xml:space="preserve" line-height="125%" y="251.5959" x="232.86591"><tspan id="tspan5934" x="232.86591" y="251.5959">y</tspan></text>
   <text id="text5936" style="word-spacing:0px;letter-spacing:0px" xml:space="preserve" line-height="125%" y="268.83728" x="248.36015"><tspan id="tspan5938" x="248.36015" y="268.83728">d</tspan></text>
   <text id="text5940" style="word-spacing:0px;letter-spacing:0px" xml:space="preserve" line-height="125%" y="329.07483" x="321.07281"><tspan id="tspan5942" x="321.07281" y="329.07483">x</tspan></text>
   <text id="text5944" style="word-spacing:0px;letter-spacing:0px" xml:space="preserve" line-height="125%" y="378.5116" x="248.36015"><tspan id="tspan5946" x="248.36015" y="378.5116">c</tspan></text>
  </g>
 </g>
</svg>
