<?xml version="1.0" encoding="UTF-8" standalone="no"?>
<!-- Created with Inkscape (http://www.inkscape.org/) -->
<svg id="svg2" xmlns:rdf="http://www.w3.org/1999/02/22-rdf-syntax-ns#" xmlns="http://www.w3.org/2000/svg" height="103" width="270.25" version="1.1" xmlns:cc="http://creativecommons.org/ns#" xmlns:xlink="http://www.w3.org/1999/xlink" viewBox="0 0 270.24518 103" xmlns:dc="http://purl.org/dc/elements/1.1/">
 <style type="text/css">
	@import url('../estilo.css');
 </style>
 <defs id="defs4">
  <radialGradient id="radialGradient5364" gradientUnits="userSpaceOnUse" cy="350.36" cx="275" gradientTransform="matrix(1.5353 0 0 .25311 -147.2 261.68)" r="120.5">
   <stop id="stop5360" stop-color="#bebebe" stop-opacity=".2" offset="0"/>
   <stop id="stop5362" stop-color="#d3d3d3" offset="1"/>
  </radialGradient>
 </defs>
 <metadata id="metadata7">
  <rdf:RDF>
   <cc:Work rdf:about="">
    <dc:format>image/svg+xml</dc:format>
    <dc:type rdf:resource="http://purl.org/dc/dcmitype/StillImage"/>
    <dc:title/>
   </cc:Work>
  </rdf:RDF>
 </metadata>
 <g id="layer1" transform="translate(-149.5 -314.86)">
  <g stroke="#000" fill="none">
   <g stroke-dasharray="2, 2">
    <path id="path5366" d="m205 353.96v-32"/>
    <path id="path5368" d="m255 352.43v-32"/>
    <path id="path5370" d="m305 353.06v-32"/>
    <path id="path5372" d="m355 358.78v-32"/>
   </g>
   <path id="path4341" d="m395 382.36c0 16.569-65 30-120 30-100 0-120-5-120-30s15-30 120-30c80 0 120 13.431 120 30z"/>
  </g>
  <path id="path4471" d="m395 350.36c0 16.569-65 30-120 30-100 0-120-5-120-30s15-30 120-30c80 0 120 13.431 120 30z" stroke="#000" fill="url(#radialGradient5364)"/>
  <g stroke="#000" stroke-dasharray="2, 2" fill="none">
   <path id="path4475" d="m205 410.61v-32"/>
   <path id="path4477" d="m255 412.28v-32"/>
   <path id="path4479" d="m305 411.14v-32"/>
   <path id="path4481" d="m355 403.72v-32"/>
   <path id="path4483" d="m395 382.36v-32"/>
   <path id="path4487" d="m155 382.36v-32"/>
  </g>
  <g fill-rule="evenodd">
   <path id="path4489" style="color-rendering:auto;text-decoration-color:#000000;color:#000000;isolation:auto;mix-blend-mode:normal;shape-rendering:auto;solid-color:#000000;block-progression:tb;text-decoration-line:none;text-decoration-style:solid;image-rendering:auto;white-space:normal;text-indent:0;text-transform:none" d="m375.3 386.96-0.60156 0.79883 20 15 0.60156-0.79883-20-15z"/>
   <path id="path5258" d="m371.31 384.59 7.936 0.952-4.8 6.4-3.136-7.352z"/>
   <path id="path5262" style="color-rendering:auto;text-decoration-color:#000000;color:#000000;isolation:auto;mix-blend-mode:normal;shape-rendering:auto;solid-color:#000000;block-progression:tb;text-decoration-line:none;text-decoration-style:solid;image-rendering:auto;white-space:normal;text-indent:0;text-transform:none" d="m403 350.36-4 6.9199h3.5v18.16h-3.5l4 6.9199 4-6.9199h-3.5v-18.16h3.5l-4-6.9199z"/>
  </g>
  <text id="text5346" style="word-spacing:0px;letter-spacing:0px" xml:space="preserve" font-size="16px" line-height="125%" y="410.32614" x="397.80719" font-family="&apos;STIX Two Text&apos;" fill="#000000"><tspan id="tspan5348" x="397.80719" y="410.32614">S</tspan></text>
  <text id="text5350" style="word-spacing:0px;letter-spacing:0px" xml:space="preserve" font-size="16px" line-height="125%" y="371.47333" x="407.92917" font-family="&apos;STIX Two Text&apos;" fill="#000000"><tspan id="tspan5354" x="407.92917" y="371.47333">1</tspan></text>
 </g>
</svg>
