<?xml version="1.0" encoding="UTF-8" standalone="no"?>
<!-- Created with Inkscape (http://www.inkscape.org/) -->
<svg id="svg2" xmlns:rdf="http://www.w3.org/1999/02/22-rdf-syntax-ns#" xmlns="http://www.w3.org/2000/svg" xmlns:ns0="http://www.iki.fi/pav/software/textext/" viewBox="0 0 240 172.40651" height="172.41" width="240" version="1.1" xmlns:cc="http://creativecommons.org/ns#" xmlns:xlink="http://www.w3.org/1999/xlink" xmlns:dc="http://purl.org/dc/elements/1.1/">
 <style type="text/css">
	@import url('../estilo.css');
 </style>
 <defs id="defs4">
  <marker id="marker6946" refY="0" refX="0" orient="auto" overflow="visible">
   <path id="path6948" d="m5.77 0-8.65 5v-10l8.65 5z" fill-rule="evenodd" transform="scale(.8)" stroke="#000" stroke-width="1pt"/>
  </marker>
  <pattern id="pattern5733-78" xlink:href="#Strips1_5-763" patternTransform="matrix(.83279 .83279 -.83279 .83279 323.23 333.8)"/>
  <pattern id="Strips1_5-763" height="1" width="6" patternUnits="userSpaceOnUse" patternTransform="translate(0) scale(10)">
   <rect id="rect5784" height="2" width="1" y="-.5" x="0" fill="#d3d3d3"/>
  </pattern>
 </defs>
 <metadata id="metadata7">
  <rdf:RDF>
   <cc:Work rdf:about="">
    <dc:format>image/svg+xml</dc:format>
    <dc:type rdf:resource="http://purl.org/dc/dcmitype/StillImage"/>
    <dc:title/>
   </cc:Work>
  </rdf:RDF>
 </metadata>
 <g id="layer1" transform="translate(-100 -197.36)">
  <g>
   <path id="path4290" d="m105 277.36h230" stroke="#000" stroke-width="1px" fill="none"/>
   <path id="path4292" d="m155 202.36v150" stroke="#000" stroke-width="1px" fill="none"/>
   <path id="rect4294" d="m135 232.36c32.225-7.2849 86.338 23.958 140 15v95c-58.795 14.722-107.32-12.441-140-15z" stroke="#a0a0a0" fill="url(#pattern5733-78)"/>
  </g>
  <g stroke="#a0a0a0" stroke-width="1px" fill="none">
   <path id="path6448" d="m135 232.36c-6.6667 1.697-13.333 5.8329-20 10"/>
   <path id="path6450" d="m300 237.36c-8.3333 5.9743-16.667 7.6487-25 10"/>
   <path id="path6456" d="m295 332.36c-4.6909 3.7956-13.17 8.1699-20 10"/>
   <path id="path6458" d="m120 337.36c1.6516-4.1405 5-10 15-10"/>
  </g>
  <circle id="path6460" cx="135" cy="277.36" r="2"/>
  <circle id="circle6462" cy="277.36" cx="275" r="2"/>
  <g stroke="#000">
   <path id="path6464" marker-end="url(#marker6946)" d="m247 324.36 59-6" stroke-width="1px" fill="none"/>
   <g id="content" xml:space="preserve" stroke-width="0" fill-rule="evenodd" ns0:pdfconverter="pstoedit" transform="matrix(1.75 0 0 -1.75 -46.889 1599.1)" stroke-miterlimit="10.433" ns0:text="$\n\\rm\nh_1(x)\n$" ns0:version="0.7.2" ns0:inkscapeversion="0.91" ns0:preamble="/usr/share/inkscape/extensions/default_packages.tex" ns0:scale="1.4" ns0:texconverter="pdflatex"><path id="path6998" d="m150.27 710.54 0.04 0.04 0.04 0.04 0.04 0.04 0.04 0.04 0.03 0.03 0.04 0.04 0.03 0.03 0.04 0.03 0.03 0.03 0.04 0.03 0.03 0.02 0.04 0.03 0.03 0.02 0.03 0.03 0.04 0.02 0.03 0.02 0.03 0.01 0.03 0.02 0.04 0.02 0.03 0.01 0.03 0.01 0.04 0.01 0.03 0.01 0.03 0.01 0.04 0.01 0.03 0.01h0.03l0.04 0.01h0.03 0.04l0.03 0.01h0.04c0.5 0 0.75-0.36 0.75-1.06v-1.97c0-0.68-0.1-0.81-0.68-0.87v-0.15h2.11v0.15c-0.54 0.1-0.6 0.18-0.6 0.87v1.98c0 1.05-0.41 1.59-1.22 1.59-0.59 0-1.01-0.24-1.47-0.84v3.03l-0.05 0.03c-0.33-0.12-0.58-0.2-1.14-0.36l-0.27-0.08v-0.16c0.04 0.01 0.07 0.01 0.12 0.01 0.43 0 0.51-0.08 0.51-0.51v-4.69c0-0.7-0.06-0.79-0.64-0.87v-0.15h2.15v0.15c-0.58 0.06-0.68 0.18-0.68 0.87z"/><path id="path7000" d="m155.73 710.34-1.26-0.63v-0.1c0.08 0.04 0.16 0.06 0.19 0.08 0.13 0.05 0.24 0.08 0.31 0.08 0.15 0 0.21-0.11 0.21-0.33v-3.16c0-0.23-0.05-0.39-0.16-0.45-0.11-0.07-0.21-0.09-0.5-0.1v-0.1h1.93v0.1c-0.56 0.01-0.67 0.08-0.67 0.42v4.18z"/><path id="path7002" d="m160.62 713.86-0.07-0.05-0.06-0.04-0.07-0.04-0.06-0.04-0.06-0.04-0.05-0.04-0.06-0.04-0.05-0.04-0.05-0.03-0.05-0.04-0.05-0.04-0.04-0.03-0.05-0.04-0.04-0.03-0.08-0.07-0.08-0.07-0.07-0.06-0.08-0.07-0.06-0.08-0.07-0.07-0.07-0.07-0.07-0.08-0.07-0.09c-0.7-0.87-1.05-1.86-1.05-3.03 0-1.26 0.37-2.24 1.24-3.25 0.41-0.48 0.67-0.7 1.19-1.02l0.12 0.16c-0.8 0.63-1.08 0.97-1.35 1.72-0.24 0.67-0.35 1.43-0.35 2.42 0 1.05 0.14 1.87 0.4 2.48 0.28 0.62 0.58 0.98 1.3 1.56z"/><path id="path7004" d="m163.76 707.12h2.01v0.15c-0.31 0-0.51 0.16-0.82 0.6l-1.27 1.95 0.82 1.2c0.19 0.27 0.49 0.43 0.81 0.44v0.15h-1.57v-0.15c0.29-0.02 0.39-0.08 0.39-0.22 0-0.12-0.12-0.34-0.37-0.65-0.05-0.06-0.16-0.24-0.29-0.44l-0.14 0.2c-0.28 0.42-0.46 0.76-0.46 0.89 0 0.14 0.13 0.21 0.43 0.22v0.15h-2.07v-0.15h0.09c0.3 0 0.46-0.13 0.77-0.6l0.94-1.44-1.14-1.64c-0.3-0.41-0.4-0.48-0.73-0.51v-0.15h1.45v0.15c-0.28 0-0.4 0.05-0.4 0.18 0 0.06 0.07 0.21 0.2 0.41l0.79 1.23 0.9-1.4c0.04-0.06 0.06-0.12 0.06-0.18 0-0.18-0.07-0.22-0.4-0.24z"/><path id="path7006" d="m166.35 705.36 0.07 0.04 0.07 0.05 0.06 0.04 0.06 0.04 0.06 0.04 0.06 0.04 0.05 0.04 0.05 0.03 0.05 0.04 0.05 0.04 0.05 0.03 0.05 0.04 0.04 0.03 0.04 0.04 0.08 0.06 0.08 0.07 0.08 0.07 0.07 0.07 0.07 0.07 0.06 0.08 0.07 0.07 0.07 0.08 0.07 0.08c0.71 0.87 1.05 1.87 1.05 3.03 0 1.28-0.36 2.25-1.24 3.26-0.41 0.48-0.67 0.7-1.19 1.02l-0.12-0.16c0.8-0.63 1.07-0.98 1.35-1.73 0.24-0.66 0.35-1.42 0.35-2.42 0-1.03-0.13-1.86-0.4-2.47-0.28-0.62-0.58-0.98-1.3-1.56z"/></g>
   <g id="g7076" xml:space="preserve" stroke-width="0" fill-rule="evenodd" ns0:pdfconverter="pstoedit" transform="matrix(1.75 0 0 -1.75 -53.469 1473.5)" stroke-miterlimit="10.433" ns0:text="$\n\\rm\nh_2(x)\n$" ns0:version="0.7.2" ns0:inkscapeversion="0.91" ns0:preamble="/usr/share/inkscape/extensions/default_packages.tex" ns0:scale="1.4" ns0:texconverter="pdflatex"><path id="path7078" d="m150.27 710.54 0.04 0.04 0.04 0.04 0.04 0.04 0.04 0.04 0.03 0.03 0.04 0.04 0.03 0.03 0.04 0.03 0.03 0.03 0.04 0.03 0.03 0.02 0.04 0.03 0.03 0.02 0.03 0.03 0.04 0.02 0.03 0.02 0.03 0.01 0.03 0.02 0.04 0.02 0.03 0.01 0.03 0.01 0.04 0.01 0.03 0.01 0.03 0.01 0.04 0.01 0.03 0.01h0.03l0.04 0.01h0.03 0.04l0.03 0.01h0.04c0.5 0 0.75-0.36 0.75-1.06v-1.97c0-0.68-0.1-0.81-0.68-0.87v-0.15h2.11v0.15c-0.54 0.1-0.6 0.18-0.6 0.87v1.98c0 1.05-0.41 1.59-1.22 1.59-0.59 0-1.01-0.24-1.47-0.84v3.03l-0.05 0.03c-0.33-0.12-0.58-0.2-1.14-0.36l-0.27-0.08v-0.16c0.04 0.01 0.07 0.01 0.12 0.01 0.43 0 0.51-0.08 0.51-0.51v-4.69c0-0.7-0.06-0.79-0.64-0.87v-0.15h2.15v0.15c-0.58 0.06-0.68 0.18-0.68 0.87z"/><path id="path7080" d="m157.01 706.59-0.09 0.03c-0.26-0.4-0.35-0.46-0.66-0.46h-1.67l1.17 1.23c0.62 0.65 0.89 1.18 0.89 1.72 0 0.7-0.56 1.23-1.29 1.23-0.38 0-0.74-0.15-1-0.43-0.22-0.24-0.33-0.46-0.45-0.95l0.15-0.04c0.28 0.68 0.53 0.91 1.01 0.91 0.59 0 0.98-0.4 0.98-0.99 0-0.54-0.32-1.19-0.9-1.81l-1.24-1.32v-0.08h2.72z"/><path id="path7082" d="m160.62 713.86-0.07-0.05-0.06-0.04-0.07-0.04-0.06-0.04-0.06-0.04-0.05-0.04-0.06-0.04-0.05-0.04-0.05-0.03-0.05-0.04-0.05-0.04-0.04-0.03-0.05-0.04-0.04-0.03-0.08-0.07-0.08-0.07-0.07-0.06-0.08-0.07-0.06-0.08-0.07-0.07-0.07-0.07-0.07-0.08-0.07-0.09c-0.7-0.87-1.05-1.86-1.05-3.03 0-1.26 0.37-2.24 1.24-3.25 0.41-0.48 0.67-0.7 1.19-1.02l0.12 0.16c-0.8 0.63-1.08 0.97-1.35 1.72-0.24 0.67-0.35 1.43-0.35 2.42 0 1.05 0.14 1.87 0.4 2.48 0.28 0.62 0.58 0.98 1.3 1.56z"/><path id="path7084" d="m163.76 707.12h2.01v0.15c-0.31 0-0.51 0.16-0.82 0.6l-1.27 1.95 0.82 1.2c0.19 0.27 0.49 0.43 0.81 0.44v0.15h-1.57v-0.15c0.29-0.02 0.39-0.08 0.39-0.22 0-0.12-0.12-0.34-0.37-0.65-0.05-0.06-0.16-0.24-0.29-0.44l-0.14 0.2c-0.28 0.42-0.46 0.76-0.46 0.89 0 0.14 0.13 0.21 0.43 0.22v0.15h-2.07v-0.15h0.09c0.3 0 0.46-0.13 0.77-0.6l0.94-1.44-1.14-1.64c-0.3-0.41-0.4-0.48-0.73-0.51v-0.15h1.45v0.15c-0.28 0-0.4 0.05-0.4 0.18 0 0.06 0.07 0.21 0.2 0.41l0.79 1.23 0.9-1.4c0.04-0.06 0.06-0.12 0.06-0.18 0-0.18-0.07-0.22-0.4-0.24z"/><path id="path7086" d="m166.35 705.36 0.07 0.04 0.07 0.05 0.06 0.04 0.06 0.04 0.06 0.04 0.06 0.04 0.05 0.04 0.05 0.03 0.05 0.04 0.05 0.04 0.05 0.03 0.05 0.04 0.04 0.03 0.04 0.04 0.08 0.06 0.08 0.07 0.08 0.07 0.07 0.07 0.07 0.07 0.06 0.08 0.07 0.07 0.07 0.08 0.07 0.08c0.71 0.87 1.05 1.87 1.05 3.03 0 1.28-0.36 2.25-1.24 3.26-0.41 0.48-0.67 0.7-1.19 1.02l-0.12-0.16c0.8-0.63 1.07-0.98 1.35-1.73 0.24-0.66 0.35-1.42 0.35-2.42 0-1.03-0.13-1.86-0.4-2.47-0.28-0.62-0.58-0.98-1.3-1.56z"/></g>
  </g>
  <g font-size="16px" font-family="&apos;STIX Two Text&apos;" fill="#000000">
   <text id="text7127" style="word-spacing:0px;letter-spacing:0px" xml:space="preserve" line-height="125%" y="291.31281" x="125.43346"><tspan id="tspan7129" x="125.43346" y="291.31281">a</tspan></text>
   <text id="text7131" style="word-spacing:0px;letter-spacing:0px" xml:space="preserve" line-height="125%" y="291.31281" x="276.44611"><tspan id="tspan7133" x="276.44611" y="291.31281">b</tspan></text>
   <text id="text7135" style="word-spacing:0px;letter-spacing:0px" xml:space="preserve" line-height="125%" y="289.31281" x="327.24268"><tspan id="tspan7137" x="327.24268" y="289.31281">x</tspan></text>
   <text id="text7139" style="word-spacing:0px;letter-spacing:0px" xml:space="preserve" line-height="125%" y="212.05289" x="143.81004"><tspan id="tspan7141" x="143.81004" y="212.05289">y</tspan></text>
   <text id="text7143" style="word-spacing:0px;letter-spacing:0px" xml:space="preserve" line-height="125%" y="322.02255" x="313.15588"><tspan id="tspan7145" x="313.15588" y="322.02255">S</tspan></text>
  </g>
 </g>
</svg>
