<?xml version="1.0" encoding="UTF-8" standalone="no"?>
<svg id="svg5933" xmlns:rdf="http://www.w3.org/1999/02/22-rdf-syntax-ns#" xmlns="http://www.w3.org/2000/svg" xmlns:ns0="http://www.iki.fi/pav/software/textext/" height="120" width="120" version="1.1" xmlns:cc="http://creativecommons.org/ns#" xmlns:xlink="http://www.w3.org/1999/xlink" viewBox="0 0 120 120" xmlns:dc="http://purl.org/dc/elements/1.1/">
 <style type="text/css">
	 @import url('../estilo.css');
 </style>
 <defs>
  <circle id="gpPt5" stroke-width=".222" cy="0" stroke="currentColor" cx="0" r="1"/>
  <use id="gpPt6" xlink:href="#gpPt5" fill="currentColor"/>
 </defs>
 <metadata id="metadata6041">
  <rdf:RDF>
   <cc:Work rdf:about="">
    <dc:format>image/svg+xml</dc:format>
    <dc:type rdf:resource="http://purl.org/dc/dcmitype/StillImage"/>
    <dc:title>Gnuplot</dc:title>
   </cc:Work>
  </rdf:RDF>
 </metadata>
 <title id="title5935">Gnuplot</title>
 <desc id="desc5937">Produced by GNUPLOT 5.0 patchlevel 3</desc>
 <g id="gnuplot_canvas">
  <rect id="rect5940" height="120" width="120" y="0" x="0" fill="none"/>
  <g id="g5974" color="black" stroke="currentColor" fill="none">
   <path id="path5976" stroke="#000" d="m78.2 24.9l-1.6-0.8-1.7-0.4-1.9-0.2h-2l-2.1 0.4-2.2 0.6-2.2 0.9-2.3 1.2-2.4 1.4-2.3 1.7-2.4 1.9-2.3 2.1-2.3 2.3-2.2 2.5-2.1 2.7-2.1 2.8-2 2.9-1.8 3-1.7 3.1-1.6 3.2-1.4 3.2-1.2 3.2-1 3.2-0.9 3.1-0.7 3.1-0.4 2.9-0.3 2.9-0.1 2.7 0.2 2.6 0.3 2.4 0.5 2.2 0.8 2 0.9 1.8 1.1 1.5 1.3 1.3 1.5 1 1.6 0.8 1.7 0.4 1.9 0.2h2l2.1-0.4 2.2-0.6 2.2-0.9 2.3-1.2 2.4-1.4 2.3-1.7 2.4-1.9 2.3-2.1 2.3-2.3 2.2-2.5 2.1-2.7 2.1-2.8 2-2.9 1.8-3 1.7-3.1 1.6-3.2 1.4-3.2 1.2-3.2 1-3.2 0.9-3.1 0.7-3.1 0.4-2.9 0.3-2.9 0.1-2.7-0.2-2.6-0.3-2.4-0.5-2.2-0.8-2-0.9-1.8-1.1-1.5-1.3-1.3-1.5-1-1.6-0.8-1.7-0.4-1.9-0.2h-2l-2.1 0.4-2.2 0.6-2.2 0.9-2.3 1.2-2.4 1.4-2.3 1.7-2.4 1.9-2.3 2.1-2.3 2.3-2.2 2.5-2.1 2.7-2.1 2.8-2 2.9-1.8 3-1.7 3.1-1.6 3.2-1.4 3.2-1.2 3.2-1 3.2-0.9 3.1-0.7 3.1-0.4 2.9-0.3 2.9-0.1 2.7 0.2 2.6 0.3 2.4 0.5 2.2 0.8 2 0.9 1.8 1.1 1.5 1.3 1.3 1.5 1 1.6 0.8 1.7 0.4 1.9 0.2h2l2.1-0.4 2.2-0.6 2.2-0.9 2.3-1.2 2.4-1.4 2.3-1.7 2.4-1.9 2.3-2.1 2.3-2.3 2.2-2.5 2.1-2.7 2.1-2.8 2-2.9 1.8-3 1.7-3.1 1.6-3.2 1.4-3.2 1.2-3.2 1-3.2 0.9-3.1 0.7-3.1 0.4-2.9 0.3-2.9 0.1-2.7-0.2-2.6-0.3-2.4-0.5-2.2-0.8-2-0.9-1.8-1.1-1.5-1.3-1.3-1.5-1"/>
  </g>
  <g id="gnuplot_plot_1">
   <title id="title5981">NaN</title>
  </g>
  <g stroke="currentColor" fill="none">
   <g id="g5987" color="black" stroke-width="2">
    <g id="g5989" font-size="16" transform="translate(33.7,107.6)" text-anchor="end" stroke="none" font-family="Stix Two Text" fill="#000">
     <text id="text5991">
      <tspan id="tspan5993" font-family="Stix Two Text" font-style="italic">a</tspan>
     </text>
    </g>
   </g>
   <g>
    <g id="g5997" color="black">
     <use id="use5999" color="rgb(229,  30,  16)" xlink:href="#gpPt6" transform="translate(37.5,95.3) scale(3.38)"/>
    </g>
    <g id="g6001" color="black">
     <g id="g6003" font-size="16" transform="translate(42 96.8)" stroke="none" font-family="Stix Two Text" fill="#000">
      <text id="text6005"/>
     </g>
    </g>
    <g id="g6007" color="black">
     <use id="use6009" color="black" xlink:href="#gpPt5" transform="translate(37.5,95.3) scale(3.38)"/>
    </g>
    <g id="g6011" color="black">
     <g id="g6013" font-size="16" transform="translate(83.5,21.8)" stroke="none" font-family="Stix Two Text" fill="#000">
      <text id="text6015">
       <tspan id="tspan6017" font-family="Stix Two Text" font-style="italic">b</tspan>
      </text>
     </g>
    </g>
    <g id="g6019" color="black">
     <use id="use6021" color="rgb(  0, 255,   0)" xlink:href="#gpPt6" transform="translate(78.2,24.8) scale(3.38)"/>
    </g>
    <g id="g6023" color="black">
     <g id="g6025" font-size="16" transform="translate(82.7,26.3)" stroke="none" font-family="Stix Two Text" fill="#000">
      <text id="text6027"/>
     </g>
    </g>
    <g id="g6029" color="black">
     <use id="use6031" color="black" xlink:href="#gpPt5" transform="translate(78.2,24.8) scale(3.38)"/>
    </g>
   </g>
  </g>
 </g>
 <g id="content" xml:space="preserve" stroke="#000" fill-rule="evenodd" ns0:pdfconverter="pstoedit" transform="matrix(1.75 0 0 -1.75 -246.97 1283)" stroke-miterlimit="10.433" ns0:text="$\n\\boxed{1}\n$" ns0:version="0.7.2" ns0:inkscapeversion="0.91" ns0:preamble="/usr/share/inkscape/extensions/default_packages.tex" ns0:scale="1.4" ns0:texconverter="pdflatex"><line id="line4522" stroke-width=".398" y2="716.89" x2="160.47" y1="716.89" x1="148.71"/><line id="line4524" stroke-width=".398" y2="716.69" x2="148.91" y1="704.05" x1="148.91"/><path id="path4526" d="m155 713.77-1.79-0.91v-0.14c0.11 0.05 0.22 0.09 0.27 0.11 0.17 0.07 0.34 0.11 0.44 0.11 0.21 0 0.3-0.15 0.3-0.47v-4.51c0-0.33-0.08-0.56-0.24-0.65-0.15-0.09-0.29-0.12-0.7-0.13v-0.15h2.74v0.15c-0.78 0.01-0.94 0.11-0.94 0.59v5.98z" stroke-width="0"/><line id="line4528" stroke-width=".398" y2="716.69" x2="160.27" y1="704.05" x1="160.27"/><line id="line4530" stroke-width=".398" y2="703.85" x2="160.47" y1="703.85" x1="148.71"/></g>
 <g id="g4676" xml:space="preserve" stroke="#000" fill-rule="evenodd" ns0:pdfconverter="pstoedit" transform="matrix(1.75 0 0 -1.75 -180.45 1326.2)" stroke-miterlimit="10.433" ns0:text="$\n\\boxed{2}\n$" ns0:version="0.7.2" ns0:inkscapeversion="0.91" ns0:preamble="/usr/share/inkscape/extensions/default_packages.tex" ns0:scale="1.4" ns0:texconverter="pdflatex"><line id="line4678" stroke-width=".398" y2="716.89" y1="716.89" x2="160.47" x1="148.71"/><line id="line4680" stroke-width=".398" y2="716.69" y1="704.05" x2="148.91" x1="148.91"/><path id="path4682" stroke-width="0" d="m156.83 708.4-0.13 0.05c-0.37-0.57-0.49-0.66-0.94-0.66h-2.38l1.67 1.75c0.89 0.93 1.27 1.69 1.27 2.46 0 1-0.8 1.77-1.84 1.77-0.55 0-1.07-0.22-1.43-0.62-0.32-0.34-0.47-0.66-0.64-1.37l0.21-0.05c0.4 0.98 0.76 1.3 1.44 1.3 0.84 0 1.41-0.57 1.41-1.41 0-0.77-0.46-1.7-1.3-2.59l-1.77-1.88v-0.12h3.88z"/><line id="line4684" stroke-width=".398" y2="716.69" y1="704.05" x2="160.27" x1="160.27"/><line id="line4686" stroke-width=".398" y2="703.85" y1="703.85" x2="160.47" x1="148.71"/></g>
</svg>
