<?xml version="1.0" ?><svg height="42.77813mm" version="1.0" viewBox="0 0 339 162" width="89.51719mm" xmlns="http://www.w3.org/2000/svg">
  <style type="text/css">
		@import url('../estilo.css');
  </style>
  <g font-family="Helvetica" font-size="12pt" stroke-linecap="round" transform="translate(-46,-109)">
    <g stroke="#000000" stroke-width="1.0">
      <line x1="189.91" x2="189.91" y1="140.00" y2="166.47"/>
    </g>
    <g stroke="#000000" stroke-width="1.0">
      <line x1="189.87" x2="189.87" y1="219.48" y2="245.99"/>
      <line x1="183.87" x2="183.87" y1="222.80" y2="242.68"/>
    </g>
    <g stroke="#000000" stroke-width="1.0">
      <line x1="144.00" x2="121.05" y1="166.47" y2="179.73"/>
      <line x1="138.13" x2="120.91" y1="162.93" y2="172.88"/>
    </g>
    <g stroke="#000000" stroke-width="1.0">
      <line x1="98.09" x2="98.09" y1="140.00" y2="166.47"/>
      <line x1="104.09" x2="104.09" y1="143.31" y2="163.16"/>
    </g>
    <g stroke="#000000" stroke-width="1.0">
      <line x1="144.00" x2="166.95" y1="166.47" y2="179.73"/>
    </g>
    <g stroke="#000000" stroke-width="1.0">
      <line x1="189.87" x2="206.00" y1="219.48" y2="210.18"/>
    </g>
    <g stroke="#000000" stroke-width="1.0">
      <line x1="234.81" x2="251.00" y1="138.27" y2="128.93"/>
      <line x1="236.81" x2="253.00" y1="141.73" y2="132.39"/>
    </g>
    <g stroke="#000000" stroke-width="1.0">
      <line x1="121.05" x2="144.00" y1="126.74" y2="140.00"/>
      <line x1="120.91" x2="138.13" y1="133.59" y2="143.54"/>
    </g>
    <g stroke="#000000" stroke-width="1.0">
      <line x1="144.00" x2="160.00" y1="140.00" y2="130.76"/>
    </g>
    <g stroke="#000000" stroke-width="1.0">
      <line x1="189.91" x2="212.86" y1="140.00" y2="126.74"/>
      <line x1="195.78" x2="212.99" y1="143.54" y2="133.59"/>
    </g>
    <g stroke="#000000" stroke-width="1.0">
      <line x1="98.09" x2="121.05" y1="140.00" y2="126.74"/>
    </g>
    <g stroke="#000000" stroke-width="1.0">
      <line x1="235.81" x2="235.81" y1="140.00" y2="166.47"/>
    </g>
    <g stroke="#000000" stroke-width="1.0">
      <line x1="189.91" x2="166.95" y1="166.47" y2="179.73"/>
      <line x1="184.04" x2="166.82" y1="162.93" y2="172.88"/>
    </g>
    <g stroke="#000000" stroke-width="1.0">
      <line x1="166.95" x2="189.87" y1="206.24" y2="219.48"/>
    </g>
    <g stroke="#000000" stroke-width="1.0">
      <line x1="98.09" x2="82.00" y1="140.00" y2="130.71"/>
    </g>
    <g stroke="#000000" stroke-width="1.0">
      <line x1="174.00" x2="189.91" y1="130.81" y2="140.00"/>
    </g>
    <g stroke="#000000" stroke-width="1.0">
      <line x1="189.91" x2="212.86" y1="166.47" y2="179.73"/>
    </g>
    <g stroke="#000000" stroke-width="1.0">
      <line x1="98.09" x2="121.05" y1="166.47" y2="179.73"/>
    </g>
    <g stroke="#000000" stroke-width="1.0">
      <line x1="166.91" x2="189.87" y1="259.23" y2="245.99"/>
    </g>
    <g stroke="#000000" stroke-width="1.0">
      <line x1="144.00" x2="144.00" y1="140.00" y2="166.47"/>
    </g>
    <g stroke="#000000" stroke-width="1.0">
      <line x1="143.99" x2="166.95" y1="219.48" y2="206.24"/>
      <line x1="149.86" x2="167.08" y1="223.02" y2="213.09"/>
    </g>
    <g stroke="#000000" stroke-width="1.0">
      <line x1="212.86" x2="235.81" y1="126.74" y2="140.00"/>
    </g>
    <g stroke="#000000" stroke-width="1.0">
      <line x1="166.95" x2="166.95" y1="206.24" y2="179.73"/>
    </g>
    <g stroke="#000000" stroke-width="1.0">
      <line x1="235.81" x2="212.86" y1="166.47" y2="179.73"/>
      <line x1="229.94" x2="212.73" y1="162.93" y2="172.88"/>
    </g>
    <g stroke="#000000" stroke-width="1.0">
      <line x1="143.99" x2="166.91" y1="245.99" y2="259.23"/>
      <line x1="149.85" x2="167.04" y1="242.45" y2="252.38"/>
    </g>
    <g stroke="#000000" stroke-width="1.0">
      <line x1="143.99" x2="143.99" y1="245.99" y2="219.48"/>
    </g>
    <text fill="#000000" font-family="STIX Two Text" font-size="12pt" x="57.30" y="130.75">HO</text>
    <text fill="#000000" font-family="STIX Two Text" font-size="12pt" x="253.30" y="130.75">O</text>
    <text fill="#000000" font-family="STIX Two Text" font-size="12pt" x="161.30" y="130.74">O</text>
    <text fill="#000000" font-family="STIX Two Text" font-size="12pt" x="207.30" y="210.23">COOH</text>
    <text fill="#000000" font-family="STIX Two Text" font-size="12pt" textLength="86" x="289.00" y="194.25">Fluoresceína</text>
  </g>
</svg>
