<?xml version="1.0" encoding="UTF-8" standalone="no"?>
<!-- Created with Inkscape (http://www.inkscape.org/) -->
<svg id="svg4925" xmlns:rdf="http://www.w3.org/1999/02/22-rdf-syntax-ns#" xmlns="http://www.w3.org/2000/svg" height="64.073" width="64.073" version="1.1" xmlns:cc="http://creativecommons.org/ns#" xmlns:dc="http://purl.org/dc/elements/1.1/" viewBox="0 0 64.073128 64.073098">
 <style type="text/css">
	@import url('../estilo.css');
 </style>
 <metadata id="metadata4930">
  <rdf:RDF>
   <cc:Work rdf:about="">
    <dc:format>image/svg+xml</dc:format>
    <dc:type rdf:resource="http://purl.org/dc/dcmitype/StillImage"/>
    <dc:title/>
   </cc:Work>
  </rdf:RDF>
 </metadata>
 <g id="layer1" transform="translate(-119.39 -303.18)">
  <path id="path4800" fill="none" stroke="#000" d="m169.25 335.22a17.824 17.824 0 0 1 -17.82 17.824 17.824 17.824 0 0 1 -17.828 -17.816 17.824 17.824 0 0 1 17.812 -17.832 17.824 17.824 0 0 1 17.836 17.808"/>
  <g font-family="&apos;STIX Two Text&apos;" fill="#000000">
   <text id="text4802" style="word-spacing:0px;letter-spacing:0px" xml:space="preserve" font-size="13px" line-height="125%" y="342.11783" x="142.20952"><tspan id="tspan4804" font-size="21px" line-height="125%" y="342.11783" x="142.20952" font-family="&apos;STIX Two Text&apos;">M</tspan></text>
   <g font-size="12px">
    <text id="text4806" style="word-spacing:0px;letter-spacing:0px" xml:space="preserve" line-height="125%" y="338.31534" x="170.56914"><tspan id="tspan4808" x="170.56914" y="338.31534">−</tspan></text>
    <text id="text4848" style="word-spacing:0px;letter-spacing:0px" transform="scale(-1)" line-height="125%" y="-332.12332" x="-132.28801" xml:space="preserve"><tspan id="tspan4850" y="-332.12332" x="-132.28801">−</tspan></text>
    <text id="text4860" style="word-spacing:0px;letter-spacing:0px" transform="matrix(.92388 -.38268 .38268 .92388 0 0)" line-height="125%" y="370.74753" x="30.759443" xml:space="preserve"><tspan id="tspan4862" y="370.74753" x="30.759443">−</tspan></text>
    <text id="text4864" style="word-spacing:0px;letter-spacing:0px" xml:space="preserve" transform="matrix(-.92388 .38268 -.38268 -.92388 0 0)" line-height="125%" y="-364.55551" x="7.5217452"><tspan id="tspan4866" x="7.5217452" y="-364.55551">−</tspan></text>
    <text id="text4868" style="word-spacing:0px;letter-spacing:0px" xml:space="preserve" transform="rotate(-45)" line-height="125%" y="347.20807" x="-110.81914"><tspan id="tspan4870" x="-110.81914" y="347.20807">−</tspan></text>
    <text id="text4872" style="word-spacing:0px;letter-spacing:0px" transform="rotate(135)" line-height="125%" y="-341.01605" x="149.10027" xml:space="preserve"><tspan id="tspan4874" y="-341.01605" x="149.10027">−</tspan></text>
    <text id="text4876" style="word-spacing:0px;letter-spacing:0px" transform="matrix(.38268 -.92388 .92388 .38268 0 0)" line-height="125%" y="271.28067" x="-232.61255" xml:space="preserve"><tspan id="tspan4878" y="271.28067" x="-232.61255">−</tspan></text>
    <text id="text4880" style="word-spacing:0px;letter-spacing:0px" xml:space="preserve" transform="matrix(-.38268 .92388 -.92388 -.38268 0 0)" line-height="125%" y="-265.08865" x="270.89365"><tspan id="tspan4882" x="270.89365" y="-265.08865">−</tspan></text>
    <text id="text4884" style="word-spacing:0px;letter-spacing:0px" xml:space="preserve" transform="rotate(-90)" line-height="125%" y="154.52458" x="-316.0788"><tspan id="tspan4886" x="-316.0788" y="154.52458">−</tspan></text>
    <text id="text4888" style="word-spacing:0px;letter-spacing:0px" transform="rotate(90)" line-height="125%" y="-148.33257" x="354.35989" xml:space="preserve"><tspan id="tspan4890" y="-148.33257" x="354.35989">−</tspan></text>
    <text id="text4892" style="word-spacing:0px;letter-spacing:0px" transform="matrix(-.38268 -.92388 .92388 -.38268 0 0)" line-height="125%" y="14.714949" x="-348.51096" xml:space="preserve"><tspan id="tspan4894" y="14.714949" x="-348.51096">−</tspan></text>
    <text id="text4896" style="word-spacing:0px;letter-spacing:0px" xml:space="preserve" transform="matrix(.38268 .92388 -.92388 .38268 0 0)" line-height="125%" y="-8.52281" x="386.79208"><tspan id="tspan4898" x="386.79208" y="-8.52281">−</tspan></text>
    <text id="text4900" style="word-spacing:0px;letter-spacing:0px" xml:space="preserve" transform="rotate(225)" line-height="125%" y="-126.86369" x="-324.9715"><tspan id="tspan4902" x="-324.9715" y="-126.86369">−</tspan></text>
    <text id="text4904" style="word-spacing:0px;letter-spacing:0px" transform="rotate(45)" line-height="125%" y="133.05571" x="363.25262" xml:space="preserve"><tspan id="tspan4906" y="133.05571" x="363.25262">−</tspan></text>
    <text id="text4908" style="word-spacing:0px;letter-spacing:0px" transform="matrix(-.92388 -.38268 .38268 -.92388 0 0)" line-height="125%" y="-248.6571" x="-249.04411" xml:space="preserve"><tspan id="tspan4910" y="-248.6571" x="-249.04411">−</tspan></text>
    <text id="text4912" style="word-spacing:0px;letter-spacing:0px" xml:space="preserve" transform="matrix(.92388 .38268 -.38268 .92388 0 0)" line-height="125%" y="254.84912" x="287.32523"><tspan id="tspan4914" x="287.32523" y="254.84912">−</tspan></text>
   </g>
  </g>
 </g>
</svg>
