<?xml version="1.0" encoding="UTF-8" standalone="no"?>
<!-- Created with Inkscape (http://www.inkscape.org/) -->
<svg id="svg2" xmlns:rdf="http://www.w3.org/1999/02/22-rdf-syntax-ns#" xmlns="http://www.w3.org/2000/svg" xmlns:ns0="http://www.iki.fi/pav/software/textext/" height="108.58" width="250.2" version="1.1" xmlns:cc="http://creativecommons.org/ns#" viewBox="0 0 250.1966 108.58423" xmlns:dc="http://purl.org/dc/elements/1.1/">
 <style type="text/css">
	 @import url('../estilo.css');
 </style>
 <defs id="defs4">
  <marker id="marker4566" refY="0" refX="0" orient="auto" overflow="visible">
   <path id="path4568" d="m5.77 0-8.65 5v-10l8.65 5z" fill-rule="evenodd" transform="scale(.8)" stroke="#000" stroke-width="1pt"/>
  </marker>
  <marker id="TriangleOutL" refY="0" refX="0" orient="auto" overflow="visible">
   <path id="path4380" d="m5.77 0-8.65 5v-10l8.65 5z" fill-rule="evenodd" transform="scale(.8)" stroke="#000" stroke-width="1pt"/>
  </marker>
 </defs>
 <metadata id="metadata7">
  <rdf:RDF>
   <cc:Work rdf:about="">
    <dc:format>image/svg+xml</dc:format>
    <dc:type rdf:resource="http://purl.org/dc/dcmitype/StillImage"/>
    <dc:title/>
   </cc:Work>
  </rdf:RDF>
 </metadata>
 <g id="layer1" transform="translate(-164.84 -270.21)">
  <path id="path4219" d="m170 342.36c103.9 35.345 94.684-25.792 130-25 38.333 0.85943 63.863 51.71 110 55" stroke="#000" stroke-width="1px" fill="none"/>
  <g stroke="#000">
   <circle id="path4221" cy="317.36" cx="300" r="1.7495"/>
   <rect id="rect4226" height="10" width="1" y="316.58" x="284.52"/>
   <rect id="rect4228" height="10" width="1" y="315.25" x="314.54"/>
  </g>
  <path id="path4230" marker-end="url(#TriangleOutL)" d="m300 357.36v-23" stroke="#000" stroke-width="1px" fill="none"/>
  <path id="path4558" marker-end="url(#marker4566)" d="m220 292.36 62 17" stroke="#000" stroke-width="1px" fill="none"/>
  <g>
   <text id="text5098" style="word-spacing:0px;letter-spacing:0px" font-size="16px" line-height="125%" y="373.63495" x="262.66376" font-family="&apos;STIX Two Text&apos;" xml:space="preserve" fill="#000000"><tspan id="tspan5100" y="373.63495" x="262.66376">localmente</tspan></text>
   <text id="text5127" style="word-spacing:0px;letter-spacing:0px" font-size="16px" line-height="125%" y="286.89072" x="195.63588" font-family="&apos;STIX Two Text&apos;" xml:space="preserve" fill="#000000"><tspan id="tspan5129" y="286.89072" x="195.63588">y = h(x)</tspan></text>
   <g id="content" xml:space="preserve" stroke="#000" stroke-width="0" fill-rule="evenodd" ns0:pdfconverter="pstoedit" transform="matrix(1.75 0 0 -1.75 36.796 1546.2)" stroke-miterlimit="10.433" ns0:text="$\n\\rm\nu_0 = (x_0,y_0)\n$" ns0:version="0.7.2" ns0:inkscapeversion="0.91" ns0:preamble="/usr/share/inkscape/extensions/default_packages.tex" ns0:scale="1.4" ns0:texconverter="pdflatex"><path id="path5156" d="m153.48 707.62h-0.05c-0.46 0-0.57 0.11-0.57 0.57v3.42h-1.57v-0.17c0.62-0.03 0.74-0.13 0.74-0.63v-2.34c0-0.28-0.05-0.42-0.19-0.53-0.27-0.22-0.58-0.34-0.88-0.34-0.39 0-0.71 0.34-0.71 0.76v3.25h-1.45v-0.14c0.48-0.03 0.62-0.18 0.62-0.64v-2.51c0-0.79 0.48-1.3 1.2-1.3 0.37 0 0.76 0.16 1.03 0.43l0.43 0.43v-0.83l0.04-0.02c0.5 0.2 0.85 0.31 1.36 0.45z"/><path id="path5158" d="m155.47 710.34h-0.04-0.03-0.04-0.03-0.03l-0.04-0.01h-0.03l-0.03-0.01h-0.03l-0.04-0.01-0.03-0.01-0.03-0.01h-0.03l-0.03-0.01-0.03-0.01-0.03-0.02-0.02-0.01-0.03-0.01-0.03-0.01-0.03-0.02-0.03-0.01-0.02-0.02-0.03-0.01-0.03-0.02-0.02-0.02-0.03-0.01-0.02-0.02-0.03-0.02-0.02-0.02-0.03-0.02-0.02-0.03-0.03-0.02c-0.4-0.39-0.66-1.19-0.66-2.01 0-0.76 0.23-1.57 0.55-1.96 0.26-0.31 0.62-0.48 1.02-0.48v0.18c-0.6 0-0.91 0.75-0.91 2.2 0 1.48 0.32 2.25 0.92 2.25 0.58 0 0.9-0.78 0.9-2.24s-0.31-2.21-0.91-2.21v-0.18c0.36 0 0.66 0.12 0.91 0.37 0.4 0.38 0.67 1.19 0.67 2.03 0 1.43-0.64 2.41-1.55 2.41z"/><polygon id="polygon5160" points="166.17 710.97 161.07 710.97 161.07 710.41 166.17 710.41"/><polygon id="polygon5162" points="166.17 708.95 161.07 708.95 161.07 708.39 166.17 708.39"/><path id="path5164" d="m172.49 713.86-0.07-0.05-0.06-0.04-0.07-0.04-0.06-0.04-0.05-0.04-0.06-0.04-0.06-0.04-0.05-0.04-0.05-0.03-0.05-0.04-0.04-0.04-0.05-0.03-0.04-0.04-0.05-0.03-0.08-0.07-0.08-0.07-0.07-0.06-0.07-0.07-0.07-0.08-0.07-0.07-0.07-0.07-0.06-0.08-0.07-0.09c-0.71-0.87-1.06-1.86-1.06-3.03 0-1.26 0.37-2.24 1.25-3.25 0.4-0.48 0.66-0.7 1.18-1.02l0.12 0.16c-0.8 0.63-1.07 0.97-1.34 1.72-0.24 0.67-0.35 1.43-0.35 2.42 0 1.05 0.13 1.87 0.4 2.48 0.28 0.62 0.57 0.98 1.29 1.56z"/><path id="path5166" d="m175.64 707.12h2v0.15c-0.31 0-0.51 0.16-0.82 0.6l-1.27 1.95 0.82 1.2c0.19 0.27 0.49 0.43 0.81 0.44v0.15h-1.57v-0.15c0.3-0.02 0.4-0.08 0.4-0.22 0-0.12-0.12-0.34-0.37-0.65-0.05-0.06-0.17-0.24-0.3-0.44l-0.14 0.2c-0.28 0.42-0.46 0.76-0.46 0.89 0 0.14 0.13 0.21 0.43 0.22v0.15h-2.06v-0.15h0.09c0.29 0 0.45-0.13 0.76-0.6l0.94-1.44-1.14-1.64c-0.3-0.41-0.39-0.48-0.72-0.51v-0.15h1.44v0.15c-0.28 0-0.4 0.05-0.4 0.18 0 0.06 0.07 0.21 0.2 0.41l0.79 1.23 0.91-1.4c0.04-0.06 0.06-0.12 0.06-0.18 0-0.18-0.07-0.22-0.4-0.24z"/><path id="path5168" d="m179.62 710.34h-0.04-0.03-0.04-0.03-0.03l-0.04-0.01h-0.03l-0.03-0.01h-0.03l-0.04-0.01-0.03-0.01-0.03-0.01h-0.03l-0.03-0.01-0.03-0.01-0.03-0.02-0.02-0.01-0.03-0.01-0.03-0.01-0.03-0.02-0.03-0.01-0.02-0.02-0.03-0.01-0.03-0.02-0.02-0.02-0.03-0.01-0.02-0.02-0.03-0.02-0.02-0.02-0.03-0.02-0.02-0.03-0.03-0.02c-0.4-0.39-0.67-1.19-0.67-2.01 0-0.76 0.23-1.57 0.56-1.96 0.26-0.31 0.62-0.48 1.02-0.48v0.18c-0.6 0-0.91 0.75-0.91 2.2 0 1.48 0.32 2.25 0.92 2.25 0.58 0 0.9-0.78 0.9-2.24s-0.31-2.21-0.91-2.21v-0.18c0.36 0 0.66 0.12 0.91 0.37 0.4 0.38 0.67 1.19 0.67 2.03 0 1.43-0.64 2.41-1.55 2.41z"/><path id="path5170" d="m183.77 707.18v0.04 0.04 0.03 0.04l-0.01 0.03v0.04l-0.01 0.03v0.03l-0.01 0.03-0.01 0.03v0.03l-0.01 0.03-0.01 0.02-0.01 0.03-0.01 0.03-0.01 0.02-0.01 0.02-0.01 0.03-0.03 0.04-0.02 0.04-0.03 0.04-0.03 0.03-0.03 0.03-0.03 0.03-0.03 0.03-0.04 0.02-0.03 0.03-0.03 0.02-0.04 0.01-0.03 0.02-0.04 0.01-0.03 0.02-0.03 0.01h-0.03l-0.03 0.01-0.03 0.01h-0.03l-0.03 0.01h-0.03-0.02-0.02c-0.25 0-0.58-0.15-0.58-0.58 0-0.4 0.36-0.5 0.62-0.5 0.06 0 0.11 0.01 0.14 0.02 0.05 0.01 0.08 0.02 0.09 0.02 0.07 0 0.14-0.05 0.14-0.14 0-0.19-0.15-0.63-0.81-1.05l0.09-0.19c0.3 0.1 1.11 0.75 1.11 1.46z"/><path id="path5172" d="m190.72 711.61h-1.35v-0.15c0.32 0 0.48-0.09 0.48-0.25 0-0.04-0.01-0.1-0.04-0.17l-0.97-2.75-1.14 2.52c-0.06 0.14-0.1 0.27-0.1 0.38 0 0.18 0.15 0.25 0.58 0.27v0.15h-2.06v-0.14c0.26-0.04 0.43-0.15 0.51-0.32l1.14-2.45 0.03-0.08 0.15-0.3c0.28-0.5 0.44-0.86 0.44-1.01s-0.23-0.78-0.4-1.07c-0.14-0.26-0.36-0.45-0.5-0.45-0.06 0-0.15 0.02-0.25 0.07-0.19 0.07-0.36 0.11-0.53 0.11-0.23 0-0.43-0.2-0.43-0.44 0-0.33 0.32-0.58 0.74-0.58 0.67 0 1.15 0.56 1.69 1.99l1.53 4.07c0.13 0.32 0.24 0.42 0.48 0.45z"/><path id="path5174" d="m192.74 710.34h-0.04-0.03-0.04-0.03-0.04l-0.03-0.01h-0.03l-0.04-0.01h-0.03l-0.03-0.01-0.03-0.01-0.03-0.01h-0.03l-0.03-0.01-0.03-0.01-0.03-0.02-0.03-0.01-0.02-0.01-0.03-0.01-0.03-0.02-0.03-0.01-0.02-0.02-0.03-0.01-0.03-0.02-0.02-0.02-0.03-0.01-0.02-0.02-0.03-0.02-0.02-0.02-0.03-0.02-0.02-0.03-0.03-0.02c-0.4-0.39-0.67-1.19-0.67-2.01 0-0.76 0.23-1.57 0.56-1.96 0.26-0.31 0.61-0.48 1.02-0.48v0.18c-0.6 0-0.91 0.75-0.91 2.2 0 1.48 0.32 2.25 0.91 2.25s0.91-0.78 0.91-2.24-0.31-2.21-0.91-2.21v-0.18c0.35 0 0.65 0.12 0.91 0.37 0.4 0.38 0.67 1.19 0.67 2.03 0 1.43-0.64 2.41-1.55 2.41z"/><path id="path5176" d="m195.33 705.36 0.06 0.04 0.07 0.05 0.06 0.04 0.06 0.04 0.06 0.04 0.06 0.04 0.05 0.04 0.05 0.03 0.06 0.04 0.04 0.04 0.05 0.03 0.05 0.04 0.04 0.03 0.04 0.04 0.09 0.06 0.07 0.07 0.08 0.07 0.07 0.07 0.07 0.07 0.07 0.08 0.06 0.07 0.07 0.08 0.07 0.08c0.71 0.87 1.06 1.87 1.06 3.03 0 1.28-0.37 2.25-1.25 3.26-0.41 0.48-0.67 0.7-1.18 1.02l-0.12-0.16c0.79-0.63 1.06-0.98 1.34-1.73 0.24-0.66 0.35-1.42 0.35-2.42 0-1.03-0.13-1.86-0.4-2.47-0.28-0.62-0.58-0.98-1.29-1.56z"/></g>
  </g>
 </g>
</svg>
