<?xml version="1.0" encoding="UTF-8" standalone="no"?>
<!-- Created with Inkscape (http://www.inkscape.org/) -->
<svg id="svg4876" xmlns:rdf="http://www.w3.org/1999/02/22-rdf-syntax-ns#" xmlns="http://www.w3.org/2000/svg" xmlns:ns0="http://www.iki.fi/pav/software/textext/" height="200.12" width="248.08" version="1.1" xmlns:cc="http://creativecommons.org/ns#" viewBox="0 0 248.0781 200.11821" xmlns:dc="http://purl.org/dc/elements/1.1/">
 <style type="text/css">
	 @import url('../estilo.css');
 </style>
 <defs id="defs4878">
  <marker id="TriangleOutL" refY="0" refX="0" orient="auto" overflow="visible">
   <path id="path5760" d="m5.77 0-8.65 5v-10l8.65 5z" fill-rule="evenodd" transform="scale(.8)" stroke="#000" stroke-width="1pt"/>
  </marker>
 </defs>
 <metadata id="metadata4881">
  <rdf:RDF>
   <cc:Work rdf:about="">
    <dc:format>image/svg+xml</dc:format>
    <dc:type rdf:resource="http://purl.org/dc/dcmitype/StillImage"/>
    <dc:title/>
   </cc:Work>
  </rdf:RDF>
 </metadata>
 <g id="layer1" transform="translate(-182.8 -267.36)">
  <g stroke="#000" stroke-width="1px" fill="none">
   <path id="path5488" d="m190 367.36h200"/>
   <path id="path5490" d="m240 407.36v-135"/>
   <path id="path5492" d="m200 352.36c9.95-42.27 18.44-9.6864 40-10 42.235-0.61428 47.458-37.453 90-45 33.17-5.8848 35 29.656 35 50 0 51.597-20 55-20 55"/>
  </g>
  <g stroke="#000">
   <circle id="path5544" cx="330" cy="297.36" r="1.9076"/>
   <circle id="circle5546" cy="347.36" cx="365" r="1.9076"/>
   <path id="path5548" d="m365 407.36v-95" stroke-width="1px" fill="none"/>
   <path id="path5612" marker-end="url(#TriangleOutL)" d="m195 387.36 4-27" stroke-width="1px" fill="none"/>
  </g>
  <g font-size="16px" font-family="&apos;STIX Two Text&apos;" fill="#000000">
   <text id="text6026" style="word-spacing:0px;letter-spacing:0px" xml:space="preserve" line-height="125%" y="401.27551" x="187.28323"><tspan id="tspan6028" x="187.28323" y="401.27551">Es una</tspan><tspan id="tspan6030" x="187.28323" y="421.27551">curva de</tspan><tspan id="tspan6032" x="187.28323" y="441.27551">nivel.</tspan></text>
   <text id="text6034" style="word-spacing:0px;letter-spacing:0px" xml:space="preserve" line-height="125%" y="422.30441" x="355.39883"><tspan id="tspan6036" x="355.39883" y="422.30441">La recta</tspan><tspan id="tspan6038" x="355.39883" y="442.30441">tangente</tspan><tspan id="tspan6040" x="355.39883" y="462.30441">es vertical.</tspan></text>
   <text id="text6042" style="word-spacing:0px;letter-spacing:0px" xml:space="preserve" line-height="125%" y="280.10788" x="227.25845"><tspan id="tspan6044" x="227.25845" y="280.10788">y</tspan></text>
   <text id="text6046" style="word-spacing:0px;letter-spacing:0px" xml:space="preserve" line-height="125%" y="379.52985" x="378.03467"><tspan id="tspan6048" x="378.03467" y="379.52985">x</tspan></text>
  </g>
  <g id="content" xml:space="preserve" stroke="#000" stroke-width="0" fill-rule="evenodd" ns0:pdfconverter="pstoedit" transform="matrix(1.75 0 0 -1.75 52.816 1524.6)" stroke-miterlimit="10.433" ns0:text="$\n\\rm\nu_0 = (x_0,y_0)\n$" ns0:version="0.7.2" ns0:inkscapeversion="0.91" ns0:preamble="/usr/share/inkscape/extensions/default_packages.tex" ns0:scale="1.4" ns0:texconverter="pdflatex"><path id="path6079" d="m153.48 707.62h-0.05c-0.46 0-0.57 0.11-0.57 0.57v3.42h-1.57v-0.17c0.62-0.03 0.74-0.13 0.74-0.63v-2.34c0-0.28-0.05-0.42-0.19-0.53-0.27-0.22-0.58-0.34-0.88-0.34-0.39 0-0.71 0.34-0.71 0.76v3.25h-1.45v-0.14c0.48-0.03 0.62-0.18 0.62-0.64v-2.51c0-0.79 0.48-1.3 1.2-1.3 0.37 0 0.76 0.16 1.03 0.43l0.43 0.43v-0.83l0.04-0.02c0.5 0.2 0.85 0.31 1.36 0.45z"/><path id="path6081" d="m155.47 710.34h-0.04-0.03-0.04-0.03-0.03l-0.04-0.01h-0.03l-0.03-0.01h-0.03l-0.04-0.01-0.03-0.01-0.03-0.01h-0.03l-0.03-0.01-0.03-0.01-0.03-0.02-0.02-0.01-0.03-0.01-0.03-0.01-0.03-0.02-0.03-0.01-0.02-0.02-0.03-0.01-0.03-0.02-0.02-0.02-0.03-0.01-0.02-0.02-0.03-0.02-0.02-0.02-0.03-0.02-0.02-0.03-0.03-0.02c-0.4-0.39-0.66-1.19-0.66-2.01 0-0.76 0.23-1.57 0.55-1.96 0.26-0.31 0.62-0.48 1.02-0.48v0.18c-0.6 0-0.91 0.75-0.91 2.2 0 1.48 0.32 2.25 0.92 2.25 0.58 0 0.9-0.78 0.9-2.24s-0.31-2.21-0.91-2.21v-0.18c0.36 0 0.66 0.12 0.91 0.37 0.4 0.38 0.67 1.19 0.67 2.03 0 1.43-0.64 2.41-1.55 2.41z"/><polygon id="polygon6083" points="161.07 710.97 161.07 710.41 166.17 710.41 166.17 710.97"/><polygon id="polygon6085" points="161.07 708.95 161.07 708.39 166.17 708.39 166.17 708.95"/><path id="path6087" d="m172.49 713.86-0.07-0.05-0.06-0.04-0.07-0.04-0.06-0.04-0.05-0.04-0.06-0.04-0.06-0.04-0.05-0.04-0.05-0.03-0.05-0.04-0.04-0.04-0.05-0.03-0.04-0.04-0.05-0.03-0.08-0.07-0.08-0.07-0.07-0.06-0.07-0.07-0.07-0.08-0.07-0.07-0.07-0.07-0.06-0.08-0.07-0.09c-0.71-0.87-1.06-1.86-1.06-3.03 0-1.26 0.37-2.24 1.25-3.25 0.4-0.48 0.66-0.7 1.18-1.02l0.12 0.16c-0.8 0.63-1.07 0.97-1.34 1.72-0.24 0.67-0.35 1.43-0.35 2.42 0 1.05 0.13 1.87 0.4 2.48 0.28 0.62 0.57 0.98 1.29 1.56z"/><path id="path6089" d="m175.64 707.12h2v0.15c-0.31 0-0.51 0.16-0.82 0.6l-1.27 1.95 0.82 1.2c0.19 0.27 0.49 0.43 0.81 0.44v0.15h-1.57v-0.15c0.3-0.02 0.4-0.08 0.4-0.22 0-0.12-0.12-0.34-0.37-0.65-0.05-0.06-0.17-0.24-0.3-0.44l-0.14 0.2c-0.28 0.42-0.46 0.76-0.46 0.89 0 0.14 0.13 0.21 0.43 0.22v0.15h-2.06v-0.15h0.09c0.29 0 0.45-0.13 0.76-0.6l0.94-1.44-1.14-1.64c-0.3-0.41-0.39-0.48-0.72-0.51v-0.15h1.44v0.15c-0.28 0-0.4 0.05-0.4 0.18 0 0.06 0.07 0.21 0.2 0.41l0.79 1.23 0.91-1.4c0.04-0.06 0.06-0.12 0.06-0.18 0-0.18-0.07-0.22-0.4-0.24z"/><path id="path6091" d="m179.62 710.34h-0.04-0.03-0.04-0.03-0.03l-0.04-0.01h-0.03l-0.03-0.01h-0.03l-0.04-0.01-0.03-0.01-0.03-0.01h-0.03l-0.03-0.01-0.03-0.01-0.03-0.02-0.02-0.01-0.03-0.01-0.03-0.01-0.03-0.02-0.03-0.01-0.02-0.02-0.03-0.01-0.03-0.02-0.02-0.02-0.03-0.01-0.02-0.02-0.03-0.02-0.02-0.02-0.03-0.02-0.02-0.03-0.03-0.02c-0.4-0.39-0.67-1.19-0.67-2.01 0-0.76 0.23-1.57 0.56-1.96 0.26-0.31 0.62-0.48 1.02-0.48v0.18c-0.6 0-0.91 0.75-0.91 2.2 0 1.48 0.32 2.25 0.92 2.25 0.58 0 0.9-0.78 0.9-2.24s-0.31-2.21-0.91-2.21v-0.18c0.36 0 0.66 0.12 0.91 0.37 0.4 0.38 0.67 1.19 0.67 2.03 0 1.43-0.64 2.41-1.55 2.41z"/><path id="path6093" d="m183.77 707.18v0.04 0.04 0.03 0.04l-0.01 0.03v0.04l-0.01 0.03v0.03l-0.01 0.03-0.01 0.03v0.03l-0.01 0.03-0.01 0.02-0.01 0.03-0.01 0.03-0.01 0.02-0.01 0.02-0.01 0.03-0.03 0.04-0.02 0.04-0.03 0.04-0.03 0.03-0.03 0.03-0.03 0.03-0.03 0.03-0.04 0.02-0.03 0.03-0.03 0.02-0.04 0.01-0.03 0.02-0.04 0.01-0.03 0.02-0.03 0.01h-0.03l-0.03 0.01-0.03 0.01h-0.03l-0.03 0.01h-0.03-0.02-0.02c-0.25 0-0.58-0.15-0.58-0.58 0-0.4 0.36-0.5 0.62-0.5 0.06 0 0.11 0.01 0.14 0.02 0.05 0.01 0.08 0.02 0.09 0.02 0.07 0 0.14-0.05 0.14-0.14 0-0.19-0.15-0.63-0.81-1.05l0.09-0.19c0.3 0.1 1.11 0.75 1.11 1.46z"/><path id="path6095" d="m190.72 711.61h-1.35v-0.15c0.32 0 0.48-0.09 0.48-0.25 0-0.04-0.01-0.1-0.04-0.17l-0.97-2.75-1.14 2.52c-0.06 0.14-0.1 0.27-0.1 0.38 0 0.18 0.15 0.25 0.58 0.27v0.15h-2.06v-0.14c0.26-0.04 0.43-0.15 0.51-0.32l1.14-2.45 0.03-0.08 0.15-0.3c0.28-0.5 0.44-0.86 0.44-1.01s-0.23-0.78-0.4-1.07c-0.14-0.26-0.36-0.45-0.5-0.45-0.06 0-0.15 0.02-0.25 0.07-0.19 0.07-0.36 0.11-0.53 0.11-0.23 0-0.43-0.2-0.43-0.44 0-0.33 0.32-0.58 0.74-0.58 0.67 0 1.15 0.56 1.69 1.99l1.53 4.07c0.13 0.32 0.24 0.42 0.48 0.45z"/><path id="path6097" d="m192.74 710.34h-0.04-0.03-0.04-0.03-0.04l-0.03-0.01h-0.03l-0.04-0.01h-0.03l-0.03-0.01-0.03-0.01-0.03-0.01h-0.03l-0.03-0.01-0.03-0.01-0.03-0.02-0.03-0.01-0.02-0.01-0.03-0.01-0.03-0.02-0.03-0.01-0.02-0.02-0.03-0.01-0.03-0.02-0.02-0.02-0.03-0.01-0.02-0.02-0.03-0.02-0.02-0.02-0.03-0.02-0.02-0.03-0.03-0.02c-0.4-0.39-0.67-1.19-0.67-2.01 0-0.76 0.23-1.57 0.56-1.96 0.26-0.31 0.61-0.48 1.02-0.48v0.18c-0.6 0-0.91 0.75-0.91 2.2 0 1.48 0.32 2.25 0.91 2.25s0.91-0.78 0.91-2.24-0.31-2.21-0.91-2.21v-0.18c0.35 0 0.65 0.12 0.91 0.37 0.4 0.38 0.67 1.19 0.67 2.03 0 1.43-0.64 2.41-1.55 2.41z"/><path id="path6099" d="m195.33 705.36 0.06 0.04 0.07 0.05 0.06 0.04 0.06 0.04 0.06 0.04 0.06 0.04 0.05 0.04 0.05 0.03 0.06 0.04 0.04 0.04 0.05 0.03 0.05 0.04 0.04 0.03 0.04 0.04 0.09 0.06 0.07 0.07 0.08 0.07 0.07 0.07 0.07 0.07 0.07 0.08 0.06 0.07 0.07 0.08 0.07 0.08c0.71 0.87 1.06 1.87 1.06 3.03 0 1.28-0.37 2.25-1.25 3.26-0.41 0.48-0.67 0.7-1.18 1.02l-0.12-0.16c0.79-0.63 1.06-0.98 1.34-1.73 0.24-0.66 0.35-1.42 0.35-2.42 0-1.03-0.13-1.86-0.4-2.47-0.28-0.62-0.58-0.98-1.29-1.56z"/></g>
  <g id="g6179" xml:space="preserve" stroke="#000" stroke-width="0" fill-rule="evenodd" ns0:pdfconverter="pstoedit" transform="matrix(1.75 0 0 -1.75 111.61 1588.8)" stroke-miterlimit="10.433" ns0:text="$\n\\rm\n(x_1,y_1)\n$" ns0:version="0.7.2" ns0:inkscapeversion="0.91" ns0:preamble="/usr/share/inkscape/extensions/default_packages.tex" ns0:scale="1.4" ns0:texconverter="pdflatex"><path id="path6181" d="m151.65 713.86-0.07-0.05-0.06-0.04-0.07-0.04-0.06-0.04-0.06-0.04-0.05-0.04-0.06-0.04-0.05-0.04-0.05-0.03-0.05-0.04-0.05-0.04-0.04-0.03-0.05-0.04-0.04-0.03-0.08-0.07-0.08-0.07-0.07-0.06-0.08-0.07-0.06-0.08-0.07-0.07-0.07-0.07-0.07-0.08-0.07-0.09c-0.7-0.87-1.05-1.86-1.05-3.03 0-1.26 0.37-2.24 1.24-3.25 0.41-0.48 0.67-0.7 1.19-1.02l0.12 0.16c-0.8 0.63-1.08 0.97-1.35 1.72-0.24 0.67-0.35 1.43-0.35 2.42 0 1.05 0.13 1.87 0.4 2.48 0.28 0.62 0.58 0.98 1.3 1.56z"/><path id="path6183" d="m154.8 707.12h2v0.15c-0.3 0-0.5 0.16-0.81 0.6l-1.28 1.95 0.83 1.2c0.19 0.27 0.49 0.43 0.81 0.44v0.15h-1.58v-0.15c0.3-0.02 0.4-0.08 0.4-0.22 0-0.12-0.12-0.34-0.37-0.65-0.05-0.06-0.17-0.24-0.3-0.44l-0.14 0.2c-0.27 0.42-0.46 0.76-0.46 0.89 0 0.14 0.14 0.21 0.43 0.22v0.15h-2.06v-0.15h0.09c0.3 0 0.46-0.13 0.77-0.6l0.94-1.44-1.14-1.64c-0.3-0.41-0.4-0.48-0.73-0.51v-0.15h1.45v0.15c-0.28 0-0.4 0.05-0.4 0.18 0 0.06 0.07 0.21 0.2 0.41l0.78 1.23 0.91-1.4c0.04-0.06 0.06-0.12 0.06-0.18 0-0.18-0.07-0.22-0.4-0.24z"/><path id="path6185" d="m159.04 710.34-1.25-0.63v-0.1c0.08 0.04 0.16 0.06 0.19 0.08 0.12 0.05 0.24 0.08 0.31 0.08 0.14 0 0.21-0.11 0.21-0.33v-3.16c0-0.23-0.06-0.39-0.17-0.45-0.1-0.07-0.2-0.09-0.49-0.1v-0.1h1.92v0.1c-0.55 0.01-0.66 0.08-0.66 0.42v4.18z"/><path id="path6187" d="m162.94 707.18v0.04 0.04l-0.01 0.03v0.04 0.03l-0.01 0.04v0.03l-0.01 0.03v0.03l-0.01 0.03-0.01 0.03-0.01 0.03-0.01 0.02-0.01 0.03-0.01 0.03-0.01 0.02-0.01 0.02-0.01 0.03-0.02 0.04-0.03 0.04-0.03 0.04-0.03 0.03-0.03 0.03-0.03 0.03-0.03 0.03-0.03 0.02-0.04 0.03-0.03 0.02-0.03 0.01-0.04 0.02-0.03 0.01-0.03 0.02-0.04 0.01h-0.03l-0.03 0.01-0.03 0.01h-0.03l-0.03 0.01h-0.02-0.03-0.02c-0.25 0-0.58-0.15-0.58-0.58 0-0.4 0.36-0.5 0.62-0.5 0.07 0 0.12 0.01 0.15 0.02 0.04 0.01 0.07 0.02 0.09 0.02 0.07 0 0.14-0.05 0.14-0.14 0-0.19-0.16-0.63-0.82-1.05l0.09-0.19c0.3 0.1 1.12 0.75 1.12 1.46z"/><path id="path6189" d="m169.88 711.61h-1.34v-0.15c0.32 0 0.47-0.09 0.47-0.25 0-0.04 0-0.1-0.03-0.17l-0.97-2.75-1.15 2.52c-0.06 0.14-0.1 0.27-0.1 0.38 0 0.18 0.15 0.25 0.58 0.27v0.15h-2.05v-0.14c0.26-0.04 0.43-0.15 0.51-0.32l1.13-2.45 0.03-0.08 0.15-0.3c0.28-0.5 0.44-0.86 0.44-1.01s-0.23-0.78-0.4-1.07c-0.14-0.26-0.36-0.45-0.5-0.45-0.05 0-0.14 0.02-0.25 0.07-0.18 0.07-0.35 0.11-0.52 0.11-0.23 0-0.43-0.2-0.43-0.44 0-0.33 0.32-0.58 0.74-0.58 0.66 0 1.14 0.56 1.68 1.99l1.53 4.07c0.13 0.32 0.24 0.42 0.48 0.45z"/><path id="path6191" d="m172.16 710.34-1.26-0.63v-0.1c0.09 0.04 0.16 0.06 0.19 0.08 0.13 0.05 0.25 0.08 0.32 0.08 0.14 0 0.21-0.11 0.21-0.33v-3.16c0-0.23-0.06-0.39-0.17-0.45-0.11-0.07-0.2-0.09-0.5-0.1v-0.1h1.93v0.1c-0.55 0.01-0.67 0.08-0.67 0.42v4.18z"/><path id="path6193" d="m174.49 705.36 0.07 0.04 0.06 0.05 0.07 0.04 0.06 0.04 0.06 0.04 0.05 0.04 0.06 0.04 0.05 0.03 0.05 0.04 0.05 0.04 0.05 0.03 0.04 0.04 0.05 0.03 0.04 0.04 0.08 0.06 0.08 0.07 0.07 0.07 0.08 0.07 0.06 0.07 0.07 0.08 0.07 0.07 0.07 0.08 0.07 0.08c0.7 0.87 1.05 1.87 1.05 3.03 0 1.28-0.37 2.25-1.24 3.26-0.41 0.48-0.67 0.7-1.19 1.02l-0.12-0.16c0.8-0.63 1.07-0.98 1.35-1.73 0.24-0.66 0.35-1.42 0.35-2.42 0-1.03-0.13-1.86-0.4-2.47-0.28-0.62-0.58-0.98-1.3-1.56z"/></g>
 </g>
</svg>
