<?xml version="1.0" encoding="UTF-8"?>
<!-- Created with Inkscape (http://www.inkscape.org/) -->
<svg width="240.66" height="212.18" version="1.1" viewBox="0 0 240.66 212.18" xmlns="http://www.w3.org/2000/svg" xmlns:cc="http://creativecommons.org/ns#" xmlns:dc="http://purl.org/dc/elements/1.1/" xmlns:ns0="http://www.iki.fi/pav/software/textext/" xmlns:rdf="http://www.w3.org/1999/02/22-rdf-syntax-ns#" xmlns:xlink="http://www.w3.org/1999/xlink">
 <style type="text/css">
  @import url('../estilo.css');
 </style>
 <defs>
  <marker id="Arrow1Lstart" overflow="visible" orient="auto">
   <path transform="matrix(.8 0 0 .8 10 0)" d="m0 0 5-5-17.5 5 17.5 5z" fill-rule="evenodd" stroke="#000" stroke-width="1pt"/>
  </marker>
  <marker id="Arrow1Lend" overflow="visible" orient="auto">
   <path transform="matrix(-.8 0 0 -.8 -10 0)" d="m0 0 5-5-17.5 5 17.5 5z" fill-rule="evenodd" stroke="#000" stroke-width="1pt"/>
  </marker>
  <marker id="marker2563" overflow="visible" orient="auto">
   <path transform="matrix(.4 0 0 .4 2.96 .4)" d="m-2.5-1c0 2.76-2.24 5-5 5s-5-2.24-5-5 2.24-5 5-5 5 2.24 5 5z" fill-rule="evenodd" stroke="#000" stroke-width="1pt"/>
  </marker>
  <marker id="DotM" overflow="visible" orient="auto">
   <path transform="matrix(.4 0 0 .4 2.96 .4)" d="m-2.5-1c0 2.76-2.24 5-5 5s-5-2.24-5-5 2.24-5 5-5 5 2.24 5 5z" fill-rule="evenodd" stroke="#000" stroke-width="1pt"/>
  </marker>
  <pattern id="pattern2260-657-572" patternTransform="matrix(.62885 .62885 -.62885 .62885 142.14 744.29)" xlink:href="#Strips1_8-357-444"/>
  <pattern id="Strips1_8-357-444" width="9" height="1" patternTransform="translate(0) scale(10)" patternUnits="userSpaceOnUse">
   <rect y="-.5" width="1" height="2" fill="#e6e6e6"/>
  </pattern>
 </defs>
 <metadata>
  <rdf:RDF>
   <cc:Work rdf:about="">
    <dc:format>image/svg+xml</dc:format>
    <dc:type rdf:resource="http://purl.org/dc/dcmitype/StillImage"/>
    <dc:title/>
   </cc:Work>
  </rdf:RDF>
 </metadata>
 <g transform="translate(-186.28 -795.58)">
  <path d="m210 802.52v180h210" fill="none" marker-end="url(#Arrow1Lend)" marker-start="url(#Arrow1Lstart)" stroke="#000" stroke-width="1px"/>
  <path d="m246.98 896.25c38.14-18.504 66.689-47.557 91.419-80.812v167.09h-91.419z" fill="url(#pattern2260-657-572)"/>
  <g fill="none" stroke="#000">
   <path d="m246.98 982.52v-86.274" stroke-dasharray="3, 3"/>
   <path d="m246.98 896.25c38.14-18.504 66.689-47.557 91.419-80.812" marker-end="url(#DotM)" marker-start="url(#marker2563)"/>
   <path d="m338.4 815.43v167.09" stroke-dasharray="3, 3"/>
  </g>
  <g fill="#000000" font-family="'STIX Two Text'" font-size="16px" letter-spacing="0px" word-spacing="0px">
   <text x="190.00002" y="827.51965" style="font-feature-settings:normal;font-variant-caps:normal;font-variant-ligatures:normal;font-variant-numeric:normal;line-height:1.25" xml:space="preserve"><tspan x="190.00002" y="827.51965" font-family="'STIX Two Text'" font-style="italic">T</tspan></text>
   <text x="390" y="1002.5196" style="font-feature-settings:normal;font-variant-caps:normal;font-variant-ligatures:normal;font-variant-numeric:normal;line-height:1.25" xml:space="preserve"><tspan x="390" y="1002.5196" font-family="'STIX Two Text'" font-style="italic">S</tspan></text>
   <text x="234.66325" y="896.59906" style="font-feature-settings:normal;font-variant-caps:normal;font-variant-ligatures:normal;font-variant-numeric:normal;line-height:1.25" xml:space="preserve"><tspan x="234.66325" y="896.59906">1</tspan></text>
   <text x="341.25009" y="812.45331" style="font-feature-settings:normal;font-variant-caps:normal;font-variant-ligatures:normal;font-variant-numeric:normal;line-height:1.25" xml:space="preserve"><tspan x="341.25009" y="812.45331">2</tspan></text>
  </g>
  <g id="content" transform="matrix(1.6 0 0 -1.6 41.229 1981.7)" fill-rule="evenodd" stroke="#000" stroke-miterlimit="10.433" stroke-width="0" inkscapeversion="0.92.4" ns0:alignment="middle center" ns0:jacobian_sqrt="1.6" ns0:pdfconverter="pstoedit" ns0:preamble="/home/antonio/.config/inkscape/extensions/textext/default_packages.tex" ns0:scale="1.2" ns0:texconverter="pdflatex" ns0:text="$Q_{\\rm rev}$" ns0:version="0.10.0" xml:space="preserve">
<path d="m151.74 657.08h0.07l0.07 0.01h0.07l0.06 0.01h0.07l0.12 0.02 0.05 0.01h0.06l0.06 0.01 0.1 0.02 0.11 0.02 0.09 0.03 0.2 0.06 0.09 0.03 0.09 0.04 0.1 0.04 0.1 0.05 0.05 0.02 0.05 0.03 0.05 0.02 0.05 0.03c1.47 0.83 2.48 2.44 2.48 4.01 0 1.34-0.96 2.31-2.28 2.31l-0.05-0.33c0.8 0 1.28-0.57 1.28-1.52 0-1.05-0.46-2.51-1.1-3.42-0.55-0.79-1.17-1.18-1.9-1.18-0.81 0-1.27 0.61-1.27 1.65 0 0.95 0.49 2.43 1.09 3.29 0.56 0.81 1.17 1.18 1.9 1.18l0.05 0.33c-0.8 0-1.7-0.41-2.5-1.12-1-0.94-1.59-2.14-1.59-3.3 0-0.81 0.3-1.49 0.84-1.91 0.26-0.21 0.48-0.3 0.91-0.4-0.9-0.8-0.99-0.88-1.76-1.41l0.1-0.15c0.38 0.21 0.76 0.3 1.15 0.3 0.19 0 0.48-0.06 0.92-0.18 0.61-0.16 1.15-0.26 1.52-0.26 0.55 0 1.25 0.25 1.75 0.65 0.24 0.18 0.37 0.32 0.63 0.68l-0.15 0.11c-0.56-0.58-0.96-0.77-1.68-0.77-0.26 0-0.47 0.04-1.23 0.22-0.52 0.13-0.99 0.22-1.05 0.21-0.04-0.01-0.06-0.01-0.06-0.01h-0.24z"/>
<path d="m156.21 658.45h0.01l0.01 0.01h0.03l0.02 0.01h0.06l0.02 0.01h0.1c0.17 0 0.24-0.11 0.24-0.42v-1.73c0-0.35-0.05-0.4-0.5-0.49v-0.1h1.68v0.1c-0.48 0.03-0.6 0.13-0.6 0.53v1.56c0 0.22 0.3 0.57 0.49 0.57 0.04 0 0.11-0.03 0.18-0.1 0.12-0.1 0.19-0.14 0.28-0.14 0.17 0 0.28 0.12 0.28 0.31 0 0.23-0.15 0.37-0.39 0.37-0.29 0-0.5-0.16-0.84-0.65v0.64l-0.03 0.01c-0.37-0.15-0.63-0.24-1.04-0.38z"/>
<path d="m161.34 656.88-0.03-0.05-0.03-0.04-0.03-0.05-0.04-0.04-0.12-0.16-0.12-0.12-0.04-0.03-0.03-0.03-0.09-0.06-0.04-0.02-0.06-0.04-0.04-0.01-0.03-0.02-0.04-0.01-0.03-0.01-0.08-0.02h-0.04l-0.03-0.01h-0.04l-0.04-0.01h-0.08c-0.4 0-0.7 0.2-0.91 0.6-0.12 0.26-0.17 0.49-0.19 0.92l0.02 0.22c0.08 0.54 0.31 0.8 0.74 0.8s0.59-0.2 0.68-0.8h-1.42l-0.02-0.22h2.16c-0.06 0.45-0.13 0.65-0.3 0.87-0.21 0.25-0.53 0.4-0.9 0.4-0.35 0-0.68-0.12-0.94-0.36-0.33-0.29-0.52-0.78-0.52-1.35 0-0.96 0.5-1.56 1.31-1.56 0.66 0 1.19 0.41 1.48 1.16z"/>
<path d="m164.74 658.87h-0.97v-0.1c0.22-0.03 0.33-0.1 0.33-0.23 0-0.07-0.01-0.14-0.04-0.2l-0.69-1.81-0.72 1.78c-0.04 0.1-0.06 0.2-0.06 0.26 0 0.13 0.08 0.17 0.32 0.2v0.1h-1.37v-0.1c0.27-0.02 0.32-0.09 0.64-0.8l0.84-2c0.01-0.04 0.03-0.09 0.05-0.15 0.04-0.12 0.09-0.18 0.13-0.18s0.09 0.09 0.19 0.35l0.9 2.23c0.2 0.48 0.24 0.52 0.45 0.55z"/>
</g>
 </g>
</svg>
