<?xml version="1.0" encoding="UTF-8"?>
<!-- Created with Inkscape (http://www.inkscape.org/) -->
<svg width="427.09" height="272.02" version="1.1" viewBox="0 0 427.09 272.02" xmlns="http://www.w3.org/2000/svg" xmlns:cc="http://creativecommons.org/ns#" xmlns:dc="http://purl.org/dc/elements/1.1/" xmlns:rdf="http://www.w3.org/1999/02/22-rdf-syntax-ns#" xmlns:xlink="http://www.w3.org/1999/xlink">
 <style type="text/css">
	 @import url('../estilo.css');
 </style>
 <defs>
  <marker id="Arrow2Lend" overflow="visible" orient="auto">
   <path transform="matrix(-1.1,0,0,-1.1,-1.1,0)" d="m8.7186 4.0337-10.926-4.0177 10.926-4.0177c-1.7455 2.3721-1.7354 5.6175-6e-7 8.0354z" fill-rule="evenodd" stroke="#000" stroke-linejoin="round" stroke-width=".625"/>
  </marker>
  <marker id="Arrow1Lstart" overflow="visible" orient="auto">
   <path transform="matrix(.8 0 0 .8 10 0)" d="m0 0 5-5-17.5 5 17.5 5z" fill-rule="evenodd" stroke="#000" stroke-width="1pt"/>
  </marker>
  <marker id="Arrow1Lend" overflow="visible" orient="auto">
   <path transform="matrix(-.8 0 0 -.8 -10 0)" d="m0 0 5-5-17.5 5 17.5 5z" fill-rule="evenodd" stroke="#000" stroke-width="1pt"/>
  </marker>
  <marker id="DotM" overflow="visible" orient="auto">
   <path transform="matrix(.4 0 0 .4 2.96 .4)" d="m-2.5-1c0 2.76-2.24 5-5 5s-5-2.24-5-5 2.24-5 5-5 5 2.24 5 5z" fill-rule="evenodd" stroke="#000" stroke-width="1pt"/>
  </marker>
  <pattern id="pattern2295-188" patternTransform="matrix(.55216 .55216 -.55216 .55216 270 837.52)" xlink:href="#Strips1_8-732"/>
  <pattern id="Strips1_8-732" width="9" height="1" patternTransform="translate(0) scale(10)" patternUnits="userSpaceOnUse">
   <rect y="-.5" width="1" height="2" fill="#ccc"/>
  </pattern>
 </defs>
 <metadata>
  <rdf:RDF>
   <cc:Work rdf:about="">
    <dc:format>image/svg+xml</dc:format>
    <dc:type rdf:resource="http://purl.org/dc/dcmitype/StillImage"/>
    <dc:title/>
   </cc:Work>
  </rdf:RDF>
 </metadata>
 <g transform="translate(-189.86 -660.58)">
  <path d="m401.03 736.89v170.63" fill="none" stroke="#ccc" stroke-dasharray="4, 4"/>
  <path d="m325.51 775.62v131.9" fill="none" stroke="#ccc" stroke-dasharray="4, 4"/>
  <path d="m401.03 736.89c-30.451 9.1366-54.288 23.002-75.516 38.732v131.9h75.516z" fill="url(#pattern2295-188)"/>
  <g fill="none">
   <g stroke-width="1px">
    <path d="m269.48 702.57c65.457 44.592 135.93 73.293 208.25 96.149" stroke="#00f"/>
    <path d="m275.08 671.52c26.318 71.053 64.358 133.09 111.81 187.89" stroke="#f00"/>
    <path d="m368.9 676.79c31.229 69.352 76.648 126.45 125.61 180.49" stroke="#f00"/>
    <path d="m325.51 775.62c21.228-15.73 45.065-29.595 75.516-38.732" stroke="#000"/>
   </g>
   <path d="m287.7 810.92c10.094-12.268 23.706-23.832 37.81-35.298 21.228-15.73 45.065-29.595 75.516-38.732 19.118-5.1324 38.737-8.8617 61.149-4.7687" marker-mid="url(#DotM)" stroke="#000" stroke-dasharray="4, 4"/>
  </g>
  <g fill="#000000" font-family="'STIX Two Text'" font-size="16px" letter-spacing="0px" word-spacing="0px">
   <text x="307.18021" y="777.11743" style="font-feature-settings:normal;font-variant-caps:normal;font-variant-ligatures:normal;font-variant-numeric:normal;line-height:1.25" xml:space="preserve"><tspan x="307.18021" y="777.11743">A</tspan></text>
   <text x="354.93021" y="748.64166" style="font-feature-settings:normal;font-variant-caps:normal;font-variant-ligatures:normal;font-variant-numeric:normal;line-height:1.25" xml:space="preserve"><tspan x="354.93021" y="748.64166">D</tspan></text>
   <text x="400.68021" y="730.61743" style="font-feature-settings:normal;font-variant-caps:normal;font-variant-ligatures:normal;font-variant-numeric:normal;line-height:1.25" xml:space="preserve"><tspan x="400.68021" y="730.61743">B</tspan></text>
   <text x="282" y="731.51965" style="font-feature-settings:normal;font-variant-caps:normal;font-variant-ligatures:normal;font-variant-numeric:normal;line-height:1.25" xml:space="preserve"><tspan x="282" y="731.51965">C</tspan></text>
   <text x="436" y="781.51965" style="font-feature-settings:normal;font-variant-caps:normal;font-variant-ligatures:normal;font-variant-numeric:normal;line-height:1.25" xml:space="preserve"><tspan x="436" y="781.51965">E</tspan></text>
   <text x="482" y="805.51965" style="font-feature-settings:normal;font-variant-caps:normal;font-variant-ligatures:normal;font-variant-numeric:normal;line-height:1.25" xml:space="preserve"><tspan x="482" y="805.51965">Isoterma</tspan></text>
   <text x="375" y="875.51965" style="font-feature-settings:normal;font-variant-caps:normal;font-variant-ligatures:normal;font-variant-numeric:normal;line-height:1.25" xml:space="preserve"><tspan x="375" y="875.51965">Adiabática</tspan></text>
   <text x="488" y="872.51965" style="font-feature-settings:normal;font-variant-caps:normal;font-variant-ligatures:normal;font-variant-numeric:normal;line-height:1.25" xml:space="preserve"><tspan x="488" y="872.51965">Adiabática</tspan></text>
   <text x="464" y="735.51965" style="font-feature-settings:normal;font-variant-caps:normal;font-variant-ligatures:normal;font-variant-numeric:normal;line-height:1.25" xml:space="preserve"><tspan x="464" y="735.51965">Recorrido (parcial)</tspan><tspan x="464" y="755.51965">ciclo reversible</tspan></text>
  </g>
  <path d="m215 667.52v240h395" fill="none" marker-end="url(#Arrow1Lend)" marker-start="url(#Arrow1Lstart)" stroke="#000" stroke-width="1px"/>
  <g fill="#000000" font-family="'STIX Two Text'" font-size="16px" letter-spacing="0px" word-spacing="0px">
   <text x="195" y="692.51965" style="font-feature-settings:normal;font-variant-caps:normal;font-variant-ligatures:normal;font-variant-numeric:normal;line-height:1.25" xml:space="preserve"><tspan x="195" y="692.51965" font-family="'STIX Two Text'" font-style="italic">P</tspan></text>
   <text x="580" y="927.51965" style="font-feature-settings:normal;font-variant-caps:normal;font-variant-ligatures:normal;font-variant-numeric:normal;line-height:1.25" xml:space="preserve"><tspan x="580" y="927.51965" font-family="'STIX Two Text'" font-style="italic">V</tspan></text>
   <text x="264" y="845.22479" style="font-feature-settings:normal;font-variant-caps:normal;font-variant-ligatures:normal;font-variant-numeric:normal;line-height:1.25" xml:space="preserve"><tspan x="264" y="845.22479">−<tspan font-family="'STIX Two Text'" font-style="italic">W</tspan><tspan dy="5" font-size="65%">AB</tspan></tspan></text>
  </g>
  <path d="m310 842.52 35 5" fill="none" marker-end="url(#Arrow2Lend)" stroke="#000" stroke-width="1px"/>
 </g>
</svg>
