<?xml version="1.0" encoding="UTF-8"?>
<!-- Created with Inkscape (http://www.inkscape.org/) -->
<svg width="341.48" height="320.95" version="1.1" viewBox="0 0 341.48 320.95" xmlns="http://www.w3.org/2000/svg" xmlns:cc="http://creativecommons.org/ns#" xmlns:dc="http://purl.org/dc/elements/1.1/" xmlns:rdf="http://www.w3.org/1999/02/22-rdf-syntax-ns#">
 <style type="text/css">
  @import url('../estilo.css');
 </style>
 <defs>
  <marker id="marker5709" overflow="visible" orient="auto">
   <path transform="matrix(-.8 0 0 -.8 -10 0)" d="m0 0 5-5-17.5 5 17.5 5z" fill-rule="evenodd" stroke="#000" stroke-width="1pt"/>
  </marker>
  <marker id="marker5651" overflow="visible" orient="auto">
   <path transform="matrix(.8 0 0 .8 10 0)" d="m0 0 5-5-17.5 5 17.5 5z" fill-rule="evenodd" stroke="#000" stroke-width="1pt"/>
  </marker>
  <marker id="marker2771" overflow="visible" orient="auto">
   <path transform="matrix(-1.1,0,0,-1.1,-1.1,0)" d="m8.7186 4.0337-10.926-4.0177 10.926-4.0177c-1.7455 2.3721-1.7354 5.6175-6e-7 8.0354z" fill="#00f" fill-rule="evenodd" stroke="#00f" stroke-linejoin="round" stroke-width=".625"/>
  </marker>
  <marker id="marker2749" overflow="visible" orient="auto">
   <path transform="matrix(-1.1,0,0,-1.1,-1.1,0)" d="m8.7186 4.0337-10.926-4.0177 10.926-4.0177c-1.7455 2.3721-1.7354 5.6175-6e-7 8.0354z" fill="#f00" fill-rule="evenodd" stroke="#f00" stroke-linejoin="round" stroke-width=".625"/>
  </marker>
  <marker id="Arrow2Lend" overflow="visible" orient="auto">
   <path transform="matrix(-1.1,0,0,-1.1,-1.1,0)" d="m8.7186 4.0337-10.926-4.0177 10.926-4.0177c-1.7455 2.3721-1.7354 5.6175-6e-7 8.0354z" fill="#f00" fill-rule="evenodd" stroke="#f00" stroke-linejoin="round" stroke-width=".625"/>
  </marker>
 </defs>
 <metadata>
  <rdf:RDF>
   <cc:Work rdf:about="">
    <dc:format>image/svg+xml</dc:format>
    <dc:type rdf:resource="http://purl.org/dc/dcmitype/StillImage"/>
    <dc:title/>
   </cc:Work>
  </rdf:RDF>
 </metadata>
 <g transform="translate(-20.457 -670.58)">
  <g fill="none">
   <path d="m58.929 716.45c23.16 25.123 46.403 42.685 71.253 56.837s51.306 24.895 80.89 36.377" marker-mid="url(#marker2771)" stroke="#00f" stroke-width="1px"/>
   <path d="m276.28 934.63c-37.952-22.345-78.196-44.971-114.78-78.603-36.582-33.632-69.503-78.27-92.808-144.64" marker-mid="url(#Arrow2Lend)" stroke="#f00" stroke-width="1px"/>
   <path d="m191.93 788.16c5.5917 31.676 15.076 58.192 28.017 82.597 12.941 24.405 29.338 46.7 48.755 69.936" marker-mid="url(#marker2749)" stroke="#f00" stroke-dasharray="3, 3"/>
  </g>
  <g fill="#000000" font-family="'STIX Two Text'" font-size="16px" letter-spacing="0px" word-spacing="0px">
   <text x="118" y="759.51965" style="font-feature-settings:normal;font-variant-caps:normal;font-variant-ligatures:normal;font-variant-numeric:normal;line-height:1.25" xml:space="preserve"><tspan x="118" y="759.51965">Isoterma</tspan></text>
   <text x="253" y="955.51965" style="font-feature-settings:normal;font-variant-caps:normal;font-variant-ligatures:normal;font-variant-numeric:normal;line-height:1.25" xml:space="preserve"><tspan x="253" y="955.51965">Adiabáticas</tspan></text>
   <text x="25.60132" y="702.51965" style="font-feature-settings:normal;font-variant-caps:normal;font-variant-ligatures:normal;font-variant-numeric:normal;line-height:1.25" xml:space="preserve"><tspan x="25.60132" y="702.51965" font-family="'STIX Two Text'" font-style="italic">P</tspan></text>
   <text x="325" y="986.45032" style="font-feature-settings:normal;font-variant-caps:normal;font-variant-ligatures:normal;font-variant-numeric:normal;line-height:1.25" xml:space="preserve"><tspan x="325" y="986.45032" font-family="'STIX Two Text'" font-style="italic">V</tspan></text>
  </g>
  <path d="m45.601 677.52v288.93h309.4" fill="none" marker-end="url(#marker5709)" marker-start="url(#marker5651)" stroke="#000" stroke-width="1px"/>
 </g>
</svg>
