<?xml version="1.0" encoding="UTF-8"?>
<!-- Created with Inkscape (http://www.inkscape.org/) -->
<svg width="427.09" height="380.09" version="1.1" viewBox="0 0 427.09 380.09" xmlns="http://www.w3.org/2000/svg" xmlns:cc="http://creativecommons.org/ns#" xmlns:dc="http://purl.org/dc/elements/1.1/" xmlns:ns0="http://www.iki.fi/pav/software/textext/" xmlns:rdf="http://www.w3.org/1999/02/22-rdf-syntax-ns#" xmlns:xlink="http://www.w3.org/1999/xlink">
 <style type="text/css">
  @import url('../estilo.css');
 </style>
 <defs>
  <marker id="marker16281" overflow="visible" orient="auto">
   <path transform="scale(.6) rotate(180) translate(0)" d="m8.7186 4.0337-10.926-4.0177 10.926-4.0177c-1.7455 2.3721-1.7354 5.6175-6e-7 8.0354z" fill-rule="evenodd" stroke="#000" stroke-linejoin="round" stroke-width=".625"/>
  </marker>
  <marker id="Arrow2Mend" overflow="visible" orient="auto">
   <path transform="scale(.6) rotate(180) translate(0)" d="m8.7186 4.0337-10.926-4.0177 10.926-4.0177c-1.7455 2.3721-1.7354 5.6175-6e-7 8.0354z" fill-rule="evenodd" stroke="#000" stroke-linejoin="round" stroke-width=".625"/>
  </marker>
  <marker id="marker13634" overflow="visible" orient="auto">
   <path transform="scale(1.1) rotate(180) translate(1)" d="m8.7186 4.0337-10.926-4.0177 10.926-4.0177c-1.7455 2.3721-1.7354 5.6175-6e-7 8.0354z" fill-rule="evenodd" stroke="#000" stroke-linejoin="round" stroke-width=".625"/>
  </marker>
  <marker id="marker1172" overflow="visible" orient="auto">
   <path transform="scale(1.1) rotate(180) translate(1)" d="m8.7186 4.0337-10.926-4.0177 10.926-4.0177c-1.7455 2.3721-1.7354 5.6175-6e-7 8.0354z" fill-rule="evenodd" stroke="#000" stroke-linejoin="round" stroke-width=".625"/>
  </marker>
  <marker id="Arrow2Lend" overflow="visible" orient="auto">
   <path transform="scale(1.1) rotate(180) translate(1)" d="m8.7186 4.0337-10.926-4.0177 10.926-4.0177c-1.7455 2.3721-1.7354 5.6175-6e-7 8.0354z" fill-rule="evenodd" stroke="#000" stroke-linejoin="round" stroke-width=".625"/>
  </marker>
  <marker id="marker2117" overflow="visible" orient="auto">
   <path transform="matrix(-.8 0 0 -.8 -10 0)" d="m0 0 5-5-17.5 5 17.5 5z" fill-rule="evenodd" stroke="#000" stroke-width="1pt"/>
  </marker>
  <marker id="marker2113" overflow="visible" orient="auto">
   <path transform="matrix(.8 0 0 .8 10 0)" d="m0 0 5-5-17.5 5 17.5 5z" fill-rule="evenodd" stroke="#000" stroke-width="1pt"/>
  </marker>
  <marker id="DotM" overflow="visible" orient="auto">
   <path transform="matrix(.4 0 0 .4 2.96 .4)" d="m-2.5-1c0 2.76-2.24 5-5 5s-5-2.24-5-5 2.24-5 5-5 5 2.24 5 5z" fill-rule="evenodd" stroke="#000" stroke-width="1pt"/>
  </marker>
  <pattern id="pattern3573-679" patternTransform="matrix(.66516 .66516 -.66516 .66516 662.92 807.87)" xlink:href="#Strips1_8-364"/>
  <pattern id="Strips1_8-364" width="9" height="1" patternTransform="translate(0) scale(10)" patternUnits="userSpaceOnUse">
   <rect y="-.5" width="1" height="2" fill="#ccc"/>
  </pattern>
 </defs>
 <metadata>
  <rdf:RDF>
   <cc:Work rdf:about="">
    <dc:format>image/svg+xml</dc:format>
    <dc:type rdf:resource="http://purl.org/dc/dcmitype/StillImage"/>
    <dc:title/>
   </cc:Work>
  </rdf:RDF>
 </metadata>
 <g transform="translate(-486.46 -717.51)">
  <path d="m821.94 902.75c-19.071-3.2838-36.077-9.9577-54.486-16.552-11.545-21.663-22.567-43.591-32.279-66.181 14.27 7.8311 32.924 12.915 51.436 15.561 11.484 23.172 22.542 44.736 35.328 67.173z" fill="url(#pattern3573-679)"/>
  <g fill="none">
   <g stroke="#00f" stroke-width="1px">
    <path d="m570 935.31c23.06 6.8986 33.763 7.873 40.868 8.4188"/>
    <path d="m593.23 898.17c10.828 4.3952 22.97 9.0446 43.522 12.514"/>
    <path d="m622.54 870.8c14.27 7.8311 30.193 12.652 48.705 15.298"/>
    <path d="m657.38 849.2c14.27 7.8311 33.128 12.676 51.641 15.321"/>
    <path d="m696.74 832.2c14.27 7.8311 32.321 12.308 50.834 14.954"/>
    <path d="m735.18 820.02c14.27 7.8311 32.924 12.915 51.436 15.561"/>
    <path d="m777.15 816.35c14.27 7.8311 29.823 11.896 48.336 14.542"/>
    <path d="m585.04 967.76c14.521 5.2289 27.754 9.7037 44.93 12.278"/>
    <path d="m621.65 965.4c17.8 5.5326 32.679 10.536 49.16 12.769"/>
    <path d="m656.15 952.65c18.409 6.5946 35.026 12.242 54.097 15.525"/>
    <path d="m692.35 934.53c18.409 6.5946 39.794 13.845 58.866 17.129"/>
    <path d="m729.54 911.2c18.409 6.5946 43.923 16.199 62.995 19.482"/>
    <path d="m767.46 886.2c18.409 6.5946 35.414 13.268 54.486 16.552"/>
    <path d="m796.37 855.03c18.409 6.5946 29.755 11.194 48.826 14.478"/>
   </g>
   <g stroke="#f00" stroke-width="1px">
    <path d="m558.63 903.94c13.772 43.163 33.734 83.024 61.786 118.57"/>
    <path d="m585.77 872.51c13.83 53.009 36.203 103.17 72.857 148.57"/>
    <path d="m617.56 853.94c15.884 57.061 41.724 115.5 80.357 161.79"/>
    <path d="m653.96 839.62c21.602 60.858 45.365 120.85 86.873 173.75"/>
    <path d="m691.33 816.89c23.59 68.244 52.894 134.22 93.944 183.34"/>
    <path d="m730.23 808.3c24.144 58.575 56.321 113.67 89.398 167.18"/>
    <path d="m762.55 786.59c27.045 54.747 52.615 110.23 87.378 161.12"/>
    <path d="m801.44 777.49c17.123 37.792 32.843 76.635 55.053 110.61"/>
   </g>
   <path d="m585.04 967.76c-13.146-81.507 204.67-171.33 241.02-135.66 30.437 56.001-190.4 178.14-241.02 135.66z" marker-end="url(#DotM)" marker-mid="url(#DotM)" stroke="#000" stroke-width="1.5"/>
  </g>
  <text x="491.60132" y="749.45032" fill="#000000" font-family="'STIX Two Text'" font-size="16px" letter-spacing="0px" word-spacing="0px" style="font-feature-settings:normal;font-variant-caps:normal;font-variant-ligatures:normal;font-variant-numeric:normal;line-height:1.25" xml:space="preserve"><tspan x="491.60132" y="749.45032" font-family="'STIX Two Text'" font-style="italic">P</tspan></text>
  <text x="876.60132" y="1092.5197" fill="#000000" font-family="'STIX Two Text'" font-size="16px" letter-spacing="0px" word-spacing="0px" style="font-feature-settings:normal;font-variant-caps:normal;font-variant-ligatures:normal;font-variant-numeric:normal;line-height:1.25" xml:space="preserve"><tspan x="876.60132" y="1092.5197" font-family="'STIX Two Text'" font-style="italic">V</tspan></text>
  <path d="m511.6 724.45v348.07h395" fill="none" marker-end="url(#marker2117)" marker-start="url(#marker2113)" stroke="#000" stroke-width="1px"/>
  <g fill="#000000" font-family="'STIX Two Text'" font-size="16px" letter-spacing="0px" word-spacing="0px">
   <text x="569.7312" y="977.01385" style="font-feature-settings:normal;font-variant-caps:normal;font-variant-ligatures:normal;font-variant-numeric:normal;line-height:1.25" xml:space="preserve"><tspan x="569.7312" y="977.01385">A</tspan></text>
   <text x="831.41571" y="832.37787" style="font-feature-settings:normal;font-variant-caps:normal;font-variant-ligatures:normal;font-variant-numeric:normal;line-height:1.25" xml:space="preserve"><tspan x="831.41571" y="832.37787">M</tspan></text>
   <text x="605.95837" y="925.77271" style="font-feature-settings:normal;font-variant-caps:normal;font-variant-ligatures:normal;font-variant-numeric:normal;line-height:1.25" xml:space="preserve"><tspan x="605.95837" y="925.77271">B</tspan></text>
   <text x="555.40021" y="942.03613" style="font-feature-settings:normal;font-variant-caps:normal;font-variant-ligatures:normal;font-variant-numeric:normal;line-height:1.25" xml:space="preserve"><tspan x="555.40021" y="942.03613">C</tspan></text>
   <text x="615.21143" y="946.04657" style="font-feature-settings:normal;font-variant-caps:normal;font-variant-ligatures:normal;font-variant-numeric:normal;line-height:1.25" xml:space="preserve"><tspan x="615.21143" y="946.04657">E</tspan></text>
  </g>
  <path d="m741.46 771.6 27 78" fill="none" marker-end="url(#Arrow2Lend)" stroke="#000" stroke-width="1px"/>
  <text x="718.45734" y="765.59967" fill="#000000" font-family="'STIX Two Text'" font-size="16px" letter-spacing="0px" word-spacing="0px" style="font-feature-settings:normal;font-variant-caps:normal;font-variant-ligatures:normal;font-variant-numeric:normal;line-height:1.25" xml:space="preserve"><tspan x="718.45734" y="765.59967">ciclo de Carnot</tspan></text>
  <text x="811.50751" y="1030.1216" fill="#000000" font-family="'STIX Two Text'" font-size="16px" letter-spacing="0px" word-spacing="0px" style="font-feature-settings:normal;font-variant-caps:normal;font-variant-ligatures:normal;font-variant-numeric:normal;line-height:1.25" xml:space="preserve"><tspan x="811.50751" y="1030.1216">adiabática</tspan></text>
  <path d="m844.41 1014.5-22.407-35.03" fill="none" marker-end="url(#marker1172)" stroke="#000" stroke-width="1px"/>
  <path d="m669.46 809.6-1.8284 39.182" fill="none" marker-end="url(#marker13634)" stroke="#000" stroke-width="1px"/>
  <text x="641.45734" y="804.59967" fill="#000000" font-family="'STIX Two Text'" font-size="16px" letter-spacing="0px" word-spacing="0px" style="font-feature-settings:normal;font-variant-caps:normal;font-variant-ligatures:normal;font-variant-numeric:normal;line-height:1.25" xml:space="preserve"><tspan x="641.45734" y="804.59967">isoterma</tspan></text>
  <g stroke="#000">
   <path d="m580 917.52 15 35" fill="none" marker-end="url(#Arrow2Mend)" stroke-width="1px"/>
   <g id="content" transform="matrix(1.6 0 0 -1.6 333.13 1962.5)" fill-rule="evenodd" stroke-miterlimit="10.433" stroke-width="0" inkscapeversion="0.92.4" ns0:alignment="middle center" ns0:jacobian_sqrt="1.6" ns0:pdfconverter="pstoedit" ns0:preamble="/home/antonio/.config/inkscape/extensions/textext/default_packages.tex" ns0:scale="1.2" ns0:texconverter="pdflatex" ns0:text="$Q_2$" ns0:version="0.10.0" xml:space="preserve">
<path d="m151.74 657.08h0.07l0.07 0.01h0.07l0.06 0.01h0.07l0.12 0.02 0.05 0.01h0.06l0.06 0.01 0.1 0.02 0.11 0.02 0.09 0.03 0.2 0.06 0.09 0.03 0.09 0.04 0.1 0.04 0.1 0.05 0.05 0.02 0.05 0.03 0.05 0.02 0.05 0.03c1.47 0.83 2.48 2.44 2.48 4.01 0 1.34-0.96 2.31-2.28 2.31l-0.05-0.33c0.8 0 1.28-0.57 1.28-1.52 0-1.05-0.46-2.51-1.1-3.42-0.55-0.79-1.17-1.18-1.9-1.18-0.81 0-1.27 0.61-1.27 1.65 0 0.95 0.49 2.43 1.09 3.29 0.56 0.81 1.17 1.18 1.9 1.18l0.05 0.33c-0.8 0-1.7-0.41-2.5-1.12-1-0.94-1.59-2.14-1.59-3.3 0-0.81 0.3-1.49 0.84-1.91 0.26-0.21 0.48-0.3 0.91-0.4-0.9-0.8-0.99-0.88-1.76-1.41l0.1-0.15c0.38 0.21 0.76 0.3 1.15 0.3 0.19 0 0.48-0.06 0.92-0.18 0.61-0.16 1.15-0.26 1.52-0.26 0.55 0 1.25 0.25 1.75 0.65 0.24 0.18 0.37 0.32 0.63 0.68l-0.15 0.11c-0.56-0.58-0.96-0.77-1.68-0.77-0.26 0-0.47 0.04-1.23 0.22-0.52 0.13-0.99 0.22-1.05 0.21-0.04-0.01-0.06-0.01-0.06-0.01h-0.24z"/>
<path d="m159.49 656.69-0.1 0.04c-0.25-0.4-0.35-0.46-0.66-0.46h-1.67l1.17 1.22c0.63 0.65 0.9 1.18 0.9 1.72 0 0.7-0.57 1.23-1.29 1.23-0.39 0-0.75-0.15-1.01-0.43-0.23-0.24-0.33-0.46-0.45-0.95l0.15-0.04c0.28 0.69 0.53 0.91 1.01 0.91 0.59 0 0.99-0.4 0.99-0.98 0-0.55-0.32-1.19-0.91-1.81l-1.25-1.32v-0.08h2.73z"/>
</g>
   <path d="m605 962.52 15 35" fill="none" marker-end="url(#marker16281)" stroke-width="1px"/>
   <g transform="matrix(1.6 0 0 -1.6 380.25 2062.8)" fill-rule="evenodd" stroke-miterlimit="10.433" stroke-width="0" inkscapeversion="0.92.4" ns0:alignment="middle center" ns0:jacobian_sqrt="1.6" ns0:pdfconverter="pstoedit" ns0:preamble="/home/antonio/.config/inkscape/extensions/textext/default_packages.tex" ns0:scale="1.2" ns0:texconverter="pdflatex" ns0:text="$Q_1$" ns0:version="0.10.0" xml:space="preserve">
<path d="m151.74 657.08h0.07l0.07 0.01h0.07l0.06 0.01h0.07l0.12 0.02 0.05 0.01h0.06l0.06 0.01 0.1 0.02 0.11 0.02 0.09 0.03 0.2 0.06 0.09 0.03 0.09 0.04 0.1 0.04 0.1 0.05 0.05 0.02 0.05 0.03 0.05 0.02 0.05 0.03c1.47 0.83 2.48 2.44 2.48 4.01 0 1.34-0.96 2.31-2.28 2.31l-0.05-0.33c0.8 0 1.28-0.57 1.28-1.52 0-1.05-0.46-2.51-1.1-3.42-0.55-0.79-1.17-1.18-1.9-1.18-0.81 0-1.27 0.61-1.27 1.65 0 0.95 0.49 2.43 1.09 3.29 0.56 0.81 1.17 1.18 1.9 1.18l0.05 0.33c-0.8 0-1.7-0.41-2.5-1.12-1-0.94-1.59-2.14-1.59-3.3 0-0.81 0.3-1.49 0.84-1.91 0.26-0.21 0.48-0.3 0.91-0.4-0.9-0.8-0.99-0.88-1.76-1.41l0.1-0.15c0.38 0.21 0.76 0.3 1.15 0.3 0.19 0 0.48-0.06 0.92-0.18 0.61-0.16 1.15-0.26 1.52-0.26 0.55 0 1.25 0.25 1.75 0.65 0.24 0.18 0.37 0.32 0.63 0.68l-0.15 0.11c-0.56-0.58-0.96-0.77-1.68-0.77-0.26 0-0.47 0.04-1.23 0.22-0.52 0.13-0.99 0.22-1.05 0.21-0.04-0.01-0.06-0.01-0.06-0.01h-0.24z"/>
<path d="m158.2 660.44-1.26-0.63v-0.1c0.08 0.04 0.16 0.06 0.19 0.08 0.13 0.05 0.24 0.07 0.31 0.07 0.15 0 0.21-0.1 0.21-0.32v-3.15c0-0.23-0.05-0.39-0.16-0.45-0.11-0.07-0.21-0.09-0.5-0.1v-0.1h1.93v0.1c-0.55 0.01-0.66 0.08-0.66 0.42v4.17z"/>
</g>
  </g>
 </g>
</svg>
