<?xml version="1.0" encoding="UTF-8"?>
<!-- Created with Inkscape (http://www.inkscape.org/) -->
<svg width="218.75" height="137.46" version="1.1" viewBox="0 0 218.75 137.46" xmlns="http://www.w3.org/2000/svg" xmlns:cc="http://creativecommons.org/ns#" xmlns:dc="http://purl.org/dc/elements/1.1/" xmlns:ns0="http://www.iki.fi/pav/software/textext/" xmlns:rdf="http://www.w3.org/1999/02/22-rdf-syntax-ns#">
 <style type="text/css">
  @import url('../estilo.css');
 </style>
 <defs>
  <marker id="Arrow2Lend" overflow="visible" orient="auto">
   <path transform="matrix(-1.1,0,0,-1.1,-1.1,0)" d="m8.7186 4.0337-10.926-4.0177 10.926-4.0177c-1.7455 2.3721-1.7354 5.6175-6e-7 8.0354z" fill-rule="evenodd" stroke="#000" stroke-linejoin="round" stroke-width=".625"/>
  </marker>
  <marker id="marker1506" overflow="visible" orient="auto">
   <path transform="matrix(-1.1,0,0,-1.1,-1.1,0)" d="m8.7186 4.0337-10.926-4.0177 10.926-4.0177c-1.7455 2.3721-1.7354 5.6175-6e-7 8.0354z" fill-rule="evenodd" stroke="#000" stroke-linejoin="round" stroke-width=".625"/>
  </marker>
 </defs>
 <metadata>
  <rdf:RDF>
   <cc:Work rdf:about="">
    <dc:format>image/svg+xml</dc:format>
    <dc:type rdf:resource="http://purl.org/dc/dcmitype/StillImage"/>
    <dc:title/>
   </cc:Work>
  </rdf:RDF>
 </metadata>
 <g transform="translate(-586.04 -659.69)">
  <path d="m646.07 681.09c26.514 16.819 56.828 29.839 92.857 37.143 2.3438 18.69 7.423 37.381 16.429 56.071-49.744-8.7882-72.466-20.191-93.214-31.786-7.5741-18.998-14.154-38.659-16.071-61.429z" fill="none" stroke="#000" stroke-width="1px"/>
  <g fill="#000000" font-family="'STIX Two Text'" font-size="16px" letter-spacing="0px" word-spacing="0px">
   <text x="750.35712" y="747.16248" style="font-feature-settings:normal;font-variant-caps:normal;font-variant-ligatures:normal;font-variant-numeric:normal;line-height:1.25" xml:space="preserve"><tspan x="750.35712" y="747.16248">adiab. I</tspan></text>
   <text x="720" y="706.80536" style="font-feature-settings:normal;font-variant-caps:normal;font-variant-ligatures:normal;font-variant-numeric:normal;line-height:1.25" xml:space="preserve"><tspan x="720" y="706.80536">isot. (<tspan font-family="'STIX Two Text'" font-style="italic">T</tspan><tspan dy="5" font-size="65%">2</tspan><tspan dy="-5">)</tspan></tspan></text>
   <text x="590.42853" y="721.80536" style="font-feature-settings:normal;font-variant-caps:normal;font-variant-ligatures:normal;font-variant-numeric:normal;line-height:1.25" xml:space="preserve"><tspan x="590.42853" y="721.80536">adiab. II</tspan></text>
   <text x="726.42859" y="788.94824" style="font-feature-settings:normal;font-variant-caps:normal;font-variant-ligatures:normal;font-variant-numeric:normal;line-height:1.25" xml:space="preserve"><tspan x="726.42859" y="788.94824">isot. (<tspan font-family="'STIX Two Text'" font-style="italic">T</tspan><tspan dy="5" font-size="65%">1</tspan><tspan dy="-5">)</tspan></tspan></text>
  </g>
  <g stroke="#000">
   <path d="m685 682.52v35" fill="none" marker-end="url(#marker1506)" stroke-width="1px"/>
   <path d="m690 737.52v35" fill="none" marker-end="url(#Arrow2Lend)" stroke-width="1px"/>
   <g id="content" transform="matrix(1.6 0 0 -1.6 437.79 1726.9)" fill-rule="evenodd" stroke-miterlimit="10.433" stroke-width="0" inkscapeversion="0.92.4" ns0:alignment="middle center" ns0:jacobian_sqrt="1.6" ns0:pdfconverter="pstoedit" ns0:preamble="/home/antonio/.config/inkscape/extensions/textext/default_packages.tex" ns0:scale="1.2" ns0:texconverter="pdflatex" ns0:text="$Q_2$" ns0:version="0.10.0" xml:space="preserve">
<path d="m151.74 657.08h0.07l0.07 0.01h0.07l0.06 0.01h0.07l0.12 0.02 0.05 0.01h0.06l0.06 0.01 0.1 0.02 0.11 0.02 0.09 0.03 0.2 0.06 0.09 0.03 0.09 0.04 0.1 0.04 0.1 0.05 0.05 0.02 0.05 0.03 0.05 0.02 0.05 0.03c1.47 0.83 2.48 2.44 2.48 4.01 0 1.34-0.96 2.31-2.28 2.31l-0.05-0.33c0.8 0 1.28-0.57 1.28-1.52 0-1.05-0.46-2.51-1.1-3.42-0.55-0.79-1.17-1.18-1.9-1.18-0.81 0-1.27 0.61-1.27 1.65 0 0.95 0.49 2.43 1.09 3.29 0.56 0.81 1.17 1.18 1.9 1.18l0.05 0.33c-0.8 0-1.7-0.41-2.5-1.12-1-0.94-1.59-2.14-1.59-3.3 0-0.81 0.3-1.49 0.84-1.91 0.26-0.21 0.48-0.3 0.91-0.4-0.9-0.8-0.99-0.88-1.76-1.41l0.1-0.15c0.38 0.21 0.76 0.3 1.15 0.3 0.19 0 0.48-0.06 0.92-0.18 0.61-0.16 1.15-0.26 1.52-0.26 0.55 0 1.25 0.25 1.75 0.65 0.24 0.18 0.37 0.32 0.63 0.68l-0.15 0.11c-0.56-0.58-0.96-0.77-1.68-0.77-0.26 0-0.47 0.04-1.23 0.22-0.52 0.13-0.99 0.22-1.05 0.21-0.04-0.01-0.06-0.01-0.06-0.01h-0.24z"/>
<path d="m159.49 656.69-0.1 0.04c-0.25-0.4-0.35-0.46-0.66-0.46h-1.67l1.17 1.22c0.63 0.65 0.9 1.18 0.9 1.72 0 0.7-0.57 1.23-1.29 1.23-0.39 0-0.75-0.15-1.01-0.43-0.23-0.24-0.33-0.46-0.45-0.95l0.15-0.04c0.28 0.69 0.53 0.91 1.01 0.91 0.59 0 0.99-0.4 0.99-0.98 0-0.55-0.32-1.19-0.91-1.81l-1.25-1.32v-0.08h2.73z"/>
</g>
   <g transform="matrix(1.6 0 0 -1.6 443.24 1839.9)" fill-rule="evenodd" stroke-miterlimit="10.433" stroke-width="0" inkscapeversion="0.92.4" ns0:alignment="middle center" ns0:jacobian_sqrt="1.6" ns0:pdfconverter="pstoedit" ns0:preamble="/home/antonio/.config/inkscape/extensions/textext/default_packages.tex" ns0:scale="1.2" ns0:texconverter="pdflatex" ns0:text="$Q_1$" ns0:version="0.10.0" xml:space="preserve">
<path d="m151.74 657.08h0.07l0.07 0.01h0.07l0.06 0.01h0.07l0.12 0.02 0.05 0.01h0.06l0.06 0.01 0.1 0.02 0.11 0.02 0.09 0.03 0.2 0.06 0.09 0.03 0.09 0.04 0.1 0.04 0.1 0.05 0.05 0.02 0.05 0.03 0.05 0.02 0.05 0.03c1.47 0.83 2.48 2.44 2.48 4.01 0 1.34-0.96 2.31-2.28 2.31l-0.05-0.33c0.8 0 1.28-0.57 1.28-1.52 0-1.05-0.46-2.51-1.1-3.42-0.55-0.79-1.17-1.18-1.9-1.18-0.81 0-1.27 0.61-1.27 1.65 0 0.95 0.49 2.43 1.09 3.29 0.56 0.81 1.17 1.18 1.9 1.18l0.05 0.33c-0.8 0-1.7-0.41-2.5-1.12-1-0.94-1.59-2.14-1.59-3.3 0-0.81 0.3-1.49 0.84-1.91 0.26-0.21 0.48-0.3 0.91-0.4-0.9-0.8-0.99-0.88-1.76-1.41l0.1-0.15c0.38 0.21 0.76 0.3 1.15 0.3 0.19 0 0.48-0.06 0.92-0.18 0.61-0.16 1.15-0.26 1.52-0.26 0.55 0 1.25 0.25 1.75 0.65 0.24 0.18 0.37 0.32 0.63 0.68l-0.15 0.11c-0.56-0.58-0.96-0.77-1.68-0.77-0.26 0-0.47 0.04-1.23 0.22-0.52 0.13-0.99 0.22-1.05 0.21-0.04-0.01-0.06-0.01-0.06-0.01h-0.24z"/>
<path d="m158.2 660.44-1.26-0.63v-0.1c0.08 0.04 0.16 0.06 0.19 0.08 0.13 0.05 0.24 0.07 0.31 0.07 0.15 0 0.21-0.1 0.21-0.32v-3.15c0-0.23-0.05-0.39-0.16-0.45-0.11-0.07-0.21-0.09-0.5-0.1v-0.1h1.93v0.1c-0.55 0.01-0.66 0.08-0.66 0.42v4.17z"/>
</g>
  </g>
 </g>
</svg>
