<?xml version="1.0" encoding="UTF-8" standalone="no"?>
<!-- Created with Inkscape (http://www.inkscape.org/) -->
<svg id="svg2" xmlns:rdf="http://www.w3.org/1999/02/22-rdf-syntax-ns#" xmlns="http://www.w3.org/2000/svg" xmlns:ns0="http://www.iki.fi/pav/software/textext/" height="250.32" width="594.89" version="1.1" xmlns:cc="http://creativecommons.org/ns#" viewBox="0 0 594.88544 250.31879" xmlns:dc="http://purl.org/dc/elements/1.1/">
 <style type="text/css">
	@import url('../estilo.css');
 </style>
 <defs id="defs4">
  <marker id="marker4892" refY="0" refX="0" overflow="visible" orient="auto">
   <path id="path4894" d="m5.77 0-8.65 5v-10l8.65 5z" fill-rule="evenodd" transform="scale(.8)" stroke="#000" stroke-width="1pt"/>
  </marker>
  <marker id="marker4694" refY="0" refX="0" orient="auto" overflow="visible">
   <path id="path4696" d="m5.77 0-8.65 5v-10l8.65 5z" fill-rule="evenodd" transform="scale(.8)" stroke="#000" stroke-width="1pt"/>
  </marker>
  <marker id="TriangleOutL" refY="0" refX="0" orient="auto" overflow="visible">
   <path id="path4552" d="m5.77 0-8.65 5v-10l8.65 5z" fill-rule="evenodd" transform="scale(.8)" stroke="#000" stroke-width="1pt"/>
  </marker>
 </defs>
 <metadata id="metadata7">
  <rdf:RDF>
   <cc:Work rdf:about="">
    <dc:format>image/svg+xml</dc:format>
    <dc:type rdf:resource="http://purl.org/dc/dcmitype/StillImage"/>
    <dc:title/>
   </cc:Work>
  </rdf:RDF>
 </metadata>
 <g id="layer1" transform="translate(-65 -258.11)">
  <g id="g5760">
   <path id="rect4317" d="m200 322.36c76.62 37.44 104.93-19.948 150-10v110h-150z" fill="#9f9"/>
   <path id="rect4306" d="m100 327.36c44.134-7.4498 46.804-9.2083 100-5v100h-100z" fill="#ccc"/>
   <path id="path4254" d="m70 422.36h395" stroke="#000" stroke-width="1px" fill="none"/>
   <path id="path4315" d="m100 327.36c25.104-52.72 59.889-23.729 100-5" fill-rule="evenodd" stroke="#000" stroke-width="1px" fill="#ccc"/>
   <g stroke="#000" fill="none">
    <path id="path4321" d="m200 322.36c81.041 37.84 104.25-21.712 150-10" stroke-width="1px"/>
    <path id="path4256" d="m350 312.36c45.031 11.529 74.266 7.1962 95 0" stroke-width="1px"/>
    <g stroke-dasharray="4, 4">
     <path id="path4258" d="m100.24 326.77v95.588"/>
     <path id="path4260" d="m200 322.36v100"/>
     <path id="path4264" d="m350 312.36v110"/>
     <path id="path4285" d="m200 322.36h150"/>
    </g>
    <g stroke-width="1px">
     <path id="path5142" d="m100 422.36v4"/>
     <path id="path5144" d="m200 422.36v4"/>
     <path id="path5146" d="m350 422.36v4"/>
    </g>
   </g>
   <g font-size="16px" font-family="&apos;STIX Two Text&apos;" fill="#000000">
    <text id="text5744" style="word-spacing:0px;letter-spacing:0px" xml:space="preserve" line-height="125%" y="438.64319" x="96.32"><tspan id="tspan5746" x="96.32" y="438.64319">c</tspan></text>
    <text id="text5748" style="word-spacing:0px;letter-spacing:0px" xml:space="preserve" line-height="125%" y="438.64319" x="196.16"><tspan id="tspan5750" x="196.16" y="438.64319">x</tspan></text>
    <text id="text5752" style="word-spacing:0px;letter-spacing:0px" xml:space="preserve" line-height="125%" y="438.64319" x="335.97424"><tspan id="tspan5754" x="335.97424" y="438.64319">x+h</tspan></text>
    <text id="text5756" style="word-spacing:0px;letter-spacing:0px" xml:space="preserve" line-height="125%" y="312.70779" x="97.065529"><tspan id="tspan5758" x="97.065529" y="312.70779">f</tspan></text>
   </g>
  </g>
  <g stroke="#000" stroke-width="1px" fill="none">
   <path id="path4404" marker-end="url(#TriangleOutL)" d="m130 442.36 10-30"/>
   <path id="path4686" marker-end="url(#marker4694)" d="m290 472.36-25-65"/>
   <path id="path4884" marker-end="url(#marker4892)" d="m245 282.36 11 32"/>
  </g>
  <g font-size="16px" font-family="&apos;STIX Two Text&apos;" fill="#000000">
   <text id="text5148" style="word-spacing:0px;letter-spacing:0px;text-anchor:middle;text-align:center" line-height="125%" y="459.89215" x="128.93716" xml:space="preserve"><tspan id="tspan5150" y="459.89215" x="128.93716">A(x)</tspan><tspan id="tspan5152" y="479.89215" x="128.93716">‖</tspan><tspan id="tspan5154" y="499.89215" x="128.93716">Área entre c y x</tspan></text>
   <text id="text5156" style="word-spacing:0px;letter-spacing:0px" line-height="125%" y="276.32535" x="228.57143" xml:space="preserve"><tspan id="tspan5158" y="276.32535" x="228.57143">h · f(x) = Área del rectángulo</tspan></text>
   <text id="text5160" style="word-spacing:0px;letter-spacing:0px" line-height="125%" y="488.46359" x="225.51152" xml:space="preserve"><tspan id="tspan5168" y="488.46359" x="225.51152">A(x+h) − A(x) =  Área entre x y x+h</tspan></text>
  </g>
  <g id="content" xml:space="preserve" stroke="#000" stroke-width="0" fill-rule="evenodd" ns0:pdfconverter="pstoedit" transform="matrix(1.75 0 0 -1.75 222.6 1597.2)" stroke-miterlimit="10.433" ns0:text="$\n\\rm\nh \\cdot f(x)\n\\underset{\n\t\\begin{subarray}{c}\n\t\t\\uparrow \\\\\n\t\t\\rm \\llap{h\\ } \\to \\rlap{\\ 0}\n\t\\end{subarray}\n}{\\approx}\nA(x{+}h) - A(x)\n$" ns0:version="0.7.2" ns0:inkscapeversion="0.91" ns0:preamble="/usr/share/inkscape/extensions/default_packages.tex" ns0:scale="1.4" ns0:texconverter="pdflatex"><path id="path5848" d="m150.27 710.54 0.04 0.04 0.04 0.04 0.04 0.04 0.04 0.04 0.03 0.03 0.04 0.04 0.03 0.03 0.04 0.03 0.03 0.03 0.04 0.03 0.03 0.02 0.04 0.03 0.03 0.02 0.03 0.03 0.04 0.02 0.03 0.02 0.03 0.01 0.03 0.02 0.04 0.02 0.03 0.01 0.03 0.01 0.04 0.01 0.03 0.01 0.03 0.01 0.04 0.01 0.03 0.01h0.03l0.04 0.01h0.03 0.04l0.03 0.01h0.04c0.5 0 0.75-0.36 0.75-1.06v-1.97c0-0.68-0.1-0.81-0.68-0.87v-0.15h2.11v0.15c-0.54 0.1-0.6 0.18-0.6 0.87v1.98c0 1.05-0.41 1.59-1.22 1.59-0.59 0-1.01-0.24-1.47-0.84v3.03l-0.05 0.03c-0.33-0.12-0.58-0.2-1.14-0.36l-0.27-0.08v-0.16c0.04 0.01 0.07 0.01 0.12 0.01 0.43 0 0.51-0.08 0.51-0.51v-4.69c0-0.7-0.06-0.79-0.64-0.87v-0.15h2.15v0.15c-0.58 0.06-0.68 0.18-0.68 0.87z"/><path id="path5850" d="m157.71 709.68v0.03 0.03 0.03l-0.01 0.03-0.01 0.02v0.03l-0.01 0.03-0.01 0.02-0.01 0.03-0.02 0.02-0.01 0.03-0.01 0.02-0.02 0.02-0.02 0.02-0.02 0.02-0.01 0.02-0.02 0.02-0.02 0.02-0.03 0.02-0.02 0.01-0.02 0.02-0.02 0.01-0.03 0.01-0.02 0.02-0.03 0.01-0.02 0.01h-0.03l-0.03 0.01h-0.02l-0.03 0.01h-0.03-0.03c-0.29 0-0.54-0.25-0.54-0.57 0-0.38 0.34-0.53 0.54-0.53 0.22 0 0.56 0.16 0.56 0.53z"/><path id="path5852" d="m163.69 711.61h-1.22v1.15c0 0.58 0.18 0.89 0.56 0.89 0.21 0 0.35-0.1 0.53-0.39 0.16-0.26 0.28-0.36 0.45-0.36 0.23 0 0.42 0.18 0.42 0.41 0 0.36-0.44 0.62-1.04 0.62-0.62 0-1.14-0.27-1.4-0.73-0.26-0.44-0.34-0.8-0.35-1.59h-0.82v-0.32h0.82v-3.13c0-0.73-0.11-0.85-0.83-0.89v-0.15h2.59v0.15c-0.81 0.03-0.92 0.14-0.92 0.89v3.13h1.21z"/><path id="path5854" d="m166.87 713.86-0.07-0.05-0.07-0.04-0.06-0.04-0.06-0.04-0.06-0.04-0.06-0.04-0.05-0.04-0.05-0.04-0.05-0.03-0.05-0.04-0.05-0.04-0.05-0.03-0.04-0.04-0.04-0.03-0.08-0.07-0.08-0.07-0.08-0.06-0.07-0.07-0.07-0.08-0.06-0.07-0.07-0.07-0.07-0.08-0.07-0.09c-0.71-0.87-1.05-1.86-1.05-3.03 0-1.26 0.36-2.24 1.24-3.25 0.41-0.48 0.67-0.7 1.19-1.02l0.12 0.16c-0.8 0.63-1.08 0.97-1.35 1.72-0.24 0.67-0.35 1.43-0.35 2.42 0 1.05 0.13 1.87 0.4 2.48 0.28 0.62 0.58 0.98 1.3 1.56z"/><path id="path5856" d="m170.02 707.12h2v0.15c-0.31 0-0.51 0.16-0.81 0.6l-1.28 1.95 0.83 1.2c0.19 0.27 0.48 0.43 0.8 0.44v0.15h-1.57v-0.15c0.3-0.02 0.4-0.08 0.4-0.22 0-0.12-0.12-0.34-0.37-0.65-0.05-0.06-0.17-0.24-0.3-0.44l-0.14 0.2c-0.28 0.42-0.46 0.76-0.46 0.89 0 0.14 0.13 0.21 0.43 0.22v0.15h-2.06v-0.15h0.09c0.3 0 0.46-0.13 0.77-0.6l0.93-1.44-1.13-1.64c-0.3-0.41-0.4-0.48-0.73-0.51v-0.15h1.44v0.15c-0.27 0-0.4 0.05-0.4 0.18 0 0.06 0.08 0.21 0.2 0.41l0.79 1.23 0.91-1.4c0.04-0.06 0.06-0.12 0.06-0.18 0-0.18-0.07-0.22-0.4-0.24z"/><path id="path5858" d="m172.61 705.36 0.07 0.04 0.06 0.05 0.07 0.04 0.06 0.04 0.05 0.04 0.06 0.04 0.06 0.04 0.05 0.03 0.05 0.04 0.05 0.04 0.04 0.03 0.05 0.04 0.04 0.03 0.05 0.04 0.08 0.06 0.08 0.07 0.07 0.07 0.07 0.07 0.07 0.07 0.07 0.08 0.07 0.07 0.06 0.08 0.07 0.08c0.71 0.87 1.06 1.87 1.06 3.03 0 1.28-0.37 2.25-1.25 3.26-0.4 0.48-0.66 0.7-1.18 1.02l-0.12-0.16c0.8-0.63 1.07-0.98 1.34-1.73 0.24-0.66 0.35-1.42 0.35-2.42 0-1.03-0.13-1.86-0.4-2.47-0.27-0.62-0.57-0.98-1.29-1.56z"/><path id="path5860" d="m184.3 711.4-0.2 0.09c-0.16-0.58-0.47-1.09-1.13-1.09-0.78 0-1.43 1.1-2.33 1.1-0.87 0-1.33-0.53-1.55-1.33l0.2-0.08c0.21 0.52 0.57 0.89 1.16 0.89 0.78 0 1.35-1.09 2.32-1.09 0.96 0 1.39 0.62 1.53 1.51z"/><path id="path5862" d="m184.29 709.36-0.2 0.1c-0.16-0.57-0.47-1.08-1.13-1.08-0.78 0-1.43 1.09-2.33 1.09-0.87 0-1.34-0.52-1.56-1.32l0.2-0.08c0.22 0.52 0.58 0.89 1.17 0.89 0.78 0 1.35-1.09 2.32-1.09 0.96 0 1.39 0.62 1.53 1.5z"/><polygon id="polygon5864" points="180.47 703.83 181.47 704.66 181.47 699.55 181.86 699.55 181.86 704.66 182.87 703.83 183.1 704.04 181.67 705.41 180.25 704.04"/><path id="path5866" d="m172.41 694.98 0.04 0.05 0.03 0.04 0.04 0.04 0.04 0.03 0.04 0.04 0.03 0.03 0.04 0.04 0.03 0.03 0.04 0.03 0.03 0.02 0.03 0.03 0.04 0.02 0.03 0.03 0.03 0.02 0.04 0.02 0.03 0.02 0.03 0.02 0.04 0.01 0.03 0.02 0.03 0.01 0.03 0.02 0.04 0.01 0.03 0.01 0.03 0.01 0.04 0.01h0.03l0.04 0.01h0.03l0.04 0.01h0.03 0.04 0.03c0.5 0 0.75-0.36 0.75-1.05v-1.98c0-0.67-0.1-0.8-0.68-0.86v-0.15h2.11v0.15c-0.53 0.1-0.59 0.18-0.59 0.86v1.99c0 1.04-0.42 1.58-1.23 1.58-0.59 0-1-0.24-1.46-0.84v3.03l-0.05 0.03c-0.34-0.12-0.59-0.2-1.15-0.36l-0.27-0.08v-0.16c0.04 0.01 0.07 0.01 0.12 0.01 0.43 0 0.51-0.08 0.51-0.5v-4.7c0-0.69-0.06-0.78-0.64-0.86v-0.15h2.15v0.15c-0.57 0.06-0.67 0.18-0.67 0.86z"/><polygon id="polygon5868" points="183.85 693.55 178.74 693.55 178.74 693.16 183.85 693.16 183.02 692.16 183.24 691.93 184.6 693.37 183.24 694.79 183.02 694.56"/><path id="path5870" d="m190.06 698.3h-0.05-0.05-0.05l-0.05-0.01h-0.05l-0.04-0.01h-0.05l-0.05-0.01-0.04-0.01-0.05-0.01-0.04-0.01-0.05-0.01-0.04-0.01-0.04-0.02-0.04-0.01-0.04-0.02-0.04-0.01-0.05-0.02-0.04-0.02-0.03-0.02-0.04-0.02-0.04-0.02-0.04-0.02-0.04-0.03-0.03-0.02-0.04-0.03-0.04-0.03-0.03-0.02-0.04-0.03-0.03-0.03-0.04-0.03-0.03-0.04c-0.58-0.55-0.96-1.7-0.96-2.87 0-1.08 0.33-2.25 0.8-2.8 0.36-0.44 0.87-0.68 1.45-0.68v0.26c-0.86 0-1.29 1.06-1.29 3.14 0 2.11 0.44 3.21 1.3 3.21 0.84 0 1.29-1.12 1.29-3.2 0-2.09-0.44-3.15-1.3-3.15v-0.26c0.51 0 0.94 0.17 1.3 0.52 0.57 0.54 0.95 1.7 0.95 2.9 0 2.05-0.9 3.45-2.21 3.45z"/><path id="path5872" d="m194.83 707.31-0.04 0.01h-0.04-0.03l-0.04 0.01h-0.03l-0.04 0.01-0.03 0.01-0.03 0.01-0.03 0.01-0.02 0.01-0.03 0.01-0.03 0.01-0.02 0.02-0.02 0.02-0.03 0.02-0.02 0.02-0.03 0.02-0.02 0.03-0.02 0.03-0.02 0.03-0.03 0.03-0.02 0.04-0.02 0.04-0.03 0.04-0.02 0.04-0.03 0.05-0.03 0.05-0.02 0.05-0.03 0.06-0.02 0.03-0.01 0.03-0.02 0.03-0.01 0.03-0.02 0.03-0.01 0.04-2.48 5.66h-0.2l-2.08-4.89c-0.63-1.46-0.75-1.62-1.23-1.64v-0.19h1.97v0.19c-0.48 0-0.68 0.13-0.68 0.41 0 0.12 0.03 0.26 0.08 0.39l0.46 1.16h2.61l-0.14 0.41h-2.3l1.15 2.74 1.15-2.74 0.14-0.41 0.41-0.95c0.12-0.27 0.19-0.53 0.19-0.67 0-0.25-0.17-0.33-0.7-0.34v-0.19h2.54z"/><path id="path5874" d="m197.93 713.86-0.07-0.05-0.06-0.04-0.07-0.04-0.06-0.04-0.05-0.04-0.06-0.04-0.06-0.04-0.05-0.04-0.05-0.03-0.05-0.04-0.04-0.04-0.05-0.03-0.04-0.04-0.05-0.03-0.08-0.07-0.08-0.07-0.07-0.06-0.07-0.07-0.07-0.08-0.07-0.07-0.07-0.07-0.06-0.08-0.07-0.09c-0.71-0.87-1.06-1.86-1.06-3.03 0-1.26 0.37-2.24 1.25-3.25 0.4-0.48 0.66-0.7 1.18-1.02l0.12 0.16c-0.8 0.63-1.07 0.97-1.34 1.72-0.24 0.67-0.35 1.43-0.35 2.42 0 1.05 0.13 1.87 0.4 2.48 0.28 0.62 0.57 0.98 1.29 1.56z"/><path id="path5876" d="m201.09 707.12h2v0.15c-0.31 0-0.51 0.16-0.82 0.6l-1.28 1.95 0.83 1.2c0.19 0.27 0.49 0.43 0.81 0.44v0.15h-1.58v-0.15c0.3-0.02 0.4-0.08 0.4-0.22 0-0.12-0.12-0.34-0.36-0.65-0.05-0.06-0.18-0.24-0.3-0.44l-0.14 0.2c-0.28 0.42-0.46 0.76-0.46 0.89 0 0.14 0.13 0.21 0.43 0.22v0.15h-2.07v-0.15h0.09c0.3 0 0.46-0.13 0.77-0.6l0.94-1.44-1.14-1.64c-0.3-0.41-0.4-0.48-0.73-0.51v-0.15h1.45v0.15c-0.28 0-0.4 0.05-0.4 0.18 0 0.06 0.07 0.21 0.2 0.41l0.79 1.23 0.9-1.4c0.04-0.06 0.06-0.12 0.06-0.18 0-0.18-0.07-0.22-0.39-0.24z"/><polygon id="polygon5878" points="206.74 712.21 206.18 712.21 206.18 709.96 203.91 709.96 203.91 709.4 206.18 709.4 206.18 707.12 206.74 707.12 206.74 709.4 209.01 709.4 209.01 709.96 206.74 709.96"/><path id="path5880" d="m211.2 710.54 0.04 0.04 0.03 0.04 0.04 0.04 0.04 0.04 0.04 0.03 0.03 0.04 0.04 0.03 0.03 0.03 0.04 0.03 0.03 0.03 0.03 0.02 0.04 0.03 0.03 0.02 0.03 0.03 0.04 0.02 0.03 0.02 0.03 0.01 0.04 0.02 0.03 0.02 0.03 0.01 0.03 0.01 0.04 0.01 0.03 0.01 0.03 0.01 0.04 0.01 0.03 0.01h0.04l0.03 0.01h0.04 0.03l0.04 0.01h0.03c0.5 0 0.75-0.36 0.75-1.06v-1.97c0-0.68-0.1-0.81-0.68-0.87v-0.15h2.11v0.15c-0.53 0.1-0.59 0.18-0.59 0.87v1.98c0 1.05-0.42 1.59-1.23 1.59-0.59 0-1.01-0.24-1.46-0.84v3.03l-0.05 0.03c-0.34-0.12-0.59-0.2-1.15-0.36l-0.27-0.08v-0.16c0.04 0.01 0.07 0.01 0.12 0.01 0.43 0 0.51-0.08 0.51-0.51v-4.69c0-0.7-0.06-0.79-0.64-0.87v-0.15h2.15v0.15c-0.57 0.06-0.67 0.18-0.67 0.87z"/><path id="path5882" d="m214.99 705.36 0.07 0.04 0.06 0.05 0.07 0.04 0.06 0.04 0.06 0.04 0.05 0.04 0.06 0.04 0.05 0.03 0.05 0.04 0.05 0.04 0.05 0.03 0.04 0.04 0.05 0.03 0.04 0.04 0.08 0.06 0.08 0.07 0.07 0.07 0.08 0.07 0.06 0.07 0.07 0.08 0.07 0.07 0.07 0.08 0.07 0.08c0.7 0.87 1.05 1.87 1.05 3.03 0 1.28-0.37 2.25-1.24 3.26-0.41 0.48-0.67 0.7-1.19 1.02l-0.12-0.16c0.8-0.63 1.07-0.98 1.35-1.73 0.24-0.66 0.35-1.42 0.35-2.42 0-1.03-0.13-1.86-0.4-2.47-0.28-0.62-0.58-0.98-1.3-1.56z"/><polygon id="polygon5884" points="220.76 709.4 225.87 709.4 225.87 709.96 220.76 709.96"/><path id="path5886" d="m235.73 707.31-0.04 0.01h-0.04-0.04l-0.03 0.01h-0.04l-0.03 0.01-0.03 0.01-0.03 0.01-0.03 0.01-0.03 0.01-0.02 0.01-0.03 0.01-0.02 0.02-0.03 0.02-0.02 0.02-0.02 0.02-0.03 0.02-0.02 0.03-0.02 0.03-0.03 0.03-0.02 0.03-0.02 0.04-0.03 0.04-0.02 0.04-0.03 0.04-0.02 0.05-0.03 0.05-0.03 0.05-0.02 0.06-0.02 0.03-0.01 0.03-0.02 0.03-0.01 0.03-0.02 0.03-0.02 0.04-2.48 5.66h-0.2l-2.07-4.89c-0.63-1.46-0.76-1.62-1.23-1.64v-0.19h1.97v0.19c-0.48 0-0.68 0.13-0.68 0.41 0 0.12 0.03 0.26 0.08 0.39l0.46 1.16h2.61l-0.14 0.41h-2.3l1.14 2.74 1.16-2.74 0.14-0.41 0.41-0.95c0.12-0.27 0.19-0.53 0.19-0.67 0-0.25-0.17-0.33-0.7-0.34v-0.19h2.54z"/><path id="path5888" d="m238.83 713.86-0.07-0.05-0.06-0.04-0.07-0.04-0.06-0.04-0.06-0.04-0.05-0.04-0.06-0.04-0.05-0.04-0.05-0.03-0.05-0.04-0.05-0.04-0.04-0.03-0.05-0.04-0.04-0.03-0.08-0.07-0.08-0.07-0.07-0.06-0.08-0.07-0.06-0.08-0.07-0.07-0.07-0.07-0.07-0.08-0.07-0.09c-0.7-0.87-1.05-1.86-1.05-3.03 0-1.26 0.37-2.24 1.24-3.25 0.41-0.48 0.67-0.7 1.19-1.02l0.12 0.16c-0.8 0.63-1.08 0.97-1.35 1.72-0.23 0.67-0.34 1.43-0.34 2.42 0 1.05 0.12 1.87 0.39 2.48 0.28 0.62 0.58 0.98 1.3 1.56z"/><path id="path5890" d="m241.98 707.12h2v0.15c-0.31 0-0.51 0.16-0.82 0.6l-1.28 1.95 0.83 1.2c0.19 0.27 0.49 0.43 0.81 0.44v0.15h-1.57v-0.15c0.29-0.02 0.39-0.08 0.39-0.22 0-0.12-0.12-0.34-0.36-0.65-0.05-0.06-0.18-0.24-0.3-0.44l-0.14 0.2c-0.28 0.42-0.46 0.76-0.46 0.89 0 0.14 0.13 0.21 0.43 0.22v0.15h-2.07v-0.15h0.09c0.3 0 0.46-0.13 0.77-0.6l0.94-1.44-1.14-1.64c-0.3-0.41-0.4-0.48-0.73-0.51v-0.15h1.45v0.15c-0.28 0-0.4 0.05-0.4 0.18 0 0.06 0.07 0.21 0.2 0.41l0.79 1.23 0.9-1.4c0.04-0.06 0.06-0.12 0.06-0.18 0-0.18-0.07-0.22-0.39-0.24z"/><path id="path5892" d="m244.56 705.36 0.07 0.04 0.07 0.05 0.06 0.04 0.06 0.04 0.06 0.04 0.06 0.04 0.05 0.04 0.05 0.03 0.05 0.04 0.05 0.04 0.05 0.03 0.05 0.04 0.04 0.03 0.04 0.04 0.08 0.06 0.08 0.07 0.08 0.07 0.07 0.07 0.07 0.07 0.06 0.08 0.07 0.07 0.07 0.08 0.07 0.08c0.71 0.87 1.05 1.87 1.05 3.03 0 1.28-0.36 2.25-1.24 3.26-0.41 0.48-0.67 0.7-1.19 1.02l-0.12-0.16c0.8-0.63 1.07-0.98 1.35-1.73 0.24-0.66 0.35-1.42 0.35-2.42 0-1.03-0.13-1.86-0.4-2.47-0.28-0.62-0.58-0.98-1.3-1.56z"/></g>
 </g>
</svg>
