<?xml version="1.0" encoding="UTF-8" standalone="no"?>
<!-- Created with Inkscape (http://www.inkscape.org/) -->
<svg id="svg4580" xmlns:rdf="http://www.w3.org/1999/02/22-rdf-syntax-ns#" xmlns="http://www.w3.org/2000/svg" xmlns:ns0="http://www.iki.fi/pav/software/textext/" height="100.4" width="332.99" version="1.1" xmlns:cc="http://creativecommons.org/ns#" viewBox="0 0 332.98539 100.39725" xmlns:dc="http://purl.org/dc/elements/1.1/">
 <style type="text/css">
	@import url('../estilo.css');
 </style>
 <defs id="defs4582">
  <marker id="marker6032" refY="0" refX="0" orient="auto" overflow="visible">
   <path id="path6034" d="m5.77 0-8.65 5v-10l8.65 5z" fill-rule="evenodd" transform="scale(.8)" stroke="#000" stroke-width="1pt"/>
  </marker>
 </defs>
 <metadata id="metadata4585">
  <rdf:RDF>
   <cc:Work rdf:about="">
    <dc:format>image/svg+xml</dc:format>
    <dc:type rdf:resource="http://purl.org/dc/dcmitype/StillImage"/>
    <dc:title/>
   </cc:Work>
  </rdf:RDF>
 </metadata>
 <g id="layer1" transform="translate(-204.53 -382.13)">
  <g stroke="#f00" stroke-width="1px" fill="none">
   <path id="path5259" d="m278.71 393.92 183.47 15.83"/>
   <path id="path5261" d="m462.18 409.75-101.03 38.75-82.44-54.58"/>
   <path id="path5267" d="m361.15 448.5 51.296-7.1664 49.737-31.577"/>
   <path id="path5271" d="m361.15 448.5-48.96-17.47-33.48-37.11"/>
  </g>
  <g stroke="#000">
   <g id="content" xml:space="preserve" stroke-width="0" fill-rule="evenodd" ns0:pdfconverter="pstoedit" transform="matrix(1.75 0 0 -1.75 -50.874 1639)" stroke-miterlimit="10.433" ns0:text="$\n\\rm\nh(c_1) = A\n$" ns0:version="0.7.2" ns0:inkscapeversion="0.91" ns0:preamble="/usr/share/inkscape/extensions/default_packages.tex" ns0:scale="1.4" ns0:texconverter="pdflatex"><path id="path5334" d="m150.27 710.54 0.04 0.04 0.04 0.04 0.04 0.04 0.04 0.04 0.03 0.03 0.04 0.04 0.03 0.03 0.04 0.03 0.03 0.03 0.04 0.03 0.03 0.02 0.04 0.03 0.03 0.02 0.03 0.03 0.04 0.02 0.03 0.02 0.03 0.01 0.03 0.02 0.04 0.02 0.03 0.01 0.03 0.01 0.04 0.01 0.03 0.01 0.03 0.01 0.04 0.01 0.03 0.01h0.03l0.04 0.01h0.03 0.04l0.03 0.01h0.04c0.5 0 0.75-0.36 0.75-1.06v-1.97c0-0.68-0.1-0.81-0.68-0.87v-0.15h2.11v0.15c-0.54 0.1-0.6 0.18-0.6 0.87v1.98c0 1.05-0.41 1.59-1.22 1.59-0.59 0-1.01-0.24-1.47-0.84v3.03l-0.05 0.03c-0.33-0.12-0.58-0.2-1.14-0.36l-0.27-0.08v-0.16c0.04 0.01 0.07 0.01 0.12 0.01 0.43 0 0.51-0.08 0.51-0.51v-4.69c0-0.7-0.06-0.79-0.64-0.87v-0.15h2.15v0.15c-0.58 0.06-0.68 0.18-0.68 0.87z"/><path id="path5336" d="m156.63 713.86-0.07-0.05-0.06-0.04-0.07-0.04-0.06-0.04-0.06-0.04-0.05-0.04-0.06-0.04-0.05-0.04-0.05-0.03-0.05-0.04-0.05-0.04-0.04-0.03-0.05-0.04-0.04-0.03-0.08-0.07-0.08-0.07-0.07-0.06-0.08-0.07-0.06-0.08-0.07-0.07-0.07-0.07-0.07-0.08-0.07-0.09c-0.7-0.87-1.05-1.86-1.05-3.03 0-1.26 0.37-2.24 1.24-3.25 0.41-0.48 0.67-0.7 1.19-1.02l0.12 0.16c-0.8 0.63-1.08 0.97-1.35 1.72-0.24 0.67-0.35 1.43-0.35 2.42 0 1.05 0.13 1.87 0.4 2.48 0.28 0.62 0.58 0.98 1.3 1.56z"/><path id="path5338" d="m160.98 708.68-0.05-0.07-0.04-0.06-0.04-0.06-0.05-0.05-0.04-0.06-0.04-0.05-0.04-0.05-0.04-0.04-0.04-0.05-0.05-0.04-0.04-0.04-0.04-0.04-0.04-0.03-0.04-0.03-0.04-0.03-0.04-0.03-0.04-0.03-0.04-0.02-0.05-0.03-0.04-0.02-0.04-0.02-0.05-0.01-0.04-0.02-0.05-0.01-0.04-0.01-0.05-0.01-0.04-0.01-0.05-0.01h-0.05l-0.05-0.01h-0.05-0.06c-0.9 0-1.54 0.8-1.54 1.94 0 1.03 0.55 1.74 1.35 1.74 0.36 0 0.49-0.11 0.59-0.48l0.06-0.22c0.08-0.28 0.26-0.46 0.47-0.46 0.26 0 0.48 0.19 0.48 0.42 0 0.56-0.7 1.03-1.54 1.03-0.48 0-0.99-0.2-1.4-0.56-0.5-0.44-0.78-1.12-0.78-1.91 0-1.29 0.79-2.22 1.89-2.22 0.45 0 0.85 0.16 1.21 0.47 0.27 0.24 0.46 0.51 0.76 1.1z"/><path id="path5340" d="m163.47 710.34-1.26-0.63v-0.1c0.08 0.04 0.16 0.06 0.19 0.08 0.12 0.05 0.24 0.08 0.31 0.08 0.15 0 0.21-0.11 0.21-0.33v-3.16c0-0.23-0.05-0.39-0.16-0.45-0.11-0.07-0.21-0.09-0.5-0.1v-0.1h1.92v0.1c-0.55 0.01-0.66 0.08-0.66 0.42v4.18z"/><path id="path5342" d="m165.8 705.36 0.07 0.04 0.06 0.05 0.07 0.04 0.06 0.04 0.05 0.04 0.06 0.04 0.06 0.04 0.05 0.03 0.05 0.04 0.05 0.04 0.04 0.03 0.05 0.04 0.04 0.03 0.05 0.04 0.08 0.06 0.08 0.07 0.07 0.07 0.07 0.07 0.07 0.07 0.07 0.08 0.07 0.07 0.06 0.08 0.07 0.08c0.71 0.87 1.06 1.87 1.06 3.03 0 1.28-0.37 2.25-1.25 3.26-0.4 0.48-0.66 0.7-1.18 1.02l-0.12-0.16c0.8-0.63 1.06-0.98 1.34-1.73 0.24-0.66 0.35-1.42 0.35-2.42 0-1.03-0.13-1.86-0.4-2.47-0.27-0.62-0.57-0.98-1.29-1.56z"/><polygon id="polygon5344" points="177.22 710.41 177.22 710.97 172.12 710.97 172.12 710.41"/><polygon id="polygon5346" points="177.22 708.39 177.22 708.95 172.12 708.95 172.12 708.39"/><path id="path5348" d="m187.64 707.31-0.04 0.01h-0.04-0.04l-0.03 0.01h-0.04l-0.03 0.01-0.03 0.01-0.03 0.01-0.03 0.01-0.03 0.01-0.02 0.01-0.03 0.01-0.02 0.02-0.03 0.02-0.02 0.02-0.02 0.02-0.03 0.02-0.02 0.03-0.02 0.03-0.03 0.03-0.02 0.03-0.02 0.04-0.03 0.04-0.02 0.04-0.03 0.04-0.02 0.05-0.03 0.05-0.03 0.05-0.02 0.06-0.02 0.03-0.01 0.03-0.02 0.03-0.01 0.03-0.02 0.03-0.02 0.04-2.48 5.66h-0.19l-2.08-4.89c-0.64-1.46-0.75-1.62-1.23-1.64v-0.19h1.97v0.19c-0.48 0-0.68 0.13-0.68 0.41 0 0.12 0.03 0.26 0.08 0.39l0.46 1.16h2.61l-0.14 0.41h-2.3l1.14 2.74 1.16-2.74 0.14-0.41 0.41-0.95c0.12-0.27 0.19-0.53 0.19-0.67 0-0.25-0.17-0.33-0.7-0.34v-0.19h2.54z"/></g>
   <g id="g5390" xml:space="preserve" stroke-width="0" fill-rule="evenodd" ns0:pdfconverter="pstoedit" transform="matrix(1.75 0 0 -1.75 205.65 1658.9)" stroke-miterlimit="10.433" ns0:text="$\n\\rm\nB = h(c_2)\n$" ns0:version="0.7.2" ns0:inkscapeversion="0.91" ns0:preamble="/usr/share/inkscape/extensions/default_packages.tex" ns0:scale="1.4" ns0:texconverter="pdflatex"><path id="path5392" d="m148.88 713.72v-0.19c0.84-0.05 0.96-0.16 0.96-0.9v-4.42c0-0.74-0.13-0.87-0.96-0.9v-0.19h3.33c0.77 0 1.48 0.21 1.85 0.55 0.36 0.32 0.56 0.77 0.56 1.25 0 0.43-0.18 0.83-0.49 1.12-0.3 0.27-0.57 0.39-1.22 0.55 0.52 0.13 0.73 0.23 0.97 0.44 0.25 0.22 0.4 0.59 0.4 0.99 0 1.12-0.89 1.7-2.61 1.7l-0.16-0.37c1.14 0 1.75-0.48 1.75-1.37 0-0.77-0.52-1.21-1.46-1.21h-0.95v-0.4c0.97 0 1.43-0.05 1.78-0.2 0.57-0.24 0.84-0.64 0.84-1.26 0-0.54-0.21-0.93-0.61-1.16-0.31-0.18-0.72-0.26-1.38-0.26-0.49 0-0.63 0.09-0.63 0.41v2.47 0.4 2.28c0 0.21 0.07 0.3 0.22 0.3h0.44l0.16 0.37z"/><polygon id="polygon5394" points="163.84 710.41 163.84 710.97 158.74 710.97 158.74 710.41"/><polygon id="polygon5396" points="163.84 708.39 163.84 708.95 158.74 708.95 158.74 708.39"/><path id="path5398" d="m168.79 710.54 0.04 0.04 0.04 0.04 0.04 0.04 0.03 0.04 0.04 0.03 0.04 0.04 0.03 0.03 0.04 0.03 0.03 0.03 0.04 0.03 0.03 0.02 0.03 0.03 0.04 0.02 0.03 0.03 0.03 0.02 0.04 0.02 0.03 0.01 0.03 0.02 0.03 0.02 0.04 0.01 0.03 0.01 0.03 0.01 0.04 0.01 0.03 0.01 0.03 0.01 0.04 0.01h0.03l0.04 0.01h0.03 0.04l0.03 0.01h0.04c0.5 0 0.75-0.36 0.75-1.06v-1.97c0-0.68-0.11-0.81-0.68-0.87v-0.15h2.11v0.15c-0.54 0.1-0.6 0.18-0.6 0.87v1.98c0 1.05-0.42 1.59-1.22 1.59-0.59 0-1.01-0.24-1.47-0.84v3.03l-0.05 0.03c-0.34-0.12-0.59-0.2-1.14-0.36l-0.27-0.08v-0.16c0.04 0.01 0.07 0.01 0.12 0.01 0.43 0 0.51-0.08 0.51-0.51v-4.69c0-0.7-0.06-0.79-0.64-0.87v-0.15h2.15v0.15c-0.58 0.06-0.68 0.18-0.68 0.87z"/><path id="path5400" d="m175.15 713.86-0.07-0.05-0.07-0.04-0.06-0.04-0.06-0.04-0.06-0.04-0.06-0.04-0.05-0.04-0.05-0.04-0.05-0.03-0.05-0.04-0.05-0.04-0.05-0.03-0.04-0.04-0.04-0.03-0.08-0.07-0.08-0.07-0.08-0.06-0.07-0.07-0.07-0.08-0.06-0.07-0.07-0.07-0.07-0.08-0.07-0.09c-0.71-0.87-1.05-1.86-1.05-3.03 0-1.26 0.36-2.24 1.24-3.25 0.41-0.48 0.67-0.7 1.19-1.02l0.12 0.16c-0.8 0.63-1.08 0.97-1.35 1.72-0.24 0.67-0.35 1.43-0.35 2.42 0 1.05 0.13 1.87 0.4 2.48 0.28 0.62 0.58 0.98 1.3 1.56z"/><path id="path5402" d="m179.49 708.68-0.04-0.07-0.04-0.06-0.05-0.06-0.04-0.05-0.04-0.06-0.04-0.05-0.05-0.05-0.04-0.04-0.04-0.05-0.04-0.04-0.04-0.04-0.04-0.04-0.04-0.03-0.04-0.03-0.04-0.03-0.04-0.03-0.05-0.03-0.04-0.02-0.04-0.03-0.04-0.02-0.05-0.02-0.04-0.01-0.04-0.02-0.05-0.01-0.04-0.01-0.05-0.01-0.05-0.01-0.05-0.01h-0.05l-0.05-0.01h-0.05-0.05c-0.91 0-1.54 0.8-1.54 1.94 0 1.03 0.54 1.74 1.35 1.74 0.36 0 0.49-0.11 0.59-0.48l0.06-0.22c0.08-0.28 0.26-0.46 0.47-0.46 0.26 0 0.47 0.19 0.47 0.42 0 0.56-0.69 1.03-1.53 1.03-0.49 0-1-0.2-1.4-0.56-0.5-0.44-0.78-1.12-0.78-1.91 0-1.29 0.79-2.22 1.89-2.22 0.45 0 0.85 0.16 1.21 0.47 0.27 0.24 0.46 0.51 0.75 1.1z"/><path id="path5404" d="m183.26 706.59-0.09 0.03c-0.26-0.4-0.35-0.46-0.66-0.46h-1.67l1.17 1.23c0.62 0.65 0.89 1.18 0.89 1.72 0 0.7-0.56 1.23-1.29 1.23-0.38 0-0.74-0.15-1-0.43-0.22-0.24-0.33-0.46-0.45-0.95l0.15-0.04c0.28 0.68 0.53 0.91 1.01 0.91 0.59 0 0.98-0.4 0.98-0.99 0-0.54-0.32-1.19-0.9-1.81l-1.24-1.32v-0.08h2.72z"/><path id="path5406" d="m184.32 705.36 0.06 0.04 0.07 0.05 0.06 0.04 0.06 0.04 0.06 0.04 0.06 0.04 0.05 0.04 0.05 0.03 0.06 0.04 0.04 0.04 0.05 0.03 0.05 0.04 0.04 0.03 0.04 0.04 0.09 0.06 0.07 0.07 0.08 0.07 0.07 0.07 0.07 0.07 0.07 0.08 0.06 0.07 0.07 0.08 0.07 0.08c0.71 0.87 1.06 1.87 1.06 3.03 0 1.28-0.37 2.25-1.25 3.26-0.41 0.48-0.67 0.7-1.18 1.02l-0.12-0.16c0.79-0.63 1.06-0.98 1.34-1.73 0.24-0.66 0.35-1.42 0.35-2.42 0-1.03-0.13-1.86-0.4-2.47-0.28-0.62-0.58-0.98-1.29-1.56z"/></g>
   <path id="path5436" marker-end="url(#marker6032)" d="m328.43 459.63 5.57-14.27" stroke-width="1px" fill="none"/>
  </g>
  <text id="text6594" style="word-spacing:0px;letter-spacing:0px" xml:space="preserve" font-size="16px" line-height="125%" y="473.76416" x="321.65085" font-family="&apos;STIX Two Text&apos;" fill="#000000"><tspan id="tspan6596" x="321.65085" y="473.76416"><tspan id="tspan6598" font-family="&apos;STIX Two Text&apos;" font-style="italic">l</tspan> = longitud del segmento</tspan></text>
  <path id="path5257" d="m275 387.36c40 75 124.48 85.081 195 15" stroke="#000" stroke-width="1px" fill="none"/>
 </g>
</svg>
