<?xml version="1.0" encoding="UTF-8" standalone="no"?>
<!-- Created with Inkscape (http://www.inkscape.org/) -->
<svg id="svg2" xmlns:rdf="http://www.w3.org/1999/02/22-rdf-syntax-ns#" xmlns="http://www.w3.org/2000/svg" xmlns:ns0="http://www.iki.fi/pav/software/textext/" height="184.81" width="242.91" version="1.1" xmlns:cc="http://creativecommons.org/ns#" viewBox="0 0 242.90663 184.80732" xmlns:dc="http://purl.org/dc/elements/1.1/">
 <metadata id="metadata7">
  <rdf:RDF>
   <cc:Work rdf:about="">
    <dc:format>image/svg+xml</dc:format>
    <dc:type rdf:resource="http://purl.org/dc/dcmitype/StillImage"/>
    <dc:title/>
   </cc:Work>
  </rdf:RDF>
 </metadata>
 <g id="layer1" transform="translate(-259.55 -332.15)">
  <g fill="none">
   <path id="path4271" d="m265 337.36c16.667 36.16 33.158 37.879 50 30" stroke="#000" stroke-width="1px"/>
   <path id="path4269" d="m315 367.36c238.83-111.73 12.933 141.23 125 120" stroke="#f00" stroke-width="1px"/>
   <g stroke="#000">
    <path id="path4265" d="m440 487.36c11.579-2.1931 35-5 35-5" stroke-width="1px"/>
    <path id="path4273" d="m315 371.36v-8" stroke-width="2"/>
    <path id="path4275" d="m440 491.36v-8" stroke-width="2"/>
   </g>
  </g>
  <g id="content" xml:space="preserve" stroke="#000" stroke-width="0" fill-rule="evenodd" ns0:pdfconverter="pstoedit" transform="matrix(1.75 0 0 -1.75 46.173 1626.4)" stroke-miterlimit="10.433" ns0:text="$\n\\rm\nA = h(c_1)\n$" ns0:version="0.7.2" ns0:inkscapeversion="0.91" ns0:preamble="/usr/share/inkscape/extensions/default_packages.tex" ns0:scale="1.4" ns0:texconverter="pdflatex"><path id="path4378" d="m155.74 707.31-0.04 0.01h-0.04-0.03l-0.04 0.01h-0.03l-0.04 0.01-0.03 0.01-0.03 0.01-0.03 0.01-0.02 0.01-0.03 0.01-0.03 0.01-0.02 0.02-0.02 0.02-0.03 0.02-0.02 0.02-0.03 0.02-0.02 0.03-0.02 0.03-0.02 0.03-0.03 0.03-0.02 0.04-0.02 0.04-0.03 0.04-0.02 0.04-0.03 0.05-0.03 0.05-0.02 0.05-0.03 0.06-0.02 0.03-0.01 0.03-0.02 0.03-0.01 0.03-0.02 0.03-0.01 0.04-2.48 5.66h-0.2l-2.07-4.89c-0.64-1.46-0.76-1.62-1.24-1.64v-0.19h1.97v0.19c-0.48 0-0.68 0.13-0.68 0.41 0 0.12 0.03 0.26 0.08 0.39l0.46 1.16h2.61l-0.14 0.41h-2.3l1.15 2.74 1.15-2.74 0.14-0.41 0.41-0.95c0.12-0.27 0.19-0.53 0.19-0.67 0-0.25-0.17-0.33-0.7-0.34v-0.19h2.54z"/><polygon id="polygon4380" points="164.39 710.97 159.29 710.97 159.29 710.41 164.39 710.41"/><polygon id="polygon4382" points="164.39 708.95 159.29 708.95 159.29 708.39 164.39 708.39"/><path id="path4384" d="m169.34 710.54 0.04 0.04 0.04 0.04 0.03 0.04 0.04 0.04 0.04 0.03 0.03 0.04 0.04 0.03 0.03 0.03 0.04 0.03 0.03 0.03 0.04 0.02 0.03 0.03 0.03 0.02 0.04 0.03 0.03 0.02 0.03 0.02 0.04 0.01 0.03 0.02 0.03 0.02 0.03 0.01 0.04 0.01 0.03 0.01 0.03 0.01 0.04 0.01 0.03 0.01 0.03 0.01h0.04l0.03 0.01h0.04 0.03l0.04 0.01h0.04c0.49 0 0.74-0.36 0.74-1.06v-1.97c0-0.68-0.1-0.81-0.68-0.87v-0.15h2.12v0.15c-0.54 0.1-0.6 0.18-0.6 0.87v1.98c0 1.05-0.42 1.59-1.23 1.59-0.58 0-1-0.24-1.46-0.84v3.03l-0.05 0.03c-0.34-0.12-0.59-0.2-1.15-0.36l-0.26-0.08v-0.16c0.03 0.01 0.06 0.01 0.11 0.01 0.43 0 0.51-0.08 0.51-0.51v-4.69c0-0.7-0.06-0.79-0.63-0.87v-0.15h2.15v0.15c-0.58 0.06-0.68 0.18-0.68 0.87z"/><path id="path4386" d="m175.69 713.86-0.06-0.05-0.07-0.04-0.06-0.04-0.06-0.04-0.06-0.04-0.06-0.04-0.05-0.04-0.05-0.04-0.06-0.03-0.04-0.04-0.05-0.04-0.05-0.03-0.04-0.04-0.04-0.03-0.09-0.07-0.07-0.07-0.08-0.06-0.07-0.07-0.07-0.08-0.07-0.07-0.06-0.07-0.07-0.08-0.07-0.09c-0.71-0.87-1.06-1.86-1.06-3.03 0-1.26 0.37-2.24 1.25-3.25 0.41-0.48 0.67-0.7 1.18-1.02l0.12 0.16c-0.79 0.63-1.07 0.97-1.34 1.72-0.24 0.67-0.35 1.43-0.35 2.42 0 1.05 0.13 1.87 0.4 2.48 0.28 0.62 0.58 0.98 1.29 1.56z"/><path id="path4388" d="m180.04 708.68-0.04-0.07-0.05-0.06-0.04-0.06-0.04-0.05-0.04-0.06-0.05-0.05-0.04-0.05-0.04-0.04-0.04-0.05-0.04-0.04-0.04-0.04-0.04-0.04-0.04-0.03-0.04-0.03-0.04-0.03-0.05-0.03-0.04-0.03-0.04-0.02-0.04-0.03-0.04-0.02-0.05-0.02-0.04-0.01-0.05-0.02-0.04-0.01-0.05-0.01-0.04-0.01-0.05-0.01-0.05-0.01h-0.05l-0.05-0.01h-0.05-0.05c-0.91 0-1.55 0.8-1.55 1.94 0 1.03 0.55 1.74 1.36 1.74 0.36 0 0.49-0.11 0.59-0.48l0.06-0.22c0.08-0.28 0.25-0.46 0.46-0.46 0.26 0 0.48 0.19 0.48 0.42 0 0.56-0.69 1.03-1.53 1.03-0.49 0-1-0.2-1.41-0.56-0.49-0.44-0.77-1.12-0.77-1.91 0-1.29 0.78-2.22 1.89-2.22 0.45 0 0.85 0.16 1.21 0.47 0.26 0.24 0.45 0.51 0.75 1.1z"/><path id="path4390" d="m182.53 710.34-1.25-0.63v-0.1c0.08 0.04 0.16 0.06 0.18 0.08 0.13 0.05 0.25 0.08 0.32 0.08 0.15 0 0.21-0.11 0.21-0.33v-3.16c0-0.23-0.06-0.39-0.17-0.45-0.1-0.07-0.2-0.09-0.5-0.1v-0.1h1.93v0.1c-0.55 0.01-0.66 0.08-0.66 0.42v4.18z"/><path id="path4392" d="m184.86 705.36 0.07 0.04 0.07 0.05 0.06 0.04 0.06 0.04 0.06 0.04 0.06 0.04 0.05 0.04 0.05 0.03 0.05 0.04 0.05 0.04 0.05 0.03 0.05 0.04 0.04 0.03 0.04 0.04 0.08 0.06 0.08 0.07 0.08 0.07 0.07 0.07 0.07 0.07 0.06 0.08 0.07 0.07 0.07 0.08 0.07 0.08c0.71 0.87 1.05 1.87 1.05 3.03 0 1.28-0.36 2.25-1.24 3.26-0.41 0.48-0.67 0.7-1.19 1.02l-0.12-0.16c0.8-0.63 1.07-0.98 1.35-1.73 0.24-0.66 0.35-1.42 0.35-2.42 0-1.03-0.13-1.86-0.4-2.47-0.28-0.62-0.58-0.98-1.3-1.56z"/></g>
  <g id="g4434" xml:space="preserve" stroke="#000" stroke-width="0" fill-rule="evenodd" ns0:pdfconverter="pstoedit" transform="matrix(1.75 0 0 -1.75 170.59 1746.3)" stroke-miterlimit="10.433" ns0:text="$\n\\rm\nB = h(c_2)\n$" ns0:version="0.7.2" ns0:inkscapeversion="0.91" ns0:preamble="/usr/share/inkscape/extensions/default_packages.tex" ns0:scale="1.4" ns0:texconverter="pdflatex"><path id="path4436" d="m148.88 713.72v-0.19c0.84-0.05 0.96-0.16 0.96-0.9v-4.42c0-0.74-0.13-0.87-0.96-0.9v-0.19h3.33c0.77 0 1.48 0.21 1.85 0.55 0.36 0.32 0.56 0.77 0.56 1.25 0 0.43-0.18 0.83-0.49 1.12-0.3 0.27-0.57 0.39-1.22 0.55 0.52 0.13 0.73 0.23 0.97 0.44 0.25 0.22 0.4 0.59 0.4 0.99 0 1.12-0.89 1.7-2.61 1.7l-0.16-0.37c1.14 0 1.75-0.48 1.75-1.37 0-0.77-0.52-1.21-1.46-1.21h-0.95v-0.4c0.97 0 1.43-0.05 1.78-0.2 0.57-0.24 0.84-0.64 0.84-1.26 0-0.54-0.21-0.93-0.61-1.16-0.31-0.18-0.72-0.26-1.38-0.26-0.49 0-0.63 0.09-0.63 0.41v2.47 0.4 2.28c0 0.21 0.07 0.3 0.22 0.3h0.44l0.16 0.37z"/><polygon id="polygon4438" points="163.84 710.97 158.74 710.97 158.74 710.41 163.84 710.41"/><polygon id="polygon4440" points="163.84 708.95 158.74 708.95 158.74 708.39 163.84 708.39"/><path id="path4442" d="m168.79 710.54 0.04 0.04 0.04 0.04 0.04 0.04 0.03 0.04 0.04 0.03 0.04 0.04 0.03 0.03 0.04 0.03 0.03 0.03 0.04 0.03 0.03 0.02 0.03 0.03 0.04 0.02 0.03 0.03 0.03 0.02 0.04 0.02 0.03 0.01 0.03 0.02 0.03 0.02 0.04 0.01 0.03 0.01 0.03 0.01 0.04 0.01 0.03 0.01 0.03 0.01 0.04 0.01h0.03l0.04 0.01h0.03 0.04l0.03 0.01h0.04c0.5 0 0.75-0.36 0.75-1.06v-1.97c0-0.68-0.11-0.81-0.68-0.87v-0.15h2.11v0.15c-0.54 0.1-0.6 0.18-0.6 0.87v1.98c0 1.05-0.42 1.59-1.22 1.59-0.59 0-1.01-0.24-1.47-0.84v3.03l-0.05 0.03c-0.34-0.12-0.59-0.2-1.14-0.36l-0.27-0.08v-0.16c0.04 0.01 0.07 0.01 0.12 0.01 0.43 0 0.51-0.08 0.51-0.51v-4.69c0-0.7-0.06-0.79-0.64-0.87v-0.15h2.15v0.15c-0.58 0.06-0.68 0.18-0.68 0.87z"/><path id="path4444" d="m175.15 713.86-0.07-0.05-0.07-0.04-0.06-0.04-0.06-0.04-0.06-0.04-0.06-0.04-0.05-0.04-0.05-0.04-0.05-0.03-0.05-0.04-0.05-0.04-0.05-0.03-0.04-0.04-0.04-0.03-0.08-0.07-0.08-0.07-0.08-0.06-0.07-0.07-0.07-0.08-0.06-0.07-0.07-0.07-0.07-0.08-0.07-0.09c-0.71-0.87-1.05-1.86-1.05-3.03 0-1.26 0.36-2.24 1.24-3.25 0.41-0.48 0.67-0.7 1.19-1.02l0.12 0.16c-0.8 0.63-1.08 0.97-1.35 1.72-0.24 0.67-0.35 1.43-0.35 2.42 0 1.05 0.13 1.87 0.4 2.48 0.28 0.62 0.58 0.98 1.3 1.56z"/><path id="path4446" d="m179.49 708.68-0.04-0.07-0.04-0.06-0.05-0.06-0.04-0.05-0.04-0.06-0.04-0.05-0.05-0.05-0.04-0.04-0.04-0.05-0.04-0.04-0.04-0.04-0.04-0.04-0.04-0.03-0.04-0.03-0.04-0.03-0.04-0.03-0.05-0.03-0.04-0.02-0.04-0.03-0.04-0.02-0.05-0.02-0.04-0.01-0.04-0.02-0.05-0.01-0.04-0.01-0.05-0.01-0.05-0.01-0.05-0.01h-0.05l-0.05-0.01h-0.05-0.05c-0.91 0-1.54 0.8-1.54 1.94 0 1.03 0.54 1.74 1.35 1.74 0.36 0 0.49-0.11 0.59-0.48l0.06-0.22c0.08-0.28 0.26-0.46 0.47-0.46 0.26 0 0.47 0.19 0.47 0.42 0 0.56-0.69 1.03-1.53 1.03-0.49 0-1-0.2-1.4-0.56-0.5-0.44-0.78-1.12-0.78-1.91 0-1.29 0.79-2.22 1.89-2.22 0.45 0 0.85 0.16 1.21 0.47 0.27 0.24 0.46 0.51 0.75 1.1z"/><path id="path4448" d="m183.26 706.59-0.09 0.03c-0.26-0.4-0.35-0.46-0.66-0.46h-1.67l1.17 1.23c0.62 0.65 0.89 1.18 0.89 1.72 0 0.7-0.56 1.23-1.29 1.23-0.38 0-0.74-0.15-1-0.43-0.22-0.24-0.33-0.46-0.45-0.95l0.15-0.04c0.28 0.68 0.53 0.91 1.01 0.91 0.59 0 0.98-0.4 0.98-0.99 0-0.54-0.32-1.19-0.9-1.81l-1.24-1.32v-0.08h2.72z"/><path id="path4450" d="m184.32 705.36 0.06 0.04 0.07 0.05 0.06 0.04 0.06 0.04 0.06 0.04 0.06 0.04 0.05 0.04 0.05 0.03 0.06 0.04 0.04 0.04 0.05 0.03 0.05 0.04 0.04 0.03 0.04 0.04 0.09 0.06 0.07 0.07 0.08 0.07 0.07 0.07 0.07 0.07 0.07 0.08 0.06 0.07 0.07 0.08 0.07 0.08c0.71 0.87 1.06 1.87 1.06 3.03 0 1.28-0.37 2.25-1.25 3.26-0.41 0.48-0.67 0.7-1.18 1.02l-0.12-0.16c0.79-0.63 1.06-0.98 1.34-1.73 0.24-0.66 0.35-1.42 0.35-2.42 0-1.03-0.13-1.86-0.4-2.47-0.28-0.62-0.58-0.98-1.29-1.56z"/></g>
 </g>
</svg>
