<?xml version="1.0" encoding="UTF-8"?>
<svg width="300" height="360" version="1.1" viewBox="0 0 300 360" xmlns="http://www.w3.org/2000/svg" xmlns:cc="http://creativecommons.org/ns#" xmlns:dc="http://purl.org/dc/elements/1.1/" xmlns:ns0="http://www.iki.fi/pav/software/textext/" xmlns:rdf="http://www.w3.org/1999/02/22-rdf-syntax-ns#" xmlns:xlink="http://www.w3.org/1999/xlink">
 <style type="text/css">
  @import url('../estilo.css');
 </style>
 <metadata>
  <rdf:RDF>
   <cc:Work rdf:about="">
    <dc:format>image/svg+xml</dc:format>
    <dc:type rdf:resource="http://purl.org/dc/dcmitype/StillImage"/>
    <dc:title>Gnuplot</dc:title>
   </cc:Work>
  </rdf:RDF>
 </metadata>
 <title>Gnuplot</title>
 <desc>Produced by GNUPLOT 5.2 patchlevel 2</desc>
 <g id="gnuplot_canvas">
  <g fill="none">
   <rect width="300" height="360"/>
   <g stroke="currentColor">
    <g color="black">
     <path d="m124.9 319.5v4.5" stroke="#000"/>
     <g transform="translate(124.9,337.9)" fill="#000" font-family="Stix Two Text" font-size="15" stroke="none" text-anchor="middle">
      <text>
       <tspan font-family="Stix Two Text" font-style="italic">ξ</tspan><tspan dy="4.50px" font-family="Stix Two Text" font-size="12">eq</tspan><tspan dy="-4.50" font-size="15"/>
      </text>
     </g>
    </g>
    <g color="black">
     <path d="m24.9 18.1v301.4h250.1m0-301.4m-250.1 0" stroke="#000"/>
    </g>
    <g color="gray">
     <path d="m124.9 319.5v-72.6" stroke="gray" stroke-dasharray="2,4"/>
    </g>
    <g color="black">
     <g shape-rendering="crispEdges" stroke="none">
      <polygon points="124.9 235.3 129.1 235.3 124.9 246.9 120.7 235.3" fill="#000"/>
     </g>
     <path d="m124.9 235.3v-13.5" stroke="#000"/>
    </g>
    <g color="black">
     <g shape-rendering="crispEdges" stroke="none">
      <polygon points="45.6 155.1 48.6 158.1 37.4 163.3 42.6 152.1" fill="#000"/>
     </g>
     <path d="m45.6 155.1 9.4-9.4" stroke="#000"/>
    </g>
    <g color="black">
     <g transform="translate(12.5,26.4)" fill="#000" font-family="Stix Two Text" font-size="16" stroke="none" text-anchor="middle">
      <text>
       <tspan font-family="Stix Two Text" font-style="italic">G</tspan>
      </text>
     </g>
    </g>
    <g color="black">
     <g transform="translate(272.4,338.2)" fill="#000" font-family="Stix Two Text" font-size="16" stroke="none" text-anchor="middle">
      <text>
       <tspan font-family="Stix Two Text" font-style="italic">ξ</tspan>
      </text>
     </g>
    </g>
   </g>
  </g>
  <g color="black" fill="none" stroke="currentColor">
   <path d="m24.9 118.6 1 6.2 1 4.7 1 4.3 1 3.9 1.1 3.6 1 3.5 1 3.2 1 3.1 1 3 1 2.9 2 5.4 2 5 1.1 2.4 1 2.4 3 6.6 1 2 1 2.1 1 2 1 1.9 1.1 1.9 2 3.6 3 5.1 2 3.2 2 3 1.1 1.5 3 4.2 4 5.2 1 1.2 1.1 1.2 5 5.5 2 2 1 0.9 1 1 1.1 0.9 2 1.8 1 0.8 1 0.9 1 0.8 1 0.7 1 0.8 1 0.7 1.1 0.7 2 1.4 1 0.6 1 0.7 2 1.2 1 0.5 1 0.6 1 0.5 1.1 0.5 1 0.5 1 0.4 1 0.5 4 1.6 1 0.3 1.1 0.3 4 1.2 5 1 1.1 0.1 1 0.1 1 0.2 1 0.1h1l1 0.1h1l1 0.1h1" stroke="#9400d3"/>
  </g>
  <g color="black" fill="none" stroke="currentColor">
   <path d="m124.9 246.9 1.6-0.1h1.5l3-0.2 3-0.4 1.6-0.3 1.5-0.2 1.5-0.4 1.5-0.3 1.5-0.4 1.5-0.5 1.5-0.4 1.6-0.5 6-2.4 1.5-0.7 1.6-0.7 4.5-2.4 3-1.8 1.5-1 1.6-1 1.5-1 4.5-3.3 1.5-1.2 1.6-1.2 1.5-1.3 1.5-1.2 1.5-1.4 1.5-1.3 1.5-1.5 1.6-1.4 3-3 3-3.2 1.5-1.7 1.5-1.6 1.6-1.8 4.5-5.4 1.5-2 1.5-1.9 1.6-2 1.5-2 1.5-2.1 1.5-2.2 1.5-2.1 1.5-2.3 1.6-2.2 4.5-7.2 3-5 1.5-2.6 1.6-2.6 1.5-2.7 3-5.6 3-5.8 1.6-3 3-6.2 1.5-3.2 3-6.6 1.6-3.5 1.5-3.5 3-7.2 1.5-3.8 3-7.8 1.6-4.1 1.5-4.2 1.5-4.3 1.5-4.4 1.5-4.6 1.5-4.7 1.6-4.8 1.5-5.1 1.5-5.3 1.5-5.4 1.5-5.8 1.5-6 1.6-6.5 1.5-7 1.5-7.8" stroke="#9400d3" stroke-dasharray="2.5,4.0"/>
  </g>
  <g color="black" fill="none" stroke="currentColor">
   <path d="m24.9 18.1v301.4h250.1m0-301.4m-250.1 0" stroke="#000"/>
  </g>
 </g>
 <g transform="matrix(1.6 0 0 -1.6 -178.96 1189.2)" fill="none" fill-rule="evenodd" stroke="#000" stroke-miterlimit="10.433" inkscapeversion="0.92.4" ns0:alignment="middle center" ns0:jacobian_sqrt="1.6" ns0:pdfconverter="pstoedit" ns0:preamble="/home/antonio/.config/inkscape/extensions/textext/default_packages.tex" ns0:scale="1.2" ns0:texconverter="pdflatex" ns0:text="$\\left( \\dfrac{\\partial G}{\\partial \\xi} \\right)_{\\! P,T} \\mspace{-15mu} &lt; 0$" ns0:version="0.10.0" xml:space="preserve"><g fill="#000" stroke-width="0">
<path d="m152.22 643.62-0.14 0.27-0.14 0.28-0.13 0.28-0.13 0.29-0.12 0.3-0.11 0.31-0.1 0.31-0.11 0.31-0.18 0.66-0.16 0.68-0.15 0.7-0.12 0.72-0.11 0.74-0.08 0.77-0.07 0.78-0.06 0.8-0.04 0.81-0.03 0.83-0.02 0.84v0.86c0 4.59 0.43 8.7 2 11.53l-0.14 0.51c-0.54-0.99-2.87-3.82-2.87-12.04 0-8.23 2.33-11.06 2.87-12.04z"/>
<path d="m158.62 663.61v0.13l-0.01 0.13v0.13l-0.02 0.26-0.02 0.12-0.01 0.12-0.03 0.12-0.04 0.22-0.03 0.11-0.04 0.11-0.03 0.1-0.04 0.1-0.08 0.18-0.05 0.09-0.05 0.08-0.06 0.08-0.05 0.07-0.06 0.07-0.07 0.06-0.06 0.06-0.07 0.05-0.08 0.04-0.08 0.05-0.16 0.06-0.18 0.04-0.1 0.01h-0.1c-0.83 0-1.74-0.79-1.74-1.24 0-0.33 0.26-0.46 0.46-0.46 0.21 0 0.34 0.16 0.36 0.19-0.03 0.03-0.09 0.12-0.09 0.26 0 0.09 0.18 0.95 1.03 0.95 0.72 0 0.88-0.92 0.88-1.72 0-0.61-0.09-1.15-0.09-1.16h-0.01c0 0.01-0.39 0.62-1.17 0.62l-0.07-0.24c0.55 0 0.82-0.33 0.82-0.91 0-0.26-0.26-3.08-1.85-3.08-0.57 0-0.83 0.31-0.83 0.95 0 0.63 0.42 3.04 1.86 3.04l0.07 0.24c-2 0-2.83-1.93-2.83-2.95 0-0.92 0.55-1.52 1.66-1.52 1.71 0 3.06 1.74 3.06 4.44z"/>
<path d="m165.62 665.9-0.14 0.04c-0.17-0.23-0.34-0.33-0.6-0.33-0.1 0-0.22 0.03-0.44 0.1-0.5 0.15-0.93 0.23-1.34 0.23-2.1 0-4.02-1.98-4.02-4.17 0-0.67 0.29-1.37 0.76-1.85 0.51-0.5 1.24-0.77 2.11-0.77s1.59 0.19 2.36 0.62l0.49 1.85c0.16 0.56 0.32 0.68 0.96 0.72v0.16h-2.65v-0.16c0.12-0.01 0.25-0.03 0.29-0.03 0.33-0.03 0.49-0.13 0.49-0.31 0-0.22-0.06-0.5-0.28-1.23-0.22-0.72-0.25-0.8-0.37-0.92-0.22-0.21-0.6-0.33-1.04-0.33-1.29 0-2.02 0.73-2.02 2.03 0 1.23 0.49 2.49 1.28 3.32 0.45 0.47 1.06 0.74 1.72 0.74 0.65 0 1.2-0.27 1.5-0.73 0.16-0.26 0.23-0.47 0.28-0.9l0.18-0.03z"/>
</g><line x1="153.71" x2="166.01" y1="655.14" y2="655.14" stroke="#000" stroke-width=".558"/><g fill="#000" stroke-width="0">
<path d="m159.9 650.03-0.01 0.13v0.13l-0.03 0.39-0.01 0.12-0.04 0.24-0.02 0.11-0.09 0.33-0.04 0.1-0.03 0.1-0.04 0.09-0.1 0.18-0.1 0.16-0.12 0.14-0.06 0.06-0.07 0.06-0.07 0.05-0.07 0.04-0.08 0.05-0.08 0.03-0.09 0.03-0.08 0.02-0.1 0.02-0.09 0.01h-0.1c-0.84 0-1.75-0.79-1.75-1.24 0-0.33 0.26-0.46 0.46-0.46 0.21 0 0.34 0.16 0.36 0.19-0.03 0.03-0.09 0.12-0.09 0.26 0 0.09 0.18 0.95 1.04 0.95 0.72 0 0.88-0.92 0.88-1.72 0-0.61-0.09-1.15-0.09-1.16h-0.01c0 0.01-0.39 0.62-1.18 0.62l-0.07-0.24c0.56 0 0.83-0.33 0.83-0.91 0-0.26-0.26-3.08-1.86-3.08-0.56 0-0.82 0.32-0.82 0.95s0.41 3.04 1.85 3.04l0.07 0.24c-1.99 0-2.82-1.93-2.82-2.95 0-0.93 0.55-1.52 1.65-1.52 1.72 0 3.07 1.74 3.07 4.44z"/>
<path d="m164.74 651.64v0.04l-0.01 0.01v0.04l-0.01 0.01v0.02l-0.01 0.01v0.01l-0.01 0.01v0.01l-0.01 0.01h-0.01v0.01l-0.01 0.01h-0.01l-0.01 0.01h-0.01l-0.01 0.01h-0.02l-0.01 0.01h-0.04l-0.01 0.01h-0.03c-0.69 0-1.05-0.64-1.44-0.64-0.28 0-0.35 0.26-0.35 0.46 0 0.27 0.33 0.47 0.48 0.55h-0.52c-0.01 0-0.35-0.2-0.35-0.54 0-0.44 0.25-0.51 0.46-0.62v-0.01c-0.01 0-1.67-0.41-1.67-1.46 0-0.83 1.01-0.88 1.02-0.88v-0.04c-0.01 0-2.13-0.43-2.13-1.97 0-0.92 0.75-1.18 1.53-1.18 0.71 0 1.36-0.02 1.36-0.52 0-0.63-0.75-1.09-1.26-1.09-0.38 0-0.4 0.33-0.4 0.45-0.11-0.05-0.48-0.22-0.48-0.44 0-0.17 0.26-0.25 0.43-0.25 1.18 0 2.09 0.6 2.09 1.68 0 0.7-0.74 0.77-1.2 0.77-0.7 0-1.08 0.3-1.08 0.82 0 1.07 1.05 1.57 1.68 1.57 0.56 0 0.81-0.11 0.97-0.11 0.25 0 0.5 0.14 0.5 0.47 0 0.18-0.03 0.27-0.25 0.27-0.28 0-0.58-0.25-1.28-0.25-0.59 0-0.64 0.39-0.64 0.66 0 0.93 1.01 1.39 1.02 1.39 0.31-0.06 0.56-0.08 0.77-0.08 0.81 0 0.96 0.4 0.96 0.76z"/>
<path d="m170.51 655.16v0.75l-0.02 0.73-0.03 0.69-0.05 0.66-0.05 0.64-0.06 0.61-0.08 0.58-0.08 0.55-0.09 0.53-0.09 0.5-0.11 0.47-0.1 0.45-0.11 0.43-0.12 0.4-0.12 0.38-0.12 0.36-0.12 0.34-0.13 0.32-0.12 0.3-0.12 0.27-0.12 0.26-0.12 0.24-0.12 0.23-0.11 0.21-0.11 0.19-0.2 0.34-0.09 0.14-0.08 0.14-0.08 0.12-0.06 0.11-0.06 0.1-0.14-0.51c1.58-2.83 2.01-6.94 2.01-11.53s-0.43-8.71-2.01-11.54l0.14-0.5c0.54 0.98 2.87 3.81 2.87 12.04z"/>
<path d="m171.04 647.17h0.02l0.02-0.01h0.07l0.03-0.01h0.03l0.03-0.01 0.02-0.01h0.03l0.02-0.01h0.02l0.04-0.02h0.02l0.02-0.01 0.01-0.01 0.02-0.01 0.01-0.01h0.01l0.02-0.01 0.02-0.02v-0.01l0.01-0.02 0.01-0.01v-0.01l0.01-0.01v-0.03l0.01-0.02v-0.04c0-0.1-0.03-0.25-0.12-0.56l-0.83-2.95c-0.12-0.42-0.17-0.46-0.57-0.52v-0.11h1.71v0.11c-0.44 0.06-0.47 0.08-0.47 0.32 0 0.09 0.01 0.15 0.08 0.4l0.37 1.35 0.07 0.23 0.49 1.73c0.04 0.14 0.13 0.19 0.32 0.19 0.28 0 0.54-0.07 0.68-0.16 0.18-0.13 0.26-0.34 0.26-0.67 0-0.45-0.16-0.77-0.47-0.95-0.21-0.12-0.49-0.17-0.92-0.17-0.12 0-0.18 0-0.36 0.03l-0.07-0.23c0.18-0.04 0.36-0.06 0.65-0.06 0.57 0 1.04 0.12 1.34 0.34 0.35 0.25 0.55 0.63 0.55 1.04 0 0.67-0.52 1.04-1.47 1.04h-1.74z"/>
<path d="m174.87 642.78v0.1l-0.01 0.03v0.04l-0.01 0.03v0.02l-0.01 0.02v0.02l-0.01 0.02v0.02l-0.01 0.01-0.01 0.02v0.02l-0.01 0.02-0.01 0.01-0.06 0.09-0.1 0.1-0.03 0.01-0.02 0.02-0.03 0.01-0.04 0.02-0.03 0.01-0.02 0.01h-0.02l-0.02 0.01h-0.04l-0.02 0.01h-0.06c-0.17 0-0.4-0.11-0.4-0.4 0-0.28 0.25-0.35 0.43-0.35 0.05 0 0.09 0.01 0.11 0.01 0.03 0.01 0.05 0.02 0.06 0.02 0.05 0 0.1-0.04 0.1-0.1 0-0.13-0.11-0.45-0.58-0.74l0.07-0.13c0.21 0.07 0.78 0.53 0.78 1.02z"/>
<path d="m179.68 647.28h-3.72l-0.3-1.07 0.13-0.03c0.37 0.75 0.59 0.87 1.66 0.86l-1-3.67c-0.11-0.37-0.28-0.48-0.74-0.52v-0.11h2.02v0.11c-0.12 0.01-0.22 0.02-0.26 0.02-0.28 0.02-0.37 0.09-0.37 0.29 0 0.1 0.02 0.18 0.09 0.41l0.97 3.47h0.38c0.51 0 0.73-0.18 0.73-0.57 0-0.09-0.01-0.19-0.02-0.31l0.12-0.01z"/>
<polygon points="180.64 653.2 176.49 655.14 180.64 657.07 180.64 657.63 175.53 655.23 175.53 655.04 180.64 652.64"/>
<path d="m186.55 659.3h-0.1l-0.05-0.01h-0.1l-0.04-0.01-0.05-0.01h-0.05l-0.04-0.01-0.05-0.01-0.08-0.02-0.05-0.02-0.08-0.02-0.08-0.04-0.04-0.01-0.16-0.08-0.04-0.03-0.04-0.02-0.03-0.03-0.04-0.02-0.04-0.03-0.03-0.03-0.04-0.03-0.03-0.03-0.04-0.03-0.03-0.03c-0.58-0.56-0.96-1.7-0.96-2.86 0-1.08 0.33-2.24 0.8-2.8 0.37-0.44 0.87-0.68 1.45-0.68v0.26c-0.86 0-1.29 1.07-1.29 3.13 0 2.11 0.44 3.21 1.3 3.21 0.84 0 1.29-1.12 1.29-3.2 0-2.07-0.44-3.14-1.3-3.14v-0.26c0.51 0 0.94 0.17 1.3 0.52 0.58 0.55 0.96 1.7 0.96 2.9 0 2.04-0.91 3.44-2.22 3.44z"/>
</g></g>
 <g id="content" transform="matrix(1.6 0 0 -1.6 -145.48 1245.8)" fill="none" fill-rule="evenodd" stroke="#000" stroke-miterlimit="10.433" inkscapeversion="0.92.4" ns0:alignment="middle center" ns0:jacobian_sqrt="1.6" ns0:pdfconverter="pstoedit" ns0:preamble="/home/antonio/.config/inkscape/extensions/textext/default_packages.tex" ns0:scale="1.2" ns0:texconverter="pdflatex" ns0:text="$\\left( \\dfrac{\\partial G}{\\partial \\xi} \\right)_{\\! P,T} \\mspace{-15mu} = 0$" ns0:version="0.10.0" xml:space="preserve"><g fill="#000" stroke-width="0">
<path d="m152.22 643.62-0.14 0.27-0.14 0.28-0.13 0.28-0.13 0.29-0.12 0.3-0.11 0.31-0.1 0.31-0.11 0.31-0.18 0.66-0.16 0.68-0.15 0.7-0.12 0.72-0.11 0.74-0.08 0.77-0.07 0.78-0.06 0.8-0.04 0.81-0.03 0.83-0.02 0.84v0.86c0 4.59 0.43 8.7 2 11.53l-0.14 0.51c-0.54-0.99-2.87-3.82-2.87-12.04 0-8.23 2.33-11.06 2.87-12.04z"/>
<path d="m158.62 663.61v0.13l-0.01 0.13v0.13l-0.02 0.26-0.02 0.12-0.01 0.12-0.03 0.12-0.04 0.22-0.03 0.11-0.04 0.11-0.03 0.1-0.04 0.1-0.08 0.18-0.05 0.09-0.05 0.08-0.06 0.08-0.05 0.07-0.06 0.07-0.07 0.06-0.06 0.06-0.07 0.05-0.08 0.04-0.08 0.05-0.16 0.06-0.18 0.04-0.1 0.01h-0.1c-0.83 0-1.74-0.79-1.74-1.24 0-0.33 0.26-0.46 0.46-0.46 0.21 0 0.34 0.16 0.36 0.19-0.03 0.03-0.09 0.12-0.09 0.26 0 0.09 0.18 0.95 1.03 0.95 0.72 0 0.88-0.92 0.88-1.72 0-0.61-0.09-1.15-0.09-1.16h-0.01c0 0.01-0.39 0.62-1.17 0.62l-0.07-0.24c0.55 0 0.82-0.33 0.82-0.91 0-0.26-0.26-3.08-1.85-3.08-0.57 0-0.83 0.31-0.83 0.95 0 0.63 0.42 3.04 1.86 3.04l0.07 0.24c-2 0-2.83-1.93-2.83-2.95 0-0.92 0.55-1.52 1.66-1.52 1.71 0 3.06 1.74 3.06 4.44z"/>
<path d="m165.62 665.9-0.14 0.04c-0.17-0.23-0.34-0.33-0.6-0.33-0.1 0-0.22 0.03-0.44 0.1-0.5 0.15-0.93 0.23-1.34 0.23-2.1 0-4.02-1.98-4.02-4.17 0-0.67 0.29-1.37 0.76-1.85 0.51-0.5 1.24-0.77 2.11-0.77s1.59 0.19 2.36 0.62l0.49 1.85c0.16 0.56 0.32 0.68 0.96 0.72v0.16h-2.65v-0.16c0.12-0.01 0.25-0.03 0.29-0.03 0.33-0.03 0.49-0.13 0.49-0.31 0-0.22-0.06-0.5-0.28-1.23-0.22-0.72-0.25-0.8-0.37-0.92-0.22-0.21-0.6-0.33-1.04-0.33-1.29 0-2.02 0.73-2.02 2.03 0 1.23 0.49 2.49 1.28 3.32 0.45 0.47 1.06 0.74 1.72 0.74 0.65 0 1.2-0.27 1.5-0.73 0.16-0.26 0.23-0.47 0.28-0.9l0.18-0.03z"/>
</g><line x1="153.71" x2="166.01" y1="655.14" y2="655.14" stroke="#000" stroke-width=".558"/><g fill="#000" stroke-width="0">
<path d="m159.9 650.03-0.01 0.13v0.13l-0.03 0.39-0.01 0.12-0.04 0.24-0.02 0.11-0.09 0.33-0.04 0.1-0.03 0.1-0.04 0.09-0.1 0.18-0.1 0.16-0.12 0.14-0.06 0.06-0.07 0.06-0.07 0.05-0.07 0.04-0.08 0.05-0.08 0.03-0.09 0.03-0.08 0.02-0.1 0.02-0.09 0.01h-0.1c-0.84 0-1.75-0.79-1.75-1.24 0-0.33 0.26-0.46 0.46-0.46 0.21 0 0.34 0.16 0.36 0.19-0.03 0.03-0.09 0.12-0.09 0.26 0 0.09 0.18 0.95 1.04 0.95 0.72 0 0.88-0.92 0.88-1.72 0-0.61-0.09-1.15-0.09-1.16h-0.01c0 0.01-0.39 0.62-1.18 0.62l-0.07-0.24c0.56 0 0.83-0.33 0.83-0.91 0-0.26-0.26-3.08-1.86-3.08-0.56 0-0.82 0.32-0.82 0.95s0.41 3.04 1.85 3.04l0.07 0.24c-1.99 0-2.82-1.93-2.82-2.95 0-0.93 0.55-1.52 1.65-1.52 1.72 0 3.07 1.74 3.07 4.44z"/>
<path d="m164.74 651.64v0.04l-0.01 0.01v0.04l-0.01 0.01v0.02l-0.01 0.01v0.01l-0.01 0.01v0.01l-0.01 0.01h-0.01v0.01l-0.01 0.01h-0.01l-0.01 0.01h-0.01l-0.01 0.01h-0.02l-0.01 0.01h-0.04l-0.01 0.01h-0.03c-0.69 0-1.05-0.64-1.44-0.64-0.28 0-0.35 0.26-0.35 0.46 0 0.27 0.33 0.47 0.48 0.55h-0.52c-0.01 0-0.35-0.2-0.35-0.54 0-0.44 0.25-0.51 0.46-0.62v-0.01c-0.01 0-1.67-0.41-1.67-1.46 0-0.83 1.01-0.88 1.02-0.88v-0.04c-0.01 0-2.13-0.43-2.13-1.97 0-0.92 0.75-1.18 1.53-1.18 0.71 0 1.36-0.02 1.36-0.52 0-0.63-0.75-1.09-1.26-1.09-0.38 0-0.4 0.33-0.4 0.45-0.11-0.05-0.48-0.22-0.48-0.44 0-0.17 0.26-0.25 0.43-0.25 1.18 0 2.09 0.6 2.09 1.68 0 0.7-0.74 0.77-1.2 0.77-0.7 0-1.08 0.3-1.08 0.82 0 1.07 1.05 1.57 1.68 1.57 0.56 0 0.81-0.11 0.97-0.11 0.25 0 0.5 0.14 0.5 0.47 0 0.18-0.03 0.27-0.25 0.27-0.28 0-0.58-0.25-1.28-0.25-0.59 0-0.64 0.39-0.64 0.66 0 0.93 1.01 1.39 1.02 1.39 0.31-0.06 0.56-0.08 0.77-0.08 0.81 0 0.96 0.4 0.96 0.76z"/>
<path d="m170.51 655.16v0.75l-0.02 0.73-0.03 0.69-0.05 0.66-0.05 0.64-0.06 0.61-0.08 0.58-0.08 0.55-0.09 0.53-0.09 0.5-0.11 0.47-0.1 0.45-0.11 0.43-0.12 0.4-0.12 0.38-0.12 0.36-0.12 0.34-0.13 0.32-0.12 0.3-0.12 0.27-0.12 0.26-0.12 0.24-0.12 0.23-0.11 0.21-0.11 0.19-0.2 0.34-0.09 0.14-0.08 0.14-0.08 0.12-0.06 0.11-0.06 0.1-0.14-0.51c1.58-2.83 2.01-6.94 2.01-11.53s-0.43-8.71-2.01-11.54l0.14-0.5c0.54 0.98 2.87 3.81 2.87 12.04z"/>
<path d="m171.04 647.17h0.02l0.02-0.01h0.07l0.03-0.01h0.03l0.03-0.01 0.02-0.01h0.03l0.02-0.01h0.02l0.04-0.02h0.02l0.02-0.01 0.01-0.01 0.02-0.01 0.01-0.01h0.01l0.02-0.01 0.02-0.02v-0.01l0.01-0.02 0.01-0.01v-0.01l0.01-0.01v-0.03l0.01-0.02v-0.04c0-0.1-0.03-0.25-0.12-0.56l-0.83-2.95c-0.12-0.42-0.17-0.46-0.57-0.52v-0.11h1.71v0.11c-0.44 0.06-0.47 0.08-0.47 0.32 0 0.09 0.01 0.15 0.08 0.4l0.37 1.35 0.07 0.23 0.49 1.73c0.04 0.14 0.13 0.19 0.32 0.19 0.28 0 0.54-0.07 0.68-0.16 0.18-0.13 0.26-0.34 0.26-0.67 0-0.45-0.16-0.77-0.47-0.95-0.21-0.12-0.49-0.17-0.92-0.17-0.12 0-0.18 0-0.36 0.03l-0.07-0.23c0.18-0.04 0.36-0.06 0.65-0.06 0.57 0 1.04 0.12 1.34 0.34 0.35 0.25 0.55 0.63 0.55 1.04 0 0.67-0.52 1.04-1.47 1.04h-1.74z"/>
<path d="m174.87 642.78v0.1l-0.01 0.03v0.04l-0.01 0.03v0.02l-0.01 0.02v0.02l-0.01 0.02v0.02l-0.01 0.01-0.01 0.02v0.02l-0.01 0.02-0.01 0.01-0.06 0.09-0.1 0.1-0.03 0.01-0.02 0.02-0.03 0.01-0.04 0.02-0.03 0.01-0.02 0.01h-0.02l-0.02 0.01h-0.04l-0.02 0.01h-0.06c-0.17 0-0.4-0.11-0.4-0.4 0-0.28 0.25-0.35 0.43-0.35 0.05 0 0.09 0.01 0.11 0.01 0.03 0.01 0.05 0.02 0.06 0.02 0.05 0 0.1-0.04 0.1-0.1 0-0.13-0.11-0.45-0.58-0.74l0.07-0.13c0.21 0.07 0.78 0.53 0.78 1.02z"/>
<path d="m179.68 647.28h-3.72l-0.3-1.07 0.13-0.03c0.37 0.75 0.59 0.87 1.66 0.86l-1-3.67c-0.11-0.37-0.28-0.48-0.74-0.52v-0.11h2.02v0.11c-0.12 0.01-0.22 0.02-0.26 0.02-0.28 0.02-0.37 0.09-0.37 0.29 0 0.1 0.02 0.18 0.09 0.41l0.97 3.47h0.38c0.51 0 0.73-0.18 0.73-0.57 0-0.09-0.01-0.19-0.02-0.31l0.12-0.01z"/>
<polygon points="175.53 655.86 180.64 655.86 180.64 656.42 175.53 656.42"/>
<polygon points="175.53 653.84 180.64 653.84 180.64 654.4 175.53 654.4"/>
<path d="m186.55 659.3h-0.1l-0.05-0.01h-0.1l-0.04-0.01-0.05-0.01h-0.05l-0.04-0.01-0.05-0.01-0.08-0.02-0.05-0.02-0.08-0.02-0.08-0.04-0.04-0.01-0.16-0.08-0.04-0.03-0.04-0.02-0.03-0.03-0.04-0.02-0.04-0.03-0.03-0.03-0.04-0.03-0.03-0.03-0.04-0.03-0.03-0.03c-0.58-0.56-0.96-1.7-0.96-2.86 0-1.08 0.33-2.24 0.8-2.8 0.37-0.44 0.87-0.68 1.45-0.68v0.26c-0.86 0-1.29 1.07-1.29 3.13 0 2.11 0.44 3.21 1.3 3.21 0.84 0 1.29-1.12 1.29-3.2 0-2.07-0.44-3.14-1.3-3.14v-0.26c0.51 0 0.94 0.17 1.3 0.52 0.58 0.55 0.96 1.7 0.96 2.9 0 2.04-0.91 3.44-2.22 3.44z"/>
</g></g>
</svg>
