<?xml version="1.0" encoding="UTF-8" standalone="no"?>
<svg id="svg6321" xmlns:rdf="http://www.w3.org/1999/02/22-rdf-syntax-ns#" xmlns="http://www.w3.org/2000/svg" xmlns:ns0="http://www.iki.fi/pav/software/textext/" height="425" width="395" version="1.1" xmlns:cc="http://creativecommons.org/ns#" xmlns:xlink="http://www.w3.org/1999/xlink" viewBox="0 0 395 425" xmlns:dc="http://purl.org/dc/elements/1.1/">
 <style type="text/css">
	 @import url('../estilo.css');
 </style>
 <defs>
  <circle id="gpPt5" stroke-width=".222" cy="0" stroke="currentColor" cx="0" r="1"/>
  <use id="gpPt6" xlink:href="#gpPt5" fill="currentColor"/>
 </defs>
 <metadata id="metadata6497">
  <rdf:RDF>
   <cc:Work rdf:about="">
    <dc:format>image/svg+xml</dc:format>
    <dc:type rdf:resource="http://purl.org/dc/dcmitype/StillImage"/>
    <dc:title>Gnuplot</dc:title>
   </cc:Work>
  </rdf:RDF>
 </metadata>
 <title id="title6323">Gnuplot</title>
 <desc id="desc6325">Produced by GNUPLOT 5.0 patchlevel 3</desc>
 <g id="gnuplot_canvas">
  <rect id="rect6328" height="425" width="395" y="0" x="0" fill="none"/>
  <g id="g6364" color="black" stroke="currentColor" stroke-width=".25" fill="none">
   <path id="path6366" stroke="#000" d="m20.7 212.5h349.3"/>
  </g>
  <g id="gnuplot_plot_1a">
   <title id="title6373"/>
   <g id="g6377" color="black" stroke="currentColor" stroke-width="1.5" fill="none">
    <path id="path6379" stroke="#000" d="m370 406.9l-33.9-38.1-24.2-27.3-17.3-19.5-12.9-14.7-10.1-11.5-8-9.2-6.5-7.6-5.4-6.3-4.6-5.4-3.9-4.6-3.4-4.1-2.9-3.5-2.6-3.2-2.3-2.8-2-2.6-1.8-2.3-1.6-2.1-1.5-1.9-1.3-1.8-1.2-1.7-1.1-1.5-1-1.5-0.9-1.3-0.8-1.3-0.7-1.2-0.7-1.2-0.6-1.1-0.6-1-0.5-1-0.5-1-0.5-0.9-0.4-0.9-0.3-0.9-0.3-0.8-0.3-0.8-0.3-0.8-0.2-0.8-0.2-0.7-0.2-0.8-0.1-0.7-0.2-0.7-0.1-0.8v-0.7l-0.1-0.7v-0.7-0.7-0.7l0.1-0.7v-0.7l0.1-0.8 0.2-0.7 0.1-0.7 0.2-0.8 0.2-0.7 0.2-0.8 0.3-0.8 0.3-0.8 0.3-0.8 0.3-0.9 0.4-0.9 0.5-0.9 0.5-1 0.5-1 0.6-1 0.6-1.1 0.7-1.2 0.7-1.2 0.8-1.3 0.9-1.3 1-1.5 1.1-1.5 1.2-1.7 1.3-1.8 1.5-1.9 1.6-2.1 1.8-2.3 2-2.6 2.3-2.8 2.6-3.2 2.9-3.5 3.4-4.1 3.9-4.6 4.6-5.4 5.4-6.3 6.5-7.6 8-9.2 10.1-11.5 12.9-14.7 17.3-19.5 24.2-27.3 33.9-38.1"/>
   </g>
  </g>
  <g id="gnuplot_plot_1b">
   <title id="title6394"/>
   <g id="g6398" color="black" stroke="currentColor" stroke-width=".5" fill="none">
    <path id="path6400" stroke="#9400d3" d="m202 212.5v-0.1-0.1-0.1-0.1-0.1-0.1-0.1l-0.1-0.1v-0.1-0.1-0.1-0.1-0.1-0.1h-0.1v-0.1-0.1-0.1l-0.1-0.1v-0.1-0.1-0.1h-0.1v-0.1-0.1l-0.1-0.1v-0.1-0.1h-0.1v-0.1-0.1h-0.1v-0.1-0.1h-0.1v-0.1-0.1h-0.1v-0.1l-0.1-0.1v-0.1l-0.1-0.1v-0.1h-0.1v-0.1l-0.1-0.1v-0.1h-0.1v-0.1h-0.1v-0.1l-0.1-0.1h-0.1v-0.1l-0.1-0.1v-0.1h-0.1l-0.1-0.1v-0.1h-0.1l-0.1-0.1"/>
   </g>
  </g>
  <g>
   <g>
    <g id="g6410" font-family="Stix Two Text" color="black">
     <g id="g6412" font-size="12" transform="translate(203.4,209.8)">
      <text id="text6414">
       <tspan id="tspan6416" font-family="Stix Two Text" font-style="italic">α</tspan>
      </text>
     </g>
     <g id="g6418" font-size="16" transform="translate(195.4,192.9)" text-anchor="middle">
      <text id="text6420">
       <tspan id="tspan6422" font-family="Stix Two Text">Θ</tspan>
      </text>
     </g>
     <g id="g6424" font-size="16" transform="translate(166.6,227.5)" text-anchor="end">
      <text id="text6426">
       <tspan id="tspan6428" font-family="Stix Two Text" font-style="italic">F</tspan>
      </text>
     </g>
    </g>
    <g id="g6430" color="black" stroke="currentColor" fill="none">
     <use id="use6432" color="black" xlink:href="#gpPt6" transform="translate(170.4,212.5) scale(2.25)"/>
    </g>
    <g id="g6434" color="black" stroke="currentColor" fill="none">
     <g id="g6436" font-size="16" transform="translate(221.5,227.5)" stroke="none" font-family="Stix Two Text" fill="#000">
      <text id="text6438" xml:space="preserve"><tspan id="tspan6440" xml:space="preserve" font-style="italic">F</tspan><tspan id="tspan6442" font-size="4.8" xml:space="preserve"> </tspan><tspan id="tspan6444" font-size="16" xml:space="preserve">′</tspan></text>
     </g>
    </g>
    <g id="g6446" color="black" stroke="currentColor" fill="none">
     <use id="use6448" color="black" xlink:href="#gpPt6" transform="translate(220.3,212.5) scale(2.25)"/>
    </g>
   </g>
   <g id="g6454" color="black" stroke="currentColor" stroke-width=".5" fill="none">
    <path id="path6456" stroke="gray" d="m20.7 407.8l349.3-390.5"/>
   </g>
   <g id="g6458" color="black" stroke="currentColor" stroke-width=".5" fill="none">
    <path id="path6460" stroke="gray" d="m20.7 17.3l349.3 390.5"/>
   </g>
   <g id="g6464" color="black" stroke-width="1.5" fill="none">
    <g id="g6466" shape-rendering="crispEdges">
     <polygon id="polygon6468" points="347.5 382.8 347.1 390 345 380 354.7 383.1" fill="#000"/>
    </g>
    <path id="path6470" stroke="#000" d="m347.5 382.8l-0.4 7.2-2.1-10 9.7 3.1-7.2-0.3m22.5 25l-22.5-25"/>
   </g>
  </g>
  <g id="gnuplot_plot_1c">
   <title id="title6477"/>
   <g id="g6481" color="black" stroke="currentColor" stroke-width=".5" fill="none">
    <path id="path6483" stroke="#009e73" d="m206.4 200.2l-0.1-0.2-0.2-0.2-0.2-0.1-0.2-0.2-0.2-0.1-0.2-0.2-0.2-0.1-0.2-0.2-0.2-0.1-0.2-0.1-0.2-0.2-0.2-0.1-0.2-0.1-0.2-0.2-0.3-0.1-0.2-0.1-0.2-0.1-0.2-0.1-0.2-0.1-0.2-0.1-0.3-0.1-0.2-0.1-0.2-0.1-0.2-0.1-0.3-0.1-0.2-0.1-0.2-0.1-0.3-0.1h-0.2l-0.2-0.1-0.3-0.1h-0.2l-0.2-0.1h-0.3l-0.2-0.1-0.3-0.1h-0.2-0.2l-0.3-0.1h-0.2l-0.3-0.1h-0.2-0.3-0.2-0.2l-0.3-0.1h-0.2-0.3-0.2-0.3-0.2-0.3-0.2l-0.3 0.1h-0.2-0.2-0.3-0.2l-0.3 0.1h-0.2l-0.3 0.1h-0.2-0.2l-0.3 0.1-0.2 0.1h-0.3l-0.2 0.1h-0.2l-0.3 0.1-0.2 0.1h-0.2l-0.3 0.1-0.2 0.1-0.2 0.1-0.3 0.1-0.2 0.1-0.2 0.1-0.2 0.1-0.3 0.1-0.2 0.1-0.2 0.1-0.2 0.1-0.2 0.1-0.2 0.1-0.3 0.1-0.2 0.2-0.2 0.1-0.2 0.1-0.2 0.2-0.2 0.1-0.2 0.1-0.2 0.2-0.2 0.1-0.2 0.2-0.2 0.1-0.2 0.2-0.2 0.1-0.2 0.2-0.1 0.2"/>
   </g>
  </g>
 </g>
 <g id="content" xml:space="preserve" stroke="#000" stroke-width="0" fill-rule="evenodd" ns0:pdfconverter="pstoedit" transform="matrix(1.75 0 0 -1.75 85.792 1646.9)" stroke-miterlimit="10.433" ns0:text="$\\vec{v}_0$" ns0:version="0.7.2" ns0:inkscapeversion="0.91" ns0:preamble="/usr/share/inkscape/extensions/default_packages.tex" ns0:scale="1.4" ns0:texconverter="pdflatex"><polygon id="polygon4820" points="149.76 712.93 153.1 712.93 152.12 711.92 152.31 711.68 153.98 713.12 152.93 714.56 152.64 714.32 153.18 713.32 149.85 713.32"/><path id="path4822" d="m148.92 711.14h0.02 0.02 0.02 0.02 0.02 0.01l0.02 0.01h0.02 0.03 0.02 0.02 0.02 0.02 0.02 0.02c0.39 0 0.49-0.17 0.63-1.09 0.1-0.69 0.22-2.19 0.22-2.77 0-0.28 0.02-0.35 0.08-0.35 0.25 0 1.18 1.06 2.2 2.47 0.35 0.5 0.6 1.15 0.6 1.52 0 0.32-0.25 0.59-0.55 0.59-0.22 0-0.37-0.13-0.37-0.34 0-0.16 0.06-0.28 0.24-0.44 0.13-0.12 0.18-0.2 0.18-0.3 0-0.46-0.66-1.56-1.37-2.3l-0.31-0.32c-0.07 1.4-0.13 1.92-0.26 2.66-0.2 1.02-0.2 1.04-0.29 1.04-0.05 0-0.12-0.01-0.2-0.04-0.17-0.05-0.72-0.15-1.1-0.21z"/><path id="path4824" d="m154.91 710.34h-0.04-0.03-0.04-0.03-0.04l-0.03-0.01h-0.03l-0.04-0.01h-0.03l-0.03-0.01-0.03-0.01-0.03-0.01h-0.03l-0.03-0.01-0.03-0.01-0.03-0.02-0.03-0.01-0.02-0.01-0.03-0.01-0.03-0.02-0.03-0.01-0.02-0.02-0.03-0.01-0.03-0.02-0.02-0.02-0.03-0.01-0.02-0.02-0.03-0.02-0.02-0.02-0.03-0.02-0.02-0.03-0.03-0.02c-0.4-0.39-0.67-1.19-0.67-2.01 0-0.76 0.23-1.57 0.56-1.96 0.26-0.31 0.61-0.48 1.02-0.48v0.18c-0.6 0-0.91 0.75-0.91 2.2 0 1.48 0.32 2.25 0.91 2.25s0.91-0.78 0.91-2.24-0.31-2.21-0.91-2.21v-0.18c0.35 0 0.65 0.12 0.91 0.37 0.4 0.38 0.67 1.19 0.67 2.03 0 1.43-0.64 2.41-1.55 2.41z"/></g>
</svg>
