<?xml version="1.0" encoding="UTF-8" standalone="no"?>
<svg id="svg4412" xmlns:rdf="http://www.w3.org/1999/02/22-rdf-syntax-ns#" xmlns="http://www.w3.org/2000/svg" xmlns:ns0="http://www.iki.fi/pav/software/textext/" height="180" width="600" version="1.1" xmlns:cc="http://creativecommons.org/ns#" xmlns:xlink="http://www.w3.org/1999/xlink" viewBox="0 0 600 180" xmlns:dc="http://purl.org/dc/elements/1.1/">
 <defs>
  <marker id="marker4545" refY="0.0" refX="0.0" overflow="visible" orient="auto">
   <path id="path4316" stroke-linejoin="round" d="m8.7186 4.0337l-10.926-4.0177 10.926-4.0177c-1.7455 2.3721-1.7355 5.6174 0 8.0354z" fill-rule="evenodd" transform="scale(.6) rotate(180) translate(0)" stroke="#e51e10" stroke-width=".625" fill="#e51e10"/>
  </marker>
  <marker id="marker6301" refY="0.0" refX="0.0" orient="auto" overflow="visible">
   <path id="path6303" stroke-linejoin="round" d="m8.7186 4.0337l-10.926-4.0177 10.926-4.0177c-1.7455 2.3721-1.7355 5.6174 0 8.0354z" fill-rule="evenodd" transform="scale(.6) rotate(180) translate(0)" stroke="#000" stroke-width=".625"/>
  </marker>
  <marker id="marker6000" refY="0.0" refX="0.0" overflow="visible" orient="auto">
   <path id="path6002" stroke-linejoin="round" d="m8.7186 4.0337l-10.926-4.0177 10.926-4.0177c-1.7455 2.3721-1.7355 5.6174 0 8.0354z" fill-rule="evenodd" transform="scale(.6) rotate(180) translate(0)" stroke="#000" stroke-width=".625"/>
  </marker>
  <circle id="gpPt5" stroke-width=".222" stroke="currentColor" cy="0" cx="0" r="1"/>
  <use id="gpPt6" xlink:href="#gpPt5" height="100%" width="100%" y="0" x="0" fill="currentColor"/>
 </defs>
 <metadata id="metadata4562">
  <rdf:RDF>
   <cc:Work rdf:about="">
    <dc:format>image/svg+xml</dc:format>
    <dc:type rdf:resource="http://purl.org/dc/dcmitype/StillImage"/>
    <dc:title>Gnuplot</dc:title>
   </cc:Work>
  </rdf:RDF>
 </metadata>
 <title id="title4414">Gnuplot</title>
 <desc id="desc4416">Produced by GNUPLOT 5.0 patchlevel 3</desc>
 <g id="gnuplot_canvas" transform="translate(-6)">
  <g fill="none">
   <rect id="rect4419" height="180" width="600" y="0" x="0"/>
   <g id="g4453" style="color:#000000" stroke="currentColor">
    <path id="path4455" d="m505.7 124.7 11.6-20" stroke="#000" stroke-dasharray="1, 2"/>
   </g>
   <g id="g4457" style="color:#000000" stroke="currentColor">
    <path id="path4459" stroke="#e51e10" d="m505.7 124.7v-40"/>
   </g>
  </g>
  <g id="gnuplot_plot_1a">
   <title id="title4464"/>
   <g id="g4466" style="color:#000000" stroke="currentColor" fill="none">
    <path id="path4468" stroke="#000" d="m565.7 159.3-0.2-0.3-1.7-2.6-1.6-2.4-1.6-2.3-1.4-2.1-1.3-1.9-1.3-1.8-1.2-1.8-1.2-1.6-1.1-1.5-1-1.5-1-1.3-1-1.3-0.9-1.3-0.9-1.1-0.9-1.1-0.8-1.1-0.8-1-0.8-1-0.7-0.9-0.8-0.9-0.7-0.9-0.6-0.8-0.7-0.8-0.7-0.8-0.6-0.7-0.6-0.7-0.6-0.7-0.6-0.7-0.6-0.6-0.6-0.6-0.5-0.6-0.6-0.6-0.5-0.6-0.5-0.5-0.6-0.5-0.5-0.6-0.5-0.5-0.5-0.4-0.5-0.5-0.4-0.5-0.5-0.4-0.5-0.5-0.5-0.4-0.4-0.4-0.5-0.4-0.4-0.4-0.5-0.4-0.4-0.4-0.5-0.4-0.4-0.3-0.4-0.4-0.5-0.3-0.4-0.4-0.4-0.3-0.4-0.4-0.5-0.3-0.4-0.3-0.4-0.3-0.4-0.3-0.4-0.3-0.4-0.3-0.5-0.3-0.4-0.3-0.4-0.3-0.4-0.3-0.4-0.2-0.4-0.3-0.4-0.3-0.4-0.2-0.5-0.3-0.4-0.2-0.4-0.3-0.4-0.2-0.4-0.3-0.5-0.2-0.4-0.3-0.4-0.2-0.4-0.2-0.5-0.3-0.4-0.2-0.4-0.2-0.5-0.3-0.4-0.2-0.4-0.2-0.5-0.2-0.4-0.2-0.5-0.3-0.5-0.2-0.4-0.2-0.5-0.2-0.5-0.2-0.4-0.2-0.5-0.2-0.5-0.2-0.5-0.2-0.5-0.2-0.5-0.2-0.6-0.2-0.5-0.2-0.5-0.2-0.6-0.2-0.5-0.2-0.6-0.2-0.6-0.2-0.5-0.2-0.6-0.1-0.6-0.2-0.6-0.2-0.7-0.2-0.6-0.2-0.7-0.2-0.6-0.2-0.7-0.2-0.7-0.1-0.7-0.2-0.8-0.2-0.7-0.2-0.8-0.2-0.8-0.2-0.8-0.1-0.9-0.2-0.9-0.2-0.8-0.2-1-0.2-0.9-0.1-1-0.2-1-0.2-1.1-0.2-1.1-0.2-1.1-0.2-1.2-0.1-1.2-0.2-1.3-0.2-1.4-0.2-1.4-0.2-1.4-0.2-1.6-0.1-1.6-0.2-1.7-0.2-1.7-0.2-1.9-0.2-2-0.2-2.1-0.2-2.2-0.2-2.4-0.2-2.5-0.1-2.7-0.2-2.9-0.2-3.1-0.2-3.3-0.2-3.7-0.2-3.9-0.2-4.3-0.2-4.7-0.2-5.2-0.2-5.8-0.2-6.4-0.2-7.1-0.2-8.1-0.2-9.3-0.3l-10.6-0.2-12.4-0.2-14.6-0.2-17.5-0.2-21.3-0.2-26.6-0.2-34.1-0.3-45.4-0.2-63.6-0.2-95.2-0.3h-22.3"/>
   </g>
  </g>
  <g id="g4482" style="color:#000000" stroke="currentColor" stroke-width=".5" fill="none">
   <path id="path4484" stroke="#808080" d="m20.7 84.7h554.3"/>
  </g>
  <g id="g4488" style="color:#000000" stroke="currentColor" fill="none">
   <path id="path4490" d="m505.7 124.7-34.6-60" stroke="#000" stroke-dasharray="1, 2"/>
  </g>
  <g id="gnuplot_plot_1b">
   <title id="title4495"/>
   <g id="g4497" style="color:#000000" stroke="currentColor" fill="none">
    <path id="path4499" stroke="#000" d="m512.3 20.8-0.3 0.5-1.2 1.7-1.1 1.6-1.1 1.5-1.1 1.5-1 1.4-1 1.4-1 1.3-1 1.3-0.9 1.2-0.9 1.2-0.9 1.2-0.8 1.1-0.9 1-0.8 1-0.8 1-0.8 1-0.8 0.9-0.7 0.9-0.8 0.9-0.7 0.8-0.7 0.9-0.7 0.8-0.7 0.7-0.7 0.8-0.7 0.7-0.7 0.7-0.7 0.7-0.6 0.7-0.7 0.7-0.6 0.6-0.7 0.6-0.6 0.6-0.6 0.6-0.7 0.6-0.6 0.6-0.6 0.5-0.6 0.6-0.7 0.5-0.6 0.5-0.6 0.5-0.6 0.5-0.6 0.5-0.6 0.5-0.6 0.4-0.6 0.5-0.7 0.4-0.6 0.4-0.6 0.5-0.6 0.4-0.6 0.4-0.6 0.4-0.6 0.4-0.7 0.4-0.6 0.3-0.6 0.4-0.6 0.4-0.7 0.3-0.6 0.4-0.7 0.3-0.6 0.4-0.7 0.3-0.6 0.3-0.7 0.4-0.7 0.3-0.7 0.3-0.6 0.3-0.7 0.3-0.7 0.3-0.8 0.3-0.7 0.3-0.7 0.3-0.8 0.2-0.7 0.3-0.8 0.3-0.8 0.3-0.7 0.2-0.8 0.3-0.9 0.2-0.8 0.3-0.8 0.2-0.9 0.3-0.9 0.2-0.9 0.3-0.9 0.2-0.9 0.2-1 0.3-1 0.2-1 0.2-1 0.2-1 0.2-1.1 0.3-1.1 0.2-1.1 0.2-1.2 0.2-1.2 0.2-1.2 0.2-1.3 0.2-1.3 0.2-1.3 0.2-1.4 0.2-1.4 0.2-1.5 0.2-1.5 0.2-1.6 0.1-1.6 0.2-1.7 0.2-1.8 0.2-1.8 0.2-1.9 0.1-2 0.2-2 0.2-2.2 0.2-2.2 0.1-2.4 0.2-2.4 0.2-2.6 0.1-2.7 0.2-2.8 0.2-3 0.1-3.1 0.2-3.3 0.1-3.6 0.2-3.7 0.1-3.9 0.2-4.2 0.1-4.5 0.2-4.8 0.1-5.2 0.2-5.5 0.1-6 0.2-6.4 0.1-7 0.2-7.7 0.1-8.3 0.2-9.2 0.1-10.1 0.1-11.2 0.2-12.6 0.1-14 0.1-16 0.2-18.2 0.1-21 0.1-24.5 0.2-28.9 0.1-34.7 0.1-42.3 0.2-52.1 0.1"/>
   </g>
  </g>
  <g stroke="currentColor" fill="none">
   <g id="g4507" style="color:#000000" stroke-width="1.5">
    <g id="g4509" style="shape-rendering:crispEdges">
     <polygon id="polygon4511" points="191.2 92.9 199.5 84.7 199.5 84.7 191.2 76.5 205.5 84.7" fill="#000"/>
    </g>
    <path id="path4513" stroke="#000" d="m199.5 84.7-8.3-8.2 14.3 8.2-14.3 8.2 8.3-8.2m-178.8 0h178.8"/>
   </g>
   <g id="g4515" style="color:#000000" stroke-width="1.5">
    <g id="g4517" style="shape-rendering:crispEdges">
     <polygon id="polygon4519" points="35.7 77.7 26.7 85.1 26.7 85.1 34.3 94.1 20.7 84.7" fill="#0072b2"/>
    </g>
    <path id="path4521" stroke="#0072b2" d="m26.7 85.1 7.6 9-13.6-9.4 15-7-9 7.4m479 39.6-479-39.6"/>
   </g>
   <g id="g4527" style="color:#000000">
    <g id="g4529" font-size="12px" transform="translate(510.2,124.7)" font-family="Arial" fill="#000">
     <text id="text4531"/>
    </g>
   </g>
   <g id="g4533" style="color:#000000">
    <use id="use4535" style="color:#000000" xlink:href="#gpPt6" transform="matrix(2.25,0,0,2.25,505.7,124.7)" height="100%" width="100%" y="0" x="0"/>
   </g>
  </g>
  <g id="gnuplot_plot_1c">
   <title id="title4542">-21+.5*sqrt(b**2+(-21)**2)*cos(t),b+.5*sqrt(b**2+(-21)**2)*sin(t)</title>
   <g id="g4546" style="color:#000000" stroke="currentColor" stroke-width=".5" fill="none">
    <path id="path4548" stroke="#009e73" d="m263.2 104.7v-0.1-0.1-0.1-0.1-0.1l0.1-0.1v-0.1-0.1-0.1-0.1-0.1-0.1-0.1-0.1-0.1-0.1-0.1-0.1l0.1-0.1v-0.1-0.1-0.1-0.1-0.1-0.1-0.1-0.1-0.1-0.1-0.1-0.1-0.1l0.1-0.1v-0.1-0.1-0.1-0.1-0.1-0.1-0.1-0.1-0.1-0.1-0.1-0.1-0.1-0.1l0.1-0.1v-0.1-0.1-0.1-0.1-0.1-0.1-0.1-0.1-0.1-0.1-0.1-0.1-0.1-0.1-0.1l0.1-0.1v-0.1-0.1-0.1-0.1-0.1-0.1-0.1-0.1-0.1-0.1-0.1-0.1-0.1-0.1-0.1-0.1-0.1-0.1-0.1l0.1-0.1v-0.1-0.1-0.1-0.1-0.1-0.1-0.1-0.1-0.1-0.2-0.1-0.1-0.1-0.1-0.1-0.1-0.1-0.1-0.1-0.1-0.1-0.1l0.1-0.1v-0.1-0.1-0.1-0.1-0.1-0.1-0.1-0.1-0.1-0.1-0.1-0.1-0.1-0.1-0.1-0.1-0.1-0.1-0.1-0.1-0.1-0.1-0.1-0.1-0.1-0.1-0.1-0.1-0.1-0.1l0.1-0.1v-0.1-0.1-0.1-0.1-0.1-0.1-0.1-0.1-0.1-0.1-0.1-0.1-0.1-0.1-0.1-0.1-0.1-0.1-0.1-0.1-0.1-0.1-0.1-0.1-0.1-0.1-0.1-0.1-0.1-0.1-0.1-0.1-0.1-0.1-0.1-0.1-0.1-0.1-0.1-0.1-0.1-0.1-0.1-0.1-0.1-0.1-0.1-0.1-0.1-0.1-0.1-0.1-0.1-0.1-0.1-0.1-0.1-0.1-0.1-0.1-0.1"/>
   </g>
  </g>
 </g>
 <g fill-rule="evenodd" stroke="#000" stroke-miterlimit="10.433">
  <g id="content" xml:space="preserve" stroke-width="0" ns0:pdfconverter="pstoedit" transform="matrix(1.75 0 0 -1.75 73.768 1365.3)" ns0:text="$\\vec{r}$" ns0:version="0.7.2" ns0:inkscapeversion="0.91" ns0:preamble="/usr/share/inkscape/extensions/default_packages.tex" ns0:scale="1.4" ns0:texconverter="pdflatex"><polygon id="polygon4652" points="153.03 712.93 152.05 711.92 152.24 711.68 153.91 713.12 152.86 714.56 152.57 714.32 153.11 713.32 149.78 713.32 149.69 712.93"/><path id="path4654" d="m149.91 707.12 0.05 0.16 0.05 0.15 0.04 0.14 0.04 0.13 0.05 0.13 0.03 0.12 0.04 0.12 0.04 0.11 0.03 0.11 0.04 0.1 0.03 0.1 0.03 0.09 0.04 0.09 0.03 0.08 0.03 0.08 0.03 0.08 0.03 0.08 0.03 0.07 0.06 0.14 0.07 0.14 0.06 0.13 0.07 0.13 0.07 0.13 0.08 0.13 0.04 0.07 0.04 0.07c0.33 0.56 0.61 0.87 0.78 0.87 0.06 0 0.11-0.04 0.16-0.14 0.08-0.17 0.16-0.22 0.36-0.22 0.29 0 0.46 0.18 0.46 0.49s-0.2 0.52-0.47 0.52c-0.23 0-0.5-0.15-0.76-0.42-0.41-0.42-0.81-1.01-0.97-1.41l-0.14-0.36 0.53 2.17-0.03 0.02c-0.73-0.13-0.82-0.15-1.54-0.27v-0.17c0.24 0.05 0.27 0.05 0.34 0.05 0.21 0 0.34-0.1 0.34-0.28 0-0.14 0-0.14-0.16-0.82l-0.8-2.91z"/></g>
  <g id="g5018" xml:space="preserve" ns0:pdfconverter="pstoedit" transform="matrix(1.75 0 0 -1.75 .97125 1336.4)" ns0:text="\\footnotesize\n$\\beta$" ns0:version="0.7.2" ns0:inkscapeversion="0.91" ns0:preamble="/usr/share/inkscape/extensions/default_packages.tex" ns0:scale="1.4" ns0:texconverter="pdflatex"><path id="path5020" stroke-width="0" d="m152.74 711.43-0.01 0.05v0.06l-0.01 0.05-0.01 0.06-0.01 0.05-0.02 0.04-0.01 0.05-0.03 0.05-0.02 0.04-0.02 0.04-0.03 0.04-0.03 0.03-0.03 0.04-0.04 0.03-0.03 0.03-0.04 0.03-0.04 0.03-0.05 0.02-0.04 0.03-0.05 0.02-0.04 0.02-0.05 0.02-0.05 0.01-0.05 0.02-0.06 0.01-0.05 0.01-0.06 0.01-0.06 0.01-0.06 0.01h-0.05-0.07-0.06l-0.08-0.22c0.46 0 0.62-0.31 0.62-0.68 0-0.36-0.2-1.27-0.84-1.27-0.17 0-0.29 0.04-0.42 0.04-0.22 0-0.37-0.19-0.37-0.33 0-0.09 0.07-0.16 0.21-0.16 0.22 0 0.28 0.04 0.46 0.04 0.4 0 0.57-0.43 0.57-0.88 0-0.79-0.47-1.53-1.33-1.53-0.54 0-0.89 0.28-0.89 0.74 0 0.1 0.02 0.2 0.05 0.32l0.72 2.55c0.14 0.52 0.51 1.16 1.22 1.16l0.08 0.22c-0.84 0-1.66-0.56-1.89-1.37l-1.21-4.44c-0.14-0.51-0.44-0.95-0.52-1.06h0.71s0.13 0.07 0.39 1.06l0.28 1.03c0-0.01 0.27-0.57 1.07-0.57 1.2 0 2 0.89 2 1.81 0 0.99-0.9 1.14-0.91 1.14v0.04c0.01 0 1.26 0.28 1.26 1.45z" fill-rule="evenodd" stroke-miterlimit="10.433"/></g>
  <g id="g5204" xml:space="preserve" stroke-width="0" ns0:pdfconverter="pstoedit" transform="matrix(1.75 0 0 -1.75 -155.21 1313.9)" ns0:text="$\\vec{v}_0$" ns0:version="0.7.2" ns0:inkscapeversion="0.91" ns0:preamble="/usr/share/inkscape/extensions/default_packages.tex" ns0:scale="1.4" ns0:texconverter="pdflatex"><polygon id="polygon5206" points="153.18 713.32 149.85 713.32 149.76 712.93 153.1 712.93 152.12 711.92 152.31 711.68 153.98 713.12 152.93 714.56 152.64 714.32"/><path id="path5208" d="m148.92 711.14h0.02 0.02 0.02 0.02 0.02 0.01l0.02 0.01h0.02 0.03 0.02 0.02 0.02 0.02 0.02 0.02c0.39 0 0.49-0.17 0.63-1.09 0.1-0.69 0.22-2.19 0.22-2.77 0-0.28 0.02-0.35 0.08-0.35 0.25 0 1.18 1.06 2.2 2.47 0.35 0.5 0.6 1.15 0.6 1.52 0 0.32-0.25 0.59-0.55 0.59-0.22 0-0.37-0.13-0.37-0.34 0-0.16 0.06-0.28 0.24-0.44 0.13-0.12 0.18-0.2 0.18-0.3 0-0.46-0.66-1.56-1.37-2.3l-0.31-0.32c-0.07 1.4-0.13 1.92-0.26 2.66-0.2 1.02-0.2 1.04-0.29 1.04-0.05 0-0.12-0.01-0.2-0.04-0.17-0.05-0.72-0.15-1.1-0.21z"/><path id="path5210" d="m154.91 710.34h-0.04-0.03-0.04-0.03-0.04l-0.03-0.01h-0.03l-0.04-0.01h-0.03l-0.03-0.01-0.03-0.01-0.03-0.01h-0.03l-0.03-0.01-0.03-0.01-0.03-0.02-0.03-0.01-0.02-0.01-0.03-0.01-0.03-0.02-0.03-0.01-0.02-0.02-0.03-0.01-0.03-0.02-0.02-0.02-0.03-0.01-0.02-0.02-0.03-0.02-0.02-0.02-0.03-0.02-0.02-0.03-0.03-0.02c-0.4-0.39-0.67-1.19-0.67-2.01 0-0.76 0.23-1.57 0.56-1.96 0.26-0.31 0.61-0.48 1.02-0.48v0.18c-0.6 0-0.91 0.75-0.91 2.2 0 1.48 0.32 2.25 0.91 2.25s0.91-0.78 0.91-2.24-0.31-2.21-0.91-2.21v-0.18c0.35 0 0.65 0.12 0.91 0.37 0.4 0.38 0.67 1.19 0.67 2.03 0 1.43-0.64 2.41-1.55 2.41z"/></g>
  <g id="g5402" xml:space="preserve" stroke-width="0" ns0:pdfconverter="pstoedit" transform="matrix(1.75 0 0 -1.75 186.43 1271.2)" ns0:text="$K &gt; 0$" ns0:version="0.7.2" ns0:inkscapeversion="0.91" ns0:preamble="/usr/share/inkscape/extensions/default_packages.tex" ns0:scale="1.4" ns0:texconverter="pdflatex"><path id="path5404" d="m156.15 713.63h-2.21v-0.16c0.12-0.01 0.23-0.03 0.27-0.03 0.24-0.02 0.34-0.08 0.34-0.19 0-0.24-0.55-0.78-1.44-1.4l-1.51-1.05 0.53 1.93c0.14 0.5 0.41 0.7 1 0.74v0.16h-2.72v-0.16c0.62-0.06 0.77-0.14 0.77-0.43 0-0.14-0.04-0.37-0.11-0.62l-1.23-4.4c-0.18-0.6-0.22-0.65-0.81-0.74v-0.16h2.47v0.16c-0.63 0.07-0.72 0.13-0.72 0.44 0 0.1 0.02 0.19 0.08 0.39l0.06 0.21 0.62 2.27 1.2-2.07c0.24-0.41 0.38-0.76 0.38-0.95 0-0.15-0.14-0.23-0.46-0.26-0.05 0-0.16-0.01-0.28-0.03v-0.16h2.73v0.16c-0.62 0.06-0.68 0.09-0.96 0.56l-1.74 3.02 2.99 2.25c0.28 0.21 0.51 0.32 0.75 0.36z"/><polygon id="polygon5406" points="159.54 712.18 159.54 711.63 163.69 709.68 159.54 707.74 159.54 707.18 164.64 709.58 164.64 709.78"/><path id="path5408" d="m170.55 713.86h-0.05-0.05l-0.05-0.01h-0.05l-0.04-0.01h-0.05l-0.05-0.01h-0.04l-0.05-0.01-0.05-0.01-0.04-0.01-0.04-0.01-0.05-0.02-0.04-0.01-0.04-0.02-0.04-0.01-0.04-0.02-0.04-0.02-0.04-0.01-0.04-0.02-0.04-0.02-0.04-0.03-0.04-0.02-0.03-0.02-0.04-0.03-0.04-0.02-0.04-0.03-0.03-0.03-0.04-0.03-0.03-0.03-0.04-0.03-0.03-0.03c-0.58-0.56-0.96-1.7-0.96-2.87 0-1.09 0.33-2.25 0.8-2.81 0.37-0.44 0.87-0.68 1.45-0.68v0.26c-0.85 0-1.29 1.07-1.29 3.14 0 2.11 0.45 3.22 1.3 3.22 0.84 0 1.29-1.13 1.29-3.21s-0.44-3.15-1.3-3.15v-0.26c0.51 0 0.94 0.17 1.3 0.52 0.58 0.55 0.95 1.71 0.95 2.91 0 2.04-0.9 3.45-2.21 3.45z"/></g>
  <g id="g5608" xml:space="preserve" stroke-width="0" ns0:pdfconverter="pstoedit" transform="matrix(1.75 0 0 -1.75 286.43 1369.2)" ns0:text="$K &lt; 0$" ns0:version="0.7.2" ns0:inkscapeversion="0.91" ns0:preamble="/usr/share/inkscape/extensions/default_packages.tex" ns0:scale="1.4" ns0:texconverter="pdflatex"><path id="path5610" d="m156.15 713.63h-2.21v-0.16c0.12-0.01 0.23-0.03 0.27-0.03 0.24-0.02 0.34-0.08 0.34-0.19 0-0.24-0.55-0.78-1.44-1.4l-1.51-1.05 0.53 1.93c0.14 0.5 0.41 0.7 1 0.74v0.16h-2.72v-0.16c0.62-0.06 0.77-0.14 0.77-0.43 0-0.14-0.04-0.37-0.11-0.62l-1.23-4.4c-0.18-0.6-0.22-0.65-0.81-0.74v-0.16h2.47v0.16c-0.63 0.07-0.72 0.13-0.72 0.44 0 0.1 0.02 0.19 0.08 0.39l0.06 0.21 0.62 2.27 1.2-2.07c0.24-0.41 0.38-0.76 0.38-0.95 0-0.15-0.14-0.23-0.46-0.26-0.05 0-0.16-0.01-0.28-0.03v-0.16h2.73v0.16c-0.62 0.06-0.68 0.09-0.96 0.56l-1.74 3.02 2.99 2.25c0.28 0.21 0.51 0.32 0.75 0.36z"/><polygon id="polygon5612" points="159.54 709.58 164.64 707.18 164.64 707.74 160.5 709.68 164.64 711.63 164.64 712.18 159.54 709.78"/><path id="path5614" d="m170.55 713.86h-0.05-0.05l-0.05-0.01h-0.05l-0.04-0.01h-0.05l-0.05-0.01h-0.04l-0.05-0.01-0.05-0.01-0.04-0.01-0.04-0.01-0.05-0.02-0.04-0.01-0.04-0.02-0.04-0.01-0.04-0.02-0.04-0.02-0.04-0.01-0.04-0.02-0.04-0.02-0.04-0.03-0.04-0.02-0.03-0.02-0.04-0.03-0.04-0.02-0.04-0.03-0.03-0.03-0.04-0.03-0.03-0.03-0.04-0.03-0.03-0.03c-0.58-0.56-0.96-1.7-0.96-2.87 0-1.09 0.33-2.25 0.8-2.81 0.37-0.44 0.87-0.68 1.45-0.68v0.26c-0.85 0-1.29 1.07-1.29 3.14 0 2.11 0.45 3.22 1.3 3.22 0.84 0 1.29-1.13 1.29-3.21s-0.44-3.15-1.3-3.15v-0.26c0.51 0 0.94 0.17 1.3 0.52 0.58 0.55 0.95 1.71 0.95 2.91 0 2.04-0.9 3.45-2.21 3.45z"/></g>
 </g>
 <g stroke="#000">
  <path id="path5720" marker-end="url(#marker6000)" d="m504 60-27 16.2" stroke-width="1px" fill="none"/>
  <g id="g6126" xml:space="preserve" stroke-width="0" fill-rule="evenodd" ns0:pdfconverter="pstoedit" transform="matrix(1.75 0 0 -1.75 245.97 1296.5)" stroke-miterlimit="10.433" ns0:text="$r_{\\text{min},K&gt;0}$" ns0:version="0.7.2" ns0:inkscapeversion="0.91" ns0:preamble="/usr/share/inkscape/extensions/default_packages.tex" ns0:scale="1.4" ns0:texconverter="pdflatex"><path id="path6128" d="m149.91 707.12 0.05 0.16 0.05 0.15 0.04 0.14 0.04 0.13 0.05 0.13 0.03 0.12 0.04 0.12 0.04 0.11 0.03 0.11 0.04 0.1 0.03 0.1 0.03 0.09 0.04 0.09 0.03 0.08 0.03 0.08 0.03 0.08 0.03 0.08 0.03 0.07 0.06 0.14 0.07 0.14 0.06 0.13 0.07 0.13 0.07 0.13 0.08 0.13 0.04 0.07 0.04 0.07c0.33 0.56 0.61 0.87 0.78 0.87 0.06 0 0.11-0.04 0.16-0.14 0.08-0.17 0.16-0.22 0.36-0.22 0.29 0 0.46 0.18 0.46 0.49s-0.2 0.52-0.47 0.52c-0.23 0-0.5-0.15-0.76-0.42-0.41-0.42-0.81-1.01-0.97-1.41l-0.14-0.36 0.53 2.17-0.03 0.02c-0.73-0.13-0.82-0.15-1.54-0.27v-0.17c0.24 0.05 0.27 0.05 0.34 0.05 0.21 0 0.34-0.1 0.34-0.28 0-0.14 0-0.14-0.16-0.82l-0.8-2.91z"/><path id="path6130" d="m152.72 708.41h0.01 0.01 0.01 0.01l0.01 0.01h0.01 0.02 0.01l0.01 0.01h0.02 0.01 0.01 0.02 0.01 0.01 0.02 0.01 0.01c0.18 0 0.25-0.11 0.25-0.44v-1.77c0-0.37-0.1-0.48-0.49-0.49v-0.1h1.55v0.1c-0.37 0.02-0.48 0.1-0.48 0.37v1.96c0 0.02 0.06 0.09 0.11 0.14 0.17 0.16 0.47 0.27 0.72 0.27 0.3 0 0.46-0.24 0.46-0.73v-1.51c0-0.39-0.08-0.47-0.48-0.5v-0.1h1.56v0.1c-0.39 0.01-0.5 0.13-0.5 0.56v1.76c0.21 0.3 0.44 0.42 0.76 0.42 0.4 0 0.53-0.18 0.53-0.76v-1.47c0-0.4-0.06-0.46-0.47-0.51v-0.1h1.53v0.1l-0.18 0.02c-0.21 0.01-0.3 0.14-0.3 0.41v1.44c0 0.82-0.27 1.24-0.81 1.24-0.4 0-0.76-0.18-1.13-0.59-0.13 0.4-0.37 0.59-0.74 0.59-0.31 0-0.51-0.1-1.09-0.54v0.52l-0.04 0.02c-0.36-0.13-0.6-0.21-0.98-0.32z"/><path id="path6132" d="m159.23 708.84-1.08-0.39v-0.1l0.06 0.01c0.08 0.01 0.17 0.02 0.23 0.02 0.17 0 0.23-0.11 0.23-0.42v-1.62c0-0.5-0.07-0.58-0.55-0.61v-0.1h1.65v0.1c-0.46 0.04-0.51 0.11-0.51 0.61v2.48z"/><path id="path6134" d="m158.9 710.39h-0.01-0.02-0.02-0.02l-0.01-0.01h-0.02l-0.02-0.01-0.01-0.01h-0.02l-0.01-0.01-0.02-0.01-0.01-0.01-0.01-0.01-0.02-0.01-0.01-0.01-0.01-0.01-0.01-0.01-0.02-0.02-0.01-0.01-0.01-0.01v-0.02l-0.01-0.01-0.01-0.02-0.01-0.01v-0.02l-0.01-0.02v-0.01l-0.01-0.02v-0.02-0.02l-0.01-0.01v-0.02c0-0.2 0.16-0.36 0.35-0.36 0.2 0 0.36 0.16 0.36 0.36 0 0.19-0.16 0.35-0.36 0.35z"/><path id="path6136" d="m160.06 708.41h0.01 0.01 0.01v0.01h0.01 0.01 0.01l0.01 0.01h0.02 0.01 0.01 0.01 0.02 0.01 0.01 0.02 0.01c0.2 0 0.26-0.1 0.26-0.44v-1.73c0-0.4-0.08-0.5-0.43-0.53v-0.1h1.48v0.1c-0.36 0.03-0.46 0.12-0.46 0.37v1.96c0.33 0.31 0.48 0.39 0.71 0.39 0.35 0 0.51-0.21 0.51-0.67v-1.46c0-0.44-0.09-0.56-0.44-0.59v-0.1h1.46v0.1c-0.35 0.04-0.43 0.12-0.43 0.47v1.59c0 0.66-0.31 1.05-0.82 1.05-0.32 0-0.54-0.12-1.02-0.57v0.55l-0.04 0.02c-0.35-0.13-0.58-0.2-0.97-0.32z"/><path id="path6138" d="m164.8 705.67v0.03 0.02 0.03 0.02l-0.01 0.03v0.02 0.02l-0.01 0.03v0.02l-0.01 0.02v0.02l-0.01 0.02v0.02l-0.01 0.02-0.01 0.01-0.01 0.02v0.02l-0.01 0.01-0.02 0.03-0.02 0.03-0.02 0.03-0.02 0.02-0.02 0.02-0.02 0.02-0.02 0.02-0.03 0.02-0.02 0.02-0.02 0.01-0.03 0.01-0.02 0.01-0.02 0.01-0.03 0.01-0.02 0.01h-0.02l-0.02 0.01h-0.02l-0.02 0.01h-0.02-0.02-0.02-0.01c-0.18 0-0.41-0.1-0.41-0.4 0-0.28 0.25-0.35 0.43-0.35 0.05 0 0.09 0 0.11 0.01 0.03 0.01 0.05 0.02 0.06 0.02 0.05 0 0.1-0.04 0.1-0.1 0-0.13-0.11-0.45-0.57-0.74l0.06-0.13c0.21 0.07 0.78 0.53 0.78 1.02z"/><path id="path6140" d="m170.4 710.18h-1.55v-0.11c0.08 0 0.16-0.02 0.19-0.02 0.16-0.01 0.23-0.05 0.23-0.13 0-0.17-0.38-0.54-1-0.98l-1.06-0.74 0.37 1.36c0.1 0.35 0.29 0.48 0.7 0.51v0.11h-1.9v-0.11c0.43-0.04 0.53-0.1 0.53-0.3 0-0.1-0.02-0.26-0.07-0.43l-0.86-3.08c-0.13-0.42-0.16-0.46-0.57-0.52v-0.11h1.73v0.11c-0.44 0.05-0.5 0.09-0.5 0.31 0 0.07 0.01 0.13 0.05 0.27l0.04 0.15 0.44 1.59 0.84-1.45c0.17-0.29 0.26-0.53 0.26-0.67 0-0.1-0.09-0.16-0.32-0.18-0.03 0-0.11 0-0.2-0.02v-0.11h1.92v0.11c-0.44 0.04-0.48 0.06-0.68 0.39l-1.21 2.11 2.09 1.58c0.2 0.15 0.36 0.22 0.53 0.25z"/><polygon id="polygon6142" points="170.82 706.06 170.82 705.67 174.4 707.35 174.4 707.49 170.82 709.17 170.82 708.78 173.73 707.42"/><path id="path6144" d="m176.6 710.34h-0.04-0.03-0.04-0.03-0.04l-0.03-0.01h-0.03l-0.04-0.01h-0.03l-0.03-0.01-0.03-0.01-0.03-0.01h-0.03l-0.03-0.01-0.03-0.01-0.03-0.02-0.03-0.01-0.02-0.01-0.03-0.01-0.03-0.02-0.03-0.01-0.02-0.02-0.03-0.01-0.03-0.02-0.02-0.02-0.03-0.01-0.02-0.02-0.03-0.02-0.02-0.02-0.03-0.02-0.02-0.03-0.03-0.02c-0.4-0.39-0.67-1.19-0.67-2.01 0-0.76 0.23-1.57 0.56-1.96 0.26-0.31 0.61-0.48 1.02-0.48v0.18c-0.6 0-0.91 0.75-0.91 2.2 0 1.48 0.32 2.25 0.91 2.25s0.91-0.78 0.91-2.24-0.31-2.21-0.91-2.21v-0.18c0.35 0 0.65 0.12 0.91 0.37 0.4 0.38 0.67 1.19 0.67 2.03 0 1.43-0.64 2.41-1.55 2.41z"/></g>
  <path id="path6295" marker-end="url(#marker6301)" d="m498.24 150 20.38-20.38-10.62-10.62" stroke-width="1px" fill="none"/>
 </g>
 <g fill-rule="evenodd">
  <g id="g6442" xml:space="preserve" stroke="#000" stroke-width="0" ns0:pdfconverter="pstoedit" transform="matrix(1.75 0 0 -1.75 225.6 1399.1)" stroke-miterlimit="10.433" ns0:text="$r_{\\text{min},K&lt;0}$" ns0:version="0.7.2" ns0:inkscapeversion="0.91" ns0:preamble="/usr/share/inkscape/extensions/default_packages.tex" ns0:scale="1.4" ns0:texconverter="pdflatex"><path id="path6444" d="m149.91 707.12 0.05 0.16 0.05 0.15 0.04 0.14 0.04 0.13 0.05 0.13 0.03 0.12 0.04 0.12 0.04 0.11 0.03 0.11 0.04 0.1 0.03 0.1 0.03 0.09 0.04 0.09 0.03 0.08 0.03 0.08 0.03 0.08 0.03 0.08 0.03 0.07 0.06 0.14 0.07 0.14 0.06 0.13 0.07 0.13 0.07 0.13 0.08 0.13 0.04 0.07 0.04 0.07c0.33 0.56 0.61 0.87 0.78 0.87 0.06 0 0.11-0.04 0.16-0.14 0.08-0.17 0.16-0.22 0.36-0.22 0.29 0 0.46 0.18 0.46 0.49s-0.2 0.52-0.47 0.52c-0.23 0-0.5-0.15-0.76-0.42-0.41-0.42-0.81-1.01-0.97-1.41l-0.14-0.36 0.53 2.17-0.03 0.02c-0.73-0.13-0.82-0.15-1.54-0.27v-0.17c0.24 0.05 0.27 0.05 0.34 0.05 0.21 0 0.34-0.1 0.34-0.28 0-0.14 0-0.14-0.16-0.82l-0.8-2.91z"/><path id="path6446" d="m152.72 708.41h0.01 0.01 0.01 0.01l0.01 0.01h0.01 0.02 0.01l0.01 0.01h0.02 0.01 0.01 0.02 0.01 0.01 0.02 0.01 0.01c0.18 0 0.25-0.11 0.25-0.44v-1.77c0-0.37-0.1-0.48-0.49-0.49v-0.1h1.55v0.1c-0.37 0.02-0.48 0.1-0.48 0.37v1.96c0 0.02 0.06 0.09 0.11 0.14 0.17 0.16 0.47 0.27 0.72 0.27 0.3 0 0.46-0.24 0.46-0.73v-1.51c0-0.39-0.08-0.47-0.48-0.5v-0.1h1.56v0.1c-0.39 0.01-0.5 0.13-0.5 0.56v1.76c0.21 0.3 0.44 0.42 0.76 0.42 0.4 0 0.53-0.18 0.53-0.76v-1.47c0-0.4-0.06-0.46-0.47-0.51v-0.1h1.53v0.1l-0.18 0.02c-0.21 0.01-0.3 0.14-0.3 0.41v1.44c0 0.82-0.27 1.24-0.81 1.24-0.4 0-0.76-0.18-1.13-0.59-0.13 0.4-0.37 0.59-0.74 0.59-0.31 0-0.51-0.1-1.09-0.54v0.52l-0.04 0.02c-0.36-0.13-0.6-0.21-0.98-0.32z"/><path id="path6448" d="m159.23 708.84-1.08-0.39v-0.1l0.06 0.01c0.08 0.01 0.17 0.02 0.23 0.02 0.17 0 0.23-0.11 0.23-0.42v-1.62c0-0.5-0.07-0.58-0.55-0.61v-0.1h1.65v0.1c-0.46 0.04-0.51 0.11-0.51 0.61v2.48z"/><path id="path6450" d="m158.9 710.39h-0.01-0.02-0.02-0.02l-0.01-0.01h-0.02l-0.02-0.01-0.01-0.01h-0.02l-0.01-0.01-0.02-0.01-0.01-0.01-0.01-0.01-0.02-0.01-0.01-0.01-0.01-0.01-0.01-0.01-0.02-0.02-0.01-0.01-0.01-0.01v-0.02l-0.01-0.01-0.01-0.02-0.01-0.01v-0.02l-0.01-0.02v-0.01l-0.01-0.02v-0.02-0.02l-0.01-0.01v-0.02c0-0.2 0.16-0.36 0.35-0.36 0.2 0 0.36 0.16 0.36 0.36 0 0.19-0.16 0.35-0.36 0.35z"/><path id="path6452" d="m160.06 708.41h0.01 0.01 0.01v0.01h0.01 0.01 0.01l0.01 0.01h0.02 0.01 0.01 0.01 0.02 0.01 0.01 0.02 0.01c0.2 0 0.26-0.1 0.26-0.44v-1.73c0-0.4-0.08-0.5-0.43-0.53v-0.1h1.48v0.1c-0.36 0.03-0.46 0.12-0.46 0.37v1.96c0.33 0.31 0.48 0.39 0.71 0.39 0.35 0 0.51-0.21 0.51-0.67v-1.46c0-0.44-0.09-0.56-0.44-0.59v-0.1h1.46v0.1c-0.35 0.04-0.43 0.12-0.43 0.47v1.59c0 0.66-0.31 1.05-0.82 1.05-0.32 0-0.54-0.12-1.02-0.57v0.55l-0.04 0.02c-0.35-0.13-0.58-0.2-0.97-0.32z"/><path id="path6454" d="m164.8 705.67v0.03 0.02 0.03 0.02l-0.01 0.03v0.02 0.02l-0.01 0.03v0.02l-0.01 0.02v0.02l-0.01 0.02v0.02l-0.01 0.02-0.01 0.01-0.01 0.02v0.02l-0.01 0.01-0.02 0.03-0.02 0.03-0.02 0.03-0.02 0.02-0.02 0.02-0.02 0.02-0.02 0.02-0.03 0.02-0.02 0.02-0.02 0.01-0.03 0.01-0.02 0.01-0.02 0.01-0.03 0.01-0.02 0.01h-0.02l-0.02 0.01h-0.02l-0.02 0.01h-0.02-0.02-0.02-0.01c-0.18 0-0.41-0.1-0.41-0.4 0-0.28 0.25-0.35 0.43-0.35 0.05 0 0.09 0 0.11 0.01 0.03 0.01 0.05 0.02 0.06 0.02 0.05 0 0.1-0.04 0.1-0.1 0-0.13-0.11-0.45-0.57-0.74l0.06-0.13c0.21 0.07 0.78 0.53 0.78 1.02z"/><path id="path6456" d="m170.4 710.18h-1.55v-0.11c0.08 0 0.16-0.02 0.19-0.02 0.16-0.01 0.23-0.05 0.23-0.13 0-0.17-0.38-0.54-1-0.98l-1.06-0.74 0.37 1.36c0.1 0.35 0.29 0.48 0.7 0.51v0.11h-1.9v-0.11c0.43-0.04 0.53-0.1 0.53-0.3 0-0.1-0.02-0.26-0.07-0.43l-0.86-3.08c-0.13-0.42-0.16-0.46-0.57-0.52v-0.11h1.73v0.11c-0.44 0.05-0.5 0.09-0.5 0.31 0 0.07 0.01 0.13 0.05 0.27l0.04 0.15 0.44 1.59 0.84-1.45c0.17-0.29 0.26-0.53 0.26-0.67 0-0.1-0.09-0.16-0.32-0.18-0.03 0-0.11 0-0.2-0.02v-0.11h1.92v0.11c-0.44 0.04-0.48 0.06-0.68 0.39l-1.21 2.11 2.09 1.58c0.2 0.15 0.36 0.22 0.53 0.25z"/><polygon id="polygon6458" points="171.49 707.42 174.4 708.78 174.4 709.17 170.82 707.49 170.82 707.35 174.4 705.67 174.4 706.06"/><path id="path6460" d="m176.6 710.34h-0.04-0.03-0.04-0.03-0.04l-0.03-0.01h-0.03l-0.04-0.01h-0.03l-0.03-0.01-0.03-0.01-0.03-0.01h-0.03l-0.03-0.01-0.03-0.01-0.03-0.02-0.03-0.01-0.02-0.01-0.03-0.01-0.03-0.02-0.03-0.01-0.02-0.02-0.03-0.01-0.03-0.02-0.02-0.02-0.03-0.01-0.02-0.02-0.03-0.02-0.02-0.02-0.03-0.02-0.02-0.03-0.03-0.02c-0.4-0.39-0.67-1.19-0.67-2.01 0-0.76 0.23-1.57 0.56-1.96 0.26-0.31 0.61-0.48 1.02-0.48v0.18c-0.6 0-0.91 0.75-0.91 2.2 0 1.48 0.32 2.25 0.91 2.25s0.91-0.78 0.91-2.24-0.31-2.21-0.91-2.21v-0.18c0.35 0 0.65 0.12 0.91 0.37 0.4 0.38 0.67 1.19 0.67 2.03 0 1.43-0.64 2.41-1.55 2.41z"/></g>
  <path id="path4283" marker-end="url(#marker4545)" d="m529 93.49h-26" stroke="#e51e10" stroke-width="1px" fill="#e51e10"/>
  <g id="g5354" xml:space="preserve" stroke="#000" ns0:pdfconverter="pstoedit" transform="matrix(1.75 0 0 -1.75 269.94 1336.8)" stroke-miterlimit="10.433" ns0:text="$b$" ns0:version="0.7.2" ns0:inkscapeversion="0.91" ns0:preamble="/usr/share/inkscape/extensions/default_packages.tex" ns0:scale="1.4" ns0:texconverter="pdflatex"><path id="path5356" stroke-width="0" d="m149.81 713.53h0.02 0.03 0.03l0.02-0.01h0.02 0.03 0.02 0.02 0.02 0.02 0.02l0.02-0.01h0.02 0.02 0.02 0.02 0.01 0.02l0.01-0.01h0.02 0.01 0.01l0.02-0.01h0.01 0.01 0.01l0.02-0.01h0.02l0.02-0.01 0.02-0.01 0.01-0.01h0.01l0.01-0.01 0.01-0.01 0.01-0.01 0.01-0.02v-0.01l0.01-0.01v-0.02l0.01-0.01v-0.02-0.01-0.02-0.02-0.02c0-0.09-0.03-0.21-0.09-0.43-0.02-0.07-0.04-0.14-0.05-0.19l-0.02-0.07-1.35-4.99v-0.04c0-0.23 0.77-0.53 1.32-0.53 1.51 0 3.16 1.75 3.16 3.31 0 0.7-0.49 1.2-1.15 1.2-0.7 0-1.22-0.41-1.93-1.51l0.17-0.13c0.44 0.77 0.89 1.15 1.37 1.15 0.43 0 0.7-0.33 0.7-0.86 0-0.66-0.51-1.72-1.1-2.34-0.37-0.38-0.8-0.59-1.23-0.59-0.3 0-0.45 0.11-0.45 0.34 0 0.6 0.3 1.57 0.71 2.3l-0.17 0.13c0.52 1.9 0.59 2.16 1.04 3.87l-0.05 0.05c-0.5-0.09-0.86-0.15-1.52-0.23z"/></g>
 </g>
</svg>
