<?xml version="1.0" encoding="UTF-8" standalone="no"?>
<!-- Created with Inkscape (http://www.inkscape.org/) -->
<svg id="svg2" xmlns:rdf="http://www.w3.org/1999/02/22-rdf-syntax-ns#" xmlns="http://www.w3.org/2000/svg" height="214.58" width="307.15" version="1.1" xmlns:cc="http://creativecommons.org/ns#" xmlns:dc="http://purl.org/dc/elements/1.1/" viewBox="0 0 307.15244 214.58118">
 <style type="text/css">
	 @import url('../estilo.css');
 </style>
 <metadata id="metadata7">
  <rdf:RDF>
   <cc:Work rdf:about="">
    <dc:format>image/svg+xml</dc:format>
    <dc:type rdf:resource="http://purl.org/dc/dcmitype/StillImage"/>
    <dc:title/>
   </cc:Work>
  </rdf:RDF>
 </metadata>
 <g id="layer1" transform="translate(-102.26 -480.68)">
  <g stroke="#000" fill="none">
   <path id="path4276" d="m264.49 620.56 34.457-38.2" stroke-dasharray="3,3"/>
   <path id="path4274" d="m260.7 586.28 37.983 42.064" stroke-dasharray="3,3"/>
   <path id="path4149" d="m157.02 484.98v176.13h245.99" stroke-width="1px"/>
  </g>
  <text id="text4151" style="word-spacing:0px;letter-spacing:0px" xml:space="preserve" font-size="16px" line-height="125%" y="509.32941" x="107.20918" font-family="&apos;STIX Two Text&apos;" fill="#000000"><tspan id="tspan4153" x="107.20918" y="509.32941"><tspan id="tspan4278" style="writing-mode:lr" font-size="16px" line-height="125%" font-style="italic" font-family="&apos;STIX Two Text&apos;">A</tspan> ó Λ</tspan></text>
  <text id="text4155" style="word-spacing:0px;letter-spacing:0px" xml:space="preserve" font-size="16px" line-height="125%" y="687.06335" x="377.35059" font-family="&apos;STIX Two Text&apos;" fill="#000000"><tspan id="tspan4157" x="377.35059" y="687.06335"><tspan id="tspan4280" style="writing-mode:lr" font-size="16px" line-height="125%" font-style="italic" font-family="&apos;STIX Two Text&apos;">V</tspan><tspan id="tspan4159" dy="4" font-size="65%">R</tspan></tspan></text>
  <g stroke="#000" stroke-linecap="square">
   <rect id="rect4199" height="3" width="3" y="516.45" x="200.46"/>
   <rect id="rect4205" height="3" width="3" y="536.45" x="210.46"/>
   <rect id="rect4207" height="3" width="3" y="550.14" x="227.7"/>
   <rect id="rect4209" height="3" width="3" y="569.07" x="246.64"/>
   <rect id="rect4211" height="3" width="3" y="576.63" x="304.02"/>
   <rect id="rect4213" height="3" width="3" y="560.19" x="320.33"/>
   <rect id="rect4215" height="3" width="3" y="538.94" x="328.64"/>
   <rect id="rect4217" height="3" width="3" y="527.25" x="348.02"/>
   <rect id="rect4219" height="3" width="3" y="510.19" x="359.31"/>
  </g>
  <g stroke="#000" stroke-width="1px" fill="none">
   <path id="path4266" d="m187.33 504.99 73.556 81.458"/>
   <path id="path4262" d="m298.75 582.54 74.34-82.417"/>
   <path id="path4272" d="m260.88 586.44c13.144 8.9554 25.652 7.5079 37.868-3.9028"/>
  </g>
 </g>
</svg>
