<?xml version="1.0" encoding="UTF-8" standalone="no"?>
<!-- Created with Inkscape (http://www.inkscape.org/) -->
<svg id="svg2" xmlns:rdf="http://www.w3.org/1999/02/22-rdf-syntax-ns#" xmlns="http://www.w3.org/2000/svg" height="281.94" width="205.35" version="1.1" xmlns:cc="http://creativecommons.org/ns#" xmlns:dc="http://purl.org/dc/elements/1.1/" viewBox="0 0 205.35026 281.94401">
 <style type="text/css">
	 @import url('../estilo.css');
 </style>
 <defs id="defs4">
  <marker id="marker5185" refY="0" refX="0" orient="auto" overflow="visible">
   <path id="path5187" d="m0 0 5-5-17.5 5 17.5 5-5-5z" fill-rule="evenodd" transform="matrix(-.8 0 0 -.8 -10 0)" stroke="#000" stroke-width="1pt"/>
  </marker>
 </defs>
 <metadata id="metadata7">
  <rdf:RDF>
   <cc:Work rdf:about="">
    <dc:format>image/svg+xml</dc:format>
    <dc:type rdf:resource="http://purl.org/dc/dcmitype/StillImage"/>
    <dc:title/>
   </cc:Work>
  </rdf:RDF>
 </metadata>
 <g id="layer1" transform="translate(-59.5 -753.58)">
  <g fill="none">
   <path id="path5669" d="m219 913.36-39 0.00073" stroke="#f00" stroke-width="1px"/>
   <path id="path5667" d="m219 832.36h11" stroke="#f00"/>
   <ellipse id="path4138" stroke-linejoin="round" rx="25" ry="37.5" stroke="#000" cy="965.86" cx="90"/>
  </g>
  <g>
   <text id="text4140" style="word-spacing:0px;letter-spacing:0px" xml:space="preserve" font-size="16px" line-height="125%" y="967.86206" x="79.247375" font-family="&apos;STIX Two Text&apos;" fill="#000000"><tspan id="tspan4142" x="79.247375" y="967.86206">gas</tspan></text>
   <g stroke-linejoin="round" stroke="#000">
    <path id="path4144" fill="#b3b3b3" d="m255 962.78a50 50 0 0 1 -24.843 43.794 50 50 0 0 1 -50.35 -0.025 50 50 0 0 1 -24.8 -43.818"/>
    <path id="path4148" fill="#fff" d="m229.98 962.44a25 25 0 0 1 -12.299 22.469 25 25 0 0 1 -25.614 -0.14677 25 25 0 0 1 -12.041 -22.608"/>
    <path id="rect4169" d="m155 963.36v-50h25v50" fill="#b3b3b3"/>
    <path id="rect4171" d="m230 963.36v-150h25v150" fill="#b3b3b3"/>
   </g>
  </g>
  <path id="path4175" d="m90 928.36c-0.13382-65.371 18.061-79.536 38.75-79.768 20.689-0.23187 38.75 14.768 38.75 64.768" stroke="#000" stroke-width="1px" fill="none"/>
  <text id="text4775" style="word-spacing:0px;letter-spacing:0px" xml:space="preserve" font-size="16px" line-height="125%" y="1030.3621" x="173.95087" font-family="&apos;STIX Two Text&apos;" fill="#000000"><tspan id="tspan4777" x="173.95087" y="1030.3621">mercurio</tspan></text>
  <text id="text4787" style="word-spacing:0px;letter-spacing:0px" xml:space="preserve" font-size="16px" line-height="125%" y="769.36206" x="225.35776" font-family="&apos;STIX Two Text&apos;" fill="#000000"><tspan id="tspan4791" x="225.35776" y="769.36206">vacío</tspan></text>
  <path id="path4797" marker-end="url(#marker5185)" d="m242.5 808.36v-33.526" stroke="#000" stroke-width="1px" fill="none"/>
  <path id="rect5441" stroke-linejoin="round" d="m230 832.36v-19h25v19" stroke="#000" fill="#fff"/>
  <g fill-rule="evenodd">
   <path id="path5444" style="color-rendering:auto;text-decoration-color:#000000;color:#000000;isolation:auto;mix-blend-mode:normal;shape-rendering:auto;solid-color:#000000;block-progression:tb;text-decoration-line:none;text-decoration-style:solid;image-rendering:auto;white-space:normal;text-indent:0;text-transform:none" d="m218.5 838.36v69h1v-69z"/>
   <path id="path5660" d="m219 913.36-4-6.92h8z"/>
   <path id="path5662" d="m219 832.36 4 6.92h-8z"/>
  </g>
  <text id="text4178" style="word-spacing:0px;letter-spacing:0px" xml:space="preserve" font-size="16px" line-height="125%" y="878.42206" x="174.67598" font-family="&apos;STIX Two Text&apos;" fill="#000000"><tspan id="tspan4180" x="174.67598" y="878.42206"><tspan id="tspan4184" font-family="&apos;STIX Two Text&apos;" font-style="italic">P<tspan id="tspan4186" dy="5" font-size="65%">i</tspan></tspan><tspan dy="-5"> =</tspan> <tspan id="tspan4182" font-family="&apos;STIX Two Text&apos;" font-style="italic">h</tspan></tspan></text>
 </g>
</svg>
