<?xml version="1.0" encoding="UTF-8" standalone="no"?>
<!-- Created with Inkscape (http://www.inkscape.org/) -->
<svg id="svg2" xmlns:rdf="http://www.w3.org/1999/02/22-rdf-syntax-ns#" xmlns="http://www.w3.org/2000/svg" height="149.67" width="447.92" version="1.1" xmlns:cc="http://creativecommons.org/ns#" xmlns:dc="http://purl.org/dc/elements/1.1/" viewBox="0 0 447.9166 149.67267">
 <style type="text/css">
	@import url('../estilo.css');
 </style>
 <defs id="defs4">
  <marker id="TriangleOutL" refY="0" refX="0" orient="auto" overflow="visible">
   <path id="path6601" d="m5.77 0-8.65 5v-10l8.65 5z" fill-rule="evenodd" transform="scale(.8)" stroke="#000" stroke-width="1pt"/>
  </marker>
 </defs>
 <metadata id="metadata7">
  <rdf:RDF>
   <cc:Work rdf:about="">
    <dc:format>image/svg+xml</dc:format>
    <dc:type rdf:resource="http://purl.org/dc/dcmitype/StillImage"/>
    <dc:title/>
   </cc:Work>
  </rdf:RDF>
 </metadata>
 <g id="layer1" transform="translate(-116.1 -269.45)">
  <g stroke="#000" stroke-width="3" fill="none">
   <path id="path4217" d="m121.1 325.13h95.429"/>
   <path id="path4219" d="m151.37 274.45v138.87"/>
   <path id="path4225" d="m286.29-325.13a34.881 8.5557 0 0 1 -17.441 7.4095 34.881 8.5557 0 0 1 -34.881 0 34.881 8.5557 0 0 1 -17.441 -7.4095" transform="scale(1,-1)"/>
  </g>
  <g id="g4234" transform="matrix(.70711 .70711 -.70711 .70711 242.99 20.809)" stroke="#000" stroke-width="2" fill="#fff">
   <ellipse id="ellipse4231" rx="20.402" ry="9.8817" cy="222.24" cx="218.24"/>
   <path id="rect4229" d="m197.83 222.24v-44.095h40.804v44.095"/>
   <ellipse id="path4227" rx="20.402" ry="9.8817" cy="178.15" cx="218.24"/>
  </g>
  <path id="path4223" fill="none" stroke="#000" stroke-width="3" d="m286.29 325.13a34.881 8.5557 0 0 1 -17.441 7.4095 34.881 8.5557 0 0 1 -34.881 0 34.881 8.5557 0 0 1 -17.441 -7.4095"/>
  <g stroke="#000" fill="#fff">
   <path id="rect4258" d="m230.82 412.82v-27.354h5.6207v27.354"/>
   <rect id="use4289" height=".28450" width=".28450" y="374.73" x="231.17"/>
   <rect id="use4291" height=".28450" width=".28450" y="378.98" x="234.09"/>
   <rect id="use4293" height=".28450" width=".28450" y="378.27" x="232.87"/>
   <rect id="use4295" height=".28450" width=".28450" y="375.75" x="233.21"/>
   <rect id="use4297" height=".28450" width=".28450" y="376.85" x="234.86"/>
   <rect id="use4299" height=".28450" width=".28450" y="369.82" x="229.03"/>
   <rect id="use4301" height=".28450" width=".28450" y="370.52" x="228.61"/>
   <rect id="use4303" height=".28450" width=".28450" y="370.24" x="229.01"/>
   <rect id="use4305" height=".28450" width=".28450" y="372.47" x="227.93"/>
   <rect id="use4307" height=".28450" width=".28450" y="370.94" x="229.61"/>
   <rect id="use4309" height=".28450" width=".28450" y="369.49" x="233.88"/>
   <rect id="use4311" height=".28450" width=".28450" y="373.12" x="230.1"/>
   <rect id="use4313" height=".28450" width=".28450" y="370.28" x="232.64"/>
   <rect id="use4315" height=".28450" width=".28450" y="368.29" x="236.24"/>
   <rect id="use4317" height=".28450" width=".28450" y="370.63" x="231.61"/>
   <rect id="use4319" height=".28450" width=".28450" y="368.81" x="235.65"/>
   <rect id="use4321" height=".28450" width=".28450" y="369.58" x="236.56"/>
   <rect id="use4323" height=".28450" width=".28450" y="368.01" x="235.06"/>
   <rect id="use4325" height=".28450" width=".28450" y="368.36" x="239.43"/>
   <rect id="use4327" height=".28450" width=".28450" y="367.11" x="238.11"/>
   <rect id="use4329" height=".28450" width=".28450" y="370.44" x="237.18"/>
   <rect id="use4331" height=".28450" width=".28450" y="372.91" x="237.74"/>
   <rect id="use4333" height=".28450" width=".28450" y="373.18" x="235.48"/>
   <rect id="use4335" height=".28450" width=".28450" y="372.59" x="235.84"/>
   <rect id="use4337" height=".28450" width=".28450" y="372.65" x="237.05"/>
   <rect id="use4339" height=".28450" width=".28450" y="369.63" x="236.21"/>
   <rect id="use4341" height=".28450" width=".28450" y="371.77" x="237.24"/>
   <rect id="use4343" height=".28450" width=".28450" y="373.15" x="235.85"/>
   <rect id="use4345" height=".28450" width=".28450" y="373.15" x="234.24"/>
   <rect id="use4347" height=".28450" width=".28450" y="374.53" x="238.43"/>
   <rect id="use4349" height=".28450" width=".28450" y="374.31" x="235.55"/>
   <rect id="use4351" height=".28450" width=".28450" y="376.31" x="236.45"/>
   <rect id="use4353" height=".28450" width=".28450" y="374.1" x="235.74"/>
   <rect id="use4355" height=".28450" width=".28450" y="375.9" x="235.16"/>
   <rect id="use4357" height=".28450" width=".28450" y="374.63" x="234.94"/>
   <rect id="use4359" height=".28450" width=".28450" y="379.93" x="236.25"/>
   <rect id="use4361" height=".28450" width=".28450" y="376.59" x="234.57"/>
   <rect id="use4363" height=".28450" width=".28450" y="375.23" x="235.42"/>
   <rect id="use4365" height=".28450" width=".28450" y="376.54" x="233.45"/>
   <rect id="use4367" height=".28450" width=".28450" y="376.14" x="235.54"/>
   <rect id="use4369" height=".28450" width=".28450" y="377.18" x="232.9"/>
   <rect id="use4371" height=".28450" width=".28450" y="376" x="233.91"/>
   <rect id="use4373" height=".28450" width=".28450" y="378.7" x="231.24"/>
   <rect id="use4375" height=".28450" width=".28450" y="375.51" x="231.33"/>
   <rect id="use4377" height=".28450" width=".28450" y="379.27" x="229.59"/>
   <rect id="use4379" height=".28450" width=".28450" y="374.75" x="230.25"/>
   <rect id="use4381" height=".28450" width=".28450" y="377.31" x="227.12"/>
   <rect id="use4383" height=".28450" width=".28450" y="377.43" x="224.97"/>
   <rect id="use4385" height=".28450" width=".28450" y="377.58" x="227.12"/>
   <rect id="use4387" height=".28450" width=".28450" y="376.63" x="224.35"/>
   <rect id="use4389" height=".28450" width=".28450" y="376.32" x="225.93"/>
   <rect id="use4391" height=".28450" width=".28450" y="371.13" x="226.54"/>
   <rect id="use4393" height=".28450" width=".28450" y="375.4" x="225.57"/>
   <rect id="use4395" height=".28450" width=".28450" y="376.25" x="225.6"/>
   <rect id="use4397" height=".28450" width=".28450" y="374.51" x="224.36"/>
   <rect id="use4399" height=".28450" width=".28450" y="371.5" x="226.16"/>
   <rect id="use4401" height=".28450" width=".28450" y="371.44" x="225.6"/>
   <rect id="use4403" height=".28450" width=".28450" y="371.34" x="226.8"/>
   <rect id="use4405" height=".28450" width=".28450" y="369.3" x="225.54"/>
   <rect id="use4407" height=".28450" width=".28450" y="370.79" x="223.36"/>
   <rect id="use4409" height=".28450" width=".28450" y="366.23" x="221.86"/>
   <rect id="use4411" height=".28450" width=".28450" y="365.56" x="226.52"/>
   <rect id="use4413" height=".28450" width=".28450" y="364.23" x="225.71"/>
   <rect id="use4415" height=".28450" width=".28450" y="363.03" x="223.57"/>
   <rect id="use4417" height=".28450" width=".28450" y="362.36" x="225.84"/>
   <rect id="use4419" height=".28450" width=".28450" y="363.41" x="227.75"/>
   <rect id="use4421" height=".28450" width=".28450" y="364.85" x="226.37"/>
   <rect id="use4423" height=".28450" width=".28450" y="359.49" x="227.62"/>
   <rect id="use4425" height=".28450" width=".28450" y="358.94" x="226.3"/>
   <rect id="use4427" height=".28450" width=".28450" y="363.89" x="229"/>
   <rect id="use4429" height=".28450" width=".28450" y="365.05" x="227.29"/>
   <rect id="use4431" height=".28450" width=".28450" y="361.68" x="230.08"/>
   <rect id="use4433" height=".28450" width=".28450" y="360.25" x="229.74"/>
   <rect id="use4435" height=".28450" width=".28450" y="360.31" x="226.55"/>
   <rect id="use4437" height=".28450" width=".28450" y="357.84" x="230.07"/>
   <rect id="use4439" height=".28450" width=".28450" y="359.47" x="229.94"/>
   <rect id="use4441" height=".28450" width=".28450" y="359.02" x="233.3"/>
   <rect id="use4443" height=".28450" width=".28450" y="358.79" x="228.9"/>
   <rect id="use4445" height=".28450" width=".28450" y="359.02" x="233.82"/>
   <rect id="use4447" height=".28450" width=".28450" y="357.12" x="235.41"/>
   <rect id="use4449" height=".28450" width=".28450" y="360.21" x="233.46"/>
   <rect id="use4451" height=".28450" width=".28450" y="358.16" x="232.9"/>
   <rect id="use4453" height=".28450" width=".28450" y="361.48" x="231.93"/>
   <rect id="use4455" height=".28450" width=".28450" y="356.53" x="235.34"/>
   <rect id="use4457" height=".28450" width=".28450" y="359.44" x="233.78"/>
   <rect id="use4459" height=".28450" width=".28450" y="358.66" x="233.49"/>
   <rect id="use4461" height=".28450" width=".28450" y="364.85" x="235.09"/>
   <rect id="use4463" height=".28450" width=".28450" y="361.39" x="235.33"/>
   <rect id="use4465" height=".28450" width=".28450" y="365.77" x="235.91"/>
   <rect id="use4467" height=".28450" width=".28450" y="364.32" x="233.68"/>
   <rect id="use4469" height=".28450" width=".28450" y="363.35" x="236.25"/>
   <rect id="use4471" height=".28450" width=".28450" y="362.78" x="237.37"/>
   <rect id="use4473" height=".28450" width=".28450" y="365.73" x="235.23"/>
   <rect id="use4475" height=".28450" width=".28450" y="364.71" x="234.85"/>
   <rect id="use4477" height=".28450" width=".28450" y="365.5" x="240.78"/>
   <rect id="use4479" height=".28450" width=".28450" y="369.66" x="239.63"/>
   <rect id="use4481" height=".28450" width=".28450" y="369.66" x="239.78"/>
   <rect id="use4483" height=".28450" width=".28450" y="366.5" x="240.66"/>
   <rect id="use4485" height=".28450" width=".28450" y="368.21" x="240.22"/>
   <rect id="use4487" height=".28450" width=".28450" y="367.92" x="239.57"/>
   <rect id="use4489" height=".28450" width=".28450" y="366.86" x="238.18"/>
   <rect id="use4491" height=".28450" width=".28450" y="369.82" x="237.24"/>
   <rect id="use4493" height=".28450" width=".28450" y="373.33" x="235.93"/>
   <rect id="use4495" height=".28450" width=".28450" y="372.79" x="236.63"/>
   <rect id="use4497" height=".28450" width=".28450" y="373.78" x="237.65"/>
   <rect id="use4499" height=".28450" width=".28450" y="374.44" x="233.75"/>
   <rect id="use4501" height=".28450" width=".28450" y="377.05" x="235.72"/>
   <rect id="use4503" height=".28450" width=".28450" y="375.12" x="238.22"/>
   <rect id="use4505" height=".28450" width=".28450" y="377.2" x="236.5"/>
   <rect id="use4507" height=".28450" width=".28450" y="375.17" x="234.81"/>
   <rect id="use4509" height=".28450" width=".28450" y="378.83" x="236.47"/>
   <rect id="use4511" height=".28450" width=".28450" y="376.99" x="232.23"/>
   <rect id="use4513" height=".28450" width=".28450" y="377.83" x="236.8"/>
   <rect id="use4515" height=".28450" width=".28450" y="379.5" x="235.64"/>
   <rect id="use4517" height=".28450" width=".28450" y="377.75" x="237.73"/>
   <rect id="use4519" height=".28450" width=".28450" y="379.67" x="234.01"/>
   <rect id="use4521" height=".28450" width=".28450" y="379.35" x="237.53"/>
   <rect id="use4523" height=".28450" width=".28450" y="380.92" x="235.41"/>
   <rect id="use4525" height=".28450" width=".28450" y="378.88" x="233.01"/>
   <rect id="use4527" height=".28450" width=".28450" y="378.1" x="234.66"/>
   <rect id="use4529" height=".28450" width=".28450" y="377.06" x="232.1"/>
   <rect id="use4531" height=".28450" width=".28450" y="378.43" x="233.15"/>
   <rect id="use4533" height=".28450" width=".28450" y="380.19" x="229.86"/>
   <rect id="use4535" height=".28450" width=".28450" y="381.82" x="229.92"/>
   <rect id="use4537" height=".28450" width=".28450" y="373.41" x="230.21"/>
   <rect id="use4539" height=".28450" width=".28450" y="370.35" x="232.56"/>
   <rect id="use4541" height=".28450" width=".28450" y="375.41" x="231.02"/>
   <rect id="use4543" height=".28450" width=".28450" y="367.88" x="230.21"/>
   <rect id="use4545" height=".28450" width=".28450" y="369.51" x="230.24"/>
   <rect id="use4547" height=".28450" width=".28450" y="369.07" x="230.37"/>
   <rect id="use4549" height=".28450" width=".28450" y="367.12" x="228.97"/>
   <rect id="use4551" height=".28450" width=".28450" y="364.13" x="230.82"/>
   <rect id="use4553" height=".28450" width=".28450" y="362.68" x="234.71"/>
   <rect id="use4555" height=".28450" width=".28450" y="362.99" x="228.37"/>
   <rect id="use4557" height=".28450" width=".28450" y="358.61" x="230.02"/>
   <rect id="use4559" height=".28450" width=".28450" y="357.68" x="233.75"/>
   <rect id="use4561" height=".28450" width=".28450" y="357.3" x="235.43"/>
   <rect id="use4563" height=".28450" width=".28450" y="359.18" x="229.66"/>
   <rect id="use4565" height=".28450" width=".28450" y="358.82" x="234.61"/>
   <rect id="use4567" height=".28450" width=".28450" y="356.89" x="229.81"/>
   <rect id="use4569" height=".28450" width=".28450" y="354.58" x="231.97"/>
   <rect id="use4571" height=".28450" width=".28450" y="354.73" x="235.9"/>
   <rect id="use4573" height=".28450" width=".28450" y="357.85" x="235.97"/>
   <rect id="use4575" height=".28450" width=".28450" y="353.62" x="233.85"/>
   <rect id="use4577" height=".28450" width=".28450" y="351.64" x="235.94"/>
   <rect id="use4579" height=".28450" width=".28450" y="354.11" x="236.05"/>
   <rect id="use4581" height=".28450" width=".28450" y="353.84" x="238.43"/>
   <rect id="use4583" height=".28450" width=".28450" y="353.81" x="238.72"/>
   <rect id="use4585" height=".28450" width=".28450" y="355.21" x="235.53"/>
   <rect id="use4587" height=".28450" width=".28450" y="353.94" x="235.58"/>
   <rect id="use4589" height=".28450" width=".28450" y="357.79" x="236.03"/>
   <rect id="use4591" height=".28450" width=".28450" y="354.21" x="236.78"/>
   <rect id="use4593" height=".28450" width=".28450" y="356.2" x="239.66"/>
   <rect id="use4595" height=".28450" width=".28450" y="355.38" x="240.08"/>
   <rect id="use4597" height=".28450" width=".28450" y="358.14" x="241.23"/>
   <rect id="use4599" height=".28450" width=".28450" y="360.89" x="238.88"/>
   <rect id="use4601" height=".28450" width=".28450" y="358.53" x="240.53"/>
   <rect id="use4603" height=".28450" width=".28450" y="356.09" x="239.7"/>
   <rect id="use4605" height=".28450" width=".28450" y="357.05" x="240.23"/>
   <rect id="use4607" height=".28450" width=".28450" y="357.62" x="236.24"/>
   <rect id="use4609" height=".28450" width=".28450" y="362.93" x="240.57"/>
   <rect id="use4611" height=".28450" width=".28450" y="365.61" x="238.59"/>
   <rect id="use4613" height=".28450" width=".28450" y="367.42" x="240.92"/>
   <rect id="use4615" height=".28450" width=".28450" y="365.08" x="238.94"/>
   <rect id="use4617" height=".28450" width=".28450" y="366.32" x="240.77"/>
   <rect id="use4619" height=".28450" width=".28450" y="365.85" x="240.47"/>
   <rect id="use4621" height=".28450" width=".28450" y="369.48" x="242.27"/>
   <rect id="use4623" height=".28450" width=".28450" y="367.08" x="236.75"/>
   <rect id="use4625" height=".28450" width=".28450" y="368.14" x="241.09"/>
   <rect id="use4627" height=".28450" width=".28450" y="372.62" x="239.49"/>
   <rect id="use4629" height=".28450" width=".28450" y="372.07" x="237.51"/>
   <rect id="use4631" height=".28450" width=".28450" y="372.43" x="235.88"/>
   <rect id="use4633" height=".28450" width=".28450" y="370.12" x="239.86"/>
   <rect id="use4635" height=".28450" width=".28450" y="374.32" x="239.49"/>
   <rect id="use4637" height=".28450" width=".28450" y="380.08" x="240.05"/>
   <rect id="use4639" height=".28450" width=".28450" y="380.37" x="238.97"/>
   <rect id="use4641" height=".28450" width=".28450" y="378.07" x="240.38"/>
   <rect id="use4643" height=".28450" width=".28450" y="382.95" x="238.52"/>
   <rect id="use4645" height=".28450" width=".28450" y="381.38" x="239.33"/>
   <rect id="use4647" height=".28450" width=".28450" y="379.91" x="237.48"/>
   <rect id="use4649" height=".28450" width=".28450" y="378.94" x="238.23"/>
   <rect id="use4651" height=".28450" width=".28450" y="378.52" x="239.75"/>
   <rect id="use4653" height=".28450" width=".28450" y="380.13" x="236.27"/>
   <rect id="use4655" height=".28450" width=".28450" y="380.8" x="234.85"/>
   <rect id="use4657" height=".28450" width=".28450" y="380.4" x="233.04"/>
   <rect id="use4659" height=".28450" width=".28450" y="383.96" x="234.05"/>
   <rect id="use4661" height=".28450" width=".28450" y="379.37" x="232.76"/>
   <rect id="use4663" height=".28450" width=".28450" y="385.16" x="232.44"/>
   <rect id="use4665" height=".28450" width=".28450" y="385.03" x="232.82"/>
   <rect id="use4667" height=".28450" width=".28450" y="383.4" x="233.99"/>
   <rect id="use4669" height=".28450" width=".28450" y="379.95" x="228.46"/>
   <rect id="use4671" height=".28450" width=".28450" y="382.14" x="228.13"/>
   <rect id="use4673" height=".28450" width=".28450" y="383.96" x="226.86"/>
   <rect id="use4675" height=".28450" width=".28450" y="382.45" x="225.65"/>
   <rect id="use4677" height=".28450" width=".28450" y="379.7" x="226.93"/>
   <rect id="use4679" height=".28450" width=".28450" y="382.85" x="226.27"/>
   <rect id="use4681" height=".28450" width=".28450" y="379.13" x="224.07"/>
   <rect id="use4683" height=".28450" width=".28450" y="377.98" x="225.82"/>
   <rect id="use4685" height=".28450" width=".28450" y="379.77" x="224.81"/>
   <rect id="use4687" height=".28450" width=".28450" y="379.38" x="223.32"/>
   <rect id="use4689" height=".28450" width=".28450" y="381.44" x="222.72"/>
   <rect id="use4691" height=".28450" width=".28450" y="379.21" x="223.35"/>
   <rect id="use4693" height=".28450" width=".28450" y="372.51" x="227.63"/>
   <rect id="use4695" height=".28450" width=".28450" y="374.69" x="223.78"/>
   <rect id="use4697" height=".28450" width=".28450" y="371.33" x="226.8"/>
   <rect id="use4699" height=".28450" width=".28450" y="369.57" x="225.8"/>
   <rect id="use4701" height=".28450" width=".28450" y="369.07" x="225.08"/>
   <rect id="use4703" height=".28450" width=".28450" y="363.36" x="226.76"/>
   <rect id="use4705" height=".28450" width=".28450" y="365" x="223.75"/>
   <rect id="use4707" height=".28450" width=".28450" y="364.35" x="223.75"/>
   <rect id="use4709" height=".28450" width=".28450" y="362.8" x="228.64"/>
   <rect id="use4711" height=".28450" width=".28450" y="364.93" x="226.45"/>
   <rect id="use4713" height=".28450" width=".28450" y="363.8" x="224.06"/>
   <rect id="use4715" height=".28450" width=".28450" y="359.86" x="224.12"/>
   <rect id="use4717" height=".28450" width=".28450" y="361.16" x="227.56"/>
   <rect id="use4719" height=".28450" width=".28450" y="356.65" x="226.35"/>
   <rect id="use4721" height=".28450" width=".28450" y="356.63" x="226.08"/>
   <rect id="use4723" height=".28450" width=".28450" y="357.9" x="228.35"/>
   <rect id="use4725" height=".28450" width=".28450" y="350.21" x="226.89"/>
   <rect id="use4727" height=".28450" width=".28450" y="353.93" x="227.01"/>
   <rect id="use4729" height=".28450" width=".28450" y="350.14" x="227.89"/>
   <rect id="use4731" height=".28450" width=".28450" y="348.3" x="228.95"/>
   <rect id="use4733" height=".28450" width=".28450" y="352.51" x="230.86"/>
   <rect id="use4735" height=".28450" width=".28450" y="348.1" x="233.19"/>
   <rect id="use4737" height=".28450" width=".28450" y="350.19" x="233.44"/>
   <rect id="use4739" height=".28450" width=".28450" y="347.9" x="229.97"/>
   <rect id="use4741" height=".28450" width=".28450" y="348.78" x="233.38"/>
   <rect id="use4743" height=".28450" width=".28450" y="352.12" x="233.26"/>
   <rect id="use4745" height=".28450" width=".28450" y="349.16" x="232.89"/>
   <rect id="use4747" height=".28450" width=".28450" y="352.11" x="235.54"/>
   <rect id="use4749" height=".28450" width=".28450" y="347.52" x="235.26"/>
   <rect id="use4751" height=".28450" width=".28450" y="350.53" x="235.35"/>
   <rect id="use4753" height=".28450" width=".28450" y="354.1" x="234.96"/>
   <rect id="use4755" height=".28450" width=".28450" y="354.92" x="237.2"/>
   <rect id="use4757" height=".28450" width=".28450" y="357.46" x="236.48"/>
   <rect id="use4759" height=".28450" width=".28450" y="357.7" x="237.05"/>
   <rect id="use4761" height=".28450" width=".28450" y="362.29" x="243.48"/>
   <rect id="use4763" height=".28450" width=".28450" y="362.04" x="241.88"/>
   <rect id="use4765" height=".28450" width=".28450" y="366" x="243.02"/>
   <rect id="use4767" height=".28450" width=".28450" y="365.26" x="240.13"/>
   <rect id="use4769" height=".28450" width=".28450" y="368.57" x="240.08"/>
   <rect id="use4771" height=".28450" width=".28450" y="365.01" x="240.16"/>
   <rect id="use4773" height=".28450" width=".28450" y="369.87" x="241.54"/>
   <rect id="use4775" height=".28450" width=".28450" y="364.94" x="241.72"/>
   <rect id="use4777" height=".28450" width=".28450" y="368.81" x="241.03"/>
   <rect id="use4779" height=".28450" width=".28450" y="369.42" x="243.5"/>
   <rect id="use4781" height=".28450" width=".28450" y="372.86" x="241.28"/>
   <rect id="use4783" height=".28450" width=".28450" y="368.1" x="240.66"/>
   <rect id="use4785" height=".28450" width=".28450" y="374.4" x="240.98"/>
   <rect id="use4787" height=".28450" width=".28450" y="372.33" x="240.38"/>
   <rect id="use4789" height=".28450" width=".28450" y="375.46" x="241.34"/>
   <rect id="use4791" height=".28450" width=".28450" y="377.24" x="243.05"/>
   <rect id="use4793" height=".28450" width=".28450" y="375.87" x="239.49"/>
   <rect id="use4795" height=".28450" width=".28450" y="377.35" x="238.52"/>
   <rect id="use4797" height=".28450" width=".28450" y="380.56" x="241.97"/>
   <rect id="use4799" height=".28450" width=".28450" y="377.25" x="241.58"/>
   <rect id="use4801" height=".28450" width=".28450" y="380.98" x="240.3"/>
   <rect id="use4803" height=".28450" width=".28450" y="379.1" x="241.31"/>
   <rect id="use4805" height=".28450" width=".28450" y="370.71" x="239.12"/>
   <rect id="use4807" height=".28450" width=".28450" y="373.82" x="238.97"/>
   <rect id="use4809" height=".28450" width=".28450" y="370.66" x="240.04"/>
   <rect id="use4811" height=".28450" width=".28450" y="367.02" x="240.83"/>
   <rect id="use4813" height=".28450" width=".28450" y="367.93" x="238.25"/>
   <rect id="use4815" height=".28450" width=".28450" y="370.84" x="241.91"/>
   <rect id="use4817" height=".28450" width=".28450" y="365.8" x="241.26"/>
   <rect id="use4819" height=".28450" width=".28450" y="365.38" x="241.1"/>
   <rect id="use4821" height=".28450" width=".28450" y="364.53" x="237.71"/>
   <rect id="use4823" height=".28450" width=".28450" y="361.89" x="238.88"/>
   <rect id="use4825" height=".28450" width=".28450" y="364.39" x="242.42"/>
   <rect id="use4827" height=".28450" width=".28450" y="357.65" x="240.45"/>
   <rect id="use4829" height=".28450" width=".28450" y="361.62" x="243.94"/>
   <rect id="use4831" height=".28450" width=".28450" y="358.85" x="242.72"/>
   <rect id="use4833" height=".28450" width=".28450" y="357.23" x="243.08"/>
   <rect id="use4835" height=".28450" width=".28450" y="354.6" x="242.91"/>
   <rect id="use4837" height=".28450" width=".28450" y="354.46" x="240.75"/>
   <rect id="use4839" height=".28450" width=".28450" y="356.51" x="241.68"/>
   <rect id="use4841" height=".28450" width=".28450" y="352.76" x="240.22"/>
   <rect id="use4843" height=".28450" width=".28450" y="352.55" x="238.18"/>
   <rect id="use4845" height=".28450" width=".28450" y="353.5" x="241.25"/>
   <rect id="use4847" height=".28450" width=".28450" y="348.25" x="239.82"/>
   <rect id="use4849" height=".28450" width=".28450" y="354.83" x="239.04"/>
   <rect id="use4851" height=".28450" width=".28450" y="349.08" x="237.99"/>
   <rect id="use4853" height=".28450" width=".28450" y="353.21" x="236.69"/>
   <rect id="use4855" height=".28450" width=".28450" y="348.85" x="238.55"/>
   <rect id="use4857" height=".28450" width=".28450" y="349.21" x="237.08"/>
   <rect id="use4859" height=".28450" width=".28450" y="352.55" x="234.91"/>
   <rect id="use4861" height=".28450" width=".28450" y="349.36" x="236.89"/>
   <rect id="use4863" height=".28450" width=".28450" y="348.88" x="238.59"/>
   <rect id="use4865" height=".28450" width=".28450" y="349.43" x="235.59"/>
   <rect id="use4867" height=".28450" width=".28450" y="353.39" x="235.01"/>
   <rect id="use4869" height=".28450" width=".28450" y="355.27" x="233.87"/>
   <rect id="use4871" height=".28450" width=".28450" y="354.63" x="229.94"/>
   <rect id="use4873" height=".28450" width=".28450" y="355.8" x="232.14"/>
   <rect id="use4875" height=".28450" width=".28450" y="358.27" x="232.01"/>
   <rect id="use4877" height=".28450" width=".28450" y="356.3" x="230.37"/>
   <rect id="use4879" height=".28450" width=".28450" y="360.1" x="228.28"/>
   <rect id="use4881" height=".28450" width=".28450" y="360.15" x="231.2"/>
   <rect id="use4883" height=".28450" width=".28450" y="362.02" x="228.98"/>
   <rect id="use4885" height=".28450" width=".28450" y="362.89" x="232.2"/>
   <rect id="use4887" height=".28450" width=".28450" y="362.76" x="230.46"/>
   <rect id="use4889" height=".28450" width=".28450" y="362.37" x="228.13"/>
   <rect id="use4891" height=".28450" width=".28450" y="371.52" x="225.9"/>
   <rect id="use4893" height=".28450" width=".28450" y="371.02" x="230.43"/>
   <rect id="use4895" height=".28450" width=".28450" y="370.44" x="230.97"/>
   <rect id="use4897" height=".28450" width=".28450" y="374.56" x="232.85"/>
   <rect id="use4899" height=".28450" width=".28450" y="370.61" x="229.31"/>
   <rect id="use4901" height=".28450" width=".28450" y="374.57" x="226.7"/>
   <rect id="use4903" height=".28450" width=".28450" y="374.5" x="229.03"/>
   <rect id="use4905" height=".28450" width=".28450" y="379.03" x="230.19"/>
   <rect id="use4907" height=".28450" width=".28450" y="377.09" x="231.7"/>
   <rect id="use4909" height=".28450" width=".28450" y="377.56" x="234.74"/>
   <rect id="use4911" height=".28450" width=".28450" y="381.14" x="229.9"/>
   <rect id="use4913" height=".28450" width=".28450" y="381.28" x="232.76"/>
   <rect id="use4915" height=".28450" width=".28450" y="379.83" x="232.05"/>
   <rect id="use4917" height=".28450" width=".28450" y="380.05" x="233.37"/>
   <rect id="use4919" height=".28450" width=".28450" y="380.13" x="233.94"/>
   <rect id="use4921" height=".28450" width=".28450" y="381.16" x="233.27"/>
   <rect id="use4923" height=".28450" width=".28450" y="379.14" x="235.34"/>
   <rect id="use4925" height=".28450" width=".28450" y="381.16" x="234.88"/>
   <rect id="use4927" height=".28450" width=".28450" y="381.41" x="230.96"/>
   <rect id="use4929" height=".28450" width=".28450" y="380.22" x="232.71"/>
   <rect id="use4931" height=".28450" width=".28450" y="381.14" x="233.73"/>
   <rect id="use4933" height=".28450" width=".28450" y="383.1" x="229.05"/>
   <rect id="use4935" height=".28450" width=".28450" y="379.4" x="232.67"/>
   <rect id="use4937" height=".28450" width=".28450" y="380.16" x="230.75"/>
   <rect id="use4939" height=".28450" width=".28450" y="381.73" x="226.82"/>
   <rect id="use4941" height=".28450" width=".28450" y="377.86" x="230.62"/>
   <rect id="use4943" height=".28450" width=".28450" y="379.36" x="227.33"/>
   <rect id="use4945" height=".28450" width=".28450" y="378.83" x="228.02"/>
   <rect id="use4947" height=".28450" width=".28450" y="378.47" x="226.88"/>
   <rect id="use4949" height=".28450" width=".28450" y="379.49" x="227.8"/>
   <rect id="use4951" height=".28450" width=".28450" y="376.81" x="227.67"/>
   <rect id="use4953" height=".28450" width=".28450" y="376.74" x="228.09"/>
   <rect id="use4955" height=".28450" width=".28450" y="374.25" x="231.61"/>
   <rect id="use4957" height=".28450" width=".28450" y="373.72" x="226.09"/>
   <rect id="use4959" height=".28450" width=".28450" y="373.92" x="224.7"/>
   <rect id="use4961" height=".28450" width=".28450" y="373.55" x="225.9"/>
   <rect id="use4963" height=".28450" width=".28450" y="375.93" x="227.45"/>
   <rect id="use4965" height=".28450" width=".28450" y="374.2" x="228.56"/>
   <rect id="use4967" height=".28450" width=".28450" y="375.84" x="227.76"/>
   <rect id="use4969" height=".28450" width=".28450" y="371.68" x="231"/>
   <rect id="use4971" height=".28450" width=".28450" y="370.5" x="231"/>
   <rect id="use4973" height=".28450" width=".28450" y="368.55" x="227.14"/>
   <rect id="use4975" height=".28450" width=".28450" y="372.48" x="228.2"/>
   <rect id="use4977" height=".28450" width=".28450" y="368.56" x="228.63"/>
   <rect id="use4979" height=".28450" width=".28450" y="366.64" x="229.54"/>
   <rect id="use4981" height=".28450" width=".28450" y="362.49" x="228.23"/>
   <rect id="use4983" height=".28450" width=".28450" y="366.11" x="231.42"/>
   <rect id="use4985" height=".28450" width=".28450" y="365.39" x="230.92"/>
   <rect id="use4987" height=".28450" width=".28450" y="365.97" x="225.21"/>
   <rect id="use4989" height=".28450" width=".28450" y="362.78" x="228.69"/>
   <rect id="use4991" height=".28450" width=".28450" y="365.57" x="227.49"/>
   <rect id="use4993" height=".28450" width=".28450" y="361.25" x="228.04"/>
   <rect id="use4995" height=".28450" width=".28450" y="364.55" x="227.67"/>
   <rect id="use4997" height=".28450" width=".28450" y="363.47" x="227.37"/>
   <rect id="use4999" height=".28450" width=".28450" y="361.46" x="227.7"/>
   <rect id="use5001" height=".28450" width=".28450" y="360.77" x="229.49"/>
   <rect id="use5003" height=".28450" width=".28450" y="359.7" x="228.91"/>
   <rect id="use5005" height=".28450" width=".28450" y="362.6" x="227.5"/>
   <rect id="use5007" height=".28450" width=".28450" y="360.35" x="230.98"/>
   <rect id="use5009" height=".28450" width=".28450" y="360.41" x="232.97"/>
   <rect id="use5011" height=".28450" width=".28450" y="358.2" x="230.7"/>
   <rect id="use5013" height=".28450" width=".28450" y="358.6" x="227.35"/>
   <rect id="use5015" height=".28450" width=".28450" y="349.93" x="231.48"/>
   <rect id="use5017" height=".28450" width=".28450" y="351.66" x="231.05"/>
   <rect id="use5019" height=".28450" width=".28450" y="350.93" x="230.27"/>
   <rect id="use5021" height=".28450" width=".28450" y="349.54" x="230.29"/>
   <rect id="use5023" height=".28450" width=".28450" y="348.74" x="229.96"/>
   <rect id="use5025" height=".28450" width=".28450" y="352.87" x="231.38"/>
   <rect id="use5027" height=".28450" width=".28450" y="350.59" x="228.88"/>
   <rect id="use5029" height=".28450" width=".28450" y="348.05" x="233.36"/>
   <rect id="use5031" height=".28450" width=".28450" y="348.68" x="234.23"/>
   <rect id="use5033" height=".28450" width=".28450" y="346.49" x="232.43"/>
   <rect id="use5035" height=".28450" width=".28450" y="350.16" x="231.82"/>
   <rect id="use5037" height=".28450" width=".28450" y="348.17" x="230.11"/>
   <rect id="use5039" height=".28450" width=".28450" y="348.51" x="228.31"/>
   <rect id="use5041" height=".28450" width=".28450" y="346.16" x="233.13"/>
   <rect id="use5043" height=".28450" width=".28450" y="352.2" x="231.56"/>
   <rect id="use5045" height=".28450" width=".28450" y="349.76" x="235.07"/>
   <rect id="use5047" height=".28450" width=".28450" y="353.3" x="236.24"/>
   <rect id="use5049" height=".28450" width=".28450" y="355.48" x="233.7"/>
   <rect id="use5051" height=".28450" width=".28450" y="351.52" x="236.41"/>
   <rect id="use5053" height=".28450" width=".28450" y="354.52" x="237.02"/>
   <rect id="use5055" height=".28450" width=".28450" y="355.23" x="235.1"/>
   <rect id="use5057" height=".28450" width=".28450" y="360.97" x="238.12"/>
   <rect id="use5059" height=".28450" width=".28450" y="359.64" x="239.62"/>
   <rect id="use5061" height=".28450" width=".28450" y="362.1" x="239.92"/>
   <rect id="use5063" height=".28450" width=".28450" y="363.26" x="238.51"/>
   <rect id="use5065" height=".28450" width=".28450" y="364.66" x="237.75"/>
   <rect id="use5067" height=".28450" width=".28450" y="364.75" x="238.6"/>
   <rect id="use5069" height=".28450" width=".28450" y="365.51" x="235.9"/>
   <rect id="use5071" height=".28450" width=".28450" y="364.85" x="239.52"/>
   <rect id="use5073" height=".28450" width=".28450" y="366.67" x="232.85"/>
   <rect id="use5075" height=".28450" width=".28450" y="368.11" x="237.34"/>
   <rect id="use5077" height=".28450" width=".28450" y="368.33" x="234.95"/>
   <rect id="use5079" height=".28450" width=".28450" y="377.3" x="233.57"/>
   <rect id="use5081" height=".28450" width=".28450" y="375.02" x="231.7"/>
   <rect id="use5083" height=".28450" width=".28450" y="377.93" x="232.42"/>
   <rect id="use5085" height=".28450" width=".28450" y="378.24" x="232.67"/>
   <rect id="use5087" height=".28450" width=".28450" y="379.57" x="231.11"/>
   <rect id="use5089" height=".28450" width=".28450" y="379.61" x="230.04"/>
   <rect id="use5091" height=".28450" width=".28450" y="381.38" x="231.57"/>
   <rect id="use5093" height=".28450" width=".28450" y="381.08" x="232.09"/>
   <rect id="use5095" height=".28450" width=".28450" y="380.96" x="235.56"/>
   <rect id="use5097" height=".28450" width=".28450" y="383.07" x="232.33"/>
   <rect id="use5099" height=".28450" width=".28450" y="380.78" x="235.31"/>
   <rect id="use5101" height=".28450" width=".28450" y="380.41" x="236.48"/>
   <rect id="use5103" height=".28450" width=".28450" y="381.77" x="233.78"/>
   <rect id="use5105" height=".28450" width=".28450" y="381.32" x="233.75"/>
   <rect id="use5107" height=".28450" width=".28450" y="382.99" x="235.68"/>
   <rect id="use5109" height=".28450" width=".28450" y="384.76" x="232.88"/>
   <rect id="use5111" height=".28450" width=".28450" y="381.12" x="234.28"/>
   <rect id="use5113" height=".28450" width=".28450" y="384.56" x="230.41"/>
   <rect id="use5115" height=".28450" width=".28450" y="380.25" x="231.5"/>
   <rect id="use5117" height=".28450" width=".28450" y="382.46" x="233.18"/>
   <rect id="use5119" height=".28450" width=".28450" y="383.19" x="232.44"/>
   <rect id="use5121" height=".28450" width=".28450" y="385.14" x="229.26"/>
   <rect id="use5123" height=".28450" width=".28450" y="386.44" x="232.81"/>
   <rect id="use5125" height=".28450" width=".28450" y="380.66" x="233.48"/>
   <rect id="use5127" height=".28450" width=".28450" y="381.83" x="233.45"/>
   <rect id="use5129" height=".28450" width=".28450" y="380.09" x="228.79"/>
   <rect id="use5131" height=".28450" width=".28450" y="378.4" x="231.66"/>
   <rect id="use5133" height=".28450" width=".28450" y="377.65" x="228.53"/>
   <rect id="use5135" height=".28450" width=".28450" y="374.54" x="227.43"/>
   <rect id="use5137" height=".28450" width=".28450" y="375.94" x="228.93"/>
   <rect id="use5139" height=".28450" width=".28450" y="377.25" x="228.06"/>
   <rect id="use5141" height=".28450" width=".28450" y="368.21" x="228.67"/>
   <rect id="use5143" height=".28450" width=".28450" y="367.26" x="227.06"/>
   <rect id="use5145" height=".28450" width=".28450" y="369.26" x="226.51"/>
   <rect id="use5147" height=".28450" width=".28450" y="366.06" x="228.53"/>
   <rect id="use5149" height=".28450" width=".28450" y="367.49" x="228.96"/>
   <rect id="use5151" height=".28450" width=".28450" y="364.97" x="228.54"/>
   <rect id="use5153" height=".28450" width=".28450" y="363.01" x="225.72"/>
   <rect id="use5155" height=".28450" width=".28450" y="359.78" x="228.05"/>
   <rect id="use5157" height=".28450" width=".28450" y="361.95" x="227"/>
   <rect id="use5159" height=".28450" width=".28450" y="360.9" x="225.02"/>
   <rect id="use5161" height=".28450" width=".28450" y="354.51" x="225.37"/>
   <rect id="use5163" height=".28450" width=".28450" y="351.68" x="227.76"/>
   <rect id="use5165" height=".28450" width=".28450" y="356.25" x="225.82"/>
   <rect id="use5167" height=".28450" width=".28450" y="355.58" x="226.09"/>
   <rect id="use5169" height=".28450" width=".28450" y="350.29" x="226.15"/>
   <rect id="use5171" height=".28450" width=".28450" y="351.28" x="225.73"/>
   <rect id="use5173" height=".28450" width=".28450" y="350.05" x="228.73"/>
   <rect id="use5175" height=".28450" width=".28450" y="352.07" x="227.3"/>
   <rect id="use5177" height=".28450" width=".28450" y="350.61" x="227.87"/>
   <rect id="use5179" height=".28450" width=".28450" y="351.99" x="229.88"/>
   <rect id="use5181" height=".28450" width=".28450" y="354.55" x="230.45"/>
   <rect id="use5183" height=".28450" width=".28450" y="352.72" x="229.08"/>
   <rect id="use5185" height=".28450" width=".28450" y="351.09" x="226.29"/>
   <rect id="use5187" height=".28450" width=".28450" y="351.02" x="226.74"/>
   <rect id="use5189" height=".28450" width=".28450" y="351.15" x="230.65"/>
   <rect id="use5191" height=".28450" width=".28450" y="349" x="234.51"/>
   <rect id="use5193" height=".28450" width=".28450" y="347.2" x="232.77"/>
   <rect id="use5195" height=".28450" width=".28450" y="345.71" x="229.58"/>
   <rect id="use5197" height=".28450" width=".28450" y="347.14" x="230.11"/>
   <rect id="use5199" height=".28450" width=".28450" y="344.63" x="235.94"/>
   <rect id="use5201" height=".28450" width=".28450" y="345.65" x="236.1"/>
   <rect id="use5203" height=".28450" width=".28450" y="346.17" x="236.73"/>
   <rect id="use5205" height=".28450" width=".28450" y="348.95" x="234.46"/>
   <rect id="use5207" height=".28450" width=".28450" y="347.43" x="237.31"/>
   <rect id="use5209" height=".28450" width=".28450" y="350.41" x="239.25"/>
   <rect id="use5211" height=".28450" width=".28450" y="349.2" x="238.32"/>
   <rect id="use5213" height=".28450" width=".28450" y="352.52" x="242.62"/>
   <rect id="use5215" height=".28450" width=".28450" y="353.59" x="242.8"/>
   <rect id="use5217" height=".28450" width=".28450" y="352.8" x="240.41"/>
   <rect id="use5219" height=".28450" width=".28450" y="359.48" x="239.6"/>
   <rect id="use5221" height=".28450" width=".28450" y="357.44" x="245.04"/>
   <rect id="use5223" height=".28450" width=".28450" y="358.7" x="242.39"/>
   <rect id="use5225" height=".28450" width=".28450" y="361.64" x="240.74"/>
   <rect id="use5227" height=".28450" width=".28450" y="360.32" x="244.3"/>
   <rect id="use5229" height=".28450" width=".28450" y="360.82" x="242.37"/>
   <rect id="use5231" height=".28450" width=".28450" y="365.15" x="244.85"/>
   <rect id="use5233" height=".28450" width=".28450" y="364.53" x="240.92"/>
   <rect id="use5235" height=".28450" width=".28450" y="365.48" x="241.87"/>
   <rect id="use5237" height=".28450" width=".28450" y="368.67" x="244.01"/>
   <rect id="use5239" height=".28450" width=".28450" y="368.13" x="243.06"/>
   <rect id="use5241" height=".28450" width=".28450" y="365.78" x="244.14"/>
   <rect id="use5243" height=".28450" width=".28450" y="367.17" x="240.45"/>
   <rect id="use5245" height=".28450" width=".28450" y="367.42" x="242.14"/>
   <rect id="use5247" height=".28450" width=".28450" y="372.75" x="244.23"/>
   <rect id="use5249" height=".28450" width=".28450" y="369.52" x="242.4"/>
   <rect id="use5251" height=".28450" width=".28450" y="370.3" x="245.26"/>
   <rect id="use5253" height=".28450" width=".28450" y="373.85" x="245.29"/>
   <rect id="use5255" height=".28450" width=".28450" y="377.28" x="238.38"/>
   <rect id="use5257" height=".28450" width=".28450" y="377.23" x="240.11"/>
   <rect id="use5259" height=".28450" width=".28450" y="379.6" x="239.41"/>
   <rect id="use5261" height=".28450" width=".28450" y="367.56" x="232.4"/>
   <rect id="use5263" height=".28450" width=".28450" y="367.9" x="234.76"/>
   <rect id="use5265" height=".28450" width=".28450" y="367.44" x="232.88"/>
   <rect id="use5267" height=".28450" width=".28450" y="366.06" x="235.28"/>
   <rect id="use5269" height=".28450" width=".28450" y="363.31" x="232.7"/>
   <rect id="use5271" height=".28450" width=".28450" y="365.13" x="238.26"/>
   <rect id="use5273" height=".28450" width=".28450" y="363.48" x="238.38"/>
   <rect id="use5275" height=".28450" width=".28450" y="360.67" x="239.68"/>
   <rect id="use5277" height=".28450" width=".28450" y="357.44" x="238.85"/>
   <rect id="use5279" height=".28450" width=".28450" y="359.72" x="239.07"/>
   <rect id="use5281" height=".28450" width=".28450" y="359.44" x="241.31"/>
   <rect id="use5283" height=".28450" width=".28450" y="358.3" x="234.27"/>
   <rect id="use5285" height=".28450" width=".28450" y="358.95" x="238.27"/>
   <rect id="use5287" height=".28450" width=".28450" y="356.63" x="237.34"/>
   <rect id="use5289" height=".28450" width=".28450" y="359.77" x="238.62"/>
   <rect id="use5291" height=".28450" width=".28450" y="356.6" x="233.88"/>
   <rect id="use5293" height=".28450" width=".28450" y="359.41" x="235.87"/>
   <rect id="use5295" height=".28450" width=".28450" y="359.43" x="236.24"/>
   <rect id="use5297" height=".28450" width=".28450" y="361.01" x="236.18"/>
   <rect id="use5299" height=".28450" width=".28450" y="356.85" x="236.22"/>
   <rect id="use5301" height=".28450" width=".28450" y="360.2" x="235.84"/>
   <rect id="use5303" height=".28450" width=".28450" y="363.01" x="230.03"/>
   <rect id="use5305" height=".28450" width=".28450" y="364.38" x="231.81"/>
   <rect id="use5307" height=".28450" width=".28450" y="362.79" x="234.51"/>
   <rect id="use5309" height=".28450" width=".28450" y="364.41" x="234.2"/>
   <rect id="use5311" height=".28450" width=".28450" y="366.92" x="230.99"/>
   <rect id="use5313" height=".28450" width=".28450" y="366.93" x="232.46"/>
   <rect id="use5315" height=".28450" width=".28450" y="365.01" x="230.06"/>
   <rect id="use5317" height=".28450" width=".28450" y="367.47" x="231.97"/>
   <rect id="use5319" height=".28450" width=".28450" y="368.88" x="231.35"/>
   <rect id="use5321" height=".28450" width=".28450" y="372.01" x="233.55"/>
   <rect id="use5323" height=".28450" width=".28450" y="378.36" x="233.38"/>
   <rect id="use5325" height=".28450" width=".28450" y="377.39" x="234.76"/>
   <rect id="use5327" height=".28450" width=".28450" y="375.64" x="234.78"/>
   <rect id="use5329" height=".28450" width=".28450" y="373.46" x="232.94"/>
   <rect id="use5331" height=".28450" width=".28450" y="378.77" x="232.97"/>
   <rect id="use5333" height=".28450" width=".28450" y="383.51" x="237.72"/>
   <rect id="use5335" height=".28450" width=".28450" y="384.63" x="235.79"/>
   <rect id="use5337" height=".28450" width=".28450" y="379.76" x="235.01"/>
   <rect id="use5339" height=".28450" width=".28450" y="383.42" x="236.77"/>
   <rect id="use5341" height=".28450" width=".28450" y="382" x="239.1"/>
   <rect id="use5343" height=".28450" width=".28450" y="381.71" x="235.37"/>
   <rect id="use5345" height=".28450" width=".28450" y="383.87" x="228.66"/>
   <rect id="use5347" height=".28450" width=".28450" y="369.34" x="227.11"/>
   <rect id="use5349" height=".28450" width=".28450" y="366.59" x="227.36"/>
   <rect id="use5351" height=".28450" width=".28450" y="346.33" x="228.74"/>
   <rect id="use5353" height=".28450" width=".28450" y="345.18" x="228.13"/>
   <rect id="use5355" height=".28450" width=".28450" y="345.61" x="228.43"/>
   <rect id="use5357" height=".28450" width=".28450" y="345.96" x="232.5"/>
   <rect id="use5359" height=".28450" width=".28450" y="347.42" x="230.43"/>
   <rect id="use5361" height=".28450" width=".28450" y="346.47" x="230.61"/>
   <rect id="use5363" height=".28450" width=".28450" y="343.68" x="233.95"/>
   <rect id="use5365" height=".28450" width=".28450" y="344.02" x="233.19"/>
   <rect id="use5367" height=".28450" width=".28450" y="347.24" x="233.17"/>
   <rect id="use5369" height=".28450" width=".28450" y="345.89" x="229.61"/>
  </g>
  <path id="path8848" marker-end="url(#TriangleOutL)" d="m308.27 366.39c-19.925 0-22.843-2.9721-38.467-18.596" stroke="#000" stroke-width="1px" fill="none"/>
  <text id="text9608" style="word-spacing:0px;letter-spacing:0px" xml:space="preserve" font-size="16px" line-height="125%" y="370.36221" x="312" font-family="&apos;STIX Two Text&apos;" fill="#000000"><tspan id="tspan9610" x="312" y="370.36221">Inicialmente tumbado por si hay</tspan><tspan id="tspan9612" x="312" y="390.36221">proyecciones no perder ppt. Después</tspan><tspan id="tspan9614" x="312" y="410.36221">ya se puede dejar verticalmente.</tspan></text>
 </g>
</svg>
