<?xml version="1.0" encoding="UTF-8" standalone="no"?>
<!-- Created with Inkscape (http://www.inkscape.org/) -->
<svg id="svg2" xmlns:rdf="http://www.w3.org/1999/02/22-rdf-syntax-ns#" xmlns="http://www.w3.org/2000/svg" height="150" width="255.02" version="1.1" xmlns:cc="http://creativecommons.org/ns#" xmlns:dc="http://purl.org/dc/elements/1.1/" viewBox="0 0 255.02004 150">
 <style type="text/css">
	 @import url('../estilo.css');
 </style>
 <defs id="defs4">
  <marker id="Arrow2Mend" refY="0" refX="0" orient="auto" overflow="visible">
   <path id="path4190" stroke-linejoin="round" d="m8.7186 4.0337-10.926-4.0177 10.926-4.0177c-1.7455 2.3721-1.7354 5.6175-6e-7 8.0354z" fill-rule="evenodd" transform="scale(-.6)" stroke="#000" stroke-width=".625"/>
  </marker>
  <marker id="Arrow1Mend" refY="0" refX="0" orient="auto" overflow="visible">
   <path id="path4236" d="m0 0 5-5-17.5 5 17.5 5-5-5z" fill-rule="evenodd" transform="matrix(-.4 0 0 -.4 -4 0)" stroke="#000" stroke-width="1pt"/>
  </marker>
 </defs>
 <metadata id="metadata7">
  <rdf:RDF>
   <cc:Work rdf:about="">
    <dc:format>image/svg+xml</dc:format>
    <dc:type rdf:resource="http://purl.org/dc/dcmitype/StillImage"/>
    <dc:title/>
   </cc:Work>
  </rdf:RDF>
 </metadata>
 <g id="layer1" transform="translate(-129 -262.36)">
  <g fill="none">
   <path id="path4148" stroke-linejoin="round" d="m135 344.83h17.5l2.5 15 5-30 5 30 5-30 5 30 5-30 5 30 5-30 5 30 5-30 5 30 5-30 5 30 5-30 5 30 5-30 5 30 5-30 5 30 5-30 5 30 5-30 5 30 5-30 5 30 5-30 5 30 2.5-15h17.5" stroke="#ccc" stroke-width="1px"/>
   <path id="path4219" d="m135 407.36v-140" stroke="#000" stroke-width="2"/>
   <path id="path4221" marker-end="url(#Arrow1Mend)" d="m135 362.36h240" stroke="#000" stroke-width="2"/>
  </g>
  <g>
   <rect id="rect4155" stroke-linejoin="round" fill-opacity="0" rx="2" ry="2" height="29" width="31" stroke="#808000" y="330.83" x="305" stroke-width="3"/>
   <path id="path4157" marker-end="url(#Arrow2Mend)" d="m336.97 324.36h-31.418" stroke="#000" stroke-width="1px" fill="none"/>
   <path id="path4421" d="m265 362.36v5" stroke="#000" stroke-width="2" fill="none"/>
  </g>
  <g font-size="16px" font-family="&apos;STIX Two Text&apos;" fill="#000000">
   <text id="text4423" style="word-spacing:0px;letter-spacing:0px" xml:space="preserve" line-height="125%" y="349.08075" x="313.72397"><tspan id="tspan4425" font-size="16px" font-style="italic" line-height="125%" y="349.08075" x="313.72397" font-family="&apos;STIX Two Text&apos;">m</tspan></text>
   <text id="text4427" style="word-spacing:0px;letter-spacing:0px" xml:space="preserve" line-height="125%" y="318.90674" x="315.53198" font-style="italic"><tspan id="tspan4429" x="315.53198" y="318.90674">F</tspan></text>
   <text id="text4431" style="word-spacing:0px;letter-spacing:0px" xml:space="preserve" line-height="125%" y="380.30753" x="261.04001"><tspan id="tspan4433" x="261.04001" y="380.30753">0</tspan></text>
   <text id="text4435" style="word-spacing:0px;letter-spacing:0px" xml:space="preserve" line-height="125%" y="380.30753" x="362.48868" font-style="italic"><tspan id="tspan4437" x="362.48868" y="380.30753">x</tspan></text>
  </g>
 </g>
</svg>
