<?xml version="1.0" encoding="UTF-8" standalone="no"?>
<svg id="svg5543" xmlns:rdf="http://www.w3.org/1999/02/22-rdf-syntax-ns#" xmlns="http://www.w3.org/2000/svg" xmlns:ns0="http://www.iki.fi/pav/software/textext/" height="200" width="400" version="1.1" xmlns:cc="http://creativecommons.org/ns#" xmlns:xlink="http://www.w3.org/1999/xlink" viewBox="0 0 400 200" xmlns:dc="http://purl.org/dc/elements/1.1/">
 <style type="text/css">
	@import url('../estilo.css');
 </style>
 <metadata id="metadata5688">
  <rdf:RDF>
   <cc:Work rdf:about="">
    <dc:format>image/svg+xml</dc:format>
    <dc:type rdf:resource="http://purl.org/dc/dcmitype/StillImage"/>
    <dc:title>Gnuplot</dc:title>
   </cc:Work>
  </rdf:RDF>
 </metadata>
 <title id="title5545">Gnuplot</title>
 <desc id="desc5547">Produced by GNUPLOT 5.0 patchlevel 3</desc>
 <g id="gnuplot_canvas">
  <g fill="none">
   <rect id="rect5550" height="200" width="400" y="0" x="0"/>
   <g stroke="currentColor">
    <g>
     <g id="g5582" color="black">
      <path id="path5584" stroke="#000" d="m81.1 166.7"/>
      <g id="g5586" font-size="16" transform="translate(81.1,181.7)" text-anchor="middle" stroke="none" font-family="Stix Two Text" fill="#000">
       <text id="text5588">
        <tspan id="tspan5590" font-family="Stix Two Text" font-style="italic">−A</tspan>
       </text>
      </g>
     </g>
     <g id="g5592" color="black">
      <path id="path5594" stroke="#000" d="m314.6 166.7"/>
      <g id="g5596" font-size="16" transform="translate(314.6,181.7)" text-anchor="middle" stroke="none" font-family="Stix Two Text" fill="#000">
       <text id="text5598">
        <tspan id="tspan5600" font-family="Stix Two Text" font-style="italic">A</tspan>
       </text>
      </g>
     </g>
     <g id="g5602" color="black">
      <g id="g5604" font-size="16" transform="translate(202 181.7)" stroke="none" font-family="Stix Two Text" fill="#000">
       <text id="text5606">
        <tspan id="tspan5608" font-family="Stix Two Text" font-style="italic">O</tspan>
       </text>
      </g>
     </g>
    </g>
    <g stroke-width=".5">
     <g id="g5612" color="black">
      <g id="g5614" stroke="none" shape-rendering="crispEdges">
       <polygon id="polygon5616" points="356.2 166.7 354.7 164.1 364.6 166.7 354.7 169.3" fill="#000"/>
      </g>
      <path id="path5618" stroke="#000" d="m356.2 166.7l-1.5-2.6 9.9 2.6-9.9 2.6 1.5-2.6m-325.1 0h325.1"/>
     </g>
     <g id="g5620" color="black">
      <g id="g5622" stroke="none" shape-rendering="crispEdges">
       <polygon id="polygon5624" points="197.9 25.1 195.3 26.6 197.9 16.7 200.5 26.6" fill="#000"/>
      </g>
      <path id="path5626" stroke="#000" d="m197.9 25.1l-2.6 1.5 2.6-9.9 2.6 9.9-2.6-1.5m0 158.3v-158.3"/>
     </g>
     <g id="g5628" color="black">
      <path id="path5630" stroke="#000" stroke-dasharray="1.2,2.0" d="m314.6 166.7v-102.1"/>
     </g>
     <g id="g5632" color="black">
      <path id="path5634" stroke="#000" stroke-dasharray="1.2,2.0" d="m81.1 166.7v-102.1"/>
     </g>
    </g>
    <g id="g5638" color="black">
     <g id="g5640" stroke="none" fill="#009e73" shape-rendering="crispEdges">
      <polygon id="polygon5642" points="275.7 131 272.2 131 275.7 121.4 279.2 131"/>
      <polygon id="polygon5644" points="275.7 157.1 279.2 157.1 275.7 166.7 272.2 157.1"/>
     </g>
     <path id="path5646" stroke="#009e73" d="m275.7 157.1v-26.1"/>
    </g>
    <g id="g5648" color="black">
     <g id="g5650" stroke="none" fill="#9400d3" shape-rendering="crispEdges">
      <polygon id="polygon5652" points="275.7 74.2 272.2 74.2 275.7 64.6 279.2 74.2"/>
      <polygon id="polygon5654" points="275.7 111.8 279.2 111.8 275.7 121.4 272.2 111.8"/>
     </g>
     <path id="path5656" stroke="#9400d3" d="m275.7 111.8v-37.6"/>
    </g>
   </g>
  </g>
  <g id="gnuplot_plot_1">
   <title id="title5661"/>
   <g id="g5665" color="black" stroke="currentColor" stroke-width="1.5" fill="none">
    <path id="path5667" stroke="#e51e10" d="m64.5 33.4l2.6 5.3 2.7 5.2 2.7 5.1 2.7 5.1 2.7 4.9 2.7 4.7 2.7 4.7 2.7 4.6 2.7 4.5 2.7 4.3 2.7 4.3 2.7 4.1 2.7 4 2.7 3.9 2.7 3.8 2.7 3.7 2.7 3.6 2.7 3.5 2.7 3.4 2.6 3.3 2.7 3.1 2.7 3.1 2.7 2.9 2.7 2.8 2.7 2.8 2.7 2.6 2.7 2.5 2.7 2.4 2.7 2.3 2.7 2.1 2.7 2.1 2.7 2 2.7 1.8 2.7 1.8 2.7 1.6 2.7 1.5 2.7 1.4 2.7 1.3 2.7 1.2 2.6 1.1 2.7 1 2.7 0.9 2.7 0.7 2.7 0.7 2.7 0.5 2.7 0.5 2.7 0.3 2.7 0.2 2.7 0.1h2.7l2.7-0.1 2.7-0.2 2.7-0.3 2.7-0.5 2.7-0.5 2.7-0.7 2.7-0.7 2.7-0.9 2.7-1 2.6-1.1 2.7-1.2 2.7-1.3 2.7-1.4 2.7-1.5 2.7-1.6 2.7-1.8 2.7-1.8 2.7-2 2.7-2.1 2.7-2.1 2.7-2.3 2.7-2.4 2.7-2.5 2.7-2.6 2.7-2.8 2.7-2.8 2.7-2.9 2.7-3.1 2.7-3.1 2.6-3.3 2.7-3.4 2.7-3.5 2.7-3.6 2.7-3.7 2.7-3.8 2.7-3.9 2.7-4 2.7-4.1 2.7-4.3 2.7-4.3 2.7-4.5 2.7-4.6 2.7-4.7 2.7-4.7 2.7-4.9 2.7-5.1 2.7-5.1 2.7-5.2 2.7-5.3"/>
   </g>
  </g>
  <g id="gnuplot_plot_2">
   <title id="title5670"/>
   <g id="g5672" color="black" stroke="currentColor" stroke-width="1.5" fill="none">
    <path id="path5674" stroke="#0072b2" d="m31.1 64.6h3.4 3.3 3.4 3.4 3.3 3.4 3.4 3.3 3.4 3.4 3.4 3.3 3.4 3.4 3.3 3.4 3.4 3.3 3.4 3.4 3.3 3.4 3.4 3.3 3.4 3.4 3.4 3.3 3.4 3.4 3.3 3.4 3.4 3.3 3.4 3.4 3.3 3.4 3.4 3.3 3.4 3.4 3.4 3.3 3.4 3.4 3.3 3.4 3.4 3.3 3.4 3.4 3.3 3.4 3.4 3.3 3.4 3.4 3.4 3.3 3.4 3.4 3.3 3.4 3.4 3.3 3.4 3.4 3.3 3.4 3.4 3.3 3.4 3.4 3.4 3.3 3.4 3.4 3.3 3.4 3.4 3.3 3.4 3.4 3.3 3.4 3.4 3.3 3.4 3.4 3.4 3.3 3.4 3.4 3.3 3.4 3.4 3.3 3.4"/>
   </g>
  </g>
 </g>
 <g fill-rule="evenodd" stroke="#000" stroke-miterlimit="10.433">
  <g id="content" xml:space="preserve" ns0:pdfconverter="pstoedit" transform="matrix(1.75 0 0 -1.75 -106.79 1263.3)" ns0:text="$\n\\boldsymbol{\\dfrac{1}{2} k x^2}\n$" ns0:version="0.7.2" ns0:inkscapeversion="0.91" ns0:preamble="/usr/share/inkscape/extensions/default_packages.tex" ns0:scale="1.4" ns0:texconverter="pdflatex"><path id="path4624" stroke-width="0" d="m153.07 717.1-2.51-1.08v-0.26c0.09 0.03 0.17 0.06 0.2 0.08 0.27 0.1 0.51 0.17 0.64 0.17 0.25 0 0.36-0.22 0.36-0.69v-3.84c0-0.81-0.2-0.98-1.18-0.99v-0.24h3.73v0.24c-0.9 0.02-1.07 0.17-1.07 0.94v5.67z"/><line id="line4626" stroke-width="0.956" y2="706.07" y1="706.07" x2="154.89" x1="149.91"/><g stroke-width="0"><path id="path4628" d="m154.67 697.99h-0.24c-0.29-0.72-0.41-0.78-1.42-0.78h-1.51l1.62 1.54c0.78 0.74 1.13 1.41 1.13 2.17 0 1.06-0.76 1.82-1.84 1.82-0.5 0-0.98-0.2-1.32-0.56-0.39-0.39-0.59-0.72-0.87-1.47h0.28c0.31 0.62 0.68 0.9 1.21 0.9 0.44 0 0.77-0.19 0.99-0.55 0.12-0.21 0.2-0.49 0.2-0.72 0-0.44-0.19-0.99-0.51-1.47-0.51-0.78-0.86-1.2-2.31-2.75v-0.23h4.14z"/><path id="path4630" d="m158.32 705.38 0.39 0.27c0.3-1.69 0.6-2.22 1.22-2.22 0.5 0 0.86 0.33 1.36 1.23l-0.22 0.11c-0.27-0.47-0.43-0.63-0.62-0.63-0.28 0-0.4 0.34-0.78 2.29l0.63 0.54c0.68 0.58 0.89 0.7 1.34 0.76v0.25h-2.06v-0.25c0.39-0.02 0.51-0.07 0.51-0.23 0-0.26-0.38-0.62-1.63-1.61l1.22 4.58c-0.77-0.14-1.28-0.22-2.07-0.3v-0.27c0.08 0.01 0.17 0.01 0.21 0.01 0.28 0 0.42-0.11 0.42-0.33 0-0.1-0.03-0.23-0.08-0.42l-1.56-5.65h1.22z"/><path id="path4632" d="m166.3 704.73-0.02-0.02-0.02-0.02-0.01-0.02-0.02-0.03-0.02-0.02-0.01-0.02-0.02-0.02-0.01-0.02-0.03-0.03-0.03-0.04-0.03-0.03-0.02-0.03-0.03-0.03-0.02-0.02-0.02-0.03-0.02-0.02-0.03-0.02-0.02-0.02-0.01-0.02-0.02-0.02-0.02-0.01-0.02-0.02-0.01-0.01-0.02-0.01-0.02-0.01-0.01-0.01-0.02-0.01h-0.01l-0.02-0.01h-0.01l-0.02-0.01h-0.01-0.02-0.01-0.02-0.02c-0.19 0-0.29 0.14-0.37 0.52l-0.31 1.56c0.03 0.04 0.04 0.05 0.09 0.13 0.34 0.57 0.59 0.81 0.82 0.81 0.06 0 0.13-0.03 0.25-0.09 0.14-0.09 0.21-0.11 0.32-0.11 0.3 0 0.56 0.24 0.56 0.52 0 0.33-0.28 0.62-0.58 0.62-0.47 0-0.78-0.27-1.57-1.38-0.18 0.85-0.26 1.1-0.45 1.38l-1.67-0.24v-0.27c0.21 0.02 0.26 0.02 0.35 0.02 0.32 0 0.46-0.18 0.56-0.66l0.3-1.54-0.44-0.7c-0.2-0.32-0.31-0.4-0.48-0.4-0.06 0-0.11 0.01-0.21 0.07-0.16 0.09-0.28 0.13-0.4 0.13-0.3 0-0.54-0.24-0.54-0.55 0-0.35 0.26-0.59 0.63-0.59 0.5 0 0.73 0.2 1.31 1.15l0.24 0.39c0.15-0.75 0.23-1 0.45-1.28 0.12-0.16 0.32-0.26 0.52-0.26 0.47 0 0.89 0.34 1.5 1.21z"/><path id="path4634" d="m170.63 708.59h-0.17c-0.2-0.5-0.28-0.54-1-0.54h-1.05l1.13 1.07c0.55 0.53 0.8 0.99 0.8 1.52 0 0.75-0.54 1.28-1.3 1.28-0.34 0-0.68-0.14-0.92-0.39-0.27-0.27-0.41-0.51-0.61-1.03h0.2c0.21 0.43 0.47 0.62 0.85 0.62 0.3 0 0.53-0.13 0.69-0.38 0.08-0.15 0.14-0.34 0.14-0.5 0-0.31-0.13-0.69-0.36-1.03-0.35-0.55-0.6-0.84-1.62-1.93v-0.16h2.91z"/></g></g>
  <g id="g4816" xml:space="preserve" ns0:pdfconverter="pstoedit" transform="matrix(1.75 0 0 -1.75 92.428 1418.9)" ns0:text="$\n\\boldsymbol{x}\n$" ns0:version="0.7.2" ns0:inkscapeversion="0.91" ns0:preamble="/usr/share/inkscape/extensions/default_packages.tex" ns0:scale="1.4" ns0:texconverter="pdflatex"><path id="path4818" d="m153.2 708.35-0.02-0.03-0.02-0.02-0.01-0.02-0.02-0.02-0.02-0.02-0.01-0.02-0.02-0.02-0.02-0.02-0.02-0.04-0.03-0.03-0.03-0.03-0.03-0.03-0.02-0.03-0.02-0.03-0.03-0.02-0.02-0.03-0.02-0.02-0.02-0.02-0.02-0.02-0.01-0.01-0.02-0.02-0.02-0.01-0.02-0.01-0.01-0.02-0.02-0.01h-0.01l-0.02-0.01-0.01-0.01h-0.02l-0.02-0.01h-0.01l-0.02-0.01h-0.01-0.02-0.01-0.02c-0.19 0-0.29 0.15-0.37 0.53l-0.32 1.55c0.03 0.04 0.04 0.05 0.09 0.13 0.35 0.58 0.6 0.82 0.83 0.82 0.06 0 0.13-0.03 0.25-0.09 0.14-0.09 0.21-0.11 0.32-0.11 0.3 0 0.55 0.24 0.55 0.52 0 0.33-0.27 0.61-0.57 0.61-0.47 0-0.78-0.26-1.58-1.37-0.18 0.85-0.26 1.1-0.44 1.37l-1.67-0.23v-0.27c0.21 0.02 0.26 0.02 0.35 0.02 0.32 0 0.46-0.18 0.56-0.67l0.3-1.54-0.44-0.69c-0.2-0.32-0.31-0.41-0.48-0.41-0.06 0-0.11 0.02-0.21 0.08-0.16 0.09-0.28 0.13-0.4 0.13-0.31 0-0.55-0.25-0.55-0.56 0-0.35 0.26-0.59 0.64-0.59 0.5 0 0.73 0.2 1.31 1.16l0.24 0.39c0.15-0.75 0.22-1.01 0.44-1.29 0.12-0.16 0.32-0.26 0.52-0.26 0.48 0 0.9 0.34 1.51 1.22z" stroke-width="0"/></g>
  <g id="g5127" xml:space="preserve" stroke-width="0" ns0:pdfconverter="pstoedit" transform="matrix(1.75 0 0 -1.75 -7.363 1334.8)" ns0:text="$E_c$" ns0:version="0.7.2" ns0:inkscapeversion="0.91" ns0:preamble="/usr/share/inkscape/extensions/default_packages.tex" ns0:scale="1.4" ns0:texconverter="pdflatex"><path id="path5129" d="m155.27 713.63h-4.95v-0.16c0.62-0.06 0.77-0.14 0.77-0.41 0-0.11-0.06-0.46-0.11-0.64l-1.22-4.4c-0.17-0.57-0.25-0.64-0.81-0.74v-0.16h5.05l0.62 1.62-0.16 0.08c-0.47-0.64-0.73-0.9-1.16-1.1-0.37-0.17-1.04-0.27-1.79-0.27-0.56 0-0.8 0.1-0.8 0.34 0 0.11 0.11 0.58 0.36 1.45 0.13 0.44 0.22 0.77 0.32 1.15 0.35-0.02 0.66-0.03 0.77-0.03 0.39 0.01 0.67-0.05 0.78-0.15 0.05-0.05 0.07-0.14 0.07-0.31s-0.02-0.3-0.07-0.52l0.2-0.05 0.68 2.32-0.18 0.03c-0.38-0.84-0.47-0.9-1.38-0.94-0.11 0-0.43-0.01-0.78-0.02l0.66 2.32c0.06 0.22 0.16 0.26 0.72 0.26 1.57 0 1.92-0.13 1.92-0.73 0-0.13-0.01-0.28-0.02-0.45l0.2-0.02z"/><path id="path5131" d="m157.74 706.37-0.04-0.04-0.03-0.04-0.04-0.03-0.03-0.03-0.04-0.04-0.03-0.03-0.03-0.02-0.03-0.03-0.04-0.03-0.03-0.02-0.03-0.03-0.03-0.02-0.03-0.02-0.03-0.02-0.03-0.02-0.03-0.02-0.03-0.01-0.03-0.02-0.03-0.01-0.03-0.02-0.03-0.01-0.03-0.01-0.03-0.01-0.03-0.01h-0.03l-0.03-0.01h-0.03l-0.03-0.01h-0.03-0.03l-0.03-0.01h-0.03c-0.4 0-0.64 0.3-0.64 0.8 0 0.59 0.25 1.21 0.64 1.62 0.2 0.21 0.48 0.34 0.75 0.34 0.16 0 0.27-0.06 0.27-0.14 0-0.03-0.02-0.07-0.05-0.13-0.04-0.09-0.06-0.14-0.06-0.2 0-0.17 0.11-0.27 0.27-0.27 0.19 0 0.34 0.14 0.34 0.32 0 0.32-0.31 0.57-0.73 0.57-1.05 0-2.03-1.02-2.03-2.11 0-0.66 0.38-1.05 1.03-1.05 0.51 0 0.9 0.22 1.32 0.75z"/></g>
  <g id="g5321" xml:space="preserve" stroke-width="0" ns0:pdfconverter="pstoedit" transform="matrix(1.75 0 0 -1.75 20.826 1384.7)" ns0:text="$E_p$" ns0:version="0.7.2" ns0:inkscapeversion="0.91" ns0:preamble="/usr/share/inkscape/extensions/default_packages.tex" ns0:scale="1.4" ns0:texconverter="pdflatex"><path id="path5323" d="m155.27 713.63h-4.95v-0.16c0.62-0.06 0.77-0.14 0.77-0.41 0-0.11-0.06-0.46-0.11-0.64l-1.22-4.4c-0.17-0.57-0.25-0.64-0.81-0.74v-0.16h5.05l0.62 1.62-0.16 0.08c-0.47-0.64-0.73-0.9-1.16-1.1-0.37-0.17-1.04-0.27-1.79-0.27-0.56 0-0.8 0.1-0.8 0.34 0 0.11 0.11 0.58 0.36 1.45 0.13 0.44 0.22 0.77 0.32 1.15 0.35-0.02 0.66-0.03 0.77-0.03 0.39 0.01 0.67-0.05 0.78-0.15 0.05-0.05 0.07-0.14 0.07-0.31s-0.02-0.3-0.07-0.52l0.2-0.05 0.68 2.32-0.18 0.03c-0.38-0.84-0.47-0.9-1.38-0.94-0.11 0-0.43-0.01-0.78-0.02l0.66 2.32c0.06 0.22 0.16 0.26 0.72 0.26 1.57 0 1.92-0.13 1.92-0.73 0-0.13-0.01-0.28-0.02-0.45l0.2-0.02z"/><path id="path5325" d="m156.21 708.45h0.16 0.02c0.09 0.05 0.27-0.09 0.27-0.19 0-0.06-0.25-1.05-0.49-1.97-0.19-0.7-0.36-1.36-0.41-1.57-0.07-0.32-0.16-0.4-0.46-0.41v-0.11h1.43v0.1c-0.33 0-0.45 0.07-0.45 0.21 0 0.1 0.12 0.65 0.26 1.16 0.17-0.09 0.3-0.12 0.46-0.12l-0.03 0.14c-0.2 0-0.33 0.1-0.33 0.25 0 0.24 0.25 1.15 0.45 1.67 0.19 0.48 0.59 0.82 0.94 0.8 0.3-0.02 0.43-0.2 0.43-0.6 0-0.46-0.2-1.06-0.5-1.5-0.29-0.41-0.63-0.62-0.99-0.62l0.03-0.14c1.02 0 2.09 1.17 2.09 2.28 0 0.55-0.31 0.88-0.8 0.88-0.45 0-0.79-0.23-1.19-0.79l0.2 0.69 0.02 0.07s-0.01 0-0.02 0.02l-0.01 0.01h-0.02l-1.07-0.16z"/></g>
  <g id="g5521" xml:space="preserve" ns0:pdfconverter="pstoedit" transform="matrix(1.75 0 0 -1.75 90.627 1298)" ns0:text="$E$" ns0:version="0.7.2" ns0:inkscapeversion="0.91" ns0:preamble="/usr/share/inkscape/extensions/default_packages.tex" ns0:scale="1.4" ns0:texconverter="pdflatex"><path id="path5523" stroke-width="0" d="m155.27 713.63h-4.95v-0.16c0.62-0.06 0.77-0.14 0.77-0.41 0-0.11-0.06-0.46-0.11-0.64l-1.22-4.4c-0.17-0.57-0.25-0.64-0.81-0.74v-0.16h5.05l0.62 1.62-0.16 0.08c-0.47-0.64-0.73-0.9-1.16-1.1-0.37-0.17-1.04-0.27-1.79-0.27-0.56 0-0.8 0.1-0.8 0.34 0 0.11 0.11 0.58 0.36 1.45 0.13 0.44 0.22 0.77 0.32 1.15 0.35-0.02 0.66-0.03 0.77-0.03 0.39 0.01 0.67-0.05 0.78-0.15 0.05-0.05 0.07-0.14 0.07-0.31s-0.02-0.3-0.07-0.52l0.2-0.05 0.68 2.32-0.18 0.03c-0.38-0.84-0.47-0.9-1.38-0.94-0.11 0-0.43-0.01-0.78-0.02l0.66 2.32c0.06 0.22 0.16 0.26 0.72 0.26 1.57 0 1.92-0.13 1.92-0.73 0-0.13-0.01-0.28-0.02-0.45l0.2-0.02z"/></g>
 </g>
</svg>
