<?xml version="1.0" ?><svg height="26.14219mm" version="1.0" viewBox="0 0 157 99" width="41.45781mm" xmlns="http://www.w3.org/2000/svg">
  <style type="text/css">
		@import url('../estilo.css');
  </style>
  <g font-size="12pt" stroke-linecap="round" transform="translate(-104,-138)">
    <g stroke="#000000" stroke-linecap="butt" stroke-width="1.0">
      <line stroke-width="1.0" x1="191.00" x2="194.67" y1="169.84" y2="167.16"/>
      <line stroke-width="1.0" x1="198.33" x2="202.00" y1="164.47" y2="161.78"/>
    </g>
    <g stroke="#000000" stroke-width="1.0">
      <line x1="156.48" x2="143.26" y1="202.22" y2="179.24"/>
      <line x1="149.62" x2="139.71" y1="202.34" y2="185.10"/>
    </g>
    <g stroke="#000000" stroke-width="1.0">
      <line x1="143.26" x2="116.75" y1="179.24" y2="179.24"/>
    </g>
    <g stroke="#000000" stroke-width="1.0">
      <line x1="143.26" x2="153.22" y1="179.24" y2="162.00"/>
    </g>
    <g stroke="#000000" stroke-width="1.0">
      <line x1="222.75" x2="209.53" y1="179.24" y2="202.22"/>
    </g>
    <g stroke="#000000" stroke-width="1.0">
      <line x1="143.26" x2="156.48" y1="225.17" y2="202.22"/>
    </g>
    <g stroke="#000000" stroke-width="1.0">
      <line x1="209.53" x2="222.79" y1="202.22" y2="225.17"/>
    </g>
    <g stroke="#000000" stroke-linecap="butt" stroke-width="1.0">
      <line stroke-width="1.0" x1="182.99" x2="182.99" y1="192.00" y2="188.67"/>
      <line stroke-width="1.0" x1="182.99" x2="182.99" y1="185.33" y2="182.00"/>
    </g>
    <g stroke="#000000" stroke-width="1.0">
      <line x1="190.00" x2="209.53" y1="204.22" y2="204.22"/>
      <line x1="190.00" x2="209.53" y1="200.22" y2="200.22"/>
    </g>
    <g stroke="#000000" stroke-linecap="butt" stroke-width="1.0">
      <line x1="175.00" x2="164.00" y1="169.85" y2="161.78"/>
    </g>
    <g stroke="#000000" stroke-width="1.0">
      <line x1="249.26" x2="222.75" y1="179.24" y2="179.24"/>
    </g>
    <g stroke="#000000" stroke-width="1.0">
      <line x1="224.48" x2="214.53" y1="178.24" y2="161.00"/>
      <line x1="221.02" x2="211.06" y1="180.24" y2="163.00"/>
    </g>
    <g stroke="#000000" stroke-width="1.0">
      <line x1="156.48" x2="176.00" y1="202.22" y2="202.22"/>
    </g>
    <text fill="#000000" font-family="STIX Two Text" font-size="12pt" x="176.30" y="179.72">M</text>
    <text fill="#000000" font-family="STIX Two Text" font-size="12pt" x="203.30" y="160.29">O</text>
    <text fill="#000000" font-family="STIX Two Text" font-size="12pt" x="177.30" y="206.22">N</text>
    <text fill="#000000" font-family="STIX Two Text" font-size="12pt" x="151.30" y="160.29">O</text>
  </g>
</svg>
