<?xml version="1.0" ?><svg height="47.00313mm" version="1.0" viewBox="0 0 340 178" width="89.78125mm" xmlns="http://www.w3.org/2000/svg">
  <style type="text/css">
		@import url('../estilo.css');
  </style>
  <g font-size="12pt" stroke-linecap="round" transform="translate(-23,-79)">
    <text fill="#000000" font-family="STIX Two Text" font-size="12pt" x="34.30" y="146.50">Na</text>
    <g>
      <ellipse cx="60.0165680473" cy="136.482840237" fill="none" rx="5.0" ry="5.0" stroke="#000" stroke-width="1"/>
      <line fill="#000" stroke="#000" stroke-width="1" x1="57.0165680473" x2="63.0165680473" y1="136.482840237" y2="136.482840237"/>
      <line fill="#000" stroke="#000" stroke-width="1" x1="60.0165680473" x2="60.0165680473" y1="133.482840237" y2="139.482840237"/>
    </g>
    <g stroke="#000000" stroke-width="1.0">
      <line x1="271.91" x2="262.22" y1="132.77" y2="116.00"/>
    </g>
    <g stroke="#000000" stroke-linecap="butt" stroke-width="1.0">
      <line stroke-width="1.0" x1="210.36" x2="211.81" y1="132.00" y2="128.40"/>
      <line stroke-width="1.0" x1="213.25" x2="214.69" y1="124.80" y2="121.20"/>
      <line stroke-width="1.0" x1="216.14" x2="217.58" y1="117.60" y2="114.00"/>
    </g>
    <g stroke="#000000" stroke-width="1.0">
      <line x1="182.72" x2="169.43" y1="188.36" y2="211.35"/>
      <line x1="175.87" x2="165.90" y1="188.23" y2="205.47"/>
    </g>
    <g stroke="#000000" stroke-width="1.0">
      <line x1="298.41" x2="311.67" y1="132.77" y2="109.78"/>
    </g>
    <g stroke="#000000" stroke-width="1.0">
      <line x1="182.68" x2="199.00" y1="142.43" y2="142.45"/>
    </g>
    <g stroke="#000000" stroke-width="1.0">
      <line x1="169.43" x2="142.92" y1="211.35" y2="211.35"/>
    </g>
    <g stroke="#000000" stroke-width="1.0">
      <line x1="298.41" x2="311.63" y1="178.67" y2="155.76"/>
      <line x1="294.87" x2="304.78" y1="172.81" y2="155.62"/>
    </g>
    <g stroke="#000000" stroke-width="1.0">
      <line x1="242.00" x2="258.65" y1="155.72" y2="155.72"/>
    </g>
    <g stroke="#000000" stroke-width="1.0">
      <line x1="338.22" x2="351.47" y1="109.82" y2="132.77"/>
    </g>
    <g stroke="#000000" stroke-linecap="butt" stroke-width="1.0">
      <line stroke-width="1.0" x1="232.05" x2="230.60" y1="146.00" y2="141.43"/>
      <line stroke-width="1.0" x1="229.15" x2="227.69" y1="136.86" y2="132.29"/>
      <line stroke-width="1.0" x1="226.24" x2="224.79" y1="127.71" y2="123.14"/>
      <line stroke-width="1.0" x1="223.34" x2="221.89" y1="118.57" y2="114.00"/>
    </g>
    <g stroke="#000000" stroke-width="1.0">
      <line x1="169.43" x2="178.95" y1="119.48" y2="103.00"/>
    </g>
    <g stroke="#000000" stroke-linecap="butt" stroke-width="1.0">
      <line stroke-width="1.0" x1="190.00" x2="194.40" y1="98.78" y2="100.13"/>
      <line stroke-width="1.0" x1="198.80" x2="203.20" y1="101.49" y2="102.84"/>
      <line stroke-width="1.0" x1="207.60" x2="212.00" y1="104.19" y2="105.55"/>
    </g>
    <g stroke="#000000" stroke-width="1.0">
      <line x1="142.92" x2="169.43" y1="119.48" y2="119.48"/>
    </g>
    <g stroke="#000000" stroke-width="1.0">
      <line x1="142.92" x2="129.63" y1="165.38" y2="188.36"/>
    </g>
    <g stroke="#000000" stroke-width="1.0">
      <line x1="298.41" x2="271.91" y1="178.67" y2="178.67"/>
    </g>
    <g stroke="#000000" stroke-width="1.0">
      <line x1="129.67" x2="110.00" y1="142.39" y2="142.39"/>
    </g>
    <g stroke="#000000" stroke-width="1.0">
      <line x1="311.63" x2="298.41" y1="155.76" y2="132.77"/>
    </g>
    <g stroke="#000000" stroke-width="1.0">
      <line x1="271.91" x2="298.41" y1="132.77" y2="132.77"/>
      <line x1="275.22" x2="295.10" y1="138.77" y2="138.77"/>
    </g>
    <g stroke="#000000" stroke-width="1.0">
      <line x1="142.92" x2="129.63" y1="211.35" y2="188.36"/>
      <line x1="146.45" x2="136.48" y1="205.47" y2="188.23"/>
    </g>
    <g stroke="#000000" stroke-linecap="butt" stroke-width="1.0">
      <line x1="212.17" x2="227.17" y1="147.41" y2="154.28"/>
      <line x1="213.83" x2="228.83" y1="143.78" y2="150.64"/>
    </g>
    <g stroke="#000000" stroke-width="1.0">
      <line x1="142.92" x2="135.62" y1="211.35" y2="224.00"/>
    </g>
    <g stroke="#000000" stroke-width="1.0">
      <line x1="169.43" x2="182.68" y1="119.48" y2="142.43"/>
      <line x1="165.89" x2="175.83" y1="125.35" y2="142.56"/>
    </g>
    <g stroke="#000000" stroke-width="1.0">
      <line x1="258.65" x2="271.91" y1="155.72" y2="132.77"/>
    </g>
    <g stroke="#000000" stroke-linecap="butt" stroke-width="1.0">
      <line stroke-width="1.0" x1="252.00" x2="247.20" y1="109.51" y2="109.28"/>
      <line stroke-width="1.0" x1="242.40" x2="237.60" y1="109.06" y2="108.83"/>
      <line stroke-width="1.0" x1="232.80" x2="228.00" y1="108.61" y2="108.38"/>
    </g>
    <g stroke="#000000" stroke-width="1.0">
      <line x1="142.92" x2="129.67" y1="119.48" y2="142.39"/>
      <line x1="146.46" x2="136.52" y1="125.35" y2="142.53"/>
    </g>
    <g stroke="#000000" stroke-width="1.0">
      <line x1="271.91" x2="258.65" y1="178.67" y2="155.72"/>
      <line x1="275.44" x2="265.50" y1="172.80" y2="155.59"/>
    </g>
    <g stroke="#000000" stroke-width="1.0">
      <line x1="169.43" x2="182.72" y1="165.38" y2="188.36"/>
    </g>
    <g stroke="#000000" stroke-width="1.0">
      <line x1="129.67" x2="142.92" y1="142.39" y2="165.38"/>
    </g>
    <g stroke="#000000" stroke-width="1.0">
      <line x1="351.47" x2="338.18" y1="132.77" y2="155.76"/>
      <line x1="344.61" x2="334.64" y1="132.64" y2="149.88"/>
    </g>
    <g stroke="#000000" stroke-width="1.0">
      <line x1="311.63" x2="338.18" y1="155.76" y2="155.76"/>
    </g>
    <g stroke="#000000" stroke-width="1.0">
      <line x1="169.43" x2="142.92" y1="165.38" y2="165.38"/>
      <line x1="166.12" x2="146.23" y1="159.38" y2="159.38"/>
    </g>
    <g stroke="#000000" stroke-width="1.0">
      <line x1="311.67" x2="338.22" y1="109.78" y2="109.82"/>
      <line x1="314.98" x2="334.89" y1="115.79" y2="115.82"/>
    </g>
    <g stroke="#000000" stroke-width="1.0">
      <line x1="182.68" x2="169.43" y1="142.43" y2="165.38"/>
    </g>
    <text fill="#000000" font-family="STIX Two Text" font-size="12pt" x="213.30" y="112.00">M</text>
    <text fill="#000000" font-family="STIX Two Text" font-size="12pt" x="83.30" y="146.39">O<tspan dy="6" font-size="75%">3</tspan><tspan dy="-6">S</tspan></text>
    <g>
      <ellipse cx="76.1869822485" cy="136.482840237" fill="none" rx="5.0" ry="5.0" stroke="#000" stroke-width="1"/>
      <line fill="#000" stroke="#000" stroke-width="1" x1="73.1869822485" x2="79.1869822485" y1="136.482840237" y2="136.482840237"/>
    </g>
    <text fill="#000000" font-family="STIX Two Text" font-size="12pt" x="165.30" y="100.53">HO</text>
    <text fill="#000000" font-family="STIX Two Text" font-size="12pt" x="253.30" y="113.82">OH</text>
    <text fill="#000000" font-family="STIX Two Text" font-size="12pt" x="106.30" y="238.30">O<tspan dy="6" font-size="75%">2</tspan><tspan dy="-6">N</tspan></text>
    <text fill="#000000" font-family="STIX Two Text" font-size="12pt" x="200.30" y="146.47">N</text>
    <text fill="#000000" font-family="STIX Two Text" font-size="12pt" x="229.30" y="159.72">N</text>
  </g>
</svg>
