<?xml version="1.0" ?><svg height="49.90781mm" version="1.0" viewBox="0 0 338 189" width="89.25313mm" xmlns="http://www.w3.org/2000/svg">
  <style type="text/css">
		@import url('../estilo.css');
  </style>
  <g font-size="12pt" stroke-linecap="round" transform="translate(-186,-100)">
    <g stroke="#000000" stroke-width="1.0">
      <line x1="332.02" x2="354.97" y1="264.03" y2="277.28"/>
      <line x1="337.89" x2="355.10" y1="260.49" y2="270.43"/>
    </g>
    <g stroke="#000000" stroke-width="1.0">
      <line x1="424.89" x2="441.00" y1="159.84" y2="150.54"/>
      <line x1="422.89" x2="439.00" y1="156.37" y2="147.07"/>
    </g>
    <g stroke="#000000" stroke-width="1.0">
      <line x1="332.02" x2="309.11" y1="184.54" y2="197.76"/>
    </g>
    <g stroke="#000000" stroke-width="1.0">
      <line x1="423.86" x2="440.00" y1="184.54" y2="193.89"/>
    </g>
    <g stroke="#000000" stroke-width="1.0">
      <line x1="309.07" x2="332.06" y1="144.78" y2="158.03"/>
    </g>
    <g stroke="#000000" stroke-width="1.0">
      <line x1="309.11" x2="286.16" y1="197.76" y2="184.50"/>
      <line x1="309.24" x2="292.03" y1="190.90" y2="180.96"/>
    </g>
    <g stroke="#000000" stroke-width="1.0">
      <line x1="354.97" x2="377.92" y1="277.28" y2="264.07"/>
    </g>
    <g stroke="#000000" stroke-width="1.0">
      <line x1="286.16" x2="286.16" y1="157.99" y2="184.50"/>
    </g>
    <g stroke="#000000" stroke-width="1.0">
      <line x1="355.01" x2="332.02" y1="197.79" y2="184.54"/>
    </g>
    <g stroke="#000000" stroke-width="1.0">
      <line x1="423.89" x2="400.95" y1="158.11" y2="144.81"/>
    </g>
    <g stroke="#000000" stroke-width="1.0">
      <line x1="400.95" x2="400.95" y1="144.81" y2="124.00"/>
    </g>
    <g stroke="#000000" stroke-width="1.0">
      <line x1="377.96" x2="377.96" y1="184.54" y2="158.07"/>
    </g>
    <g stroke="#000000" stroke-width="1.0">
      <line x1="355.01" x2="377.96" y1="197.79" y2="184.54"/>
      <line x1="354.88" x2="372.09" y1="190.94" y2="181.00"/>
    </g>
    <g stroke="#000000" stroke-width="1.0">
      <line x1="423.86" x2="423.89" y1="184.54" y2="158.11"/>
    </g>
    <g stroke="#000000" stroke-width="1.0">
      <line x1="286.16" x2="270.00" y1="157.99" y2="148.66"/>
    </g>
    <g stroke="#000000" stroke-width="1.0">
      <line x1="332.06" x2="332.02" y1="158.03" y2="184.54"/>
      <line x1="326.06" x2="326.03" y1="161.34" y2="181.22"/>
    </g>
    <g stroke="#000000" stroke-width="1.0">
      <line x1="355.01" x2="377.92" y1="224.30" y2="237.52"/>
    </g>
    <g stroke="#000000" stroke-width="1.0">
      <line x1="286.16" x2="270.00" y1="184.50" y2="193.84"/>
    </g>
    <g stroke="#000000" stroke-width="1.0">
      <line x1="332.02" x2="355.01" y1="237.52" y2="224.30"/>
      <line x1="337.89" x2="355.13" y1="241.07" y2="231.16"/>
    </g>
    <g stroke="#000000" stroke-width="1.0">
      <line x1="377.92" x2="377.92" y1="237.52" y2="264.07"/>
      <line x1="371.92" x2="371.92" y1="240.84" y2="260.75"/>
    </g>
    <g stroke="#000000" stroke-width="1.0">
      <line x1="332.02" x2="332.02" y1="264.03" y2="237.52"/>
    </g>
    <g stroke="#000000" stroke-width="1.0">
      <line x1="355.01" x2="355.01" y1="197.79" y2="224.30"/>
    </g>
    <g stroke="#000000" stroke-width="1.0">
      <line x1="309.07" x2="286.16" y1="144.78" y2="157.99"/>
      <line x1="309.21" x2="292.02" y1="151.63" y2="161.54"/>
    </g>
    <g stroke="#000000" stroke-width="1.0">
      <line x1="309.07" x2="309.07" y1="144.78" y2="124.00"/>
    </g>
    <g stroke="#000000" stroke-width="1.0">
      <line x1="423.86" x2="400.91" y1="184.54" y2="197.79"/>
      <line x1="417.99" x2="400.78" y1="181.00" y2="190.94"/>
    </g>
    <g stroke="#000000" stroke-width="1.0">
      <line x1="400.91" x2="377.96" y1="197.79" y2="184.54"/>
    </g>
    <g stroke="#000000" stroke-width="1.0">
      <line x1="377.96" x2="400.95" y1="158.07" y2="144.81"/>
      <line x1="383.83" x2="401.07" y1="161.61" y2="151.67"/>
    </g>
    <g stroke="#000000" stroke-width="1.0">
      <line x1="377.92" x2="396.00" y1="237.52" y2="227.11"/>
    </g>
    <text fill="#000000" font-family="STIX Two Text" font-size="12pt" textLength="106.7" x="197.30" y="122.27">(HOOCCH<tspan dy="6" font-size="75%">2</tspan><tspan dy="-6">)</tspan><tspan dy="6" font-size="75%">2</tspan><tspan dy="-6">N</tspan></text>
    <text fill="#000000" font-family="STIX Two Text" font-size="12pt" textLength="100.7" x="408.30" y="122.31">N(CH<tspan dy="6" font-size="75%">2</tspan><tspan dy="-6">COOH)</tspan><tspan dy="6" font-size="75%">2</tspan></text>
    <text fill="#000000" font-family="STIX Two Text" font-size="12pt" x="397.30" y="228.30">SO<tspan dy="6" font-size="75%">3</tspan><tspan dy="-6">H</tspan></text>
    <text fill="#000000" font-family="STIX Two Text" font-size="12pt" x="441.30" y="148.85">O</text>
    <text fill="#000000" font-family="STIX Two Text" font-size="12pt" x="441.30" y="201.83">CH<tspan dy="6" font-size="75%">3</tspan></text>
    <text fill="#000000" font-family="STIX Two Text" font-size="12pt" x="304.30" y="122.27">CH<tspan dy="6" font-size="75%">2</tspan></text>
    <text fill="#000000" font-family="STIX Two Text" font-size="12pt" x="378.30" y="122.31">H<tspan dy="6" font-size="75%">2</tspan><tspan dy="-6">C</tspan></text>
    <text fill="#000000" font-family="STIX Two Text" font-size="12pt" x="245.30" y="148.74">HO</text>
    <text fill="#000000" font-family="STIX Two Text" font-size="12pt" x="240.30" y="201.76">H<tspan dy="6" font-size="75%">3</tspan><tspan dy="-6">C</tspan></text>
  </g>
</svg>
