<?xml version="1.0" encoding="UTF-8" standalone="no"?>
<svg id="svg4444" xmlns:rdf="http://www.w3.org/1999/02/22-rdf-syntax-ns#" xmlns="http://www.w3.org/2000/svg" xmlns:ns0="http://www.iki.fi/pav/software/textext/" height="120" width="160" version="1.1" xmlns:cc="http://creativecommons.org/ns#" xmlns:xlink="http://www.w3.org/1999/xlink" viewBox="0 0 160 120" xmlns:dc="http://purl.org/dc/elements/1.1/">
 <style type="text/css">
	 @import url('../estilo.css');
 </style>
 <defs>
  <rect id="gpPt3" height="2" width="2" stroke="currentColor" y="-1" x="-1" stroke-width=".222"/>
  <use id="gpPt11" stroke="currentColor" xlink:href="#gpPt3" transform="rotate(45)"/>
  <use id="gpPt12" xlink:href="#gpPt11" fill="currentColor"/>
 </defs>
 <metadata id="metadata4572">
  <rdf:RDF>
   <cc:Work rdf:about="">
    <dc:format>image/svg+xml</dc:format>
    <dc:type rdf:resource="http://purl.org/dc/dcmitype/StillImage"/>
    <dc:title>Gnuplot</dc:title>
   </cc:Work>
  </rdf:RDF>
 </metadata>
 <title id="title4446">Gnuplot</title>
 <desc id="desc4448">Produced by GNUPLOT 5.0 patchlevel 3</desc>
 <g id="gnuplot_canvas">
  <g fill="none">
   <rect id="rect4451" height="120" width="160" y="0" x="0"/>
   <g stroke="currentColor">
    <g id="g4483" color="black">
     <g id="g4485" font-size="16" transform="translate(139.5,110.7)" text-anchor="middle" stroke="none" font-family="Stix Two Text" fill="#000">
      <text id="text4487">
       <tspan id="tspan4489" font-family="Stix Two Text">1</tspan>
      </text>
     </g>
    </g>
    <g id="g4491" color="black">
     <use id="use4493" color="rgb(240, 228,  66)" xlink:href="#gpPt12" transform="translate(135 93) scale(3.38)"/>
    </g>
    <g id="g4495" color="black">
     <g id="g4497" font-size="16" transform="translate(139.5,94.5)" stroke="none" font-family="Stix Two Text" fill="#000">
      <text id="text4499"/>
     </g>
    </g>
    <g id="g4501" color="black">
     <use id="use4503" color="black" xlink:href="#gpPt11" transform="translate(135 93) scale(3.38)"/>
    </g>
    <g id="g4505" color="black">
     <g id="g4507" font-size="16" transform="translate(53 24.1)" text-anchor="end" stroke="none" font-family="Stix Two Text" fill="#000">
      <text id="text4509">
       <tspan id="tspan4511" font-family="Stix Two Text">2</tspan>
      </text>
     </g>
    </g>
    <g id="g4513" color="black">
     <use id="use4515" color="rgb(240, 228,  66)" xlink:href="#gpPt12" transform="translate(58.8,27.1) scale(3.38)"/>
    </g>
    <g id="g4517" color="black">
     <g id="g4519" font-size="16" transform="translate(63.3,28.6)" stroke="none" font-family="Stix Two Text" fill="#000">
      <text id="text4521"/>
     </g>
    </g>
    <g id="g4523" color="black">
     <use id="use4525" color="black" xlink:href="#gpPt11" transform="translate(58.8,27.1) scale(3.38)"/>
    </g>
    <g id="g4527" color="black">
     <g id="g4529" font-size="16" transform="translate(16.6 108)" text-anchor="middle" stroke="none" font-family="Stix Two Text" fill="#000">
      <text id="text4531">
       <tspan id="tspan4533" font-family="Stix Two Text" font-style="italic">O</tspan>
      </text>
     </g>
    </g>
   </g>
  </g>
  <g id="gnuplot_plot_1">
   <title id="title4538">NaN</title>
  </g>
  <g id="g4548" color="black" stroke-width="1.5" fill="none">
   <g id="g4550" shape-rendering="crispEdges">
    <polygon id="polygon4552" points="131.3 93 126.1 87.9 135 93 126.1 98.1" fill="#0072b2"/>
   </g>
   <path id="path4554" stroke="#0072b2" d="m131.3 93l-5.2-5.1 8.9 5.1-8.9 5.1 5.2-5.1m-110.6 0h110.6"/>
  </g>
  <g id="g4556" color="black" stroke-width="1.5" fill="none">
   <g id="g4558" shape-rendering="crispEdges">
    <polygon id="polygon4560" points="57 30.3 49.9 32.2 58.8 27.1 58.8 37.3" fill="#e51e10"/>
   </g>
   <path id="path4562" stroke="#e51e10" d="m57 30.3l-7.1 1.9 8.9-5.1v10.2l-1.8-7m-36.3 62.7l36.3-62.7"/>
  </g>
 </g>
 <g id="content" xml:space="preserve" stroke="#000" stroke-width="0" fill-rule="evenodd" ns0:pdfconverter="pstoedit" transform="matrix(1.75 0 0 -1.75 -186.44 1345.6)" stroke-miterlimit="10.433" ns0:text="$\\vec{r}_1$" ns0:version="0.7.2" ns0:inkscapeversion="0.91" ns0:preamble="/usr/share/inkscape/extensions/default_packages.tex" ns0:scale="1.4" ns0:texconverter="pdflatex"><polygon id="polygon4650" points="152.05 711.92 152.24 711.68 153.91 713.12 152.86 714.56 152.57 714.32 153.11 713.32 149.78 713.32 149.69 712.93 153.03 712.93"/><path id="path4652" d="m149.91 707.12 0.05 0.16 0.05 0.15 0.04 0.14 0.04 0.13 0.05 0.13 0.03 0.12 0.04 0.12 0.04 0.11 0.03 0.11 0.04 0.1 0.03 0.1 0.03 0.09 0.04 0.09 0.03 0.08 0.03 0.08 0.03 0.08 0.03 0.08 0.03 0.07 0.06 0.14 0.07 0.14 0.06 0.13 0.07 0.13 0.07 0.13 0.08 0.13 0.04 0.07 0.04 0.07c0.33 0.56 0.61 0.87 0.78 0.87 0.06 0 0.11-0.04 0.16-0.14 0.08-0.17 0.16-0.22 0.36-0.22 0.29 0 0.46 0.18 0.46 0.49s-0.2 0.52-0.47 0.52c-0.23 0-0.5-0.15-0.76-0.42-0.41-0.42-0.81-1.01-0.97-1.41l-0.14-0.36 0.53 2.17-0.03 0.02c-0.73-0.13-0.82-0.15-1.54-0.27v-0.17c0.24 0.05 0.27 0.05 0.34 0.05 0.21 0 0.34-0.1 0.34-0.28 0-0.14 0-0.14-0.16-0.82l-0.8-2.91z"/><path id="path4654" d="m154.62 710.34-1.26-0.63v-0.1c0.09 0.04 0.16 0.06 0.19 0.08 0.13 0.05 0.24 0.08 0.31 0.08 0.15 0 0.21-0.11 0.21-0.33v-3.16c0-0.23-0.05-0.39-0.16-0.45-0.11-0.07-0.21-0.09-0.5-0.1v-0.1h1.93v0.1c-0.56 0.01-0.67 0.08-0.67 0.42v4.18z"/></g>
 <g id="g4815" xml:space="preserve" stroke="#000" stroke-width="0" fill-rule="evenodd" ns0:pdfconverter="pstoedit" transform="matrix(1.75 0 0 -1.75 -238.93 1300)" stroke-miterlimit="10.433" ns0:text="$\\vec{r}_2$" ns0:version="0.7.2" ns0:inkscapeversion="0.91" ns0:preamble="/usr/share/inkscape/extensions/default_packages.tex" ns0:scale="1.4" ns0:texconverter="pdflatex"><polygon id="polygon4817" points="152.24 711.68 153.91 713.12 152.86 714.56 152.57 714.32 153.11 713.32 149.78 713.32 149.69 712.93 153.03 712.93 152.05 711.92"/><path id="path4819" d="m149.91 707.12 0.05 0.16 0.05 0.15 0.04 0.14 0.04 0.13 0.05 0.13 0.03 0.12 0.04 0.12 0.04 0.11 0.03 0.11 0.04 0.1 0.03 0.1 0.03 0.09 0.04 0.09 0.03 0.08 0.03 0.08 0.03 0.08 0.03 0.08 0.03 0.07 0.06 0.14 0.07 0.14 0.06 0.13 0.07 0.13 0.07 0.13 0.08 0.13 0.04 0.07 0.04 0.07c0.33 0.56 0.61 0.87 0.78 0.87 0.06 0 0.11-0.04 0.16-0.14 0.08-0.17 0.16-0.22 0.36-0.22 0.29 0 0.46 0.18 0.46 0.49s-0.2 0.52-0.47 0.52c-0.23 0-0.5-0.15-0.76-0.42-0.41-0.42-0.81-1.01-0.97-1.41l-0.14-0.36 0.53 2.17-0.03 0.02c-0.73-0.13-0.82-0.15-1.54-0.27v-0.17c0.24 0.05 0.27 0.05 0.34 0.05 0.21 0 0.34-0.1 0.34-0.28 0-0.14 0-0.14-0.16-0.82l-0.8-2.91z"/><path id="path4821" d="m155.9 706.59-0.09 0.03c-0.26-0.4-0.35-0.46-0.66-0.46h-1.67l1.17 1.23c0.62 0.65 0.89 1.18 0.89 1.72 0 0.7-0.56 1.23-1.29 1.23-0.38 0-0.74-0.15-1-0.43-0.22-0.24-0.33-0.46-0.45-0.95l0.15-0.04c0.28 0.68 0.53 0.91 1.01 0.91 0.59 0 0.99-0.4 0.99-0.99 0-0.54-0.33-1.19-0.91-1.81l-1.24-1.32v-0.08h2.72z"/></g>
</svg>
