<?xml version="1.0" encoding="UTF-8" standalone="no"?>
<svg
   xmlns:ns0="http://www.iki.fi/pav/software/textext/"
   xmlns:dc="http://purl.org/dc/elements/1.1/"
   xmlns:cc="http://creativecommons.org/ns#"
   xmlns:rdf="http://www.w3.org/1999/02/22-rdf-syntax-ns#"
   xmlns:svg="http://www.w3.org/2000/svg"
   xmlns="http://www.w3.org/2000/svg"
   xmlns:sodipodi="http://sodipodi.sourceforge.net/DTD/sodipodi-0.dtd"
   xmlns:inkscape="http://www.inkscape.org/namespaces/inkscape"
   width="400"
   height="300"
   version="1.1"
   viewBox="0 0 400 300"
   id="svg1122"
   sodipodi:docname="ciclo_carnot_04.svg"
   inkscape:version="0.92.4 (unknown)">
	<style type="text/css">
		@import url('../estilo.css');
	</style>
  <sodipodi:namedview
     pagecolor="#ffffff"
     bordercolor="#666666"
     borderopacity="1"
     objecttolerance="10"
     gridtolerance="10"
     guidetolerance="10"
     inkscape:pageopacity="0"
     inkscape:pageshadow="2"
     inkscape:window-width="1366"
     inkscape:window-height="719"
     id="namedview1124"
     showgrid="false"
     inkscape:zoom="1.6933333"
     inkscape:cx="200"
     inkscape:cy="150"
     inkscape:window-x="0"
     inkscape:window-y="0"
     inkscape:window-maximized="1"
     inkscape:current-layer="svg1122" />
  <metadata
     id="metadata815">
    <rdf:RDF>
      <cc:Work
         rdf:about="">
        <dc:format>image/svg+xml</dc:format>
        <dc:type
           rdf:resource="http://purl.org/dc/dcmitype/StillImage" />
        <dc:title>Gnuplot</dc:title>
      </cc:Work>
    </rdf:RDF>
  </metadata>
  <defs
     id="defs835">
    <marker
       id="marker1251"
       overflow="visible"
       orient="auto">
      <path
         transform="scale(1.1) rotate(180) translate(1)"
         d="m8.7186 4.0337-10.926-4.0177 10.926-4.0177c-1.7455 2.3721-1.7354 5.6175-6e-7 8.0354z"
         fill-rule="evenodd"
         stroke="#000"
         stroke-linejoin="round"
         stroke-width=".625"
         id="path817" />
    </marker>
    <marker
       id="marker2318"
       overflow="visible"
       orient="auto">
      <path
         transform="scale(.6) rotate(180) translate(0)"
         d="m8.7186 4.0337-10.926-4.0177 10.926-4.0177c-1.7455 2.3721-1.7354 5.6175-6e-7 8.0354z"
         fill-rule="evenodd"
         stroke="#000"
         stroke-linejoin="round"
         stroke-width=".625"
         id="path820" />
    </marker>
    <marker
       id="marker8516"
       overflow="visible"
       orient="auto">
      <path
         transform="scale(.6) translate(0)"
         d="m8.7186 4.0337-10.926-4.0177 10.926-4.0177c-1.7455 2.3721-1.7354 5.6175-6e-7 8.0354z"
         fill-rule="evenodd"
         stroke="#000"
         stroke-linejoin="round"
         stroke-width=".625"
         id="path823" />
    </marker>
    <marker
       id="Arrow2Mstart"
       overflow="visible"
       orient="auto">
      <path
         transform="scale(.6) translate(0)"
         d="m8.7186 4.0337-10.926-4.0177 10.926-4.0177c-1.7455 2.3721-1.7354 5.6175-6e-7 8.0354z"
         fill-rule="evenodd"
         stroke="#000"
         stroke-linejoin="round"
         stroke-width=".625"
         id="path826" />
    </marker>
    <marker
       id="Arrow2Mend"
       overflow="visible"
       orient="auto">
      <path
         transform="scale(.6) rotate(180) translate(0)"
         d="m8.7186 4.0337-10.926-4.0177 10.926-4.0177c-1.7455 2.3721-1.7354 5.6175-6e-7 8.0354z"
         fill-rule="evenodd"
         stroke="#000"
         stroke-linejoin="round"
         stroke-width=".625"
         id="path829" />
    </marker>
    <marker
       id="Arrow2Lend"
       overflow="visible"
       orient="auto">
      <path
         transform="scale(1.1) rotate(180) translate(1)"
         d="m8.7186 4.0337-10.926-4.0177 10.926-4.0177c-1.7455 2.3721-1.7354 5.6175-6e-7 8.0354z"
         fill-rule="evenodd"
         stroke="#000"
         stroke-linejoin="round"
         stroke-width=".625"
         id="path832" />
    </marker>
  </defs>
  <title
     id="title837">Gnuplot</title>
  <desc
     id="desc839">Produced by GNUPLOT 5.2 patchlevel 2</desc>
  <g
     fill="none"
     id="g937">
    <rect
       width="400"
       height="300"
       id="rect841" />
    <g
       stroke="currentColor"
       id="g935">
      <g
         color="#000000"
         id="g855">
        <path
           d="m64 259.5v4.5"
           stroke="#000"
           id="path843" />
        <g
           transform="translate(64,277.9)"
           fill="#000"
           font-family="'Stix Two Text'"
           font-size="15px"
           stroke="none"
           text-anchor="middle"
           id="g853">
          <text
             id="text851">
            <tspan
               font-family="'Stix Two Text'"
               font-style="italic"
               id="tspan845">V</tspan><tspan
               dy="4.5"
               font-family="'Stix Two Text'"
               font-size="12px"
               id="tspan847">a</tspan>
            <tspan
               dy="-4.5"
               font-size="15px"
               id="tspan849" />
          </text>
        </g>
      </g>
      <g
         color="#000000"
         id="g869">
        <path
           d="m150.1 259.5v4.5"
           stroke="#000"
           id="path857" />
        <g
           transform="translate(150.1,277.9)"
           fill="#000"
           font-family="'Stix Two Text'"
           font-size="15px"
           stroke="none"
           text-anchor="middle"
           id="g867">
          <text
             id="text865">
            <tspan
               font-family="'Stix Two Text'"
               font-style="italic"
               id="tspan859">V</tspan><tspan
               dy="4.5"
               font-family="'Stix Two Text'"
               font-size="12px"
               id="tspan861">d</tspan>
            <tspan
               dy="-4.5"
               font-size="15px"
               id="tspan863" />
          </text>
        </g>
      </g>
      <g
         color="#000000"
         id="g883">
        <path
           d="m193.9 259.5v4.5"
           stroke="#000"
           id="path871" />
        <g
           transform="translate(193.9,277.9)"
           fill="#000"
           font-family="'Stix Two Text'"
           font-size="15px"
           stroke="none"
           text-anchor="middle"
           id="g881">
          <text
             id="text879">
            <tspan
               font-family="'Stix Two Text'"
               font-style="italic"
               id="tspan873">V</tspan><tspan
               dy="4.5"
               font-family="'Stix Two Text'"
               font-size="12px"
               id="tspan875">b</tspan>
            <tspan
               dy="-4.5"
               font-size="15px"
               id="tspan877" />
          </text>
        </g>
      </g>
      <g
         color="#000000"
         id="g897">
        <path
           d="m331.7 259.5v4.5"
           stroke="#000"
           id="path885" />
        <g
           transform="translate(331.7,277.9)"
           fill="#000"
           font-family="'Stix Two Text'"
           font-size="15px"
           stroke="none"
           text-anchor="middle"
           id="g895">
          <text
             id="text893">
            <tspan
               font-family="'Stix Two Text'"
               font-style="italic"
               id="tspan887">V</tspan><tspan
               dy="4.5"
               font-family="'Stix Two Text'"
               font-size="12px"
               id="tspan889">c</tspan>
            <tspan
               dy="-4.5"
               font-size="15px"
               id="tspan891" />
          </text>
        </g>
      </g>
      <g
         color="#000000"
         id="g901">
        <path
           d="m20.7 18.1v241.4h354.3m0-241.4m-354.3 0"
           stroke="#000"
           id="path899" />
      </g>
      <g
         color="#808080"
         id="g905">
        <path
           d="m64 259.5v-190.2"
           stroke="#000"
           stroke-dasharray="2, 4"
           id="path903" />
      </g>
      <g
         color="#808080"
         id="g909">
        <path
           d="m193.9 259.5v-94.1"
           stroke="#000"
           stroke-dasharray="2, 4"
           id="path907" />
      </g>
      <g
         color="#808080"
         id="g913">
        <path
           d="m331.7 259.5v-25.6"
           stroke="#000"
           stroke-dasharray="2, 4"
           id="path911" />
      </g>
      <g
         color="#808080"
         id="g917">
        <path
           d="m150.1 259.5v-80.6"
           stroke="#000"
           stroke-dasharray="2, 4"
           id="path915" />
      </g>
      <g
         color="#000000"
         id="g925">
        <g
           transform="translate(8.3,25.8)"
           fill="#000"
           font-family="'Stix Two Text'"
           font-size="16px"
           stroke="none"
           text-anchor="middle"
           id="g923">
          <text
             id="text921">
            <tspan
               font-family="'Stix Two Text'"
               font-style="italic"
               id="tspan919">P</tspan>
          </text>
        </g>
      </g>
      <g
         color="#000000"
         id="g933">
        <g
           transform="translate(371.4,278.2)"
           fill="#000"
           font-family="'Stix Two Text'"
           font-size="16px"
           stroke="none"
           text-anchor="middle"
           id="g931">
          <text
             id="text929">
            <tspan
               font-family="'Stix Two Text'"
               font-style="italic"
               id="tspan927">V</tspan>
          </text>
        </g>
      </g>
    </g>
  </g>
  <g
     id="g957">
    <title
       id="title939">T2</title>
    <g
       color="#000000"
       fill="none"
       id="g955">
      <path
         d="m42.4 40.9 1.9 2.8 2 2.8 2 2.7 1.9 2.7 2 2.7 2 2.5 1.9 2.6 2 2.5 2 2.4 1.9 2.4 4 4.6 1.9 2.3 6 6.6 1.9 2.1 2 2.1 2 2 1.9 2 2 2 2 1.9 1.9 1.9 4 3.8 1.9 1.8 2 1.8 2 1.7 1.9 1.8 4 3.4 2 1.6 1.9 1.6 4 3.2 1.9 1.6 4 3 1.9 1.5 2 1.5 2 1.4 1.9 1.5 4 2.8 1.9 1.3 2 1.4 4 2.6 1.9 1.3 4 2.6 1.9 1.2 4 2.4 1.9 1.2 4 2.4 1.9 1.1 2 1.2 2 1.1 1.9 1.1 4 2.2 2 1 1.9 1.1 2 1 2 1.1 1.9 1 4 2 1.9 1 2 0.9 2 1 1.9 0.9 2 1 2 0.9 1.9 0.9 6 2.7 1.9 0.9 2 0.8 2 0.9 1.9 0.8 2 0.9 2 0.8 1.9 0.8 4 1.6 1.9 0.8 4 1.6 1.9 0.8 2 0.7 2 0.8 1.9 0.7 2 0.8 4 1.4"
         stroke="#9400d3"
         id="path941" />
      <g
         transform="translate(237.3,188.1)"
         fill="#000"
         font-family="'Stix Two Text'"
         font-size="15px"
         id="g953">
        <text
           xml:space="preserve"
           id="text951"><tspan
             font-family="'Stix Two Text'"
             xml:space="preserve"
             id="tspan943"> </tspan><tspan
             font-family="'Stix Two Text'"
             font-style="italic"
             xml:space="preserve"
             id="tspan945">T</tspan><tspan
             dy="4.5"
             font-family="'Stix Two Text'"
             font-size="12px"
             xml:space="preserve"
             id="tspan947">2</tspan><tspan
             dy="-4.5"
             font-size="15px"
             id="tspan949" /></text>
      </g>
    </g>
  </g>
  <g
     id="g975">
    <title
       id="title959">T1</title>
    <g
       color="#000000"
       fill="none"
       id="g973">
      <path
         d="m106.8 154.4 7.5 4.8 2.5 1.5 2.4 1.5 5 3 7.5 4.2 2.5 1.3 2.5 1.4 5 2.6 2.4 1.2 2.5 1.3 10 4.8 5 2.2 2.5 1.2 2.5 1 2.5 1.1 2.4 1.1 2.5 1 2.5 1.1 7.5 3 2.5 0.9 2.5 1 5 1.8 2.4 1 2.5 0.9 2.5 0.8 5 1.8 2.5 0.8 2.5 0.9 10 3.2 2.4 0.8 5 1.6 2.5 0.7 2.5 0.8 12.5 3.5 2.4 0.7 7.5 2.1 2.5 0.6 2.5 0.7 5 1.2 2.5 0.7 5 1.2 2.4 0.6 10 2.4 2.5 0.5 2.5 0.6 2.5 0.5 2.5 0.6 2.5 0.5 2.4 0.6 2.5 0.5 2.5 0.6 17.5 3.5 2.4 0.5 2.5 0.5 2.5 0.4 5 1 2.5 0.4 2.5 0.5 2.5 0.4 2.5 0.5 2.5 0.4 2.5 0.5 2.4 0.4"
         stroke="#009e73"
         id="path961" />
      <g
         transform="translate(106.8,159.3)"
         fill="#000"
         font-family="'Stix Two Text'"
         font-size="15px"
         text-anchor="end"
         id="g971">
        <text
           font-family="'Stix Two Text'"
           xml:space="preserve"
           id="text969"><tspan
             font-style="italic"
             xml:space="preserve"
             id="tspan963">T</tspan><tspan
             dy="4.5"
             font-size="12px"
             xml:space="preserve"
             id="tspan965">1</tspan><tspan
             dy="-4.5"
             font-size="15px"
             xml:space="preserve"
             id="tspan967"> </tspan></text>
      </g>
    </g>
  </g>
  <g
     color="#000000"
     fill="none"
     stroke="currentColor"
     id="g979">
    <path
       d="m42.4 20.2 1.4 3.7 1.5 3.7 1.4 3.7 3 7 1.4 3.5 1.5 3.3 1.4 3.3 1.5 3.3 1.5 3.1 1.4 3.2 3 6 1.4 3 1.5 2.9 1.4 2.8 3 5.6 1.4 2.7 1.5 2.6 1.4 2.6 1.5 2.6 1.5 2.5 1.4 2.5 3 4.8 1.4 2.4 1.5 2.3 1.4 2.2 1.5 2.3 1.5 2.2 1.4 2.2 1.5 2.1 1.4 2.1 1.5 2.1 1.5 2 1.4 2 1.5 2 1.5 1.9 1.4 1.9 1.5 1.9 1.4 1.9 3 3.6 1.4 1.7 1.5 1.8 1.5 1.7 1.4 1.7 1.5 1.7 1.4 1.6 3 3.2 1.4 1.6 1.5 1.6 1.4 1.5 3 3 1.4 1.5 3 2.8 1.4 1.4 1.5 1.4 1.4 1.4 1.5 1.4 1.5 1.3 1.4 1.3 1.5 1.3 1.4 1.3 1.5 1.2 1.5 1.3 1.4 1.2 3 2.4 1.4 1.2 1.5 1.2 1.4 1.1 1.5 1.2 1.5 1.1 1.4 1.1 1.5 1.1 1.4 1.1 1.5 1.1 1.5 1 1.4 1.1 3 2 1.4 1 1.5 1 1.4 1 1.5 1 1.5 0.9 1.4 1 1.5 0.9 1.4 0.9 1.5 0.9 1.5 1 1.4 0.8 3 1.8"
       stroke="#56b4e9"
       id="path977" />
  </g>
  <g
     color="#000000"
     fill="none"
     stroke="currentColor"
     id="g983">
    <path
       d="m164.4 139.8 1.9 1.8 1.9 1.9 1.9 1.8 2 1.7 1.9 1.8 1.9 1.7 1.9 1.6 1.9 1.7 7.6 6.4 5.7 4.5 2 1.5 1.9 1.4 1.9 1.5 3.8 2.8 1.9 1.3 1.9 1.4 7.6 5.2 1.9 1.2 2 1.3 7.6 4.8 1.9 1.1 1.9 1.2 7.6 4.4 1.9 1 2 1.1 1.9 1 1.9 1.1 7.6 4 1.9 0.9 1.9 1 3.8 1.8 1.9 1 2 0.9 3.8 1.8 1.9 0.8 1.9 0.9 1.9 0.8 1.9 0.9 3.8 1.6 1.9 0.9 3.8 1.6 2 0.7 3.8 1.6 1.9 0.7 1.9 0.8 1.9 0.7 1.9 0.8 9.5 3.5 2 0.7 3.8 1.4 1.9 0.6 1.9 0.7 1.9 0.6 1.9 0.7 3.8 1.2 1.9 0.7 3.8 1.2 2 0.6 5.7 1.8 1.9 0.5 3.8 1.2 1.9 0.5 1.9 0.6 1.9 0.5 1.9 0.6 1.9 0.5"
       stroke="#e69f00"
       id="path981" />
  </g>
  <g
     id="g1088">
    <g
       fill="none"
       stroke="currentColor"
       id="g1035">
      <g
         color="#000000"
         id="g993">
        <path
           d="m20.7 18.1v241.4h354.3m0-241.4m-354.3 0"
           stroke="#000"
           id="path985" />
        <g
           transform="translate(68.5,69.7)"
           fill="#000"
           font-family="'Stix Two Text'"
           font-size="15px"
           stroke="none"
           id="g991">
          <text
             id="text989">
            <tspan
               font-family="'Stix Two Text'"
               id="tspan987">a</tspan>
          </text>
        </g>
      </g>
      <g
         transform="translate(0 -6.3509e-6)"
         color="#000000"
         id="g997">
        <circle
           style="color:#000000;fill:#000000;stroke:currentColor;stroke-width:0.49950001"
           r="2.25"
           cy="69.300003"
           cx="64"
           id="use995" />
      </g>
      <g
         color="#000000"
         id="g1005">
        <g
           transform="translate(198.4,165.8)"
           fill="#000"
           font-family="'Stix Two Text'"
           font-size="15px"
           stroke="none"
           id="g1003">
          <text
             id="text1001">
            <tspan
               font-family="'Stix Two Text'"
               id="tspan999">b</tspan>
          </text>
        </g>
      </g>
      <g
         color="#000000"
         id="g1009">
        <circle
           style="color:#000000;fill:#000000;stroke:currentColor;stroke-width:0.49950001"
           r="2.25"
           cy="165.39999"
           cx="193.89999"
           id="use1007" />
      </g>
      <g
         color="#000000"
         id="g1017">
        <g
           transform="translate(336.2,232.5)"
           fill="#000"
           font-family="'Stix Two Text'"
           font-size="15px"
           stroke="none"
           id="g1015">
          <text
             id="text1013">
            <tspan
               font-family="'Stix Two Text'"
               id="tspan1011">c</tspan>
          </text>
        </g>
      </g>
      <g
         transform="translate(6.3509e-6)"
         color="#000000"
         id="g1021">
        <circle
           style="color:#000000;fill:#000000;stroke:currentColor;stroke-width:0.49950001"
           r="2.25"
           cy="233.89999"
           cx="331.70001"
           id="use1019" />
      </g>
      <g
         color="#000000"
         id="g1029">
        <g
           transform="translate(154.6,179.3)"
           fill="#000"
           font-family="'Stix Two Text'"
           font-size="15px"
           stroke="none"
           id="g1027">
          <text
             id="text1025">
            <tspan
               font-family="'Stix Two Text'"
               id="tspan1023">d</tspan>
          </text>
        </g>
      </g>
      <g
         color="#000000"
         id="g1033">
        <circle
           style="color:#000000;fill:#000000;stroke:currentColor;stroke-width:0.49950001"
           r="2.25"
           cy="178.89999"
           cx="150.10001"
           id="use1031" />
      </g>
    </g>
    <g
       stroke="#000"
       id="g1086">
      <g
         id="g1066">
        <g
           fill="none"
           id="g1045">
          <path
             d="m136.93 126.72-16.973-12.527"
             marker-start="url(#Arrow2Mstart)"
             id="path1037" />
          <path
             d="m282.05 209.75-19.051-9.0582"
             marker-start="url(#marker8516)"
             id="path1039" />
          <path
             d="m250.45 221.97-20.234-5.9664"
             marker-end="url(#Arrow2Mend)"
             id="path1041" />
          <path
             d="m95.569 133.18-12.569-16.942"
             marker-end="url(#marker2318)"
             id="path1043" />
        </g>
        <g
           id="content"
           transform="matrix(1.6 0 0 -1.6 55.72 1260.9)"
           fill-rule="evenodd"
           stroke-miterlimit="10.433"
           stroke-width="0"
           inkscapeversion="0.92.4"
           ns0:alignment="middle center"
           ns0:jacobian_sqrt="1.6"
           ns0:pdfconverter="pstoedit"
           ns0:preamble="/home/antonio/.config/inkscape/extensions/textext/default_packages.tex"
           ns0:scale="1.2"
           ns0:texconverter="pdflatex"
           ns0:text="$Q = 0$"
           ns0:version="0.10.0"
           xml:space="preserve">
<path
   d="m151.74 657.08h0.07l0.07 0.01h0.07l0.06 0.01h0.07l0.12 0.02 0.05 0.01h0.06l0.06 0.01 0.1 0.02 0.11 0.02 0.09 0.03 0.2 0.06 0.09 0.03 0.09 0.04 0.1 0.04 0.1 0.05 0.05 0.02 0.05 0.03 0.05 0.02 0.05 0.03c1.47 0.83 2.48 2.44 2.48 4.01 0 1.34-0.96 2.31-2.28 2.31l-0.05-0.33c0.8 0 1.28-0.57 1.28-1.52 0-1.05-0.46-2.51-1.1-3.42-0.55-0.79-1.17-1.18-1.9-1.18-0.81 0-1.27 0.61-1.27 1.65 0 0.95 0.49 2.43 1.09 3.29 0.56 0.81 1.17 1.18 1.9 1.18l0.05 0.33c-0.8 0-1.7-0.41-2.5-1.12-1-0.94-1.59-2.14-1.59-3.3 0-0.81 0.3-1.49 0.84-1.91 0.26-0.21 0.48-0.3 0.91-0.4-0.9-0.8-0.99-0.88-1.76-1.41l0.1-0.15c0.38 0.21 0.76 0.3 1.15 0.3 0.19 0 0.48-0.06 0.92-0.18 0.61-0.16 1.15-0.26 1.52-0.26 0.55 0 1.25 0.25 1.75 0.65 0.24 0.18 0.37 0.32 0.63 0.68l-0.15 0.11c-0.56-0.58-0.96-0.77-1.68-0.77-0.26 0-0.47 0.04-1.23 0.22-0.52 0.13-0.99 0.22-1.05 0.21-0.04-0.01-0.06-0.01-0.06-0.01h-0.24z"
   id="path1047" />
<polygon
   points="164.66 660.51 164.66 661.07 159.55 661.07 159.55 660.51"
   id="polygon1049" />
<polygon
   points="164.66 658.5 164.66 659.05 159.55 659.05 159.55 658.5"
   id="polygon1051" />
<path
   d="m170.57 663.95h-0.15l-0.05-0.01h-0.05l-0.05-0.01h-0.04l-0.1-0.02-0.04-0.01-0.05-0.01-0.08-0.02-0.04-0.02-0.05-0.01-0.04-0.02-0.04-0.01-0.2-0.1-0.03-0.03-0.08-0.04-0.03-0.03-0.04-0.03-0.04-0.02-0.03-0.03-0.04-0.03-0.07-0.07c-0.58-0.55-0.96-1.7-0.96-2.86 0-1.08 0.33-2.24 0.8-2.8 0.37-0.44 0.88-0.67 1.46-0.67v0.25c-0.86 0-1.3 1.07-1.3 3.13 0 2.11 0.45 3.21 1.31 3.21 0.84 0 1.28-1.12 1.28-3.2 0-2.07-0.43-3.14-1.29-3.14v-0.25c0.51 0 0.93 0.17 1.29 0.51 0.58 0.55 0.96 1.7 0.96 2.9 0 2.04-0.91 3.44-2.21 3.44z"
   id="path1053" />
</g>        <g
           transform="matrix(1.6 0 0 -1.6 -202.04 1179.7)"
           fill-rule="evenodd"
           stroke-miterlimit="10.433"
           stroke-width="0"
           inkscapeversion="0.92.4"
           ns0:alignment="middle center"
           ns0:jacobian_sqrt="1.6"
           ns0:pdfconverter="pstoedit"
           ns0:preamble="/home/antonio/.config/inkscape/extensions/textext/default_packages.tex"
           ns0:scale="1.2"
           ns0:texconverter="pdflatex"
           ns0:text="$Q = 0$"
           ns0:version="0.10.0"
           xml:space="preserve"
           id="g1064">
<path
   d="m151.74 657.08h0.07l0.07 0.01h0.07l0.06 0.01h0.07l0.12 0.02 0.05 0.01h0.06l0.06 0.01 0.1 0.02 0.11 0.02 0.09 0.03 0.2 0.06 0.09 0.03 0.09 0.04 0.1 0.04 0.1 0.05 0.05 0.02 0.05 0.03 0.05 0.02 0.05 0.03c1.47 0.83 2.48 2.44 2.48 4.01 0 1.34-0.96 2.31-2.28 2.31l-0.05-0.33c0.8 0 1.28-0.57 1.28-1.52 0-1.05-0.46-2.51-1.1-3.42-0.55-0.79-1.17-1.18-1.9-1.18-0.81 0-1.27 0.61-1.27 1.65 0 0.95 0.49 2.43 1.09 3.29 0.56 0.81 1.17 1.18 1.9 1.18l0.05 0.33c-0.8 0-1.7-0.41-2.5-1.12-1-0.94-1.59-2.14-1.59-3.3 0-0.81 0.3-1.49 0.84-1.91 0.26-0.21 0.48-0.3 0.91-0.4-0.9-0.8-0.99-0.88-1.76-1.41l0.1-0.15c0.38 0.21 0.76 0.3 1.15 0.3 0.19 0 0.48-0.06 0.92-0.18 0.61-0.16 1.15-0.26 1.52-0.26 0.55 0 1.25 0.25 1.75 0.65 0.24 0.18 0.37 0.32 0.63 0.68l-0.15 0.11c-0.56-0.58-0.96-0.77-1.68-0.77-0.26 0-0.47 0.04-1.23 0.22-0.52 0.13-0.99 0.22-1.05 0.21-0.04-0.01-0.06-0.01-0.06-0.01h-0.24z"
   id="path1056" />
<polygon
   points="164.66 661.07 159.55 661.07 159.55 660.51 164.66 660.51"
   id="polygon1058" />
<polygon
   points="164.66 659.05 159.55 659.05 159.55 658.5 164.66 658.5"
   id="polygon1060" />
<path
   d="m170.57 663.95h-0.15l-0.05-0.01h-0.05l-0.05-0.01h-0.04l-0.1-0.02-0.04-0.01-0.05-0.01-0.08-0.02-0.04-0.02-0.05-0.01-0.04-0.02-0.04-0.01-0.2-0.1-0.03-0.03-0.08-0.04-0.03-0.03-0.04-0.03-0.04-0.02-0.03-0.03-0.04-0.03-0.07-0.07c-0.58-0.55-0.96-1.7-0.96-2.86 0-1.08 0.33-2.24 0.8-2.8 0.37-0.44 0.88-0.67 1.46-0.67v0.25c-0.86 0-1.3 1.07-1.3 3.13 0 2.11 0.45 3.21 1.31 3.21 0.84 0 1.28-1.12 1.28-3.2 0-2.07-0.43-3.14-1.29-3.14v-0.25c0.51 0 0.93 0.17 1.29 0.51 0.58 0.55 0.96 1.7 0.96 2.9 0 2.04-0.91 3.44-2.21 3.44z"
   id="path1062" />
</g>      </g>
      <path
         d="m171.85 120.33c-11.5 10.5-26.853 34.673-26.853 34.673"
         fill="none"
         marker-end="url(#Arrow2Lend)"
         stroke-width="1px"
         id="path1068" />
      <g
         id="g1084">
        <g
           transform="matrix(1.6 0 0 -1.6 -65.28 1168.7)"
           fill-rule="evenodd"
           stroke-miterlimit="10.433"
           stroke-width="0"
           inkscapeversion="0.92.4"
           ns0:alignment="middle center"
           ns0:jacobian_sqrt="1.6"
           ns0:pdfconverter="pstoedit"
           ns0:preamble="/home/antonio/.config/inkscape/extensions/textext/default_packages.tex"
           ns0:scale="1.2"
           ns0:texconverter="pdflatex"
           ns0:text="$Q_2$"
           ns0:version="0.10.0"
           xml:space="preserve"
           id="g1074">
<path
   d="m151.74 657.08h0.07l0.07 0.01h0.07l0.06 0.01h0.07l0.12 0.02 0.05 0.01h0.06l0.06 0.01 0.1 0.02 0.11 0.02 0.09 0.03 0.2 0.06 0.09 0.03 0.09 0.04 0.1 0.04 0.1 0.05 0.05 0.02 0.05 0.03 0.05 0.02 0.05 0.03c1.47 0.83 2.48 2.44 2.48 4.01 0 1.34-0.96 2.31-2.28 2.31l-0.05-0.33c0.8 0 1.28-0.57 1.28-1.52 0-1.05-0.46-2.51-1.1-3.42-0.55-0.79-1.17-1.18-1.9-1.18-0.81 0-1.27 0.61-1.27 1.65 0 0.95 0.49 2.43 1.09 3.29 0.56 0.81 1.17 1.18 1.9 1.18l0.05 0.33c-0.8 0-1.7-0.41-2.5-1.12-1-0.94-1.59-2.14-1.59-3.3 0-0.81 0.3-1.49 0.84-1.91 0.26-0.21 0.48-0.3 0.91-0.4-0.9-0.8-0.99-0.88-1.76-1.41l0.1-0.15c0.38 0.21 0.76 0.3 1.15 0.3 0.19 0 0.48-0.06 0.92-0.18 0.61-0.16 1.15-0.26 1.52-0.26 0.55 0 1.25 0.25 1.75 0.65 0.24 0.18 0.37 0.32 0.63 0.68l-0.15 0.11c-0.56-0.58-0.96-0.77-1.68-0.77-0.26 0-0.47 0.04-1.23 0.22-0.52 0.13-0.99 0.22-1.05 0.21-0.04-0.01-0.06-0.01-0.06-0.01h-0.24z"
   id="path1070" />
<path
   d="m159.49 656.69-0.1 0.04c-0.25-0.4-0.35-0.46-0.66-0.46h-1.67l1.17 1.22c0.63 0.65 0.9 1.18 0.9 1.72 0 0.7-0.57 1.23-1.29 1.23-0.39 0-0.75-0.15-1.01-0.43-0.23-0.24-0.33-0.46-0.45-0.95l0.15-0.04c0.28 0.69 0.53 0.91 1.01 0.91 0.59 0 0.99-0.4 0.99-0.98 0-0.55-0.32-1.19-0.91-1.81l-1.25-1.32v-0.08h2.73z"
   id="path1072" />
</g>        <path
           d="m215 195c-0.35355 6.364 10 40 10 40"
           fill="none"
           marker-end="url(#marker1251)"
           id="path1076" />
        <g
           transform="matrix(1.6 0 0 -1.6 -16.28 1301.2)"
           fill-rule="evenodd"
           stroke-miterlimit="10.433"
           stroke-width="0"
           inkscapeversion="0.92.4"
           ns0:alignment="middle center"
           ns0:jacobian_sqrt="1.6"
           ns0:pdfconverter="pstoedit"
           ns0:preamble="/home/antonio/.config/inkscape/extensions/textext/default_packages.tex"
           ns0:scale="1.2"
           ns0:texconverter="pdflatex"
           ns0:text="$Q_1$"
           ns0:version="0.10.0"
           xml:space="preserve"
           id="g1082">
<path
   d="m151.74 657.08h0.07l0.07 0.01h0.07l0.06 0.01h0.07l0.12 0.02 0.05 0.01h0.06l0.06 0.01 0.1 0.02 0.11 0.02 0.09 0.03 0.2 0.06 0.09 0.03 0.09 0.04 0.1 0.04 0.1 0.05 0.05 0.02 0.05 0.03 0.05 0.02 0.05 0.03c1.47 0.83 2.48 2.44 2.48 4.01 0 1.34-0.96 2.31-2.28 2.31l-0.05-0.33c0.8 0 1.28-0.57 1.28-1.52 0-1.05-0.46-2.51-1.1-3.42-0.55-0.79-1.17-1.18-1.9-1.18-0.81 0-1.27 0.61-1.27 1.65 0 0.95 0.49 2.43 1.09 3.29 0.56 0.81 1.17 1.18 1.9 1.18l0.05 0.33c-0.8 0-1.7-0.41-2.5-1.12-1-0.94-1.59-2.14-1.59-3.3 0-0.81 0.3-1.49 0.84-1.91 0.26-0.21 0.48-0.3 0.91-0.4-0.9-0.8-0.99-0.88-1.76-1.41l0.1-0.15c0.38 0.21 0.76 0.3 1.15 0.3 0.19 0 0.48-0.06 0.92-0.18 0.61-0.16 1.15-0.26 1.52-0.26 0.55 0 1.25 0.25 1.75 0.65 0.24 0.18 0.37 0.32 0.63 0.68l-0.15 0.11c-0.56-0.58-0.96-0.77-1.68-0.77-0.26 0-0.47 0.04-1.23 0.22-0.52 0.13-0.99 0.22-1.05 0.21-0.04-0.01-0.06-0.01-0.06-0.01h-0.24z"
   id="path1078" />
<path
   d="m158.2 660.44-1.26-0.63v-0.1c0.08 0.04 0.16 0.06 0.19 0.08 0.13 0.05 0.24 0.07 0.31 0.07 0.15 0 0.21-0.1 0.21-0.32v-3.15c0-0.23-0.05-0.39-0.16-0.45-0.11-0.07-0.21-0.09-0.5-0.1v-0.1h1.93v0.1c-0.55 0.01-0.66 0.08-0.66 0.42v4.17z"
   id="path1080" />
</g>      </g>
    </g>
  </g>
  <g
     fill="#000000"
     font-family="'STIX Two Text'"
     font-size="16px"
     letter-spacing="0px"
     word-spacing="0px"
     id="g1120">
    <text
       x="266.65051"
       y="29.188"
       style="font-feature-settings:normal;font-variant-caps:normal;font-variant-ligatures:normal;font-variant-numeric:normal;line-height:1.25"
       xml:space="preserve"
       id="text1098"><tspan
         x="266.65051"
         y="29.188"
         id="tspan1090">E.: Expansión.</tspan><tspan
         x="266.65051"
         y="49.188"
         id="tspan1092">C.: Compresión.</tspan><tspan
         x="266.65051"
         y="69.188004"
         id="tspan1094">I.: Isotérmica.</tspan><tspan
         x="266.65051"
         y="89.188004"
         id="tspan1096">A.: Adiabática</tspan></text>
    <text
       x="113"
       y="104"
       style="font-feature-settings:normal;font-variant-caps:normal;font-variant-ligatures:normal;font-variant-numeric:normal;line-height:1.25"
       xml:space="preserve"
       id="text1102"><tspan
         x="113"
         y="104"
         id="tspan1100">E.I.</tspan></text>
    <text
       x="344"
       y="216"
       style="font-feature-settings:normal;font-variant-caps:normal;font-variant-ligatures:normal;font-variant-numeric:normal;line-height:1.25"
       xml:space="preserve"
       id="text1106"><tspan
         x="344"
         y="216"
         id="tspan1104">E.A.</tspan></text>
    <text
       x="260"
       y="245"
       style="font-feature-settings:normal;font-variant-caps:normal;font-variant-ligatures:normal;font-variant-numeric:normal;line-height:1.25"
       xml:space="preserve"
       id="text1110"><tspan
         x="260"
         y="245"
         id="tspan1108">C.I.</tspan></text>
    <text
       x="54"
       y="147"
       style="font-feature-settings:normal;font-variant-caps:normal;font-variant-ligatures:normal;font-variant-numeric:normal;line-height:1.25"
       xml:space="preserve"
       id="text1114"><tspan
         x="54"
         y="147"
         id="tspan1112">C.A.</tspan></text>
    <text
       x="112"
       y="33"
       style="font-feature-settings:normal;font-variant-caps:normal;font-variant-ligatures:normal;font-variant-numeric:normal;line-height:1.25"
       xml:space="preserve"
       id="text1118"><tspan
         x="112"
         y="47.192001"
         id="tspan1116" /></text>
  </g>
  <g
     style="color:#000000;fill:none;stroke:currentColor;stroke-width:1;stroke-linecap:butt;stroke-linejoin:miter"
     id="g1492"
     transform="translate(0,-1.3048539e-5)">
    <circle
       style="color:#000000;fill:#000000;stroke:currentColor;stroke-width:0.49950001"
       r="2.25"
       cy="69.300003"
       cx="64"
       id="use1490" />
  </g>
  <g
     style="color:#000000;fill:none;stroke:currentColor;stroke-width:1;stroke-linecap:butt;stroke-linejoin:miter"
     id="g1504"
     transform="translate(0,-6.6976643e-6)">
    <circle
       style="color:#000000;fill:#000000;stroke:currentColor;stroke-width:0.49950001"
       r="2.25"
       cy="165.39999"
       cx="193.89999"
       id="use1502" />
  </g>
  <g
     style="color:#000000;fill:none;stroke:currentColor;stroke-width:1;stroke-linecap:butt;stroke-linejoin:miter"
     id="g1516"
     transform="translate(6.3540936e-6,-6.6976643e-6)">
    <circle
       style="color:#000000;fill:#000000;stroke:currentColor;stroke-width:0.49950001"
       r="2.25"
       cy="233.89999"
       cx="331.70001"
       id="use1514" />
  </g>
  <g
     style="color:#000000;fill:none;stroke:currentColor;stroke-width:1;stroke-linecap:butt;stroke-linejoin:miter"
     id="g1528"
     transform="translate(0,-6.6976643e-6)">
    <circle
       style="color:#000000;fill:#000000;stroke:currentColor;stroke-width:0.49950001"
       r="2.25"
       cy="178.89999"
       cx="150.10001"
       id="use1526" />
  </g>
</svg>
