<?xml version="1.0" encoding="UTF-8"?>
<!-- Created with Inkscape (http://www.inkscape.org/) -->
<svg width="453.24" height="240" version="1.1" viewBox="0 0 453.24 240" xmlns="http://www.w3.org/2000/svg" xmlns:cc="http://creativecommons.org/ns#" xmlns:dc="http://purl.org/dc/elements/1.1/" xmlns:ns0="http://www.iki.fi/pav/software/textext/" xmlns:rdf="http://www.w3.org/1999/02/22-rdf-syntax-ns#">
 <style type="text/css">
  @import url('../estilo.css');
 </style>
 <metadata>
  <rdf:RDF>
   <cc:Work rdf:about="">
    <dc:format>image/svg+xml</dc:format>
    <dc:type rdf:resource="http://purl.org/dc/dcmitype/StillImage"/>
    <dc:title/>
   </cc:Work>
  </rdf:RDF>
 </metadata>
 <g transform="translate(-99.5 -82.52)">
  <text x="115" y="112.51968" fill="#000000" font-family="'STIX Two Text'" font-size="16px" letter-spacing="0px" word-spacing="0px" style="font-feature-settings:normal;font-variant-caps:normal;font-variant-ligatures:normal;font-variant-numeric:normal;line-height:1.25" xml:space="preserve"><tspan x="115" y="112.51968"><tspan font-family="'STIX Two Text'" font-style="italic">θ</tspan><tspan dy="5" font-size="65%">2</tspan></tspan></text>
  <g transform="translate(-48.87)">
   <path d="m180 225.52c12.697 0 23-10.303 23-23s-10.303-23-23-23-23 10.303-23 23 10.303 23 23 23zm0-1c-12.156 0-22-9.8442-22-22s9.8442-22 22-22 22 9.8442 22 22-9.8442 22-22 22z" color="#000000" color-rendering="auto" dominant-baseline="auto" image-rendering="auto" shape-rendering="auto" solid-color="#000000" style="font-feature-settings:normal;font-variant-alternates:normal;font-variant-caps:normal;font-variant-ligatures:normal;font-variant-numeric:normal;font-variant-position:normal;isolation:auto;mix-blend-mode:normal;shape-padding:0;text-decoration-color:#000000;text-decoration-line:none;text-decoration-style:solid;text-indent:0;text-orientation:mixed;text-transform:none;white-space:normal"/>
   <path d="m162.22 196.5-4.4265 12.037-4.4264-12.037c2.6134 1.9231 6.1889 1.912 8.8529 0z" fill-rule="evenodd"/>
  </g>
  <text x="380.88861" y="306.65567" fill="#000000" font-family="'STIX Two Text'" font-size="16px" letter-spacing="0px" word-spacing="0px" style="font-feature-settings:normal;font-variant-caps:normal;font-variant-ligatures:normal;font-variant-numeric:normal;line-height:1.25" xml:space="preserve"><tspan x="380.88861" y="306.65567"><tspan font-family="'STIX Two Text'" font-style="italic">θ</tspan><tspan dy="5" font-size="65%">1</tspan></tspan></text>
  <path d="m105 317.52v-60h150" fill="none" stroke="#000"/>
  <g>
   <path d="m130.63 147.52v27.02h1v-27.02z" color="#000000" color-rendering="auto" dominant-baseline="auto" image-rendering="auto" shape-rendering="auto" solid-color="#000000" style="font-feature-settings:normal;font-variant-alternates:normal;font-variant-caps:normal;font-variant-ligatures:normal;font-variant-numeric:normal;font-variant-position:normal;isolation:auto;mix-blend-mode:normal;shape-padding:0;text-decoration-color:#000000;text-decoration-line:none;text-decoration-style:solid;text-indent:0;text-orientation:mixed;text-transform:none;white-space:normal"/>
   <path d="m135.57 168-4.4195 12.018-4.4195-12.018c2.6093 1.92 6.1792 1.909 8.839 0z" fill-rule="evenodd"/>
   <path d="m130.63 225.02v30.5h1v-30.5z" color="#000000" color-rendering="auto" dominant-baseline="auto" image-rendering="auto" shape-rendering="auto" solid-color="#000000" style="font-feature-settings:normal;font-variant-alternates:normal;font-variant-caps:normal;font-variant-ligatures:normal;font-variant-numeric:normal;font-variant-position:normal;isolation:auto;mix-blend-mode:normal;shape-padding:0;text-decoration-color:#000000;text-decoration-line:none;text-decoration-style:solid;text-indent:0;text-orientation:mixed;text-transform:none;white-space:normal"/>
   <path d="m135.57 245.5-4.4195 12.018-4.4195-12.018c2.6093 1.92 6.1792 1.909 8.839 0z" fill-rule="evenodd"/>
   <path d="m153.63 202.02v1h32.5v-1z" color="#000000" color-rendering="auto" dominant-baseline="auto" image-rendering="auto" shape-rendering="auto" solid-color="#000000" style="font-feature-settings:normal;font-variant-alternates:normal;font-variant-caps:normal;font-variant-ligatures:normal;font-variant-numeric:normal;font-variant-position:normal;isolation:auto;mix-blend-mode:normal;shape-padding:0;text-decoration-color:#000000;text-decoration-line:none;text-decoration-style:solid;text-indent:0;text-orientation:mixed;text-transform:none;white-space:normal"/>
   <path d="m175.44 198.08 12.018 4.4195-12.018 4.4195c1.92-2.6093 1.909-6.1792 0-8.839z" fill-rule="evenodd"/>
  </g>
  <text x="166.00032" y="222.51981" fill="#000000" font-family="'STIX Two Text'" font-size="16px" letter-spacing="0px" word-spacing="0px" style="font-feature-settings:normal;font-variant-caps:normal;font-variant-ligatures:normal;font-variant-numeric:normal;line-height:1.25" xml:space="preserve"><tspan x="166.00032" y="222.51981" font-family="'STIX Two Text'" font-style="italic">W<tspan dy="5" font-family="'STIX Two Text'" font-size="65%" font-style="normal">X</tspan></tspan></text>
  <g stroke="#000">
   <g id="content" transform="matrix(1.6 0 0 -1.6 -99.19 1219.2)" fill-rule="evenodd" stroke-miterlimit="10.433" stroke-width="0" inkscapeversion="0.92.4" ns0:alignment="middle center" ns0:jacobian_sqrt="1.6" ns0:pdfconverter="pstoedit" ns0:preamble="/home/antonio/.config/inkscape/extensions/textext/default_packages.tex" ns0:scale="1.2" ns0:texconverter="pdflatex" ns0:text="$Q_2$" ns0:version="0.10.0" xml:space="preserve">
<path d="m151.74 657.08h0.07l0.07 0.01h0.07l0.06 0.01h0.07l0.12 0.02 0.05 0.01h0.06l0.06 0.01 0.1 0.02 0.11 0.02 0.09 0.03 0.2 0.06 0.09 0.03 0.09 0.04 0.1 0.04 0.1 0.05 0.05 0.02 0.05 0.03 0.05 0.02 0.05 0.03c1.47 0.83 2.48 2.44 2.48 4.01 0 1.34-0.96 2.31-2.28 2.31l-0.05-0.33c0.8 0 1.28-0.57 1.28-1.52 0-1.05-0.46-2.51-1.1-3.42-0.55-0.79-1.17-1.18-1.9-1.18-0.81 0-1.27 0.61-1.27 1.65 0 0.95 0.49 2.43 1.09 3.29 0.56 0.81 1.17 1.18 1.9 1.18l0.05 0.33c-0.8 0-1.7-0.41-2.5-1.12-1-0.94-1.59-2.14-1.59-3.3 0-0.81 0.3-1.49 0.84-1.91 0.26-0.21 0.48-0.3 0.91-0.4-0.9-0.8-0.99-0.88-1.76-1.41l0.1-0.15c0.38 0.21 0.76 0.3 1.15 0.3 0.19 0 0.48-0.06 0.92-0.18 0.61-0.16 1.15-0.26 1.52-0.26 0.55 0 1.25 0.25 1.75 0.65 0.24 0.18 0.37 0.32 0.63 0.68l-0.15 0.11c-0.56-0.58-0.96-0.77-1.68-0.77-0.26 0-0.47 0.04-1.23 0.22-0.52 0.13-0.99 0.22-1.05 0.21-0.04-0.01-0.06-0.01-0.06-0.01h-0.24z"/>
<path d="m159.49 656.69-0.1 0.04c-0.25-0.4-0.35-0.46-0.66-0.46h-1.67l1.17 1.22c0.63 0.65 0.9 1.18 0.9 1.72 0 0.7-0.57 1.23-1.29 1.23-0.39 0-0.75-0.15-1.01-0.43-0.23-0.24-0.33-0.46-0.45-0.95l0.15-0.04c0.28 0.69 0.53 0.91 1.01 0.91 0.59 0 0.99-0.4 0.99-0.98 0-0.55-0.32-1.19-0.91-1.81l-1.25-1.32v-0.08h2.73z"/>
</g>
   <g transform="matrix(1.6 0 0 -1.6 -99.19 1296.7)" fill-rule="evenodd" stroke-miterlimit="10.433" stroke-width="0" inkscapeversion="0.92.4" ns0:alignment="middle center" ns0:jacobian_sqrt="1.6" ns0:pdfconverter="pstoedit" ns0:preamble="/home/antonio/.config/inkscape/extensions/textext/default_packages.tex" ns0:scale="1.2" ns0:texconverter="pdflatex" ns0:text="$Q_1$" ns0:version="0.10.0" xml:space="preserve">
<path d="m151.74 657.08h0.07l0.07 0.01h0.07l0.06 0.01h0.07l0.12 0.02 0.05 0.01h0.06l0.06 0.01 0.1 0.02 0.11 0.02 0.09 0.03 0.2 0.06 0.09 0.03 0.09 0.04 0.1 0.04 0.1 0.05 0.05 0.02 0.05 0.03 0.05 0.02 0.05 0.03c1.47 0.83 2.48 2.44 2.48 4.01 0 1.34-0.96 2.31-2.28 2.31l-0.05-0.33c0.8 0 1.28-0.57 1.28-1.52 0-1.05-0.46-2.51-1.1-3.42-0.55-0.79-1.17-1.18-1.9-1.18-0.81 0-1.27 0.61-1.27 1.65 0 0.95 0.49 2.43 1.09 3.29 0.56 0.81 1.17 1.18 1.9 1.18l0.05 0.33c-0.8 0-1.7-0.41-2.5-1.12-1-0.94-1.59-2.14-1.59-3.3 0-0.81 0.3-1.49 0.84-1.91 0.26-0.21 0.48-0.3 0.91-0.4-0.9-0.8-0.99-0.88-1.76-1.41l0.1-0.15c0.38 0.21 0.76 0.3 1.15 0.3 0.19 0 0.48-0.06 0.92-0.18 0.61-0.16 1.15-0.26 1.52-0.26 0.55 0 1.25 0.25 1.75 0.65 0.24 0.18 0.37 0.32 0.63 0.68l-0.15 0.11c-0.56-0.58-0.96-0.77-1.68-0.77-0.26 0-0.47 0.04-1.23 0.22-0.52 0.13-0.99 0.22-1.05 0.21-0.04-0.01-0.06-0.01-0.06-0.01h-0.24z"/>
<path d="m158.2 660.44-1.26-0.63v-0.1c0.08 0.04 0.16 0.06 0.19 0.08 0.13 0.05 0.24 0.07 0.31 0.07 0.15 0 0.21-0.1 0.21-0.32v-3.15c0-0.23-0.05-0.39-0.16-0.45-0.11-0.07-0.21-0.09-0.5-0.1v-0.1h1.93v0.1c-0.55 0.01-0.66 0.08-0.66 0.42v4.17z"/>
</g>
   <g fill="none">
    <path d="m255 147.52h-150v-60"/>
    <path d="m405 87.52v60h-150"/>
    <path d="m255 257.52h150v60"/>
   </g>
  </g>
  <text x="125.83405" y="207.77553" fill="#000000" font-family="'STIX Two Text'" font-size="16px" letter-spacing="0px" word-spacing="0px" style="font-feature-settings:normal;font-variant-caps:normal;font-variant-ligatures:normal;font-variant-numeric:normal;line-height:1.25" xml:space="preserve"><tspan x="125.83405" y="207.77553">X</tspan></text>
  <text x="318.93265" y="207.68753" fill="#000000" font-family="'STIX Two Text'" font-size="16px" letter-spacing="0px" word-spacing="0px" style="font-feature-settings:normal;font-variant-caps:normal;font-variant-ligatures:normal;font-variant-numeric:normal;line-height:1.25" xml:space="preserve"><tspan x="318.93265" y="207.68753" font-family="'STIX Two Math'">≡</tspan></text>
  <g transform="rotate(180 354.51 163.77)">
   <path d="m329.5 147.52v27.02h1v-27.02z" color="#000000" color-rendering="auto" dominant-baseline="auto" image-rendering="auto" shape-rendering="auto" solid-color="#000000" style="font-feature-settings:normal;font-variant-alternates:normal;font-variant-caps:normal;font-variant-ligatures:normal;font-variant-numeric:normal;font-variant-position:normal;isolation:auto;mix-blend-mode:normal;shape-padding:0;text-decoration-color:#000000;text-decoration-line:none;text-decoration-style:solid;text-indent:0;text-orientation:mixed;text-transform:none;white-space:normal"/>
   <path d="m334.44 168-4.4195 12.018-4.4195-12.018c2.6093 1.92 6.1792 1.909 8.839 0z" fill-rule="evenodd"/>
  </g>
  <g transform="rotate(180 354.51 241.27)">
   <path d="m329.5 225.02v30.5h1v-30.5z" color="#000000" color-rendering="auto" dominant-baseline="auto" image-rendering="auto" shape-rendering="auto" solid-color="#000000" style="font-feature-settings:normal;font-variant-alternates:normal;font-variant-caps:normal;font-variant-ligatures:normal;font-variant-numeric:normal;font-variant-position:normal;isolation:auto;mix-blend-mode:normal;shape-padding:0;text-decoration-color:#000000;text-decoration-line:none;text-decoration-style:solid;text-indent:0;text-orientation:mixed;text-transform:none;white-space:normal"/>
   <path d="m334.44 245.5-4.4195 12.018-4.4195-12.018c2.6093 1.92 6.1792 1.909 8.839 0z" fill-rule="evenodd"/>
  </g>
  <path d="m414 206.88-12.018-4.4195 12.018-4.4195c-1.92 2.6093-1.909 6.1792 0 8.839z" fill-rule="evenodd"/>
  <text x="438.48239" y="207.68753" fill="#000000" font-family="'STIX Two Text'" font-size="16px" letter-spacing="0px" word-spacing="0px" style="font-feature-settings:normal;font-variant-caps:normal;font-variant-ligatures:normal;font-variant-numeric:normal;line-height:1.25" xml:space="preserve"><tspan x="438.48239" y="207.68753"><tspan font-family="'STIX Two Text'">|</tspan><tspan font-style="italic">W</tspan><tspan font-family="'STIX Two Text'"><tspan dy="5" font-size="65%">C</tspan><tspan dy="-5">| − |</tspan></tspan><tspan font-style="italic">W</tspan><tspan font-family="'STIX Two Text'"><tspan dy="5" font-size="65%">X</tspan><tspan dy="-5">|</tspan></tspan><tspan font-family="'STIX Two Text'"> = 0</tspan></tspan></text>
  <g stroke="#000">
   <path d="m435.78 202.48h-29.299" fill="none" stroke-dasharray="2, 2"/>
   <g transform="matrix(1.6 0 0 -1.6 147.92 1218.2)" fill-rule="evenodd" stroke-miterlimit="10.433" stroke-width="0" inkscapeversion="0.92.4" ns0:alignment="middle center" ns0:jacobian_sqrt="1.6" ns0:pdfconverter="pstoedit" ns0:preamble="/home/antonio/.config/inkscape/extensions/textext/default_packages.tex" ns0:scale="1.2" ns0:texconverter="pdflatex" ns0:text="$|Q_2| - |Q_2\'\'|$" ns0:version="0.10.0" xml:space="preserve">
<polygon points="149.43 663.96 149.43 655.62 149.99 655.62 149.99 663.96"/>
<path d="m153.74 657.08h0.07l0.07 0.01h0.06l0.07 0.01h0.06l0.18 0.03h0.05l0.06 0.01 0.05 0.01 0.06 0.01 0.1 0.02 0.1 0.03 0.09 0.03 0.1 0.03 0.09 0.03 0.1 0.04 0.09 0.04 0.1 0.05 0.05 0.02 0.05 0.03 0.05 0.02 0.05 0.03c1.48 0.83 2.48 2.44 2.48 4.01 0 1.34-0.95 2.31-2.28 2.31l-0.05-0.33c0.8 0 1.29-0.57 1.29-1.52 0-1.05-0.47-2.51-1.11-3.42-0.55-0.79-1.17-1.18-1.89-1.18-0.81 0-1.28 0.61-1.28 1.65 0 0.95 0.49 2.43 1.1 3.29 0.56 0.81 1.16 1.18 1.89 1.18l0.05 0.33c-0.8 0-1.69-0.41-2.49-1.12-1.01-0.94-1.6-2.14-1.6-3.3 0-0.81 0.3-1.49 0.84-1.91 0.26-0.21 0.48-0.3 0.92-0.4-0.91-0.8-1-0.88-1.77-1.41l0.1-0.15c0.38 0.21 0.76 0.3 1.15 0.3 0.2 0 0.49-0.06 0.93-0.18 0.6-0.16 1.14-0.26 1.51-0.26 0.55 0 1.25 0.25 1.76 0.65 0.24 0.18 0.37 0.32 0.63 0.68l-0.15 0.11c-0.56-0.58-0.97-0.77-1.69-0.77-0.26 0-0.47 0.04-1.23 0.22-0.51 0.13-0.98 0.22-1.04 0.21-0.04-0.01-0.06-0.01-0.06-0.01h-0.25z"/>
<path d="m161.48 656.69-0.09 0.04c-0.26-0.4-0.35-0.46-0.67-0.46h-1.67l1.18 1.22c0.62 0.65 0.89 1.18 0.89 1.72 0 0.7-0.57 1.23-1.29 1.23-0.39 0-0.75-0.15-1.01-0.43-0.22-0.24-0.33-0.46-0.45-0.95l0.15-0.04c0.28 0.69 0.53 0.91 1.01 0.91 0.59 0 0.99-0.4 0.99-0.98 0-0.55-0.32-1.19-0.91-1.81l-1.24-1.32v-0.08h2.72z"/>
<polygon points="162.86 663.96 162.86 655.62 163.42 655.62 163.42 663.96"/>
<polygon points="166.96 660.07 166.96 659.51 172.07 659.51 172.07 660.07"/>
<polygon points="175.61 663.96 175.61 655.62 176.17 655.62 176.17 663.96"/>
<path d="m179.92 657.08h0.07l0.07 0.01h0.07l0.06 0.01h0.07l0.12 0.02 0.05 0.01h0.06l0.06 0.01 0.2 0.04 0.2 0.06 0.09 0.03 0.1 0.03 0.09 0.04 0.1 0.04 0.14 0.07 0.05 0.03 0.06 0.02 0.05 0.03c1.47 0.83 2.48 2.44 2.48 4.01 0 1.34-0.96 2.31-2.28 2.31l-0.05-0.33c0.79 0 1.28-0.57 1.28-1.52 0-1.05-0.46-2.51-1.1-3.42-0.55-0.79-1.17-1.18-1.9-1.18-0.81 0-1.27 0.61-1.27 1.65 0 0.95 0.48 2.43 1.09 3.29 0.56 0.81 1.17 1.18 1.9 1.18l0.05 0.33c-0.8 0-1.7-0.41-2.5-1.12-1-0.94-1.59-2.14-1.59-3.3 0-0.81 0.3-1.49 0.84-1.91 0.26-0.21 0.47-0.3 0.91-0.4-0.9-0.8-0.99-0.88-1.76-1.41l0.1-0.15c0.38 0.21 0.76 0.3 1.15 0.3 0.19 0 0.48-0.06 0.92-0.18 0.61-0.16 1.15-0.26 1.52-0.26 0.55 0 1.24 0.25 1.75 0.65 0.24 0.18 0.37 0.32 0.63 0.68l-0.15 0.11c-0.56-0.58-0.97-0.77-1.68-0.77-0.26 0-0.47 0.04-1.23 0.22-0.52 0.13-0.99 0.22-1.05 0.21-0.04-0.01-0.06-0.01-0.06-0.01h-0.25z"/>
<path d="m186.42 663.71v0.04l-0.01 0.03v0.02l-0.01 0.02v0.02l-0.02 0.04-0.03 0.03-0.02 0.04-0.02 0.01-0.01 0.02-0.02 0.01-0.01 0.02-0.18 0.09h-0.02l-0.02 0.01h-0.02l-0.02 0.01h-0.07c-0.25 0-0.38-0.25-0.45-0.46l-0.73-2.11c-0.02-0.05-0.07-0.18-0.07-0.24s0.05-0.15 0.11-0.15c0.11 0 0.23 0.15 0.28 0.23l1.14 1.8c0.1 0.14 0.2 0.34 0.2 0.52z"/>
<path d="m188.84 663.71v0.04l-0.01 0.03v0.02l-0.02 0.04v0.02l-0.01 0.02-0.03 0.03-0.02 0.04-0.02 0.01-0.01 0.02-0.02 0.01-0.01 0.02-0.18 0.09h-0.02l-0.02 0.01h-0.02l-0.02 0.01h-0.07c-0.26 0-0.38-0.25-0.45-0.46l-0.73-2.11c-0.02-0.05-0.07-0.18-0.07-0.24s0.04-0.15 0.11-0.15c0.11 0 0.23 0.15 0.28 0.23l1.14 1.8c0.1 0.14 0.2 0.34 0.2 0.52z"/>
<path d="m187.66 654.91-0.09 0.03c-0.25-0.39-0.35-0.46-0.66-0.46h-1.67l1.17 1.23c0.63 0.64 0.9 1.17 0.9 1.71 0 0.7-0.57 1.24-1.3 1.24-0.38 0-0.74-0.16-1-0.44-0.23-0.23-0.33-0.45-0.45-0.95l0.15-0.03c0.28 0.68 0.53 0.9 1.01 0.9 0.59 0 0.99-0.4 0.99-0.98 0-0.54-0.33-1.19-0.91-1.81l-1.25-1.31v-0.08h2.73z"/>
<polygon points="190.4 663.96 190.4 655.62 190.96 655.62 190.96 663.96"/>
</g>
   <g transform="matrix(1.6 0 0 -1.6 147.92 1295.7)" fill-rule="evenodd" stroke-miterlimit="10.433" stroke-width="0" inkscapeversion="0.92.4" ns0:alignment="middle center" ns0:jacobian_sqrt="1.6" ns0:pdfconverter="pstoedit" ns0:preamble="/home/antonio/.config/inkscape/extensions/textext/default_packages.tex" ns0:scale="1.2" ns0:texconverter="pdflatex" ns0:text="$|Q_1\'\'| - |Q_1|$" ns0:version="0.10.0" xml:space="preserve">
<polygon points="149.43 663.96 149.43 655.62 149.99 655.62 149.99 663.96"/>
<path d="m153.74 657.08h0.07l0.07 0.01h0.06l0.07 0.01h0.06l0.18 0.03h0.05l0.06 0.01 0.05 0.01 0.06 0.01 0.1 0.02 0.1 0.03 0.09 0.03 0.1 0.03 0.09 0.03 0.1 0.04 0.09 0.04 0.1 0.05 0.05 0.02 0.05 0.03 0.05 0.02 0.05 0.03c1.48 0.83 2.48 2.44 2.48 4.01 0 1.34-0.95 2.31-2.28 2.31l-0.05-0.33c0.8 0 1.29-0.57 1.29-1.52 0-1.05-0.47-2.51-1.11-3.42-0.55-0.79-1.17-1.18-1.89-1.18-0.81 0-1.28 0.61-1.28 1.65 0 0.95 0.49 2.43 1.1 3.29 0.56 0.81 1.16 1.18 1.89 1.18l0.05 0.33c-0.8 0-1.69-0.41-2.49-1.12-1.01-0.94-1.6-2.14-1.6-3.3 0-0.81 0.3-1.49 0.84-1.91 0.26-0.21 0.48-0.3 0.92-0.4-0.91-0.8-1-0.88-1.77-1.41l0.1-0.15c0.38 0.21 0.76 0.3 1.15 0.3 0.2 0 0.49-0.06 0.93-0.18 0.6-0.16 1.14-0.26 1.51-0.26 0.55 0 1.25 0.25 1.76 0.65 0.24 0.18 0.37 0.32 0.63 0.68l-0.15 0.11c-0.56-0.58-0.97-0.77-1.69-0.77-0.26 0-0.47 0.04-1.23 0.22-0.51 0.13-0.98 0.22-1.04 0.21-0.04-0.01-0.06-0.01-0.06-0.01h-0.25z"/>
<path d="m160.23 663.71v0.07l-0.01 0.02v0.02l-0.03 0.06-0.01 0.01-0.02 0.04-0.08 0.08-0.04 0.02-0.01 0.01-0.12 0.06h-0.02l-0.03 0.01h-0.02l-0.02 0.01h-0.06c-0.26 0-0.39-0.25-0.46-0.46l-0.72-2.11c-0.02-0.05-0.07-0.18-0.07-0.24s0.04-0.15 0.11-0.15c0.1 0 0.22 0.15 0.27 0.23l1.15 1.8c0.1 0.14 0.19 0.34 0.19 0.52z"/>
<path d="m162.65 663.71v0.07l-0.01 0.02v0.02l-0.03 0.06-0.01 0.01-0.02 0.04-0.08 0.08-0.04 0.02-0.01 0.01-0.12 0.06h-0.02l-0.03 0.01h-0.02l-0.02 0.01h-0.06c-0.26 0-0.39-0.25-0.46-0.46l-0.72-2.11c-0.02-0.05-0.07-0.18-0.07-0.24s0.04-0.15 0.11-0.15c0.1 0 0.22 0.15 0.27 0.23l1.15 1.8c0.1 0.14 0.19 0.34 0.19 0.52z"/>
<path d="m160.19 658.66-1.26-0.64v-0.09c0.09 0.03 0.16 0.06 0.19 0.07 0.13 0.05 0.25 0.08 0.32 0.08 0.14 0 0.21-0.11 0.21-0.33v-3.15c0-0.23-0.06-0.39-0.17-0.45s-0.2-0.08-0.5-0.09v-0.1h1.93v0.1c-0.55 0.01-0.66 0.08-0.66 0.41v4.17z"/>
<polygon points="164.21 663.96 164.21 655.62 164.77 655.62 164.77 663.96"/>
<polygon points="168.32 660.07 168.32 659.51 173.42 659.51 173.42 660.07"/>
<polygon points="176.96 663.96 176.96 655.62 177.52 655.62 177.52 663.96"/>
<path d="m181.27 657.08h0.08l0.06 0.01h0.07l0.07 0.01h0.06l0.18 0.03h0.05l0.06 0.01 0.1 0.02 0.11 0.02 0.1 0.03 0.09 0.03 0.1 0.03 0.09 0.03 0.1 0.04 0.09 0.04 0.1 0.05 0.05 0.02 0.05 0.03 0.05 0.02 0.05 0.03c1.48 0.83 2.48 2.44 2.48 4.01 0 1.34-0.95 2.31-2.28 2.31l-0.05-0.33c0.8 0 1.29-0.57 1.29-1.52 0-1.05-0.47-2.51-1.11-3.42-0.55-0.79-1.17-1.18-1.9-1.18-0.8 0-1.27 0.61-1.27 1.65 0 0.95 0.49 2.43 1.1 3.29 0.55 0.81 1.16 1.18 1.89 1.18l0.05 0.33c-0.8 0-1.69-0.41-2.49-1.12-1.01-0.94-1.6-2.14-1.6-3.3 0-0.81 0.3-1.49 0.84-1.91 0.26-0.2 0.48-0.3 0.92-0.4-0.91-0.8-1-0.88-1.77-1.41l0.1-0.15c0.38 0.21 0.76 0.3 1.15 0.3 0.2 0 0.49-0.06 0.93-0.18 0.6-0.16 1.14-0.26 1.51-0.26 0.55 0 1.25 0.25 1.76 0.65 0.23 0.18 0.37 0.32 0.62 0.68l-0.14 0.11c-0.56-0.58-0.97-0.77-1.69-0.77-0.26 0-0.47 0.04-1.23 0.22-0.52 0.13-0.98 0.22-1.04 0.21-0.04-0.01-0.06-0.01-0.06-0.01h-0.25z"/>
<path d="m187.73 660.44-1.26-0.63v-0.1c0.09 0.04 0.16 0.06 0.19 0.08 0.13 0.05 0.25 0.07 0.32 0.07 0.14 0 0.2-0.1 0.2-0.32v-3.15c0-0.23-0.05-0.39-0.16-0.45-0.11-0.07-0.2-0.09-0.5-0.1v-0.1h1.93v0.1c-0.55 0.01-0.66 0.08-0.66 0.42v4.17z"/>
<polygon points="190.4 663.96 190.4 655.62 190.96 655.62 190.96 663.96"/>
</g>
  </g>
  <g transform="rotate(180 300.07 163.77)">
   <path d="m329.5 147.52v27.02h1v-27.02z" color="#000000" color-rendering="auto" dominant-baseline="auto" image-rendering="auto" shape-rendering="auto" solid-color="#000000" style="font-feature-settings:normal;font-variant-alternates:normal;font-variant-caps:normal;font-variant-ligatures:normal;font-variant-numeric:normal;font-variant-position:normal;isolation:auto;mix-blend-mode:normal;shape-padding:0;text-decoration-color:#000000;text-decoration-line:none;text-decoration-style:solid;text-indent:0;text-orientation:mixed;text-transform:none;white-space:normal"/>
   <path d="m334.44 168-4.4195 12.018-4.4195-12.018c2.6093 1.92 6.1792 1.909 8.839 0z" fill-rule="evenodd"/>
  </g>
  <g transform="rotate(180 300.07 241.27)">
   <path d="m329.5 225.02v30.5h1v-30.5z" color="#000000" color-rendering="auto" dominant-baseline="auto" image-rendering="auto" shape-rendering="auto" solid-color="#000000" style="font-feature-settings:normal;font-variant-alternates:normal;font-variant-caps:normal;font-variant-ligatures:normal;font-variant-numeric:normal;font-variant-position:normal;isolation:auto;mix-blend-mode:normal;shape-padding:0;text-decoration-color:#000000;text-decoration-line:none;text-decoration-style:solid;text-indent:0;text-orientation:mixed;text-transform:none;white-space:normal"/>
   <path d="m334.44 245.5-4.4195 12.018-4.4195-12.018c2.6093 1.92 6.1792 1.909 8.839 0z" fill-rule="evenodd"/>
  </g>
  <text x="212.18295" y="192.51981" fill="#000000" font-family="'STIX Two Text'" font-size="16px" letter-spacing="0px" word-spacing="0px" style="font-feature-settings:normal;font-variant-caps:normal;font-variant-ligatures:normal;font-variant-numeric:normal;line-height:1.25" xml:space="preserve"><tspan x="212.18295" y="192.51981" font-family="'STIX Two Text'" font-style="italic">W<tspan dy="5" font-family="'STIX Two Text'" font-size="65%" font-style="normal">C</tspan></tspan></text>
  <text x="264.64297" y="207.78352" fill="#000000" font-family="'STIX Two Text'" font-size="16px" letter-spacing="0px" word-spacing="0px" style="font-feature-settings:normal;font-variant-caps:normal;font-variant-ligatures:normal;font-variant-numeric:normal;line-height:1.25" xml:space="preserve"><tspan x="264.64297" y="207.78352">C</tspan></text>
  <g transform="translate(90.099)">
   <path d="m180 225.52c12.697 0 23-10.303 23-23s-10.303-23-23-23-23 10.303-23 23 10.303 23 23 23zm0-1c-12.156 0-22-9.8442-22-22s9.8442-22 22-22 22 9.8442 22 22-9.8442 22-22 22z" color="#000000" color-rendering="auto" dominant-baseline="auto" image-rendering="auto" shape-rendering="auto" solid-color="#000000" style="font-feature-settings:normal;font-variant-alternates:normal;font-variant-caps:normal;font-variant-ligatures:normal;font-variant-numeric:normal;font-variant-position:normal;isolation:auto;mix-blend-mode:normal;shape-padding:0;text-decoration-color:#000000;text-decoration-line:none;text-decoration-style:solid;text-indent:0;text-orientation:mixed;text-transform:none;white-space:normal"/>
   <path d="m206.63 196.5-4.4265 12.037-4.4264-12.037c2.6134 1.9231 6.1889 1.912 8.8529 0z" fill-rule="evenodd"/>
  </g>
  <g transform="matrix(1.6 0 0 -1.6 38.843 1218.2)" fill-rule="evenodd" stroke="#000" stroke-miterlimit="10.433" stroke-width="0" inkscapeversion="0.92.4" ns0:alignment="middle center" ns0:jacobian_sqrt="1.6" ns0:pdfconverter="pstoedit" ns0:preamble="/home/antonio/.config/inkscape/extensions/textext/default_packages.tex" ns0:scale="1.2" ns0:texconverter="pdflatex" ns0:text="$Q_2\'\'$" ns0:version="0.10.0" xml:space="preserve">
<path d="m151.74 657.08h0.07l0.07 0.01h0.07l0.06 0.01h0.07l0.12 0.02 0.05 0.01h0.06l0.06 0.01 0.1 0.02 0.11 0.02 0.09 0.03 0.2 0.06 0.09 0.03 0.09 0.04 0.1 0.04 0.1 0.05 0.05 0.02 0.05 0.03 0.05 0.02 0.05 0.03c1.47 0.83 2.48 2.44 2.48 4.01 0 1.34-0.96 2.31-2.28 2.31l-0.05-0.33c0.8 0 1.28-0.57 1.28-1.52 0-1.05-0.46-2.51-1.1-3.42-0.55-0.79-1.17-1.18-1.9-1.18-0.81 0-1.27 0.61-1.27 1.65 0 0.95 0.49 2.43 1.09 3.29 0.56 0.81 1.17 1.18 1.9 1.18l0.05 0.33c-0.8 0-1.7-0.41-2.5-1.12-1-0.94-1.59-2.14-1.59-3.3 0-0.81 0.3-1.49 0.84-1.91 0.26-0.21 0.48-0.3 0.91-0.4-0.9-0.8-0.99-0.88-1.76-1.41l0.1-0.15c0.38 0.21 0.76 0.3 1.15 0.3 0.19 0 0.48-0.06 0.92-0.18 0.61-0.16 1.15-0.26 1.52-0.26 0.55 0 1.25 0.25 1.75 0.65 0.24 0.18 0.37 0.32 0.63 0.68l-0.15 0.11c-0.56-0.58-0.96-0.77-1.68-0.77-0.26 0-0.47 0.04-1.23 0.22-0.52 0.13-0.99 0.22-1.05 0.21-0.04-0.01-0.06-0.01-0.06-0.01h-0.24z"/>
<path d="m158.24 663.71v0.04l-0.01 0.03v0.02l-0.01 0.02v0.02l-0.02 0.04-0.01 0.01-0.01 0.02-0.02 0.02-0.01 0.02-0.03 0.03-0.02 0.01-0.01 0.02-0.18 0.09h-0.02l-0.02 0.01h-0.02l-0.02 0.01h-0.07c-0.25 0-0.38-0.25-0.45-0.46l-0.73-2.11c-0.02-0.05-0.07-0.18-0.07-0.24s0.05-0.15 0.11-0.15c0.11 0 0.23 0.15 0.28 0.23l1.14 1.8c0.1 0.14 0.2 0.34 0.2 0.52z"/>
<path d="m160.66 663.71v0.04l-0.01 0.03v0.02l-0.01 0.02v0.02l-0.02 0.04-0.03 0.03-0.02 0.04-0.02 0.01-0.01 0.02-0.02 0.01-0.01 0.02-0.18 0.09h-0.02l-0.02 0.01h-0.02l-0.02 0.01h-0.07c-0.25 0-0.38-0.25-0.45-0.46l-0.73-2.11c-0.02-0.05-0.07-0.18-0.07-0.24s0.05-0.15 0.11-0.15c0.11 0 0.23 0.15 0.28 0.23l1.14 1.8c0.1 0.14 0.2 0.34 0.2 0.52z"/>
<path d="m159.49 654.91-0.1 0.03c-0.25-0.39-0.35-0.46-0.66-0.46h-1.67l1.17 1.23c0.63 0.64 0.9 1.17 0.9 1.71 0 0.7-0.57 1.24-1.29 1.24-0.39 0-0.75-0.16-1.01-0.44-0.23-0.23-0.33-0.45-0.45-0.95l0.15-0.03c0.28 0.68 0.53 0.9 1.01 0.9 0.59 0 0.99-0.4 0.99-0.98 0-0.54-0.32-1.19-0.91-1.81l-1.25-1.31v-0.08h2.73z"/>
</g>
  <g transform="matrix(1.6 0 0 -1.6 38.843 1295.7)" fill-rule="evenodd" stroke="#000" stroke-miterlimit="10.433" stroke-width="0" inkscapeversion="0.92.4" ns0:alignment="middle center" ns0:jacobian_sqrt="1.6" ns0:pdfconverter="pstoedit" ns0:preamble="/home/antonio/.config/inkscape/extensions/textext/default_packages.tex" ns0:scale="1.2" ns0:texconverter="pdflatex" ns0:text="$Q_1\'\'$" ns0:version="0.10.0" xml:space="preserve">
<path d="m151.74 657.08h0.07l0.07 0.01h0.07l0.06 0.01h0.07l0.12 0.02 0.05 0.01h0.06l0.06 0.01 0.1 0.02 0.11 0.02 0.09 0.03 0.2 0.06 0.09 0.03 0.09 0.04 0.1 0.04 0.1 0.05 0.05 0.02 0.05 0.03 0.05 0.02 0.05 0.03c1.47 0.83 2.48 2.44 2.48 4.01 0 1.34-0.96 2.31-2.28 2.31l-0.05-0.33c0.8 0 1.28-0.57 1.28-1.52 0-1.05-0.46-2.51-1.1-3.42-0.55-0.79-1.17-1.18-1.9-1.18-0.81 0-1.27 0.61-1.27 1.65 0 0.95 0.49 2.43 1.09 3.29 0.56 0.81 1.17 1.18 1.9 1.18l0.05 0.33c-0.8 0-1.7-0.41-2.5-1.12-1-0.94-1.59-2.14-1.59-3.3 0-0.81 0.3-1.49 0.84-1.91 0.26-0.21 0.48-0.3 0.91-0.4-0.9-0.8-0.99-0.88-1.76-1.41l0.1-0.15c0.38 0.21 0.76 0.3 1.15 0.3 0.19 0 0.48-0.06 0.92-0.18 0.61-0.16 1.15-0.26 1.52-0.26 0.55 0 1.25 0.25 1.75 0.65 0.24 0.18 0.37 0.32 0.63 0.68l-0.15 0.11c-0.56-0.58-0.96-0.77-1.68-0.77-0.26 0-0.47 0.04-1.23 0.22-0.52 0.13-0.99 0.22-1.05 0.21-0.04-0.01-0.06-0.01-0.06-0.01h-0.24z"/>
<path d="m158.24 663.71v0.04l-0.01 0.03v0.02l-0.01 0.02v0.02l-0.02 0.04-0.01 0.01-0.01 0.02-0.02 0.02-0.01 0.02-0.03 0.03-0.02 0.01-0.01 0.02-0.18 0.09h-0.02l-0.02 0.01h-0.02l-0.02 0.01h-0.07c-0.25 0-0.38-0.25-0.45-0.46l-0.73-2.11c-0.02-0.05-0.07-0.18-0.07-0.24s0.05-0.15 0.11-0.15c0.11 0 0.23 0.15 0.28 0.23l1.14 1.8c0.1 0.14 0.2 0.34 0.2 0.52z"/>
<path d="m160.66 663.71v0.04l-0.01 0.03v0.02l-0.01 0.02v0.02l-0.02 0.04-0.03 0.03-0.02 0.04-0.02 0.01-0.01 0.02-0.02 0.01-0.01 0.02-0.18 0.09h-0.02l-0.02 0.01h-0.02l-0.02 0.01h-0.07c-0.25 0-0.38-0.25-0.45-0.46l-0.73-2.11c-0.02-0.05-0.07-0.18-0.07-0.24s0.05-0.15 0.11-0.15c0.11 0 0.23 0.15 0.28 0.23l1.14 1.8c0.1 0.14 0.2 0.34 0.2 0.52z"/>
<path d="m158.2 658.66-1.26-0.64v-0.09c0.08 0.03 0.16 0.06 0.19 0.07 0.13 0.05 0.24 0.08 0.31 0.08 0.15 0 0.21-0.11 0.21-0.33v-3.15c0-0.23-0.05-0.39-0.16-0.45s-0.21-0.08-0.5-0.09v-0.1h1.93v0.1c-0.55 0.01-0.66 0.08-0.66 0.41v4.17z"/>
</g>
  <g>
   <path d="m213.27 202.02v1h32.5v-1z" color="#000000" color-rendering="auto" dominant-baseline="auto" image-rendering="auto" shape-rendering="auto" solid-color="#000000" style="font-feature-settings:normal;font-variant-alternates:normal;font-variant-caps:normal;font-variant-ligatures:normal;font-variant-numeric:normal;font-variant-position:normal;isolation:auto;mix-blend-mode:normal;shape-padding:0;text-decoration-color:#000000;text-decoration-line:none;text-decoration-style:solid;text-indent:0;text-orientation:mixed;text-transform:none;white-space:normal"/>
   <path d="m235.08 198.08 12.018 4.4195-12.018 4.4195c1.92-2.6093 1.909-6.1792 0-8.839z" fill-rule="evenodd"/>
   <text x="194.60451" y="207.78352" fill="#000000" font-family="'STIX Two Text'" font-size="16px" letter-spacing="0px" word-spacing="0px" style="font-feature-settings:normal;font-variant-caps:normal;font-variant-ligatures:normal;font-variant-numeric:normal;line-height:1.25" xml:space="preserve"><tspan x="194.60451" y="207.78352">+</tspan></text>
  </g>
  <path d="m255 257.52h150v60" fill="none" stroke="#000"/>
  <g transform="translate(198.98 -2e-6)">
   <path d="m180 225.52c12.697 0 23-10.303 23-23s-10.303-23-23-23-23 10.303-23 23 10.303 23 23 23zm0-1c-12.156 0-22-9.8442-22-22s9.8442-22 22-22 22 9.8442 22 22-9.8442 22-22 22z" color="#000000" color-rendering="auto" dominant-baseline="auto" image-rendering="auto" shape-rendering="auto" solid-color="#000000" style="font-feature-settings:normal;font-variant-alternates:normal;font-variant-caps:normal;font-variant-ligatures:normal;font-variant-numeric:normal;font-variant-position:normal;isolation:auto;mix-blend-mode:normal;shape-padding:0;text-decoration-color:#000000;text-decoration-line:none;text-decoration-style:solid;text-indent:0;text-orientation:mixed;text-transform:none;white-space:normal"/>
   <path d="m153.37 208.54 4.4265-12.037 4.4264 12.037c-2.6134-1.9231-6.1889-1.912-8.8529 0z" fill-rule="evenodd"/>
  </g>
 </g>
</svg>
