<?xml version="1.0" encoding="UTF-8"?>
<!-- Created with Inkscape (http://www.inkscape.org/) -->
<svg width="297.77" height="315.67" version="1.1" viewBox="0 0 297.77 315.67" xmlns="http://www.w3.org/2000/svg" xmlns:cc="http://creativecommons.org/ns#" xmlns:dc="http://purl.org/dc/elements/1.1/" xmlns:ns0="http://www.iki.fi/pav/software/textext/" xmlns:rdf="http://www.w3.org/1999/02/22-rdf-syntax-ns#" xmlns:xlink="http://www.w3.org/1999/xlink">
 <style type="text/css">
	 @import url('../estilo.css');
 </style>
 <defs>
  <marker id="TriangleOutL" overflow="visible" orient="auto">
   <path transform="scale(.8)" d="m5.77 0-8.65 5v-10z" fill-rule="evenodd" stroke="#000" stroke-width="1pt"/>
  </marker>
  <pattern id="pattern2497-35-242-52" patternTransform="scale(4.1279)" xlink:href="#Polkadots-med-628-301-35"/>
  <pattern id="Polkadots-med-628-301-35" width="10" height="10" patternTransform="translate(0) scale(10)" patternUnits="userSpaceOnUse">
   <circle cx="2.567" cy=".81" r=".15" fill="#ff2a2a"/>
   <circle cx="3.048" cy="2.33" r=".15" fill="#ff2a2a"/>
   <circle cx="4.418" cy="2.415" r=".15" fill="#ff2a2a"/>
   <circle cx="1.844" cy="3.029" r=".15" fill="#ff2a2a"/>
   <circle cx="6.08" cy="1.363" r=".15" fill="#ff2a2a"/>
   <circle cx="5.819" cy="4.413" r=".15" fill="#ff2a2a"/>
   <circle cx="4.305" cy="4.048" r=".15" fill="#ff2a2a"/>
   <circle cx="5.541" cy="3.045" r=".15" fill="#ff2a2a"/>
   <circle cx="4.785" cy="5.527" r=".15" fill="#ff2a2a"/>
   <circle cx="2.667" cy="5.184" r=".15" fill="#ff2a2a"/>
   <circle cx="7.965" cy="1.448" r=".15" fill="#ff2a2a"/>
   <circle cx="7.047" cy="5.049" r=".15" fill="#ff2a2a"/>
   <circle cx="4.34" cy=".895" r=".15" fill="#ff2a2a"/>
   <circle cx="7.125" cy=".34" r=".15" fill="#ff2a2a"/>
   <circle cx="9.553" cy="1.049" r=".15" fill="#ff2a2a"/>
   <circle cx="7.006" cy="2.689" r=".15" fill="#ff2a2a"/>
   <circle cx="8.909" cy="2.689" r=".15" fill="#ff2a2a"/>
   <circle cx="9.315" cy="4.407" r=".15" fill="#ff2a2a"/>
   <circle cx="7.82" cy="3.87" r=".15" fill="#ff2a2a"/>
   <circle cx="8.27" cy="5.948" r=".15" fill="#ff2a2a"/>
   <circle cx="7.973" cy="7.428" r=".15" fill="#ff2a2a"/>
   <circle cx="9.342" cy="8.072" r=".15" fill="#ff2a2a"/>
   <circle cx="8.206" cy="9.315" r=".15" fill="#ff2a2a"/>
   <circle cx="9.682" cy="9.475" r=".15" fill="#ff2a2a"/>
   <circle cx="9.688" cy="6.186" r=".15" fill="#ff2a2a"/>
   <circle cx="3.379" cy="6.296" r=".15" fill="#ff2a2a"/>
   <circle cx="2.871" cy="8.204" r=".15" fill="#ff2a2a"/>
   <circle cx="4.59" cy="8.719" r=".15" fill="#ff2a2a"/>
   <circle cx="3.181" cy="9.671" r=".15" fill="#ff2a2a"/>
   <circle cx="5.734" cy="7.315" r=".15" fill="#ff2a2a"/>
   <circle cx="6.707" cy="6.513" r=".15" fill="#ff2a2a"/>
   <circle cx="5.73" cy="9.67" r=".15" fill="#ff2a2a"/>
   <circle cx="6.535" cy="8.373" r=".15" fill="#ff2a2a"/>
   <circle cx="4.37" cy="7.154" r=".15" fill="#ff2a2a"/>
   <circle cx=".622" cy="7.25" r=".15" fill="#ff2a2a"/>
   <circle cx=".831" cy="5.679" r=".15" fill="#ff2a2a"/>
   <circle cx="1.257" cy="8.519" r=".15" fill="#ff2a2a"/>
   <circle cx="1.989" cy="6.877" r=".15" fill="#ff2a2a"/>
   <circle cx=".374" cy="3.181" r=".15" fill="#ff2a2a"/>
   <circle cx="1.166" cy="1.664" r=".15" fill="#ff2a2a"/>
   <circle cx="1.151" cy=".093" r=".15" fill="#ff2a2a"/>
   <circle cx="1.151" cy="10.093" r=".15" fill="#ff2a2a"/>
   <circle cx="1.302" cy="4.451" r=".15" fill="#ff2a2a"/>
   <circle cx="3.047" cy="3.763" r=".15" fill="#ff2a2a"/>
  </pattern>
 </defs>
 <metadata>
  <rdf:RDF>
   <cc:Work rdf:about="">
    <dc:format>image/svg+xml</dc:format>
    <dc:type rdf:resource="http://purl.org/dc/dcmitype/StillImage"/>
    <dc:title/>
   </cc:Work>
  </rdf:RDF>
 </metadata>
 <g transform="translate(-197.54 -56.508)">
  <path d="m340 132.52a30 5 0 0 1 30-5 30 5 0 0 1 30 5" fill="none" stroke="#000"/>
  <path d="m320 132.52a50 10 0 0 1 50-10 50 10 0 0 1 50 10" fill="none" stroke="#000"/>
  <path d="m320 172.52v160c-9e-5 5.5228 22.386 10 50 10s50-4.4772 50-10v-160a50 10 0 0 1-25 8.6602 50 10 0 0 1-50 0 50 10 0 0 1-25-8.6602z" fill="url(#pattern2497-35-242-52)"/>
  <g fill="#fff">
   <path d="m400 132.52v180h-60v-180" stroke="#000"/>
   <ellipse cx="370" cy="312.52" rx="30" ry="5"/>
   <ellipse cx="370" cy="312.52" rx="30" ry="5" stroke="#000"/>
  </g>
  <g fill="none" stroke="#000">
   <path d="m320 172.52v-40" stroke-width="1px"/>
   <path d="m420 172.52v-40" stroke-width="1px"/>
   <path d="m400 272.52a30 5 0 0 1-15 4.3301 30 5 0 0 1-30 0 30 5 0 0 1-15-4.3301" stroke-dasharray="2, 2"/>
   <ellipse cx="370" cy="267.52" rx="30" ry="5" stroke-dasharray="2, 2"/>
  </g>
  <g stroke="#000">
   <path d="m340 243.52v5a30 5 0 0 0 30 5 30 5 0 0 0 30-5v-5h-30z"/>
   <ellipse cx="370" cy="243.52" rx="30" ry="5" fill="#fff"/>
   <rect x="365" y="87.52" width="10" height="156"/>
  </g>
  <g fill="none" stroke="#000">
   <g>
    <path d="m400 132.52a30 5 0 0 1-15 4.3301 30 5 0 0 1-30 0 30 5 0 0 1-15-4.3301"/>
    <path d="m320 172.52v160c-9e-5 5.5228 22.386 10 50 10s50-4.4772 50-10v-160a50 10 0 0 1-25 8.6602 50 10 0 0 1-50 0 50 10 0 0 1-25-8.6602z"/>
    <path d="m420 132.52a50 10 0 0 1-25 8.6603 50 10 0 0 1-50 0 50 10 0 0 1-25-8.6603"/>
   </g>
   <g stroke-width="1px">
    <path d="m400 312.52h80"/>
    <path d="m400 272.52h50"/>
    <path d="m400 248.52h80"/>
   </g>
  </g>
  <g>
   <path d="m434.5 277.52v30h1v-30z" color="#000000" color-rendering="auto" dominant-baseline="auto" image-rendering="auto" shape-rendering="auto" solid-color="#000000" style="font-feature-settings:normal;font-variant-alternates:normal;font-variant-caps:normal;font-variant-ligatures:normal;font-variant-numeric:normal;font-variant-position:normal;isolation:auto;mix-blend-mode:normal;shape-padding:0;text-decoration-color:#000000;text-decoration-line:none;text-decoration-style:solid;text-indent:0;text-orientation:mixed;text-transform:none;white-space:normal"/>
   <path d="m439.44 300.5-4.4195 12.018-4.4195-12.018c2.6093 1.92 6.1792 1.909 8.839 0z" fill-rule="evenodd"/>
   <path d="m430.56 284.54 4.4195-12.018 4.4195 12.018c-2.6093-1.92-6.1792-1.909-8.839 0z" fill-rule="evenodd"/>
   <path d="m469.52 252.52v55h1v-55z" color="#000000" color-rendering="auto" dominant-baseline="auto" image-rendering="auto" shape-rendering="auto" solid-color="#000000" style="font-feature-settings:normal;font-variant-alternates:normal;font-variant-caps:normal;font-variant-ligatures:normal;font-variant-numeric:normal;font-variant-position:normal;isolation:auto;mix-blend-mode:normal;shape-padding:0;text-decoration-color:#000000;text-decoration-line:none;text-decoration-style:solid;text-indent:0;text-orientation:mixed;text-transform:none;white-space:normal"/>
   <path d="m474.45 300.5-4.4195 12.018-4.4195-12.018c2.6093 1.92 6.1792 1.909 8.839 0z" fill-rule="evenodd"/>
   <path d="m465.58 260.54 4.4195-12.018 4.4195 12.018c-2.6093-1.92-6.1792-1.909-8.839 0z" fill-rule="evenodd"/>
  </g>
  <g>
   <text x="440" y="296.13925" fill="#000000" font-family="'STIX Two Text'" font-size="16px" letter-spacing="0px" word-spacing="0px" style="font-feature-settings:normal;font-variant-caps:normal;font-variant-ligatures:normal;font-variant-numeric:normal;line-height:1.25" xml:space="preserve"><tspan x="440" y="296.13925"><tspan font-family="'STIX Two Text'" font-style="italic">V</tspan><tspan dy="5" font-size="65%">a</tspan></tspan></text>
   <text x="475" y="284.1236" fill="#000000" font-family="'STIX Two Text'" font-size="16px" letter-spacing="0px" word-spacing="0px" style="font-feature-settings:normal;font-variant-caps:normal;font-variant-ligatures:normal;font-variant-numeric:normal;line-height:1.25" xml:space="preserve"><tspan x="475" y="284.1236"><tspan font-family="'STIX Two Text'" font-style="italic">V</tspan><tspan dy="5" font-size="65%">b</tspan></tspan></text>
   <g id="content" transform="matrix(1.6 0 0 -1.6 122.77 1387.7)" fill-rule="evenodd" stroke="#000" stroke-miterlimit="10.433" stroke-width="0" inkscapeversion="0.92.4" ns0:alignment="middle center" ns0:jacobian_sqrt="1.6" ns0:pdfconverter="pstoedit" ns0:preamble="/home/antonio/.config/inkscape/extensions/textext/default_packages.tex" ns0:scale="1.2" ns0:texconverter="pdflatex" ns0:text="$Q_2$" ns0:version="0.10.0" xml:space="preserve">
<path d="m151.74 657.08h0.07l0.07 0.01h0.07l0.06 0.01h0.07l0.12 0.02 0.05 0.01h0.06l0.06 0.01 0.1 0.02 0.11 0.02 0.09 0.03 0.2 0.06 0.09 0.03 0.09 0.04 0.1 0.04 0.1 0.05 0.05 0.02 0.05 0.03 0.05 0.02 0.05 0.03c1.47 0.83 2.48 2.44 2.48 4.01 0 1.34-0.96 2.31-2.28 2.31l-0.05-0.33c0.8 0 1.28-0.57 1.28-1.52 0-1.05-0.46-2.51-1.1-3.42-0.55-0.79-1.17-1.18-1.9-1.18-0.81 0-1.27 0.61-1.27 1.65 0 0.95 0.49 2.43 1.09 3.29 0.56 0.81 1.17 1.18 1.9 1.18l0.05 0.33c-0.8 0-1.7-0.41-2.5-1.12-1-0.94-1.59-2.14-1.59-3.3 0-0.81 0.3-1.49 0.84-1.91 0.26-0.21 0.48-0.3 0.91-0.4-0.9-0.8-0.99-0.88-1.76-1.41l0.1-0.15c0.38 0.21 0.76 0.3 1.15 0.3 0.19 0 0.48-0.06 0.92-0.18 0.61-0.16 1.15-0.26 1.52-0.26 0.55 0 1.25 0.25 1.75 0.65 0.24 0.18 0.37 0.32 0.63 0.68l-0.15 0.11c-0.56-0.58-0.96-0.77-1.68-0.77-0.26 0-0.47 0.04-1.23 0.22-0.52 0.13-0.99 0.22-1.05 0.21-0.04-0.01-0.06-0.01-0.06-0.01h-0.24z"/>
<path d="m159.49 656.69-0.1 0.04c-0.25-0.4-0.35-0.46-0.66-0.46h-1.67l1.17 1.22c0.63 0.65 0.9 1.18 0.9 1.72 0 0.7-0.57 1.23-1.29 1.23-0.39 0-0.75-0.15-1.01-0.43-0.23-0.24-0.33-0.46-0.45-0.95l0.15-0.04c0.28 0.69 0.53 0.91 1.01 0.91 0.59 0 0.99-0.4 0.99-0.98 0-0.55-0.32-1.19-0.91-1.81l-1.25-1.32v-0.08h2.73z"/>
</g>
  </g>
  <path d="m370 323.49v-25.972" fill="none" marker-end="url(#TriangleOutL)" stroke="#000" stroke-width="1px"/>
  <g>
   <text x="246.48087" y="293.81567" fill="#000000" font-family="'STIX Two Text'" font-size="16px" letter-spacing="0px" text-align="center" text-anchor="middle" word-spacing="0px" style="font-feature-settings:normal;font-variant-caps:normal;font-variant-ligatures:normal;font-variant-numeric:normal;line-height:1.25" xml:space="preserve"><tspan x="246.48087" y="293.81567">Foco caliente</tspan><tspan x="246.48087" y="313.81567" text-anchor="middle"><tspan font-family="'STIX Two Text'" font-style="italic" text-align="center">T</tspan><tspan dy="5" font-size="65%" text-align="center">2</tspan></tspan></text>
   <path d="m295 292.02v1h20v-1z" color="#000000" color-rendering="auto" dominant-baseline="auto" image-rendering="auto" shape-rendering="auto" solid-color="#000000" style="font-feature-settings:normal;font-variant-alternates:normal;font-variant-caps:normal;font-variant-ligatures:normal;font-variant-numeric:normal;font-variant-position:normal;isolation:auto;mix-blend-mode:normal;shape-padding:0;text-decoration-color:#000000;text-decoration-line:none;text-decoration-style:solid;text-indent:0;text-orientation:mixed;text-transform:none;white-space:normal"/>
   <path d="m307.98 288.08 12.018 4.4195-12.018 4.4195c1.92-2.6093 1.909-6.1792 0-8.839z" fill-rule="evenodd"/>
   <text x="358.41226" y="72.019814" fill="#000000" font-family="'STIX Two Text'" font-size="16px" letter-spacing="0px" word-spacing="0px" style="font-feature-settings:normal;font-variant-caps:normal;font-variant-ligatures:normal;font-variant-numeric:normal;line-height:1.25" xml:space="preserve"><tspan x="358.41226" y="72.019814">E.I.</tspan></text>
   <text x="359.44061" y="367.01981" fill="#000000" font-family="'STIX Two Text'" font-size="16px" letter-spacing="0px" word-spacing="0px" style="font-feature-settings:normal;font-variant-caps:normal;font-variant-ligatures:normal;font-variant-numeric:normal;line-height:1.25" xml:space="preserve"><tspan x="359.44061" y="367.01981">a-b</tspan></text>
  </g>
 </g>
</svg>
