<?xml version="1.0" encoding="UTF-8"?>
<svg width="480" height="480" version="1.1" viewBox="0 0 480 480" xmlns="http://www.w3.org/2000/svg" xmlns:cc="http://creativecommons.org/ns#" xmlns:dc="http://purl.org/dc/elements/1.1/" xmlns:ns0="http://www.iki.fi/pav/software/textext/" xmlns:rdf="http://www.w3.org/1999/02/22-rdf-syntax-ns#" xmlns:xlink="http://www.w3.org/1999/xlink">
 <style type="text/css">
	 @import url('../estilo.css');
 </style>
 <metadata>
  <rdf:RDF>
   <cc:Work rdf:about="">
    <dc:format>image/svg+xml</dc:format>
    <dc:type rdf:resource="http://purl.org/dc/dcmitype/StillImage"/>
    <dc:title>Gnuplot</dc:title>
   </cc:Work>
  </rdf:RDF>
 </metadata>
 <title>Gnuplot</title>
 <desc>Produced by GNUPLOT 5.2 patchlevel 2</desc>
 <g id="gnuplot_canvas">
  <rect width="480" height="480" fill="none"/>
  <defs>
   <circle id="gpPt5" r="1" stroke="currentColor" stroke-width=".222"/>
   <use id="gpPt6" fill="currentColor" xlink:href="#gpPt5"/>
  </defs>
  <g fill="none" stroke="currentColor">
   <g color="black">
    <path d="m41.5 252.8h-4.5" stroke="#000"/>
    <g transform="translate(32 257.7)" fill="#000" font-family="Stix Two Text" font-size="15" stroke="none" text-anchor="end">
     <text>
      <tspan font-family="Stix Two Text" font-style="italic">P</tspan><tspan dy="4.50px" font-family="Stix Two Text" font-size="12">v,2</tspan><tspan dy="-4.50" font-size="15"/>
     </text>
    </g>
   </g>
   <g color="black">
    <path d="m41.5 18.1v435.8h413.5m0-435.8m-413.5 0" stroke="#000"/>
    <path d="m78.1 252.8h219.8" stroke="#808080"/>
   </g>
   <g color="gray">
    <path d="m41.5 252.8h36.6" stroke="gray" stroke-dasharray="2,4"/>
   </g>
   <g color="black">
    <g transform="translate(28.7,27.7)" fill="#000" font-family="Stix Two Text" font-size="16" stroke="none" text-anchor="middle">
     <text>
      <tspan font-family="Stix Two Text" font-style="italic">P</tspan>
     </text>
    </g>
   </g>
   <g color="black">
    <g transform="translate(450.8,472.6)" fill="#000" font-family="Stix Two Text" font-size="16" stroke="none" text-anchor="middle">
     <text>
      <tspan font-family="Stix Two Text" font-style="italic">V</tspan>
     </text>
    </g>
   </g>
  </g>
  <g color="black" fill="none" stroke="currentColor">
   <defs>
    <pattern id="gpPat1" width="8" height="8" patternUnits="userSpaceOnUse">
     <path d="m0 0 8 8m-8 0 8-8" fill="none" stroke="gray"/>
    </pattern>
   </defs>
   <g fill="url(#gpPat1)" shape-rendering="crispEdges" stroke="none">
    <polygon points="78.1 252.5 78.2 252.8 78.1 252.8"/>
    <polygon points="78.2 252.8 79.2 262.8 80.3 271.8 81.4 279.6 82.5 286.2 83.6 291.9 84.7 296.8 85.9 300.8 87 304.2 88.1 307 89.2 309.2 90.3 310.9 91.4 312.2 92.5 313.1 93.6 313.7 94.7 313.9 95.8 313.9 96.9 313.6 98 313.1 99.1 312.5 100.2 311.6 101.3 310.7 102.4 309.5 103.5 308.3 104.6 307 105.7 305.6 106.8 304.2 107.9 302.6 109 301.1 110.1 299.4 111.3 297.8 112.4 296.1 113.5 294.5 114.6 292.8 115.7 291.1 116.8 289.3 117.9 287.6 119 285.9 120.1 284.3 121.2 282.6 122.3 280.9 123.4 279.3 124.5 277.7 125.6 276.1 126.7 274.5 127.8 272.9 128.9 271.4 130 269.9 131.1 268.4 132.2 267 133.3 265.6 134.4 264.2 135.5 262.9 136.6 261.5 137.8 260.2 138.9 259 140 257.7 141.1 256.5 142.2 255.4 143.3 254.2 144.4 253.1 144.7 252.8 144.4 252.8 143.3 252.8 142.2 252.8 141.1 252.8 140 252.8 138.9 252.8 137.8 252.8 136.6 252.8 135.5 252.8 134.4 252.8 133.3 252.8 132.2 252.8 131.1 252.8 130 252.8 128.9 252.8 127.8 252.8 126.7 252.8 125.6 252.8 124.5 252.8 123.4 252.8 122.3 252.8 121.2 252.8 120.1 252.8 119 252.8 117.9 252.8 116.8 252.8 115.7 252.8 114.6 252.8 113.5 252.8 112.4 252.8 111.3 252.8 110.1 252.8 109 252.8 107.9 252.8 106.8 252.8 105.7 252.8 104.6 252.8 103.5 252.8 102.4 252.8 101.3 252.8 100.2 252.8 99.1 252.8 98 252.8 96.9 252.8 95.8 252.8 94.7 252.8 93.6 252.8 92.5 252.8 91.4 252.8 90.3 252.8 89.2 252.8 88.1 252.8 87 252.8 85.9 252.8 84.7 252.8 83.6 252.8 82.5 252.8 81.4 252.8 80.3 252.8 79.2 252.8"/>
    <polygon points="144.7 252.8 145.5 252.1 146.6 251 147.7 250 148.8 249 149.9 248.1 151 247.1 152.1 246.2 153.2 245.4 154.3 244.5 155.4 243.7 156.5 242.9 157.6 242.2 158.7 241.4 159.8 240.7 160.9 240 162 239.4 163.2 238.8 164.3 238.2 165.4 237.6 166.5 237 167.6 236.5 168.7 236 169.8 235.5 170.9 235 172 234.6 173.1 234.1 174.2 233.7 175.3 233.4 176.4 233 177.5 232.6 178.6 232.3 179.7 232 180.8 231.7 181.9 231.4 183 231.2 184.1 231 185.2 230.7 186.3 230.5 187.4 230.3 188.5 230.2 189.7 230 190.8 229.9 191.9 229.7 193 229.6 194.1 229.5 195.2 229.4 196.3 229.4 197.4 229.3 198.5 229.3 199.6 229.2 200.7 229.2 201.8 229.2 202.9 229.2 204 229.2 205.1 229.2 206.2 229.3 207.3 229.3 208.4 229.4 209.5 229.4 210.6 229.5 211.7 229.6 212.8 229.7 213.9 229.8 215.1 229.9 216.2 230 217.3 230.2 218.4 230.3 219.5 230.5 220.6 230.6 221.7 230.8 222.8 230.9 223.9 231.1 225 231.3 226.1 231.5 227.2 231.7 228.3 231.9 229.4 232.1 230.5 232.3 231.6 232.6 232.7 232.8 233.8 233 234.9 233.3 236 233.5 237.1 233.8 238.2 234 239.3 234.3 240.4 234.5 241.6 234.8 242.7 235.1 243.8 235.4 244.9 235.7 246 236 247.1 236.2 248.2 236.5 249.3 236.8 250.4 237.2 251.5 237.5 252.6 237.8 253.7 238.1 254.8 238.4 255.9 238.7 257 239.1 258.1 239.4 259.2 239.7 260.3 240.1 261.4 240.4 262.5 240.8 263.6 241.1 264.7 241.5 265.8 241.8 267 242.2 268.1 242.5 269.2 242.9 270.3 243.2 271.4 243.6 272.5 244 273.6 244.3 274.7 244.7 275.8 245.1 276.9 245.4 278 245.8 279.1 246.2 280.2 246.6 281.3 247 282.4 247.3 283.5 247.7 284.6 248.1 285.7 248.5 286.8 248.9 287.9 249.3 289 249.7 290.1 250 291.2 250.4 292.3 250.8 293.5 251.2 294.6 251.6 295.7 252 296.8 252.4 297.8 252.8 296.8 252.8 295.7 252.8 294.6 252.8 293.5 252.8 292.3 252.8 291.2 252.8 290.1 252.8 289 252.8 287.9 252.8 286.8 252.8 285.7 252.8 284.6 252.8 283.5 252.8 282.4 252.8 281.3 252.8 280.2 252.8 279.1 252.8 278 252.8 276.9 252.8 275.8 252.8 274.7 252.8 273.6 252.8 272.5 252.8 271.4 252.8 270.3 252.8 269.2 252.8 268.1 252.8 267 252.8 265.8 252.8 264.7 252.8 263.6 252.8 262.5 252.8 261.4 252.8 260.3 252.8 259.2 252.8 258.1 252.8 257 252.8 255.9 252.8 254.8 252.8 253.7 252.8 252.6 252.8 251.5 252.8 250.4 252.8 249.3 252.8 248.2 252.8 247.1 252.8 246 252.8 244.9 252.8 243.8 252.8 242.7 252.8 241.6 252.8 240.4 252.8 239.3 252.8 238.2 252.8 237.1 252.8 236 252.8 234.9 252.8 233.8 252.8 232.7 252.8 231.6 252.8 230.5 252.8 229.4 252.8 228.3 252.8 227.2 252.8 226.1 252.8 225 252.8 223.9 252.8 222.8 252.8 221.7 252.8 220.6 252.8 219.5 252.8 218.4 252.8 217.3 252.8 216.2 252.8 215.1 252.8 213.9 252.8 212.8 252.8 211.7 252.8 210.6 252.8 209.5 252.8 208.4 252.8 207.3 252.8 206.2 252.8 205.1 252.8 204 252.8 202.9 252.8 201.8 252.8 200.7 252.8 199.6 252.8 198.5 252.8 197.4 252.8 196.3 252.8 195.2 252.8 194.1 252.8 193 252.8 191.9 252.8 190.8 252.8 189.7 252.8 188.5 252.8 187.4 252.8 186.3 252.8 185.2 252.8 184.1 252.8 183 252.8 181.9 252.8 180.8 252.8 179.7 252.8 178.6 252.8 177.5 252.8 176.4 252.8 175.3 252.8 174.2 252.8 173.1 252.8 172 252.8 170.9 252.8 169.8 252.8 168.7 252.8 167.6 252.8 166.5 252.8 165.4 252.8 164.3 252.8 163.2 252.8 162 252.8 160.9 252.8 159.8 252.8 158.7 252.8 157.6 252.8 156.5 252.8 155.4 252.8 154.3 252.8 153.2 252.8 152.1 252.8 151 252.8 149.9 252.8 148.8 252.8 147.7 252.8 146.6 252.8 145.5 252.8"/>
    <polygon points="297.8 252.8 297.9 252.8 297.9 252.8"/>
   </g>
  </g>
  <g>
   <title>T1</title>
   <g color="black" fill="none">
    <path d="m62.6 18.1 1.8 88.9 2 80.8 2.1 62.3 2.1 47.9 2.1 36.6 2 27.7 2.1 20.6 2.1 15 2.1 10.6 2.1 7.1 2 4.2 2.1 2 2.1 0.2 2.1-1.2 2-2.4 2.1-3.1 2.1-3.9 2.1-4.3 2.1-4.7 2-5 2.1-5.1 2.1-5.2 2.1-5.3 2-5.3 4.2-10.4 4.2-10 2-4.8 2.1-4.6 2.1-4.5 2.1-4.4 2-4.2 2.1-4.1 2.1-3.9 2.1-3.7 2.1-3.6 2-3.4 2.1-3.3 2.1-3.1 4.2-5.8 2-2.7 2.1-2.5 2.1-2.4 2.1-2.3 2-2.2 2.1-2.1 4.2-3.8 2.1-1.7 2-1.6 4.2-3 2.1-1.3 2-1.3 2.1-1.2 2.1-1 2.1-1.1 2.1-0.9 2-0.9 2.1-0.8 4.2-1.4 2-0.6 2.1-0.6 2.1-0.5 4.2-0.8 2-0.4 4.2-0.6 2.1-0.2 2-0.2 6.3-0.3h2.1 2l2.1 0.1h2.1l2.1 0.1 2 0.1 2.1 0.2 2.1 0.1 2.1 0.2 2.1 0.3 2 0.2 2.1 0.3 2.1 0.2 2.1 0.3 2 0.4 2.1 0.3 2.1 0.4 2.1 0.3 2.1 0.4 2 0.4 2.1 0.4 2.1 0.5 2.1 0.4 2 0.5 2.1 0.4 6.3 1.5 2 0.5 6.3 1.5 2 0.6 2.1 0.5 2.1 0.6 2.1 0.5 2.1 0.6 2 0.6 2.1 0.5 4.2 1.2 2 0.6 8.4 2.4 2 0.6 6.3 1.8 2 0.6 2.1 0.7 6.3 1.8 2 0.7 4.2 1.2 2.1 0.7 2 0.6 4.2 1.2 2.1 0.7 2.1 0.6 2 0.6 2.1 0.7 2.1 0.6 2.1 0.7 2.1 0.6 2 0.6 2.1 0.7 4.2 1.2 2 0.6 2.1 0.7 4.2 1.2 2.1 0.7 2 0.6 4.2 1.2 2.1 0.7 2 0.6 4.2 1.2 2.1 0.7 2.1 0.6 2 0.6 6.3 1.8 2 0.6 2.1 0.6 2.1 0.7 4.2 1.2 2 0.6 6.3 1.8 2 0.5 8.4 2.4 2 0.6 4.2 1.2 2.1 0.5 2 0.6 4.2 1.2" stroke="#9400d3"/>
    <g transform="translate(455 326.6)" fill="#000" font-family="Stix Two Text" font-size="11">
     <text xml:space="preserve"><tspan font-family="Stix Two Text" xml:space="preserve"> </tspan><tspan font-family="Stix Two Text" font-style="italic" xml:space="preserve">T</tspan><tspan dy="3.30px" font-family="Stix Two Text" font-size="8.8" xml:space="preserve">1</tspan><tspan dy="-3.30" font-size="11"/></text>
    </g>
   </g>
  </g>
  <g>
   <title>T2</title>
   <g color="black" fill="none">
    <path d="m67 18.1 1.5 53.6 2.1 57.8 2.1 45.4 2 35.6 2.1 27.8 2.1 21.6 2.1 16.6 2.1 12.5 2 9.3 2.1 6.6 2.1 4.5 2.1 2.8 2 1.4 2.1 0.3 2.1-0.6 2.1-1.2 2.1-1.9 2-2.2 2.1-2.6 2.1-2.8 2.1-3 2-3.1 8.4-12.8 2-3.1 2.1-3.1 2.1-3 2.1-2.9 2-2.8 2.1-2.7 2.1-2.6 2.1-2.5 2.1-2.4 2-2.2 2.1-2.2 2.1-2.1 2.1-1.9 2.1-1.8 2-1.8 2.1-1.6 4.2-3 2-1.3 2.1-1.3 2.1-1.2 4.2-2 2-1 4.2-1.6 2.1-0.7 2-0.6 2.1-0.6 2.1-0.5 4.2-0.8 2-0.3 2.1-0.3 4.2-0.4 2-0.1 2.1-0.1h2.1 2.1l2.1 0.1h2l2.1 0.2 2.1 0.1 2.1 0.2 2 0.2 8.4 1.2 2 0.4 2.1 0.3 2.1 0.4 2.1 0.5 2 0.4 8.4 2 2 0.5 2.1 0.6 2.1 0.5 2.1 0.6 2 0.6 4.2 1.2 2.1 0.7 2.1 0.6 2 0.7 2.1 0.6 4.2 1.4 2 0.7 2.1 0.6 4.2 1.4 2.1 0.8 2 0.7 4.2 1.4 2.1 0.8 2 0.7 2.1 0.7 2.1 0.8 2.1 0.7 2.1 0.8 2 0.7 2.1 0.8 2.1 0.7 2.1 0.8 2 0.8 2.1 0.7 4.2 1.6 2.1 0.7 2 0.8 2.1 0.8 2.1 0.7 2.1 0.8 2 0.8 2.1 0.7 6.3 2.4 2 0.7 4.2 1.6 2.1 0.7 2 0.8 2.1 0.8 2.1 0.7 2.1 0.8 2.1 0.7 2 0.8 2.1 0.8 2.1 0.7 2.1 0.8 2.1 0.7 2 0.8 2.1 0.7 2.1 0.8 2.1 0.7 2 0.8 2.1 0.7 2.1 0.8 4.2 1.4 2 0.8 6.3 2.1 2 0.8 8.4 2.8 2 0.8 6.3 2.1 2 0.7 8.4 2.8 2 0.6 6.3 2.1 2 0.7 2.1 0.6 6.3 2.1 2 0.6 2.1 0.7 2.1 0.6 2.1 0.7 2 0.6 2.1 0.7 2.1 0.6" stroke="#009e73"/>
    <g transform="translate(455 311.5)" fill="#000" font-family="Stix Two Text" font-size="11">
     <text xml:space="preserve"><tspan font-family="Stix Two Text" xml:space="preserve"> </tspan><tspan font-family="Stix Two Text" font-style="italic" xml:space="preserve">T</tspan><tspan dy="3.30px" font-family="Stix Two Text" font-size="8.8" xml:space="preserve">2</tspan><tspan dy="-3.30" font-size="11"/></text>
    </g>
   </g>
  </g>
  <g>
   <title>T3</title>
   <g color="black" fill="none">
    <path d="m71.7 18.1 1 23.7 2 42.2 2.1 33.8 2.1 27.1 2.1 21.5 2.1 17.1 2 13.5 2.1 10.5 2.1 8.1 2.1 6.1 2 4.6 2.1 3.2 2.1 2.1 2.1 1.3 2.1 0.5h2l2.1-0.4 2.1-0.9 2.1-1.1 2-1.3 2.1-1.4 2.1-1.6 4.2-3.4 2-1.7 6.3-5.1 2-1.7 2.1-1.5 2.1-1.6 4.2-2.8 2-1.3 2.1-1.3 4.2-2.2 2.1-1 2-1 2.1-0.9 2.1-0.8 2.1-0.7 2-0.6 2.1-0.6 4.2-1 2.1-0.4 2-0.3 2.1-0.3 2.1-0.2 2.1-0.1 2-0.1 2.1-0.1h2.1 2.1l2.1 0.1 2 0.2 2.1 0.1 2.1 0.2 2.1 0.3 2 0.3 2.1 0.3 6.3 1.2 2 0.4 6.3 1.5 2 0.6 2.1 0.6 2.1 0.5 2.1 0.7 2.1 0.6 2 0.7 2.1 0.6 4.2 1.4 2 0.7 2.1 0.8 2.1 0.7 4.2 1.6 2 0.7 6.3 2.4 2 0.9 4.2 1.6 2.1 0.9 2.1 0.8 2 0.9 2.1 0.8 4.2 1.8 2 0.9 2.1 0.9 2.1 0.8 4.2 1.8 2 0.9 6.3 2.7 2 0.9 8.4 3.6 2 0.9 2.1 0.9 2.1 1 2.1 0.9 2 0.9 8.4 3.6 2 0.9 6.3 2.7 2 0.9 8.4 3.6 2 0.8 6.3 2.7 2 0.9 2.1 0.9 2.1 0.8 4.2 1.8 2 0.8 2.1 0.9 2.1 0.8 4.2 1.8 2 0.8 2.1 0.9 4.2 1.6 2 0.9 4.2 1.6 2.1 0.9 2.1 0.8 2 0.8 2.1 0.8 2.1 0.9 2.1 0.8 2 0.8 8.4 3.2 2 0.8 2.1 0.8 2.1 0.7 2.1 0.8 2 0.8 2.1 0.8 2.1 0.7 4.2 1.6 2 0.7 2.1 0.8 2.1 0.7 2.1 0.8 2 0.7 2.1 0.8 2.1 0.7 2.1 0.8 2.1 0.7 2 0.7 2.1 0.7 2.1 0.8 2.1 0.7 2 0.7 4.2 1.4" stroke="#56b4e9"/>
    <g transform="translate(455 299)" fill="#000" font-family="Stix Two Text" font-size="11">
     <text xml:space="preserve"><tspan font-family="Stix Two Text" xml:space="preserve"> </tspan><tspan font-family="Stix Two Text" font-style="italic" xml:space="preserve">T</tspan><tspan dy="3.30px" font-family="Stix Two Text" font-size="8.8" xml:space="preserve">3</tspan><tspan dy="-3.30" font-size="11"/></text>
    </g>
   </g>
  </g>
  <g>
   <title>Tc</title>
   <g color="black" fill="none">
    <path d="m81.6 18.1 1.5 16.2 2 19.4 2.1 16 2.1 13.2 2.1 10.8 2 9 2.1 7.3 2.1 5.9 2.1 4.9 2.1 4 2 3.1 2.1 2.6 2.1 2 2.1 1.6 2 1.2 2.1 1 2.1 0.7 2.1 0.5 2.1 0.4 2 0.2 2.1 0.2 4.2 0.2h2 2.1 2.1 2.1 2.1 2l8.4 0.4 2 0.2 2.1 0.2 4.2 0.6 2 0.3 6.3 1.2 2.1 0.5 2 0.5 2.1 0.5 4.2 1.2 2 0.6 6.3 2.1 2.1 0.8 2 0.8 6.3 2.4 2 0.9 6.3 2.7 2.1 1 2 1 2.1 0.9 4.2 2 2 1.1 4.2 2 2.1 1.1 2.1 1 2 1.1 6.3 3.3 2 1.1 4.2 2.2 2.1 1.2 2.1 1.1 2 1.1 2.1 1.1 2.1 1.2 2.1 1.1 2 1.2 2.1 1.1 2.1 1.2 2.1 1.1 2.1 1.2 2 1.1 2.1 1.2 2.1 1.1 2.1 1.2 2 1.1 2.1 1.2 2.1 1.1 2.1 1.2 2.1 1.1 2 1.2 2.1 1.1 2.1 1.2 2.1 1.1 2 1.1 2.1 1.2 4.2 2.2 2.1 1.2 2 1.1 6.3 3.3 2 1.1 2.1 1.2 6.3 3.3 2 1.1 2.1 1 4.2 2.2 2 1.1 2.1 1.1 2.1 1 2.1 1.1 2.1 1 2 1.1 2.1 1 2.1 1.1 2.1 1 2 1.1 4.2 2 2.1 1.1 2.1 1 2 1 8.4 4 2 1 2.1 1 2.1 0.9 2.1 1 2 1 2.1 1 2.1 0.9 2.1 1 2.1 0.9 2 1 2.1 0.9 2.1 1 2.1 0.9 2 0.9 2.1 0.9 2.1 1 4.2 1.8 2 0.9 6.3 2.7 2 0.9 2.1 0.8 4.2 1.8 2.1 0.8 2 0.9 2.1 0.9 2.1 0.8 2.1 0.9 2 0.8 2.1 0.9 4.2 1.6 2.1 0.9 2 0.8 6.3 2.4 2 0.8 4.2 1.6" stroke="#e69f00"/>
    <g transform="translate(455 281.3)" fill="#000" font-family="Stix Two Text" font-size="11">
     <text xml:space="preserve"><tspan font-family="Stix Two Text" xml:space="preserve"> </tspan><tspan font-family="Stix Two Text" font-style="italic" xml:space="preserve">T</tspan><tspan dy="3.30px" font-family="Stix Two Text" font-size="8.8" xml:space="preserve">c</tspan><tspan dy="-3.30" font-size="11"/></text>
    </g>
   </g>
  </g>
  <g color="black" fill="none" stroke="currentColor">
   <path d="m95.5 18.1v0.2l2.1 9 2.1 7.6 2.1 6.5 2 5.7 2.1 4.8 2.1 4.2 2.1 3.7 2 3.1 2.1 2.8 2.1 2.5 2.1 2.2 2.1 2 2 1.8 2.1 1.6 2.1 1.5 2.1 1.3 2 1.3 2.1 1.3 6.3 3.3 2 1.1 2.1 1.1 4.2 2 2.1 1.1 2 1 2.1 1.1 2.1 1 2.1 1.1 2 1.1 8.4 4.4 2 1.2 2.1 1.1 4.2 2.4 2 1.2 2.1 1.2 2.1 1.3 2.1 1.2 2.1 1.3 2 1.2 6.3 3.9 2 1.4 4.2 2.6 2.1 1.4 2.1 1.3 2 1.4 2.1 1.3 4.2 2.8 2 1.4 2.1 1.3 6.3 4.2 2 1.4 6.3 4.2 2 1.4 8.4 5.6 2 1.4 6.3 4.2 2 1.4 4.2 2.8 2.1 1.3 2.1 1.4 2 1.4 2.1 1.4 2.1 1.3 2.1 1.4 2 1.4 2.1 1.3 2.1 1.4 2.1 1.3 2.1 1.4 2 1.3 2.1 1.3 2.1 1.4 2.1 1.3 2 1.3 8.4 5.2 2 1.3 6.3 3.9 2 1.2 2.1 1.3 2.1 1.2 2.1 1.3 2.1 1.2 2 1.3 4.2 2.4 2.1 1.3 2 1.2 8.4 4.8 2 1.2 2.1 1.1 4.2 2.4 2 1.1 2.1 1.2 2.1 1.1 2.1 1.2 2.1 1.1 2 1.1 2.1 1.1 2.1 1.2 4.2 2.2 2 1.1 2.1 1.1 2.1 1 2.1 1.1 2 1.1 2.1 1.1 2.1 1 2.1 1.1 2.1 1 2 1.1 4.2 2 2.1 1.1 2 1 8.4 4 2 1 2.1 1 2.1 0.9 2.1 1 2 1 2.1 1 2.1 0.9 2.1 1 2.1 0.9 2 1 6.3 2.7 2 1 8.4 3.6 2 0.9 4.2 1.8 2.1 0.8 2 0.9 2.1 0.9 2.1 0.8" stroke="#f0e442"/>
  </g>
  <g color="black" fill="none" stroke="currentColor">
   <path d="m124.6 18.1 2.1 2.8 2.1 2.6 2 2.5 4.2 4.6 6.2 6.2 2.1 2 6.3 5.7 2 1.8 6.3 5.4 2 1.8 2.1 1.7 2.1 1.8 2.1 1.7 2.1 1.8 2 1.7 2.1 1.7 2.1 1.8 2.1 1.7 2 1.7 2.1 1.8 4.2 3.4 2.1 1.8 2 1.7 2.1 1.7 2.1 1.8 2.1 1.7 2 1.7 2.1 1.7 2.1 1.8 4.2 3.4 2 1.7 2.1 1.8 4.2 3.4 2 1.7 8.4 6.8 2 1.7 4.2 3.4 2.1 1.6 2 1.7 4.2 3.4 2.1 1.6 2.1 1.7 2 1.6 2.1 1.6 2.1 1.7 2.1 1.6 2 1.6 8.4 6.4 2 1.6 4.2 3.2 2.1 1.5 2 1.6 2.1 1.5 2.1 1.6 4.2 3 2 1.5 2.1 1.5 2.1 1.6 2.1 1.4 2 1.5 4.2 3 2.1 1.4 2.1 1.5 2 1.4 2.1 1.5 4.2 2.8 2 1.4 8.4 5.6 2 1.4 2.1 1.3 2.1 1.4 2.1 1.3 2 1.4 4.2 2.6 2.1 1.4 2.1 1.3 2 1.3 4.2 2.6 2.1 1.2 2 1.3 2.1 1.3 2.1 1.2 2.1 1.3 2.1 1.2 2 1.2 2.1 1.3 6.3 3.6 2 1.2 4.2 2.4 2.1 1.1 2 1.2 2.1 1.2 2.1 1.1 2.1 1.2 2.1 1.1 2 1.1 2.1 1.1 2.1 1.2 2.1 1.1 2 1.1 4.2 2.2 2.1 1 2.1 1.1 2 1.1 2.1 1.1 2.1 1 2.1 1.1 2 1 2.1 1 2.1 1.1 4.2 2 2 1 6.3 3 2 1 6.3 3 2.1 0.9 2 1 2.1 0.9 2.1 1 2.1 0.9 2 1 4.2 1.8" stroke="#0072b2"/>
  </g>
  <g color="black" fill="none" stroke="currentColor">
   <path d="m134.1 138.5-13 3.4-3.8 2.6-5.3 5.1-7.1 10.2-10.6 24.8-7 23.7-9.2 44.5-7.3 48.2-4.6 36.1-5.4 47.2-4.9 46.4-2.4 23.2" stroke="#000" stroke-dasharray="2.5,4.0"/>
  </g>
  <g color="black" fill="none" stroke="currentColor">
   <path d="m134.1 138.5 15.3 3.4 5.6 2.6 9.1 5.1 14.7 10.2 30.7 24.8 28.8 23.7 59.6 44.5 81.7 48.2 75.4 33.2" stroke="#000" stroke-dasharray="2.5,4.0"/>
  </g>
  <g fill="none" stroke="currentColor">
   <g color="black">
    <path d="m41.5 18.1v435.8h413.5m0-435.8m-413.5 0" stroke="#000"/>
    <g transform="translate(138.6,128.1)" fill="#000" font-family="Stix Two Text" font-size="15" stroke="none" text-anchor="middle">
     <text font-family="Stix Two Text">
      <tspan>(</tspan><tspan font-style="italic">P</tspan><tspan dy="4.50px" font-size="12">c</tspan><tspan dy="-4.50px" font-size="15">,</tspan><tspan font-style="italic">V</tspan><tspan dy="4.50px" font-size="12">c</tspan><tspan dy="-4.50px" font-size="15">,</tspan><tspan font-style="italic">T</tspan><tspan dy="4.50px" font-size="12">c</tspan><tspan dy="-4.50px" font-size="15">)</tspan>
     </text>
    </g>
   </g>
   <g color="black">
    <use transform="translate(134.1,138.5) scale(2.25)" color="rgb(229,  30,  16)" xlink:href="#gpPt6"/>
   </g>
   <g color="black">
    <g transform="translate(356.1,272.4)" fill="#000" font-family="Stix Two Text" font-size="13" stroke="none">
     <text>
      <tspan font-family="Stix Two Text">A</tspan>
     </text>
    </g>
   </g>
   <g color="black">
    <use transform="translate(351.6,272.6) scale(2.25)" color="black" xlink:href="#gpPt6"/>
   </g>
   <g color="black">
    <g transform="translate(302.4,252.6)" fill="#000" font-family="Stix Two Text" font-size="13" stroke="none">
     <text>
      <tspan font-family="Stix Two Text">B</tspan>
     </text>
    </g>
   </g>
   <g color="black">
    <use transform="translate(297.9,252.8) scale(2.25)" color="black" xlink:href="#gpPt6"/>
   </g>
   <g color="black">
    <g transform="translate(203.5,225.4)" fill="#000" font-family="Stix Two Text" font-size="13" stroke="none">
     <text>
      <tspan font-family="Stix Two Text">M</tspan>
     </text>
    </g>
   </g>
   <g color="black">
    <use transform="translate(200.6,229.2) scale(2.25)" color="black" xlink:href="#gpPt6"/>
   </g>
   <g color="black">
    <g transform="translate(146 248.1)" fill="#000" font-family="Stix Two Text" font-size="13" stroke="none" text-anchor="end">
     <text>
      <tspan font-family="Stix Two Text">O</tspan>
     </text>
    </g>
   </g>
   <g color="black">
    <use transform="translate(144.8,252.8) scale(2.25)" color="black" xlink:href="#gpPt6"/>
   </g>
   <g color="black">
    <g transform="translate(99.8,322.8)" fill="#000" font-family="Stix Two Text" font-size="13" stroke="none">
     <text>
      <tspan font-family="Stix Two Text">N</tspan>
     </text>
    </g>
   </g>
   <g color="black">
    <use transform="translate(95.3 314) scale(2.25)" color="black" xlink:href="#gpPt6"/>
   </g>
   <g color="black">
    <g transform="translate(82.6 249)" fill="#000" font-family="Stix Two Text" font-size="13" stroke="none">
     <text>
      <tspan font-family="Stix Two Text">E</tspan>
     </text>
    </g>
   </g>
   <g color="black">
    <use transform="translate(78.1,252.8) scale(2.25)" color="black" xlink:href="#gpPt6"/>
   </g>
  </g>
 </g>
 <g id="content" transform="matrix(1.7333 0 0 -1.7333 46.709 1221.9)" fill="none" fill-rule="evenodd" stroke="#000" stroke-miterlimit="10.433" ns0:alignment="middle center" ns0:jacobian_sqrt="1.733333" ns0:pdfconverter="pstoedit" ns0:preamble="/home/antonio/.config/inkscape/extensions/textext/default_packages.tex" ns0:scale="1.3" ns0:texconverter="pdflatex" ns0:text="$\nP = \\dfrac{RT}{V-b}-\\dfrac{a}{V^2}\n$" ns0:version="0.10.0" xml:space="preserve"><g fill="#000" stroke-width="0">
<path d="m150.42 660.27h0.02l0.03-0.01h0.05l0.05-0.01 0.04-0.01h0.04l0.12-0.03 0.03-0.01h0.03l0.09-0.03 0.02-0.01 0.02-0.02 0.06-0.03 0.06-0.06 0.01-0.02v-0.01l0.02-0.04v-0.02l0.01-0.02v-0.09c0-0.13-0.03-0.34-0.16-0.79l-1.18-4.22c-0.18-0.6-0.25-0.66-0.82-0.74v-0.16h2.44v0.16c-0.62 0.09-0.67 0.12-0.67 0.46 0 0.12 0.02 0.22 0.12 0.58l0.52 1.91 0.09 0.34 0.71 2.46c0.06 0.21 0.18 0.28 0.46 0.28 0.39 0 0.77-0.1 0.97-0.24 0.26-0.17 0.37-0.47 0.37-0.94 0-0.65-0.23-1.1-0.67-1.36-0.31-0.17-0.7-0.25-1.32-0.25-0.17 0-0.25 0.01-0.52 0.05l-0.09-0.34c0.25-0.06 0.51-0.08 0.92-0.08 0.82 0 1.49 0.17 1.92 0.48 0.5 0.37 0.78 0.91 0.78 1.5 0 0.95-0.74 1.48-2.1 1.48h-2.47z"/>
<polygon points="163.54 657.78 158.43 657.78 158.43 657.22 163.54 657.22"/>
<polygon points="163.54 655.76 158.43 655.76 158.43 655.21 163.54 655.21"/>
<path d="m178.67 660.85h-0.08l-0.04 0.01h-0.04l-0.03 0.01-0.04 0.01-0.15 0.05-0.03 0.02-0.02 0.02-0.03 0.01-0.02 0.02-0.03 0.02-0.07 0.07-0.02 0.03-0.02 0.02-0.04 0.06-0.02 0.04-0.02 0.03-0.02 0.04-0.02 0.03-0.04 0.08-0.01 0.05-0.02 0.04-0.02 0.05-0.93 2.43c0.77 0.17 1.1 0.31 1.46 0.63 0.33 0.29 0.51 0.68 0.51 1.12 0 0.93-0.74 1.43-2.08 1.43l-0.21-0.29c0.83 0 1.24-0.38 1.24-1.12 0-0.98-0.64-1.49-1.88-1.49-0.16 0-0.27 0.01-0.51 0.05l0.65 2.28c0.06 0.21 0.18 0.28 0.5 0.28l0.21 0.29h-2.47v-0.15c0.42-0.06 0.47-0.07 0.57-0.14 0.08-0.05 0.14-0.17 0.14-0.28 0-0.12-0.05-0.36-0.12-0.63l-1.23-4.39c-0.18-0.59-0.25-0.65-0.81-0.73v-0.16h2.44v0.16c-0.61 0.07-0.68 0.12-0.68 0.45 0 0.1 0.03 0.23 0.12 0.58l0.56 2.08 0.65-0.05 1.22-3.22h1.48z"/>
<path d="m185.41 667.17h-5.3l-0.42-1.53 0.18-0.04c0.53 1.08 0.85 1.25 2.37 1.23l-1.43-5.25c-0.16-0.53-0.4-0.68-1.06-0.73v-0.16h2.89v0.16c-0.17 0.01-0.32 0.03-0.38 0.03-0.4 0.03-0.52 0.11-0.52 0.41 0 0.13 0.03 0.25 0.12 0.59l1.39 4.95h0.55c0.72 0 1.04-0.25 1.04-0.81 0-0.13-0.02-0.28-0.04-0.45l0.18-0.02z"/>
</g><line x1="168.12" x2="190.71" y1="656.5" y2="656.5" stroke-width=".558"/><g fill="#000" stroke-width="0">
<path d="m174.98 653.59h-1.86v-0.15c0.45-0.05 0.63-0.15 0.63-0.34s-0.19-0.62-0.52-1.18l-2.05-3.54-0.66 4.4c-0.01 0.05-0.01 0.09-0.01 0.15 0 0.34 0.14 0.44 0.77 0.51v0.15h-2.41v-0.15c0.56-0.07 0.58-0.1 0.79-1.35l0.85-5.16h0.19l3.72 6.11c0.17 0.27 0.33 0.39 0.56 0.4z"/>
<polygon points="182.91 649.94 177.8 649.94 177.8 649.38 182.91 649.38"/>
<path d="m186.83 653.49h0.22l0.02-0.01h0.11l0.02-0.01h0.05l0.02-0.01h0.04l0.01-0.01h0.02l0.02-0.01h0.01l0.02-0.01 0.01-0.01 0.02-0.01 0.03-0.03v-0.01l0.01-0.01v-0.01l0.01-0.02v-0.03l0.01-0.02v-0.05c0-0.09-0.03-0.21-0.09-0.43-0.02-0.07-0.04-0.14-0.05-0.19l-0.02-0.07-1.36-4.97v-0.04c0-0.23 0.77-0.53 1.33-0.53 1.5 0 3.16 1.74 3.16 3.3 0 0.69-0.49 1.19-1.16 1.19-0.69 0-1.21-0.41-1.92-1.5l0.17-0.13c0.44 0.76 0.89 1.14 1.36 1.14 0.43 0 0.7-0.33 0.7-0.85 0-0.66-0.51-1.72-1.09-2.34-0.37-0.37-0.8-0.58-1.23-0.58-0.31 0-0.46 0.11-0.46 0.34 0 0.59 0.3 1.55 0.72 2.29l-0.17 0.13c0.52 1.89 0.59 2.15 1.03 3.85l-0.04 0.05c-0.5-0.09-0.86-0.15-1.53-0.23z"/>
<polygon points="199.85 656.77 194.74 656.77 194.74 656.22 199.85 656.22"/>
<path d="m211.43 661.78-0.02-0.01-0.01-0.02-0.01-0.01-0.02-0.01-0.03-0.03-0.01-0.02-0.01-0.01h-0.01l-0.05-0.05v-0.01h-0.01l-0.05-0.05-0.01-0.02-0.02-0.01-0.01-0.01-0.01-0.02c-0.3-0.31-0.43-0.41-0.52-0.41-0.08 0-0.14 0.06-0.14 0.13 0 0.2 0.42 1.9 0.89 3.61 0.03 0.1 0.04 0.12 0.06 0.21l-0.07 0.03-0.61-0.07-0.03-0.03-0.11-0.48c-0.08 0.37-0.37 0.58-0.8 0.58l0.06-0.22c0.34-0.02 0.56-0.26 0.56-0.61 0-0.83-0.5-2-1.19-2.74-0.24-0.27-0.58-0.44-0.87-0.44-0.34 0-0.57 0.29-0.57 0.75 0 0.54 0.37 1.56 0.8 2.17 0.4 0.58 0.87 0.9 1.27 0.87l-0.06 0.22c-1.32 0-2.85-1.82-2.85-3.39 0-0.7 0.38-1.1 1.02-1.1 0.69 0 1.12 0.33 2 1.56-0.2-0.78-0.23-0.91-0.23-1.15 0-0.28 0.12-0.4 0.4-0.4 0.4 0 0.65 0.19 1.39 1.09z"/>
</g><line x1="203.87" x2="214.71" y1="656.5" y2="656.5" stroke-width=".558"/>
<path d="m210.73 653.49h-1.85v-0.16c0.44-0.05 0.62-0.15 0.62-0.33 0-0.19-0.19-0.62-0.51-1.19l-2.06-3.53-0.66 4.4c-0.01 0.05-0.01 0.09-0.01 0.15 0 0.33 0.14 0.43 0.77 0.5v0.16h-2.4v-0.16c0.55-0.07 0.58-0.1 0.78-1.34l0.85-5.16h0.19l3.72 6.11c0.17 0.27 0.33 0.38 0.56 0.39z" fill="#000" stroke-width="0"/>
<path d="m214.04 650.84-0.09 0.03c-0.25-0.39-0.35-0.46-0.66-0.46h-1.67l1.17 1.23c0.63 0.64 0.9 1.17 0.9 1.71 0 0.7-0.57 1.24-1.29 1.24-0.39 0-0.75-0.16-1.01-0.43-0.23-0.24-0.33-0.46-0.45-0.96l0.15-0.03c0.28 0.68 0.53 0.9 1.01 0.9 0.59 0 0.99-0.4 0.99-0.98 0-0.54-0.32-1.19-0.91-1.81l-1.25-1.31v-0.08h2.73z" fill="#000" stroke-width="0"/>
</g>
</svg>
