<?xml version="1.0" encoding="UTF-8" standalone="no"?>
<svg id="svg4469" xmlns:rdf="http://www.w3.org/1999/02/22-rdf-syntax-ns#" xmlns="http://www.w3.org/2000/svg" height="350" width="350" version="1.1" xmlns:cc="http://creativecommons.org/ns#" xmlns:xlink="http://www.w3.org/1999/xlink" viewBox="0 0 350 350" xmlns:dc="http://purl.org/dc/elements/1.1/">
 <style type="text/css">
	@import url('../estilo.css');
 </style>
 <defs>
  <circle id="gpPt5" stroke-width=".222" cy="0" stroke="currentColor" cx="0" r="1"/>
  <use id="gpPt6" xlink:href="#gpPt5" fill="currentColor"/>
 </defs>
 <metadata id="metadata4720">
  <rdf:RDF>
   <cc:Work rdf:about="">
    <dc:format>image/svg+xml</dc:format>
    <dc:type rdf:resource="http://purl.org/dc/dcmitype/StillImage"/>
    <dc:title>Gnuplot</dc:title>
   </cc:Work>
  </rdf:RDF>
 </metadata>
 <title id="title4471">Gnuplot</title>
 <desc id="desc4473">Produced by GNUPLOT 5.0 patchlevel 3</desc>
 <g id="gnuplot_canvas">
  <g fill="none">
   <rect id="rect4476" height="350" width="350" y="0" x="0"/>
   <g stroke="currentColor">
    <g id="g4510" color="black">
     <path id="path4512" stroke="#000" d="m26.9 21.2v298.2h298.1m0-298.2m-298.1 0"/>
    </g>
    <g stroke-width="2">
     <g id="g4516" color="black">
      <g id="g4518" stroke="none" shape-rendering="crispEdges">
       <polygon id="polygon4520" points="180.1 154.6 180.1 150.4 191.7 154.6 180.1 158.8" fill="#56b4e9"/>
      </g>
      <path id="path4522" stroke="#56b4e9" d="m109.3 154.6h70.8"/>
     </g>
     <g id="g4524" color="black">
      <g id="g4526" stroke="none" shape-rendering="crispEdges">
       <polygon id="polygon4528" points="191.7 166.2 187.5 166.2 191.7 154.6 195.9 166.2" fill="#e69f00"/>
      </g>
      <path id="path4530" stroke="#e69f00" d="m191.7 237v-70.8"/>
     </g>
     <g id="g4532" color="black">
      <g id="g4534" stroke="none" shape-rendering="crispEdges">
       <polygon id="polygon4536" points="114.8 164.8 111 166.8 109.3 154.6 118.5 162.8" fill="#56b4e9"/>
      </g>
      <path id="path4538" stroke="#56b4e9" d="m114.8 164.8l0.7 1.3"/>
     </g>
     <g id="g4540" color="black">
      <g id="g4542" stroke="none" shape-rendering="crispEdges">
       <polygon id="polygon4544" points="181.5 231.5 183.5 227.8 191.7 237 179.5 235.2" fill="#e69f00"/>
      </g>
      <path id="path4546" stroke="#e69f00" d="m181.5 231.5l-2.2-1.2"/>
     </g>
    </g>
    <g id="g4550" color="black">
     <g id="g4552" font-size="16" transform="translate(13.1,30.2)" text-anchor="middle" stroke="none" font-family="Stix Two Text" fill="#000">
      <text id="text4554">
       <tspan id="tspan4556" font-family="Stix Two Text" font-style="italic">P</tspan>
      </text>
     </g>
    </g>
    <g id="g4558" color="black">
     <g id="g4560" font-size="16" transform="translate(321.9,338.9)" text-anchor="middle" stroke="none" font-family="Stix Two Text" fill="#000">
      <text id="text4562">
       <tspan id="tspan4564" font-family="Stix Two Text" font-style="italic">V</tspan>
      </text>
     </g>
    </g>
   </g>
  </g>
  <g id="gnuplot_plot_1">
   <title id="title4569">T0</title>
   <g id="g4571" color="black" fill="none">
    <path id="path4573" stroke="#9400d3" stroke-dasharray="2.5,4.0" d="m76.6 46l2.2 11.9 2.3 10.9 2.3 10.1 2.2 9.2 2.3 8.6 2.2 7.9 2.3 7.4 2.3 6.9 2.2 6.5 2.3 6.1 2.2 5.7 2.3 5.3 2.2 5.1 2.3 4.8 2.3 4.5 2.2 4.2 2.3 4.1 2.2 3.9 2.3 3.6 2.3 3.5 2.2 3.3 2.3 3.2 2.2 3.1 2.3 2.9 2.2 2.7 2.3 2.7 2.3 2.6 2.2 2.4 2.3 2.4 2.2 2.3 2.3 2.1 2.2 2.1 2.3 2.1 2.3 1.9 2.2 1.9 2.3 1.8 2.2 1.8 2.3 1.7 2.3 1.6 2.2 1.6 2.3 1.5 2.2 1.5 2.3 1.5 2.2 1.4 2.3 1.3 2.3 1.4 2.2 1.2 2.3 1.3 2.2 1.2 2.3 1.2 2.3 1.1 2.2 1.1 2.3 1.1 2.2 1.1 2.3 1 2.2 1 2.3 1 2.3 0.9 2.2 1 2.3 0.9 2.2 0.8 2.3 0.9 2.3 0.9 2.2 0.8 2.3 0.8 2.2 0.8 2.3 0.7 2.2 0.8 2.3 0.7 2.3 0.7 2.2 0.7 2.3 0.7 2.2 0.7 2.3 0.7 2.3 0.6 2.2 0.6 2.3 0.7 2.2 0.6 2.3 0.6 2.3 0.5 2.2 0.6 2.3 0.6 2.2 0.5 2.3 0.6 2.2 0.5 2.3 0.5 2.3 0.5 2.2 0.5 2.3 0.5 2.2 0.5 2.3 0.5 2.2 0.4 2.3 0.5 2.3 0.5 2.2 0.4 2.3 0.4 2.2 0.5 2.3 0.4 2.3 0.4"/>
    <g id="g4575" font-size="16" transform="translate(300.2,275.7)" font-family="Stix Two Text" fill="#000">
     <text id="text4577" xml:space="preserve"><tspan id="tspan4579" xml:space="preserve" font-family="Stix Two Text" font-style="italic"> T</tspan><tspan id="tspan4581" font-size="12.8" font-family="Stix Two Text" xml:space="preserve" dy="4.80px">0</tspan><tspan id="tspan4583" font-size="16" dy="-4.80"/></text>
    </g>
   </g>
  </g>
  <g id="gnuplot_plot_2">
   <title id="title4586">T</title>
   <g id="g4588" color="black" fill="none">
    <path id="path4590" stroke="#009e73" stroke-dasharray="2.5,4.0" d="m126.3 46l1.7 4.8 1.8 4.6 1.7 4.4 1.8 4.3 1.7 4.1 1.8 4.1 1.8 3.8 1.7 3.8 1.8 3.7 1.7 3.5 1.8 3.4 1.7 3.4 1.8 3.2 1.8 3.2 1.7 3 1.8 3 1.7 2.9 1.8 2.8 1.7 2.8 1.8 2.6 1.8 2.7 1.7 2.5 1.8 2.5 1.7 2.4 1.8 2.3 1.7 2.3 1.8 2.3 1.7 2.2 1.8 2.1 1.8 2.1 1.7 2 1.8 2 1.7 2 1.8 1.9 1.7 1.8 1.8 1.9 1.8 1.7 1.7 1.8 1.8 1.7 1.7 1.7 1.8 1.6 1.7 1.6 1.8 1.6 1.8 1.5 1.7 1.6 1.8 1.4 1.7 1.5 1.8 1.4 1.7 1.4 1.8 1.4 1.7 1.3 1.8 1.4 1.8 1.3 1.7 1.2 1.8 1.3 1.7 1.2 1.8 1.2 1.7 1.2 1.8 1.2 1.8 1.1 1.7 1.2 1.8 1.1 1.7 1.1 1.8 1 1.7 1.1 1.8 1 1.8 1.1 1.7 1 1.8 1 1.7 0.9 1.8 1 1.7 0.9 1.8 1 1.7 0.9 1.8 0.9 1.8 0.9 1.7 0.8 1.8 0.9 1.7 0.8 1.8 0.9 1.7 0.8 1.8 0.8 1.8 0.8 1.7 0.8 1.8 0.8 1.7 0.7 1.8 0.8 1.7 0.7 1.8 0.8 1.7 0.7 1.8 0.7 1.8 0.7 1.7 0.7 1.8 0.7 1.7 0.7 1.8 0.6 1.7 0.7 1.8 0.7 1.8 0.6"/>
    <g id="g4592" font-size="16" transform="translate(300.2 226)" font-family="Stix Two Text" fill="#000">
     <text id="text4594" xml:space="preserve"><tspan id="tspan4596" xml:space="preserve" font-family="Stix Two Text" font-style="italic"> T</tspan></text>
    </g>
   </g>
  </g>
  <g id="gnuplot_plot_3">
   <title id="title4599"/>
   <g id="g4603" color="black" stroke="currentColor" stroke-width="2" fill="none">
    <path id="path4605" stroke="#56b4e9" d="m109.3 154.6l0.3 0.7 0.4 0.6 0.3 0.7 0.4 0.7 0.3 0.6 0.4 0.7 0.3 0.7 0.3 0.6 0.4 0.6 0.3 0.7 0.4 0.6 0.3 0.6 0.4 0.7 0.3 0.6 0.4 0.6 0.3 0.6 0.4 0.6 0.3 0.6 0.3 0.6 0.4 0.6 0.3 0.6 0.4 0.6 0.3 0.5 0.4 0.6 0.3 0.6 0.4 0.5 0.3 0.6 0.3 0.5 0.4 0.6 0.3 0.5 0.4 0.6 0.3 0.5 0.4 0.6 0.3 0.5 0.4 0.5 0.3 0.5 0.3 0.6 0.4 0.5 0.3 0.5 0.4 0.5 0.3 0.5 0.4 0.5 0.3 0.5 0.4 0.5 0.3 0.5 0.3 0.5 0.4 0.5 0.3 0.4 0.4 0.5 0.3 0.5 0.4 0.5 0.3 0.4 0.4 0.5 0.3 0.4 0.4 0.5 0.3 0.5 0.3 0.4 0.4 0.5 0.3 0.4 0.4 0.4 0.3 0.5 0.4 0.4 0.3 0.4 0.4 0.5 0.3 0.4 0.3 0.4 0.4 0.5 0.3 0.4 0.4 0.4 0.3 0.4 0.4 0.4 0.3 0.4 0.4 0.4 0.3 0.4 0.3 0.4 0.4 0.4 0.3 0.4 0.4 0.4 0.3 0.4 0.4 0.4 0.3 0.4 0.4 0.4 0.3 0.4 0.3 0.3 0.4 0.4 0.3 0.4 0.4 0.4 0.3 0.3 0.4 0.4 0.3 0.4 0.4 0.3 0.3 0.4 0.3 0.3 0.4 0.4 0.3 0.3 0.4 0.4 0.3 0.3 0.4 0.4 0.3 0.3"/>
   </g>
  </g>
  <g id="gnuplot_plot_4">
   <title id="title4608"/>
   <g id="g4610" color="black" stroke="currentColor" stroke-width="2" fill="none">
    <path id="path4612" stroke="#e69f00" d="m143.4 202.8l0.5 0.5 0.5 0.5 0.5 0.5 0.5 0.5 0.5 0.4 0.4 0.5 0.5 0.5 0.5 0.4 0.5 0.5 0.5 0.4 0.5 0.5 0.5 0.4 0.5 0.5 0.4 0.4 0.5 0.4 0.5 0.5 0.5 0.4 0.5 0.4 0.5 0.4 0.5 0.4 0.5 0.5 0.4 0.4 0.5 0.4 0.5 0.4 0.5 0.4 0.5 0.4 0.5 0.4 0.5 0.4 0.5 0.4 0.4 0.3 0.5 0.4 0.5 0.4 0.5 0.4 0.5 0.4 0.5 0.3 0.5 0.4 0.5 0.4 0.4 0.3 0.5 0.4 0.5 0.4 0.5 0.3 0.5 0.4 0.5 0.3 0.5 0.4 0.5 0.3 0.4 0.4 0.5 0.3 0.5 0.3 0.5 0.4 0.5 0.3 0.5 0.3 0.5 0.4 0.5 0.3 0.4 0.3 0.5 0.3 0.5 0.4 0.5 0.3 0.5 0.3 0.5 0.3 0.5 0.3 0.5 0.3 0.4 0.4 0.5 0.3 0.5 0.3 0.5 0.3 0.5 0.3 0.5 0.3 0.5 0.3 0.5 0.3 0.4 0.2 0.5 0.3 0.5 0.3 0.5 0.3 0.5 0.3 0.5 0.3 0.5 0.3 0.5 0.2 0.4 0.3 0.5 0.3 0.5 0.3 0.5 0.2 0.5 0.3 0.5 0.3 0.5 0.3 0.5 0.2 0.4 0.3 0.5 0.2 0.5 0.3 0.5 0.3 0.5 0.2 0.5 0.3 0.5 0.2 0.5 0.3 0.4 0.2 0.5 0.3 0.5 0.2 0.5 0.3 0.5 0.2 0.5 0.3"/>
   </g>
  </g>
  <g stroke="currentColor" fill="none">
   <g id="g4618" color="black">
    <path id="path4620" stroke="#000" d="m26.9 21.2v298.2h298.1m0-298.2m-298.1 0"/>
    <g id="g4622" font-size="16" transform="translate(196.2,151.6)" stroke="none" font-family="Stix Two Text" fill="#000">
     <text id="text4624">
       <tspan id="tspan4626" font-style="italic">P</tspan><tspan id="tspan4628">, </tspan><tspan id="tspan4630" font-style="italic">V</tspan>
     </text>
    </g>
   </g>
   <g id="g4632" color="black">
    <use id="use4634" color="black" xlink:href="#gpPt6" transform="translate(191.7,154.6) scale(2.25)"/>
   </g>
   <g id="g4636" color="black">
    <g id="g4638" font-size="16" transform="translate(137.6,213.3)" text-anchor="end" stroke="none" font-family="Stix Two Text" fill="#000">
     <text id="text4640">
       <tspan id="tspan4642" font-style="italic">P</tspan><tspan id="tspan4644" font-size="12.8" dy="4.80px">0</tspan><tspan id="tspan4646" font-size="16" dy="-4.80px">, </tspan><tspan id="tspan4648" font-style="italic">V</tspan><tspan id="tspan4650" font-size="12.8" dy="4.80px">0</tspan><tspan id="tspan4652" font-size="16" dy="-4.80"/>
     </text>
    </g>
   </g>
   <g id="g4654" color="black">
    <use id="use4656" color="black" xlink:href="#gpPt6" transform="translate(143.4,202.8) scale(2.25)"/>
   </g>
   <g id="g4658" color="black">
    <g id="g4660" font-size="16" transform="translate(102.2,160.6)" text-anchor="end" stroke="none" font-family="Stix Two Text" fill="#000">
     <text id="text4662">
       <tspan id="tspan4664" font-style="italic">P</tspan><tspan id="tspan4666">, </tspan><tspan id="tspan4668" font-style="italic">V</tspan><tspan id="tspan4670">(</tspan><tspan id="tspan4672" font-style="italic">P</tspan><tspan id="tspan4674">,</tspan><tspan id="tspan4676" font-style="italic">T</tspan><tspan id="tspan4678" font-size="12.8" dy="4.80px">0</tspan><tspan id="tspan4680" font-size="16" dy="-4.80px">)</tspan>
     </text>
    </g>
   </g>
   <g id="g4682" color="black">
    <use id="use4684" color="black" xlink:href="#gpPt6" transform="translate(109.3,154.6) scale(2.25)"/>
   </g>
   <g id="g4686" color="black">
    <g id="g4688" font-size="16" transform="translate(196.2,254.7)" text-anchor="end" stroke="none" font-family="Stix Two Text" fill="#000">
     <text id="text4690">
       <tspan id="tspan4692" font-style="italic">P</tspan><tspan id="tspan4694">(</tspan><tspan id="tspan4696" font-style="italic">V</tspan><tspan id="tspan4698">,</tspan><tspan id="tspan4700" font-style="italic">T</tspan><tspan id="tspan4702" font-size="12.8" dy="4.80px">0</tspan><tspan id="tspan4704" font-size="16" dy="-4.80px">), </tspan><tspan id="tspan4706" font-style="italic">V</tspan>
     </text>
    </g>
   </g>
   <g id="g4708" color="black">
    <use id="use4710" color="black" xlink:href="#gpPt6" transform="translate(191.7 237) scale(2.25)"/>
   </g>
  </g>
 </g>
 <text id="text4722" style="word-spacing:0px;letter-spacing:0px" xml:space="preserve" font-size="16px" line-height="125%" y="245.112" x="76" font-family="&apos;STIX Two Text&apos;" fill="#000000"><tspan id="tspan4724" x="76" y="245.112">1</tspan></text>
 <rect id="rect4728" stroke-linejoin="round" height="20" width="20" stroke="#000" y="230" x="70" fill="none"/>
 <text id="text4730" style="word-spacing:0px;letter-spacing:0px" font-size="16px" line-height="125%" y="135.15199" x="135.98399" font-family="&apos;STIX Two Text&apos;" xml:space="preserve" fill="#000000"><tspan id="tspan4732" y="135.15199" x="135.98399">2</tspan></text>
 <rect id="rect4734" stroke-linejoin="round" height="20" width="20" stroke="#000" y="120" x="130" fill="none"/>
 <text id="text4736" style="word-spacing:0px;letter-spacing:0px" xml:space="preserve" font-size="16px" line-height="125%" y="215.048" x="215.976" font-family="&apos;STIX Two Text&apos;" fill="#000000"><tspan id="tspan4738" x="215.976" y="215.048">3</tspan></text>
 <rect id="rect4740" stroke-linejoin="round" height="20" width="20" stroke="#000" y="200" x="210" fill="none"/>
</svg>
