<?xml version="1.0" encoding="UTF-8"?>
<!-- Created with Inkscape (http://www.inkscape.org/) -->
<svg width="234.81" height="235.82" version="1.1" viewBox="0 0 234.81 235.82" xmlns="http://www.w3.org/2000/svg" xmlns:cc="http://creativecommons.org/ns#" xmlns:dc="http://purl.org/dc/elements/1.1/" xmlns:ns0="http://www.iki.fi/pav/software/textext/" xmlns:rdf="http://www.w3.org/1999/02/22-rdf-syntax-ns#">
 <style type="text/css">
  @import url('../estilo.css');
 </style>
 <metadata>
  <rdf:RDF>
   <cc:Work rdf:about="">
    <dc:format>image/svg+xml</dc:format>
    <dc:type rdf:resource="http://purl.org/dc/dcmitype/StillImage"/>
    <dc:title/>
   </cc:Work>
  </rdf:RDF>
 </metadata>
 <g transform="translate(-40.808 -31.747)">
  <path d="m265 242.36h-200v-200" fill="none" marker-start="" stroke="#000" stroke-linejoin="round" stroke-width="1.0016"/>
  <g fill="#000000" font-family="'STIX Two Text'" letter-spacing="0px" stroke-width="1px" word-spacing="0px">
   <text x="104.25" y="207.11221" opacity=".97" style="line-height:0%" xml:space="preserve"><tspan x="104.25" y="207.11221" font-family="'STIX Two Text'" font-size="16px" style="line-height:1.25">A</tspan></text>
   <text x="225" y="89.362198" style="line-height:0%" xml:space="preserve"><tspan x="225" y="89.362198" font-family="'STIX Two Text'" font-size="16px" style="line-height:1.25">B</tspan></text>
   <text x="255" y="259.36218" style="line-height:0%" xml:space="preserve"><tspan x="255" y="259.36218" font-family="'STIX Two Text'" font-size="16px" font-style="italic" style="line-height:1.25">x</tspan></text>
   <text x="48" y="52.362209" style="line-height:0%" xml:space="preserve"><tspan x="48" y="52.362209" font-family="'STIX Two Text'" font-size="16px" font-style="italic" style="line-height:1.25">y</tspan></text>
  </g>
  <g>
   <g id="content" transform="matrix(1.75 0 0 -1.75 -149.36 1434.3)" fill="#f00" fill-rule="evenodd" stroke="#000" stroke-miterlimit="10.433" ns0:inkscapeversion="0.91" ns0:pdfconverter="pstoedit" ns0:preamble="/usr/share/inkscape/extensions/default_packages.tex" ns0:scale="1.4" ns0:texconverter="pdflatex" ns0:text="$\\ast$" ns0:version="0.7.2" xml:space="preserve"><path d="m152.79 710.45-0.01 0.02v0.01 0.02 0.01 0.02l-0.01 0.01v0.02l-0.01 0.02-0.01 0.01v0.02l-0.02 0.02-0.01 0.02-0.01 0.01-0.01 0.02-0.05 0.05-0.02 0.01-0.02 0.02-0.02 0.01-0.01 0.01h-0.02l-0.01 0.01h-0.02-0.01l-0.02 0.01h-0.02-0.01c-0.23 0-1.05-0.82-1.34-0.99 0 0.56 0.28 1.12 0.28 1.46 0 0.21-0.14 0.34-0.35 0.34-0.2 0-0.32-0.14-0.32-0.34 0-0.39 0.24-0.92 0.24-1.46-0.32 0.19-1.09 1.03-1.3 1.03-0.18 0-0.34-0.17-0.34-0.35 0-0.35 1.17-0.59 1.56-0.81-0.42-0.24-1.19-0.36-1.39-0.48-0.1-0.08-0.18-0.17-0.18-0.29 0-0.18 0.14-0.34 0.32-0.34 0.23 0 1.03 0.8 1.33 0.97 0-0.55-0.28-1.1-0.28-1.45 0-0.2 0.15-0.34 0.35-0.34s0.32 0.15 0.32 0.34c0 0.41-0.23 0.93-0.23 1.45 0.31-0.18 1.1-1.01 1.3-1.01 0.18 0 0.33 0.17 0.33 0.35 0 0.13-0.09 0.21-0.18 0.28-0.26 0.16-0.95 0.27-1.38 0.52 0.47 0.28 1.11 0.32 1.39 0.49 0.11 0.06 0.19 0.15 0.19 0.28z" fill="#f00" stroke-width="0"/></g>
   <g transform="matrix(1.75 0 0 -1.75 -44.355 1334.3)" fill="#f00" fill-rule="evenodd" stroke="#000" stroke-miterlimit="10.433" ns0:inkscapeversion="0.91" ns0:pdfconverter="pstoedit" ns0:preamble="/usr/share/inkscape/extensions/default_packages.tex" ns0:scale="1.4" ns0:texconverter="pdflatex" ns0:text="$\\ast$" ns0:version="0.7.2" xml:space="preserve"><path d="m152.79 710.45-0.01 0.02v0.01 0.02 0.01 0.02l-0.01 0.01v0.02l-0.01 0.02-0.01 0.01v0.02l-0.02 0.02-0.01 0.02-0.01 0.01-0.01 0.02-0.05 0.05-0.02 0.01-0.02 0.02-0.02 0.01-0.01 0.01h-0.02l-0.01 0.01h-0.02-0.01l-0.02 0.01h-0.02-0.01c-0.23 0-1.05-0.82-1.34-0.99 0 0.56 0.28 1.12 0.28 1.46 0 0.21-0.14 0.34-0.35 0.34-0.2 0-0.32-0.14-0.32-0.34 0-0.39 0.24-0.92 0.24-1.46-0.32 0.19-1.09 1.03-1.3 1.03-0.18 0-0.34-0.17-0.34-0.35 0-0.35 1.17-0.59 1.56-0.81-0.42-0.24-1.19-0.36-1.39-0.48-0.1-0.08-0.18-0.17-0.18-0.29 0-0.18 0.14-0.34 0.32-0.34 0.23 0 1.03 0.8 1.33 0.97 0-0.55-0.28-1.1-0.28-1.45 0-0.2 0.15-0.34 0.35-0.34s0.32 0.15 0.32 0.34c0 0.41-0.23 0.93-0.23 1.45 0.31-0.18 1.1-1.01 1.3-1.01 0.18 0 0.33 0.17 0.33 0.35 0 0.13-0.09 0.21-0.18 0.28-0.26 0.16-0.95 0.27-1.38 0.52 0.47 0.28 1.11 0.32 1.39 0.49 0.11 0.06 0.19 0.15 0.19 0.28z" fill="#f00" stroke-width="0"/></g>
   <text x="90.509186" y="222.36221" fill="#000000" font-family="'STIX Two Text'" font-size="16px" letter-spacing="0px" opacity=".97" word-spacing="0px" style="font-feature-settings:normal;font-variant-caps:normal;font-variant-ligatures:normal;font-variant-numeric:normal;line-height:1.25" xml:space="preserve"><tspan x="90.509186" y="222.36221">(<tspan font-family="'STIX Two Text'" font-style="italic">x<tspan dy="5" font-size="65%">i</tspan></tspan><tspan dy="-5">,</tspan> <tspan font-family="'STIX Two Text'" font-style="italic">y<tspan dy="5" font-size="65%">i</tspan></tspan><tspan dy="-5">)</tspan></tspan></text>
   <text x="210.35332" y="67.362206" fill="#000000" font-family="'STIX Two Text'" font-size="16px" letter-spacing="0px" word-spacing="0px" style="font-feature-settings:normal;font-variant-caps:normal;font-variant-ligatures:normal;font-variant-numeric:normal;line-height:1.25" xml:space="preserve"><tspan x="210.35332" y="67.362206">(<tspan font-family="'STIX Two Text'" font-style="italic">x<tspan dy="5" font-size="65%">f</tspan></tspan><tspan dy="-5">,</tspan> <tspan font-family="'STIX Two Text'" font-style="italic">y<tspan dy="5" font-size="65%">f</tspan></tspan><tspan dy="-5">)</tspan></tspan></text>
  </g>
 </g>
</svg>
