<?xml version="1.0" encoding="UTF-8"?>
<!-- Created with Inkscape (http://www.inkscape.org/) -->
<svg width="495.4" height="318.07" version="1.1" viewBox="0 0 495.4 318.07" xmlns="http://www.w3.org/2000/svg" xmlns:cc="http://creativecommons.org/ns#" xmlns:dc="http://purl.org/dc/elements/1.1/" xmlns:ns0="http://www.iki.fi/pav/software/textext/" xmlns:rdf="http://www.w3.org/1999/02/22-rdf-syntax-ns#">
 <style type="text/css">
  @import url('../estilo.css');
 </style>
 <defs>
  <marker id="marker2184" overflow="visible" orient="auto">
   <path transform="matrix(-1.1,0,0,-1.1,-1.1,0)" d="m8.7186 4.0337-10.926-4.0177 10.926-4.0177c-1.7455 2.3721-1.7354 5.6175-6e-7 8.0354z" fill-rule="evenodd" stroke="#000" stroke-linejoin="round" stroke-width=".625"/>
  </marker>
  <marker id="marker2302" overflow="visible" orient="auto">
   <path transform="matrix(-1.1,0,0,-1.1,-1.1,0)" d="m8.7186 4.0337-10.926-4.0177 10.926-4.0177c-1.7455 2.3721-1.7354 5.6175-6e-7 8.0354z" fill-rule="evenodd" stroke="#000" stroke-linejoin="round" stroke-width=".625"/>
  </marker>
  <marker id="marker1051-3" overflow="visible" orient="auto">
   <path transform="matrix(-1.1,0,0,-1.1,-1.1,0)" d="m8.7186 4.0337-10.926-4.0177 10.926-4.0177c-1.7455 2.3721-1.7354 5.6175-6e-7 8.0354z" fill-rule="evenodd" stroke="#000" stroke-linejoin="round" stroke-width=".625"/>
  </marker>
  <marker id="marker1193-7" overflow="visible" orient="auto">
   <path transform="matrix(-1.1,0,0,-1.1,-1.1,0)" d="m8.7186 4.0337-10.926-4.0177 10.926-4.0177c-1.7455 2.3721-1.7354 5.6175-6e-7 8.0354z" fill-rule="evenodd" stroke="#000" stroke-linejoin="round" stroke-width=".625"/>
  </marker>
  <marker id="Arrow2Lend" overflow="visible" orient="auto">
   <path transform="matrix(-1.1,0,0,-1.1,-1.1,0)" d="m8.7186 4.0337-10.926-4.0177 10.926-4.0177c-1.7455 2.3721-1.7354 5.6175-6e-7 8.0354z" fill-rule="evenodd" stroke="#000" stroke-linejoin="round" stroke-width=".625"/>
  </marker>
 </defs>
 <metadata>
  <rdf:RDF>
   <cc:Work rdf:about="">
    <dc:format>image/svg+xml</dc:format>
    <dc:type rdf:resource="http://purl.org/dc/dcmitype/StillImage"/>
    <dc:title/>
   </cc:Work>
  </rdf:RDF>
 </metadata>
 <g transform="translate(-62.655 -15.757)">
  <path d="m150 122.52v30" fill="none" marker-end="url(#Arrow2Lend)" stroke="#000" stroke-width="1px"/>
  <g fill="#000000" font-family="'STIX Two Text'" font-size="19px" letter-spacing="0px" text-anchor="middle" word-spacing="0px">
   <text x="150.02473" y="33.239655" style="font-feature-settings:normal;font-variant-caps:normal;font-variant-ligatures:normal;font-variant-numeric:normal;line-height:1.25" xml:space="preserve"><tspan x="150.02473" y="33.239655" text-align="center">B<tspan dy="6" font-size="65%" text-align="center" text-anchor="middle">(sln)</tspan></tspan><tspan x="150.02473" y="56.989655" text-align="center">(DDI hipotética,</tspan><tspan x="150.02473" y="80.739655" text-align="center"><tspan font-family="'STIX Two Text'" font-style="italic">x</tspan><tspan dy="6" font-size="65%">B</tspan><tspan dy="-6"> = 1, </tspan><tspan font-family="'STIX Two Text'" font-style="italic" text-align="center" text-anchor="middle">P</tspan> = 1 atm, <tspan font-family="'STIX Two Text'" font-style="italic" text-align="center" text-anchor="middle">T</tspan>)</tspan></text>
   <text x="150.02473" y="175.00287" text-align="center" style="font-feature-settings:normal;font-variant-caps:normal;font-variant-ligatures:normal;font-variant-numeric:normal;line-height:1.25" xml:space="preserve"><tspan x="150.02473" y="175.00287">B<tspan dy="6" font-size="65%">(sln)</tspan></tspan><tspan x="150.02473" y="198.75287">(DDI hipotética,</tspan><tspan x="150.02473" y="222.50287"><tspan font-family="'STIX Two Text'" font-style="italic">x</tspan><tspan dy="6" font-size="65%">B</tspan><tspan dy="-6"> = 1, </tspan><tspan font-family="'STIX Two Text'" font-style="italic">P</tspan>, <tspan font-family="'STIX Two Text'" font-style="italic">T</tspan>)</tspan></text>
   <text x="470.98526" y="175.00287" text-align="center" style="font-feature-settings:normal;font-variant-caps:normal;font-variant-ligatures:normal;font-variant-numeric:normal;line-height:1.25" xml:space="preserve"><tspan x="470.98526" y="175.00287">B<tspan dy="6" font-size="65%">(g)</tspan></tspan><tspan x="470.98526" y="198.75287">(disolución, <tspan font-family="'STIX Two Text'" font-style="italic">P</tspan>, <tspan font-family="'STIX Two Text'" font-style="italic">P</tspan><tspan dy="6" font-family="'STIX Two Text'" font-size="65%">B</tspan><tspan dy="-6">, </tspan><tspan font-family="'STIX Two Text'" font-style="italic">T</tspan>)</tspan></text>
   <text x="470.98526" y="33.239655" style="font-feature-settings:normal;font-variant-caps:normal;font-variant-ligatures:normal;font-variant-numeric:normal;line-height:1.25" xml:space="preserve"><tspan x="470.98526" y="33.239655" text-align="center">B<tspan dy="6" font-size="65%" text-align="center" text-anchor="middle">(sln)</tspan></tspan><tspan x="470.98526" y="56.989655" text-align="center">(disolución, <tspan font-family="'STIX Two Text'" font-style="italic">P</tspan>, <tspan font-family="'STIX Two Text'" font-style="italic">T</tspan>, <tspan font-family="'STIX Two Text'" font-style="italic">x</tspan><tspan dy="6" font-size="65%">B</tspan><tspan dy="-6">)</tspan></tspan></text>
  </g>
  <path d="m240.3 40.933h139.13" fill="none" marker-end="url(#marker1193-7)" stroke="#000" stroke-width="1px"/>
  <text x="301.2554" y="60.449646" fill="#000000" font-family="'STIX Two Text'" font-size="16px" letter-spacing="0px" word-spacing="0px" style="font-feature-settings:normal;font-variant-caps:normal;font-variant-ligatures:normal;font-variant-numeric:normal;line-height:1.25" xml:space="preserve"><tspan x="301.2554" y="60.449646">(1)</tspan></text>
  <text x="159.52" y="142.70772" fill="#000000" font-family="'STIX Two Text'" font-size="16px" letter-spacing="0px" word-spacing="0px" style="font-feature-settings:normal;font-variant-caps:normal;font-variant-ligatures:normal;font-variant-numeric:normal;line-height:1.25" xml:space="preserve"><tspan x="159.52" y="142.70772">(2)</tspan></text>
  <g transform="rotate(60 458.64 377.39)" fill="none" stroke="#000" stroke-width="1px">
   <path d="m225.54 224.48 43.301 25" marker-end="url(#marker2184)"/>
   <path d="m265.75 255.85-43.301-25" marker-end="url(#marker2302)"/>
  </g>
  <g>
   <text x="440.06436" y="128.67177" fill="#000000" font-family="'STIX Two Text'" font-size="16px" letter-spacing="0px" word-spacing="0px" style="font-feature-settings:normal;font-variant-caps:normal;font-variant-ligatures:normal;font-variant-numeric:normal;line-height:1.25" xml:space="preserve"><tspan x="440.06436" y="128.67177">(5)</tspan></text>
   <g transform="matrix(2 0 0 -2 -161.91 1418.1)" fill-rule="evenodd" stroke="#000" stroke-miterlimit="10.433" stroke-width="0" inkscapeversion="0.92.4" ns0:alignment="middle center" ns0:jacobian_sqrt="2.000001" ns0:pdfconverter="pstoedit" ns0:preamble="/home/antonio/.config/inkscape/extensions/textext/default_packages.tex" ns0:scale="1.5" ns0:texconverter="pdflatex" ns0:text="$a_{x,\\rm B}^\\circ$" ns0:version="0.10.0" xml:space="preserve">
<path d="m153.34 658.33-0.01-0.02-0.02-0.01-0.02-0.02-0.01-0.02-0.02-0.01-0.05-0.05h-0.01l-0.01-0.01v-0.01l-0.02-0.02h-0.01l-0.01-0.01-0.01-0.02-0.01-0.01-0.02-0.01-0.01-0.02-0.04-0.04c-0.3-0.31-0.43-0.41-0.52-0.41-0.08 0-0.14 0.06-0.14 0.13 0 0.2 0.42 1.9 0.89 3.61 0.03 0.1 0.04 0.12 0.06 0.21l-0.07 0.03-0.61-0.07-0.03-0.03-0.11-0.48c-0.08 0.37-0.37 0.58-0.8 0.58l0.06-0.22c0.34-0.02 0.56-0.26 0.56-0.61 0-0.83-0.5-2.01-1.19-2.74-0.23-0.27-0.57-0.44-0.86-0.44-0.35 0-0.58 0.29-0.58 0.75 0 0.53 0.38 1.56 0.81 2.17 0.4 0.58 0.87 0.9 1.26 0.87l-0.06 0.22c-1.31 0-2.85-1.82-2.85-3.39 0-0.7 0.38-1.1 1.02-1.1 0.7 0 1.13 0.32 2 1.55-0.2-0.77-0.23-0.9-0.23-1.14 0-0.28 0.12-0.4 0.4-0.4 0.4 0 0.65 0.18 1.39 1.09z"/>
<path d="m156.74 662.64-0.01 0.07v0.06l-0.01 0.07-0.02 0.12-0.04 0.12-0.03 0.06-0.02 0.06-0.03 0.06-0.03 0.05-0.04 0.05-0.03 0.05-0.08 0.1-0.09 0.09-0.1 0.08-0.05 0.03-0.05 0.04-0.05 0.03-0.06 0.02-0.06 0.03-0.24 0.08-0.07 0.01-0.06 0.01h-0.14v-0.33c0.53 0 0.97-0.43 0.97-0.96 0-0.54-0.44-0.96-0.97-0.96-0.54 0-0.97 0.42-0.97 0.96 0 0.53 0.43 0.96 0.97 0.96v0.33c-0.73 0-1.3-0.58-1.3-1.29 0-0.72 0.57-1.29 1.3-1.29 0.72 0 1.31 0.57 1.31 1.29z"/>
<path d="m156.85 654.73-0.01-0.01-0.01-0.02-0.02-0.02v-0.01l-0.06-0.06-0.01-0.02-0.02-0.02v-0.01l-0.01-0.01h-0.01v-0.01c-0.16-0.21-0.25-0.28-0.32-0.28-0.11 0-0.17 0.09-0.22 0.29-0.01 0.05-0.02 0.09-0.03 0.11-0.17 0.71-0.25 1.03-0.25 1.13 0.31 0.54 0.56 0.84 0.69 0.84 0.04 0 0.09-0.02 0.16-0.05 0.09-0.05 0.14-0.07 0.19-0.07 0.15 0 0.25 0.11 0.25 0.25 0 0.15-0.12 0.26-0.29 0.26-0.31 0-0.57-0.25-1.06-0.99l-0.07 0.38c-0.1 0.47-0.18 0.61-0.37 0.61-0.15 0-0.39-0.06-0.81-0.2l-0.08-0.03 0.03-0.1c0.26 0.06 0.33 0.07 0.39 0.07 0.17 0 0.22-0.06 0.31-0.48l0.21-0.85-0.58-0.81c-0.14-0.21-0.28-0.34-0.35-0.34-0.04 0-0.12 0.02-0.18 0.06-0.1 0.05-0.17 0.07-0.23 0.07-0.13 0-0.24-0.1-0.24-0.24 0-0.18 0.14-0.29 0.35-0.29 0.22 0 0.3 0.06 0.65 0.48 0.19 0.23 0.34 0.42 0.63 0.82l0.21-0.84c0.09-0.35 0.18-0.46 0.41-0.46 0.26 0 0.44 0.16 0.85 0.79z"/>
<path d="m158.52 654v0.12l-0.01 0.03v0.04l-0.01 0.02v0.02l-0.02 0.04v0.02l-0.02 0.04v0.01l-0.02 0.04-0.02 0.03-0.01 0.03-0.02 0.02-0.02 0.03-0.03 0.02-0.04 0.04-0.02 0.01-0.03 0.02-0.02 0.01-0.02 0.02-0.03 0.01-0.02 0.01h-0.02l-0.03 0.01-0.02 0.01h-0.02l-0.02 0.01h-0.09c-0.18 0-0.41-0.1-0.41-0.4 0-0.28 0.25-0.35 0.44-0.35 0.04 0 0.08 0.01 0.1 0.02 0.03 0 0.05 0.01 0.06 0.01 0.05 0 0.1-0.03 0.1-0.1 0-0.13-0.11-0.44-0.57-0.73l0.06-0.14c0.21 0.07 0.78 0.53 0.78 1.03z"/>
<path d="m159.02 658.56v-0.13c0.59-0.04 0.67-0.11 0.67-0.63v-3.09c0-0.51-0.09-0.6-0.67-0.62v-0.13h2.34c0.54 0 1.04 0.14 1.3 0.38 0.25 0.22 0.39 0.53 0.39 0.87 0 0.3-0.13 0.58-0.34 0.78-0.21 0.19-0.4 0.27-0.86 0.39 0.37 0.09 0.51 0.15 0.68 0.3 0.18 0.15 0.28 0.41 0.28 0.7 0 0.78-0.62 1.18-1.83 1.18l-0.11-0.26c0.8 0 1.23-0.33 1.23-0.95 0-0.54-0.37-0.85-1.03-0.85h-0.66v-0.28c0.67 0 1-0.03 1.25-0.14 0.4-0.16 0.58-0.44 0.58-0.88 0-0.38-0.14-0.65-0.42-0.81-0.22-0.12-0.51-0.18-0.97-0.18-0.35 0-0.44 0.07-0.44 0.29v3.59c0 0.15 0.05 0.21 0.15 0.21h0.31l0.11 0.26z"/>
</g>
   <g id="content" transform="matrix(2 0 0 -2 -162.42 1563.9)" fill-rule="evenodd" stroke="#000" stroke-miterlimit="10.433" stroke-width="0" inkscapeversion="0.92.4" ns0:alignment="middle center" ns0:jacobian_sqrt="2.000001" ns0:pdfconverter="pstoedit" ns0:preamble="/home/antonio/.config/inkscape/extensions/textext/default_packages.tex" ns0:scale="1.5" ns0:texconverter="pdflatex" ns0:text="$\\Gamma_{x,\\rm B}$" ns0:version="0.10.0" xml:space="preserve">
<path d="m154.16 662.39-0.03 1.42h-5.3v-0.19c0.7-0.05 0.87-0.18 0.87-0.89v-4.3c0-0.75-0.08-0.97-0.87-1.01v-0.19h2.79v0.19c-0.7 0.03-0.9 0.17-0.9 0.9v4.78c0 0.25 0.05 0.33 0.32 0.33h1.35c0.91 0 1.35-0.04 1.52-1.04z"/>
<path d="m157.41 656.51-0.06-0.06v-0.01l-0.02-0.02-0.01-0.02-0.04-0.04v-0.01h-0.01v-0.01l-0.01-0.01c-0.16-0.21-0.25-0.28-0.33-0.28-0.1 0-0.16 0.09-0.21 0.28-0.01 0.06-0.02 0.1-0.03 0.12-0.17 0.7-0.25 1.02-0.25 1.13 0.31 0.53 0.56 0.84 0.68 0.84 0.05 0 0.1-0.02 0.17-0.06 0.09-0.05 0.14-0.06 0.19-0.06 0.15 0 0.25 0.1 0.25 0.25s-0.12 0.26-0.29 0.26c-0.31 0-0.57-0.25-1.06-1l-0.07 0.39c-0.1 0.47-0.18 0.61-0.37 0.61-0.15 0-0.39-0.07-0.82-0.2l-0.07-0.03 0.02-0.11c0.27 0.07 0.33 0.08 0.4 0.08 0.17 0 0.21-0.06 0.31-0.48l0.2-0.85-0.57-0.82c-0.14-0.21-0.28-0.33-0.36-0.33-0.04 0-0.11 0.02-0.18 0.06-0.09 0.05-0.16 0.07-0.22 0.07-0.13 0-0.24-0.1-0.24-0.24 0-0.18 0.14-0.3 0.35-0.3 0.22 0 0.3 0.07 0.65 0.49 0.19 0.22 0.34 0.41 0.63 0.82l0.21-0.84c0.09-0.35 0.18-0.47 0.41-0.47 0.26 0 0.44 0.17 0.85 0.8z"/>
<path d="m159.08 655.78v0.11l-0.01 0.02v0.05l-0.01 0.02v0.02l-0.01 0.02v0.02l-0.01 0.02v0.02l-0.01 0.02-0.01 0.01v0.02l-0.01 0.02-0.01 0.01-0.06 0.09-0.1 0.1-0.03 0.02-0.02 0.01-0.03 0.01-0.04 0.02-0.03 0.01-0.02 0.01h-0.02l-0.02 0.01h-0.02l-0.02 0.01h-0.08c-0.17 0-0.4-0.1-0.4-0.4 0-0.28 0.25-0.35 0.43-0.35 0.05 0 0.09 0.01 0.11 0.01 0.03 0.01 0.05 0.02 0.06 0.02 0.05 0 0.1-0.04 0.1-0.1 0-0.13-0.11-0.45-0.57-0.74l0.06-0.13c0.21 0.07 0.78 0.53 0.78 1.02z"/>
<path d="m159.58 660.34v-0.13c0.59-0.03 0.67-0.11 0.67-0.62v-3.09c0-0.52-0.09-0.61-0.67-0.63v-0.13h2.33c0.55 0 1.05 0.15 1.31 0.38 0.25 0.23 0.39 0.54 0.39 0.87 0 0.31-0.13 0.59-0.35 0.79-0.21 0.19-0.39 0.27-0.85 0.38 0.36 0.09 0.51 0.16 0.68 0.31s0.28 0.41 0.28 0.69c0 0.78-0.62 1.18-1.83 1.18l-0.11-0.25c0.8 0 1.23-0.34 1.23-0.96 0-0.54-0.37-0.84-1.03-0.84h-0.67v-0.28c0.68 0 1-0.04 1.26-0.14 0.39-0.17 0.58-0.45 0.58-0.88 0-0.38-0.14-0.65-0.42-0.81-0.23-0.13-0.51-0.18-0.98-0.18-0.34 0-0.44 0.06-0.44 0.28v3.6c0 0.14 0.05 0.21 0.16 0.21h0.31l0.11 0.25z"/>
</g>
   <text x="303.13937" y="247.00287" fill="#000000" font-family="'STIX Two Text'" font-size="19px" letter-spacing="0px" text-align="center" text-anchor="middle" word-spacing="0px" style="font-feature-settings:normal;font-variant-caps:normal;font-variant-ligatures:normal;font-variant-numeric:normal;line-height:1.25" xml:space="preserve"><tspan x="303.13937" y="247.00287">B<tspan dy="6" font-size="65%">(g)</tspan></tspan><tspan x="303.13937" y="270.75287">(DDI hipotética,</tspan><tspan x="303.13937" y="294.50287"><tspan font-family="'STIX Two Text'" font-style="italic">P</tspan>, <tspan font-family="'STIX Two Text'" font-style="italic">P</tspan>*<tspan dx="-6.5" dy="6" font-size="65%">B</tspan><tspan dy="-6">, </tspan><tspan font-family="'STIX Two Text'" font-style="italic">T</tspan>)</tspan></text>
  </g>
  <g transform="translate(-3.8678 -19.587)" fill="none" stroke="#000" stroke-width="1px">
   <path d="m225.54 224.48 43.301 25" marker-end="url(#marker2184)"/>
   <path d="m265.75 255.85-43.301-25" marker-end="url(#marker2302)"/>
  </g>
  <path d="m340.21 236.27 43.301-25" fill="none" marker-end="url(#marker1051-3)" stroke="#000" stroke-width="1px"/>
  <text x="245.65222" y="209.95686" fill="#000000" font-family="'STIX Two Text'" font-size="16px" letter-spacing="0px" word-spacing="0px" style="font-feature-settings:normal;font-variant-caps:normal;font-variant-ligatures:normal;font-variant-numeric:normal;line-height:1.25" xml:space="preserve"><tspan x="245.65222" y="209.95686">(3)</tspan></text>
  <text x="339.71802" y="217.61285" fill="#000000" font-family="'STIX Two Text'" font-size="16px" letter-spacing="0px" word-spacing="0px" style="font-feature-settings:normal;font-variant-caps:normal;font-variant-ligatures:normal;font-variant-numeric:normal;line-height:1.25" xml:space="preserve"><tspan x="339.71802" y="217.61285">(4)</tspan></text>
  <g fill-rule="evenodd" stroke="#000" stroke-miterlimit="10.433" stroke-width="0">
   <g transform="matrix(2 0 0 -2 -12.118 1633.7)" inkscapeversion="0.92.4" ns0:alignment="middle center" ns0:jacobian_sqrt="2.000001" ns0:pdfconverter="pstoedit" ns0:preamble="/home/antonio/.config/inkscape/extensions/textext/default_packages.tex" ns0:scale="1.5" ns0:texconverter="pdflatex" ns0:text="$a_{\\rm B(g)}^*$" ns0:version="0.10.0" xml:space="preserve">
<path d="m153.34 658.33-0.01-0.02-0.02-0.01-0.02-0.02-0.01-0.02-0.02-0.01-0.05-0.05h-0.01l-0.01-0.01v-0.01l-0.02-0.02h-0.01l-0.01-0.01-0.01-0.02-0.01-0.01-0.02-0.01-0.01-0.02-0.04-0.04c-0.3-0.31-0.43-0.41-0.52-0.41-0.08 0-0.14 0.06-0.14 0.13 0 0.2 0.42 1.9 0.89 3.61 0.03 0.1 0.04 0.12 0.06 0.21l-0.07 0.03-0.61-0.07-0.03-0.03-0.11-0.48c-0.08 0.37-0.37 0.58-0.8 0.58l0.06-0.22c0.34-0.02 0.56-0.26 0.56-0.61 0-0.83-0.5-2.01-1.19-2.74-0.23-0.27-0.57-0.44-0.86-0.44-0.35 0-0.58 0.29-0.58 0.75 0 0.53 0.38 1.56 0.81 2.17 0.4 0.58 0.87 0.9 1.26 0.87l-0.06 0.22c-1.31 0-2.85-1.82-2.85-3.39 0-0.7 0.38-1.1 1.02-1.1 0.7 0 1.13 0.32 2 1.55-0.2-0.77-0.23-0.9-0.23-1.14 0-0.28 0.12-0.4 0.4-0.4 0.4 0 0.65 0.18 1.39 1.09z"/>
<path d="m156.55 663.17v0.06l-0.01 0.01v0.02l-0.01 0.01v0.01l-0.01 0.01v0.01l-0.02 0.02v0.01l-0.06 0.06h-0.01l-0.01 0.01h-0.01l-0.01 0.01h-0.04l-0.01 0.01h-0.02c-0.16 0-0.73-0.57-0.94-0.69 0 0.39 0.2 0.78 0.2 1.01 0 0.15-0.1 0.24-0.25 0.24-0.14 0-0.22-0.1-0.22-0.24 0-0.27 0.17-0.64 0.17-1.01-0.23 0.13-0.77 0.72-0.92 0.72-0.12 0-0.24-0.12-0.24-0.25 0-0.24 0.83-0.41 1.1-0.56-0.29-0.17-0.84-0.25-0.98-0.34-0.07-0.05-0.12-0.11-0.12-0.2 0-0.13 0.1-0.24 0.22-0.24 0.16 0 0.73 0.56 0.94 0.68 0-0.38-0.2-0.77-0.2-1.01 0-0.14 0.11-0.24 0.25-0.24s0.22 0.1 0.22 0.24c0 0.28-0.16 0.64-0.16 1.01 0.22-0.12 0.77-0.71 0.91-0.71 0.12 0 0.24 0.12 0.24 0.25 0 0.09-0.07 0.15-0.14 0.19-0.18 0.12-0.66 0.2-0.96 0.37 0.33 0.19 0.78 0.22 0.98 0.34 0.08 0.04 0.12 0.1 0.12 0.19z"/>
<path d="m153.81 658.56v-0.13c0.59-0.04 0.67-0.11 0.67-0.63v-3.09c0-0.51-0.09-0.6-0.67-0.62v-0.13h2.34c0.54 0 1.04 0.14 1.3 0.38 0.25 0.22 0.39 0.53 0.39 0.87 0 0.3-0.13 0.58-0.34 0.78-0.21 0.19-0.4 0.27-0.85 0.39 0.36 0.09 0.5 0.15 0.67 0.3 0.18 0.15 0.28 0.41 0.28 0.7 0 0.78-0.62 1.18-1.83 1.18l-0.11-0.26c0.8 0 1.23-0.33 1.23-0.95 0-0.54-0.37-0.85-1.03-0.85h-0.66v-0.28c0.68 0 1-0.03 1.25-0.14 0.4-0.16 0.59-0.44 0.59-0.88 0-0.38-0.15-0.65-0.43-0.81-0.22-0.12-0.51-0.18-0.97-0.18-0.35 0-0.44 0.07-0.44 0.29v3.59c0 0.15 0.05 0.21 0.15 0.21h0.31l0.11 0.26z"/>
<path d="m160.41 658.66-0.1-0.06-0.16-0.12-0.04-0.02-0.04-0.03-0.03-0.03-0.04-0.02-0.03-0.03-0.06-0.04-0.03-0.03-0.06-0.05-0.06-0.04-0.2-0.2-0.04-0.05-0.1-0.12c-0.49-0.6-0.74-1.3-0.74-2.11 0-0.89 0.26-1.57 0.87-2.28 0.29-0.33 0.47-0.48 0.84-0.71l0.08 0.12c-0.56 0.43-0.75 0.68-0.94 1.2-0.17 0.46-0.25 0.99-0.25 1.69 0 0.73 0.09 1.3 0.28 1.73 0.2 0.43 0.41 0.68 0.91 1.08z"/>
<path d="m163.95 656.65v0.27h-0.53c-0.14 0-0.25 0.03-0.39 0.07l-0.15 0.06c-0.19 0.07-0.38 0.1-0.56 0.1-0.65 0-1.17-0.5-1.17-1.13 0-0.44 0.19-0.7 0.65-0.93-0.13-0.13-0.26-0.25-0.3-0.28-0.23-0.2-0.32-0.34-0.32-0.48 0-0.15 0.08-0.23 0.37-0.37l0.15-0.02c0.23-0.05 0.79-0.09 1.13-0.09 0.63 0 0.87-0.09 0.87-0.34 0-0.4-0.54-0.67-1.33-0.67-0.61 0-1.02 0.2-1.02 0.5 0 0.16 0.05 0.25 0.35 0.6l-0.15 0.02c-0.5-0.36-0.69-0.59-0.69-0.85 0-0.37 0.55-0.67 1.21-0.67 0.53 0 1.07 0.18 1.44 0.47 0.26 0.22 0.38 0.44 0.38 0.7 0 0.43-0.33 0.73-0.85 0.75l-0.9 0.04c-0.37 0.01-0.54 0.08-0.54 0.19 0 0.14 0.23 0.38 0.42 0.44 0.06-0.01 0.11-0.02 0.13-0.02 0.13-0.01 0.22-0.02 0.27-0.02l0.02 0.17c-0.42 0-0.71 0.46-0.71 1.12v0.02c0 0.42 0.2 0.66 0.52 0.66 0.21 0 0.4-0.12 0.51-0.33 0.12-0.24 0.21-0.56 0.21-0.83 0-0.39-0.21-0.64-0.53-0.64l-0.02-0.17c0.26 0 0.53 0.1 0.75 0.29 0.23 0.2 0.34 0.44 0.34 0.79 0 0.2-0.04 0.36-0.14 0.58z"/>
<path d="m164.42 652.72 0.05 0.03 0.04 0.03 0.05 0.03 0.12 0.09 0.04 0.02 0.04 0.03 0.03 0.03 0.04 0.02 0.03 0.03 0.06 0.04 0.03 0.03 0.06 0.05 0.06 0.04 0.15 0.15 0.04 0.05 0.05 0.05 0.1 0.12c0.49 0.6 0.74 1.3 0.74 2.11 0 0.89-0.26 1.57-0.88 2.28-0.28 0.33-0.47 0.48-0.83 0.71l-0.08-0.12c0.56-0.43 0.75-0.68 0.94-1.2 0.17-0.46 0.25-0.99 0.25-1.69 0-0.72-0.09-1.3-0.28-1.72-0.2-0.44-0.41-0.69-0.91-1.09z"/>
</g>
   <g transform="matrix(2 0 0 -2 155.95 1533.3)" inkscapeversion="0.92.4" ns0:alignment="middle center" ns0:jacobian_sqrt="2.0" ns0:pdfconverter="pstoedit" ns0:preamble="/home/antonio/.config/inkscape/extensions/textext/default_packages.tex" ns0:scale="1.5" ns0:texconverter="pdflatex" ns0:text="$a_{\\rm B(g)}^{}$" ns0:version="0.10.0" xml:space="preserve">
<path d="m153.34 658.33-0.01-0.02-0.02-0.01-0.02-0.02-0.01-0.02-0.02-0.01-0.05-0.05h-0.01l-0.01-0.01v-0.01l-0.02-0.02h-0.01l-0.01-0.01-0.01-0.02-0.01-0.01-0.02-0.01-0.01-0.02-0.04-0.04c-0.3-0.31-0.43-0.41-0.52-0.41-0.08 0-0.14 0.06-0.14 0.13 0 0.2 0.42 1.9 0.89 3.61 0.03 0.1 0.04 0.12 0.06 0.21l-0.07 0.03-0.61-0.07-0.03-0.03-0.11-0.48c-0.08 0.37-0.37 0.58-0.8 0.58l0.06-0.22c0.34-0.02 0.56-0.26 0.56-0.61 0-0.83-0.5-2.01-1.19-2.74-0.23-0.27-0.57-0.44-0.86-0.44-0.35 0-0.58 0.29-0.58 0.75 0 0.53 0.38 1.56 0.81 2.17 0.4 0.58 0.87 0.9 1.26 0.87l-0.06 0.22c-1.31 0-2.85-1.82-2.85-3.39 0-0.7 0.38-1.1 1.02-1.1 0.7 0 1.13 0.32 2 1.55-0.2-0.77-0.23-0.9-0.23-1.14 0-0.28 0.12-0.4 0.4-0.4 0.4 0 0.65 0.18 1.39 1.09z"/>
<path d="m153.81 658.56v-0.13c0.59-0.04 0.67-0.11 0.67-0.63v-3.09c0-0.51-0.09-0.6-0.67-0.62v-0.13h2.34c0.54 0 1.04 0.14 1.3 0.38 0.25 0.22 0.39 0.53 0.39 0.87 0 0.3-0.13 0.58-0.34 0.78-0.21 0.19-0.4 0.27-0.85 0.39 0.36 0.09 0.5 0.15 0.67 0.3 0.18 0.15 0.28 0.41 0.28 0.7 0 0.78-0.62 1.18-1.83 1.18l-0.11-0.26c0.8 0 1.23-0.33 1.23-0.95 0-0.54-0.37-0.85-1.03-0.85h-0.66v-0.28c0.68 0 1-0.03 1.25-0.14 0.4-0.16 0.59-0.44 0.59-0.88 0-0.38-0.15-0.65-0.43-0.81-0.22-0.12-0.51-0.18-0.97-0.18-0.35 0-0.44 0.07-0.44 0.29v3.59c0 0.15 0.05 0.21 0.15 0.21h0.31l0.11 0.26z"/>
<path d="m160.41 658.66-0.1-0.06-0.16-0.12-0.04-0.02-0.04-0.03-0.03-0.03-0.04-0.02-0.03-0.03-0.06-0.04-0.03-0.03-0.06-0.05-0.06-0.04-0.2-0.2-0.04-0.05-0.1-0.12c-0.49-0.6-0.74-1.3-0.74-2.11 0-0.89 0.26-1.57 0.87-2.28 0.29-0.33 0.47-0.48 0.84-0.71l0.08 0.12c-0.56 0.43-0.75 0.68-0.94 1.2-0.17 0.46-0.25 0.99-0.25 1.69 0 0.73 0.09 1.3 0.28 1.73 0.2 0.43 0.41 0.68 0.91 1.08z"/>
<path d="m163.95 656.65v0.27h-0.53c-0.14 0-0.25 0.03-0.39 0.07l-0.15 0.06c-0.19 0.07-0.38 0.1-0.56 0.1-0.65 0-1.17-0.5-1.17-1.13 0-0.44 0.19-0.7 0.65-0.93-0.13-0.13-0.26-0.25-0.3-0.28-0.23-0.2-0.32-0.34-0.32-0.48 0-0.15 0.08-0.23 0.37-0.37l0.15-0.02c0.23-0.05 0.79-0.09 1.13-0.09 0.63 0 0.87-0.09 0.87-0.34 0-0.4-0.54-0.67-1.33-0.67-0.61 0-1.02 0.2-1.02 0.5 0 0.16 0.05 0.25 0.35 0.6l-0.15 0.02c-0.5-0.36-0.69-0.59-0.69-0.85 0-0.37 0.55-0.67 1.21-0.67 0.53 0 1.07 0.18 1.44 0.47 0.26 0.22 0.38 0.44 0.38 0.7 0 0.43-0.33 0.73-0.85 0.75l-0.9 0.04c-0.37 0.01-0.54 0.08-0.54 0.19 0 0.14 0.23 0.38 0.42 0.44 0.06-0.01 0.11-0.02 0.13-0.02 0.13-0.01 0.22-0.02 0.27-0.02l0.02 0.17c-0.42 0-0.71 0.46-0.71 1.12v0.02c0 0.42 0.2 0.66 0.52 0.66 0.21 0 0.4-0.12 0.51-0.33 0.12-0.24 0.21-0.56 0.21-0.83 0-0.39-0.21-0.64-0.53-0.64l-0.02-0.17c0.26 0 0.53 0.1 0.75 0.29 0.23 0.2 0.34 0.44 0.34 0.79 0 0.2-0.04 0.36-0.14 0.58z"/>
<path d="m164.42 652.72 0.05 0.03 0.04 0.03 0.05 0.03 0.12 0.09 0.04 0.02 0.04 0.03 0.03 0.03 0.04 0.02 0.03 0.03 0.06 0.04 0.03 0.03 0.06 0.05 0.06 0.04 0.15 0.15 0.04 0.05 0.05 0.05 0.1 0.12c0.49 0.6 0.74 1.3 0.74 2.11 0 0.89-0.26 1.57-0.88 2.28-0.28 0.33-0.47 0.48-0.83 0.71l-0.08-0.12c0.56-0.43 0.75-0.68 0.94-1.2 0.17-0.46 0.25-0.99 0.25-1.69 0-0.72-0.09-1.3-0.28-1.72-0.2-0.44-0.41-0.69-0.91-1.09z"/>
</g>
   <g transform="matrix(2 0 0 -2 159.05 1392.1)" inkscapeversion="0.92.4" ns0:alignment="middle center" ns0:jacobian_sqrt="2.000001" ns0:pdfconverter="pstoedit" ns0:preamble="/home/antonio/.config/inkscape/extensions/textext/default_packages.tex" ns0:scale="1.5" ns0:texconverter="pdflatex" ns0:text="$a_{x,\\rm B}^{}$" ns0:version="0.10.0" xml:space="preserve">
<path d="m153.34 658.33-0.01-0.02-0.02-0.01-0.02-0.02-0.01-0.02-0.02-0.01-0.05-0.05h-0.01l-0.01-0.01v-0.01l-0.02-0.02h-0.01l-0.01-0.01-0.01-0.02-0.01-0.01-0.02-0.01-0.01-0.02-0.04-0.04c-0.3-0.31-0.43-0.41-0.52-0.41-0.08 0-0.14 0.06-0.14 0.13 0 0.2 0.42 1.9 0.89 3.61 0.03 0.1 0.04 0.12 0.06 0.21l-0.07 0.03-0.61-0.07-0.03-0.03-0.11-0.48c-0.08 0.37-0.37 0.58-0.8 0.58l0.06-0.22c0.34-0.02 0.56-0.26 0.56-0.61 0-0.83-0.5-2.01-1.19-2.74-0.23-0.27-0.57-0.44-0.86-0.44-0.35 0-0.58 0.29-0.58 0.75 0 0.53 0.38 1.56 0.81 2.17 0.4 0.58 0.87 0.9 1.26 0.87l-0.06 0.22c-1.31 0-2.85-1.82-2.85-3.39 0-0.7 0.38-1.1 1.02-1.1 0.7 0 1.13 0.32 2 1.55-0.2-0.77-0.23-0.9-0.23-1.14 0-0.28 0.12-0.4 0.4-0.4 0.4 0 0.65 0.18 1.39 1.09z"/>
<path d="m156.85 654.73-0.01-0.01-0.01-0.02-0.02-0.02v-0.01l-0.06-0.06-0.01-0.02-0.02-0.02v-0.01l-0.01-0.01h-0.01v-0.01c-0.16-0.21-0.25-0.28-0.32-0.28-0.11 0-0.17 0.09-0.22 0.29-0.01 0.05-0.02 0.09-0.03 0.11-0.17 0.71-0.25 1.03-0.25 1.13 0.31 0.54 0.56 0.84 0.69 0.84 0.04 0 0.09-0.02 0.16-0.05 0.09-0.05 0.14-0.07 0.19-0.07 0.15 0 0.25 0.11 0.25 0.25 0 0.15-0.12 0.26-0.29 0.26-0.31 0-0.57-0.25-1.06-0.99l-0.07 0.38c-0.1 0.47-0.18 0.61-0.37 0.61-0.15 0-0.39-0.06-0.81-0.2l-0.08-0.03 0.03-0.1c0.26 0.06 0.33 0.07 0.39 0.07 0.17 0 0.22-0.06 0.31-0.48l0.21-0.85-0.58-0.81c-0.14-0.21-0.28-0.34-0.35-0.34-0.04 0-0.12 0.02-0.18 0.06-0.1 0.05-0.17 0.07-0.23 0.07-0.13 0-0.24-0.1-0.24-0.24 0-0.18 0.14-0.29 0.35-0.29 0.22 0 0.3 0.06 0.65 0.48 0.19 0.23 0.34 0.42 0.63 0.82l0.21-0.84c0.09-0.35 0.18-0.46 0.41-0.46 0.26 0 0.44 0.16 0.85 0.79z"/>
<path d="m158.52 654v0.12l-0.01 0.03v0.04l-0.01 0.02v0.02l-0.02 0.04v0.02l-0.02 0.04v0.01l-0.02 0.04-0.02 0.03-0.01 0.03-0.02 0.02-0.02 0.03-0.03 0.02-0.04 0.04-0.02 0.01-0.03 0.02-0.02 0.01-0.02 0.02-0.03 0.01-0.02 0.01h-0.02l-0.03 0.01-0.02 0.01h-0.02l-0.02 0.01h-0.09c-0.18 0-0.41-0.1-0.41-0.4 0-0.28 0.25-0.35 0.44-0.35 0.04 0 0.08 0.01 0.1 0.02 0.03 0 0.05 0.01 0.06 0.01 0.05 0 0.1-0.03 0.1-0.1 0-0.13-0.11-0.44-0.57-0.73l0.06-0.14c0.21 0.07 0.78 0.53 0.78 1.03z"/>
<path d="m159.02 658.56v-0.13c0.59-0.04 0.67-0.11 0.67-0.63v-3.09c0-0.51-0.09-0.6-0.67-0.62v-0.13h2.34c0.54 0 1.04 0.14 1.3 0.38 0.25 0.22 0.39 0.53 0.39 0.87 0 0.3-0.13 0.58-0.34 0.78-0.21 0.19-0.4 0.27-0.86 0.39 0.37 0.09 0.51 0.15 0.68 0.3 0.18 0.15 0.28 0.41 0.28 0.7 0 0.78-0.62 1.18-1.83 1.18l-0.11-0.26c0.8 0 1.23-0.33 1.23-0.95 0-0.54-0.37-0.85-1.03-0.85h-0.66v-0.28c0.67 0 1-0.03 1.25-0.14 0.4-0.16 0.58-0.44 0.58-0.88 0-0.38-0.14-0.65-0.42-0.81-0.22-0.12-0.51-0.18-0.97-0.18-0.35 0-0.44 0.07-0.44 0.29v3.59c0 0.15 0.05 0.21 0.15 0.21h0.31l0.11 0.26z"/>
</g>
  </g>
 </g>
</svg>
