<?xml version="1.0" encoding="UTF-8"?>
<!-- Created with Inkscape (http://www.inkscape.org/) -->
<svg width="515.67" height="245.56" version="1.1" viewBox="0 0 515.67 245.56" xmlns="http://www.w3.org/2000/svg" xmlns:cc="http://creativecommons.org/ns#" xmlns:dc="http://purl.org/dc/elements/1.1/" xmlns:rdf="http://www.w3.org/1999/02/22-rdf-syntax-ns#">
 <style type="text/css">
  @import url('../estilo.css');
 </style>
 <defs>
  <marker id="marker856" overflow="visible" orient="auto">
   <path transform="matrix(-1.1,0,0,-1.1,-1.1,0)" d="m8.7186 4.0337-10.926-4.0177 10.926-4.0177c-1.7455 2.3721-1.7354 5.6175-6e-7 8.0354z" fill-rule="evenodd" stroke="#000" stroke-linejoin="round" stroke-width=".625"/>
  </marker>
  <marker id="marker850" overflow="visible" orient="auto">
   <path transform="matrix(-1.1,0,0,-1.1,-1.1,0)" d="m8.7186 4.0337-10.926-4.0177 10.926-4.0177c-1.7455 2.3721-1.7354 5.6175-6e-7 8.0354z" fill-rule="evenodd" stroke="#000" stroke-linejoin="round" stroke-width=".625"/>
  </marker>
  <marker id="marker1360" overflow="visible" orient="auto">
   <path transform="matrix(-1.1,0,0,-1.1,-1.1,0)" d="m8.7186 4.0337-10.926-4.0177 10.926-4.0177c-1.7455 2.3721-1.7354 5.6175-6e-7 8.0354z" fill-rule="evenodd" stroke="#000" stroke-linejoin="round" stroke-width=".625"/>
  </marker>
  <marker id="Arrow2Lend" overflow="visible" orient="auto">
   <path transform="matrix(-1.1,0,0,-1.1,-1.1,0)" d="m8.7186 4.0337-10.926-4.0177 10.926-4.0177c-1.7455 2.3721-1.7354 5.6175-6e-7 8.0354z" fill-rule="evenodd" stroke="#000" stroke-linejoin="round" stroke-width=".625"/>
  </marker>
 </defs>
 <metadata>
  <rdf:RDF>
   <cc:Work rdf:about="">
    <dc:format>image/svg+xml</dc:format>
    <dc:type rdf:resource="http://purl.org/dc/dcmitype/StillImage"/>
    <dc:title/>
   </cc:Work>
  </rdf:RDF>
 </metadata>
 <g transform="translate(-165 -437.02)">
  <rect x="325" y="442.52" width="25" height="125" fill="#999"/>
  <g fill-opacity=".99091">
   <rect x="258" y="442.52" width="14" height="125"/>
   <rect transform="rotate(-90)" x="-512.52" y="213" width="14" height="45"/>
   <rect transform="scale(-1)" x="-495" y="-567.52" width="14" height="125"/>
   <rect transform="rotate(90)" x="498.52" y="-540" width="14" height="45"/>
  </g>
  <g fill="none" stroke="#000" stroke-width="1px">
   <path d="m368 467.52h-68" marker-end="url(#Arrow2Lend)"/>
   <path d="m368 542.52h-68" marker-end="url(#marker1360)"/>
   <path d="m170 442.52h400"/>
   <path d="m170 567.52h400"/>
  </g>
  <text x="378.60812" y="510.57965" fill="#000000" font-family="'STIX Two Text'" font-size="16px" letter-spacing="0px" word-spacing="0px" style="font-feature-settings:normal;font-variant-caps:normal;font-variant-ligatures:normal;font-variant-numeric:normal;line-height:1.25" xml:space="preserve"><tspan x="378.60812" y="510.57965">Disolución</tspan></text>
  <text x="280.4805" y="498.55566" fill="#000000" font-family="'STIX Two Text'" font-size="16px" letter-spacing="0px" word-spacing="0px" style="font-feature-settings:normal;font-variant-caps:normal;font-variant-ligatures:normal;font-variant-numeric:normal;line-height:1.25" xml:space="preserve"><tspan x="280.4805" y="498.55566">Agua</tspan><tspan x="280.4805" y="518.55566">pura</tspan></text>
  <path d="m609.67 505.5h-68" fill="none" marker-end="url(#marker850)" stroke="#000" stroke-width="1px"/>
  <path d="m337.52 637.69v-68" fill="none" marker-end="url(#marker856)" stroke="#000" stroke-width="1px"/>
  <g fill="#000000" font-family="'STIX Two Text'" font-size="16px" letter-spacing="0px" word-spacing="0px">
   <text x="615.14398" y="510.57965" style="font-feature-settings:normal;font-variant-caps:normal;font-variant-ligatures:normal;font-variant-numeric:normal;line-height:1.25" xml:space="preserve"><tspan x="615.14398" y="510.57965"><tspan font-family="'STIX Two Text'" font-style="italic">P</tspan><tspan dy="5" font-size="65%">aplic</tspan><tspan dy="-5"> &gt; Π</tspan></tspan></text>
   <text x="337.52277" y="653.81567" text-align="center" text-anchor="middle" style="font-feature-settings:normal;font-variant-caps:normal;font-variant-ligatures:normal;font-variant-numeric:normal;line-height:1.25" xml:space="preserve"><tspan x="337.52277" y="653.81567">Membrana rígida permeable</tspan><tspan x="337.52277" y="673.81567">sólo al agua</tspan></text>
   <text x="372.42401" y="471.28928" style="font-feature-settings:normal;font-variant-caps:normal;font-variant-ligatures:normal;font-variant-numeric:normal;line-height:1.25" xml:space="preserve"><tspan x="372.42401" y="471.28928">H<tspan dy="5" font-size="65%">2</tspan><tspan dy="-5">O</tspan></tspan></text>
   <text x="372.42401" y="546.28925" style="font-feature-settings:normal;font-variant-caps:normal;font-variant-ligatures:normal;font-variant-numeric:normal;line-height:1.25" xml:space="preserve"><tspan x="372.42401" y="546.28925">H<tspan dy="5" font-size="65%">2</tspan><tspan dy="-5">O</tspan></tspan></text>
  </g>
 </g>
</svg>
