<?xml version="1.0" encoding="UTF-8" standalone="no"?>
<svg id="svg4136" xmlns:rdf="http://www.w3.org/1999/02/22-rdf-syntax-ns#" xmlns="http://www.w3.org/2000/svg" xmlns:se="http://svg-edit.googlecode.com" height="271" width="372" version="1.1" xmlns:cc="http://creativecommons.org/ns#" xmlns:dc="http://purl.org/dc/elements/1.1/">
 <metadata id="metadata4179">
  <rdf:RDF>
   <cc:Work rdf:about="">
    <dc:format>image/svg+xml</dc:format>
    <dc:type rdf:resource="http://purl.org/dc/dcmitype/StillImage"/>
    <dc:title>Tipo de ligandos</dc:title>
   </cc:Work>
  </rdf:RDF>
 </metadata>
<!-- Created with SVG-edit - http://svg-edit.googlecode.com/ -->
 <defs id="defs4138">
  <marker id="se_marker_end_svg_15" orient="auto" refX="50" markerUnits="strokeWidth" refY="50" markerWidth="5" viewBox="0 0 100 100" markerHeight="5">
   <path id="svg_1" stroke-width="10" stroke="#000" d="m100 50l-100 40 30-40-30-40 100 40z"/>
  </marker>
  <marker id="se_marker_end_svg_16" orient="auto" refX="50" markerUnits="strokeWidth" refY="50" markerWidth="5" viewBox="0 0 100 100" markerHeight="5">
   <path id="svg_11" stroke-width="10" stroke="#000" d="m100 50l-100 40 30-40-30-40 100 40z"/>
  </marker>
  <marker id="se_marker_end_svg_17" orient="auto" refX="50" markerUnits="strokeWidth" refY="50" markerWidth="5" viewBox="0 0 100 100" markerHeight="5">
   <path id="svg_13" stroke-width="10" stroke="#000" d="m100 50l-100 40 30-40-30-40 100 40z"/>
  </marker>
  <marker id="se_marker_end_svg_18" orient="auto" refX="50" markerUnits="strokeWidth" refY="50" markerWidth="5" viewBox="0 0 100 100" markerHeight="5">
   <path id="svg_14" stroke-width="10" stroke="#000" d="m100 50l-100 40 30-40-30-40 100 40z"/>
  </marker>
  <marker id="se_marker_end_svg_20" orient="auto" refX="50" markerUnits="strokeWidth" refY="50" markerWidth="5" viewBox="0 0 100 100" markerHeight="5">
   <path id="svg_21" stroke-width="10" stroke="#000" d="m100 50l-100 40 30-40-30-40 100 40z"/>
  </marker>
  <marker id="se_marker_end_svg_19" orient="auto" refX="50" markerUnits="strokeWidth" refY="50" markerWidth="5" viewBox="0 0 100 100" markerHeight="5">
   <path id="svg_22" stroke-width="10" stroke="#000" d="m100 50l-100 40 30-40-30-40 100 40z"/>
  </marker>
  <marker id="se_marker_end_svg_23" orient="auto" refX="50" markerUnits="strokeWidth" refY="50" markerWidth="5" viewBox="0 0 100 100" markerHeight="5">
   <path id="svg_24" stroke-width="10" stroke="#000" d="m100 50l-100 40 30-40-30-40 100 40z"/>
  </marker>
 </defs>
 <title id="title4154">Tipo de ligandos</title>
 <g id="g4156">
  <title id="title4158">Layer 1</title>
  <g stroke="#000" stroke-width="2" fill="none">
   <polyline id="svg_20" marker-end="url(#se_marker_end_svg_20)" se:connector="svg_4 svg_8" points="188.98 121 218.52 148 248.05 175"/>
   <polyline id="svg_19" marker-end="url(#se_marker_end_svg_19)" se:connector="svg_4 svg_7" points="165.36 121 134.14 148 102.92 175"/>
   <polyline id="svg_18" marker-end="url(#se_marker_end_svg_18)" se:connector="svg_4 svg_6" points="226.5 119.8 260.5 126.26 294.5 132.72"/>
   <polyline id="svg_17" marker-end="url(#se_marker_end_svg_17)" se:connector="svg_4 svg_5" points="226.5 100.73 260.5 93.955 294.5 87.178"/>
   <polyline id="svg_16" marker-end="url(#se_marker_end_svg_16)" se:connector="svg_2 svg_4" points="66.04 71 99.901 83 133.76 95"/>
   <polyline id="svg_15" marker-end="url(#se_marker_end_svg_15)" se:connector="svg_2 svg_3" points="68.333 49 103.18 37.5 138.03 26"/>
  </g>
  <g font-size="19" stroke-width="0" text-anchor="middle" stroke="#000000" font-family="serif" fill="#000000">
   <text id="svg_2" xml:space="preserve" font-weight="bold" y="66" x="35">ligandos</text>
   <g>
    <text id="svg_3" xml:space="preserve" y="16" x="185">monoatómicos</text>
    <text id="svg_4" xml:space="preserve" y="116" x="177.5">poliatómicos</text>
    <text id="svg_5" xml:space="preserve" y="86" x="328">neutros</text>
    <text id="svg_6" xml:space="preserve" y="146" x="335">aniónicos</text>
    <text id="svg_7" xml:space="preserve" y="196" x="85">monodentados</text>
    <text id="svg_8" xml:space="preserve" y="196" x="265">polidentados</text>
   </g>
  </g>
  <line id="svg_23" y2="229" x1="254" marker-end="url(#se_marker_end_svg_23)" x2="254" stroke="#000" y1="203" stroke-width="2" fill="none"/>
  <g id="svg_26" stroke-width="0" font-size="19" font-family="serif" text-anchor="middle" stroke="#000000" fill="#000000">
   <text id="svg_9" xml:space="preserve" y="247" x="260">bidentados,</text>
   <text id="svg_10" xml:space="preserve" y="266" x="276.5">tridentados, etc.</text>
  </g>
 </g>
</svg>
