<?xml version="1.0" encoding="UTF-8" standalone="no"?>
<svg id="svg4496" xmlns:rdf="http://www.w3.org/1999/02/22-rdf-syntax-ns#" xmlns="http://www.w3.org/2000/svg" xmlns:ns0="http://www.iki.fi/pav/software/textext/" height="190" width="200" version="1.1" xmlns:cc="http://creativecommons.org/ns#" xmlns:xlink="http://www.w3.org/1999/xlink" viewBox="0 0 200 190" xmlns:dc="http://purl.org/dc/elements/1.1/">
 <style type="text/css">
	@import url('../estilo.css');
 </style>
 <metadata id="metadata4638">
  <rdf:RDF>
   <cc:Work rdf:about="">
    <dc:format>image/svg+xml</dc:format>
    <dc:type rdf:resource="http://purl.org/dc/dcmitype/StillImage"/>
    <dc:title>Gnuplot</dc:title>
   </cc:Work>
  </rdf:RDF>
 </metadata>
 <title id="title4498">Gnuplot</title>
 <desc id="desc4500">Produced by GNUPLOT 5.0 patchlevel 3</desc>
 <g id="gnuplot_canvas">
  <g fill="none">
   <rect id="rect4503" height="190" width="200" y="0" x="0"/>
   <g stroke="currentColor">
    <g stroke-width=".5">
     <g id="g4539" color="white">
      <path id="path4541" stroke="#fff" d="m57 165l-0.1-1.4-0.1-1.4-0.2-1.4-0.2-1.4-0.3-1.3-0.5-1.4-0.4-1.3-0.6-1.3-0.6-1.3-0.6-1.3-0.8-1.2-0.8-1.1-0.9-1.2-0.9-1-0.9-1.1"/>
      <path id="path4543" stroke="#009e73" d="m57 165l-0.1-1.4-0.1-1.4-0.2-1.4-0.2-1.4-0.3-1.3-0.5-1.4-0.4-1.3-0.6-1.3-0.6-1.3-0.6-1.3-0.8-1.2-0.8-1.1-0.9-1.2-0.9-1-0.9-1.1-19.1 19.1h27"/>
      <g id="g4545" font-size="16" transform="translate(64.2,128.2)" text-anchor="end" stroke="none" font-family="Stix Two Text" fill="#000">
       <text id="text4547">
        <tspan id="tspan4549" font-family="Stix Two Text" font-style="italic">r</tspan>
       </text>
      </g>
      <g id="g4551" font-size="16" transform="translate(58.3,156.1)" stroke="none" font-family="Stix Two Text" fill="#000">
       <text id="text4553">
        <tspan id="tspan4555" font-family="Stix Two Text" font-style="italic">θ</tspan>
       </text>
      </g>
     </g>
     <g id="g4557" color="black">
      <g id="g4559" stroke="none" shape-rendering="crispEdges">
       <polygon id="polygon4561" points="174.5 165 173 162.4 182.9 165 173 167.6" fill="#000"/>
      </g>
      <path id="path4563" stroke="#000" d="m174.5 165l-1.5-2.6 9.9 2.6-9.9 2.6 1.5-2.6m-152.1 0h152.1"/>
     </g>
     <g id="g4565" color="black">
      <g id="g4567" stroke="none" shape-rendering="crispEdges">
       <polygon id="polygon4569" points="30 20.5 27.4 22 30 12.1 32.6 22" fill="#000"/>
      </g>
      <path id="path4571" stroke="#000" d="m30 20.5l-2.6 1.5 2.6-9.9 2.6 9.9-2.6-1.5m0 152.1v-152.1"/>
     </g>
    </g>
    <g id="g4575" color="black" stroke-width="1.5">
     <g id="g4577" stroke="none" shape-rendering="crispEdges">
      <polygon id="polygon4579" points="123 72 115.7 72 125.6 69.4 123 79.3" fill="#b3b3b3"/>
     </g>
     <path id="path4581" stroke="#b3b3b3" d="m123 72h-7.3l9.9-2.6-2.6 9.9v-7.3m-16.5 16.5l16.5-16.5"/>
    </g>
    <g id="g4583" color="black" stroke-width="1.5">
     <g id="g4585" stroke="none" shape-rendering="crispEdges">
      <polygon id="polygon4587" points="89.9 72 89.9 79.3 87.3 69.4 97.2 72" fill="#b3b3b3"/>
     </g>
     <path id="path4589" stroke="#b3b3b3" d="m89.9 72v7.3l-2.6-9.9 9.9 2.6h-7.3m16.6 16.5l-16.6-16.5"/>
    </g>
    <g id="g4593" color="black">
     <g id="g4595" font-size="16" transform="translate(21 19.8)" text-anchor="middle" stroke="none" font-family="Stix Two Text" fill="#000">
      <text id="text4597">
       <tspan id="tspan4599" font-family="Stix Two Text" font-weight="bold" font-style="italic">y</tspan>
      </text>
     </g>
    </g>
    <g id="g4601" color="black">
     <g id="g4603" font-size="16" transform="translate(178 178.6)" text-anchor="middle" stroke="none" font-family="Stix Two Text" fill="#000">
      <text id="text4605">
       <tspan id="tspan4607" font-family="Stix Two Text" font-weight="bold" font-style="italic">x</tspan>
      </text>
     </g>
    </g>
   </g>
  </g>
  <g id="gnuplot_plot_1">
   <title id="title4612">NaN</title>
  </g>
  <g id="g4622" color="black" stroke-width="1.5" fill="none">
   <g id="g4624" shape-rendering="crispEdges">
    <polygon id="polygon4626" points="103.9 91.1 96.6 91.1 106.5 88.5 103.9 98.4" fill="#0072b2"/>
   </g>
   <path id="path4628" stroke="#0072b2" d="m103.9 91.1h-7.3l9.9-2.6-2.6 9.9v-7.3m-73.9 73.9l73.9-73.9"/>
  </g>
 </g>
 <g id="content" xml:space="preserve" stroke="#000" stroke-width="0" fill-rule="evenodd" ns0:pdfconverter="pstoedit" transform="matrix(1.75 0 0 -1.75 -187.02 1324.3)" stroke-miterlimit="10.433" ns0:text="$\\vec{l}$" ns0:version="0.7.2" ns0:inkscapeversion="0.91" ns0:preamble="/usr/share/inkscape/extensions/default_packages.tex" ns0:scale="1.4" ns0:texconverter="pdflatex"><polygon id="polygon4723" points="152.59 716.64 153.12 715.64 149.8 715.64 149.71 715.24 153.04 715.24 152.07 714.24 152.26 714 153.93 715.44 152.87 716.88"/><path id="path4725" d="m150.98 708.35-0.07-0.08-0.03-0.05-0.03-0.04-0.04-0.04-0.03-0.04-0.03-0.05-0.04-0.04c-0.32-0.42-0.51-0.57-0.69-0.57-0.09 0-0.14 0.07-0.14 0.18 0 0.07 0.03 0.19 0.08 0.39 0 0.03 0.02 0.08 0.03 0.1l1.5 5.77-0.05 0.05c-0.59-0.13-0.97-0.2-1.55-0.27v-0.16c0.47 0 0.67-0.07 0.67-0.23 0-0.03-0.01-0.09-0.04-0.18l-1.36-5.26c-0.03-0.11-0.05-0.21-0.05-0.26 0-0.36 0.17-0.56 0.49-0.56 0.52 0 0.86 0.29 1.51 1.25z"/></g>
 <g id="g4895" xml:space="preserve" stroke="#000" stroke-width="0" fill-rule="evenodd" ns0:pdfconverter="pstoedit" transform="matrix(1.75 0 0 -1.75 -132.5 1322.2)" stroke-miterlimit="10.433" ns0:text="$\\vec{n}$" ns0:version="0.7.2" ns0:inkscapeversion="0.91" ns0:preamble="/usr/share/inkscape/extensions/default_packages.tex" ns0:scale="1.4" ns0:texconverter="pdflatex"><polygon id="polygon4897" points="153.36 713.32 150.03 713.32 149.94 712.93 153.28 712.93 152.3 711.92 152.49 711.68 154.16 713.12 153.11 714.56 152.82 714.32"/><path id="path4899" d="m153.29 708.29-0.21-0.26c-0.29-0.37-0.46-0.53-0.6-0.53-0.08 0-0.16 0.08-0.16 0.16 0 0.07 0 0.07 0.14 0.63l0.56 2.05c0.05 0.21 0.09 0.43 0.09 0.57 0 0.36-0.27 0.61-0.65 0.61-0.64 0-1.27-0.6-2.3-2.2l0.67 2.18-0.03 0.02c-0.54-0.11-0.75-0.15-1.61-0.31v-0.16c0.51-0.01 0.64-0.07 0.64-0.27 0-0.06-0.01-0.12-0.02-0.17l-0.96-3.49h0.75c0.47 1.58 0.55 1.8 0.99 2.47 0.6 0.92 1.11 1.42 1.48 1.42 0.15 0 0.24-0.11 0.24-0.29 0-0.12-0.06-0.45-0.14-0.76l-0.44-1.64c-0.13-0.51-0.16-0.65-0.16-0.75 0-0.38 0.14-0.54 0.47-0.54 0.45 0 0.7 0.21 1.39 1.13z"/></g>
</svg>
