<?xml version="1.0" encoding="UTF-8" standalone="no"?>
<svg id="svg6582" xmlns:rdf="http://www.w3.org/1999/02/22-rdf-syntax-ns#" xmlns="http://www.w3.org/2000/svg" xmlns:ns0="http://www.iki.fi/pav/software/textext/" height="100" width="225" version="1.1" xmlns:cc="http://creativecommons.org/ns#" xmlns:xlink="http://www.w3.org/1999/xlink" viewBox="0 0 225 100" xmlns:dc="http://purl.org/dc/elements/1.1/">
 <defs>
  <marker id="TriangleOutM" refY="0.0" refX="0.0" orient="auto" overflow="visible">
   <path id="path7952" d="m5.77 0l-8.65 5v-10l8.65 5z" fill-rule="evenodd" transform="scale(.4)" stroke="#000" stroke-width="1pt"/>
  </marker>
 </defs>
 <metadata id="metadata6716">
  <rdf:RDF>
   <cc:Work rdf:about="">
    <dc:format>image/svg+xml</dc:format>
    <dc:type rdf:resource="http://purl.org/dc/dcmitype/StillImage"/>
    <dc:title>Gnuplot</dc:title>
   </cc:Work>
  </rdf:RDF>
 </metadata>
 <title id="title6584">Gnuplot</title>
 <desc id="desc6586">Produced by GNUPLOT 5.0 patchlevel 3</desc>
 <g id="gnuplot_canvas">
  <g fill="none">
   <rect id="rect6589" height="100" width="225" y="0" x="0"/>
   <g stroke="currentColor">
    <g stroke-width=".5">
     <g id="g6625" color="white">
      <g id="g6627" stroke="none" shape-rendering="crispEdges">
       <polygon id="polygon6629" points="148.9 90.9 148.8 88.9 148.7 86.9 148.4 84.9 148 82.9 147.6 81 147 79 146.3 77.1 145.5 75.3 143.7 71.7 110.4 90.9" fill="#fff"/>
      </g>
      <path id="path6631" stroke="#009e73" d="m148.9 90.9l-0.1-2-0.1-2-0.3-2-0.4-2-0.4-1.9-0.6-2-0.7-1.9-0.8-1.8-1.8-3.6-33.3 19.2h38.5"/>
     </g>
     <g id="g6633" color="white">
      <g id="g6635" stroke="none" shape-rendering="crispEdges">
       <polygon id="polygon6637" points="91.1 57.6 89.4 58.6 87.7 59.8 86.1 61 84.6 62.3 83.1 63.7 110.4 90.9" fill="#fff"/>
      </g>
      <path id="path6639" stroke="#0f0" d="m91.1 57.6l-1.7 1-1.7 1.2-1.6 1.2-1.5 1.3-1.5 1.4 27.3 27.2-19.3-33.3"/>
     </g>
     <g id="g6641" color="black">
      <path id="path6643" stroke="#000" d="m33.3 90.9h154.1"/>
     </g>
    </g>
    <g stroke-width="1.5">
     <g id="g6647" color="black">
      <g id="g6649" stroke="none" shape-rendering="crispEdges">
       <polygon id="polygon6651" points="173.9 54.2 166.9 52.4 177.1 52.4 172 61.3" fill="#b3b3b3"/>
      </g>
      <path id="path6653" stroke="#b3b3b3" d="m173.9 54.2l-7-1.8h10.2l-5.1 8.9 1.9-7.1m-63.5 36.7l63.5-36.7"/>
     </g>
     <g id="g6655" color="black">
      <g id="g6657" stroke="none" shape-rendering="crispEdges">
       <polygon id="polygon6659" points="73.6 27.4 71.8 34.4 71.8 24.2 80.7 29.3" fill="#b3b3b3"/>
      </g>
      <path id="path6661" stroke="#b3b3b3" d="m73.6 27.4l-1.8 7v-10.2l8.9 5.1-7.1-1.9m36.8 63.5l-36.8-63.5"/>
     </g>
     <g id="g6663" color="black">
      <g id="g6665" stroke="none" shape-rendering="crispEdges">
       <polygon id="polygon6667" points="162.2 39 154.9 39 164.8 36.4 162.2 46.3" fill="#d3d3d3"/>
      </g>
      <path id="path6669" stroke="#d3d3d3" d="m162.2 39h-7.3l9.9-2.6-2.6 9.9v-7.3m-51.8 51.9l51.8-51.9"/>
     </g>
     <g id="g6671" color="black">
      <g id="g6673" stroke="none" shape-rendering="crispEdges">
       <polygon id="polygon6675" points="58.5 39 58.5 46.3 55.9 36.4 65.8 39" fill="#d3d3d3"/>
      </g>
      <path id="path6677" stroke="#d3d3d3" d="m58.5 39v7.3l-2.6-9.9 9.9 2.6h-7.3m51.9 51.9l-51.9-51.9"/>
     </g>
     <g id="g6679" color="black">
      <g id="g6681" stroke="none" shape-rendering="crispEdges">
       <polygon id="polygon6683" points="167 39.3 166.1 46.6 164.8 36.4 174.3 40.3" fill="#0072b2"/>
      </g>
      <path id="path6685" stroke="#0072b2" d="m167 39.3l-0.9 7.3-1.3-10.2 9.5 3.9-7.3-1m10.1 13.1l-10.1-13.1"/>
     </g>
     <g id="g6687" color="black">
      <g id="g6689" stroke="none" shape-rendering="crispEdges">
       <polygon id="polygon6691" points="58.8 34.2 66.1 35.1 55.9 36.4 59.8 26.9" fill="#e51e10"/>
      </g>
      <path id="path6693" stroke="#e51e10" d="m58.8 34.2l7.3 0.9-10.2 1.3 3.9-9.5-1 7.3m13-10l-13 10"/>
     </g>
    </g>
   </g>
  </g>
  <g id="gnuplot_plot_1">
   <title id="title6700">NaN</title>
  </g>
 </g>
 <g stroke="#000">
  <g id="content" xml:space="preserve" stroke-width="0" fill-rule="evenodd" ns0:pdfconverter="pstoedit" transform="matrix(1.75 0 0 -1.75 -253.72 1289.1)" stroke-miterlimit="10.433" ns0:text="\\footnotesize\n$\\vec{l}(\\theta + d\\theta)$" ns0:version="0.7.2" ns0:inkscapeversion="0.91" ns0:preamble="/usr/share/inkscape/extensions/default_packages.tex" ns0:scale="1.4" ns0:texconverter="pdflatex"><polygon id="polygon7517" points="151.81 714.74 152.24 713.94 149.57 713.94 149.5 713.62 152.17 713.62 151.39 712.82 151.54 712.62 152.88 713.78 152.04 714.93"/><path id="path7519" d="m150.53 708.1-0.06-0.06-0.02-0.04-0.03-0.03-0.03-0.03-0.02-0.04-0.03-0.03-0.03-0.04c-0.25-0.33-0.4-0.45-0.55-0.45-0.08 0-0.12 0.05-0.12 0.14 0 0.06 0.03 0.15 0.07 0.31 0 0.03 0.01 0.07 0.02 0.08l1.2 4.62-0.04 0.04c-0.47-0.11-0.77-0.16-1.24-0.22v-0.13c0.38 0 0.54-0.05 0.54-0.18 0-0.02-0.01-0.07-0.03-0.14l-1.09-4.21c-0.03-0.09-0.04-0.17-0.04-0.21 0-0.29 0.13-0.45 0.39-0.45 0.41 0 0.69 0.24 1.21 1z"/><path id="path7521" d="m153.29 712.51-0.06-0.04-0.05-0.03-0.05-0.03-0.05-0.04-0.04-0.03-0.05-0.03-0.04-0.03-0.04-0.03-0.04-0.03-0.04-0.03-0.04-0.03-0.04-0.02-0.03-0.03-0.04-0.03-0.06-0.05-0.07-0.06-0.06-0.05-0.05-0.06-0.06-0.06-0.05-0.05-0.06-0.07-0.05-0.06-0.06-0.07c-0.56-0.69-0.84-1.49-0.84-2.42 0-1.01 0.3-1.79 1-2.6 0.32-0.39 0.53-0.56 0.94-0.82l0.1 0.13c-0.64 0.5-0.86 0.78-1.08 1.38-0.19 0.53-0.27 1.14-0.27 1.94 0 0.83 0.1 1.49 0.31 1.98 0.23 0.49 0.47 0.78 1.04 1.24z"/><path id="path7523" d="m157.2 710.97v0.01 0.01 0.01 0.01 0.02 0.01 0.04 0.03 0.05l-0.01 0.04v0.05l-0.01 0.05-0.01 0.06-0.01 0.06-0.01 0.05-0.02 0.06-0.01 0.06-0.02 0.06-0.02 0.06-0.03 0.06-0.03 0.06-0.03 0.06-0.03 0.06-0.04 0.05-0.04 0.05-0.02 0.03-0.02 0.02-0.03 0.02-0.02 0.02-0.03 0.03-0.02 0.02-0.03 0.01-0.03 0.02-0.03 0.02-0.03 0.02-0.03 0.01-0.04 0.01-0.03 0.01-0.04 0.02h-0.04l-0.03 0.01-0.04 0.01h-0.04-0.05l-0.04 0.01-0.01-0.17c0.32 0 0.45-0.28 0.45-0.74 0-0.43-0.11-1.02-0.27-1.66h-1.73c0.28 1.15 0.78 2.4 1.55 2.4l0.01 0.17c-1.41 0-2.42-2.22-2.42-3.75 0-0.29 0.05-1.56 1.06-1.56l0.11 0.18c-0.43 0-0.59 0.38-0.59 0.92 0 0.39 0.09 0.86 0.2 1.35h1.73c-0.25-0.93-0.53-2.27-1.34-2.27l-0.11-0.18c1.59 0 2.32 2.71 2.32 3.94z"/><polygon id="polygon7525" points="161.73 709.39 161.73 711.2 161.28 711.2 161.28 709.39 159.46 709.39 159.46 708.95 161.28 708.95 161.28 707.12 161.73 707.12 161.73 708.95 163.54 708.95 163.54 709.39"/><path id="path7527" d="m169.5 708.01-0.02-0.03-0.02-0.02-0.02-0.02-0.02-0.02-0.01-0.02-0.02-0.02-0.02-0.02-0.02-0.02-0.01-0.02-0.02-0.01-0.01-0.02-0.02-0.02-0.01-0.01-0.02-0.02-0.02-0.03-0.03-0.03-0.02-0.02-0.03-0.03-0.02-0.02-0.02-0.02-0.02-0.02-0.02-0.02-0.02-0.01-0.01-0.02-0.02-0.01-0.02-0.01-0.01-0.01-0.01-0.01-0.02-0.01h-0.01l-0.01-0.01-0.02-0.01h-0.01-0.01-0.01l-0.02-0.01h-0.01-0.02c-0.08 0-0.15 0.07-0.15 0.16 0 0.11 0.26 1.08 0.52 1.96 0.22 0.73 0.38 1.37 0.79 2.97l-0.04 0.04c-0.42-0.09-0.71-0.14-1.22-0.19v-0.13c0.44-0.02 0.49-0.04 0.49-0.21 0-0.1 0-0.15-0.11-0.56l-0.36-1.31c-0.06 0.34-0.2 0.47-0.51 0.47l0.03-0.19c0.24-0.01 0.36-0.16 0.36-0.45 0-1.21-0.83-2.58-1.56-2.58-0.28 0-0.47 0.21-0.47 0.52 0 0.66 0.4 1.59 0.93 2.15 0.22 0.23 0.52 0.38 0.74 0.36l-0.03 0.19c-1.04 0-2.33-1.5-2.33-2.7 0-0.56 0.32-0.91 0.84-0.91 0.54 0 0.89 0.26 1.43 1.06-0.09-0.41-0.1-0.53-0.1-0.71 0-0.22 0.13-0.36 0.33-0.36 0.34 0 0.75 0.33 1.17 0.91z"/><path id="path7529" d="m173.62 710.97v0.01 0.01 0.01 0.01 0.02 0.01 0.04 0.03l-0.01 0.05v0.04l-0.01 0.05v0.05l-0.01 0.06-0.01 0.06-0.01 0.05-0.02 0.06-0.02 0.06-0.01 0.06-0.03 0.06-0.02 0.06-0.03 0.06-0.03 0.06-0.03 0.06-0.04 0.05-0.04 0.05-0.02 0.03-0.02 0.02-0.03 0.02-0.02 0.02-0.03 0.03-0.03 0.02-0.02 0.01-0.03 0.02-0.03 0.02-0.03 0.02-0.04 0.01-0.03 0.01-0.03 0.01-0.04 0.02h-0.04l-0.04 0.01-0.04 0.01h-0.04-0.04l-0.04 0.01-0.01-0.17c0.32 0 0.44-0.28 0.44-0.74 0-0.43-0.11-1.02-0.27-1.66h-1.73c0.29 1.15 0.79 2.4 1.56 2.4l0.01 0.17c-1.42 0-2.42-2.22-2.42-3.75 0-0.29 0.05-1.56 1.06-1.56l0.11 0.18c-0.44 0-0.59 0.38-0.59 0.92 0 0.39 0.08 0.86 0.19 1.35h1.73c-0.24-0.93-0.52-2.27-1.33-2.27l-0.11-0.18c1.59 0 2.32 2.71 2.32 3.94z"/><path id="path7531" d="m173.93 705.71 0.05 0.04 0.05 0.03 0.06 0.04 0.04 0.03 0.05 0.03 0.05 0.03 0.04 0.03 0.04 0.03 0.04 0.03 0.04 0.03 0.04 0.03 0.04 0.03 0.03 0.02 0.03 0.03 0.07 0.06 0.06 0.05 0.06 0.06 0.06 0.05 0.05 0.06 0.06 0.06 0.05 0.06 0.06 0.06 0.05 0.07c0.57 0.69 0.85 1.49 0.85 2.42 0 1.02-0.3 1.79-1 2.61-0.33 0.38-0.53 0.56-0.95 0.81l-0.09-0.13c0.63-0.5 0.85-0.78 1.07-1.38 0.19-0.53 0.28-1.14 0.28-1.93 0-0.83-0.1-1.49-0.32-1.98-0.22-0.5-0.46-0.79-1.03-1.25z"/></g>
  <g id="g7705" xml:space="preserve" stroke-width="0" fill-rule="evenodd" ns0:pdfconverter="pstoedit" transform="matrix(1.75 0 0 -1.75 -210.68 1310.1)" stroke-miterlimit="10.433" ns0:text="\\footnotesize\n$d\\theta$" ns0:version="0.7.2" ns0:inkscapeversion="0.91" ns0:preamble="/usr/share/inkscape/extensions/default_packages.tex" ns0:scale="1.4" ns0:texconverter="pdflatex"><path id="path7707" d="m152.4 708.01-0.02-0.03-0.02-0.02-0.02-0.02-0.02-0.02-0.01-0.02-0.02-0.02-0.02-0.02-0.02-0.02-0.01-0.02-0.02-0.01-0.01-0.02-0.02-0.02-0.01-0.01-0.02-0.02-0.02-0.03-0.03-0.03-0.02-0.02-0.03-0.03-0.02-0.02-0.02-0.02-0.02-0.02-0.02-0.02-0.02-0.01-0.01-0.02-0.02-0.01-0.02-0.01-0.01-0.01-0.01-0.01-0.02-0.01h-0.01l-0.01-0.01-0.02-0.01h-0.01-0.01-0.01l-0.02-0.01h-0.01-0.02c-0.08 0-0.15 0.07-0.15 0.16 0 0.11 0.26 1.08 0.52 1.96 0.22 0.73 0.38 1.37 0.79 2.97l-0.04 0.04c-0.42-0.09-0.71-0.14-1.22-0.19v-0.13c0.44-0.02 0.5-0.04 0.5-0.21 0-0.1-0.01-0.15-0.12-0.56l-0.35-1.31c-0.07 0.34-0.21 0.47-0.52 0.47l0.03-0.19c0.24-0.01 0.36-0.16 0.36-0.45 0-1.21-0.83-2.58-1.56-2.58-0.28 0-0.47 0.21-0.47 0.52 0 0.66 0.4 1.59 0.93 2.15 0.22 0.23 0.52 0.38 0.74 0.36l-0.03 0.19c-1.04 0-2.33-1.5-2.33-2.7 0-0.56 0.32-0.91 0.84-0.91 0.54 0 0.89 0.26 1.43 1.06-0.09-0.41-0.1-0.53-0.1-0.71 0-0.22 0.13-0.36 0.33-0.36 0.34 0 0.75 0.33 1.17 0.91z"/><path id="path7709" d="m156.52 710.97v0.01 0.01 0.01 0.01 0.02 0.01 0.04 0.03l-0.01 0.05v0.04l-0.01 0.05v0.05l-0.01 0.06-0.01 0.06-0.01 0.05-0.02 0.06-0.02 0.06-0.01 0.06-0.03 0.06-0.02 0.06-0.03 0.06-0.03 0.06-0.03 0.06-0.04 0.05-0.04 0.05-0.02 0.03-0.02 0.02-0.03 0.02-0.02 0.02-0.03 0.03-0.03 0.02-0.02 0.01-0.03 0.02-0.03 0.02-0.03 0.02-0.04 0.01-0.03 0.01-0.03 0.01-0.04 0.02h-0.04l-0.04 0.01-0.04 0.01h-0.04-0.04l-0.04 0.01-0.01-0.17c0.32 0 0.44-0.28 0.44-0.74 0-0.43-0.11-1.02-0.27-1.66h-1.73c0.29 1.15 0.79 2.4 1.56 2.4l0.01 0.17c-1.41 0-2.42-2.22-2.42-3.75 0-0.29 0.05-1.56 1.06-1.56l0.11 0.18c-0.44 0-0.6 0.38-0.6 0.92 0 0.39 0.09 0.86 0.2 1.35h1.73c-0.24-0.93-0.52-2.27-1.33-2.27l-0.11-0.18c1.59 0 2.32 2.71 2.32 3.94z"/></g>
  <path id="path7801" marker-end="url(#TriangleOutM)" d="m63.818 61 14.182-12l5.2663 6.9347" stroke-width="1px" fill="none"/>
 </g>
 <g fill-rule="evenodd" stroke="#000" stroke-miterlimit="10.433">
  <g id="g8336" xml:space="preserve" stroke-width="0" ns0:pdfconverter="pstoedit" transform="matrix(1.75 0 0 -1.75 -207.46 1262.1)" ns0:text="\\footnotesize\n$d\\vec{l}$" ns0:version="0.7.2" ns0:inkscapeversion="0.91" ns0:preamble="/usr/share/inkscape/extensions/default_packages.tex" ns0:scale="1.4" ns0:texconverter="pdflatex"><path id="path8338" d="m152.4 708.01-0.02-0.03-0.02-0.02-0.02-0.02-0.02-0.02-0.01-0.02-0.02-0.02-0.02-0.02-0.02-0.02-0.01-0.02-0.02-0.01-0.01-0.02-0.02-0.02-0.01-0.01-0.02-0.02-0.02-0.03-0.03-0.03-0.02-0.02-0.03-0.03-0.02-0.02-0.02-0.02-0.02-0.02-0.02-0.02-0.02-0.01-0.01-0.02-0.02-0.01-0.02-0.01-0.01-0.01-0.01-0.01-0.02-0.01h-0.01l-0.01-0.01-0.02-0.01h-0.01-0.01-0.01l-0.02-0.01h-0.01-0.02c-0.08 0-0.15 0.07-0.15 0.16 0 0.11 0.26 1.08 0.52 1.96 0.22 0.73 0.38 1.37 0.79 2.97l-0.04 0.04c-0.42-0.09-0.71-0.14-1.22-0.19v-0.13c0.44-0.02 0.5-0.04 0.5-0.21 0-0.1-0.01-0.15-0.12-0.56l-0.35-1.31c-0.07 0.34-0.21 0.47-0.52 0.47l0.03-0.19c0.24-0.01 0.36-0.16 0.36-0.45 0-1.21-0.83-2.58-1.56-2.58-0.28 0-0.47 0.21-0.47 0.52 0 0.66 0.4 1.59 0.93 2.15 0.22 0.23 0.52 0.38 0.74 0.36l-0.03 0.19c-1.04 0-2.33-1.5-2.33-2.7 0-0.56 0.32-0.91 0.84-0.91 0.54 0 0.89 0.26 1.43 1.06-0.09-0.41-0.1-0.53-0.1-0.71 0-0.22 0.13-0.36 0.33-0.36 0.34 0 0.75 0.33 1.17 0.91z"/><polygon id="polygon8340" points="155.59 712.82 155.74 712.62 157.08 713.78 156.24 714.93 156.01 714.74 156.44 713.94 153.77 713.94 153.7 713.62 156.37 713.62"/><path id="path8342" d="m154.73 708.1-0.06-0.06-0.02-0.04-0.03-0.03-0.03-0.03-0.02-0.04-0.03-0.03-0.03-0.04c-0.25-0.33-0.4-0.45-0.55-0.45-0.08 0-0.12 0.05-0.12 0.14 0 0.06 0.03 0.15 0.07 0.31 0 0.03 0.01 0.07 0.02 0.08l1.2 4.62-0.04 0.04c-0.47-0.11-0.77-0.16-1.24-0.22v-0.13c0.38 0 0.54-0.05 0.54-0.18 0-0.02-0.01-0.07-0.03-0.14l-1.09-4.21c-0.03-0.09-0.04-0.17-0.04-0.21 0-0.29 0.13-0.45 0.39-0.45 0.41 0 0.69 0.24 1.21 1z"/></g>
  <g id="g8546" xml:space="preserve" stroke-width="0" ns0:pdfconverter="pstoedit" transform="matrix(1.75 0 0 -1.75 -177.64 1263.1)" ns0:text="\\footnotesize\n$\\vec{l}(\\theta)$" ns0:version="0.7.2" ns0:inkscapeversion="0.91" ns0:preamble="/usr/share/inkscape/extensions/default_packages.tex" ns0:scale="1.4" ns0:texconverter="pdflatex"><polygon id="polygon8548" points="151.81 714.74 152.24 713.94 149.57 713.94 149.5 713.62 152.17 713.62 151.39 712.82 151.54 712.62 152.88 713.78 152.04 714.93"/><path id="path8550" d="m150.53 708.1-0.06-0.06-0.02-0.04-0.03-0.03-0.03-0.03-0.02-0.04-0.03-0.03-0.03-0.04c-0.25-0.33-0.4-0.45-0.55-0.45-0.08 0-0.12 0.05-0.12 0.14 0 0.06 0.03 0.15 0.07 0.31 0 0.03 0.01 0.07 0.02 0.08l1.2 4.62-0.04 0.04c-0.47-0.11-0.77-0.16-1.24-0.22v-0.13c0.38 0 0.54-0.05 0.54-0.18 0-0.02-0.01-0.07-0.03-0.14l-1.09-4.21c-0.03-0.09-0.04-0.17-0.04-0.21 0-0.29 0.13-0.45 0.39-0.45 0.41 0 0.69 0.24 1.21 1z"/><path id="path8552" d="m153.29 712.51-0.06-0.04-0.05-0.03-0.05-0.03-0.05-0.04-0.04-0.03-0.05-0.03-0.04-0.03-0.04-0.03-0.04-0.03-0.04-0.03-0.04-0.03-0.04-0.02-0.03-0.03-0.04-0.03-0.06-0.05-0.07-0.06-0.06-0.05-0.05-0.06-0.06-0.06-0.05-0.05-0.06-0.07-0.05-0.06-0.06-0.07c-0.56-0.69-0.84-1.49-0.84-2.42 0-1.01 0.3-1.79 1-2.6 0.32-0.39 0.53-0.56 0.94-0.82l0.1 0.13c-0.64 0.5-0.86 0.78-1.08 1.38-0.19 0.53-0.27 1.14-0.27 1.94 0 0.83 0.1 1.49 0.31 1.98 0.23 0.49 0.47 0.78 1.04 1.24z"/><path id="path8554" d="m157.2 710.97v0.01 0.01 0.01 0.01 0.02 0.01 0.04 0.03 0.05l-0.01 0.04v0.05l-0.01 0.05-0.01 0.06-0.01 0.06-0.01 0.05-0.02 0.06-0.01 0.06-0.02 0.06-0.02 0.06-0.03 0.06-0.03 0.06-0.03 0.06-0.03 0.06-0.04 0.05-0.04 0.05-0.02 0.03-0.02 0.02-0.03 0.02-0.02 0.02-0.03 0.03-0.02 0.02-0.03 0.01-0.03 0.02-0.03 0.02-0.03 0.02-0.03 0.01-0.04 0.01-0.03 0.01-0.04 0.02h-0.04l-0.03 0.01-0.04 0.01h-0.04-0.05l-0.04 0.01-0.01-0.17c0.32 0 0.45-0.28 0.45-0.74 0-0.43-0.11-1.02-0.27-1.66h-1.73c0.28 1.15 0.78 2.4 1.55 2.4l0.01 0.17c-1.41 0-2.42-2.22-2.42-3.75 0-0.29 0.05-1.56 1.06-1.56l0.11 0.18c-0.43 0-0.59 0.38-0.59 0.92 0 0.39 0.09 0.86 0.2 1.35h1.73c-0.25-0.93-0.53-2.27-1.34-2.27l-0.11-0.18c1.59 0 2.32 2.71 2.32 3.94z"/><path id="path8556" d="m157.5 705.71 0.06 0.04 0.05 0.03 0.05 0.04 0.05 0.03 0.05 0.03 0.04 0.03 0.04 0.03 0.05 0.03 0.04 0.03 0.04 0.03 0.03 0.03 0.04 0.03 0.04 0.02 0.03 0.03 0.07 0.06 0.06 0.05 0.06 0.06 0.05 0.05 0.06 0.06 0.05 0.06 0.06 0.06 0.05 0.06 0.06 0.07c0.56 0.69 0.84 1.49 0.84 2.42 0 1.02-0.29 1.79-0.99 2.61-0.33 0.38-0.54 0.56-0.95 0.81l-0.1-0.13c0.64-0.5 0.85-0.78 1.08-1.38 0.19-0.53 0.28-1.14 0.28-1.93 0-0.83-0.11-1.49-0.32-1.98-0.23-0.5-0.46-0.79-1.04-1.25z"/></g>
  <g id="g8772" xml:space="preserve" stroke-width="0" ns0:pdfconverter="pstoedit" transform="matrix(1.75 0 0 -1.75 -159.17 1279)" ns0:text="\\footnotesize\n$\\vec{n}(\\theta + d\\theta)$" ns0:version="0.7.2" ns0:inkscapeversion="0.91" ns0:preamble="/usr/share/inkscape/extensions/default_packages.tex" ns0:scale="1.4" ns0:texconverter="pdflatex"><polygon id="polygon8774" points="149.69 711.76 152.36 711.76 151.58 710.96 151.73 710.76 153.07 711.92 152.22 713.07 151.99 712.88 152.42 712.08 149.76 712.08"/><path id="path8776" d="m152.38 708.05-0.17-0.2c-0.23-0.3-0.38-0.43-0.49-0.43-0.06 0-0.12 0.07-0.12 0.13s0 0.06 0.11 0.5l0.45 1.65c0.04 0.16 0.07 0.34 0.07 0.45 0 0.29-0.21 0.49-0.52 0.49-0.51 0-1.01-0.48-1.84-1.76l0.54 1.74-0.03 0.02c-0.43-0.09-0.59-0.12-1.29-0.25v-0.13c0.41 0 0.51-0.05 0.51-0.21 0-0.05 0-0.1-0.01-0.14l-0.77-2.79h0.6c0.37 1.26 0.45 1.44 0.8 1.98 0.48 0.73 0.88 1.13 1.18 1.13 0.11 0 0.19-0.09 0.19-0.23 0-0.1-0.05-0.36-0.11-0.61l-0.36-1.31c-0.1-0.41-0.12-0.52-0.12-0.6 0-0.3 0.11-0.43 0.37-0.43 0.36 0 0.57 0.17 1.12 0.9z"/><path id="path8778" d="m155.05 712.51-0.05-0.04-0.06-0.03-0.05-0.03-0.04-0.04-0.05-0.03-0.05-0.03-0.04-0.03-0.04-0.03-0.04-0.03-0.04-0.03-0.04-0.03-0.04-0.02-0.03-0.03-0.04-0.03-0.06-0.05-0.06-0.06-0.06-0.05-0.06-0.06-0.06-0.06-0.05-0.05-0.05-0.07-0.06-0.06-0.05-0.07c-0.57-0.69-0.85-1.49-0.85-2.42 0-1.01 0.3-1.79 1-2.6 0.33-0.39 0.53-0.56 0.95-0.82l0.09 0.13c-0.63 0.5-0.86 0.78-1.07 1.38-0.19 0.53-0.28 1.14-0.28 1.94 0 0.83 0.1 1.49 0.32 1.98s0.46 0.78 1.03 1.24z"/><path id="path8780" d="m158.96 710.97v0.01 0.01 0.01 0.01 0.02 0.01 0.04l-0.01 0.03v0.05 0.04l-0.01 0.05-0.01 0.05v0.06l-0.01 0.06-0.02 0.05-0.01 0.06-0.02 0.06-0.02 0.06-0.02 0.06-0.02 0.06-0.03 0.06-0.03 0.06-0.03 0.06-0.04 0.05-0.04 0.05-0.02 0.03-0.03 0.02-0.02 0.02-0.03 0.02-0.02 0.03-0.03 0.02-0.03 0.01-0.03 0.02-0.03 0.02-0.03 0.02-0.03 0.01-0.03 0.01-0.04 0.01-0.03 0.02h-0.04l-0.04 0.01-0.04 0.01h-0.04-0.04l-0.05 0.01v-0.17c0.31 0 0.44-0.28 0.44-0.74 0-0.43-0.11-1.02-0.27-1.66h-1.73c0.29 1.15 0.79 2.4 1.56 2.4v0.17c-1.41 0-2.41-2.22-2.41-3.75 0-0.29 0.05-1.56 1.06-1.56l0.11 0.18c-0.44 0-0.6 0.38-0.6 0.92 0 0.39 0.09 0.86 0.2 1.35h1.73c-0.25-0.93-0.53-2.27-1.33-2.27l-0.11-0.18c1.59 0 2.32 2.71 2.32 3.94z"/><polygon id="polygon8782" points="163.04 708.95 163.04 707.12 163.49 707.12 163.49 708.95 165.31 708.95 165.31 709.39 163.49 709.39 163.49 711.2 163.04 711.2 163.04 709.39 161.23 709.39 161.23 708.95"/><path id="path8784" d="m171.26 708.01-0.02-0.03-0.02-0.02-0.02-0.02-0.01-0.02-0.02-0.02-0.02-0.02-0.02-0.02-0.01-0.02-0.02-0.02-0.02-0.01-0.01-0.02-0.02-0.02-0.01-0.01-0.01-0.02-0.03-0.03-0.03-0.03-0.02-0.02-0.03-0.03-0.02-0.02-0.02-0.02-0.02-0.02-0.02-0.02-0.01-0.01-0.02-0.02-0.02-0.01-0.01-0.01-0.02-0.01-0.01-0.01-0.02-0.01h-0.01l-0.01-0.01-0.01-0.01h-0.02-0.01-0.01l-0.01-0.01h-0.02-0.02c-0.08 0-0.14 0.07-0.14 0.16 0 0.11 0.25 1.08 0.51 1.96 0.22 0.73 0.39 1.37 0.79 2.97l-0.04 0.04c-0.42-0.09-0.71-0.14-1.22-0.19v-0.13c0.44-0.02 0.5-0.04 0.5-0.21 0-0.1-0.01-0.15-0.12-0.56l-0.35-1.31c-0.07 0.34-0.21 0.47-0.52 0.47l0.03-0.19c0.24-0.01 0.36-0.16 0.36-0.45 0-1.21-0.83-2.58-1.56-2.58-0.27 0-0.47 0.21-0.47 0.52 0 0.66 0.4 1.59 0.93 2.15 0.22 0.23 0.52 0.38 0.74 0.36l-0.03 0.19c-1.04 0-2.33-1.5-2.33-2.7 0-0.56 0.32-0.91 0.84-0.91 0.54 0 0.89 0.26 1.43 1.06-0.08-0.41-0.1-0.53-0.1-0.71 0-0.22 0.13-0.36 0.34-0.36 0.33 0 0.74 0.33 1.16 0.91z"/><path id="path8786" d="m175.38 710.97v0.01 0.01 0.01 0.01 0.02 0.01 0.04 0.03 0.05l-0.01 0.04v0.05l-0.01 0.05-0.01 0.06-0.01 0.06-0.01 0.05-0.02 0.06-0.01 0.06-0.02 0.06-0.02 0.06-0.03 0.06-0.03 0.06-0.03 0.06-0.03 0.06-0.04 0.05-0.04 0.05-0.02 0.03-0.02 0.02-0.03 0.02-0.02 0.02-0.03 0.03-0.02 0.02-0.03 0.01-0.03 0.02-0.03 0.02-0.03 0.02-0.03 0.01-0.04 0.01-0.03 0.01-0.04 0.02h-0.04l-0.03 0.01-0.04 0.01h-0.04-0.05l-0.04 0.01-0.01-0.17c0.32 0 0.45-0.28 0.45-0.74 0-0.43-0.12-1.02-0.27-1.66h-1.73c0.28 1.15 0.79 2.4 1.55 2.4l0.01 0.17c-1.41 0-2.42-2.22-2.42-3.75 0-0.29 0.05-1.56 1.06-1.56l0.12 0.18c-0.44 0-0.6 0.38-0.6 0.92 0 0.39 0.08 0.86 0.2 1.35h1.73c-0.25-0.93-0.53-2.27-1.33-2.27l-0.12-0.18c1.59 0 2.32 2.71 2.32 3.94z"/><path id="path8788" d="m175.69 705.71 0.05 0.04 0.06 0.03 0.05 0.04 0.05 0.03 0.04 0.03 0.05 0.03 0.04 0.03 0.04 0.03 0.04 0.03 0.04 0.03 0.04 0.03 0.04 0.03 0.03 0.02 0.04 0.03 0.06 0.06 0.06 0.05 0.06 0.06 0.06 0.05 0.06 0.06 0.05 0.06 0.06 0.06 0.05 0.06 0.05 0.07c0.57 0.69 0.85 1.49 0.85 2.42 0 1.02-0.3 1.79-1 2.61-0.32 0.38-0.53 0.56-0.95 0.81l-0.09-0.13c0.64-0.5 0.85-0.78 1.08-1.38 0.19-0.53 0.27-1.14 0.27-1.93 0-0.83-0.1-1.49-0.32-1.98-0.22-0.5-0.46-0.79-1.03-1.25z"/></g>
  <g id="g9022" xml:space="preserve" stroke-width="0" ns0:pdfconverter="pstoedit" transform="matrix(1.75 0 0 -1.75 -82.83 1282.1)" ns0:text="\\footnotesize\n$d\\vec{n}$" ns0:version="0.7.2" ns0:inkscapeversion="0.91" ns0:preamble="/usr/share/inkscape/extensions/default_packages.tex" ns0:scale="1.4" ns0:texconverter="pdflatex"><path id="path9024" d="m152.4 708.01-0.02-0.03-0.02-0.02-0.02-0.02-0.02-0.02-0.01-0.02-0.02-0.02-0.02-0.02-0.02-0.02-0.01-0.02-0.02-0.01-0.01-0.02-0.02-0.02-0.01-0.01-0.02-0.02-0.02-0.03-0.03-0.03-0.02-0.02-0.03-0.03-0.02-0.02-0.02-0.02-0.02-0.02-0.02-0.02-0.02-0.01-0.01-0.02-0.02-0.01-0.02-0.01-0.01-0.01-0.01-0.01-0.02-0.01h-0.01l-0.01-0.01-0.02-0.01h-0.01-0.01-0.01l-0.02-0.01h-0.01-0.02c-0.08 0-0.15 0.07-0.15 0.16 0 0.11 0.26 1.08 0.52 1.96 0.22 0.73 0.38 1.37 0.79 2.97l-0.04 0.04c-0.42-0.09-0.71-0.14-1.22-0.19v-0.13c0.44-0.02 0.5-0.04 0.5-0.21 0-0.1-0.01-0.15-0.12-0.56l-0.35-1.31c-0.07 0.34-0.21 0.47-0.52 0.47l0.03-0.19c0.24-0.01 0.36-0.16 0.36-0.45 0-1.21-0.83-2.58-1.56-2.58-0.28 0-0.47 0.21-0.47 0.52 0 0.66 0.4 1.59 0.93 2.15 0.22 0.23 0.52 0.38 0.74 0.36l-0.03 0.19c-1.04 0-2.33-1.5-2.33-2.7 0-0.56 0.32-0.91 0.84-0.91 0.54 0 0.89 0.26 1.43 1.06-0.09-0.41-0.1-0.53-0.1-0.71 0-0.22 0.13-0.36 0.33-0.36 0.34 0 0.75 0.33 1.17 0.91z"/><polygon id="polygon9026" points="155.93 710.76 157.27 711.92 156.42 713.07 156.19 712.88 156.62 712.08 153.96 712.08 153.89 711.76 156.56 711.76 155.78 710.96"/><path id="path9028" d="m156.58 708.05-0.17-0.2c-0.23-0.3-0.38-0.43-0.49-0.43-0.06 0-0.13 0.07-0.13 0.13s0 0.06 0.12 0.5l0.45 1.65c0.04 0.16 0.07 0.34 0.07 0.45 0 0.29-0.21 0.49-0.52 0.49-0.51 0-1.01-0.48-1.84-1.76l0.54 1.74-0.03 0.02c-0.43-0.09-0.59-0.12-1.29-0.25v-0.13c0.41 0 0.51-0.05 0.51-0.21 0-0.05-0.01-0.1-0.01-0.14l-0.77-2.79h0.6c0.37 1.26 0.45 1.44 0.8 1.98 0.48 0.73 0.88 1.13 1.18 1.13 0.11 0 0.19-0.09 0.19-0.23 0-0.1-0.05-0.36-0.11-0.61l-0.36-1.31c-0.1-0.41-0.12-0.52-0.12-0.6 0-0.3 0.11-0.43 0.37-0.43 0.36 0 0.57 0.17 1.12 0.9z"/></g>
  <g id="g9270" xml:space="preserve" stroke-width="0" ns0:pdfconverter="pstoedit" transform="matrix(1.75 0 0 -1.75 -86.794 1308.9)" ns0:text="\\footnotesize\n$\\vec{n}(\\theta)$" ns0:version="0.7.2" ns0:inkscapeversion="0.91" ns0:preamble="/usr/share/inkscape/extensions/default_packages.tex" ns0:scale="1.4" ns0:texconverter="pdflatex"><polygon id="polygon9272" points="152.22 713.07 151.99 712.88 152.42 712.08 149.76 712.08 149.69 711.76 152.36 711.76 151.58 710.96 151.73 710.76 153.07 711.92"/><path id="path9274" d="m152.38 708.05-0.17-0.2c-0.23-0.3-0.38-0.43-0.49-0.43-0.06 0-0.12 0.07-0.12 0.13s0 0.06 0.11 0.5l0.45 1.65c0.04 0.16 0.07 0.34 0.07 0.45 0 0.29-0.21 0.49-0.52 0.49-0.51 0-1.01-0.48-1.84-1.76l0.54 1.74-0.03 0.02c-0.43-0.09-0.59-0.12-1.29-0.25v-0.13c0.41 0 0.51-0.05 0.51-0.21 0-0.05 0-0.1-0.01-0.14l-0.77-2.79h0.6c0.37 1.26 0.45 1.44 0.8 1.98 0.48 0.73 0.88 1.13 1.18 1.13 0.11 0 0.19-0.09 0.19-0.23 0-0.1-0.05-0.36-0.11-0.61l-0.36-1.31c-0.1-0.41-0.12-0.52-0.12-0.6 0-0.3 0.11-0.43 0.37-0.43 0.36 0 0.57 0.17 1.12 0.9z"/><path id="path9276" d="m155.05 712.51-0.05-0.04-0.06-0.03-0.05-0.03-0.04-0.04-0.05-0.03-0.05-0.03-0.04-0.03-0.04-0.03-0.04-0.03-0.04-0.03-0.04-0.03-0.04-0.02-0.03-0.03-0.04-0.03-0.06-0.05-0.06-0.06-0.06-0.05-0.06-0.06-0.06-0.06-0.05-0.05-0.05-0.07-0.06-0.06-0.05-0.07c-0.57-0.69-0.85-1.49-0.85-2.42 0-1.01 0.3-1.79 1-2.6 0.33-0.39 0.53-0.56 0.95-0.82l0.09 0.13c-0.63 0.5-0.86 0.78-1.07 1.38-0.19 0.53-0.28 1.14-0.28 1.94 0 0.83 0.1 1.49 0.32 1.98s0.46 0.78 1.03 1.24z"/><path id="path9278" d="m158.96 710.97v0.01 0.01 0.01 0.01 0.02 0.01 0.04l-0.01 0.03v0.05 0.04l-0.01 0.05-0.01 0.05v0.06l-0.01 0.06-0.02 0.05-0.01 0.06-0.02 0.06-0.02 0.06-0.02 0.06-0.02 0.06-0.03 0.06-0.03 0.06-0.03 0.06-0.04 0.05-0.04 0.05-0.02 0.03-0.03 0.02-0.02 0.02-0.03 0.02-0.02 0.03-0.03 0.02-0.03 0.01-0.03 0.02-0.03 0.02-0.03 0.02-0.03 0.01-0.03 0.01-0.04 0.01-0.03 0.02h-0.04l-0.04 0.01-0.04 0.01h-0.04-0.04l-0.05 0.01v-0.17c0.31 0 0.44-0.28 0.44-0.74 0-0.43-0.11-1.02-0.27-1.66h-1.73c0.29 1.15 0.79 2.4 1.56 2.4v0.17c-1.41 0-2.41-2.22-2.41-3.75 0-0.29 0.05-1.56 1.06-1.56l0.11 0.18c-0.44 0-0.6 0.38-0.6 0.92 0 0.39 0.09 0.86 0.2 1.35h1.73c-0.25-0.93-0.53-2.27-1.33-2.27l-0.11-0.18c1.59 0 2.32 2.71 2.32 3.94z"/><path id="path9280" d="m159.26 705.71 0.06 0.04 0.05 0.03 0.05 0.04 0.05 0.03 0.05 0.03 0.04 0.03 0.05 0.03 0.04 0.03 0.04 0.03 0.04 0.03 0.04 0.03 0.03 0.03 0.04 0.02 0.03 0.03 0.07 0.06 0.06 0.05 0.06 0.06 0.06 0.05 0.05 0.06 0.06 0.06 0.05 0.06 0.05 0.06 0.06 0.07c0.57 0.69 0.84 1.49 0.84 2.42 0 1.02-0.29 1.79-0.99 2.61-0.33 0.38-0.54 0.56-0.95 0.81l-0.1-0.13c0.64-0.5 0.86-0.78 1.08-1.38 0.19-0.53 0.28-1.14 0.28-1.93 0-0.83-0.1-1.49-0.32-1.98-0.22-0.5-0.46-0.79-1.04-1.25z"/></g>
  <g id="g9534" xml:space="preserve" ns0:pdfconverter="pstoedit" transform="matrix(1.75 0 0 -1.75 -109.87 1319.9)" ns0:text="\\footnotesize\n$\\theta$" ns0:version="0.7.2" ns0:inkscapeversion="0.91" ns0:preamble="/usr/share/inkscape/extensions/default_packages.tex" ns0:scale="1.4" ns0:texconverter="pdflatex"><path id="path9536" stroke-width="0" d="m152.32 710.97v0.01 0.01 0.01 0.01 0.02 0.01 0.04 0.03l-0.01 0.05v0.04l-0.01 0.05v0.05l-0.01 0.06-0.01 0.06-0.01 0.05-0.02 0.06-0.02 0.06-0.01 0.06-0.03 0.06-0.02 0.06-0.03 0.06-0.03 0.06-0.03 0.06-0.04 0.05-0.04 0.05-0.02 0.03-0.02 0.02-0.03 0.02-0.02 0.02-0.03 0.03-0.03 0.02-0.02 0.01-0.03 0.02-0.03 0.02-0.03 0.02-0.04 0.01-0.03 0.01-0.03 0.01-0.04 0.02h-0.04l-0.04 0.01-0.04 0.01h-0.04-0.04l-0.04 0.01-0.01-0.17c0.32 0 0.44-0.28 0.44-0.74 0-0.43-0.11-1.02-0.27-1.66h-1.73c0.29 1.15 0.79 2.4 1.56 2.4l0.01 0.17c-1.41 0-2.42-2.22-2.42-3.75 0-0.29 0.05-1.56 1.06-1.56l0.11 0.18c-0.44 0-0.6 0.38-0.6 0.92 0 0.39 0.09 0.86 0.2 1.35h1.73c-0.24-0.93-0.52-2.27-1.33-2.27l-0.11-0.18c1.59 0 2.32 2.71 2.32 3.94z"/></g>
 </g>
</svg>
