<?xml version="1.0" encoding="UTF-8" standalone="no"?>
<svg id="svg6740" xmlns:rdf="http://www.w3.org/1999/02/22-rdf-syntax-ns#" xmlns="http://www.w3.org/2000/svg" xmlns:ns0="http://www.iki.fi/pav/software/textext/" height="140" width="140" version="1.1" xmlns:cc="http://creativecommons.org/ns#" xmlns:xlink="http://www.w3.org/1999/xlink" viewBox="0 0 140 140" xmlns:dc="http://purl.org/dc/elements/1.1/">
 <defs>
  <circle id="gpPt5" stroke-width=".222" cy="0" stroke="currentColor" cx="0" r="1"/>
  <use id="gpPt6" xlink:href="#gpPt5" fill="currentColor"/>
 </defs>
 <metadata id="metadata6860">
  <rdf:RDF>
   <cc:Work rdf:about="">
    <dc:format>image/svg+xml</dc:format>
    <dc:type rdf:resource="http://purl.org/dc/dcmitype/StillImage"/>
    <dc:title>Gnuplot</dc:title>
   </cc:Work>
  </rdf:RDF>
 </metadata>
 <title id="title6742">Gnuplot</title>
 <desc id="desc6744">Produced by GNUPLOT 5.0 patchlevel 3</desc>
 <g id="gnuplot_canvas">
  <g fill="none">
   <rect id="rect6747" height="140" width="140" y="0" x="0"/>
   <g id="g6783" color="black" stroke-width="1.5">
    <g id="g6785" shape-rendering="crispEdges">
     <polygon id="polygon6787" points="41.7 96.2 34.4 96.2 44.3 93.6 41.7 103.5" fill="#0072b2"/>
    </g>
    <path id="path6789" stroke="#0072b2" d="m41.7 96.2h-7.3l9.9-2.6-2.6 9.9v-7.3m-21 21l21-21"/>
   </g>
   <g id="g6791" color="black" stroke-width="1.5">
    <g id="g6793" shape-rendering="crispEdges">
     <polygon id="polygon6795" points="94 43.9 101.3 43.9 91.4 46.5 94 36.6" fill="#e69f00"/>
    </g>
    <path id="path6797" stroke="#e69f00" d="m94 43.9h7.3l-9.9 2.6 2.6-9.9v7.3m21-21l-21 21"/>
   </g>
  </g>
  <g id="gnuplot_plot_1">
   <title id="title6804">NaN</title>
  </g>
  <g stroke="currentColor" fill="none">
   <g id="g6810" color="black" stroke-width="2">
    <g id="g6812" font-size="12" transform="translate(25.2,117.2)" stroke="none" font-family="Arial" fill="#000">
     <text id="text6814"/>
    </g>
   </g>
   <g>
    <g id="g6818" color="black">
     <use id="use6820" color="rgb(  0, 255,   0)" xlink:href="#gpPt6" transform="translate(20.7,117.2) scale(3.38)"/>
    </g>
    <g id="g6822" color="black">
     <g id="g6824" font-size="12" transform="translate(25.2,117.2)" stroke="none" font-family="Arial" fill="#000">
      <text id="text6826"/>
     </g>
    </g>
    <g id="g6828" color="black">
     <use id="use6830" color="black" xlink:href="#gpPt5" transform="translate(20.7,117.2) scale(3.38)"/>
    </g>
    <g id="g6832" color="black">
     <g id="g6834" font-size="12" transform="translate(119.5,22.9)" stroke="none" font-family="Arial" fill="#000">
      <text id="text6836"/>
     </g>
    </g>
    <g id="g6838" color="black">
     <use id="use6840" color="rgb(229,  30,  16)" xlink:href="#gpPt6" transform="translate(115 22.9) scale(3.38)"/>
    </g>
    <g id="g6842" color="black">
     <g id="g6844" font-size="12" transform="translate(119.5,22.9)" stroke="none" font-family="Arial" fill="#000">
      <text id="text6846"/>
     </g>
    </g>
    <g id="g6848" color="black">
     <use id="use6850" color="black" xlink:href="#gpPt5" transform="translate(115 22.9) scale(3.38)"/>
    </g>
   </g>
  </g>
 </g>
 <g stroke-width="0" fill-rule="evenodd" stroke="#000" stroke-miterlimit="10.433">
  <g id="g6010" xml:space="preserve" ns0:pdfconverter="pstoedit" transform="matrix(1.75 0 0 -1.75 -179.95 1266.8)" ns0:text="$\\vec{F}_{2i}$" ns0:version="0.7.2" ns0:inkscapeversion="0.91" ns0:preamble="/usr/share/inkscape/extensions/default_packages.tex" ns0:scale="1.4" ns0:texconverter="pdflatex"><polygon id="polygon6012" points="154.23 714.03 154.42 713.79 156.09 715.23 155.03 716.67 154.74 716.43 155.28 715.43 151.96 715.43 151.87 715.03 155.2 715.03"/><path id="path6014" d="m155.38 713.63h-4.96v-0.16c0.65-0.06 0.77-0.12 0.77-0.41 0-0.15-0.04-0.4-0.11-0.64l-1.23-4.4c-0.17-0.6-0.25-0.66-0.81-0.74v-0.16h2.51v0.16c-0.58 0.03-0.76 0.14-0.76 0.44 0 0.08 0.03 0.23 0.09 0.45l0.62 2.22c0.37-0.02 0.59-0.03 0.8-0.03 0.39 0 0.46-0.01 0.55-0.05 0.15-0.08 0.22-0.21 0.22-0.41 0-0.16-0.02-0.28-0.08-0.59l0.17-0.05 0.76 2.34-0.18 0.05c-0.45-0.9-0.48-0.91-2.15-0.93l0.65 2.32c0.06 0.2 0.2 0.26 0.61 0.26 1.68 0 2.03-0.13 2.03-0.75v-0.24c-0.01-0.06-0.01-0.07-0.03-0.19l0.22-0.02z"/><path id="path6016" d="m158.61 706.59-0.09 0.03c-0.26-0.4-0.35-0.46-0.67-0.46h-1.66l1.17 1.23c0.62 0.65 0.89 1.18 0.89 1.72 0 0.7-0.56 1.23-1.29 1.23-0.38 0-0.74-0.15-1-0.43-0.23-0.24-0.33-0.46-0.45-0.95l0.15-0.04c0.28 0.68 0.53 0.91 1.01 0.91 0.59 0 0.98-0.4 0.98-0.99 0-0.54-0.32-1.19-0.9-1.81l-1.25-1.32v-0.08h2.72z"/><path id="path6018" d="m160.33 706.42-0.01-0.02-0.02-0.01-0.01-0.02-0.02-0.02-0.01-0.02-0.01-0.01-0.01-0.02-0.01-0.01-0.02-0.02-0.01-0.01-0.01-0.01-0.01-0.02v-0.01l-0.01-0.01-0.01-0.01-0.01-0.01-0.01-0.01v-0.01h-0.01l-0.01-0.01-0.01-0.01v-0.01l-0.01-0.01-0.02-0.02-0.01-0.01-0.01-0.02-0.02-0.01c-0.11-0.12-0.22-0.19-0.28-0.19s-0.11 0.06-0.11 0.11c0 0.06 0.02 0.17 0.07 0.3 0 0.02 0.02 0.07 0.03 0.13v0.01l0.01 0.02 0.61 2.24-0.02 0.02c-0.7-0.14-0.84-0.16-1.11-0.18v-0.11c0.36-0.01 0.44-0.03 0.44-0.17 0-0.05-0.03-0.16-0.07-0.3l-0.33-1.24c-0.11-0.4-0.16-0.62-0.16-0.76 0-0.26 0.12-0.4 0.33-0.4 0.32 0 0.57 0.21 0.97 0.8z"/><path id="path6020" d="m160.27 710.19h-0.01-0.02-0.02l-0.01-0.01h-0.02l-0.02-0.01h-0.01l-0.02-0.01h-0.01l-0.01-0.01-0.02-0.01-0.01-0.01-0.01-0.01-0.02-0.01-0.01-0.01-0.01-0.02-0.01-0.01-0.01-0.01-0.01-0.02-0.01-0.01-0.01-0.02v-0.01l-0.01-0.02-0.01-0.01v-0.02l-0.01-0.02v-0.01l-0.01-0.02v-0.02-0.02-0.02-0.02c0-0.22 0.13-0.37 0.33-0.37 0.18 0 0.34 0.16 0.34 0.36s-0.16 0.38-0.35 0.38z"/></g>
  <g id="g6192" xml:space="preserve" ns0:pdfconverter="pstoedit" transform="matrix(1.75 0 0 -1.75 -150.54 1253)" ns0:text="$m_2$" ns0:version="0.7.2" ns0:inkscapeversion="0.91" ns0:preamble="/usr/share/inkscape/extensions/default_packages.tex" ns0:scale="1.4" ns0:texconverter="pdflatex"><path id="path6194" d="m155.57 708.29-0.01-0.02-0.02-0.03-0.02-0.02-0.02-0.02v-0.01l-0.01-0.01-0.01-0.01-0.01-0.01h-0.01v-0.01l-0.01-0.01-0.01-0.01v-0.01l-0.01-0.01-0.01-0.01-0.01-0.01v-0.01h-0.01v-0.01l-0.01-0.01-0.01-0.01-0.01-0.01v-0.01c-0.28-0.36-0.49-0.53-0.64-0.53-0.08 0-0.13 0.06-0.13 0.16 0 0.05 0.04 0.21 0.1 0.45l0.68 2.5c0 0.04 0.02 0.22 0.02 0.28 0 0.36-0.24 0.63-0.58 0.63-0.19 0-0.39-0.07-0.63-0.22-0.49-0.32-0.9-0.8-1.59-1.9 0.25 0.76 0.4 1.33 0.4 1.52 0 0.35-0.23 0.6-0.56 0.6-0.61 0-1.31-0.66-2.23-2.11l0.58 2.09-0.03 0.02c-0.56-0.12-0.77-0.16-1.59-0.31v-0.16h0.25c0.26 0 0.39-0.07 0.39-0.22 0-0.11-0.23-1.02-0.59-2.28-0.23-0.82-0.26-0.92-0.39-1.43h0.75c0.47 1.59 0.62 1.96 0.96 2.47 0.56 0.85 1.16 1.41 1.5 1.41 0.13 0 0.2-0.09 0.2-0.25 0-0.09-0.32-1.3-0.95-3.63h0.75c0.4 1.56 0.59 2.05 1.1 2.76 0.49 0.68 0.99 1.12 1.28 1.12 0.11 0 0.2-0.1 0.2-0.21 0-0.05-0.02-0.17-0.07-0.35l-0.58-2.29c-0.09-0.37-0.13-0.56-0.13-0.66 0-0.3 0.14-0.46 0.4-0.46 0.47 0 0.91 0.33 1.43 1.07l0.05 0.07z"/><path id="path6196" d="m159.21 706.59-0.09 0.03c-0.25-0.4-0.34-0.46-0.66-0.46h-1.67l1.18 1.23c0.62 0.65 0.89 1.18 0.89 1.72 0 0.7-0.57 1.23-1.29 1.23-0.38 0-0.75-0.15-1-0.43-0.23-0.24-0.33-0.46-0.45-0.95l0.14-0.04c0.28 0.68 0.53 0.91 1.02 0.91 0.58 0 0.98-0.4 0.98-0.99 0-0.54-0.32-1.19-0.91-1.81l-1.24-1.32v-0.08h2.72z"/></g>
  <g id="content" xml:space="preserve" ns0:pdfconverter="pstoedit" transform="matrix(1.75 0 0 -1.75 -251.95 1338.8)" ns0:text="$\\vec{F}_{1i}$\n" ns0:version="0.7.2" ns0:inkscapeversion="0.91" ns0:preamble="/usr/share/inkscape/extensions/default_packages.tex" ns0:scale="1.4" ns0:texconverter="pdflatex"><polygon id="polygon5684" points="151.87 715.03 155.2 715.03 154.23 714.03 154.42 713.79 156.09 715.23 155.03 716.67 154.74 716.43 155.28 715.43 151.96 715.43"/><path id="path5686" d="m155.38 713.63h-4.96v-0.16c0.65-0.06 0.77-0.12 0.77-0.41 0-0.15-0.04-0.4-0.11-0.64l-1.23-4.4c-0.17-0.6-0.25-0.66-0.81-0.74v-0.16h2.51v0.16c-0.58 0.03-0.76 0.14-0.76 0.44 0 0.08 0.03 0.23 0.09 0.45l0.62 2.22c0.37-0.02 0.59-0.03 0.8-0.03 0.39 0 0.46-0.01 0.55-0.05 0.15-0.08 0.22-0.21 0.22-0.41 0-0.16-0.02-0.28-0.08-0.59l0.17-0.05 0.76 2.34-0.18 0.05c-0.45-0.9-0.48-0.91-2.15-0.93l0.65 2.32c0.06 0.2 0.2 0.26 0.61 0.26 1.68 0 2.03-0.13 2.03-0.75v-0.24c-0.01-0.06-0.01-0.07-0.03-0.19l0.22-0.02z"/><path id="path5688" d="m157.32 710.34-1.25-0.63v-0.1c0.08 0.04 0.16 0.06 0.19 0.08 0.12 0.05 0.24 0.08 0.31 0.08 0.15 0 0.21-0.11 0.21-0.33v-3.16c0-0.23-0.05-0.39-0.17-0.45-0.1-0.07-0.2-0.09-0.49-0.1v-0.1h1.92v0.1c-0.55 0.01-0.66 0.08-0.66 0.42v4.18z"/><path id="path5690" d="m160.33 706.42-0.01-0.02-0.02-0.01-0.01-0.02-0.02-0.02-0.01-0.02-0.01-0.01-0.01-0.02-0.01-0.01-0.02-0.02-0.01-0.01-0.01-0.01-0.01-0.02v-0.01l-0.01-0.01-0.01-0.01-0.01-0.01-0.01-0.01v-0.01h-0.01l-0.01-0.01-0.01-0.01v-0.01l-0.01-0.01-0.02-0.02-0.01-0.01-0.01-0.02-0.02-0.01c-0.11-0.12-0.22-0.19-0.28-0.19s-0.11 0.06-0.11 0.11c0 0.06 0.02 0.17 0.07 0.3 0 0.02 0.02 0.07 0.03 0.13v0.01l0.01 0.02 0.61 2.24-0.02 0.02c-0.7-0.14-0.84-0.16-1.11-0.18v-0.11c0.36-0.01 0.44-0.03 0.44-0.17 0-0.05-0.03-0.16-0.07-0.3l-0.33-1.24c-0.11-0.4-0.16-0.62-0.16-0.76 0-0.26 0.12-0.4 0.33-0.4 0.32 0 0.57 0.21 0.97 0.8z"/><path id="path5692" d="m160.27 710.19h-0.01-0.02-0.02l-0.01-0.01h-0.02l-0.02-0.01h-0.01l-0.02-0.01h-0.01l-0.01-0.01-0.02-0.01-0.01-0.01-0.01-0.01-0.02-0.01-0.01-0.01-0.01-0.02-0.01-0.01-0.01-0.01-0.01-0.02-0.01-0.01-0.01-0.02v-0.01l-0.01-0.02-0.01-0.01v-0.02l-0.01-0.02v-0.01l-0.01-0.02v-0.02-0.02-0.02-0.02c0-0.22 0.13-0.37 0.33-0.37 0.18 0 0.34 0.16 0.34 0.36s-0.16 0.38-0.35 0.38z"/></g>
  <g id="g5846" xml:space="preserve" ns0:pdfconverter="pstoedit" transform="matrix(1.75 0 0 -1.75 -248.04 1369)" ns0:text="$m_1$" ns0:version="0.7.2" ns0:inkscapeversion="0.91" ns0:preamble="/usr/share/inkscape/extensions/default_packages.tex" ns0:scale="1.4" ns0:texconverter="pdflatex"><path id="path5848" d="m155.57 708.29-0.01-0.02-0.02-0.03-0.02-0.02-0.02-0.02v-0.01l-0.01-0.01-0.01-0.01-0.01-0.01h-0.01v-0.01l-0.01-0.01-0.01-0.01v-0.01l-0.01-0.01-0.01-0.01-0.01-0.01v-0.01h-0.01v-0.01l-0.01-0.01-0.01-0.01-0.01-0.01v-0.01c-0.28-0.36-0.49-0.53-0.64-0.53-0.08 0-0.13 0.06-0.13 0.16 0 0.05 0.04 0.21 0.1 0.45l0.68 2.5c0 0.04 0.02 0.22 0.02 0.28 0 0.36-0.24 0.63-0.58 0.63-0.19 0-0.39-0.07-0.63-0.22-0.49-0.32-0.9-0.8-1.59-1.9 0.25 0.76 0.4 1.33 0.4 1.52 0 0.35-0.23 0.6-0.56 0.6-0.61 0-1.31-0.66-2.23-2.11l0.58 2.09-0.03 0.02c-0.56-0.12-0.77-0.16-1.59-0.31v-0.16h0.25c0.26 0 0.39-0.07 0.39-0.22 0-0.11-0.23-1.02-0.59-2.28-0.23-0.82-0.26-0.92-0.39-1.43h0.75c0.47 1.59 0.62 1.96 0.96 2.47 0.56 0.85 1.16 1.41 1.5 1.41 0.13 0 0.2-0.09 0.2-0.25 0-0.09-0.32-1.3-0.95-3.63h0.75c0.4 1.56 0.59 2.05 1.1 2.76 0.49 0.68 0.99 1.12 1.28 1.12 0.11 0 0.2-0.1 0.2-0.21 0-0.05-0.02-0.17-0.07-0.35l-0.58-2.29c-0.09-0.37-0.13-0.56-0.13-0.66 0-0.3 0.14-0.46 0.4-0.46 0.47 0 0.91 0.33 1.43 1.07l0.05 0.07z"/><path id="path5850" d="m157.93 710.34-1.25-0.63v-0.1c0.08 0.04 0.16 0.06 0.19 0.08 0.12 0.05 0.24 0.08 0.31 0.08 0.14 0 0.21-0.11 0.21-0.33v-3.16c0-0.23-0.06-0.39-0.17-0.45-0.1-0.07-0.2-0.09-0.49-0.1v-0.1h1.92v0.1c-0.55 0.01-0.66 0.08-0.66 0.42v4.18z"/></g>
 </g>
</svg>
