<?xml version="1.0" encoding="UTF-8" standalone="no"?>
<svg id="svg4408" xmlns:rdf="http://www.w3.org/1999/02/22-rdf-syntax-ns#" xmlns="http://www.w3.org/2000/svg" xmlns:ns0="http://www.iki.fi/pav/software/textext/" height="200" width="200" version="1.1" xmlns:cc="http://creativecommons.org/ns#" xmlns:xlink="http://www.w3.org/1999/xlink" viewBox="0 0 200 200" xmlns:dc="http://purl.org/dc/elements/1.1/">
 <style type="text/css">
	 @import url('../estilo.css');
 </style>
 <metadata id="metadata4524">
  <rdf:RDF>
   <cc:Work rdf:about="">
    <dc:format>image/svg+xml</dc:format>
    <dc:type rdf:resource="http://purl.org/dc/dcmitype/StillImage"/>
    <dc:title>Gnuplot</dc:title>
   </cc:Work>
  </rdf:RDF>
 </metadata>
 <title id="title4410">Gnuplot</title>
 <desc id="desc4412">Produced by GNUPLOT 5.0 patchlevel 3</desc>
 <g id="gnuplot_canvas">
  <g fill="none">
   <rect id="rect4415" height="200" width="200" y="0" x="0"/>
   <g stroke="currentColor">
    <g id="g4451" color="black" stroke-width=".5">
     <g id="g4453" stroke="none" shape-rendering="crispEdges">
      <polygon id="polygon4455" points="166.6 171.1 165.1 168.5 175 171.1 165.1 173.7" fill="#000"/>
     </g>
     <path id="path4457" stroke="#000" d="m166.6 171.1l-1.5-2.6 9.9 2.6-9.9 2.6 1.5-2.6m-161.7 0h161.7"/>
    </g>
    <g id="g4459" color="black" stroke-width=".5">
     <g id="g4461" stroke="none" shape-rendering="crispEdges">
      <polygon id="polygon4463" points="26.2 30.6 23.6 32.1 26.2 22.2 28.8 32.1" fill="#000"/>
     </g>
     <path id="path4465" stroke="#000" d="m26.2 30.6l-2.6 1.5 2.6-9.9 2.6 9.9-2.6-1.5m0 161.8v-161.8"/>
    </g>
    <g id="g4469" color="gray">
     <path id="path4471" stroke="gray" stroke-dasharray="2,4" d="m26.2 171.1l85-147.4"/>
    </g>
    <g id="g4475" color="black" stroke-width="1.5">
     <g id="g4477" stroke="none" shape-rendering="crispEdges">
      <polygon id="polygon4479" points="66.9 100.6 59.8 102.5 68.7 97.4 68.7 107.6" fill="#0072b2"/>
     </g>
     <path id="path4481" stroke="#0072b2" d="m66.9 100.6l-7.1 1.9 8.9-5.1v10.2l-1.8-7m-40.7 70.5l40.7-70.5"/>
    </g>
    <g id="g4483" color="black" stroke-width="1.5">
     <path id="path4485" stroke="#e69f00" d="m68.7 97.4l21.3-36.8"/>
    </g>
    <g id="g4489" color="black">
     <g id="g4491" font-size="16" transform="translate(13.1 30)" text-anchor="middle" stroke="none" font-family="Stix Two Text" fill="#000">
      <text id="text4493">
       <tspan id="tspan4495" font-family="Stix Two Text" font-weight="bold" font-style="italic">y</tspan>
      </text>
     </g>
    </g>
    <g id="g4497" color="black">
     <g id="g4499" font-size="16" transform="translate(169.8,187.9)" text-anchor="middle" stroke="none" font-family="Stix Two Text" fill="#000">
      <text id="text4501">
       <tspan id="tspan4503" font-family="Stix Two Text" font-weight="bold" font-style="italic">x</tspan>
      </text>
     </g>
    </g>
   </g>
  </g>
  <g id="gnuplot_plot_1">
   <title id="title4508">NaN</title>
  </g>
 </g>
 <g id="content" xml:space="preserve" stroke="#000" stroke-width="0" fill-rule="evenodd" ns0:pdfconverter="pstoedit" transform="matrix(1.75 0 0 -1.75 -208.23 1381.3)" stroke-miterlimit="10.433" ns0:text="$\\vec{r}$" ns0:version="0.7.2" ns0:inkscapeversion="0.91" ns0:preamble="/usr/share/inkscape/extensions/default_packages.tex" ns0:scale="1.4" ns0:texconverter="pdflatex"><polygon id="polygon4596" points="152.24 711.68 153.91 713.12 152.86 714.56 152.57 714.32 153.11 713.32 149.78 713.32 149.69 712.93 153.03 712.93 152.05 711.92"/><path id="path4598" d="m149.91 707.12 0.05 0.16 0.05 0.15 0.04 0.14 0.04 0.13 0.05 0.13 0.03 0.12 0.04 0.12 0.04 0.11 0.03 0.11 0.04 0.1 0.03 0.1 0.03 0.09 0.04 0.09 0.03 0.08 0.03 0.08 0.03 0.08 0.03 0.08 0.03 0.07 0.06 0.14 0.07 0.14 0.06 0.13 0.07 0.13 0.07 0.13 0.08 0.13 0.04 0.07 0.04 0.07c0.33 0.56 0.61 0.87 0.78 0.87 0.06 0 0.11-0.04 0.16-0.14 0.08-0.17 0.16-0.22 0.36-0.22 0.29 0 0.46 0.18 0.46 0.49s-0.2 0.52-0.47 0.52c-0.23 0-0.5-0.15-0.76-0.42-0.41-0.42-0.81-1.01-0.97-1.41l-0.14-0.36 0.53 2.17-0.03 0.02c-0.73-0.13-0.82-0.15-1.54-0.27v-0.17c0.24 0.05 0.27 0.05 0.34 0.05 0.21 0 0.34-0.1 0.34-0.28 0-0.14 0-0.14-0.16-0.82l-0.8-2.91z"/></g>
 <g id="g4745" xml:space="preserve" stroke="#000" stroke-width="0" fill-rule="evenodd" ns0:pdfconverter="pstoedit" transform="matrix(1.75 0 0 -1.75 -176.84 1327.5)" stroke-miterlimit="10.433" ns0:text="$\\vec{F}(\\vec{r})$ ?`sentido?" ns0:version="0.7.2" ns0:inkscapeversion="0.91" ns0:preamble="/usr/share/inkscape/extensions/default_packages.tex" ns0:scale="1.4" ns0:texconverter="pdflatex"><polygon id="polygon4747" points="154.23 714.03 154.42 713.79 156.09 715.23 155.03 716.67 154.74 716.43 155.28 715.43 151.96 715.43 151.87 715.03 155.2 715.03"/><path id="path4749" d="m155.38 713.63h-4.96v-0.16c0.65-0.06 0.77-0.12 0.77-0.41 0-0.15-0.04-0.4-0.11-0.64l-1.23-4.4c-0.17-0.6-0.25-0.66-0.81-0.74v-0.16h2.51v0.16c-0.58 0.03-0.76 0.14-0.76 0.44 0 0.08 0.03 0.23 0.09 0.45l0.62 2.22c0.37-0.02 0.59-0.03 0.8-0.03 0.39 0 0.46-0.01 0.55-0.05 0.15-0.08 0.22-0.21 0.22-0.41 0-0.16-0.02-0.28-0.08-0.59l0.17-0.05 0.76 2.34-0.18 0.05c-0.45-0.9-0.48-0.91-2.15-0.93l0.65 2.32c0.06 0.2 0.2 0.26 0.61 0.26 1.68 0 2.03-0.13 2.03-0.75v-0.24c-0.01-0.06-0.01-0.07-0.03-0.19l0.22-0.02z"/><path id="path4751" d="m158.57 713.86-0.07-0.05-0.06-0.04-0.07-0.04-0.06-0.04-0.05-0.04-0.06-0.04-0.06-0.04-0.05-0.04-0.05-0.03-0.05-0.04-0.04-0.04-0.05-0.03-0.04-0.04-0.05-0.03-0.08-0.07-0.08-0.07-0.07-0.06-0.07-0.07-0.07-0.08-0.07-0.07-0.07-0.07-0.06-0.08-0.07-0.09c-0.71-0.87-1.06-1.86-1.06-3.03 0-1.26 0.37-2.24 1.25-3.25 0.4-0.48 0.66-0.7 1.18-1.02l0.12 0.16c-0.8 0.63-1.07 0.97-1.34 1.72-0.24 0.67-0.35 1.43-0.35 2.42 0 1.05 0.13 1.87 0.4 2.48 0.28 0.62 0.57 0.98 1.29 1.56z"/><polygon id="polygon4753" points="162.29 711.92 162.48 711.68 164.15 713.12 163.1 714.56 162.81 714.32 163.35 713.32 160.02 713.32 159.93 712.93 163.27 712.93"/><path id="path4755" d="m160.16 707.12 0.05 0.16 0.04 0.15 0.05 0.14 0.04 0.13 0.04 0.13 0.04 0.12 0.04 0.12 0.03 0.11 0.04 0.11 0.03 0.1 0.04 0.1 0.03 0.09 0.03 0.09 0.03 0.08 0.03 0.08 0.04 0.08 0.03 0.08 0.03 0.07 0.06 0.14 0.06 0.14 0.07 0.13 0.06 0.13 0.08 0.13 0.07 0.13 0.04 0.07 0.05 0.07c0.32 0.56 0.6 0.87 0.77 0.87 0.06 0 0.11-0.04 0.16-0.14 0.08-0.17 0.16-0.22 0.36-0.22 0.29 0 0.46 0.18 0.46 0.49s-0.19 0.52-0.47 0.52c-0.23 0-0.5-0.15-0.76-0.42-0.4-0.42-0.8-1.01-0.96-1.41l-0.14-0.36 0.53 2.17-0.03 0.02c-0.73-0.13-0.82-0.15-1.55-0.27v-0.17c0.24 0.05 0.27 0.05 0.34 0.05 0.22 0 0.35-0.1 0.35-0.28 0-0.14 0-0.14-0.16-0.82l-0.81-2.91z"/><path id="path4757" d="m163.44 705.36 0.06 0.04 0.07 0.05 0.06 0.04 0.06 0.04 0.06 0.04 0.06 0.04 0.05 0.04 0.05 0.03 0.06 0.04 0.04 0.04 0.05 0.03 0.05 0.04 0.04 0.03 0.04 0.04 0.09 0.06 0.07 0.07 0.08 0.07 0.07 0.07 0.07 0.07 0.07 0.08 0.06 0.07 0.07 0.08 0.07 0.08c0.71 0.87 1.06 1.87 1.06 3.03 0 1.28-0.37 2.25-1.25 3.26-0.41 0.48-0.67 0.7-1.18 1.02l-0.12-0.16c0.79-0.63 1.06-0.98 1.34-1.73 0.24-0.66 0.35-1.42 0.35-2.42 0-1.03-0.13-1.86-0.4-2.47-0.28-0.62-0.58-0.98-1.29-1.56z"/><path id="path4759" d="m170.86 710.05-0.01-0.07-0.01-0.07-0.02-0.07-0.01-0.07-0.02-0.07-0.01-0.06-0.02-0.06-0.02-0.06-0.01-0.06-0.02-0.06-0.04-0.11-0.05-0.11-0.05-0.1-0.05-0.11-0.03-0.05-0.04-0.05-0.03-0.05-0.03-0.06-0.04-0.05-0.04-0.06-0.04-0.05-0.05-0.06-0.04-0.06-0.05-0.06-0.05-0.06-0.05-0.07-0.06-0.06-0.05-0.07c-0.51-0.62-0.75-1.16-0.75-1.67 0-0.37 0.13-0.73 0.36-0.96 0.35-0.35 0.93-0.58 1.47-0.58 0.92 0 1.62 0.62 1.62 1.45 0 0.39-0.17 0.61-0.48 0.61-0.25 0-0.41-0.17-0.41-0.41 0-0.13 0.06-0.26 0.21-0.42 0.12-0.14 0.17-0.23 0.17-0.31 0-0.32-0.47-0.62-0.95-0.62-0.6 0-1.07 0.53-1.07 1.2 0 0.45 0.12 1 0.36 1.55l0.28 0.64c0.19 0.47 0.29 0.97 0.3 1.41z"/><path id="path4761" d="m170.94 711.78h-0.03-0.03-0.02-0.03l-0.03-0.01-0.03-0.01h-0.02l-0.03-0.01-0.02-0.01-0.02-0.01-0.03-0.01-0.02-0.02-0.02-0.01-0.02-0.02-0.02-0.01-0.02-0.02-0.01-0.01-0.02-0.02-0.02-0.02-0.01-0.02-0.01-0.02-0.02-0.02-0.01-0.02-0.01-0.03-0.01-0.02v-0.03l-0.01-0.02-0.01-0.03v-0.02-0.03l-0.01-0.03v-0.02c0-0.32 0.23-0.56 0.53-0.56 0.29 0 0.54 0.25 0.54 0.55 0 0.29-0.24 0.51-0.53 0.51z"/><path id="path4763" d="m176.43 710.25-0.04 1.36h-0.11l-0.02-0.02c-0.09-0.07-0.1-0.08-0.14-0.08-0.06 0-0.16 0.02-0.27 0.07-0.22 0.08-0.44 0.12-0.7 0.12-0.79 0-1.35-0.51-1.35-1.23 0-0.56 0.31-0.96 1.16-1.44l0.58-0.32c0.35-0.2 0.52-0.44 0.52-0.75 0-0.44-0.32-0.72-0.83-0.72-0.34 0-0.65 0.13-0.84 0.35-0.21 0.25-0.3 0.48-0.43 1.05h-0.15v-1.56h0.12c0.08 0.1 0.11 0.12 0.23 0.12 0.09 0 0.23-0.02 0.46-0.08 0.28-0.06 0.55-0.1 0.73-0.1 0.77 0 1.41 0.58 1.41 1.28 0 0.5-0.25 0.82-0.84 1.18l-1.08 0.64c-0.28 0.16-0.43 0.41-0.43 0.68 0 0.4 0.31 0.68 0.77 0.68 0.57 0 0.87-0.34 1.1-1.23z"/><path id="path4765" d="m181.23 708.76-0.04-0.07-0.05-0.07-0.04-0.06-0.05-0.07-0.04-0.06-0.05-0.05-0.04-0.06-0.04-0.05-0.05-0.05-0.04-0.04-0.05-0.05-0.04-0.04-0.05-0.04-0.04-0.03-0.05-0.04-0.04-0.03-0.05-0.03-0.05-0.03-0.04-0.02-0.05-0.03-0.05-0.02-0.05-0.02-0.05-0.02-0.05-0.01-0.05-0.02-0.06-0.01-0.05-0.01-0.05-0.01h-0.06l-0.06-0.01h-0.05-0.06c-0.57 0-1 0.29-1.29 0.86-0.18 0.38-0.25 0.7-0.27 1.31l0.02 0.32c0.11 0.78 0.45 1.15 1.06 1.15s0.84-0.28 0.97-1.15h-2.03l-0.02-0.32h3.07c-0.08 0.65-0.18 0.94-0.43 1.26-0.3 0.36-0.76 0.57-1.27 0.57-0.5 0-0.97-0.18-1.35-0.52-0.47-0.41-0.74-1.12-0.74-1.93 0-1.38 0.72-2.24 1.87-2.24 0.94 0 1.69 0.59 2.11 1.67z"/><path id="path4767" d="m181.75 711.09h0.01l0.01 0.01h0.01 0.01l0.01 0.01h0.01 0.01 0.01l0.02 0.01h0.02 0.01 0.02 0.02 0.02l0.02 0.01h0.02 0.02 0.02c0.28 0 0.37-0.15 0.37-0.64v-2.47c0-0.57-0.11-0.71-0.62-0.75v-0.15h2.11v0.15c-0.51 0.04-0.66 0.16-0.66 0.52v2.8c0.48 0.45 0.7 0.57 1.03 0.57 0.49 0 0.73-0.31 0.73-0.97v-2.08c0-0.63-0.13-0.8-0.63-0.84v-0.15h2.07v0.15c-0.49 0.05-0.61 0.17-0.61 0.66v2.28c0 0.94-0.43 1.5-1.17 1.5-0.46 0-0.77-0.17-1.45-0.81v0.78l-0.07 0.03c-0.48-0.18-0.82-0.29-1.37-0.45z"/><path id="path4769" d="m189.11 711.61h-1.01v1.15c0 0.1-0.01 0.13-0.06 0.13-0.08-0.09-0.14-0.18-0.2-0.28-0.38-0.55-0.81-1.02-0.97-1.06-0.11-0.07-0.17-0.14-0.17-0.19 0-0.03 0.01-0.05 0.04-0.07h0.53v-3c0-0.84 0.3-1.27 0.88-1.27 0.49 0 0.87 0.24 1.2 0.76l-0.13 0.11c-0.21-0.25-0.38-0.35-0.6-0.35-0.37 0-0.52 0.27-0.52 0.9v2.85h1.01z"/><path id="path4771" d="m191.08 711.71-1.54-0.55v-0.15l0.08 0.01c0.12 0.02 0.25 0.03 0.34 0.03 0.23 0 0.32-0.16 0.32-0.6v-2.31c0-0.72-0.1-0.83-0.78-0.87v-0.15h2.36v0.15c-0.66 0.05-0.74 0.15-0.74 0.87v3.53z"/><path id="path4773" d="m190.61 713.93h-0.02l-0.03-0.01h-0.02-0.03l-0.02-0.01-0.02-0.01h-0.03l-0.02-0.01-0.02-0.01-0.02-0.01-0.02-0.02-0.02-0.01-0.02-0.01-0.02-0.02-0.02-0.02-0.02-0.01-0.01-0.02-0.02-0.02-0.01-0.02-0.02-0.02-0.01-0.02-0.01-0.02-0.01-0.02-0.02-0.02v-0.03l-0.01-0.02-0.01-0.02v-0.03l-0.01-0.02v-0.03-0.02-0.03c0-0.28 0.21-0.51 0.49-0.51 0.29 0 0.52 0.22 0.52 0.51 0 0.28-0.23 0.51-0.52 0.51z"/><path id="path4775" d="m195.54 707.02 1.46 0.52v0.16c-0.18-0.01-0.2-0.01-0.23-0.01-0.35 0-0.43 0.11-0.43 0.57v5.65l-0.05 0.02c-0.48-0.17-0.83-0.27-1.47-0.44v-0.16c0.08 0.01 0.14 0.01 0.22 0.01 0.37 0 0.46-0.1 0.46-0.51v-1.55c-0.38 0.32-0.65 0.43-1.05 0.43-1.14 0-2.07-1.13-2.07-2.55 0-1.27 0.75-2.14 1.85-2.14 0.55 0 0.93 0.2 1.27 0.67l-0.17 0.15c-0.18-0.2-0.43-0.3-0.72-0.3-0.82 0-1.37 0.8-1.37 2.02 0 1.13 0.49 1.87 1.24 1.87 0.53 0 1.02-0.47 1.02-1v-2.29c0-0.07-0.07-0.19-0.17-0.3l0.17-0.15v-0.64z"/><path id="path4777" d="m199.58 711.71-0.12-0.01-0.12-0.01-0.11-0.01-0.11-0.02-0.11-0.02-0.11-0.03-0.11-0.04-0.1-0.04-0.1-0.04-0.09-0.05-0.09-0.05-0.09-0.06-0.09-0.06-0.08-0.07-0.08-0.07-0.07-0.07-0.07-0.08-0.07-0.09-0.06-0.08-0.06-0.09-0.06-0.1-0.05-0.1-0.05-0.1-0.04-0.1-0.03-0.11-0.04-0.11-0.02-0.11-0.03-0.12-0.02-0.12-0.01-0.12-0.01-0.13v-0.13c0-1.34 0.93-2.35 2.18-2.35l0.12 0.28c-0.39 0-0.75 0.24-0.96 0.64-0.28 0.52-0.44 1.22-0.44 1.92 0 0.95 0.47 1.57 1.17 1.57 0.84 0 1.43-0.96 1.43-2.33 0-1.12-0.45-1.8-1.2-1.8l-0.12-0.28c1.26 0 2.21 1.06 2.21 2.43 0 1.31-0.91 2.26-2.19 2.26z"/><path id="path4779" d="m204.5 708.76 0.01 0.06 0.01 0.06 0.02 0.06 0.01 0.05 0.01 0.06 0.01 0.06 0.02 0.05 0.01 0.05 0.03 0.1 0.03 0.1 0.03 0.1 0.04 0.09 0.04 0.09 0.04 0.09 0.05 0.08 0.05 0.09 0.05 0.08 0.06 0.09 0.06 0.08 0.07 0.09c0.46 0.56 0.46 0.56 0.6 0.77 0.32 0.49 0.45 0.85 0.45 1.25 0 0.38-0.13 0.74-0.36 0.97-0.35 0.35-0.94 0.58-1.48 0.58-0.91 0-1.61-0.62-1.61-1.45 0-0.4 0.17-0.62 0.48-0.62 0.24 0 0.41 0.17 0.41 0.41 0 0.14-0.06 0.26-0.21 0.43-0.12 0.14-0.17 0.23-0.17 0.31 0 0.32 0.46 0.62 0.94 0.62 0.6 0 1.08-0.53 1.08-1.2 0-0.45-0.13-1-0.37-1.55l-0.28-0.64c-0.19-0.49-0.29-0.97-0.3-1.41z"/><path id="path4781" d="m204.43 708.11h-0.02-0.03l-0.03-0.01h-0.02l-0.03-0.01-0.03-0.01h-0.02l-0.02-0.01-0.03-0.01-0.02-0.02-0.02-0.01-0.02-0.01-0.03-0.02-0.01-0.01-0.02-0.02-0.02-0.02-0.02-0.02-0.02-0.02-0.01-0.02-0.02-0.02-0.01-0.02-0.01-0.03-0.01-0.02-0.01-0.03-0.01-0.02-0.01-0.03-0.01-0.03v-0.02l-0.01-0.03v-0.03-0.03-0.03c0-0.29 0.21-0.51 0.51-0.51 0.32 0 0.55 0.22 0.55 0.52s-0.25 0.55-0.54 0.55z"/></g>
</svg>
