<?xml version="1.0" encoding="UTF-8" standalone="no"?>
<svg id="svg5035" xmlns:rdf="http://www.w3.org/1999/02/22-rdf-syntax-ns#" xmlns="http://www.w3.org/2000/svg" xmlns:ns0="http://www.iki.fi/pav/software/textext/" height="100" width="150" version="1.1" xmlns:cc="http://creativecommons.org/ns#" xmlns:xlink="http://www.w3.org/1999/xlink" viewBox="0 0 150 100" xmlns:dc="http://purl.org/dc/elements/1.1/">
 <style type="text/css">
	 @import url('../estilo.css');
 </style>
 <metadata id="metadata5167">
  <rdf:RDF>
   <cc:Work rdf:about="">
    <dc:format>image/svg+xml</dc:format>
    <dc:type rdf:resource="http://purl.org/dc/dcmitype/StillImage"/>
    <dc:title>Gnuplot</dc:title>
   </cc:Work>
  </rdf:RDF>
 </metadata>
 <title id="title5037">Gnuplot</title>
 <desc id="desc5039">Produced by GNUPLOT 5.0 patchlevel 3</desc>
 <g id="gnuplot_canvas">
  <g fill="none">
   <rect id="rect5042" height="100" width="150" y="0" x="0"/>
   <g stroke="currentColor">
    <g id="g5078" color="white" stroke-width=".5">
     <g id="g5080" stroke="none" shape-rendering="crispEdges">
      <polygon id="polygon5082" points="93.7 81.1 93.7 80.1 93.6 79 93.5 77.9 93.3 76.8 93 75.8 92.7 74.7 92.3 73.7 91.9 72.7 91.4 71.7 90.9 70.7 90.3 69.8 89.7 68.9 89.1 68 88.4 67.2 87.6 66.4 72.9 81.1" fill="#fff"/>
     </g>
     <path id="path5084" stroke="#009e73" d="m93.7 81.1v-1l-0.1-1.1-0.1-1.1-0.2-1.1-0.3-1-0.3-1.1-0.4-1-0.4-1-0.5-1-0.5-1-0.6-0.9-0.6-0.9-0.6-0.9-0.7-0.8-0.8-0.8-14.7 14.7h20.8"/>
    </g>
    <g id="g5086" color="white" stroke-width=".5">
     <g id="g5088" stroke="none" shape-rendering="crispEdges">
      <polygon id="polygon5090" points="72.9 60.3 71.8 60.3 70.7 60.4 69.6 60.5 68.5 60.7 67.5 61 66.4 61.3 65.4 61.7 64.4 62.1 63.4 62.6 62.4 63.1 61.5 63.7 60.6 64.3 59.7 64.9 58.9 65.6 58.1 66.4 72.9 81.1" fill="#fff"/>
     </g>
     <path id="path5092" stroke="#009e73" d="m72.9 60.3h-1.1l-1.1 0.1-1.1 0.1-1.1 0.2-1 0.3-1.1 0.3-1 0.4-1 0.4-1 0.5-1 0.5-0.9 0.6-0.9 0.6-0.9 0.6-0.8 0.7-0.8 0.8 14.8 14.7v-20.8"/>
     <g id="g5094" font-size="13" transform="translate(94.1,73.5)" stroke="none" font-family="Stix Two Text" fill="#000">
      <text id="text5096">
       <tspan id="tspan5098" font-family="Stix Two Text" font-style="italic">θ</tspan>
      </text>
     </g>
     <g id="g5100" font-size="13" transform="translate(62.9,59.5)" text-anchor="middle" stroke="none" font-family="Stix Two Text" fill="#000">
      <text id="text5102">
       <tspan id="tspan5104" font-family="Stix Two Text" font-style="italic">θ</tspan>
      </text>
     </g>
    </g>
    <g id="g5108" color="gray">
     <path id="path5110" stroke="gray" stroke-dasharray="2,4" d="m20.7 81.1h104.3"/>
    </g>
    <g stroke-width="1.5">
     <g id="g5114" color="black">
      <g id="g5116" stroke="none" shape-rendering="crispEdges">
       <polygon id="polygon5118" points="121.4 81.1 116.2 76 125.1 81.1 116.2 86.2" fill="#000"/>
      </g>
      <path id="path5120" stroke="#000" d="m121.4 81.1l-5.2-5.1 8.9 5.1-8.9 5.1 5.2-5.1m-48.5 0h48.5"/>
     </g>
     <g id="g5122" color="black">
      <g id="g5124" stroke="none" shape-rendering="crispEdges">
       <polygon id="polygon5126" points="72.9 32.7 67.8 37.9 72.9 29 78 37.9" fill="#000"/>
      </g>
      <path id="path5128" stroke="#000" d="m72.9 32.7l-5.1 5.2 5.1-8.9 5.1 8.9-5.1-5.2m0 48.4v-48.4"/>
     </g>
     <g id="g5130" color="black">
      <g id="g5132" stroke="none" shape-rendering="crispEdges">
       <polygon id="polygon5134" points="107.2 46.9 99.9 46.9 109.8 44.3 107.2 54.2" fill="#b3b3b3"/>
      </g>
      <path id="path5136" stroke="#b3b3b3" d="m107.2 46.9h-7.3l9.9-2.6-2.6 9.9v-7.3m-34.3 34.2l34.3-34.2"/>
     </g>
     <g id="g5138" color="black">
      <g id="g5140" stroke="none" shape-rendering="crispEdges">
       <polygon id="polygon5142" points="38.6 46.9 38.6 54.2 36 44.3 45.9 46.9" fill="#b3b3b3"/>
      </g>
      <path id="path5144" stroke="#b3b3b3" d="m38.6 46.9v7.3l-2.6-9.9 9.9 2.6h-7.3m34.3 34.2l-34.3-34.2"/>
     </g>
    </g>
   </g>
  </g>
  <g id="gnuplot_plot_1">
   <title id="title5151">NaN</title>
  </g>
 </g>
 <g stroke-width="0" fill-rule="evenodd" stroke="#000" stroke-miterlimit="10.433">
  <g id="content" xml:space="preserve" ns0:pdfconverter="pstoedit" transform="matrix(1.75 0 0 -1.75 -129.97 1323.1)" ns0:text="$\\vec{i}$" ns0:version="0.7.2" ns0:inkscapeversion="0.91" ns0:preamble="/usr/share/inkscape/extensions/default_packages.tex" ns0:scale="1.4" ns0:texconverter="pdflatex"><polygon id="polygon4563" points="148.92 715.43 148.83 715.03 152.17 715.03 151.19 714.03 151.38 713.79 153.05 715.23 152 716.67 151.71 716.43 152.25 715.43"/><path id="path4565" d="m150.92 708.26-0.02-0.03-0.02-0.03-0.02-0.03-0.02-0.02-0.02-0.02-0.02-0.03-0.01-0.02-0.02-0.02-0.01-0.02-0.02-0.02-0.01-0.02-0.02-0.01-0.01-0.02-0.01-0.02-0.01-0.01-0.01-0.01-0.02-0.02-0.01-0.01-0.01-0.01-0.01-0.02-0.01-0.01-0.01-0.01-0.01-0.02-0.02-0.02-0.02-0.02-0.02-0.02-0.02-0.02c-0.17-0.17-0.32-0.27-0.41-0.27-0.08 0-0.15 0.08-0.15 0.15 0 0.1 0.03 0.25 0.09 0.44 0 0.03 0.03 0.1 0.06 0.18v0.02 0.02l0.88 3.21-0.03 0.02c-1-0.19-1.2-0.22-1.59-0.25v-0.16c0.53-0.01 0.63-0.04 0.63-0.24 0-0.08-0.03-0.24-0.09-0.44l-0.48-1.76c-0.16-0.58-0.22-0.89-0.22-1.09 0-0.37 0.16-0.57 0.46-0.57 0.46 0 0.82 0.3 1.39 1.14z"/><path id="path4567" d="m150.84 713.64h-0.02-0.03l-0.02-0.01h-0.03l-0.02-0.01-0.02-0.01h-0.02l-0.02-0.01-0.03-0.01-0.02-0.01-0.02-0.02-0.01-0.01-0.02-0.01-0.02-0.02-0.02-0.02-0.01-0.01-0.02-0.02-0.01-0.02-0.02-0.02-0.01-0.02-0.01-0.02-0.01-0.03-0.01-0.02-0.01-0.02-0.01-0.03-0.01-0.02v-0.03l-0.01-0.02v-0.03-0.02l-0.01-0.03v-0.03c0-0.32 0.19-0.53 0.48-0.53 0.26 0 0.49 0.23 0.49 0.51 0 0.29-0.23 0.55-0.5 0.55z"/></g>
  <g id="g4729" xml:space="preserve" ns0:pdfconverter="pstoedit" transform="matrix(1.75 0 0 -1.75 -191.2 1258.5)" ns0:text="$\\vec{j}$" ns0:version="0.7.2" ns0:inkscapeversion="0.91" ns0:preamble="/usr/share/inkscape/extensions/default_packages.tex" ns0:scale="1.4" ns0:texconverter="pdflatex"><polygon id="polygon4731" points="153.75 715.43 150.42 715.43 150.33 715.03 153.67 715.03 152.69 714.03 152.88 713.79 154.55 715.23 153.5 716.67 153.21 716.43"/><path id="path4733" d="m152.66 711.5-0.03 0.02c-0.89-0.16-1.38-0.24-1.69-0.25v-0.16h0.27l0.07 0.01c0.08 0.01 0.27-0.05 0.32-0.09s0.07-0.13 0.07-0.23-0.05-0.37-0.16-0.8l-0.71-2.91c-0.34-1.36-0.57-1.8-0.97-1.8-0.12 0-0.18 0.04-0.18 0.11 0 0.04 0.01 0.06 0.05 0.11 0.06 0.08 0.08 0.13 0.08 0.21 0 0.21-0.18 0.37-0.41 0.37s-0.39-0.18-0.39-0.42c0-0.35 0.32-0.61 0.78-0.61 0.87 0 1.47 0.76 1.86 2.34z"/><path id="path4735" d="m152.46 713.64h-0.02-0.03l-0.02-0.01h-0.03l-0.02-0.01h-0.02l-0.02-0.01-0.02-0.01-0.03-0.01-0.02-0.01-0.02-0.01-0.01-0.02-0.02-0.01-0.02-0.02-0.02-0.01-0.01-0.02-0.02-0.02-0.01-0.02-0.02-0.02-0.01-0.02-0.01-0.02-0.01-0.02-0.01-0.02-0.01-0.03-0.01-0.02-0.01-0.03v-0.02l-0.01-0.03v-0.03-0.02l-0.01-0.03v-0.03c0-0.32 0.19-0.53 0.48-0.53 0.26 0 0.49 0.23 0.49 0.51 0 0.29-0.23 0.55-0.5 0.55z"/></g>
  <g id="g5830" xml:space="preserve" ns0:pdfconverter="pstoedit" transform="matrix(1.75 0 0 -1.75 -147.5 1279.2)" ns0:text="$\\vec{n}$" ns0:version="0.7.2" ns0:inkscapeversion="0.91" ns0:preamble="/usr/share/inkscape/extensions/default_packages.tex" ns0:scale="1.4" ns0:texconverter="pdflatex"><polygon id="polygon5832" points="153.28 712.93 152.3 711.92 152.49 711.68 154.16 713.12 153.11 714.56 152.82 714.32 153.36 713.32 150.03 713.32 149.94 712.93"/><path id="path5834" d="m153.29 708.29-0.21-0.26c-0.29-0.37-0.46-0.53-0.6-0.53-0.08 0-0.16 0.08-0.16 0.16 0 0.07 0 0.07 0.14 0.63l0.56 2.05c0.05 0.21 0.09 0.43 0.09 0.57 0 0.36-0.27 0.61-0.65 0.61-0.64 0-1.27-0.6-2.3-2.2l0.67 2.18-0.03 0.02c-0.54-0.11-0.75-0.15-1.61-0.31v-0.16c0.51-0.01 0.64-0.07 0.64-0.27 0-0.06-0.01-0.12-0.02-0.17l-0.96-3.49h0.75c0.47 1.58 0.55 1.8 0.99 2.47 0.6 0.92 1.11 1.42 1.48 1.42 0.15 0 0.24-0.11 0.24-0.29 0-0.12-0.06-0.45-0.14-0.76l-0.44-1.64c-0.13-0.51-0.16-0.65-0.16-0.75 0-0.38 0.14-0.54 0.47-0.54 0.45 0 0.7 0.21 1.39 1.13z"/></g>
  <g id="g6010" xml:space="preserve" ns0:pdfconverter="pstoedit" transform="matrix(1.75 0 0 -1.75 -232.02 1279.3)" ns0:text="$\\vec{l}$" ns0:version="0.7.2" ns0:inkscapeversion="0.91" ns0:preamble="/usr/share/inkscape/extensions/default_packages.tex" ns0:scale="1.4" ns0:texconverter="pdflatex"><polygon id="polygon6012" points="152.07 714.24 152.26 714 153.93 715.44 152.87 716.88 152.59 716.64 153.12 715.64 149.8 715.64 149.71 715.24 153.04 715.24"/><path id="path6014" d="m150.98 708.35-0.07-0.08-0.03-0.05-0.03-0.04-0.04-0.04-0.03-0.04-0.03-0.05-0.04-0.04c-0.32-0.42-0.51-0.57-0.69-0.57-0.09 0-0.14 0.07-0.14 0.18 0 0.07 0.03 0.19 0.08 0.39 0 0.03 0.02 0.08 0.03 0.1l1.5 5.77-0.05 0.05c-0.59-0.13-0.97-0.2-1.55-0.27v-0.16c0.47 0 0.67-0.07 0.67-0.23 0-0.03-0.01-0.09-0.04-0.18l-1.36-5.26c-0.03-0.11-0.05-0.21-0.05-0.26 0-0.36 0.17-0.56 0.49-0.56 0.52 0 0.86 0.29 1.51 1.25z"/></g>
 </g>
</svg>
