<?xml version="1.0" encoding="UTF-8" standalone="no"?>
<svg id="svg4432" xmlns:rdf="http://www.w3.org/1999/02/22-rdf-syntax-ns#" xmlns="http://www.w3.org/2000/svg" xmlns:ns0="http://www.iki.fi/pav/software/textext/" height="300" width="300" version="1.1" xmlns:cc="http://creativecommons.org/ns#" xmlns:xlink="http://www.w3.org/1999/xlink" viewBox="0 0 300 300" xmlns:dc="http://purl.org/dc/elements/1.1/">
 <style type="text/css">
	 @import url('../estilo.css');
 </style>
 <defs>
  <circle id="gpPt5" stroke-width=".222" cy="0" stroke="currentColor" cx="0" r="1"/>
  <use id="gpPt6" xlink:href="#gpPt5" fill="currentColor"/>
 </defs>
 <metadata id="metadata4602">
  <rdf:RDF>
   <cc:Work rdf:about="">
    <dc:format>image/svg+xml</dc:format>
    <dc:type rdf:resource="http://purl.org/dc/dcmitype/StillImage"/>
    <dc:title>Gnuplot</dc:title>
   </cc:Work>
  </rdf:RDF>
 </metadata>
 <title id="title4434">Gnuplot</title>
 <desc id="desc4436">Produced by GNUPLOT 5.0 patchlevel 3</desc>
 <g id="gnuplot_canvas">
  <rect id="rect4439" height="300" width="300" y="0" x="0" fill="none"/>
  <g>
   <g id="g4471" font-size="16" font-family="Stix Two Text" color="black">
    <g id="g4473" transform="translate(111.4,39.1)" text-anchor="end">
     <text id="text4475">
      <tspan id="tspan4477" font-family="Stix Two Text" font-style="italic">P</tspan>
     </text>
    </g>
    <g id="g4479" transform="translate(22.6,250.2)" text-anchor="end">
     <text id="text4481">
      <tspan id="tspan4483" font-family="Stix Two Text" font-style="italic">T</tspan>
     </text>
    </g>
    <g id="g4485" transform="translate(271.3,231.2)">
     <text id="text4487">
      <tspan id="tspan4489" font-family="Stix Two Text" font-style="italic">V</tspan>
     </text>
    </g>
   </g>
   <g id="g4491" color="black" stroke="currentColor" fill="none">
    <path id="path4493" stroke="#000" d="m117.5 173.8v-140.7"/>
   </g>
   <g id="g4495" color="black" stroke="currentColor" fill="none">
    <path id="path4497" stroke="#000" d="m117.5 173.8l-88.8 70.4"/>
   </g>
   <g id="g4499" color="black" stroke="currentColor" fill="none">
    <path id="path4501" stroke="#000" d="m117.5 173.8l153.8 40.7"/>
   </g>
  </g>
  <g id="gnuplot_plot_1a">
   <title id="title4504">gnuplot_plot_1a</title>
  </g>
  <g id="gnuplot_plot_2a">
   <title id="title4511">gnuplot_plot_2a</title>
   <g id="g4515" color="black" stroke="#bebebe" stroke-width=".5" fill="none">
    <path id="path4517" d="m117.5 103.3l-88.8 12.6m96.9 8.6l-88.8 28.2m96.9-15.2l-88.8 37.1m96.9-27.8l-88.8 42.9m96.9-35.8l-88.8 47m96.8-41.2l-88.7 50.1m96.8-45.1l-88.7 52.4m96.8-48l-88.7 54.2m96.8-50.2l-88.7 55.7m96.8-52.1l-88.7 57.1m96.8-53.6l-88.7 58m96.8-54.8l-88.7 59m96.8-55.9l-88.7 59.7m96.8-56.8l-88.7 60.5m96.8-57.6l-88.7 61.1m96.8-58.3l-88.8 61.6m96.9-58.9l-88.8 62.1m96.9-59.4l-88.8 62.4m96.9-59.8l-88.8 62.8m96.9-60.2l-88.8 63.2m-65-165.6l3.2 9.7 3.1 7.7 3.2 6.3 3.1 5.3 3.1 4.6 3.2 4 3.1 3.5 3.2 3.2 3.1 2.9 3.1 2.6 3.1 2.5 3.1 2.3 3.2 2 3.1 2 3.1 1.9 3.2 1.8 3.1 1.7 3.2 1.7 3.1 1.6 3.1 1.5 3.2 1.5 3.1 1.4 3.1 1.4 3.2 1.4 3.1 1.3 3.2 1.3 3.1 1.3 3.1 1.2 3.2 1.3 3.1 1.2 3.2 1.1 3.1 1.2 3.1 1.2 3.2 1.1 3.1 1.1 3.2 1.1 3.1 1.1 3.1 1.1 3.2 1 3.1 1.1 3.2 1.1 3.1 1 3.1 1 3.2 1 3.1 1.1 3.2 1 3.1 1 3.1 1 3.2 1m-158.4-101.7l3.1 10 3.1 8 3.2 6.6 3.1 5.5 3.2 4.7 3.1 4.1 3.1 3.7 3.2 3.3 3.1 3 3.2 2.7 3.1 2.5 3 2.3 3.2 2.1 3.1 2.1 3.2 1.9 3.1 1.9 3.1 1.8 3.2 1.6 3.1 1.7 3.2 1.5 3.1 1.5 3.1 1.5 3.2 1.4 3.1 1.4 3.2 1.4 3.1 1.3 3.1 1.3 3.2 1.2 3.1 1.3 3.1 1.2 3.2 1.2 3.1 1.2 3.2 1.1 3.1 1.2 3.1 1.1 3.2 1.1 3.1 1.1 3.2 1.1 3.1 1.1 3.1 1.1 3.2 1 3.1 1.1 3.2 1 3.1 1 3.1 1.1 3.2 1 3.1 1 3.2 1 3.1 1m-158.4-104.4l3.1 10.5 3.2 8.2 3.1 6.8 3.2 5.7 3.1 4.9 3.1 4.3 3.2 3.8 3.1 3.4 3.1 3.1 3.2 2.8 3.1 2.4 3.2 2.4 3.1 2.3 3 2.1 3.2 2 3.1 1.9 3.2 1.8 3.1 1.7 3.1 1.7 3.2 1.6 3.1 1.5 3.2 1.5 3.1 1.4 3.1 1.4 3.2 1.4 3.1 1.3 3.2 1.4 3.1 1.2 3.1 1.3 3.2 1.2 3.1 1.2 3.2 1.2 3.1 1.2 3.1 1.2 3.2 1.1 3.1 1.1 3.1 1.1 3.2 1.1 3.1 1.1 3.2 1.1 3.1 1.1 3.1 1 3.2 1.1 3.1 1 3.2 1.1 3.1 1 3.1 1 3.2 1 3.1 1m-158.4-107l3.2 10.8 3.1 8.6 3.1 7 3.2 5.9 3.1 5.1 3.2 4.4 3.1 3.9 3.1 3.5 3.2 3.1 3.1 2.8 3.2 2.7 3.1 2.4 3.1 2.3 3.2 2.2 3 2 3.1 2 3.2 1.8 3.1 1.8 3.2 1.6 3.1 1.7 3.1 1.5 3.2 1.6 3.1 1.4 3.2 1.5 3.1 1.3 3.1 1.4 3.2 1.3 3.1 1.3 3.2 1.3 3.1 1.3 3.1 1.2 3.2 1.2 3.1 1.2 3.2 1.1 3.1 1.2 3.1 1.1 3.2 1.2 3.1 1.1 3.2 1.1 3.1 1.1 3.1 1 3.2 1.1 3.1 1.1 3.2 1 3.1 1.1 3.1 1 3.2 1 3.1 1 3.1 1m-158.4-109.6l3.2 11.1 3.1 8.9 3.2 7.3 3.1 6.1 3.1 5.2 3.2 4.6 3.1 4 3.2 3.6 3.1 3.1 3.1 3 3.2 2.7 3.1 2.5 3.2 2.4 3.1 2.2 3.1 2.1 3.2 1.9 3 1.9 3.2 1.8 3.1 1.7 3.1 1.7 3.2 1.6 3.1 1.5 3.1 1.5 3.2 1.5 3.1 1.4 3.2 1.4 3.1 1.3 3.1 1.3 3.2 1.3 3.1 1.3 3.2 1.2 3.1 1.2 3.1 1.2 3.2 1.2 3.1 1.2 3.2 1.1 3.1 1.2 3.1 1.1 3.2 1.1 3.1 1.1 3.2 1.1 3.1 1.1 3.1 1 3.2 1.1 3.1 1 3.2 1.1 3.1 1 3.1 1 3.2 1.1m-158.4-112.4l3.1 11.6 3.1 9.2 3.2 7.5 3.1 6.3 3.2 5.3 3.1 4.7 3.1 4.2 3.2 3.6 3.1 3.3 3.2 3 3.1 2.8 3.1 2.6 3.2 2.4 3.1 2.3 3.2 2.1 3.1 2 3.1 1.9 3.1 1.9 3.1 1.7 3.2 1.7 3.1 1.6 3.1 1.6 3.2 1.5 3.1 1.5 3.2 1.4 3.1 1.4 3.1 1.4 3.2 1.3 3.1 1.3 3.2 1.3 3.1 1.3 3.1 1.2 3.2 1.2 3.1 1.2 3.1 1.2 3.2 1.2 3.1 1.1 3.2 1.1 3.1 1.2 3.1 1.1 3.2 1.1 3.1 1 3.2 1.1 3.1 1.1 3.1 1 3.2 1.1 3.1 1 3.2 1.1 3.1 1m-158.4-115l3.1 11.9 3.2 9.5 3.1 7.7 3.2 6.5 3.1 5.6 3.1 4.8 3.2 4.2 3.1 3.7 3.2 3.5 3.1 3.1 3.1 2.8 3.2 2.7 3.1 2.4 3.1 2.4 3.2 2.1 3.1 2.1 3.2 2 3.1 1.8 3.1 1.8 3.1 1.7 3.1 1.7 3.2 1.6 3.1 1.5 3.1 1.5 3.2 1.5 3.1 1.4 3.2 1.4 3.1 1.3 3.1 1.3 3.2 1.3 3.1 1.3 3.2 1.3 3.1 1.2 3.1 1.2 3.2 1.2 3.1 1.2 3.2 1.1 3.1 1.2 3.1 1.1 3.2 1.1 3.1 1.1 3.1 1.1 3.2 1.1 3.1 1.1 3.2 1 3.1 1.1 3.1 1 3.2 1.1 3.1 1m-158.4-117.6l3.2 12.3 3.1 9.7 3.1 8 3.2 6.7 3.1 5.7 3.2 5 3.1 4.2 3.1 3.9 3.2 3.5 3.1 3.2 3.2 3 3.1 2.7 3.1 2.5 3.2 2.4 3.1 2.2 3.2 2.1 3.1 2 3.1 1.9 3.2 1.8 3.1 1.7 3 1.7 3.2 1.6 3.1 1.6 3.2 1.5 3.1 1.5 3.1 1.5 3.2 1.4 3.1 1.3 3.2 1.4 3.1 1.3 3.1 1.3 3.2 1.2 3.1 1.3 3.2 1.2 3.1 1.2 3.1 1.2 3.2 1.2 3.1 1.1 3.2 1.1 3.1 1.2 3.1 1.1 3.2 1.1 3.1 1.1 3.2 1.1 3.1 1 3.1 1.1 3.2 1.1 3.1 1 3.1 1m-158.4-120.3l3.2 12.7 3.1 10.1 3.2 8.2 3.1 6.9 3.1 5.8 3.2 5.1 3.1 4.4 3.2 4 3.1 3.6 3.1 3.3 3.2 3 3.1 2.8 3.2 2.5 3.1 2.4 3.1 2.3 3.2 2.2 3.1 2 3.2 1.9 3.1 1.9 3.1 1.8 3.2 1.7 3.1 1.6 3.1 1.6 3.1 1.6 3.1 1.5 3.2 1.4 3.1 1.4 3.1 1.4 3.2 1.4 3.1 1.3 3.2 1.3 3.1 1.3 3.1 1.2 3.2 1.3 3.1 1.2 3.2 1.2 3.1 1.2 3.1 1.1 3.2 1.2 3.1 1.1 3.2 1.2 3.1 1.1 3.1 1.1 3.2 1.1 3.1 1 3.2 1.1 3.1 1.1 3.1 1 3.2 1.1m-158.4-123l3.1 13.1 3.2 10.3 3.1 8.5 3.1 7 3.2 6.1 3.1 5.1 3.1 4.6 3.2 4.1 3.1 3.7 3.2 3.3 3.1 3.1 3.1 2.8 3.2 2.7 3.1 2.4 3.2 2.4 3.1 2.1 3.1 2.1 3.2 2 3.1 1.9 3.2 1.8 3.1 1.7 3.1 1.7 3.2 1.6 3 1.6 3.2 1.5 3.1 1.5 3.1 1.4 3.2 1.4 3.1 1.4 3.2 1.3 3.1 1.4 3.1 1.2 3.2 1.3 3.1 1.3 3.2 1.2 3.1 1.2 3.1 1.2 3.2 1.2 3.1 1.1 3.1 1.2 3.2 1.1 3.1 1.1 3.2 1.1 3.1 1.1 3.1 1.1 3.2 1.1 3.1 1.1 3.2 1 3.1 1.1"/>
    <path id="path4519" d="m70.8 110l3.1 13.4 3.2 10.7 3.1 8.7 3.2 7.2 3.1 6.2 3.1 5.3 3.2 4.7 3.1 4.2 3.2 3.8 3.1 3.4 3.1 3.1 3.2 2.9 3.1 2.7 3.1 2.5 3.2 2.4 3.1 2.2 3.2 2.1 3.1 2 3.1 2 3.2 1.8 3.1 1.8 3.2 1.7 3.1 1.6 3.1 1.6 3.2 1.5 3 1.5 3.2 1.5 3.1 1.4 3.1 1.4 3.2 1.4 3.1 1.3 3.2 1.3 3.1 1.3 3.1 1.3 3.2 1.2 3.1 1.2 3.2 1.2 3.1 1.2 3.1 1.2 3.2 1.1 3.1 1.2 3.2 1.1 3.1 1.1 3.1 1.1 3.2 1.1 3.1 1.1 3.1 1.1 3.2 1.1 3.1 1m-158.4-128.3l3.2 13.9 3.1 10.9 3.1 8.9 3.2 7.5 3.1 6.3 3.2 5.4 3.1 4.9 3.1 4.3 3.2 3.8 3.1 3.5 3.2 3.3 3.1 2.9 3.1 2.8 3.2 2.5 3.1 2.4 3.2 2.3 3.1 2.1 3.1 2.1 3.2 1.9 3.1 1.9 3.2 1.8 3.1 1.7 3.1 1.7 3.2 1.6 3.1 1.6 3.1 1.5 3.1 1.5 3.1 1.4 3.2 1.4 3.1 1.4 3.1 1.3 3.2 1.4 3.1 1.3 3.2 1.2 3.1 1.3 3.1 1.2 3.2 1.2 3.1 1.2 3.2 1.2 3.1 1.2 3.1 1.1 3.2 1.2 3.1 1.1 3.2 1.1 3.1 1.1 3.1 1.1 3.2 1.1 3.1 1.1 3.2 1m-158.4-130.9l3.1 14.2 3.1 11.2 3.2 9.2 3.1 7.7 3.1 6.4 3.2 5.6 3.1 5 3.2 4.4 3.1 3.9 3.1 3.6 3.2 3.3 3.1 3 3.2 2.8 3.1 2.6 3.1 2.5 3.2 2.3 3.1 2.2 3.2 2 3.1 2 3.1 1.9 3.2 1.9 3.1 1.7 3.2 1.7 3.1 1.6 3.1 1.6 3.2 1.6 3.1 1.5 3.2 1.4 3 1.4 3.1 1.4 3.2 1.4 3.1 1.3 3.1 1.3 3.2 1.3 3.1 1.3 3.2 1.2 3.1 1.3 3.1 1.2 3.2 1.2 3.1 1.1 3.2 1.2 3.1 1.2 3.1 1.1 3.2 1.1 3.1 1.1 3.2 1.1 3.1 1.1 3.1 1.1 3.2 1.1m-158.4-133.6l3.1 14.6 3.2 11.5 3.1 9.4 3.1 7.8 3.2 6.6 3.1 5.8 3.2 5 3.1 4.5 3.1 4.1 3.2 3.6 3.1 3.4 3.1 3.1 3.2 2.8 3.1 2.7 3.2 2.5 3.1 2.4 3.1 2.2 3.2 2.1 3.1 2 3.2 1.9 3.1 1.9 3.1 1.8 3.2 1.7 3.1 1.7 3.2 1.6 3.1 1.5 3.1 1.5 3.2 1.5 3.1 1.5 3.1 1.4 3.1 1.3 3.1 1.4 3.2 1.3 3.1 1.3 3.2 1.3 3.1 1.2 3.1 1.3 3.2 1.2 3.1 1.2 3.1 1.2 3.2 1.2 3.1 1.1 3.2 1.2 3.1 1.1 3.1 1.1 3.2 1.1 3.1 1.1 3.2 1.1 3.1 1.1m-158.4-136.3l3.1 15 3.2 11.8 3.1 9.7 3.2 8 3.1 6.7 3.1 5.9 3.2 5.2 3.1 4.6 3.2 4.2 3.1 3.7 3.1 3.4 3.2 3.2 3.1 2.9 3.2 2.7 3.1 2.5 3.1 2.4 3.2 2.3 3.1 2.2 3.1 2 3.2 2 3.1 1.8 3.2 1.8 3.1 1.8 3.1 1.7 3.2 1.6 3.1 1.6 3.2 1.5 3.1 1.5 3.1 1.5 3.2 1.4 3.1 1.4 3.1 1.4 3.1 1.3 3.1 1.3 3.2 1.3 3.1 1.3 3.2 1.2 3.1 1.2 3.1 1.3 3.2 1.1 3.1 1.2 3.2 1.2 3.1 1.1 3.1 1.2 3.2 1.1 3.1 1.1 3.2 1.1 3.1 1.1 3.1 1.1m-158.4-138.9l3.2 15.3 3.1 12.2 3.1 9.8 3.2 8.3 3.1 6.9 3.2 6 3.1 5.3 3.1 4.7 3.2 4.2 3.1 3.9 3.2 3.4 3.1 3.3 3.1 2.9 3.2 2.8 3.1 2.6 3.2 2.4 3.1 2.3 3.1 2.2 3.2 2.1 3.1 2 3.2 1.9 3.1 1.8 3.1 1.8 3.2 1.7 3.1 1.6 3.2 1.6 3.1 1.6 3.1 1.5 3.2 1.5 3.1 1.4 3.1 1.4 3.2 1.4 3 1.4 3.2 1.3 3.1 1.3 3.1 1.3 3.2 1.2 3.1 1.3 3.2 1.2 3.1 1.2 3.1 1.2 3.2 1.2 3.1 1.1 3.2 1.2 3.1 1.1 3.1 1.1 3.2 1.2 3.1 1.1 3.2 1.1m-158.4-141.7l3.1 15.8 3.1 12.4 3.2 10.1 3.1 8.3 3.1 7.2 3.2 6.2 3.1 5.4 3.2 4.8 3.1 4.3 3.1 3.9 3.2 3.6 3.1 3.2 3.2 3.1 3.1 2.8 3.1 2.6 3.2 2.5 3.1 2.3 3.2 2.3 3.1 2.1 3.1 2 3.2 1.9 3.1 1.9 3.2 1.8 3.1 1.7 3.1 1.7 3.2 1.6 3.1 1.6 3.2 1.5 3.1 1.5 3.1 1.5 3.2 1.4 3.1 1.4 3.2 1.3 3.1 1.4 3 1.3 3.2 1.3 3.1 1.3 3.1 1.2 3.2 1.2 3.1 1.3 3.2 1.2 3.1 1.1 3.1 1.2 3.2 1.2 3.1 1.1 3.2 1.1 3.1 1.2 3.1 1.1 3.2 1.1m-158.4-144.3l3.1 16.1 3.2 12.8 3.1 10.3 3.1 8.5 3.2 7.3 3.1 6.3 3.2 5.6 3.1 4.9 3.1 4.4 3.2 4 3.1 3.6 3.2 3.3 3.1 3.1 3.1 2.9 3.2 2.7 3.1 2.5 3.1 2.4 3.2 2.2 3.1 2.2 3.2 2 3.1 2 3.1 1.9 3.2 1.8 3.1 1.7 3.2 1.7 3.1 1.7 3.1 1.6 3.2 1.5 3.1 1.5 3.2 1.5 3.1 1.4 3.1 1.4 3.2 1.4 3.1 1.4 3.2 1.3 3 1.3 3.1 1.3 3.2 1.2 3.1 1.3 3.2 1.2 3.1 1.2 3.1 1.2 3.2 1.2 3.1 1.2 3.1 1.1 3.2 1.1 3.1 1.2 3.2 1.1 3.1 1.1m-158.4-146.9l3.1 16.5 3.2 13 3.1 10.6 3.2 8.7 3.1 7.5 3.1 6.4 3.2 5.7 3.1 5 3.2 4.5 3.1 4 3.1 3.7 3.2 3.4 3.1 3.2 3.2 2.9 3.1 2.7 3.1 2.6 3.2 2.4 3.1 2.3 3.2 2.2 3.1 2 3.1 2 3.2 1.9 3.1 1.9 3.1 1.7 3.2 1.8 3.1 1.6 3.2 1.6 3.1 1.6 3.1 1.5 3.2 1.5 3.1 1.5 3.2 1.4 3.1 1.4 3.1 1.3 3.2 1.4 3.1 1.3 3.2 1.3 3 1.3 3.1 1.2 3.2 1.3 3.1 1.2 3.2 1.2 3.1 1.2 3.1 1.1 3.2 1.2 3.1 1.2 3.2 1.1 3.1 1.1 3.1 1.1m-158.4-149.6l3.2 16.9 3.1 13.3 3.1 10.9 3.2 8.9 3.1 7.6 3.2 6.6 3.1 5.8 3.1 5.1 3.2 4.5 3.1 4.2 3.2 3.7 3.1 3.5 3.1 3.2 3.2 3 3.1 2.7 3.2 2.6 3.1 2.5 3.1 2.3 3.2 2.2 3.1 2.2 3.2 2 3.1 1.9 3.1 1.9 3.2 1.8 3.1 1.7 3.2 1.7 3.1 1.6 3.1 1.6 3.2 1.5 3.1 1.5 3.1 1.5 3.2 1.5 3.1 1.4 3.2 1.3 3.1 1.4 3.1 1.3 3.2 1.3 3.1 1.3 3.1 1.3 3.1 1.2 3.1 1.2 3.2 1.3 3.1 1.2 3.2 1.1 3.1 1.2 3.1 1.2 3.2 1.1 3.1 1.1 3.2 1.2"/>
   </g>
  </g>
  <g id="g4521" fill-opacity=".5" shape-rendering="crispEdges">
   <polygon id="polygon4523" points="149.9 153.9 157.9 159.7 69.2 209.8 61.1 200.9" fill="#aff"/>
   <polygon id="polygon4525" points="157.9 159.7 166 164.7 77.3 217.1 69.2 209.8" fill="#b3ffff"/>
   <polygon id="polygon4527" points="141.8 146.8 149.9 153.9 61.1 200.9 53 189.7" fill="#9fffff"/>
   <polygon id="polygon4529" points="166 164.7 174.1 169.1 85.4 223.3 77.3 217.1" fill="#b9ffff"/>
   <polygon id="polygon4531" points="174.1 169.1 182.2 173.1 93.5 228.8 85.4 223.3" fill="#bfffff"/>
   <polygon id="polygon4533" points="133.7 137.5 141.8 146.8 53 189.7 44.9 174.6" fill="#8fffff"/>
   <polygon id="polygon4535" points="182.2 173.1 190.3 176.7 101.6 233.8 93.5 228.8" fill="#c3ffff"/>
   <polygon id="polygon4537" points="190.3 176.7 198.4 180.2 109.7 238.2 101.6 233.8" fill="#c7ffff"/>
   <polygon id="polygon4539" points="198.4 180.2 206.5 183.4 117.8 242.4 109.7 238.2" fill="#caffff"/>
   <polygon id="polygon4541" points="125.6 124.5 133.7 137.5 44.9 174.6 36.8 152.7" fill="#7ff"/>
   <polygon id="polygon4543" points="206.5 183.4 214.6 186.5 125.9 246.2 117.8 242.4" fill="#cdffff"/>
   <polygon id="polygon4545" points="214.6 186.5 222.7 189.4 134 249.9 125.9 246.2" fill="#cfffff"/>
   <polygon id="polygon4547" points="222.7 189.4 230.8 192.3 142.1 253.4 134 249.9" fill="#d1ffff"/>
   <polygon id="polygon4549" points="230.8 192.3 238.9 195.1 150.1 256.7 142.1 253.4" fill="#d3ffff"/>
   <polygon id="polygon4551" points="238.9 195.1 247 197.8 158.2 259.9 150.1 256.7" fill="#d5ffff"/>
   <polygon id="polygon4553" points="247 197.8 255.1 200.5 166.3 262.9 158.2 259.9" fill="#d6ffff"/>
   <polygon id="polygon4555" points="117.5 103.3 125.6 124.5 36.8 152.7 28.7 115.9" fill="#4fffff"/>
   <polygon id="polygon4557" points="255.1 200.5 263.2 203.1 174.4 265.9 166.3 262.9" fill="#d7ffff"/>
   <polygon id="polygon4559" points="263.2 203.1 271.3 205.7 182.5 268.9 174.4 265.9" fill="#d9ffff"/>
  </g>
  <g id="gnuplot_plot_1b">
   <title id="title4566">gnuplot_plot_1b</title>
   <g id="g4568" color="black" stroke="#9400d3" fill="none">
    <path id="path4570" d="m229.6 212.4h-1.6l-1.7-0.1h-1.6-1.6l-1.6-0.1h-1.6l-1.6-0.1h-1.6l-1.6-0.1h-1.6l-1.6-0.1h-1.6l-1.6-0.1h-1.7l-1.6-0.1-1.6-0.1h-1.6l-1.6-0.1-1.6-0.1-1.6-0.1h-1.6l-1.6-0.1-1.6-0.1-1.6-0.1-1.6-0.1-1.7-0.1-1.6-0.1-1.6-0.1-1.6-0.1-1.6-0.1-1.6-0.1-1.6-0.1-1.6-0.2-1.6-0.1-1.6-0.1-1.6-0.2-1.6-0.1-1.7-0.2-1.6-0.1-1.6-0.2-1.6-0.1-1.6-0.2-1.6-0.2-1.6-0.1-1.6-0.2-1.6-0.2-1.6-0.2-1.6-0.2-1.6-0.2-1.6-0.3-1.6-0.2-1.6-0.2-1.6-0.3-1.6-0.2-1.6-0.3-1.6-0.2-1.6-0.3-1.6-0.3-1.6-0.3-1.6-0.3-1.6-0.3-1.7-0.3-1.6-0.4-1.6-0.3-1.6-0.4-1.6-0.4-1.6-0.3-1.6-0.4-1.6-0.5-1.6-0.4-1.6-0.4-1.6-0.5-1.6-0.5-1.7-0.5-1.6-0.5-1.6-0.5-1.6-0.6-1.6-0.6-1.6-0.6-1.6-0.6-1.6-0.6-1.6-0.7-1.6-0.7-1.6-0.8-1.6-0.7-1.7-0.8-1.6-0.9-1.6-0.8-1.6-0.9-1.6-1-1.6-1-1.6-1-1.6-1.1-1.6-1.2-1.6-1.2-1.6-1.3-1.6-1.3-1.7-1.4-1.6-1.5m159.2 35.8h-1.6l-1.7-0.1h-1.6-1.6l-1.6-0.1h-1.6l-1.6-0.1h-1.6l-1.6-0.1h-1.6l-1.6-0.1h-1.6l-1.6-0.1h-1.7l-1.6-0.1-1.6-0.1h-1.6l-1.6-0.1-1.6-0.1-1.6-0.1h-1.6l-1.6-0.1-1.6-0.1-1.6-0.1-1.6-0.1-1.7-0.1-1.6-0.1-1.6-0.1-1.6-0.1-1.6-0.1-1.6-0.1-1.6-0.1-1.6-0.2-1.6-0.1-1.6-0.1-1.6-0.2-1.6-0.1-1.7-0.2-1.6-0.1-1.6-0.2-1.6-0.1-1.6-0.2-1.6-0.2-1.6-0.1-1.6-0.2-1.6-0.2-1.6-0.2-1.6-0.2-1.6-0.2-1.6-0.3-1.6-0.2-1.6-0.2-1.6-0.3-1.6-0.2-1.6-0.3-1.6-0.2-1.6-0.3-1.6-0.3-1.6-0.3-1.6-0.3-1.6-0.3-1.7-0.3-1.6-0.4-1.6-0.3-1.6-0.4-1.6-0.4-1.6-0.3-1.6-0.4-1.6-0.5-1.6-0.4-1.6-0.4-1.6-0.5-1.6-0.5-1.7-0.5-1.6-0.5-1.6-0.5-1.6-0.6-1.6-0.6-1.6-0.6-1.6-0.6-1.6-0.6-1.6-0.7-1.6-0.7-1.6-0.8-1.6-0.7-1.7-0.8-1.6-0.9-1.6-0.8-1.6-0.9-1.6-1-1.6-1-1.6-1-1.6-1.1-1.6-1.2-1.6-1.2-1.6-1.3-1.6-1.3-1.7-1.4-1.6-1.5m159.2 35.8h-1.6l-1.7-0.1h-1.6-1.6l-1.6-0.1h-1.6l-1.6-0.1h-1.6l-1.6-0.1h-1.6l-1.6-0.1h-1.6l-1.6-0.1h-1.7l-1.6-0.1-1.6-0.1h-1.6l-1.6-0.1-1.6-0.1-1.6-0.1h-1.6l-1.6-0.1-1.6-0.1-1.6-0.1-1.6-0.1-1.7-0.1-1.6-0.1-1.6-0.1-1.6-0.1-1.6-0.1-1.6-0.1-1.6-0.1-1.6-0.2-1.6-0.1-1.6-0.1-1.6-0.2-1.6-0.1-1.7-0.2-1.6-0.1-1.6-0.2-1.6-0.1-1.6-0.2-1.6-0.2-1.6-0.1-1.6-0.2-1.6-0.2-1.6-0.2-1.6-0.2-1.6-0.2-1.6-0.3-1.6-0.2-1.6-0.2-1.6-0.3-1.6-0.2-1.6-0.3-1.6-0.2-1.6-0.3-1.6-0.3-1.6-0.3-1.6-0.3-1.6-0.3-1.7-0.3-1.6-0.4-1.6-0.3-1.6-0.4-1.6-0.4-1.6-0.3-1.6-0.4-1.6-0.5-1.6-0.4-1.6-0.4-1.6-0.5-1.6-0.5-1.7-0.5-1.6-0.5-1.6-0.5-1.6-0.6-1.6-0.6-1.6-0.6-1.6-0.6-1.6-0.6-1.6-0.7-1.6-0.7-1.6-0.8-1.6-0.7-1.7-0.8-1.6-0.9-1.6-0.8-1.6-0.9-1.6-1-1.6-1-1.6-1-1.6-1.1-1.6-1.2-1.6-1.2-1.6-1.3-1.6-1.3-1.7-1.4-1.6-1.5m159.2 35.8h-1.6l-1.7-0.1h-1.6-1.6l-1.6-0.1h-1.6l-1.6-0.1h-1.6l-1.6-0.1h-1.6l-1.6-0.1h-1.6l-1.6-0.1h-1.7l-1.6-0.1-1.6-0.1h-1.6l-1.6-0.1-1.6-0.1-1.6-0.1h-1.6l-1.6-0.1-1.6-0.1-1.6-0.1-1.6-0.1-1.7-0.1-1.6-0.1-1.6-0.1-1.6-0.1-1.6-0.1-1.6-0.1-1.6-0.1-1.6-0.2-1.6-0.1-1.6-0.1-1.6-0.2-1.6-0.1-1.7-0.2-1.6-0.1-1.6-0.2-1.6-0.1-1.6-0.2-1.6-0.2-1.6-0.1-1.6-0.2-1.6-0.2-1.6-0.2-1.6-0.2-1.6-0.2-1.6-0.3-1.6-0.2-1.6-0.2-1.6-0.3-1.6-0.2-1.6-0.3-1.6-0.2-1.6-0.3-1.6-0.3-1.6-0.3-1.6-0.3-1.6-0.3-1.7-0.3-1.6-0.4-1.6-0.3-1.6-0.4-1.6-0.4-1.6-0.3-1.6-0.4-1.6-0.5-1.6-0.4-1.6-0.4-1.6-0.5-1.6-0.5-1.7-0.5-1.6-0.5-1.6-0.5-1.6-0.6-1.6-0.6-1.6-0.6-1.6-0.6-1.6-0.6-1.6-0.7-1.6-0.7-1.6-0.8-1.6-0.7-1.7-0.8-1.6-0.9-1.6-0.8-1.6-0.9-1.6-1-1.6-1-1.6-1-1.6-1.1-1.6-1.2-1.6-1.2-1.6-1.3-1.6-1.3-1.7-1.4-1.6-1.5m159.2 35.8h-1.6l-1.7-0.1h-1.6-1.6l-1.6-0.1h-1.6l-1.6-0.1h-1.6l-1.6-0.1h-1.6l-1.6-0.1h-1.6l-1.6-0.1h-1.7l-1.6-0.1-1.6-0.1h-1.6l-1.6-0.1-1.6-0.1-1.6-0.1h-1.6l-1.6-0.1-1.6-0.1-1.6-0.1-1.6-0.1-1.7-0.1-1.6-0.1-1.6-0.1-1.6-0.1-1.6-0.1-1.6-0.1-1.6-0.1-1.6-0.2-1.6-0.1-1.6-0.1-1.6-0.2-1.6-0.1-1.7-0.2-1.6-0.1-1.6-0.2-1.6-0.1-1.6-0.2-1.6-0.2-1.6-0.1-1.6-0.2-1.6-0.2-1.6-0.2-1.6-0.2-1.6-0.2-1.6-0.3-1.6-0.2-1.6-0.2-1.6-0.3-1.6-0.2-1.6-0.3-1.6-0.2-1.6-0.3-1.6-0.3-1.6-0.3-1.6-0.3-1.6-0.3-1.7-0.3-1.6-0.4-1.6-0.3-1.6-0.4-1.6-0.4-1.6-0.3-1.6-0.4-1.6-0.5-1.6-0.4-1.6-0.4-1.6-0.5-1.6-0.5-1.7-0.5-1.6-0.5-1.6-0.5-1.6-0.6-1.6-0.6-1.6-0.6-1.6-0.6-1.6-0.6-1.6-0.7-1.6-0.7-1.6-0.8-1.6-0.7-1.7-0.8-1.6-0.9-1.6-0.8-1.6-0.9-1.6-1-1.6-1-1.6-1-1.6-1.1-1.6-1.2-1.6-1.2-1.6-1.3-1.6-1.3-1.7-1.4-1.6-1.5m159.2 35.8h-1.6l-1.7-0.1h-1.6-1.6l-1.6-0.1h-1.6l-1.6-0.1h-1.6l-1.6-0.1h-1.6l-1.6-0.1h-1.6l-1.6-0.1h-1.7l-1.6-0.1-1.6-0.1h-1.6l-1.6-0.1-1.6-0.1-1.6-0.1h-1.6l-1.6-0.1-1.6-0.1-1.6-0.1-1.6-0.1-1.7-0.1-1.6-0.1-1.6-0.1-1.6-0.1-1.6-0.1-1.6-0.1-1.6-0.1-1.6-0.2-1.6-0.1-1.6-0.1-1.6-0.2-1.6-0.1-1.7-0.2-1.6-0.1-1.6-0.2-1.6-0.1-1.6-0.2-1.6-0.2-1.6-0.1-1.6-0.2-1.6-0.2-1.6-0.2-1.6-0.2-1.6-0.2-1.6-0.3-1.6-0.2-1.6-0.2-1.6-0.3-1.6-0.2-1.6-0.3-1.6-0.2-1.6-0.3-1.6-0.3-1.6-0.3-1.6-0.3-1.6-0.3-1.7-0.3-1.6-0.4-1.6-0.3-1.6-0.4-1.6-0.4-1.6-0.3-1.6-0.4-1.6-0.5-1.6-0.4-1.6-0.4-1.6-0.5-1.6-0.5-1.7-0.5-1.6-0.5-1.6-0.5-1.6-0.6-1.6-0.6-1.6-0.6-1.6-0.6-1.6-0.6-1.6-0.7-1.6-0.7-1.6-0.8-1.6-0.7-1.7-0.8-1.6-0.9-1.6-0.8-1.6-0.9-1.6-1-1.6-1-1.6-1-1.6-1.1-1.6-1.2-1.6-1.2-1.6-1.3-1.6-1.3-1.7-1.4-1.6-1.5"/>
    <path id="path4572" d="m229.6 212.4h-1.6l-1.7-0.1h-1.6-1.6l-1.6-0.1h-1.6l-1.6-0.1h-1.6l-1.6-0.1h-1.6l-1.6-0.1h-1.6l-1.6-0.1h-1.7l-1.6-0.1-1.6-0.1h-1.6l-1.6-0.1-1.6-0.1-1.6-0.1h-1.6l-1.6-0.1-1.6-0.1-1.6-0.1-1.6-0.1-1.7-0.1-1.6-0.1-1.6-0.1-1.6-0.1-1.6-0.1-1.6-0.1-1.6-0.1-1.6-0.2-1.6-0.1-1.6-0.1-1.6-0.2-1.6-0.1-1.7-0.2-1.6-0.1-1.6-0.2-1.6-0.1-1.6-0.2-1.6-0.2-1.6-0.1-1.6-0.2-1.6-0.2-1.6-0.2-1.6-0.2-1.6-0.2-1.6-0.3-1.6-0.2-1.6-0.2-1.6-0.3-1.6-0.2-1.6-0.3-1.6-0.2-1.6-0.3-1.6-0.3-1.6-0.3-1.6-0.3-1.6-0.3-1.7-0.3-1.6-0.4-1.6-0.3-1.6-0.4-1.6-0.4-1.6-0.3-1.6-0.4-1.6-0.5-1.6-0.4-1.6-0.4-1.6-0.5-1.6-0.5-1.7-0.5-1.6-0.5-1.6-0.5-1.6-0.6-1.6-0.6-1.6-0.6-1.6-0.6-1.6-0.6-1.6-0.7-1.6-0.7-1.6-0.8-1.6-0.7-1.7-0.8-1.6-0.9-1.6-0.8-1.6-0.9-1.6-1-1.6-1-1.6-1-1.6-1.1-1.6-1.2-1.6-1.2-1.6-1.3-1.6-1.3-1.7-1.4-1.6-1.5m159.2 35.8h-1.6l-1.7-0.1h-1.6-1.6l-1.6-0.1h-1.6l-1.6-0.1h-1.6l-1.6-0.1h-1.6l-1.6-0.1h-1.6l-1.6-0.1h-1.7l-1.6-0.1-1.6-0.1h-1.6l-1.6-0.1-1.6-0.1-1.6-0.1h-1.6l-1.6-0.1-1.6-0.1-1.6-0.1-1.6-0.1-1.7-0.1-1.6-0.1-1.6-0.1-1.6-0.1-1.6-0.1-1.6-0.1-1.6-0.1-1.6-0.2-1.6-0.1-1.6-0.1-1.6-0.2-1.6-0.1-1.7-0.2-1.6-0.1-1.6-0.2-1.6-0.1-1.6-0.2-1.6-0.2-1.6-0.1-1.6-0.2-1.6-0.2-1.6-0.2-1.6-0.2-1.6-0.2-1.6-0.3-1.6-0.2-1.6-0.2-1.6-0.3-1.6-0.2-1.6-0.3-1.6-0.2-1.6-0.3-1.6-0.3-1.6-0.3-1.6-0.3-1.6-0.3-1.7-0.3-1.6-0.4-1.6-0.3-1.6-0.4-1.6-0.4-1.6-0.3-1.6-0.4-1.6-0.5-1.6-0.4-1.6-0.4-1.6-0.5-1.6-0.5-1.7-0.5-1.6-0.5-1.6-0.5-1.6-0.6-1.6-0.6-1.6-0.6-1.6-0.6-1.6-0.6-1.6-0.7-1.6-0.7-1.6-0.8-1.6-0.7-1.7-0.8-1.6-0.9-1.6-0.8-1.6-0.9-1.6-1-1.6-1-1.6-1-1.6-1.1-1.6-1.2-1.6-1.2-1.6-1.3-1.6-1.3-1.7-1.4-1.6-1.5m159.2 35.8h-1.6l-1.7-0.1h-1.6-1.6l-1.6-0.1h-1.6l-1.6-0.1h-1.6l-1.6-0.1h-1.6l-1.6-0.1h-1.6l-1.6-0.1h-1.7l-1.6-0.1-1.6-0.1h-1.6l-1.6-0.1-1.6-0.1-1.6-0.1h-1.6l-1.6-0.1-1.6-0.1-1.6-0.1-1.6-0.1-1.7-0.1-1.6-0.1-1.6-0.1-1.6-0.1-1.6-0.1-1.6-0.1-1.6-0.1-1.6-0.2-1.6-0.1-1.6-0.1-1.6-0.2-1.6-0.1-1.7-0.2-1.6-0.1-1.6-0.2-1.6-0.1-1.6-0.2-1.6-0.2-1.6-0.1-1.6-0.2-1.6-0.2-1.6-0.2-1.6-0.2-1.6-0.2-1.6-0.3-1.6-0.2-1.6-0.2-1.6-0.3-1.6-0.2-1.6-0.3-1.6-0.2-1.6-0.3-1.6-0.3-1.6-0.3-1.6-0.3-1.6-0.3-1.7-0.3-1.6-0.4-1.6-0.3-1.6-0.4-1.6-0.4-1.6-0.3-1.6-0.4-1.6-0.5-1.6-0.4-1.6-0.4-1.6-0.5-1.6-0.5-1.7-0.5-1.6-0.5-1.6-0.5-1.6-0.6-1.6-0.6-1.6-0.6-1.6-0.6-1.6-0.6-1.6-0.7-1.6-0.7-1.6-0.8-1.6-0.7-1.7-0.8-1.6-0.9-1.6-0.8-1.6-0.9-1.6-1-1.6-1-1.6-1-1.6-1.1-1.6-1.2-1.6-1.2-1.6-1.3-1.6-1.3-1.7-1.4-1.6-1.5m159.2 35.8h-1.6l-1.7-0.1h-1.6-1.6l-1.6-0.1h-1.6l-1.6-0.1h-1.6l-1.6-0.1h-1.6l-1.6-0.1h-1.6l-1.6-0.1h-1.7l-1.6-0.1-1.6-0.1h-1.6l-1.6-0.1-1.6-0.1-1.6-0.1h-1.6l-1.6-0.1-1.6-0.1-1.6-0.1-1.6-0.1-1.7-0.1-1.6-0.1-1.6-0.1-1.6-0.1-1.6-0.1-1.6-0.1-1.6-0.1-1.6-0.2-1.6-0.1-1.6-0.1-1.6-0.2-1.6-0.1-1.7-0.2-1.6-0.1-1.6-0.2-1.6-0.1-1.6-0.2-1.6-0.2-1.6-0.1-1.6-0.2-1.6-0.2-1.6-0.2-1.6-0.2-1.6-0.2-1.6-0.3-1.6-0.2-1.6-0.2-1.6-0.3-1.6-0.2-1.6-0.3-1.6-0.2-1.6-0.3-1.6-0.3-1.6-0.3-1.6-0.3-1.6-0.3-1.7-0.3-1.6-0.4-1.6-0.3-1.6-0.4-1.6-0.4-1.6-0.3-1.6-0.4-1.6-0.5-1.6-0.4-1.6-0.4-1.6-0.5-1.6-0.5-1.7-0.5-1.6-0.5-1.6-0.5-1.6-0.6-1.6-0.6-1.6-0.6-1.6-0.6-1.6-0.6-1.6-0.7-1.6-0.7-1.6-0.8-1.6-0.7-1.7-0.8-1.6-0.9-1.6-0.8-1.6-0.9-1.6-1-1.6-1-1.6-1-1.6-1.1-1.6-1.2-1.6-1.2-1.6-1.3-1.6-1.3-1.7-1.4-1.6-1.5m159.2 35.8h-1.6l-1.7-0.1h-1.6-1.6l-1.6-0.1h-1.6l-1.6-0.1h-1.6l-1.6-0.1h-1.6l-1.6-0.1h-1.6l-1.6-0.1h-1.7l-1.6-0.1-1.6-0.1h-1.6l-1.6-0.1-1.6-0.1-1.6-0.1h-1.6l-1.6-0.1-1.6-0.1-1.6-0.1-1.6-0.1-1.7-0.1-1.6-0.1-1.6-0.1-1.6-0.1-1.6-0.1-1.6-0.1-1.6-0.1-1.6-0.2-1.6-0.1-1.6-0.1-1.6-0.2-1.6-0.1-1.7-0.2-1.6-0.1-1.6-0.2-1.6-0.1-1.6-0.2-1.6-0.2-1.6-0.1-1.6-0.2-1.6-0.2-1.6-0.2-1.6-0.2-1.6-0.2-1.6-0.3-1.6-0.2-1.6-0.2-1.6-0.3-1.6-0.2-1.6-0.3-1.6-0.2-1.6-0.3-1.6-0.3-1.6-0.3-1.6-0.3-1.6-0.3-1.7-0.3-1.6-0.4-1.6-0.3-1.6-0.4-1.6-0.4-1.6-0.3-1.6-0.4-1.6-0.5-1.6-0.4-1.6-0.4-1.6-0.5-1.6-0.5-1.7-0.5-1.6-0.5-1.6-0.5-1.6-0.6-1.6-0.6-1.6-0.6-1.6-0.6-1.6-0.6-1.6-0.7-1.6-0.7-1.6-0.8-1.6-0.7-1.7-0.8-1.6-0.9-1.6-0.8-1.6-0.9-1.6-1-1.6-1-1.6-1-1.6-1.1-1.6-1.2-1.6-1.2-1.6-1.3-1.6-1.3-1.7-1.4-1.6-1.5m159.2 35.8h-1.6l-1.7-0.1h-1.6-1.6l-1.6-0.1h-1.6l-1.6-0.1h-1.6l-1.6-0.1h-1.6l-1.6-0.1h-1.6l-1.6-0.1h-1.7l-1.6-0.1-1.6-0.1h-1.6l-1.6-0.1-1.6-0.1-1.6-0.1h-1.6l-1.6-0.1-1.6-0.1-1.6-0.1-1.6-0.1-1.7-0.1-1.6-0.1-1.6-0.1-1.6-0.1-1.6-0.1-1.6-0.1-1.6-0.1-1.6-0.2-1.6-0.1-1.6-0.1-1.6-0.2-1.6-0.1-1.7-0.2-1.6-0.1-1.6-0.2-1.6-0.1-1.6-0.2-1.6-0.2-1.6-0.1-1.6-0.2-1.6-0.2-1.6-0.2-1.6-0.2-1.6-0.2-1.6-0.3-1.6-0.2-1.6-0.2-1.6-0.3-1.6-0.2-1.6-0.3-1.6-0.2-1.6-0.3-1.6-0.3-1.6-0.3-1.6-0.3-1.6-0.3-1.7-0.3-1.6-0.4-1.6-0.3-1.6-0.4-1.6-0.4-1.6-0.3-1.6-0.4-1.6-0.5-1.6-0.4-1.6-0.4-1.6-0.5-1.6-0.5-1.7-0.5-1.6-0.5-1.6-0.5-1.6-0.6-1.6-0.6-1.6-0.6-1.6-0.6-1.6-0.6-1.6-0.7-1.6-0.7-1.6-0.8-1.6-0.7-1.7-0.8-1.6-0.9-1.6-0.8-1.6-0.9-1.6-1-1.6-1-1.6-1-1.6-1.1-1.6-1.2-1.6-1.2-1.6-1.3-1.6-1.3-1.7-1.4-1.6-1.5"/>
    <path id="path4574" d="m229.6 212.4h-1.6l-1.7-0.1h-1.6-1.6l-1.6-0.1h-1.6l-1.6-0.1h-1.6l-1.6-0.1h-1.6l-1.6-0.1h-1.6l-1.6-0.1h-1.7l-1.6-0.1-1.6-0.1h-1.6l-1.6-0.1-1.6-0.1-1.6-0.1h-1.6l-1.6-0.1-1.6-0.1-1.6-0.1-1.6-0.1-1.7-0.1-1.6-0.1-1.6-0.1-1.6-0.1-1.6-0.1-1.6-0.1-1.6-0.1-1.6-0.2-1.6-0.1-1.6-0.1-1.6-0.2-1.6-0.1-1.7-0.2-1.6-0.1-1.6-0.2-1.6-0.1-1.6-0.2-1.6-0.2-1.6-0.1-1.6-0.2-1.6-0.2-1.6-0.2-1.6-0.2-1.6-0.2-1.6-0.3-1.6-0.2-1.6-0.2-1.6-0.3-1.6-0.2-1.6-0.3-1.6-0.2-1.6-0.3-1.6-0.3-1.6-0.3-1.6-0.3-1.6-0.3-1.7-0.3-1.6-0.4-1.6-0.3-1.6-0.4-1.6-0.4-1.6-0.3-1.6-0.4-1.6-0.5-1.6-0.4-1.6-0.4-1.6-0.5-1.6-0.5-1.7-0.5-1.6-0.5-1.6-0.5-1.6-0.6-1.6-0.6-1.6-0.6-1.6-0.6-1.6-0.6-1.6-0.7-1.6-0.7-1.6-0.8-1.6-0.7-1.7-0.8-1.6-0.9-1.6-0.8-1.6-0.9-1.6-1-1.6-1-1.6-1-1.6-1.1-1.6-1.2-1.6-1.2-1.6-1.3-1.6-1.3-1.7-1.4-1.6-1.5m159.2 35.8h-1.6l-1.7-0.1h-1.6-1.6l-1.6-0.1h-1.6l-1.6-0.1h-1.6l-1.6-0.1h-1.6l-1.6-0.1h-1.6l-1.6-0.1h-1.7l-1.6-0.1-1.6-0.1h-1.6l-1.6-0.1-1.6-0.1-1.6-0.1h-1.6l-1.6-0.1-1.6-0.1-1.6-0.1-1.6-0.1-1.7-0.1-1.6-0.1-1.6-0.1-1.6-0.1-1.6-0.1-1.6-0.1-1.6-0.1-1.6-0.2-1.6-0.1-1.6-0.1-1.6-0.2-1.6-0.1-1.7-0.2-1.6-0.1-1.6-0.2-1.6-0.1-1.6-0.2-1.6-0.2-1.6-0.1-1.6-0.2-1.6-0.2-1.6-0.2-1.6-0.2-1.6-0.2-1.6-0.3-1.6-0.2-1.6-0.2-1.6-0.3-1.6-0.2-1.6-0.3-1.6-0.2-1.6-0.3-1.6-0.3-1.6-0.3-1.6-0.3-1.6-0.3-1.7-0.3-1.6-0.4-1.6-0.3-1.6-0.4-1.6-0.4-1.6-0.3-1.6-0.4-1.6-0.5-1.6-0.4-1.6-0.4-1.6-0.5-1.6-0.5-1.7-0.5-1.6-0.5-1.6-0.5-1.6-0.6-1.6-0.6-1.6-0.6-1.6-0.6-1.6-0.6-1.6-0.7-1.6-0.7-1.6-0.8-1.6-0.7-1.7-0.8-1.6-0.9-1.6-0.8-1.6-0.9-1.6-1-1.6-1-1.6-1-1.6-1.1-1.6-1.2-1.6-1.2-1.6-1.3-1.6-1.3-1.7-1.4-1.6-1.5m159.2 35.8h-1.6l-1.7-0.1h-1.6-1.6l-1.6-0.1h-1.6l-1.6-0.1h-1.6l-1.6-0.1h-1.6l-1.6-0.1h-1.6l-1.6-0.1h-1.7l-1.6-0.1-1.6-0.1h-1.6l-1.6-0.1-1.6-0.1-1.6-0.1h-1.6l-1.6-0.1-1.6-0.1-1.6-0.1-1.6-0.1-1.7-0.1-1.6-0.1-1.6-0.1-1.6-0.1-1.6-0.1-1.6-0.1-1.6-0.1-1.6-0.2-1.6-0.1-1.6-0.1-1.6-0.2-1.6-0.1-1.7-0.2-1.6-0.1-1.6-0.2-1.6-0.1-1.6-0.2-1.6-0.2-1.6-0.1-1.6-0.2-1.6-0.2-1.6-0.2-1.6-0.2-1.6-0.2-1.6-0.3-1.6-0.2-1.6-0.2-1.6-0.3-1.6-0.2-1.6-0.3-1.6-0.2-1.6-0.3-1.6-0.3-1.6-0.3-1.6-0.3-1.6-0.3-1.7-0.3-1.6-0.4-1.6-0.3-1.6-0.4-1.6-0.4-1.6-0.3-1.6-0.4-1.6-0.5-1.6-0.4-1.6-0.4-1.6-0.5-1.6-0.5-1.7-0.5-1.6-0.5-1.6-0.5-1.6-0.6-1.6-0.6-1.6-0.6-1.6-0.6-1.6-0.6-1.6-0.7-1.6-0.7-1.6-0.8-1.6-0.7-1.7-0.8-1.6-0.9-1.6-0.8-1.6-0.9-1.6-1-1.6-1-1.6-1-1.6-1.1-1.6-1.2-1.6-1.2-1.6-1.3-1.6-1.3-1.7-1.4-1.6-1.5m159.2 35.8h-1.6l-1.7-0.1h-1.6-1.6l-1.6-0.1h-1.6l-1.6-0.1h-1.6l-1.6-0.1h-1.6l-1.6-0.1h-1.6l-1.6-0.1h-1.7l-1.6-0.1-1.6-0.1h-1.6l-1.6-0.1-1.6-0.1-1.6-0.1h-1.6l-1.6-0.1-1.6-0.1-1.6-0.1-1.6-0.1-1.7-0.1-1.6-0.1-1.6-0.1-1.6-0.1-1.6-0.1-1.6-0.1-1.6-0.1-1.6-0.2-1.6-0.1-1.6-0.1-1.6-0.2-1.6-0.1-1.7-0.2-1.6-0.1-1.6-0.2-1.6-0.1-1.6-0.2-1.6-0.2-1.6-0.1-1.6-0.2-1.6-0.2-1.6-0.2-1.6-0.2-1.6-0.2-1.6-0.3-1.6-0.2-1.6-0.2-1.6-0.3-1.6-0.2-1.6-0.3-1.6-0.2-1.6-0.3-1.6-0.3-1.6-0.3-1.6-0.3-1.6-0.3-1.7-0.3-1.6-0.4-1.6-0.3-1.6-0.4-1.6-0.4-1.6-0.3-1.6-0.4-1.6-0.5-1.6-0.4-1.6-0.4-1.6-0.5-1.6-0.5-1.7-0.5-1.6-0.5-1.6-0.5-1.6-0.6-1.6-0.6-1.6-0.6-1.6-0.6-1.6-0.6-1.6-0.7-1.6-0.7-1.6-0.8-1.6-0.7-1.7-0.8-1.6-0.9-1.6-0.8-1.6-0.9-1.6-1-1.6-1-1.6-1-1.6-1.1-1.6-1.2-1.6-1.2-1.6-1.3-1.6-1.3-1.7-1.4-1.6-1.5m159.2 35.8h-1.6l-1.7-0.1h-1.6-1.6l-1.6-0.1h-1.6l-1.6-0.1h-1.6l-1.6-0.1h-1.6l-1.6-0.1h-1.6l-1.6-0.1h-1.7l-1.6-0.1-1.6-0.1h-1.6l-1.6-0.1-1.6-0.1-1.6-0.1h-1.6l-1.6-0.1-1.6-0.1-1.6-0.1-1.6-0.1-1.7-0.1-1.6-0.1-1.6-0.1-1.6-0.1-1.6-0.1-1.6-0.1-1.6-0.1-1.6-0.2-1.6-0.1-1.6-0.1-1.6-0.2-1.6-0.1-1.7-0.2-1.6-0.1-1.6-0.2-1.6-0.1-1.6-0.2-1.6-0.2-1.6-0.1-1.6-0.2-1.6-0.2-1.6-0.2-1.6-0.2-1.6-0.2-1.6-0.3-1.6-0.2-1.6-0.2-1.6-0.3-1.6-0.2-1.6-0.3-1.6-0.2-1.6-0.3-1.6-0.3-1.6-0.3-1.6-0.3-1.6-0.3-1.7-0.3-1.6-0.4-1.6-0.3-1.6-0.4-1.6-0.4-1.6-0.3-1.6-0.4-1.6-0.5-1.6-0.4-1.6-0.4-1.6-0.5-1.6-0.5-1.7-0.5-1.6-0.5-1.6-0.5-1.6-0.6-1.6-0.6-1.6-0.6-1.6-0.6-1.6-0.6-1.6-0.7-1.6-0.7-1.6-0.8-1.6-0.7-1.7-0.8-1.6-0.9-1.6-0.8-1.6-0.9-1.6-1-1.6-1-1.6-1-1.6-1.1-1.6-1.2-1.6-1.2-1.6-1.3-1.6-1.3-1.7-1.4-1.6-1.5m159.2 35.8h-1.6l-1.7-0.1h-1.6-1.6l-1.6-0.1h-1.6l-1.6-0.1h-1.6l-1.6-0.1h-1.6l-1.6-0.1h-1.6l-1.6-0.1h-1.7l-1.6-0.1-1.6-0.1h-1.6l-1.6-0.1-1.6-0.1-1.6-0.1h-1.6l-1.6-0.1-1.6-0.1-1.6-0.1-1.6-0.1-1.7-0.1-1.6-0.1-1.6-0.1-1.6-0.1-1.6-0.1-1.6-0.1-1.6-0.1-1.6-0.2-1.6-0.1-1.6-0.1-1.6-0.2-1.6-0.1-1.7-0.2-1.6-0.1-1.6-0.2-1.6-0.1-1.6-0.2-1.6-0.2-1.6-0.1-1.6-0.2-1.6-0.2-1.6-0.2-1.6-0.2-1.6-0.2-1.6-0.3-1.6-0.2-1.6-0.2-1.6-0.3-1.6-0.2-1.6-0.3-1.6-0.2-1.6-0.3-1.6-0.3-1.6-0.3-1.6-0.3-1.6-0.3-1.7-0.3-1.6-0.4-1.6-0.3-1.6-0.4-1.6-0.4-1.6-0.3-1.6-0.4-1.6-0.5-1.6-0.4-1.6-0.4-1.6-0.5-1.6-0.5-1.7-0.5-1.6-0.5-1.6-0.5-1.6-0.6-1.6-0.6-1.6-0.6-1.6-0.6-1.6-0.6-1.6-0.7-1.6-0.7-1.6-0.8-1.6-0.7-1.7-0.8-1.6-0.9-1.6-0.8-1.6-0.9-1.6-1-1.6-1-1.6-1-1.6-1.1-1.6-1.2-1.6-1.2-1.6-1.3-1.6-1.3-1.7-1.4-1.6-1.5"/>
    <path id="path4576" d="m229.6 212.4h-1.6l-1.7-0.1h-1.6-1.6l-1.6-0.1h-1.6l-1.6-0.1h-1.6l-1.6-0.1h-1.6l-1.6-0.1h-1.6l-1.6-0.1h-1.7l-1.6-0.1-1.6-0.1h-1.6l-1.6-0.1-1.6-0.1-1.6-0.1h-1.6l-1.6-0.1-1.6-0.1-1.6-0.1-1.6-0.1-1.7-0.1-1.6-0.1-1.6-0.1-1.6-0.1-1.6-0.1-1.6-0.1-1.6-0.1-1.6-0.2-1.6-0.1-1.6-0.1-1.6-0.2-1.6-0.1-1.7-0.2-1.6-0.1-1.6-0.2-1.6-0.1-1.6-0.2-1.6-0.2-1.6-0.1-1.6-0.2-1.6-0.2-1.6-0.2-1.6-0.2-1.6-0.2-1.6-0.3-1.6-0.2-1.6-0.2-1.6-0.3-1.6-0.2-1.6-0.3-1.6-0.2-1.6-0.3-1.6-0.3-1.6-0.3-1.6-0.3-1.6-0.3-1.7-0.3-1.6-0.4-1.6-0.3-1.6-0.4-1.6-0.4-1.6-0.3-1.6-0.4-1.6-0.5-1.6-0.4-1.6-0.4-1.6-0.5-1.6-0.5-1.7-0.5-1.6-0.5-1.6-0.5-1.6-0.6-1.6-0.6-1.6-0.6-1.6-0.6-1.6-0.6-1.6-0.7-1.6-0.7-1.6-0.8-1.6-0.7-1.7-0.8-1.6-0.9-1.6-0.8-1.6-0.9-1.6-1-1.6-1-1.6-1-1.6-1.1-1.6-1.2-1.6-1.2-1.6-1.3-1.6-1.3-1.7-1.4-1.6-1.5m159.2 35.8h-1.6l-1.7-0.1h-1.6-1.6l-1.6-0.1h-1.6l-1.6-0.1h-1.6l-1.6-0.1h-1.6l-1.6-0.1h-1.6l-1.6-0.1h-1.7l-1.6-0.1-1.6-0.1h-1.6l-1.6-0.1-1.6-0.1-1.6-0.1h-1.6l-1.6-0.1-1.6-0.1-1.6-0.1-1.6-0.1-1.7-0.1-1.6-0.1-1.6-0.1-1.6-0.1-1.6-0.1-1.6-0.1-1.6-0.1-1.6-0.2-1.6-0.1-1.6-0.1-1.6-0.2-1.6-0.1-1.7-0.2-1.6-0.1-1.6-0.2-1.6-0.1-1.6-0.2-1.6-0.2-1.6-0.1-1.6-0.2-1.6-0.2-1.6-0.2-1.6-0.2-1.6-0.2-1.6-0.3-1.6-0.2-1.6-0.2-1.6-0.3-1.6-0.2-1.6-0.3-1.6-0.2-1.6-0.3-1.6-0.3-1.6-0.3-1.6-0.3-1.6-0.3-1.7-0.3-1.6-0.4-1.6-0.3-1.6-0.4-1.6-0.4-1.6-0.3-1.6-0.4-1.6-0.5-1.6-0.4-1.6-0.4-1.6-0.5-1.6-0.5-1.7-0.5-1.6-0.5-1.6-0.5-1.6-0.6-1.6-0.6-1.6-0.6-1.6-0.6-1.6-0.6-1.6-0.7-1.6-0.7-1.6-0.8-1.6-0.7-1.7-0.8-1.6-0.9-1.6-0.8-1.6-0.9-1.6-1-1.6-1-1.6-1-1.6-1.1-1.6-1.2-1.6-1.2-1.6-1.3-1.6-1.3-1.7-1.4-1.6-1.5m159.2 35.8m-8.4-0.2m-8.4-0.2m-8.4-0.3m-8.4-0.4m-8.3-0.5m-8.4-0.6m-8.4-0.6m-8.4-0.8m-8.4-1m-8.2-1.1m-8.4-1.4m-8.4-1.6m-8.4-1.9m-8.4-2.3m-8.3-2.9m-8.4-3.4m-8.4-4.3m-8.4-5.3m-8.4-7"/>
   </g>
  </g>
  <g id="g4578" font-size="12" transform="translate(234.1,212.4)" font-family="Arial">
   <text id="text4580"/>
  </g>
  <g stroke="currentColor" fill="none">
   <g id="g4582" color="black">
    <use id="use4584" color="rgb(  0, 158, 115)" xlink:href="#gpPt6" transform="translate(229.6,212.4) scale(3.38)"/>
   </g>
   <g id="g4586" color="black">
    <g id="g4588" font-size="12" transform="translate(74.9,176.6)" stroke="none" font-family="Arial" fill="#000">
     <text id="text4590"/>
    </g>
   </g>
   <g id="g4592" color="black">
    <use id="use4594" color="rgb(  0, 158, 115)" xlink:href="#gpPt6" transform="translate(70.4,176.6) scale(3.38)"/>
   </g>
  </g>
 </g>
 <g id="content" xml:space="preserve" stroke="#000" stroke-width="0" fill-rule="evenodd" ns0:pdfconverter="pstoedit" transform="matrix(1.75 0 0 -1.75 -225.93 1403.7)" stroke-miterlimit="10.433" ns0:text="$(P_1,V_1,T_1)$" ns0:version="0.7.2" ns0:inkscapeversion="0.91" ns0:preamble="/usr/share/inkscape/extensions/default_packages.tex" ns0:scale="1.4" ns0:texconverter="pdflatex"><path id="path4702" d="m151.65 713.86-0.07-0.05-0.06-0.04-0.07-0.04-0.06-0.04-0.06-0.04-0.05-0.04-0.06-0.04-0.05-0.04-0.05-0.03-0.05-0.04-0.05-0.04-0.04-0.03-0.05-0.04-0.04-0.03-0.08-0.07-0.08-0.07-0.07-0.06-0.08-0.07-0.06-0.08-0.07-0.07-0.07-0.07-0.07-0.08-0.07-0.09c-0.7-0.87-1.05-1.86-1.05-3.03 0-1.26 0.37-2.24 1.24-3.25 0.41-0.48 0.67-0.7 1.19-1.02l0.12 0.16c-0.8 0.63-1.08 0.97-1.35 1.72-0.24 0.67-0.35 1.43-0.35 2.42 0 1.05 0.13 1.87 0.4 2.48 0.28 0.62 0.58 0.98 1.3 1.56z"/><path id="path4704" d="m153.74 713.47h0.02l0.03-0.01h0.05l0.04-0.01 0.05-0.01 0.04-0.01h0.04l0.04-0.01 0.03-0.01 0.04-0.01 0.03-0.01 0.03-0.01 0.03-0.01 0.02-0.01 0.03-0.01 0.02-0.01 0.02-0.01 0.02-0.01 0.02-0.01 0.01-0.02 0.02-0.01 0.01-0.02 0.01-0.01 0.01-0.02 0.01-0.02 0.01-0.01 0.01-0.02v-0.02-0.02l0.01-0.02v-0.02-0.03-0.02c0-0.14-0.04-0.35-0.17-0.8l-1.17-4.23c-0.18-0.6-0.25-0.66-0.82-0.74v-0.16h2.44v0.16c-0.63 0.09-0.68 0.12-0.68 0.46 0 0.12 0.02 0.22 0.12 0.58l0.53 1.92 0.09 0.34 0.71 2.47c0.06 0.21 0.18 0.28 0.46 0.28 0.39 0 0.76-0.1 0.96-0.24 0.26-0.18 0.37-0.48 0.37-0.95 0-0.64-0.23-1.1-0.67-1.36-0.31-0.17-0.69-0.25-1.31-0.25-0.17 0-0.25 0.01-0.52 0.05l-0.09-0.34c0.25-0.06 0.51-0.08 0.92-0.08 0.81 0 1.48 0.17 1.91 0.48 0.5 0.37 0.79 0.92 0.79 1.5 0 0.96-0.75 1.49-2.1 1.49h-2.47z"/><path id="path4706" d="m160.39 710.34-1.25-0.63v-0.1c0.08 0.04 0.16 0.06 0.18 0.08 0.13 0.05 0.25 0.08 0.32 0.08 0.15 0 0.21-0.11 0.21-0.33v-3.16c0-0.23-0.06-0.39-0.17-0.45-0.1-0.07-0.2-0.09-0.5-0.1v-0.1h1.93v0.1c-0.55 0.01-0.66 0.08-0.66 0.42v4.18z"/><path id="path4708" d="m164.29 707.18v0.04 0.04 0.03 0.04l-0.01 0.03v0.04 0.03l-0.01 0.03-0.01 0.03v0.03l-0.01 0.03-0.01 0.03-0.01 0.02-0.01 0.03-0.01 0.03-0.01 0.02-0.01 0.02-0.01 0.03-0.03 0.04-0.02 0.04-0.03 0.04-0.03 0.03-0.03 0.03-0.03 0.03-0.03 0.03-0.04 0.02-0.03 0.03-0.03 0.02-0.04 0.01-0.03 0.02-0.03 0.01-0.04 0.02-0.03 0.01h-0.03l-0.03 0.01-0.03 0.01h-0.03l-0.03 0.01h-0.03-0.02-0.02c-0.25 0-0.58-0.15-0.58-0.58 0-0.4 0.36-0.5 0.62-0.5 0.07 0 0.12 0.01 0.15 0.02 0.04 0.01 0.07 0.02 0.09 0.02 0.07 0 0.14-0.05 0.14-0.14 0-0.19-0.16-0.63-0.82-1.05l0.09-0.19c0.3 0.1 1.11 0.75 1.11 1.46z"/><path id="path4710" d="m173.35 713.63h-1.85v-0.16c0.45-0.05 0.63-0.15 0.63-0.34s-0.19-0.62-0.52-1.19l-2.05-3.54-0.66 4.41c-0.01 0.05-0.01 0.09-0.01 0.15 0 0.34 0.14 0.44 0.77 0.51v0.16h-2.4v-0.16c0.56-0.07 0.58-0.1 0.78-1.35l0.85-5.18h0.19l3.72 6.13c0.17 0.27 0.32 0.39 0.55 0.4z"/><path id="path4712" d="m174.62 710.34-1.26-0.63v-0.1c0.09 0.04 0.16 0.06 0.19 0.08 0.13 0.05 0.25 0.08 0.32 0.08 0.14 0 0.2-0.11 0.2-0.33v-3.16c0-0.23-0.05-0.39-0.16-0.45-0.11-0.07-0.2-0.09-0.5-0.1v-0.1h1.93v0.1c-0.55 0.01-0.66 0.08-0.66 0.42v4.18z"/><path id="path4714" d="m178.51 707.18v0.04 0.04 0.03 0.04l-0.01 0.03v0.04 0.03l-0.01 0.03-0.01 0.03v0.03l-0.01 0.03-0.01 0.03-0.01 0.02-0.01 0.03-0.01 0.03-0.01 0.02-0.01 0.02-0.01 0.03-0.03 0.04-0.02 0.04-0.03 0.04-0.03 0.03-0.03 0.03-0.03 0.03-0.03 0.03-0.04 0.02-0.03 0.03-0.03 0.02-0.04 0.01-0.03 0.02-0.03 0.01-0.04 0.02-0.03 0.01h-0.03l-0.03 0.01-0.03 0.01h-0.03l-0.03 0.01h-0.03-0.02-0.02c-0.25 0-0.58-0.15-0.58-0.58 0-0.4 0.36-0.5 0.62-0.5 0.07 0 0.12 0.01 0.15 0.02 0.04 0.01 0.07 0.02 0.09 0.02 0.07 0 0.14-0.05 0.14-0.14 0-0.19-0.16-0.63-0.82-1.05l0.09-0.19c0.3 0.1 1.11 0.75 1.11 1.46z"/><path id="path4716" d="m187.03 713.63h-5.3l-0.41-1.54 0.17-0.04c0.53 1.08 0.85 1.25 2.38 1.23l-1.44-5.26c-0.16-0.53-0.4-0.69-1.05-0.74v-0.16h2.88v0.16c-0.16 0.01-0.31 0.03-0.37 0.03-0.4 0.03-0.52 0.12-0.52 0.42 0 0.13 0.03 0.25 0.12 0.59l1.38 4.96h0.55c0.72 0 1.04-0.25 1.04-0.81 0-0.13-0.01-0.28-0.03-0.45l0.17-0.02z"/><path id="path4718" d="m188.7 710.34-1.25-0.63v-0.1c0.08 0.04 0.16 0.06 0.19 0.08 0.12 0.05 0.24 0.08 0.31 0.08 0.15 0 0.21-0.11 0.21-0.33v-3.16c0-0.23-0.06-0.39-0.17-0.45-0.1-0.07-0.2-0.09-0.49-0.1v-0.1h1.92v0.1c-0.55 0.01-0.66 0.08-0.66 0.42v4.18z"/><path id="path4720" d="m191.04 705.36 0.06 0.04 0.07 0.05 0.06 0.04 0.06 0.04 0.06 0.04 0.06 0.04 0.05 0.04 0.05 0.03 0.06 0.04 0.04 0.04 0.05 0.03 0.05 0.04 0.04 0.03 0.04 0.04 0.09 0.06 0.07 0.07 0.08 0.07 0.07 0.07 0.07 0.07 0.07 0.08 0.06 0.07 0.07 0.08 0.07 0.08c0.71 0.87 1.06 1.87 1.06 3.03 0 1.28-0.37 2.25-1.25 3.26-0.41 0.48-0.67 0.7-1.18 1.02l-0.12-0.16c0.79-0.63 1.06-0.98 1.34-1.73 0.24-0.66 0.35-1.42 0.35-2.42 0-1.03-0.13-1.86-0.4-2.47-0.28-0.62-0.58-0.98-1.29-1.56z"/></g>
 <g id="g4936" xml:space="preserve" stroke="#000" stroke-width="0" fill-rule="evenodd" ns0:pdfconverter="pstoedit" transform="matrix(1.75 0 0 -1.75 -83.137 1469.5)" stroke-miterlimit="10.433" ns0:text="$(P_2,V_2,T_2)$" ns0:version="0.7.2" ns0:inkscapeversion="0.91" ns0:preamble="/usr/share/inkscape/extensions/default_packages.tex" ns0:scale="1.4" ns0:texconverter="pdflatex"><path id="path4938" d="m151.65 713.86-0.07-0.05-0.06-0.04-0.07-0.04-0.06-0.04-0.06-0.04-0.05-0.04-0.06-0.04-0.05-0.04-0.05-0.03-0.05-0.04-0.05-0.04-0.04-0.03-0.05-0.04-0.04-0.03-0.08-0.07-0.08-0.07-0.07-0.06-0.08-0.07-0.06-0.08-0.07-0.07-0.07-0.07-0.07-0.08-0.07-0.09c-0.7-0.87-1.05-1.86-1.05-3.03 0-1.26 0.37-2.24 1.24-3.25 0.41-0.48 0.67-0.7 1.19-1.02l0.12 0.16c-0.8 0.63-1.08 0.97-1.35 1.72-0.24 0.67-0.35 1.43-0.35 2.42 0 1.05 0.13 1.87 0.4 2.48 0.28 0.62 0.58 0.98 1.3 1.56z"/><path id="path4940" d="m153.74 713.47h0.02l0.03-0.01h0.05l0.04-0.01 0.05-0.01 0.04-0.01h0.04l0.04-0.01 0.03-0.01 0.04-0.01 0.03-0.01 0.03-0.01 0.03-0.01 0.02-0.01 0.03-0.01 0.02-0.01 0.02-0.01 0.02-0.01 0.02-0.01 0.01-0.02 0.02-0.01 0.01-0.02 0.01-0.01 0.01-0.02 0.01-0.02 0.01-0.01 0.01-0.02v-0.02-0.02l0.01-0.02v-0.02-0.03-0.02c0-0.14-0.04-0.35-0.17-0.8l-1.17-4.23c-0.18-0.6-0.25-0.66-0.82-0.74v-0.16h2.44v0.16c-0.63 0.09-0.68 0.12-0.68 0.46 0 0.12 0.02 0.22 0.12 0.58l0.53 1.92 0.09 0.34 0.71 2.47c0.06 0.21 0.18 0.28 0.46 0.28 0.39 0 0.76-0.1 0.96-0.24 0.26-0.18 0.37-0.48 0.37-0.95 0-0.64-0.23-1.1-0.67-1.36-0.31-0.17-0.69-0.25-1.31-0.25-0.17 0-0.25 0.01-0.52 0.05l-0.09-0.34c0.25-0.06 0.51-0.08 0.92-0.08 0.81 0 1.48 0.17 1.91 0.48 0.5 0.37 0.79 0.92 0.79 1.5 0 0.96-0.75 1.49-2.1 1.49h-2.47z"/><path id="path4942" d="m161.68 706.59-0.1 0.03c-0.25-0.4-0.34-0.46-0.66-0.46h-1.66l1.17 1.23c0.62 0.65 0.89 1.18 0.89 1.72 0 0.7-0.56 1.23-1.29 1.23-0.38 0-0.75-0.15-1.01-0.43-0.22-0.24-0.32-0.46-0.44-0.95l0.15-0.04c0.27 0.68 0.53 0.91 1.01 0.91 0.58 0 0.98-0.4 0.98-0.99 0-0.54-0.32-1.19-0.91-1.81l-1.24-1.32v-0.08h2.72z"/><path id="path4944" d="m164.29 707.18v0.04 0.04 0.03 0.04l-0.01 0.03v0.04 0.03l-0.01 0.03-0.01 0.03v0.03l-0.01 0.03-0.01 0.03-0.01 0.02-0.01 0.03-0.01 0.03-0.01 0.02-0.01 0.02-0.01 0.03-0.03 0.04-0.02 0.04-0.03 0.04-0.03 0.03-0.03 0.03-0.03 0.03-0.03 0.03-0.04 0.02-0.03 0.03-0.03 0.02-0.04 0.01-0.03 0.02-0.03 0.01-0.04 0.02-0.03 0.01h-0.03l-0.03 0.01-0.03 0.01h-0.03l-0.03 0.01h-0.03-0.02-0.02c-0.25 0-0.58-0.15-0.58-0.58 0-0.4 0.36-0.5 0.62-0.5 0.07 0 0.12 0.01 0.15 0.02 0.04 0.01 0.07 0.02 0.09 0.02 0.07 0 0.14-0.05 0.14-0.14 0-0.19-0.16-0.63-0.82-1.05l0.09-0.19c0.3 0.1 1.11 0.75 1.11 1.46z"/><path id="path4946" d="m173.35 713.63h-1.85v-0.16c0.45-0.05 0.63-0.15 0.63-0.34s-0.19-0.62-0.52-1.19l-2.05-3.54-0.66 4.41c-0.01 0.05-0.01 0.09-0.01 0.15 0 0.34 0.14 0.44 0.77 0.51v0.16h-2.4v-0.16c0.56-0.07 0.58-0.1 0.78-1.35l0.85-5.18h0.19l3.72 6.13c0.17 0.27 0.32 0.39 0.55 0.4z"/><path id="path4948" d="m175.9 706.59-0.09 0.03c-0.26-0.4-0.35-0.46-0.66-0.46h-1.67l1.17 1.23c0.62 0.65 0.9 1.18 0.9 1.72 0 0.7-0.57 1.23-1.29 1.23-0.39 0-0.75-0.15-1.01-0.43-0.22-0.24-0.32-0.46-0.44-0.95l0.14-0.04c0.28 0.68 0.53 0.91 1.01 0.91 0.59 0 0.99-0.4 0.99-0.99 0-0.54-0.32-1.19-0.91-1.81l-1.24-1.32v-0.08h2.72z"/><path id="path4950" d="m178.51 707.18v0.04 0.04 0.03 0.04l-0.01 0.03v0.04 0.03l-0.01 0.03-0.01 0.03v0.03l-0.01 0.03-0.01 0.03-0.01 0.02-0.01 0.03-0.01 0.03-0.01 0.02-0.01 0.02-0.01 0.03-0.03 0.04-0.02 0.04-0.03 0.04-0.03 0.03-0.03 0.03-0.03 0.03-0.03 0.03-0.04 0.02-0.03 0.03-0.03 0.02-0.04 0.01-0.03 0.02-0.03 0.01-0.04 0.02-0.03 0.01h-0.03l-0.03 0.01-0.03 0.01h-0.03l-0.03 0.01h-0.03-0.02-0.02c-0.25 0-0.58-0.15-0.58-0.58 0-0.4 0.36-0.5 0.62-0.5 0.07 0 0.12 0.01 0.15 0.02 0.04 0.01 0.07 0.02 0.09 0.02 0.07 0 0.14-0.05 0.14-0.14 0-0.19-0.16-0.63-0.82-1.05l0.09-0.19c0.3 0.1 1.11 0.75 1.11 1.46z"/><path id="path4952" d="m187.03 713.63h-5.3l-0.41-1.54 0.17-0.04c0.53 1.08 0.85 1.25 2.38 1.23l-1.44-5.26c-0.16-0.53-0.4-0.69-1.05-0.74v-0.16h2.88v0.16c-0.16 0.01-0.31 0.03-0.37 0.03-0.4 0.03-0.52 0.12-0.52 0.42 0 0.13 0.03 0.25 0.12 0.59l1.38 4.96h0.55c0.72 0 1.04-0.25 1.04-0.81 0-0.13-0.01-0.28-0.03-0.45l0.17-0.02z"/><path id="path4954" d="m189.99 706.59-0.09 0.03c-0.26-0.4-0.35-0.46-0.67-0.46h-1.66l1.17 1.23c0.62 0.65 0.89 1.18 0.89 1.72 0 0.7-0.56 1.23-1.29 1.23-0.38 0-0.74-0.15-1-0.43-0.23-0.24-0.33-0.46-0.45-0.95l0.15-0.04c0.28 0.68 0.53 0.91 1.01 0.91 0.58 0 0.98-0.4 0.98-0.99 0-0.54-0.32-1.19-0.9-1.81l-1.25-1.32v-0.08h2.72z"/><path id="path4956" d="m191.04 705.36 0.06 0.04 0.07 0.05 0.06 0.04 0.06 0.04 0.06 0.04 0.06 0.04 0.05 0.04 0.05 0.03 0.06 0.04 0.04 0.04 0.05 0.03 0.05 0.04 0.04 0.03 0.04 0.04 0.09 0.06 0.07 0.07 0.08 0.07 0.07 0.07 0.07 0.07 0.07 0.08 0.06 0.07 0.07 0.08 0.07 0.08c0.71 0.87 1.06 1.87 1.06 3.03 0 1.28-0.37 2.25-1.25 3.26-0.41 0.48-0.67 0.7-1.18 1.02l-0.12-0.16c0.79-0.63 1.06-0.98 1.34-1.73 0.24-0.66 0.35-1.42 0.35-2.42 0-1.03-0.13-1.86-0.4-2.47-0.28-0.62-0.58-0.98-1.29-1.56z"/></g>
</svg>
