<?xml version="1.0" encoding="UTF-8" standalone="no"?>
<!-- Created with Inkscape (http://www.inkscape.org/) -->
<svg id="svg2" xmlns:rdf="http://www.w3.org/1999/02/22-rdf-syntax-ns#" xmlns="http://www.w3.org/2000/svg" xmlns:ns0="http://www.iki.fi/pav/software/textext/" height="138.04" width="374.45" version="1.1" xmlns:cc="http://creativecommons.org/ns#" viewBox="0 0 374.44956 138.04273" xmlns:dc="http://purl.org/dc/elements/1.1/">
 <metadata id="metadata7">
  <rdf:RDF>
   <cc:Work rdf:about="">
    <dc:format>image/svg+xml</dc:format>
    <dc:type rdf:resource="http://purl.org/dc/dcmitype/StillImage"/>
    <dc:title/>
   </cc:Work>
  </rdf:RDF>
 </metadata>
 <g id="layer1" transform="translate(-84.807 -210.84)">
  <g id="g4713" fill-rule="evenodd">
   <path id="path4203" style="color-rendering:auto;text-decoration-color:#000000;color:#000000;isolation:auto;mix-blend-mode:normal;shape-rendering:auto;solid-color:#000000;block-progression:tb;text-decoration-line:none;text-decoration-style:solid;image-rendering:auto;white-space:normal;text-indent:0;text-transform:none" d="m217.87 239.5c-8.3145-0.48732-17.663 0.19007-27.971 2.3711-0.17856 0.0378-0.87203 0.0575-1.8398 0.0137-0.96781-0.0438-2.2515-0.13395-3.7969-0.25195-3.0907-0.23601-7.2308-0.58146-12.039-0.88868-9.6165-0.61442-21.907-1.0727-33.873-0.16797-11.966 0.90475-23.61 3.1596-31.961 8.043-8.3512 4.8834-13.382 12.511-11.883 23.807 1.74 13.108 7.4372 21.605 15.676 26.873 8.2386 5.268 18.968 7.3289 30.822 7.7871 23.708 0.91636 51.991-4.582 73.99-4.2266 19.406 0.31353 32.768-4.3799 40.594-11.42 7.8253-7.0401 10.054-16.449 7.1777-25.283-4.315-13.252-19.953-25.194-44.896-26.656zm-0.0762 0.99805c24.625 1.4428 39.873 13.226 44.021 25.967 2.7658 8.4942 0.67176 17.422-6.8965 24.23-7.5682 6.8088-20.671 11.475-39.908 11.164-22.178-0.35832-50.444 5.1377-73.967 4.2285-11.761-0.45459-22.317-2.5118-30.322-7.6309-8.0056-5.119-13.513-13.278-15.223-26.162-1.454-10.954 3.2805-18.067 11.396-22.812 8.116-4.7459 19.642-7.0093 31.531-7.9082 11.889-0.89895 24.139-0.44501 33.732 0.16797 4.7969 0.30649 8.9301 0.65216 12.027 0.88867 1.5486 0.11826 2.8384 0.20912 3.8281 0.25391 0.98978 0.0448 1.6371 0.061 2.0918-0.0352 10.229-2.1644 19.479-2.8325 27.688-2.3516z"/>
   <g stroke="#000" stroke-width=".8pt">
    <path id="path4719" d="m95.607 276.94-4.8758-6.3335 7.9304-1.0527-3.0547 7.3862z"/>
    <path id="path4721" d="m219.62 302.44-6.9837 3.8877 0.12924-7.999 6.8545 4.1113z"/>
    <path id="path4723" d="m191.69 246.36-6.6266-4.4692 7.192-3.5036-0.56533 7.9729z"/>
   </g>
  </g>
  <g id="content" xml:space="preserve" stroke="#000" fill-rule="evenodd" ns0:pdfconverter="pstoedit" transform="matrix(1.75 0 0 -1.75 -56.615 1566.5)" stroke-miterlimit="10.433" ns0:text="\\underline{\\underline{S\\\&apos;i}}" ns0:version="0.7.2" ns0:inkscapeversion="0.91" ns0:preamble="/usr/share/inkscape/extensions/default_packages.tex" ns0:scale="1.4" ns0:texconverter="pdflatex"><g stroke-width="0"><path id="path4883" d="m153.16 713.86h-0.21c-0.04-0.23-0.15-0.34-0.32-0.34-0.09 0-0.26 0.04-0.43 0.12-0.37 0.14-0.74 0.22-1.06 0.22-0.43 0-0.87-0.17-1.19-0.46-0.35-0.31-0.53-0.73-0.53-1.25 0-0.79 0.44-1.35 1.55-1.94 0.72-0.38 1.24-0.79 1.49-1.17 0.09-0.12 0.14-0.33 0.14-0.57 0-0.67-0.5-1.13-1.23-1.13-0.89 0-1.51 0.55-2.01 1.76h-0.23l0.3-2.11h0.22c0.01 0.19 0.13 0.33 0.28 0.33 0.11 0 0.27-0.04 0.46-0.11 0.38-0.15 0.78-0.23 1.18-0.23 1.14 0 2.03 0.79 2.03 1.82 0 0.81-0.55 1.46-1.86 2.17-1.05 0.58-1.47 1.01-1.47 1.55 0 0.55 0.42 0.93 1.04 0.93 0.45 0 0.87-0.19 1.22-0.55 0.31-0.32 0.44-0.58 0.6-1.17h0.25z"/><path id="path4885" d="m155.3 712.23 1.53 0.96c0.21 0.13 0.3 0.26 0.3 0.42 0 0.2-0.13 0.32-0.35 0.32-0.15 0-0.24-0.05-0.41-0.23l-1.47-1.47z"/><path id="path4887" d="m156 711.71-1.55-0.55v-0.15l0.08 0.01c0.12 0.02 0.25 0.03 0.34 0.03 0.24 0 0.33-0.16 0.33-0.6v-2.31c0-0.72-0.1-0.83-0.79-0.87v-0.15h2.36v0.15c-0.65 0.05-0.73 0.15-0.73 0.87v3.53z"/></g><line id="line4889" stroke-width="0.558" y2="705.04" x2="157.02" y1="705.04" x1="148.71"/><line id="line4891" stroke-width="0.558" y2="702.25" x2="157.02" y1="702.25" x1="148.71"/></g>
  <path id="path4919" d="m289.28 342.36v-125" stroke="#f00" stroke-linecap="round" stroke-width="3" fill="none"/>
  <g stroke="#000">
   <path id="path4921" d="m315 237.36c22.519 33.964 51.336-24.469 90-5" stroke-width="1px" fill="none"/>
   <g>
    <g id="g4951" xml:space="preserve" fill-rule="evenodd" ns0:pdfconverter="pstoedit" transform="matrix(1.75 0 0 -1.75 172.7 1494.4)" stroke-miterlimit="10.433" ns0:text="\\underline{\\underline{\\text{No}}}" ns0:version="0.7.2" ns0:inkscapeversion="0.91" ns0:preamble="/usr/share/inkscape/extensions/default_packages.tex" ns0:scale="1.4" ns0:texconverter="pdflatex"><path id="path4953" stroke-width="0" d="m154.81 707.01v5.24c0 0.6 0.1 0.97 0.29 1.1 0.14 0.1 0.28 0.14 0.65 0.18v0.19h-2.34v-0.19c0.38-0.03 0.52-0.07 0.67-0.16 0.2-0.14 0.29-0.5 0.29-1.12v-3.35l-3.84 4.82h-1.7v-0.19c0.43 0 0.57-0.08 0.97-0.55v-4.39c0-1.03-0.14-1.22-0.97-1.28v-0.19h2.34v0.19c-0.77 0.04-0.94 0.27-0.94 1.28v3.9l4.41-5.48z"/><path id="path4955" stroke-width="0" d="m158.39 711.71-0.12-0.01-0.12-0.01-0.11-0.01-0.11-0.02-0.11-0.02-0.11-0.03-0.11-0.04-0.1-0.04-0.1-0.04-0.09-0.05-0.09-0.05-0.09-0.06-0.09-0.06-0.08-0.07-0.08-0.07-0.07-0.07-0.07-0.08-0.07-0.09-0.06-0.08-0.06-0.09-0.06-0.1-0.05-0.1-0.05-0.1-0.04-0.1-0.03-0.11-0.04-0.11-0.02-0.11-0.03-0.12-0.02-0.12-0.01-0.12-0.01-0.13v-0.13c0-1.34 0.93-2.35 2.18-2.35l0.12 0.28c-0.39 0-0.75 0.24-0.96 0.64-0.28 0.52-0.44 1.22-0.44 1.92 0 0.95 0.47 1.57 1.17 1.57 0.84 0 1.43-0.96 1.43-2.33 0-1.12-0.45-1.8-1.2-1.8l-0.12-0.28c1.26 0 2.22 1.06 2.22 2.43 0 1.31-0.92 2.26-2.2 2.26z"/><line id="line4957" stroke-width="0.558" y2="705.07" y1="705.07" x2="160.89" x1="148.71"/><line id="line4959" stroke-width="0.558" y2="702.28" y1="702.28" x2="160.89" x1="148.71"/></g>
    <g>
     <path id="path4994" d="m383.94 300.5c-4.0217 8.6457-11.173 15.169-26.19 15.169-15.016 0-29.19-6.7914-29.19-15.169s14.173-15.169 29.19-15.169c18.461 0 22.972 5.7189 26.19 15.169z" stroke-linecap="round" fill="none"/>
     <path id="ellipse4996" d="m438.32 300.5c0 10.411-14.173 18.85-29.19 18.85-15.016 0-22.742-9.7143-25.19-18.85 2.7659-10.322 10.173-18.85 25.19-18.85 15.016 0 29.19 8.4394 29.19 18.85z" stroke-linecap="round" fill="none"/>
     <circle id="path4297" cx="315" cy="237.36" r="2"/>
     <circle id="circle4299" cy="232.36" cx="405" r="2"/>
    </g>
   </g>
  </g>
 </g>
</svg>
