<?xml version="1.0" encoding="UTF-8" standalone="no"?>
<!-- Created with Inkscape (http://www.inkscape.org/) -->
<svg id="svg2" xmlns:rdf="http://www.w3.org/1999/02/22-rdf-syntax-ns#" xmlns="http://www.w3.org/2000/svg" height="200.35" width="200.35" version="1.1" xmlns:cc="http://creativecommons.org/ns#" xmlns:xlink="http://www.w3.org/1999/xlink" viewBox="0 0 200.35355 200.35355" xmlns:dc="http://purl.org/dc/elements/1.1/">
 <style type="text/css">
	@import url('../estilo.css');
 </style>
 <defs id="defs4">
  <marker id="marker4439" refY="0" refX="0" orient="auto" overflow="visible">
   <path id="path4441" stroke-linejoin="round" d="m8.7186 4.0337-10.926-4.0177 10.926-4.0177c-1.7455 2.3721-1.7354 5.6175-6e-7 8.0354z" fill-rule="evenodd" transform="scale(-.6)" stroke="#000" stroke-width=".625"/>
  </marker>
  <marker id="Arrow2Mend" refY="0" refX="0" orient="auto" overflow="visible">
   <path id="path4184" stroke-linejoin="round" d="m8.7186 4.0337-10.926-4.0177 10.926-4.0177c-1.7455 2.3721-1.7354 5.6175-6e-7 8.0354z" fill-rule="evenodd" transform="scale(-.6)" stroke="#000" stroke-width=".625"/>
  </marker>
  <radialGradient id="radialGradient4260" gradientUnits="userSpaceOnUse" cy="379.91" cx="259.7" gradientTransform="matrix(1.1551 -0.251 .97886 4.5048 -391.52 -1234)" r="36.028">
   <stop id="stop4256" stop-color="#ececec" stop-opacity=".74928" offset="0"/>
   <stop id="stop4258" stop-color="#ececec" stop-opacity="0" offset="1"/>
  </radialGradient>
 </defs>
 <metadata id="metadata7">
  <rdf:RDF>
   <cc:Work rdf:about="">
    <dc:format>image/svg+xml</dc:format>
    <dc:type rdf:resource="http://purl.org/dc/dcmitype/StillImage"/>
    <dc:title/>
   </cc:Work>
  </rdf:RDF>
 </metadata>
 <g id="layer1" transform="translate(-154.65 -257.36)">
  <g fill="none">
   <path id="path4243" d="m210 262.36v140l-50 50" stroke="#000" stroke-width="1px"/>
   <path id="path4245" d="m210 402.36h140" stroke="#000" stroke-width="1px"/>
   <path id="path4247" d="m250 412.36c-1.3876-25.954 35.96-26.717 55-15" stroke="#f00" stroke-dasharray="3, 3"/>
  </g>
  <g>
   <path id="rect4251" d="m240 312.36c-6.703-12.448 30-30 35-10 7.3764 29.506 5.9884 64.125 30 95 23.974 30.826-41.132 35.801-55 15-10-15 25-35-10-100z" stroke="#000" fill="url(#radialGradient4260)"/>
   <path id="path4249" d="m250 412.36c19.957 23.788 78.344 11.656 55-15" stroke="#f00" stroke-width="2" fill="none"/>
   <path id="path4151" marker-end="url(#Arrow2Mend)" d="m300 312.36-30 30" stroke="#000" stroke-width="1px" fill="none"/>
  </g>
  <text id="text4433" style="word-spacing:0px;letter-spacing:0px" xml:space="preserve" font-size="16px" line-height="125%" y="309.36221" x="302" font-family="&apos;STIX Two Text&apos;" fill="#000000"><tspan id="tspan4435" x="302" y="309.36221">S</tspan></text>
  <path id="path4437" marker-end="url(#marker4439)" d="m310 437.36-11-11" stroke="#000" stroke-width="1px" fill="none"/>
  <text id="text4607" style="word-spacing:0px;letter-spacing:0px" xml:space="preserve" font-size="16px" line-height="125%" y="445.36221" x="312" font-family="&apos;STIX Two Text&apos;" fill="#000000"><tspan id="tspan4609" x="312" y="445.36221">C</tspan></text>
 </g>
</svg>
