<?xml version="1.0" encoding="UTF-8" standalone="no"?>
<!-- Created with Inkscape (http://www.inkscape.org/) -->
<svg id="svg2" xmlns:rdf="http://www.w3.org/1999/02/22-rdf-syntax-ns#" xmlns="http://www.w3.org/2000/svg" xmlns:ns0="http://www.iki.fi/pav/software/textext/" height="211.25" width="529.98" version="1.1" xmlns:cc="http://creativecommons.org/ns#" xmlns:xlink="http://www.w3.org/1999/xlink" viewBox="0 0 529.98493 211.24633" xmlns:dc="http://purl.org/dc/elements/1.1/">
 <style type="text/css">
	@import url('../estilo.css');
 </style>
 <defs id="defs4">
  <marker id="TriangleOutL" refY="0" refX="0" orient="auto" overflow="visible">
   <path id="path4411" d="m5.77 0-8.65 5v-10l8.65 5z" fill-rule="evenodd" transform="scale(.8)" stroke="#000" stroke-width="1pt"/>
  </marker>
  <marker id="marker5057" refY="0" refX="0" overflow="visible" orient="auto">
   <path id="path5059" stroke-linejoin="round" d="m8.7186 4.0337-10.926-4.0177 10.926-4.0177c-1.7455 2.3721-1.7354 5.6175-6e-7 8.0354z" fill-rule="evenodd" transform="scale(-.6)" stroke="#000" stroke-width=".625"/>
  </marker>
  <marker id="marker5047" refY="0" refX="0" overflow="visible" orient="auto">
   <path id="path5049" stroke-linejoin="round" d="m8.7186 4.0337-10.926-4.0177 10.926-4.0177c-1.7455 2.3721-1.7354 5.6175-6e-7 8.0354z" fill-rule="evenodd" transform="scale(-.6)" stroke="#00f" stroke-width=".625" fill="#00f"/>
  </marker>
  <marker id="Arrow2Mend" refY="0" refX="0" orient="auto" overflow="visible">
   <path id="path4296" stroke-linejoin="round" d="m8.7186 4.0337-10.926-4.0177 10.926-4.0177c-1.7455 2.3721-1.7354 5.6175-6e-7 8.0354z" fill-rule="evenodd" transform="scale(-.6)" stroke="#000" stroke-width=".625"/>
  </marker>
  <radialGradient id="radialGradient4226" gradientUnits="userSpaceOnUse" cy="394.98" cx="565.49" gradientTransform="matrix(1 0 0 .37142 0 248.28)" r="55.372">
   <stop id="stop4222" stop-color="#ececec" stop-opacity="0" offset="0"/>
   <stop id="stop4224" stop-color="#ececec" offset="1"/>
  </radialGradient>
  <radialGradient id="radialGradient4234" gradientUnits="userSpaceOnUse" cy="330.52" cx="257.64" gradientTransform="matrix(1 0 0 1.0975 0 -32.237)" r="68.54">
   <stop id="stop4230" stop-color="#ececec" stop-opacity="0" offset="0"/>
   <stop id="stop4232" stop-color="#ececec" offset="1"/>
  </radialGradient>
 </defs>
 <metadata id="metadata7">
  <rdf:RDF>
   <cc:Work rdf:about="">
    <dc:format>image/svg+xml</dc:format>
    <dc:type rdf:resource="http://purl.org/dc/dcmitype/StillImage"/>
    <dc:title/>
   </cc:Work>
  </rdf:RDF>
 </metadata>
 <g id="layer1" transform="translate(-95.877 -245.36)">
  <path id="path4211" d="m197.83 341.51c52.831-49.634 81.71-8.2481 119.44-0.49132" stroke="#000" stroke-dasharray="3, 3" fill="none"/>
  <text id="text5103" style="word-spacing:0px;letter-spacing:0px" xml:space="preserve" font-size="16px" line-height="125%" y="291.36221" x="231.29057" font-family="&apos;STIX Two Text&apos;" fill="#000000"><tspan id="tspan5105" x="231.29057" y="291.36221">Interior</tspan></text>
  <path id="rect4206" d="m240 257.36c16.177-2.8436 22.851-1.1844 35 0 27.569 2.6876 55.432 17.838 50 45l-10 50c-5.4324 27.162-20 45-40 50-10.536 2.6339-21.155 4.9013-35 0-26.112-9.244-34.568-22.838-40-50l-10-50c-4-20 22.718-40.204 50-45z" stroke="#000" fill="url(#radialGradient4234)"/>
  <g stroke="#000" stroke-width="1px" fill="none">
   <path id="path4209" d="m197.83 341.51c11.818 13.713 101.45-18.921 119.44-0.49132"/>
   <path id="path4259" marker-end="url(#marker5057)" d="m233 374.36 27 5"/>
   <path id="path4261" marker-end="url(#Arrow2Mend)" d="m233 374.36 15 23"/>
  </g>
  <path id="path4263" marker-end="url(#marker5047)" d="m233 374.36-18 32" fill-rule="evenodd" stroke="#00f" stroke-width="1px" fill="#00f"/>
  <circle id="path4257" cx="233" stroke="#000" cy="374.36" r="2"/>
  <text id="text5107" style="word-spacing:0px;letter-spacing:0px" xml:space="preserve" font-size="16px" line-height="125%" y="276.36221" x="340" font-family="&apos;STIX Two Text&apos;" fill="#000000"><tspan id="tspan5109" x="340" y="276.36221">Exterior</tspan></text>
  <path id="path5111" marker-end="url(#TriangleOutL)" d="m315 419.36-17-20" stroke="#000" stroke-width="1px" fill="none"/>
  <g>
   <g id="content" xml:space="preserve" stroke="#000" fill-rule="evenodd" ns0:pdfconverter="pstoedit" transform="matrix(1.75 0 0 -1.75 -123.56 1524.3)" stroke-miterlimit="10.433" ns0:text="\\underline{\\underline{S\\\&apos;i}}" ns0:version="0.7.2" ns0:inkscapeversion="0.91" ns0:preamble="/usr/share/inkscape/extensions/default_packages.tex" ns0:scale="1.4" ns0:texconverter="pdflatex"><g stroke-width="0"><path id="path5307" d="m153.16 713.86h-0.21c-0.04-0.23-0.15-0.34-0.32-0.34-0.09 0-0.26 0.04-0.43 0.12-0.37 0.14-0.74 0.22-1.06 0.22-0.43 0-0.87-0.17-1.19-0.46-0.35-0.31-0.53-0.73-0.53-1.25 0-0.79 0.44-1.35 1.55-1.94 0.72-0.38 1.24-0.79 1.49-1.17 0.09-0.12 0.14-0.33 0.14-0.57 0-0.67-0.5-1.13-1.23-1.13-0.89 0-1.51 0.55-2.01 1.76h-0.23l0.3-2.11h0.22c0.01 0.19 0.13 0.33 0.28 0.33 0.11 0 0.27-0.04 0.46-0.11 0.38-0.15 0.78-0.23 1.18-0.23 1.14 0 2.03 0.79 2.03 1.82 0 0.81-0.55 1.46-1.86 2.17-1.05 0.58-1.47 1.01-1.47 1.55 0 0.55 0.42 0.93 1.04 0.93 0.45 0 0.87-0.19 1.22-0.55 0.31-0.32 0.44-0.58 0.6-1.17h0.25z"/><path id="path5309" d="m155.3 712.23 1.53 0.96c0.21 0.13 0.3 0.26 0.3 0.42 0 0.2-0.13 0.32-0.35 0.32-0.15 0-0.24-0.05-0.41-0.23l-1.47-1.47z"/><path id="path5311" d="m156 711.71-1.55-0.55v-0.15l0.08 0.01c0.12 0.02 0.25 0.03 0.34 0.03 0.24 0 0.33-0.16 0.33-0.6v-2.31c0-0.72-0.1-0.83-0.79-0.87v-0.15h2.36v0.15c-0.65 0.05-0.73 0.15-0.73 0.87v3.53z"/></g><line id="line5313" stroke-width="0.558" y2="705.04" x2="157.02" y1="705.04" x1="148.71"/><line id="line5315" stroke-width="0.558" y2="702.25" x2="157.02" y1="702.25" x1="148.71"/></g>
   <text id="text5354" style="word-spacing:0px;letter-spacing:0px" font-size="16px" line-height="125%" y="428.36218" x="319" font-family="&apos;STIX Two Text&apos;" xml:space="preserve" fill="#000000"><tspan id="tspan5356" y="428.36218" x="319">S</tspan></text>
   <g id="g5399" xml:space="preserve" stroke="#00f" fill="#00f" fill-rule="evenodd" ns0:pdfconverter="pstoedit" transform="matrix(1.75 0 0 -1.75 -161.47 1666.9)" stroke-miterlimit="10.433" ns0:text="$\n\\rm\n\\dfrac{\\partial f(a,b)}{\\partial x}\n\\times\n\\dfrac{\\partial f(a,b)}{\\partial y}\n$" ns0:version="0.7.2" ns0:inkscapeversion="0.91" ns0:preamble="/usr/share/inkscape/extensions/default_packages.tex" ns0:scale="1.4" ns0:texconverter="pdflatex"><g stroke-width="0"><path id="path5401" d="m154.81 714.49v0.13 0.14l-0.01 0.13-0.01 0.12-0.01 0.13-0.02 0.12-0.01 0.12-0.02 0.12-0.03 0.12-0.02 0.11-0.03 0.11-0.03 0.1-0.04 0.11-0.04 0.09-0.04 0.1-0.04 0.09-0.05 0.09-0.05 0.08-0.05 0.07-0.06 0.08-0.06 0.07-0.06 0.06-0.07 0.06-0.07 0.05-0.08 0.04-0.07 0.04-0.08 0.04-0.09 0.03-0.09 0.02-0.09 0.02-0.09 0.01h-0.1c-0.84 0-1.75-0.8-1.75-1.24 0-0.33 0.26-0.46 0.46-0.46 0.21 0 0.34 0.16 0.36 0.19-0.03 0.03-0.09 0.12-0.09 0.26 0 0.09 0.18 0.95 1.04 0.95 0.72 0 0.87-0.92 0.87-1.73 0-0.61-0.09-1.15-0.09-1.16h-0.01c0 0.01-0.38 0.62-1.17 0.62-1.99 0-2.82-1.93-2.82-2.96 0-0.92 0.55-1.52 1.65-1.52l0.07 0.24c-0.56 0-0.82 0.32-0.82 0.95s0.41 3.05 1.85 3.05c0.56 0 0.83-0.33 0.83-0.91 0-0.26-0.26-3.09-1.86-3.09l-0.07-0.24c1.72 0 3.06 1.74 3.06 4.45z"/><path id="path5403" d="m158.09 714.68h-1.23v1.16c0 0.57 0.19 0.88 0.57 0.88 0.21 0 0.35-0.1 0.53-0.39 0.16-0.25 0.28-0.35 0.45-0.35 0.23 0 0.42 0.18 0.42 0.4 0 0.36-0.44 0.62-1.04 0.62-0.62 0-1.15-0.27-1.41-0.72-0.25-0.44-0.33-0.8-0.34-1.6h-0.82v-0.32h0.82v-3.13c0-0.72-0.11-0.84-0.83-0.88v-0.15h2.59v0.15c-0.82 0.03-0.93 0.14-0.93 0.88v3.13h1.22z"/><path id="path5405" d="m161.26 716.93-0.06-0.04-0.07-0.05-0.06-0.04-0.06-0.04-0.06-0.04-0.06-0.04-0.05-0.03-0.05-0.04-0.06-0.04-0.04-0.03-0.05-0.04-0.05-0.04-0.04-0.03-0.04-0.03-0.09-0.07-0.07-0.07-0.08-0.07-0.07-0.07-0.07-0.07-0.07-0.07-0.06-0.08-0.07-0.08-0.07-0.08c-0.71-0.87-1.06-1.87-1.06-3.03 0-1.27 0.37-2.24 1.25-3.26 0.41-0.48 0.67-0.7 1.18-1.02l0.12 0.16c-0.79 0.63-1.07 0.98-1.34 1.73-0.24 0.66-0.35 1.42-0.35 2.42 0 1.04 0.13 1.86 0.4 2.48 0.28 0.62 0.58 0.98 1.29 1.55z"/><path id="path5407" d="m166.05 710.85-0.01-0.01-0.02-0.01-0.02-0.01-0.01-0.01-0.01-0.01-0.02-0.01-0.01-0.01-0.02-0.01-0.01-0.01-0.02-0.01-0.01-0.01-0.01-0.01h-0.02l-0.01-0.01-0.01-0.01h-0.02l-0.01-0.01h-0.01l-0.01-0.01h-0.02-0.01l-0.01-0.01h-0.02-0.01l-0.03-0.01h-0.02-0.03-0.03c-0.23 0-0.3 0.13-0.3 0.57v1.95c0 0.51-0.05 0.8-0.19 1.04-0.22 0.36-0.65 0.55-1.24 0.55-0.94 0-1.67-0.49-1.67-1.12 0-0.23 0.19-0.42 0.42-0.42 0.24 0 0.45 0.19 0.45 0.42 0 0.03-0.01 0.08-0.02 0.15-0.02 0.09-0.03 0.17-0.03 0.24 0 0.27 0.32 0.49 0.72 0.49 0.49 0 0.76-0.29 0.76-0.83v-0.6-0.24-1.45c0-0.31-0.05-0.4-0.26-0.51-0.24-0.14-0.52-0.23-0.73-0.23-0.35 0-0.63 0.33-0.63 0.76v0.04c0 0.59 0.41 0.95 1.62 1.39v0.24c-1.54-0.62-1.71-0.7-2.13-1.08-0.22-0.2-0.36-0.54-0.36-0.87 0-0.62 0.43-1.06 1.04-1.06 0.44 0 0.85 0.21 1.46 0.73 0.05-0.52 0.23-0.73 0.63-0.73 0.34 0 0.55 0.12 0.9 0.5z"/><path id="path5409" d="m168.01 710.26v0.04 0.03l-0.01 0.04v0.03 0.04l-0.01 0.03v0.03l-0.01 0.04v0.03l-0.01 0.03-0.01 0.02-0.01 0.03-0.01 0.03-0.01 0.03-0.01 0.02-0.01 0.03-0.01 0.02-0.01 0.02-0.02 0.05-0.03 0.04-0.03 0.03-0.03 0.04-0.03 0.03-0.03 0.03-0.03 0.03-0.03 0.02-0.04 0.02-0.03 0.02-0.03 0.02-0.04 0.01-0.03 0.02-0.03 0.01-0.04 0.01-0.03 0.01-0.03 0.01h-0.03l-0.03 0.01h-0.03-0.02-0.03-0.02c-0.25 0-0.58-0.15-0.58-0.57 0-0.4 0.36-0.5 0.62-0.5 0.07 0 0.12 0.01 0.15 0.02 0.04 0.01 0.07 0.02 0.09 0.02 0.07 0 0.14-0.05 0.14-0.14 0-0.19-0.16-0.64-0.82-1.06l0.09-0.19c0.3 0.1 1.12 0.76 1.12 1.47z"/><path id="path5411" d="m171.74 716.98-0.05 0.02c-0.41-0.15-0.68-0.23-1.15-0.36l-0.29-0.08v-0.16c0.06 0.01 0.1 0.01 0.17 0.01 0.4 0 0.49-0.08 0.49-0.5v-5.17c0-0.31 0.84-0.64 1.64-0.64l0.16 0.32c-0.52 0-0.97 0.23-0.97 0.48v2.51c0 0.38 0.47 0.74 0.99 0.74 0.78 0 1.28-0.77 1.28-1.99 0-1.11-0.48-1.74-1.3-1.74l-0.16-0.32c1.32 0 2.33 1.09 2.33 2.52 0 1.22-0.76 2.16-1.75 2.16-0.61 0-1.19-0.36-1.39-0.85z"/><path id="path5413" d="m175.58 708.43 0.07 0.05 0.06 0.04 0.07 0.04 0.06 0.04 0.05 0.04 0.06 0.04 0.06 0.04 0.05 0.04 0.05 0.03 0.05 0.04 0.04 0.04 0.05 0.03 0.04 0.04 0.05 0.03 0.08 0.07 0.08 0.07 0.07 0.07 0.07 0.07 0.07 0.07 0.07 0.07 0.07 0.08 0.06 0.08 0.07 0.08c0.71 0.87 1.06 1.86 1.06 3.03 0 1.27-0.37 2.24-1.25 3.26-0.4 0.47-0.66 0.69-1.18 1.01l-0.12-0.16c0.8-0.62 1.06-0.97 1.34-1.72 0.24-0.67 0.35-1.43 0.35-2.42 0-1.04-0.13-1.86-0.4-2.47-0.27-0.63-0.57-0.99-1.29-1.57z"/></g><line id="line5415" stroke-width="0.558" y2="706.01" y1="706.01" stroke="#00f" x2="178.52" x1="149.91"/><g stroke-width="0"><path id="path5417" d="m164.07 700.91v0.13 0.13l-0.01 0.13-0.01 0.13-0.01 0.13-0.01 0.12-0.02 0.12-0.02 0.12-0.02 0.12-0.03 0.11-0.03 0.11-0.03 0.1-0.04 0.1-0.03 0.1-0.05 0.1-0.04 0.09-0.05 0.08-0.05 0.08-0.05 0.08-0.06 0.07-0.06 0.07-0.06 0.06-0.07 0.06-0.07 0.05-0.07 0.05-0.08 0.04-0.08 0.04-0.09 0.03-0.08 0.02-0.1 0.02-0.09 0.01h-0.1c-0.84 0-1.74-0.8-1.74-1.25 0-0.33 0.25-0.45 0.45-0.45 0.21 0 0.34 0.16 0.36 0.18-0.03 0.04-0.09 0.12-0.09 0.26 0 0.09 0.18 0.96 1.04 0.96 0.72 0 0.88-0.93 0.88-1.73 0-0.61-0.09-1.15-0.09-1.16h-0.01c0 0.01-0.39 0.62-1.18 0.62-1.99 0-2.82-1.93-2.82-2.96 0-0.93 0.55-1.52 1.66-1.52l0.07 0.24c-0.57 0-0.83 0.31-0.83 0.95 0 0.63 0.42 3.05 1.85 3.05 0.56 0 0.83-0.33 0.83-0.92 0-0.26-0.26-3.08-1.85-3.08l-0.07-0.24c1.71 0 3.05 1.74 3.05 4.45z"/><path id="path5419" d="m167.04 696.61h2v0.15c-0.3 0-0.5 0.16-0.81 0.6l-1.28 1.96 0.83 1.19c0.19 0.27 0.49 0.43 0.81 0.44v0.15h-1.58v-0.15c0.3-0.02 0.4-0.08 0.4-0.22 0-0.12-0.12-0.34-0.37-0.65-0.05-0.06-0.17-0.24-0.3-0.44l-0.14 0.2c-0.28 0.42-0.45 0.76-0.45 0.89 0 0.14 0.12 0.21 0.42 0.22v0.15h-2.06v-0.15h0.09c0.3 0 0.46-0.13 0.77-0.6l0.93-1.43-1.13-1.65c-0.3-0.41-0.4-0.48-0.73-0.51v-0.15h1.45v0.15c-0.28 0-0.4 0.05-0.4 0.18 0 0.06 0.07 0.21 0.2 0.41l0.78 1.23 0.91-1.4c0.04-0.06 0.06-0.12 0.06-0.18 0-0.18-0.07-0.22-0.4-0.24z"/><polygon id="polygon5421" points="187.71 703.8 185.48 706.01 187.71 708.23 187.31 708.63 185.1 706.41 182.88 708.63 182.49 708.23 184.7 706.01 182.49 703.8 182.88 703.4 185.1 705.62 187.31 703.4"/><path id="path5423" d="m196.57 714.49v0.13 0.14l-0.01 0.13-0.01 0.12-0.01 0.13-0.02 0.12-0.01 0.12-0.02 0.12-0.03 0.12-0.02 0.11-0.03 0.11-0.03 0.1-0.04 0.11-0.04 0.09-0.04 0.1-0.04 0.09-0.05 0.09-0.05 0.08-0.05 0.07-0.06 0.08-0.06 0.07-0.06 0.06-0.07 0.06-0.07 0.05-0.08 0.04-0.07 0.04-0.08 0.04-0.09 0.03-0.09 0.02-0.09 0.02-0.09 0.01h-0.1c-0.84 0-1.75-0.8-1.75-1.24 0-0.33 0.26-0.46 0.46-0.46 0.21 0 0.34 0.16 0.36 0.19-0.03 0.03-0.09 0.12-0.09 0.26 0 0.09 0.18 0.95 1.04 0.95 0.71 0 0.87-0.92 0.87-1.73 0-0.61-0.09-1.15-0.09-1.16h-0.01c0 0.01-0.38 0.62-1.17 0.62-1.99 0-2.82-1.93-2.82-2.96 0-0.92 0.55-1.52 1.65-1.52l0.07 0.24c-0.57 0-0.82 0.32-0.82 0.95s0.41 3.05 1.85 3.05c0.56 0 0.83-0.33 0.83-0.91 0-0.26-0.26-3.09-1.86-3.09l-0.07-0.24c1.72 0 3.06 1.74 3.06 4.45z"/><path id="path5425" d="m199.85 714.68h-1.23v1.16c0 0.57 0.19 0.88 0.57 0.88 0.21 0 0.35-0.1 0.53-0.39 0.16-0.25 0.28-0.35 0.45-0.35 0.23 0 0.42 0.18 0.42 0.4 0 0.36-0.44 0.62-1.04 0.62-0.62 0-1.15-0.27-1.4-0.72-0.26-0.44-0.34-0.8-0.35-1.6h-0.82v-0.32h0.82v-3.13c0-0.72-0.11-0.84-0.83-0.88v-0.15h2.59v0.15c-0.82 0.03-0.93 0.14-0.93 0.88v3.13h1.22z"/><path id="path5427" d="m203.03 716.93-0.07-0.04-0.06-0.05-0.07-0.04-0.06-0.04-0.05-0.04-0.06-0.04-0.06-0.03-0.05-0.04-0.05-0.04-0.05-0.03-0.04-0.04-0.05-0.04-0.04-0.03-0.05-0.03-0.08-0.07-0.08-0.07-0.07-0.07-0.07-0.07-0.07-0.07-0.07-0.07-0.07-0.08-0.06-0.08-0.07-0.08c-0.71-0.87-1.06-1.87-1.06-3.03 0-1.27 0.37-2.24 1.25-3.26 0.41-0.48 0.66-0.7 1.18-1.02l0.12 0.16c-0.8 0.63-1.08 0.98-1.34 1.73-0.24 0.66-0.35 1.42-0.35 2.42 0 1.04 0.13 1.86 0.4 2.48s0.57 0.98 1.29 1.55z"/><path id="path5429" d="m207.81 710.85-0.01-0.01-0.02-0.01-0.02-0.01-0.01-0.01-0.01-0.01-0.02-0.01-0.01-0.01-0.02-0.01-0.01-0.01-0.02-0.01-0.01-0.01-0.01-0.01h-0.02l-0.01-0.01-0.01-0.01h-0.02l-0.01-0.01h-0.01l-0.01-0.01h-0.02-0.01l-0.01-0.01h-0.02-0.01l-0.03-0.01h-0.02-0.03-0.03c-0.23 0-0.3 0.13-0.3 0.57v1.95c0 0.51-0.05 0.8-0.2 1.04-0.22 0.36-0.64 0.55-1.23 0.55-0.94 0-1.68-0.49-1.68-1.12 0-0.23 0.2-0.42 0.43-0.42 0.24 0 0.45 0.19 0.45 0.42 0 0.03-0.01 0.08-0.02 0.15-0.02 0.09-0.03 0.17-0.03 0.24 0 0.27 0.32 0.49 0.72 0.49 0.49 0 0.76-0.29 0.76-0.83v-0.6-0.24-1.45c0-0.31-0.05-0.4-0.26-0.51-0.24-0.14-0.52-0.23-0.73-0.23-0.35 0-0.63 0.33-0.63 0.76v0.04c0 0.59 0.41 0.95 1.62 1.39v0.24c-1.54-0.62-1.71-0.7-2.14-1.08-0.21-0.2-0.35-0.54-0.35-0.87 0-0.62 0.43-1.06 1.04-1.06 0.44 0 0.85 0.21 1.46 0.73 0.05-0.52 0.23-0.73 0.63-0.73 0.34 0 0.55 0.12 0.9 0.5z"/><path id="path5431" d="m209.77 710.26v0.04 0.03 0.04 0.03l-0.01 0.04v0.03 0.03l-0.01 0.04-0.01 0.03v0.03l-0.01 0.02-0.01 0.03-0.01 0.03-0.01 0.03-0.01 0.02-0.01 0.03-0.01 0.02-0.01 0.02-0.03 0.05-0.02 0.04-0.03 0.03-0.03 0.04-0.03 0.03-0.03 0.03-0.03 0.03-0.04 0.02-0.03 0.02-0.03 0.02-0.04 0.02-0.03 0.01-0.03 0.02-0.04 0.01-0.03 0.01-0.03 0.01-0.03 0.01h-0.03l-0.03 0.01h-0.03-0.03-0.02-0.02c-0.25 0-0.58-0.15-0.58-0.57 0-0.4 0.36-0.5 0.62-0.5 0.07 0 0.12 0.01 0.15 0.02 0.04 0.01 0.07 0.02 0.09 0.02 0.07 0 0.14-0.05 0.14-0.14 0-0.19-0.16-0.64-0.82-1.06l0.09-0.19c0.3 0.1 1.11 0.76 1.11 1.47z"/><path id="path5433" d="m213.5 716.98-0.05 0.02c-0.41-0.15-0.68-0.23-1.15-0.36l-0.29-0.08v-0.16c0.06 0.01 0.1 0.01 0.17 0.01 0.4 0 0.49-0.08 0.49-0.5v-5.17c0-0.31 0.84-0.64 1.64-0.64l0.16 0.32c-0.52 0-0.97 0.23-0.97 0.48v2.51c0 0.38 0.47 0.74 0.99 0.74 0.78 0 1.28-0.77 1.28-1.99 0-1.11-0.48-1.74-1.3-1.74l-0.16-0.32c1.32 0 2.33 1.09 2.33 2.52 0 1.22-0.76 2.16-1.75 2.16-0.61 0-1.19-0.36-1.39-0.85z"/><path id="path5435" d="m217.35 708.43 0.06 0.05 0.07 0.04 0.06 0.04 0.06 0.04 0.06 0.04 0.06 0.04 0.05 0.04 0.05 0.04 0.06 0.03 0.04 0.04 0.05 0.04 0.05 0.03 0.04 0.04 0.04 0.03 0.09 0.07 0.07 0.07 0.08 0.07 0.07 0.07 0.07 0.07 0.07 0.07 0.06 0.08 0.07 0.08 0.07 0.08c0.71 0.87 1.06 1.86 1.06 3.03 0 1.27-0.37 2.24-1.25 3.26-0.41 0.47-0.67 0.69-1.18 1.01l-0.12-0.16c0.79-0.62 1.06-0.97 1.34-1.72 0.24-0.67 0.35-1.43 0.35-2.42 0-1.04-0.13-1.86-0.4-2.47-0.28-0.63-0.58-0.99-1.29-1.57z"/></g><line id="line5437" stroke-width="0.558" y2="706.01" y1="706.01" stroke="#00f" x2="220.28" x1="191.67"/><path id="path5439" stroke-width="0" d="m205.83 700.91v0.13 0.13l-0.01 0.13-0.01 0.13-0.01 0.13-0.01 0.12-0.02 0.12-0.02 0.12-0.02 0.12-0.03 0.11-0.03 0.11-0.03 0.1-0.04 0.1-0.03 0.1-0.05 0.1-0.04 0.09-0.05 0.08-0.05 0.08-0.05 0.08-0.06 0.07-0.06 0.07-0.06 0.06-0.07 0.06-0.07 0.05-0.07 0.05-0.08 0.04-0.08 0.04-0.09 0.03-0.08 0.02-0.1 0.02-0.09 0.01h-0.1c-0.84 0-1.74-0.8-1.74-1.25 0-0.33 0.26-0.45 0.46-0.45s0.33 0.16 0.35 0.18c-0.03 0.04-0.09 0.12-0.09 0.26 0 0.09 0.18 0.96 1.04 0.96 0.72 0 0.88-0.93 0.88-1.73 0-0.61-0.09-1.15-0.09-1.16h-0.01c0 0.01-0.39 0.62-1.18 0.62-1.99 0-2.82-1.93-2.82-2.96 0-0.93 0.55-1.52 1.66-1.52l0.07 0.24c-0.57 0-0.83 0.31-0.83 0.95 0 0.63 0.42 3.05 1.85 3.05 0.56 0 0.83-0.33 0.83-0.92 0-0.26-0.26-3.08-1.85-3.08l-0.07-0.24c1.71 0 3.05 1.74 3.05 4.45z"/><path id="path5441" stroke-width="0" d="m210.77 701.1h-1.34v-0.15c0.32 0 0.48-0.09 0.48-0.25 0-0.04-0.01-0.1-0.04-0.17l-0.97-2.75-1.15 2.52c-0.06 0.14-0.1 0.27-0.1 0.38 0 0.18 0.15 0.25 0.58 0.27v0.15h-2.05v-0.14c0.26-0.04 0.43-0.15 0.51-0.32l1.13-2.45 0.03-0.08 0.15-0.3c0.28-0.5 0.44-0.86 0.44-1.01 0-0.14-0.23-0.77-0.4-1.07-0.14-0.26-0.36-0.45-0.5-0.45-0.05 0-0.14 0.02-0.25 0.07-0.18 0.07-0.35 0.11-0.52 0.11-0.23 0-0.43-0.2-0.43-0.44 0-0.33 0.32-0.58 0.74-0.58 0.66 0 1.14 0.56 1.68 2l1.53 4.06c0.13 0.32 0.24 0.42 0.48 0.45z"/></g>
   <g id="g5567" xml:space="preserve" stroke="#000" stroke-width="0" fill-rule="evenodd" ns0:pdfconverter="pstoedit" transform="matrix(1.75 0 0 -1.75 -32.74 1605.1)" stroke-miterlimit="10.433" ns0:text="$\n\\rm f(a,b) \\in S\n$" ns0:version="0.7.2" ns0:inkscapeversion="0.91" ns0:preamble="/usr/share/inkscape/extensions/default_packages.tex" ns0:scale="1.4" ns0:texconverter="pdflatex"><path id="path5569" d="m151.79 711.61h-1.23v1.15c0 0.58 0.19 0.89 0.57 0.89 0.21 0 0.35-0.1 0.53-0.39 0.16-0.26 0.28-0.36 0.45-0.36 0.23 0 0.42 0.18 0.42 0.41 0 0.36-0.44 0.62-1.04 0.62-0.62 0-1.15-0.27-1.4-0.73-0.26-0.44-0.34-0.8-0.35-1.59h-0.82v-0.32h0.82v-3.13c0-0.73-0.11-0.85-0.83-0.89v-0.15h2.59v0.15c-0.82 0.03-0.93 0.14-0.93 0.89v3.13h1.22z"/><path id="path5571" d="m154.97 713.86-0.07-0.05-0.06-0.04-0.07-0.04-0.06-0.04-0.05-0.04-0.06-0.04-0.06-0.04-0.05-0.04-0.05-0.03-0.05-0.04-0.04-0.04-0.05-0.03-0.04-0.04-0.05-0.03-0.08-0.07-0.08-0.07-0.07-0.06-0.07-0.07-0.07-0.08-0.07-0.07-0.07-0.07-0.06-0.08-0.07-0.09c-0.71-0.87-1.06-1.86-1.06-3.03 0-1.26 0.37-2.24 1.25-3.25 0.4-0.48 0.66-0.7 1.18-1.02l0.12 0.16c-0.8 0.63-1.07 0.97-1.34 1.72-0.24 0.67-0.35 1.43-0.35 2.42 0 1.05 0.13 1.87 0.4 2.48 0.27 0.62 0.57 0.98 1.29 1.56z"/><path id="path5573" d="m159.75 707.78-0.01-0.01-0.02-0.02-0.02-0.01-0.01-0.01-0.01-0.01-0.02-0.01-0.01-0.01-0.02-0.01-0.01-0.01-0.02-0.01h-0.01l-0.01-0.01-0.02-0.01h-0.01l-0.01-0.01-0.02-0.01h-0.01l-0.01-0.01h-0.01l-0.02-0.01h-0.01-0.01l-0.02-0.01h-0.01-0.03l-0.02-0.01h-0.03-0.03c-0.23 0-0.3 0.14-0.3 0.58v1.94c0 0.52-0.05 0.81-0.2 1.05-0.21 0.36-0.64 0.55-1.23 0.55-0.94 0-1.68-0.49-1.68-1.12 0-0.23 0.2-0.43 0.43-0.43 0.24 0 0.45 0.2 0.45 0.42 0 0.04-0.01 0.09-0.02 0.16-0.02 0.09-0.03 0.17-0.03 0.24 0 0.27 0.32 0.49 0.72 0.49 0.49 0 0.76-0.29 0.76-0.83v-0.61-0.24-1.44c0-0.31-0.05-0.4-0.26-0.52-0.24-0.14-0.52-0.23-0.73-0.23-0.35 0-0.63 0.34-0.63 0.77v0.04c0 0.58 0.41 0.94 1.62 1.38v0.24c-1.54-0.62-1.71-0.7-2.14-1.07-0.21-0.2-0.35-0.54-0.35-0.87 0-0.63 0.43-1.07 1.04-1.07 0.44 0 0.85 0.21 1.46 0.73 0.05-0.52 0.23-0.73 0.63-0.73 0.34 0 0.55 0.12 0.9 0.5z"/><path id="path5575" d="m161.71 707.18v0.04 0.04 0.03 0.04l-0.01 0.03v0.04 0.03l-0.01 0.03-0.01 0.03v0.03l-0.01 0.03-0.01 0.03-0.01 0.02-0.01 0.03-0.01 0.03-0.01 0.02-0.01 0.02-0.01 0.03-0.03 0.04-0.02 0.04-0.03 0.04-0.03 0.03-0.03 0.03-0.03 0.03-0.03 0.03-0.04 0.02-0.03 0.03-0.03 0.02-0.04 0.01-0.03 0.02-0.03 0.01-0.04 0.02-0.03 0.01h-0.03l-0.03 0.01-0.03 0.01h-0.03l-0.03 0.01h-0.03-0.02-0.02c-0.25 0-0.58-0.15-0.58-0.58 0-0.4 0.36-0.5 0.62-0.5 0.07 0 0.12 0.01 0.15 0.02 0.04 0.01 0.07 0.02 0.09 0.02 0.07 0 0.14-0.05 0.14-0.14 0-0.19-0.16-0.63-0.82-1.05l0.09-0.19c0.3 0.1 1.11 0.75 1.11 1.46z"/><path id="path5577" d="m165.44 713.91-0.05 0.02c-0.41-0.15-0.68-0.23-1.15-0.36l-0.29-0.08v-0.16c0.06 0.01 0.1 0.01 0.17 0.01 0.4 0 0.49-0.09 0.49-0.51v-5.17c0-0.31 0.84-0.64 1.64-0.64l0.16 0.32c-0.52 0-0.97 0.23-0.97 0.48v2.51c0 0.39 0.47 0.75 0.99 0.75 0.78 0 1.28-0.78 1.28-1.99 0-1.11-0.48-1.75-1.3-1.75l-0.16-0.32c1.32 0 2.33 1.1 2.33 2.52 0 1.23-0.76 2.17-1.75 2.17-0.61 0-1.19-0.36-1.39-0.85z"/><path id="path5579" d="m169.28 705.36 0.07 0.04 0.06 0.05 0.07 0.04 0.06 0.04 0.05 0.04 0.06 0.04 0.06 0.04 0.05 0.03 0.05 0.04 0.05 0.04 0.04 0.03 0.05 0.04 0.04 0.03 0.05 0.04 0.08 0.06 0.08 0.07 0.07 0.07 0.07 0.07 0.07 0.07 0.07 0.08 0.07 0.07 0.06 0.08 0.07 0.08c0.71 0.87 1.06 1.87 1.06 3.03 0 1.28-0.37 2.25-1.25 3.26-0.4 0.48-0.66 0.7-1.18 1.02l-0.12-0.16c0.8-0.63 1.07-0.98 1.34-1.73 0.24-0.66 0.35-1.42 0.35-2.42 0-1.03-0.13-1.86-0.4-2.47-0.27-0.62-0.57-0.98-1.29-1.56z"/><path id="path5581" d="m179.81 707.2v0.5h-1.89c-0.9 0-1.77 0.74-1.89 1.73h3.61v0.5h-3.61c0.11 0.95 0.89 1.73 1.89 1.73h1.89v0.5h-1.85c-1.39 0-2.45-1.15-2.45-2.48 0-1.32 1.06-2.48 2.45-2.48z"/><path id="path5583" d="m187.55 713.86h-0.21c-0.04-0.23-0.15-0.34-0.32-0.34-0.1 0-0.27 0.04-0.44 0.12-0.36 0.14-0.73 0.22-1.05 0.22-0.43 0-0.87-0.17-1.2-0.46-0.35-0.31-0.53-0.73-0.53-1.25 0-0.79 0.44-1.35 1.56-1.94 0.72-0.38 1.23-0.79 1.48-1.17 0.09-0.12 0.14-0.33 0.14-0.57 0-0.67-0.49-1.13-1.22-1.13-0.89 0-1.52 0.55-2.02 1.76h-0.22l0.3-2.11h0.21c0.01 0.19 0.13 0.33 0.28 0.33 0.11 0 0.28-0.04 0.47-0.11 0.38-0.15 0.78-0.23 1.18-0.23 1.14 0 2.03 0.79 2.03 1.82 0 0.81-0.55 1.46-1.86 2.17-1.05 0.58-1.47 1.01-1.47 1.55 0 0.55 0.42 0.93 1.04 0.93 0.45 0 0.86-0.19 1.21-0.55 0.31-0.32 0.45-0.58 0.61-1.17h0.25z"/></g>
  </g>
  <path id="path5655" d="m422.2 440.36v-190" stroke="#f00" stroke-width="3" fill="none"/>
  <ellipse id="ellipse4218" rx="25" ry="14" stroke="#000" cy="329.36" cx="475" stroke-dasharray="3, 3" fill="none"/>
  <path id="rect4220" d="m450 284.36c3.1162 18.921 46.644 19.001 50 0v45c-2.4289 18.204-46.596 19.411-50 0z" fill-opacity=".63401" fill="#ececec"/>
  <g stroke="#000" fill="none">
   <ellipse id="path4214" rx="25" ry="14" cy="284.36" cx="475"/>
   <path id="ellipse4223" d="m500 329.36a25 14 0 0 1 -12.5 12.124 25 14 0 0 1 -25 0 25 14 0 0 1 -12.5 -12.124"/>
   <path id="path4225" d="m450 329.36v-45" stroke-width="1px"/>
   <path id="path4227" d="m500 284.36v45" stroke-width="1px"/>
  </g>
  <path id="rect4230" d="m511 376.36c30.056 15.309 75.109-8.8467 109 1-8.5251 10.543-10.607 21.515-5 33-30.893-9.2603-67.12 13.097-102 1 1.5442-10.986 2.4867-22.158-2-35z" stroke="#000" fill="url(#radialGradient4226)"/>
  <g id="g4313" xml:space="preserve" stroke="#000" fill-rule="evenodd" ns0:pdfconverter="pstoedit" transform="matrix(1.75 0 0 -1.75 283.03 1566.9)" stroke-miterlimit="10.433" ns0:text="\\underline{\\underline{No}}" ns0:version="0.7.2" ns0:inkscapeversion="0.91" ns0:preamble="/usr/share/inkscape/extensions/default_packages.tex" ns0:scale="1.4" ns0:texconverter="pdflatex"><path id="path4315" stroke-width="0" d="m154.81 707.01v5.24c0 0.6 0.1 0.97 0.29 1.1 0.14 0.1 0.28 0.14 0.65 0.18v0.19h-2.34v-0.19c0.38-0.03 0.52-0.07 0.67-0.16 0.2-0.14 0.29-0.5 0.29-1.12v-3.35l-3.84 4.82h-1.7v-0.19c0.43 0 0.57-0.08 0.97-0.55v-4.39c0-1.03-0.14-1.22-0.97-1.28v-0.19h2.34v0.19c-0.77 0.04-0.94 0.27-0.94 1.28v3.9l4.41-5.48z"/><path id="path4317" stroke-width="0" d="m158.39 711.71-0.12-0.01-0.12-0.01-0.11-0.01-0.11-0.02-0.11-0.02-0.11-0.03-0.11-0.04-0.1-0.04-0.1-0.04-0.09-0.05-0.09-0.05-0.09-0.06-0.09-0.06-0.08-0.07-0.08-0.07-0.07-0.07-0.07-0.08-0.07-0.09-0.06-0.08-0.06-0.09-0.06-0.1-0.05-0.1-0.05-0.1-0.04-0.1-0.03-0.11-0.04-0.11-0.02-0.11-0.03-0.12-0.02-0.12-0.01-0.12-0.01-0.13v-0.13c0-1.34 0.93-2.35 2.18-2.35l0.12 0.28c-0.39 0-0.75 0.24-0.96 0.64-0.28 0.52-0.44 1.22-0.44 1.92 0 0.95 0.47 1.57 1.17 1.57 0.84 0 1.43-0.96 1.43-2.33 0-1.12-0.45-1.8-1.2-1.8l-0.12-0.28c1.26 0 2.22 1.06 2.22 2.43 0 1.31-0.92 2.26-2.2 2.26z"/><line id="line4319" stroke-width="0.558" y2="705.07" y1="705.07" x2="160.89" x1="148.71"/><line id="line4321" stroke-width="0.558" y2="702.28" y1="702.28" x2="160.89" x1="148.71"/></g>
 </g>
</svg>
