<?xml version="1.0" encoding="UTF-8" standalone="no"?>
<!-- Created with Inkscape (http://www.inkscape.org/) -->
<svg id="svg2" xmlns:rdf="http://www.w3.org/1999/02/22-rdf-syntax-ns#" xmlns="http://www.w3.org/2000/svg" height="171" width="251" version="1.1" xmlns:cc="http://creativecommons.org/ns#" xmlns:dc="http://purl.org/dc/elements/1.1/" viewBox="0 0 251 171">
 <style type="text/css">
	 @import url('../estilo.css');
 </style>
 <metadata id="metadata7">
  <rdf:RDF>
   <cc:Work rdf:about="">
    <dc:format>image/svg+xml</dc:format>
    <dc:type rdf:resource="http://purl.org/dc/dcmitype/StillImage"/>
    <dc:title/>
   </cc:Work>
  </rdf:RDF>
 </metadata>
 <g id="layer1" transform="translate(-94.5 -86.862)">
  <g stroke="#000" fill="none">
   <g stroke-linejoin="round">
    <path id="rect4138" d="m220 172.36v80h-120v-80h120"/>
    <path id="rect4140" d="m280 172.36h60v80h-120v-80"/>
    <path id="rect4220" d="m160 172.36v-80h120v80"/>
   </g>
   <path id="path4230" d="m220 172.36 3-5 5 10 5-10 5 10 5-10 5 10 5-10 5 10 5-10 5 10 5-10 5 10 2-5" stroke-width="1px"/>
  </g>
  <g font-size="16px" font-family="&apos;STIX Two Text&apos;" fill="#000000">
   <text id="text4232" style="word-spacing:0px;letter-spacing:0px" xml:space="preserve" line-height="125%" y="110.3622" x="167"><tspan id="tspan4234" x="167" y="110.3622">A</tspan></text>
   <text id="text4236" style="word-spacing:0px;letter-spacing:0px" xml:space="preserve" line-height="125%" y="191.3622" x="107"><tspan id="tspan4238" x="107" y="191.3622">B</tspan></text>
   <text id="text4240" style="word-spacing:0px;letter-spacing:0px" xml:space="preserve" line-height="125%" y="191.3622" x="321"><tspan id="tspan4242" x="321" y="191.3622">C</tspan></text>
  </g>
 </g>
</svg>
