<?xml version="1.0" encoding="UTF-8" standalone="no"?>
<svg id="svg4464" xmlns:rdf="http://www.w3.org/1999/02/22-rdf-syntax-ns#" xmlns="http://www.w3.org/2000/svg" xmlns:ns0="http://www.iki.fi/pav/software/textext/" height="300" width="420" version="1.1" xmlns:cc="http://creativecommons.org/ns#" xmlns:xlink="http://www.w3.org/1999/xlink" viewBox="0 0 420 300" xmlns:dc="http://purl.org/dc/elements/1.1/">
 <style type="text/css">
	 @import url('../estilo.css');
 </style>
 <metadata id="metadata4655">
  <rdf:RDF>
   <cc:Work rdf:about="">
    <dc:format>image/svg+xml</dc:format>
    <dc:type rdf:resource="http://purl.org/dc/dcmitype/StillImage"/>
    <dc:title>Gnuplot</dc:title>
   </cc:Work>
  </rdf:RDF>
 </metadata>
 <title id="title4466">Gnuplot</title>
 <desc id="desc4468">Produced by GNUPLOT 5.0 patchlevel 3</desc>
 <g id="gnuplot_canvas">
  <g fill="none">
   <rect id="rect4471" height="300" width="420" y="0" x="0"/>
   <g stroke="currentColor">
    <g stroke-width=".5">
     <g id="g4507" color="white">
      <g id="g4509" stroke="none" shape-rendering="crispEdges">
       <polygon id="polygon4511" points="101.1 123.4 101.1 122.1 101 120.7 100.8 119.3 100.5 117.9 100.2 116.5 99.8 115.2 99.3 113.9 98.8 112.6 98.2 111.3 97.5 110.1 96.8 108.9 96 107.8 95.2 106.7 94.3 105.6 93.3 104.6 92.3 103.6 91.2 102.7 90.1 101.9 89 101.1 87.8 100.4 86.6 99.7 85.3 99.1 84 98.6 82.7 98.1 81.4 97.7 80 97.4 78.6 97.1 77.2 96.9 75.8 96.8 74.5 96.8 73.1 96.8 71.7 96.9 70.3 97.1 68.9 97.4 67.5 97.7 66.2 98.1 64.9 98.6 63.6 99.1 62.3 99.7 61.1 100.4 59.9 101.1 58.8 101.9 57.7 102.7 56.6 103.6 55.6 104.6 54.6 105.6 53.7 106.7 52.9 107.8 52.1 108.9 51.4 110.1 50.7 111.3 50.1 112.6 49.6 113.9 49.1 115.2 48.7 116.5 48.4 117.9 48.1 119.3 47.9 120.7 47.8 122.1 47.8 123.4 47.8 124.8 47.9 126.2 48.1 127.6 48.4 129 48.7 130.4 49.1 131.7 49.6 133 50.1 134.3 50.7 135.6 51.4 136.8 52.1 138 52.9 139.1 53.7 140.2 54.6 141.3 55.6 142.3 56.6 143.3 57.7 144.2 58.8 145 59.9 145.8 61.1 146.5 62.3 147.2 63.6 147.8 64.9 148.3 66.2 148.8 67.5 149.2 68.9 149.5 70.3 149.8 71.7 150 73.1 150.1 74.4 150.1 75.8 150.1 77.2 150 78.6 149.8 80 149.5 81.4 149.2 82.7 148.8 84 148.3 85.3 147.8 86.6 147.2 87.8 146.5 89 145.8 90.1 145 91.2 144.2 92.3 143.3 93.3 142.3 94.3 141.3 95.2 140.2 96 139.1 96.8 138 97.5 136.8 98.2 135.6 98.8 134.3 99.3 133 99.8 131.7 100.2 130.4 100.5 129 100.8 127.6 101 126.2 101.1 124.8" fill="#fff"/>
      </g>
      <path id="path4513" stroke="#000" d="m101.1 123.4v-1.3l-0.1-1.4-0.2-1.4-0.3-1.4-0.3-1.4-0.4-1.3-0.5-1.3-0.5-1.3-0.6-1.3-0.7-1.2-0.7-1.2-0.8-1.1-0.8-1.1-0.9-1.1-1-1-1-1-1.1-0.9-1.1-0.8-1.1-0.8-1.2-0.7-1.2-0.7-1.3-0.6-1.3-0.5-1.3-0.5-1.3-0.4-1.4-0.3-1.4-0.3-1.4-0.2-1.4-0.1h-1.3-1.4l-1.4 0.1-1.4 0.2-1.4 0.3-1.4 0.3-1.3 0.4-1.3 0.5-1.3 0.5-1.3 0.6-1.2 0.7-1.2 0.7-1.1 0.8-1.1 0.8-1.1 0.9-1 1-1 1-0.9 1.1-0.8 1.1-0.8 1.1-0.7 1.2-0.7 1.2-0.6 1.3-0.5 1.3-0.5 1.3-0.4 1.3-0.3 1.4-0.3 1.4-0.2 1.4-0.1 1.4v1.3 1.4l0.1 1.4 0.2 1.4 0.3 1.4 0.3 1.4 0.4 1.3 0.5 1.3 0.5 1.3 0.6 1.3 0.7 1.2 0.7 1.2 0.8 1.1 0.8 1.1 0.9 1.1 1 1 1 1 1.1 0.9 1.1 0.8 1.1 0.8 1.2 0.7 1.2 0.7 1.3 0.6 1.3 0.5 1.3 0.5 1.3 0.4 1.4 0.3 1.4 0.3 1.4 0.2 1.4 0.1h1.3 1.4l1.4-0.1 1.4-0.2 1.4-0.3 1.4-0.3 1.3-0.4 1.3-0.5 1.3-0.5 1.3-0.6 1.2-0.7 1.2-0.7 1.1-0.8 1.1-0.8 1.1-0.9 1-1 1-1 0.9-1.1 0.8-1.1 0.8-1.1 0.7-1.2 0.7-1.2 0.6-1.3 0.5-1.3 0.5-1.3 0.4-1.3 0.3-1.4 0.3-1.4 0.2-1.4 0.1-1.4v-1.3"/>
     </g>
     <g id="g4515" color="white">
      <g id="g4517" stroke="none" shape-rendering="crispEdges">
       <polygon id="polygon4519" points="261.1 123.4 261.1 122.1 261 120.7 260.8 119.3 260.5 117.9 260.2 116.5 259.8 115.2 259.3 113.9 258.8 112.6 258.2 111.3 257.5 110.1 256.8 108.9 256 107.8 255.2 106.7 254.3 105.6 253.3 104.6 252.3 103.6 251.2 102.7 250.1 101.9 249 101.1 247.8 100.4 246.6 99.7 245.3 99.1 244 98.6 242.7 98.1 241.4 97.7 240 97.4 238.6 97.1 237.2 96.9 235.8 96.8 234.5 96.8 233.1 96.8 231.7 96.9 230.3 97.1 228.9 97.4 227.5 97.7 226.2 98.1 224.9 98.6 223.6 99.1 222.3 99.7 221.1 100.4 219.9 101.1 218.8 101.9 217.7 102.7 216.6 103.6 215.6 104.6 214.6 105.6 213.7 106.7 212.9 107.8 212.1 108.9 211.4 110.1 210.7 111.3 210.1 112.6 209.6 113.9 209.1 115.2 208.7 116.5 208.4 117.9 208.1 119.3 207.9 120.7 207.8 122.1 207.8 123.4 207.8 124.8 207.9 126.2 208.1 127.6 208.4 129 208.7 130.4 209.1 131.7 209.6 133 210.1 134.3 210.7 135.6 211.4 136.8 212.1 138 212.9 139.1 213.7 140.2 214.6 141.3 215.6 142.3 216.6 143.3 217.7 144.2 218.8 145 219.9 145.8 221.1 146.5 222.3 147.2 223.6 147.8 224.9 148.3 226.2 148.8 227.5 149.2 228.9 149.5 230.3 149.8 231.7 150 233.1 150.1 234.4 150.1 235.8 150.1 237.2 150 238.6 149.8 240 149.5 241.4 149.2 242.7 148.8 244 148.3 245.3 147.8 246.6 147.2 247.8 146.5 249 145.8 250.1 145 251.2 144.2 252.3 143.3 253.3 142.3 254.3 141.3 255.2 140.2 256 139.1 256.8 138 257.5 136.8 258.2 135.6 258.8 134.3 259.3 133 259.8 131.7 260.2 130.4 260.5 129 260.8 127.6 261 126.2 261.1 124.8" fill="#fff"/>
      </g>
      <path id="path4521" stroke="#000" d="m261.1 123.4v-1.3l-0.1-1.4-0.2-1.4-0.3-1.4-0.3-1.4-0.4-1.3-0.5-1.3-0.5-1.3-0.6-1.3-0.7-1.2-0.7-1.2-0.8-1.1-0.8-1.1-0.9-1.1-1-1-1-1-1.1-0.9-1.1-0.8-1.1-0.8-1.2-0.7-1.2-0.7-1.3-0.6-1.3-0.5-1.3-0.5-1.3-0.4-1.4-0.3-1.4-0.3-1.4-0.2-1.4-0.1h-1.3-1.4l-1.4 0.1-1.4 0.2-1.4 0.3-1.4 0.3-1.3 0.4-1.3 0.5-1.3 0.5-1.3 0.6-1.2 0.7-1.2 0.7-1.1 0.8-1.1 0.8-1.1 0.9-1 1-1 1-0.9 1.1-0.8 1.1-0.8 1.1-0.7 1.2-0.7 1.2-0.6 1.3-0.5 1.3-0.5 1.3-0.4 1.3-0.3 1.4-0.3 1.4-0.2 1.4-0.1 1.4v1.3 1.4l0.1 1.4 0.2 1.4 0.3 1.4 0.3 1.4 0.4 1.3 0.5 1.3 0.5 1.3 0.6 1.3 0.7 1.2 0.7 1.2 0.8 1.1 0.8 1.1 0.9 1.1 1 1 1 1 1.1 0.9 1.1 0.8 1.1 0.8 1.2 0.7 1.2 0.7 1.3 0.6 1.3 0.5 1.3 0.5 1.3 0.4 1.4 0.3 1.4 0.3 1.4 0.2 1.4 0.1h1.3 1.4l1.4-0.1 1.4-0.2 1.4-0.3 1.4-0.3 1.3-0.4 1.3-0.5 1.3-0.5 1.3-0.6 1.2-0.7 1.2-0.7 1.1-0.8 1.1-0.8 1.1-0.9 1-1 1-1 0.9-1.1 0.8-1.1 0.8-1.1 0.7-1.2 0.7-1.2 0.6-1.3 0.5-1.3 0.5-1.3 0.4-1.3 0.3-1.4 0.3-1.4 0.2-1.4 0.1-1.4v-1.3"/>
     </g>
     <g id="g4523" color="white">
      <g id="g4525" stroke="none" shape-rendering="crispEdges">
       <polygon id="polygon4527" points="336.5 176.7 336.4 174.2 336.2 171.7 335.9 169.1 335.4 166.6 334.8 164.1 334.1 161.7 333.3 159.3 332.3 156.9 331.2 154.6 330 152.4 328.6 150.2 327.2 148.1 325.6 146.1 324 144.1 322.2 142.3 320.4 140.5 318.4 138.9 316.4 137.3 314.3 135.9 312.1 134.5 309.9 133.3 307.6 132.2 305.2 131.2 302.8 130.4 300.4 129.7 297.9 129.1 295.4 128.6 292.8 128.3 290.3 128.1 287.8 128 285.2 128.1 282.7 128.3 280.1 128.6 277.6 129.1 275.1 129.7 272.7 130.4 270.3 131.2 267.9 132.2 265.6 133.3 263.4 134.5 261.2 135.9 259.1 137.3 257.1 138.9 255.1 140.5 253.3 142.3 251.5 144.1 249.9 146.1 248.3 148.1 246.9 150.2 245.5 152.4 244.3 154.6 243.2 156.9 242.2 159.3 241.4 161.7 240.7 164.1 240.1 166.6 239.6 169.1 239.3 171.7 239.1 174.2 239 176.7 239.1 179.3 239.3 181.8 239.6 184.4 240.1 186.9 240.7 189.4 241.4 191.8 242.2 194.2 243.2 196.6 244.3 198.9 245.5 201.1 246.9 203.3 248.3 205.4 249.9 207.4 251.5 209.4 253.3 211.2 255.1 213 257.1 214.6 259.1 216.2 261.2 217.6 263.4 219 265.6 220.2 267.9 221.3 270.3 222.3 272.7 223.1 275.1 223.8 277.6 224.4 280.1 224.9 282.7 225.2 285.2 225.4 287.7 225.5 290.3 225.4 292.8 225.2 295.4 224.9 297.9 224.4 300.4 223.8 302.8 223.1 305.2 222.3 307.6 221.3 309.9 220.2 312.1 219 314.3 217.6 316.4 216.2 318.4 214.6 320.4 213 322.2 211.2 324 209.4 325.6 207.4 327.2 205.4 328.6 203.3 330 201.1 331.2 198.9 332.3 196.6 333.3 194.2 334.1 191.8 334.8 189.4 335.4 186.9 335.9 184.4 336.2 181.8 336.4 179.3" fill="#fff"/>
      </g>
      <path id="path4529" stroke="#000" d="m336.5 176.7l-0.1-2.5-0.2-2.5-0.3-2.6-0.5-2.5-0.6-2.5-0.7-2.4-0.8-2.4-1-2.4-1.1-2.3-1.2-2.2-1.4-2.2-1.4-2.1-1.6-2-1.6-2-1.8-1.8-1.8-1.8-2-1.6-2-1.6-2.1-1.4-2.2-1.4-2.2-1.2-2.3-1.1-2.4-1-2.4-0.8-2.4-0.7-2.5-0.6-2.5-0.5-2.6-0.3-2.5-0.2-2.5-0.1-2.6 0.1-2.5 0.2-2.6 0.3-2.5 0.5-2.5 0.6-2.4 0.7-2.4 0.8-2.4 1-2.3 1.1-2.2 1.2-2.2 1.4-2.1 1.4-2 1.6-2 1.6-1.8 1.8-1.8 1.8-1.6 2-1.6 2-1.4 2.1-1.4 2.2-1.2 2.2-1.1 2.3-1 2.4-0.8 2.4-0.7 2.4-0.6 2.5-0.5 2.5-0.3 2.6-0.2 2.5-0.1 2.5 0.1 2.6 0.2 2.5 0.3 2.6 0.5 2.5 0.6 2.5 0.7 2.4 0.8 2.4 1 2.4 1.1 2.3 1.2 2.2 1.4 2.2 1.4 2.1 1.6 2 1.6 2 1.8 1.8 1.8 1.8 2 1.6 2 1.6 2.1 1.4 2.2 1.4 2.2 1.2 2.3 1.1 2.4 1 2.4 0.8 2.4 0.7 2.5 0.6 2.5 0.5 2.6 0.3 2.5 0.2 2.5 0.1 2.6-0.1 2.5-0.2 2.6-0.3 2.5-0.5 2.5-0.6 2.4-0.7 2.4-0.8 2.4-1 2.3-1.1 2.2-1.2 2.2-1.4 2.1-1.4 2-1.6 2-1.6 1.8-1.8 1.8-1.8 1.6-2 1.6-2 1.4-2.1 1.4-2.2 1.2-2.2 1.1-2.3 1-2.4 0.8-2.4 0.7-2.4 0.6-2.5 0.5-2.5 0.3-2.6 0.2-2.5 0.1-2.5"/>
      <g stroke="none" font-family="Stix Two Text" fill="#000">
       <g id="g4531" font-size="13" transform="translate(267.8,172.4)" text-anchor="end">
        <text id="text4533">
         <tspan id="tspan4535" font-family="Stix Two Text" font-style="italic">θ</tspan>
        </text>
       </g>
       <g id="g4537" font-size="16" transform="translate(30.4,156.1)" text-anchor="end">
        <text id="text4539">
         <tspan id="tspan4541" font-family="Stix Two Text" font-style="italic">b</tspan>
        </text>
       </g>
       <g id="g4543" font-size="16" transform="translate(344.2,209.7)">
        <text id="text4545">
         <tspan id="tspan4547" font-family="Stix Two Text" font-style="italic">θ</tspan>
        </text>
       </g>
      </g>
     </g>
    </g>
    <g>
     <g id="g4551" color="gray">
      <path id="path4553" stroke="gray" stroke-dasharray="2,4" d="m21.2 123.4h373.3"/>
     </g>
     <g id="g4555" color="gray">
      <path id="path4557" stroke="gray" stroke-dasharray="2,4" d="m21.2 176.7h373.3"/>
     </g>
     <g id="g4559" color="gray">
      <path id="path4561" stroke="gray" stroke-dasharray="2,4" d="m234.5 123.4l53.3-106.7"/>
     </g>
     <g id="g4563" color="gray">
      <path id="path4565" stroke="gray" stroke-dasharray="2,4" d="m234.5 123.4l160 160"/>
     </g>
    </g>
    <g stroke-width="1.5">
     <g id="g4569" color="black">
      <g id="g4571" stroke="none" shape-rendering="crispEdges">
       <polygon id="polygon4573" points="150.8 123.4 145.6 118.3 154.5 123.4 145.6 128.5" fill="#e69f00"/>
      </g>
      <path id="path4575" stroke="#e69f00" d="m150.8 123.4l-5.2-5.1 8.9 5.1-8.9 5.1 5.2-5.1m-49.6 0h49.6"/>
     </g>
     <g id="g4577" color="black">
      <g id="g4579" stroke="none" shape-rendering="crispEdges">
       <polygon id="polygon4581" points="262.6 67.2 255.7 69.5 264.2 63.9 264.8 74.1" fill="#e69f00"/>
      </g>
      <path id="path4583" stroke="#e69f00" d="m262.6 67.2l-6.9 2.3 8.5-5.6 0.6 10.2-2.2-6.9m-16.2 32.3l16.2-32.3"/>
     </g>
     <g id="g4585" color="black">
      <g id="g4587" stroke="none" shape-rendering="crispEdges">
       <polygon id="polygon4589" points="337.5 226.4 337.5 219.1 340.1 229 330.2 226.4" fill="#0072b2"/>
      </g>
      <path id="path4591" stroke="#0072b2" d="m337.5 226.4v-7.3l2.6 9.9-9.9-2.6h7.3m-15.2-15.2l15.2 15.2"/>
     </g>
    </g>
    <g>
     <g id="g4595" color="black">
      <g id="g4597" stroke="none" fill="#e51e10" shape-rendering="crispEdges">
       <polygon id="polygon4599" points="34.5 133 31 133 34.5 123.4 38 133"/>
       <polygon id="polygon4601" points="34.5 167.1 38 167.1 34.5 176.7 31 167.1"/>
      </g>
      <path id="path4603" stroke="#e51e10" d="m34.5 167.1v-34.1"/>
     </g>
     <g id="g4605" color="black">
      <g id="g4607" stroke="none" fill="#009e73" shape-rendering="crispEdges">
       <polygon id="polygon4609" points="246.6 135.5 249.1 133 253.4 142.3 244.1 138"/>
       <polygon id="polygon4611" points="241.3 130.2 238.8 132.7 234.5 123.4 243.8 127.7"/>
      </g>
      <path id="path4613" stroke="#009e73" d="m241.3 130.2l5.3 5.3"/>
     </g>
     <g id="g4615" color="black">
      <g id="g4617" stroke="none" fill="#56b4e9" shape-rendering="crispEdges">
       <polygon id="polygon4619" points="260.1 149 257.6 151.5 253.3 142.2 262.6 146.5"/>
       <polygon id="polygon4621" points="281 169.9 283.5 167.4 287.8 176.7 278.5 172.4"/>
      </g>
      <path id="path4623" stroke="#56b4e9" d="m281 169.9l-20.9-20.9"/>
     </g>
    </g>
   </g>
  </g>
  <g id="gnuplot_plot_1">
   <title id="title4628"/>
   <g id="g4632" color="black" stroke="currentColor" stroke-width=".5" fill="none">
    <path id="path4634" stroke="#e51e10" d="m268.3 176.7v-0.1-0.2-0.1l0.1-0.2v-0.2-0.1-0.2-0.1-0.2-0.1-0.2-0.1-0.2l0.1-0.1v-0.2-0.1-0.2-0.2l0.1-0.1v-0.2-0.1-0.2l0.1-0.1v-0.2-0.1l0.1-0.2v-0.1-0.2l0.1-0.1v-0.2-0.1l0.1-0.2v-0.1-0.2l0.1-0.1v-0.2l0.1-0.1v-0.2l0.1-0.1v-0.2l0.1-0.1v-0.2l0.1-0.1v-0.2l0.1-0.1v-0.1l0.1-0.2v-0.1l0.1-0.2 0.1-0.1v-0.2l0.1-0.1v-0.1l0.1-0.2 0.1-0.1v-0.2l0.1-0.1 0.1-0.1v-0.2l0.1-0.1 0.1-0.2 0.1-0.1v-0.1l0.1-0.2 0.1-0.1 0.1-0.1v-0.2l0.1-0.1 0.1-0.1 0.1-0.2 0.1-0.1v-0.1l0.1-0.2 0.1-0.1 0.1-0.1 0.1-0.1 0.1-0.2 0.1-0.1v-0.1l0.1-0.1 0.1-0.2 0.1-0.1 0.1-0.1 0.1-0.1 0.1-0.2 0.1-0.1 0.1-0.1 0.1-0.1 0.1-0.1 0.1-0.2 0.1-0.1 0.1-0.1 0.1-0.1 0.1-0.1 0.1-0.1 0.1-0.1 0.1-0.2 0.1-0.1 0.2-0.1"/>
   </g>
  </g>
  <g id="gnuplot_plot_2">
   <title id="title4637"/>
   <g id="g4639" color="black" stroke="currentColor" stroke-width=".5" fill="none">
    <path id="path4641" stroke="#e51e10" d="m346.7 176.7v0.5l-0.1 0.5v0.4 0.5 0.5 0.4 0.5l-0.1 0.5v0.4 0.5l-0.1 0.4v0.5l-0.1 0.5v0.4l-0.1 0.5v0.5l-0.1 0.4v0.5l-0.1 0.5-0.1 0.4-0.1 0.5v0.4l-0.1 0.5-0.1 0.5-0.1 0.4-0.1 0.5-0.1 0.4-0.1 0.5-0.1 0.4-0.1 0.5-0.1 0.4-0.1 0.5-0.2 0.4-0.1 0.5-0.1 0.4-0.1 0.5-0.2 0.4-0.1 0.5-0.1 0.4-0.2 0.5-0.1 0.4-0.2 0.5-0.1 0.4-0.2 0.4-0.2 0.5-0.1 0.4-0.2 0.4-0.2 0.5-0.1 0.4-0.2 0.4-0.2 0.5-0.2 0.4-0.2 0.4-0.2 0.5-0.2 0.4-0.2 0.4-0.2 0.4-0.2 0.4-0.2 0.5-0.2 0.4-0.2 0.4-0.2 0.4-0.2 0.4-0.3 0.4-0.2 0.4-0.2 0.4-0.3 0.4-0.2 0.4-0.2 0.4-0.3 0.4-0.2 0.4-0.3 0.4-0.2 0.4-0.3 0.4-0.3 0.4-0.2 0.4-0.3 0.4-0.3 0.3-0.2 0.4-0.3 0.4-0.3 0.4-0.3 0.3-0.2 0.4-0.3 0.4-0.3 0.3-0.3 0.4-0.3 0.4-0.3 0.3-0.3 0.4-0.3 0.3-0.3 0.4-0.3 0.3-0.3 0.4-0.4 0.3-0.3 0.4-0.3 0.3-0.3 0.3-0.3 0.4-0.4 0.3"/>
   </g>
  </g>
 </g>
 <g stroke-width="0" fill-rule="evenodd" stroke="#000" stroke-miterlimit="10.433">
  <g id="content" xml:space="preserve" ns0:pdfconverter="pstoedit" transform="matrix(1.75 0 0 -1.75 -143.08 1352.7)" ns0:text="$\\vec{v}_{1i}$" ns0:version="0.7.2" ns0:inkscapeversion="0.91" ns0:preamble="/usr/share/inkscape/extensions/default_packages.tex" ns0:scale="1.4" ns0:texconverter="pdflatex"><polygon id="polygon4765" points="152.64 714.32 153.18 713.32 149.85 713.32 149.76 712.93 153.1 712.93 152.12 711.92 152.31 711.68 153.98 713.12 152.93 714.56"/><path id="path4767" d="m148.92 711.14h0.02 0.02 0.02 0.02 0.02 0.01l0.02 0.01h0.02 0.03 0.02 0.02 0.02 0.02 0.02 0.02c0.39 0 0.49-0.17 0.63-1.09 0.1-0.69 0.22-2.19 0.22-2.77 0-0.28 0.02-0.35 0.08-0.35 0.25 0 1.18 1.06 2.2 2.47 0.35 0.5 0.6 1.15 0.6 1.52 0 0.32-0.25 0.59-0.55 0.59-0.22 0-0.37-0.13-0.37-0.34 0-0.16 0.06-0.28 0.24-0.44 0.13-0.12 0.18-0.2 0.18-0.3 0-0.46-0.66-1.56-1.37-2.3l-0.31-0.32c-0.07 1.4-0.13 1.92-0.26 2.66-0.2 1.02-0.2 1.04-0.29 1.04-0.05 0-0.12-0.01-0.2-0.04-0.17-0.05-0.72-0.15-1.1-0.21z"/><path id="path4769" d="m155.16 710.34-1.25-0.63v-0.1c0.08 0.04 0.16 0.06 0.19 0.08 0.12 0.05 0.24 0.08 0.31 0.08 0.15 0 0.21-0.11 0.21-0.33v-3.16c0-0.23-0.05-0.39-0.17-0.45-0.1-0.07-0.2-0.09-0.49-0.1v-0.1h1.92v0.1c-0.55 0.01-0.66 0.08-0.66 0.42v4.18z"/><path id="path4771" d="m158.17 706.42-0.01-0.02-0.02-0.01-0.01-0.02-0.02-0.02-0.01-0.02-0.01-0.01-0.01-0.02-0.01-0.01-0.02-0.02-0.01-0.01-0.01-0.01-0.01-0.02v-0.01l-0.01-0.01-0.01-0.01-0.01-0.01-0.01-0.01v-0.01h-0.01l-0.01-0.01-0.01-0.01v-0.01l-0.01-0.01-0.02-0.02-0.01-0.01-0.01-0.02-0.02-0.01c-0.11-0.12-0.22-0.19-0.28-0.19s-0.11 0.06-0.11 0.11c0 0.06 0.02 0.17 0.07 0.3 0 0.02 0.02 0.07 0.03 0.13v0.01l0.01 0.02 0.61 2.24-0.02 0.02c-0.7-0.14-0.84-0.16-1.11-0.18v-0.11c0.37-0.01 0.43-0.03 0.43-0.17 0-0.05-0.02-0.16-0.06-0.3l-0.33-1.24c-0.11-0.4-0.16-0.62-0.16-0.76 0-0.26 0.12-0.4 0.33-0.4 0.32 0 0.57 0.21 0.97 0.8z"/><path id="path4773" d="m158.12 710.19h-0.02-0.02-0.02l-0.01-0.01h-0.02l-0.02-0.01h-0.01l-0.02-0.01h-0.01l-0.01-0.01-0.02-0.01-0.01-0.01-0.01-0.01-0.02-0.01-0.01-0.01-0.01-0.02-0.01-0.01-0.01-0.01-0.01-0.02-0.01-0.01-0.01-0.02v-0.01l-0.01-0.02-0.01-0.01v-0.02l-0.01-0.02v-0.01l-0.01-0.02v-0.02-0.02-0.02-0.02c0-0.22 0.13-0.37 0.33-0.37 0.18 0 0.34 0.16 0.34 0.36s-0.16 0.38-0.34 0.38z"/></g>
  <g id="g5246" xml:space="preserve" ns0:pdfconverter="pstoedit" transform="matrix(1.75 0 0 -1.75 -58.462 1464.4)" ns0:text="$\\vec{v}_{2i} = 0$" ns0:version="0.7.2" ns0:inkscapeversion="0.91" ns0:preamble="/usr/share/inkscape/extensions/default_packages.tex" ns0:scale="1.4" ns0:texconverter="pdflatex"><polygon id="polygon5248" points="153.18 713.32 149.85 713.32 149.76 712.93 153.1 712.93 152.12 711.92 152.31 711.68 153.98 713.12 152.93 714.56 152.64 714.32"/><path id="path5250" d="m148.92 711.14h0.02 0.02 0.02 0.02 0.02 0.01l0.02 0.01h0.02 0.03 0.02 0.02 0.02 0.02 0.02 0.02c0.39 0 0.49-0.17 0.63-1.09 0.1-0.69 0.22-2.19 0.22-2.77 0-0.28 0.02-0.35 0.08-0.35 0.25 0 1.18 1.06 2.2 2.47 0.35 0.5 0.6 1.15 0.6 1.52 0 0.32-0.25 0.59-0.55 0.59-0.22 0-0.37-0.13-0.37-0.34 0-0.16 0.06-0.28 0.24-0.44 0.13-0.12 0.18-0.2 0.18-0.3 0-0.46-0.66-1.56-1.37-2.3l-0.31-0.32c-0.07 1.4-0.13 1.92-0.26 2.66-0.2 1.02-0.2 1.04-0.29 1.04-0.05 0-0.12-0.01-0.2-0.04-0.17-0.05-0.72-0.15-1.1-0.21z"/><path id="path5252" d="m156.45 706.59-0.09 0.03c-0.26-0.4-0.35-0.46-0.67-0.46h-1.66l1.17 1.23c0.62 0.65 0.89 1.18 0.89 1.72 0 0.7-0.56 1.23-1.29 1.23-0.38 0-0.74-0.15-1-0.43-0.23-0.24-0.33-0.46-0.45-0.95l0.15-0.04c0.28 0.68 0.53 0.91 1.01 0.91 0.59 0 0.98-0.4 0.98-0.99 0-0.54-0.32-1.19-0.9-1.81l-1.25-1.32v-0.08h2.72z"/><path id="path5254" d="m158.17 706.42-0.01-0.02-0.02-0.01-0.01-0.02-0.02-0.02-0.01-0.02-0.01-0.01-0.01-0.02-0.01-0.01-0.02-0.02-0.01-0.01-0.01-0.01-0.01-0.02v-0.01l-0.01-0.01-0.01-0.01-0.01-0.01-0.01-0.01v-0.01h-0.01l-0.01-0.01-0.01-0.01v-0.01l-0.01-0.01-0.02-0.02-0.01-0.01-0.01-0.02-0.02-0.01c-0.11-0.12-0.22-0.19-0.28-0.19s-0.11 0.06-0.11 0.11c0 0.06 0.02 0.17 0.07 0.3 0 0.02 0.02 0.07 0.03 0.13v0.01l0.01 0.02 0.61 2.24-0.02 0.02c-0.7-0.14-0.84-0.16-1.11-0.18v-0.11c0.37-0.01 0.43-0.03 0.43-0.17 0-0.05-0.02-0.16-0.06-0.3l-0.33-1.24c-0.11-0.4-0.16-0.62-0.16-0.76 0-0.26 0.12-0.4 0.33-0.4 0.32 0 0.57 0.21 0.97 0.8z"/><path id="path5256" d="m158.12 710.19h-0.02-0.02-0.02l-0.01-0.01h-0.02l-0.02-0.01h-0.01l-0.02-0.01h-0.01l-0.01-0.01-0.02-0.01-0.01-0.01-0.01-0.01-0.02-0.01-0.01-0.01-0.01-0.02-0.01-0.01-0.01-0.01-0.01-0.02-0.01-0.01-0.01-0.02v-0.01l-0.01-0.02-0.01-0.01v-0.02l-0.01-0.02v-0.01l-0.01-0.02v-0.02-0.02-0.02-0.02c0-0.22 0.13-0.37 0.33-0.37 0.18 0 0.34 0.16 0.34 0.36s-0.16 0.38-0.34 0.38z"/><polygon id="polygon5258" points="167.55 710.41 167.55 710.97 162.45 710.97 162.45 710.41"/><polygon id="polygon5260" points="167.55 708.39 167.55 708.95 162.45 708.95 162.45 708.39"/><path id="path5262" d="m173.46 713.86h-0.05-0.05l-0.05-0.01h-0.05l-0.04-0.01h-0.05l-0.05-0.01h-0.04l-0.05-0.01-0.05-0.01-0.04-0.01-0.04-0.01-0.05-0.02-0.04-0.01-0.04-0.02-0.04-0.01-0.04-0.02-0.04-0.02-0.04-0.01-0.04-0.02-0.04-0.02-0.04-0.03-0.04-0.02-0.03-0.02-0.04-0.03-0.04-0.02-0.04-0.03-0.03-0.03-0.04-0.03-0.03-0.03-0.04-0.03-0.03-0.03c-0.58-0.56-0.96-1.7-0.96-2.87 0-1.09 0.33-2.25 0.8-2.81 0.37-0.44 0.88-0.68 1.45-0.68v0.26c-0.85 0-1.29 1.07-1.29 3.14 0 2.11 0.45 3.22 1.3 3.22 0.84 0 1.29-1.13 1.29-3.21s-0.44-3.15-1.3-3.15v-0.26c0.51 0 0.94 0.17 1.3 0.52 0.58 0.55 0.96 1.71 0.96 2.91 0 2.04-0.91 3.45-2.22 3.45z"/></g>
  <g id="g5508" xml:space="preserve" ns0:pdfconverter="pstoedit" transform="matrix(1.75 0 0 -1.75 -28.856 1314.7)" ns0:text="$\\vec{v}_{1f}$" ns0:version="0.7.2" ns0:inkscapeversion="0.91" ns0:preamble="/usr/share/inkscape/extensions/default_packages.tex" ns0:scale="1.4" ns0:texconverter="pdflatex"><polygon id="polygon5510" points="152.93 714.56 152.64 714.32 153.18 713.32 149.85 713.32 149.76 712.93 153.1 712.93 152.12 711.92 152.31 711.68 153.98 713.12"/><path id="path5512" d="m148.92 711.14h0.02 0.02 0.02 0.02 0.02 0.01l0.02 0.01h0.02 0.03 0.02 0.02 0.02 0.02 0.02 0.02c0.39 0 0.49-0.17 0.63-1.09 0.1-0.69 0.22-2.19 0.22-2.77 0-0.28 0.02-0.35 0.08-0.35 0.25 0 1.18 1.06 2.2 2.47 0.35 0.5 0.6 1.15 0.6 1.52 0 0.32-0.25 0.59-0.55 0.59-0.22 0-0.37-0.13-0.37-0.34 0-0.16 0.06-0.28 0.24-0.44 0.13-0.12 0.18-0.2 0.18-0.3 0-0.46-0.66-1.56-1.37-2.3l-0.31-0.32c-0.07 1.4-0.13 1.92-0.26 2.66-0.2 1.02-0.2 1.04-0.29 1.04-0.05 0-0.12-0.01-0.2-0.04-0.17-0.05-0.72-0.15-1.1-0.21z"/><path id="path5514" d="m155.16 710.34-1.25-0.63v-0.1c0.08 0.04 0.16 0.06 0.19 0.08 0.12 0.05 0.24 0.08 0.31 0.08 0.15 0 0.21-0.11 0.21-0.33v-3.16c0-0.23-0.05-0.39-0.17-0.45-0.1-0.07-0.2-0.09-0.49-0.1v-0.1h1.92v0.1c-0.55 0.01-0.66 0.08-0.66 0.42v4.18z"/><path id="path5516" d="m157.92 708.39h0.62l-0.61-2.93c-0.15-0.74-0.38-1.13-0.68-1.13-0.08 0-0.13 0.05-0.13 0.11 0 0.03 0 0.05 0.02 0.08 0.03 0.04 0.04 0.07 0.04 0.11 0 0.15-0.13 0.27-0.28 0.27-0.14 0-0.25-0.13-0.25-0.29 0-0.23 0.24-0.42 0.55-0.42 0.62 0 1.11 0.69 1.39 1.97l0.51 2.23h0.75l0.05 0.22h-0.76c0.21 1.1 0.46 1.6 0.85 1.6 0.1 0 0.16-0.04 0.16-0.09 0-0.02-0.01-0.03-0.03-0.07-0.03-0.06-0.04-0.1-0.04-0.14 0-0.17 0.1-0.28 0.26-0.28s0.29 0.12 0.29 0.28c0 0.25-0.26 0.45-0.6 0.45s-0.61-0.15-0.87-0.48c-0.2-0.28-0.34-0.6-0.55-1.27h-0.65z"/></g>
  <g id="g5978" xml:space="preserve" ns0:pdfconverter="pstoedit" transform="matrix(1.75 0 0 -1.75 -33.864 1381.9)" ns0:text="$R_1$" ns0:version="0.7.2" ns0:inkscapeversion="0.91" ns0:preamble="/usr/share/inkscape/extensions/default_packages.tex" ns0:scale="1.4" ns0:texconverter="pdflatex"><path id="path5980" d="m154.36 707.28-0.04 0.01h-0.04-0.04l-0.03 0.01-0.04 0.01h-0.03l-0.04 0.01-0.03 0.01-0.03 0.01-0.03 0.02-0.03 0.01-0.03 0.02-0.02 0.01-0.03 0.02-0.02 0.02-0.03 0.02-0.02 0.02-0.02 0.02-0.03 0.03-0.02 0.02-0.02 0.03-0.02 0.03-0.02 0.03-0.02 0.03-0.02 0.04-0.02 0.03-0.02 0.04-0.02 0.04-0.01 0.04-0.02 0.05-0.02 0.04-0.02 0.05-0.93 2.44c0.77 0.17 1.1 0.31 1.46 0.63 0.33 0.29 0.51 0.67 0.51 1.12 0 0.93-0.74 1.44-2.07 1.44l-0.21-0.3c0.82 0 1.23-0.38 1.23-1.12 0-0.98-0.64-1.49-1.88-1.49-0.16 0-0.27 0.01-0.51 0.05l0.65 2.28c0.06 0.21 0.19 0.28 0.51 0.28l0.21 0.3h-2.48v-0.16c0.42-0.06 0.47-0.07 0.57-0.14 0.08-0.05 0.14-0.17 0.14-0.28 0-0.12-0.05-0.36-0.12-0.63l-1.22-4.4c-0.18-0.59-0.25-0.65-0.81-0.74v-0.16h2.43v0.16c-0.61 0.08-0.68 0.13-0.68 0.46 0 0.1 0.03 0.23 0.12 0.58l0.56 2.08 0.65-0.05 1.22-3.23h1.48z"/><path id="path5982" d="m156.83 710.34-1.26-0.63v-0.1c0.09 0.04 0.16 0.06 0.19 0.08 0.13 0.05 0.25 0.08 0.32 0.08 0.14 0 0.21-0.11 0.21-0.33v-3.16c0-0.23-0.06-0.39-0.17-0.45-0.11-0.07-0.2-0.09-0.5-0.1v-0.1h1.93v0.1c-0.55 0.01-0.67 0.08-0.67 0.42v4.18z"/></g>
  <g id="g6244" xml:space="preserve" ns0:pdfconverter="pstoedit" transform="matrix(1.75 0 0 -1.75 13.646 1393.9)" ns0:text="$R_2$" ns0:version="0.7.2" ns0:inkscapeversion="0.91" ns0:preamble="/usr/share/inkscape/extensions/default_packages.tex" ns0:scale="1.4" ns0:texconverter="pdflatex"><path id="path6246" d="m154.36 707.28-0.04 0.01h-0.04-0.04l-0.03 0.01-0.04 0.01h-0.03l-0.04 0.01-0.03 0.01-0.03 0.01-0.03 0.02-0.03 0.01-0.03 0.02-0.02 0.01-0.03 0.02-0.02 0.02-0.03 0.02-0.02 0.02-0.02 0.02-0.03 0.03-0.02 0.02-0.02 0.03-0.02 0.03-0.02 0.03-0.02 0.03-0.02 0.04-0.02 0.03-0.02 0.04-0.02 0.04-0.01 0.04-0.02 0.05-0.02 0.04-0.02 0.05-0.93 2.44c0.77 0.17 1.1 0.31 1.46 0.63 0.33 0.29 0.51 0.67 0.51 1.12 0 0.93-0.74 1.44-2.07 1.44l-0.21-0.3c0.82 0 1.23-0.38 1.23-1.12 0-0.98-0.64-1.49-1.88-1.49-0.16 0-0.27 0.01-0.51 0.05l0.65 2.28c0.06 0.21 0.19 0.28 0.51 0.28l0.21 0.3h-2.48v-0.16c0.42-0.06 0.47-0.07 0.57-0.14 0.08-0.05 0.14-0.17 0.14-0.28 0-0.12-0.05-0.36-0.12-0.63l-1.22-4.4c-0.18-0.59-0.25-0.65-0.81-0.74v-0.16h2.43v0.16c-0.61 0.08-0.68 0.13-0.68 0.46 0 0.1 0.03 0.23 0.12 0.58l0.56 2.08 0.65-0.05 1.22-3.23h1.48z"/><path id="path6248" d="m158.11 706.59-0.09 0.03c-0.26-0.4-0.35-0.46-0.66-0.46h-1.67l1.17 1.23c0.63 0.65 0.9 1.18 0.9 1.72 0 0.7-0.57 1.23-1.29 1.23-0.39 0-0.75-0.15-1.01-0.43-0.22-0.24-0.33-0.46-0.44-0.95l0.14-0.04c0.28 0.68 0.53 0.91 1.01 0.91 0.59 0 0.99-0.4 0.99-0.99 0-0.54-0.32-1.19-0.91-1.81l-1.24-1.32v-0.08h2.72z"/></g>
  <g id="g6516" xml:space="preserve" ns0:pdfconverter="pstoedit" transform="matrix(1.75 0 0 -1.75 47.144 1472.7)" ns0:text="$\\vec{v}_{2f}$" ns0:version="0.7.2" ns0:inkscapeversion="0.91" ns0:preamble="/usr/share/inkscape/extensions/default_packages.tex" ns0:scale="1.4" ns0:texconverter="pdflatex"><polygon id="polygon6518" points="152.93 714.56 152.64 714.32 153.18 713.32 149.85 713.32 149.76 712.93 153.1 712.93 152.12 711.92 152.31 711.68 153.98 713.12"/><path id="path6520" d="m148.92 711.14h0.02 0.02 0.02 0.02 0.02 0.01l0.02 0.01h0.02 0.03 0.02 0.02 0.02 0.02 0.02 0.02c0.39 0 0.49-0.17 0.63-1.09 0.1-0.69 0.22-2.19 0.22-2.77 0-0.28 0.02-0.35 0.08-0.35 0.25 0 1.18 1.06 2.2 2.47 0.35 0.5 0.6 1.15 0.6 1.52 0 0.32-0.25 0.59-0.55 0.59-0.22 0-0.37-0.13-0.37-0.34 0-0.16 0.06-0.28 0.24-0.44 0.13-0.12 0.18-0.2 0.18-0.3 0-0.46-0.66-1.56-1.37-2.3l-0.31-0.32c-0.07 1.4-0.13 1.92-0.26 2.66-0.2 1.02-0.2 1.04-0.29 1.04-0.05 0-0.12-0.01-0.2-0.04-0.17-0.05-0.72-0.15-1.1-0.21z"/><path id="path6522" d="m156.45 706.59-0.09 0.03c-0.26-0.4-0.35-0.46-0.67-0.46h-1.66l1.17 1.23c0.62 0.65 0.89 1.18 0.89 1.72 0 0.7-0.56 1.23-1.29 1.23-0.38 0-0.74-0.15-1-0.43-0.23-0.24-0.33-0.46-0.45-0.95l0.15-0.04c0.28 0.68 0.53 0.91 1.01 0.91 0.59 0 0.98-0.4 0.98-0.99 0-0.54-0.32-1.19-0.9-1.81l-1.25-1.32v-0.08h2.72z"/><path id="path6524" d="m157.92 708.39h0.62l-0.61-2.93c-0.15-0.74-0.38-1.13-0.68-1.13-0.08 0-0.13 0.05-0.13 0.11 0 0.03 0 0.05 0.02 0.08 0.03 0.04 0.04 0.07 0.04 0.11 0 0.15-0.13 0.27-0.28 0.27-0.14 0-0.25-0.13-0.25-0.29 0-0.23 0.24-0.42 0.55-0.42 0.62 0 1.11 0.69 1.39 1.97l0.51 2.23h0.75l0.05 0.22h-0.76c0.21 1.1 0.46 1.6 0.85 1.6 0.1 0 0.16-0.04 0.16-0.09 0-0.02-0.01-0.03-0.03-0.07-0.03-0.06-0.04-0.1-0.04-0.14 0-0.17 0.1-0.28 0.26-0.28s0.29 0.12 0.29 0.28c0 0.25-0.26 0.45-0.6 0.45s-0.61-0.15-0.87-0.48c-0.2-0.28-0.34-0.6-0.55-1.27h-0.65z"/></g>
 </g>
</svg>
