<?xml version="1.0" encoding="UTF-8" standalone="no"?>
<svg id="svg4635" xmlns:rdf="http://www.w3.org/1999/02/22-rdf-syntax-ns#" xmlns="http://www.w3.org/2000/svg" xmlns:ns0="http://www.iki.fi/pav/software/textext/" height="250" width="300" version="1.1" xmlns:cc="http://creativecommons.org/ns#" xmlns:xlink="http://www.w3.org/1999/xlink" viewBox="0 0 300 250" xmlns:dc="http://purl.org/dc/elements/1.1/">
 <style type="text/css">
	@import url('../estilo.css');
 </style>
 <defs>
  <circle id="gpPt5" stroke-width=".222" cy="0" stroke="currentColor" cx="0" r="1"/>
  <use id="gpPt6" xlink:href="#gpPt5" fill="currentColor"/>
 </defs>
 <metadata id="metadata4838">
  <rdf:RDF>
   <cc:Work rdf:about="">
    <dc:format>image/svg+xml</dc:format>
    <dc:type rdf:resource="http://purl.org/dc/dcmitype/StillImage"/>
    <dc:title>Gnuplot</dc:title>
   </cc:Work>
  </rdf:RDF>
 </metadata>
 <title id="title4637">Gnuplot</title>
 <desc id="desc4639">Produced by GNUPLOT 5.0 patchlevel 3</desc>
 <g id="gnuplot_canvas">
  <rect id="rect4642" height="250" width="300" y="0" x="0" fill="none"/>
  <g>
   <g>
    <g id="g4674" font-size="16" font-family="Stix Two Text" color="black">
     <g id="g4676" transform="translate(203.7,110.9)">
      <text id="text4678">
       <tspan id="tspan4680" font-family="Stix Two Text" font-style="italic">φ</tspan>
      </text>
     </g>
     <g id="g4682" transform="translate(210.2,151.8)">
      <text id="text4684">
       <tspan id="tspan4686" font-family="Stix Two Text" font-style="italic">θ</tspan>
      </text>
     </g>
    </g>
    <g id="g4688" color="gray" stroke="currentColor" fill="none">
     <path id="path4690" stroke="gray" stroke-dasharray="2,4" d="m20.7 125h254.3"/>
    </g>
    <g id="g4692" color="gray" stroke="currentColor" fill="none">
     <path id="path4694" stroke="gray" stroke-dasharray="2,4" d="m169 125l106-106"/>
    </g>
    <g id="g4696" color="gray" stroke="currentColor" fill="none">
     <path id="path4698" stroke="gray" stroke-dasharray="2,4" d="m169 125l106 105.9"/>
    </g>
   </g>
   <g stroke="currentColor" stroke-width="1.5" fill="none">
    <g id="g4702" color="black">
     <g id="g4704" stroke="none" shape-rendering="crispEdges">
      <polygon id="polygon4706" points="123 125 117.8 119.9 126.7 125 117.8 130.1" fill="#e69f00"/>
     </g>
     <path id="path4708" stroke="#e69f00" d="m123 125l-5.2-5.1 8.9 5.1-8.9 5.1 5.2-5.1m-81.1 0h81.1"/>
    </g>
    <g id="g4710" color="black">
     <g id="g4712" stroke="none" shape-rendering="crispEdges">
      <polygon id="polygon4714" points="251.2 42.9 243.9 42.9 253.8 40.3 251.2 50.2" fill="#e69f00"/>
     </g>
     <path id="path4716" stroke="#e69f00" d="m251.2 42.9h-7.3l9.9-2.6-2.6 9.9v-7.3m-39.8 39.8l39.8-39.8"/>
    </g>
    <g id="g4718" color="black">
     <g id="g4720" stroke="none" shape-rendering="crispEdges">
      <polygon id="polygon4722" points="251.2 207.2 251.2 199.9 253.8 209.8 243.9 207.2" fill="#0072b2"/>
     </g>
     <path id="path4724" stroke="#0072b2" d="m251.2 207.2v-7.3l2.6 9.9-9.9-2.6h7.3m-39.8-39.8l39.8 39.8"/>
    </g>
   </g>
  </g>
  <g id="gnuplot_plot_1">
   <title id="title4731"/>
   <g id="g4735" color="black" stroke="currentColor" stroke-width=".5" fill="none">
    <path id="path4737" stroke="#000" d="m202.9 125v-0.2-0.3-0.3-0.2-0.3-0.3-0.2-0.3-0.3l-0.1-0.2v-0.3-0.3-0.2l-0.1-0.3v-0.3-0.2l-0.1-0.3v-0.3-0.2l-0.1-0.3v-0.3l-0.1-0.2v-0.3l-0.1-0.3v-0.2l-0.1-0.3v-0.3l-0.1-0.2v-0.3l-0.1-0.2-0.1-0.3v-0.3l-0.1-0.2-0.1-0.3-0.1-0.2v-0.3l-0.1-0.3-0.1-0.2-0.1-0.3v-0.2l-0.1-0.3-0.1-0.2-0.1-0.3-0.1-0.2-0.1-0.3-0.1-0.2-0.1-0.3-0.1-0.3-0.1-0.2-0.1-0.2-0.1-0.3-0.1-0.2-0.1-0.3-0.1-0.2-0.1-0.3-0.1-0.2-0.2-0.3-0.1-0.2-0.1-0.2-0.1-0.3-0.1-0.2-0.2-0.3-0.1-0.2-0.1-0.2-0.2-0.3-0.1-0.2-0.1-0.2-0.2-0.3-0.1-0.2-0.1-0.2-0.2-0.3-0.1-0.2-0.2-0.2-0.1-0.2-0.2-0.3-0.1-0.2-0.2-0.2-0.1-0.2-0.2-0.2-0.2-0.3-0.1-0.2-0.2-0.2-0.1-0.2-0.2-0.2-0.2-0.2-0.1-0.2-0.2-0.2-0.2-0.2-0.2-0.2-0.1-0.3-0.2-0.2-0.2-0.2-0.2-0.2-0.2-0.2-0.1-0.2-0.2-0.1-0.2-0.2-0.2-0.2-0.2-0.2"/>
   </g>
  </g>
  <g id="gnuplot_plot_2">
   <title id="title4740"/>
   <g id="g4742" color="black" stroke="currentColor" stroke-width=".5" fill="none">
    <path id="path4744" stroke="#000" d="m211.4 125v0.4 0.3 0.4 0.3 0.3 0.4 0.3l-0.1 0.3v0.4 0.3 0.3l-0.1 0.4v0.3 0.3l-0.1 0.4v0.3l-0.1 0.3v0.4l-0.1 0.3v0.3l-0.1 0.4v0.3l-0.1 0.3v0.4l-0.1 0.3-0.1 0.3v0.4l-0.1 0.3-0.1 0.3-0.1 0.3-0.1 0.4v0.3l-0.1 0.3-0.1 0.3-0.1 0.4-0.1 0.3-0.1 0.3-0.1 0.3-0.1 0.4-0.1 0.3-0.1 0.3-0.1 0.3-0.1 0.3-0.1 0.3-0.1 0.4-0.2 0.3-0.1 0.3-0.1 0.3-0.1 0.3-0.2 0.3-0.1 0.3-0.1 0.3-0.2 0.3-0.1 0.4-0.1 0.3-0.2 0.3-0.1 0.3-0.2 0.3-0.1 0.3-0.2 0.3-0.1 0.3-0.2 0.3-0.2 0.3-0.1 0.3-0.2 0.2-0.2 0.3-0.1 0.3-0.2 0.3-0.2 0.3-0.1 0.3-0.2 0.3-0.2 0.3-0.2 0.2-0.2 0.3-0.2 0.3-0.1 0.3-0.2 0.3-0.2 0.2-0.2 0.3-0.2 0.3-0.2 0.2-0.2 0.3-0.2 0.3-0.2 0.2-0.3 0.3-0.2 0.3-0.2 0.2-0.2 0.3-0.2 0.2-0.2 0.3-0.2 0.3-0.3 0.2-0.2 0.3-0.2 0.2-0.3 0.3-0.2 0.2-0.2 0.2-0.3 0.3-0.2 0.2"/>
   </g>
  </g>
  <g stroke="currentColor" fill="none">
   <g id="g4748" color="black" stroke-width="2">
    <g id="g4750" font-size="12" transform="translate(46.4 125)" stroke="none" font-family="Arial" fill="#000">
     <text id="text4752"/>
    </g>
   </g>
   <g>
    <g id="g4756" color="black">
     <use id="use4758" color="rgb(229,  30,  16)" xlink:href="#gpPt6" transform="translate(41.9 125) scale(3.38)"/>
    </g>
    <g id="g4760" color="black">
     <g id="g4762" font-size="12" transform="translate(46.4 125)" stroke="none" font-family="Arial" fill="#000">
      <text id="text4764"/>
     </g>
    </g>
    <g id="g4766" color="black">
     <use id="use4768" color="black" xlink:href="#gpPt5" transform="translate(41.9 125) scale(3.38)"/>
    </g>
    <g id="g4770" color="black">
     <g id="g4772" font-size="12" transform="translate(215.9,82.7)" stroke="none" font-family="Arial" fill="#000">
      <text id="text4774"/>
     </g>
    </g>
    <g id="g4776" color="black">
     <use id="use4778" color="rgb(229,  30,  16)" xlink:href="#gpPt6" transform="translate(211.4,82.7) scale(3.38)"/>
    </g>
    <g id="g4780" color="black">
     <g id="g4782" font-size="12" transform="translate(215.9,82.7)" stroke="none" font-family="Arial" fill="#000">
      <text id="text4784"/>
     </g>
    </g>
    <g id="g4786" color="black">
     <use id="use4788" color="black" xlink:href="#gpPt5" transform="translate(211.4,82.7) scale(3.38)"/>
    </g>
    <g id="g4790" color="black">
     <g id="g4792" font-size="12" transform="translate(173.5 125)" stroke="none" font-family="Arial" fill="#000">
      <text id="text4794"/>
     </g>
    </g>
    <g id="g4796" color="black">
     <use id="use4798" color="rgb(  0, 255,   0)" xlink:href="#gpPt6" transform="translate(169 125) scale(3.38)"/>
    </g>
    <g id="g4800" color="black">
     <g id="g4802" font-size="12" transform="translate(173.5 125)" stroke="none" font-family="Arial" fill="#000">
      <text id="text4804"/>
     </g>
    </g>
    <g id="g4806" color="black">
     <use id="use4808" color="black" xlink:href="#gpPt5" transform="translate(169 125) scale(3.38)"/>
    </g>
    <g id="g4810" color="black">
     <g id="g4812" font-size="12" transform="translate(215.9,167.4)" stroke="none" font-family="Arial" fill="#000">
      <text id="text4814"/>
     </g>
    </g>
    <g id="g4816" color="black">
     <use id="use4818" color="rgb(  0, 255,   0)" xlink:href="#gpPt6" transform="translate(211.4,167.4) scale(3.38)"/>
    </g>
    <g id="g4820" color="black">
     <g id="g4822" font-size="12" transform="translate(215.9,167.4)" stroke="none" font-family="Arial" fill="#000">
      <text id="text4824"/>
     </g>
    </g>
    <g id="g4826" color="black">
     <use id="use4828" color="black" xlink:href="#gpPt5" transform="translate(211.4,167.4) scale(3.38)"/>
    </g>
   </g>
  </g>
 </g>
 <g stroke-width="0" fill-rule="evenodd" stroke="#000" stroke-miterlimit="10.433">
  <g id="content" xml:space="preserve" ns0:pdfconverter="pstoedit" transform="matrix(1.75 0 0 -1.75 -240.78 1382.6)" ns0:text="$\\vec{v}_{1i} = (v_{1i,x},0,0)$" ns0:version="0.7.2" ns0:inkscapeversion="0.91" ns0:preamble="/usr/share/inkscape/extensions/default_packages.tex" ns0:scale="1.4" ns0:texconverter="pdflatex"><polygon id="polygon4954" points="153.1 712.93 152.12 711.92 152.31 711.68 153.98 713.12 152.93 714.56 152.64 714.32 153.18 713.32 149.85 713.32 149.76 712.93"/><path id="path4956" d="m148.92 711.14h0.02 0.02 0.02 0.02 0.02 0.01l0.02 0.01h0.02 0.03 0.02 0.02 0.02 0.02 0.02 0.02c0.39 0 0.49-0.17 0.63-1.09 0.1-0.69 0.22-2.19 0.22-2.77 0-0.28 0.02-0.35 0.08-0.35 0.25 0 1.18 1.06 2.2 2.47 0.35 0.5 0.6 1.15 0.6 1.52 0 0.32-0.25 0.59-0.55 0.59-0.22 0-0.37-0.13-0.37-0.34 0-0.16 0.06-0.28 0.24-0.44 0.13-0.12 0.18-0.2 0.18-0.3 0-0.46-0.66-1.56-1.37-2.3l-0.31-0.32c-0.07 1.4-0.13 1.92-0.26 2.66-0.2 1.02-0.2 1.04-0.29 1.04-0.05 0-0.12-0.01-0.2-0.04-0.17-0.05-0.72-0.15-1.1-0.21z"/><path id="path4958" d="m155.16 710.34-1.25-0.63v-0.1c0.08 0.04 0.16 0.06 0.19 0.08 0.12 0.05 0.24 0.08 0.31 0.08 0.15 0 0.21-0.11 0.21-0.33v-3.16c0-0.23-0.05-0.39-0.17-0.45-0.1-0.07-0.2-0.09-0.49-0.1v-0.1h1.92v0.1c-0.55 0.01-0.66 0.08-0.66 0.42v4.18z"/><path id="path4960" d="m158.17 706.42-0.01-0.02-0.02-0.01-0.01-0.02-0.02-0.02-0.01-0.02-0.01-0.01-0.01-0.02-0.01-0.01-0.02-0.02-0.01-0.01-0.01-0.01-0.01-0.02v-0.01l-0.01-0.01-0.01-0.01-0.01-0.01-0.01-0.01v-0.01h-0.01l-0.01-0.01-0.01-0.01v-0.01l-0.01-0.01-0.02-0.02-0.01-0.01-0.01-0.02-0.02-0.01c-0.11-0.12-0.22-0.19-0.28-0.19s-0.11 0.06-0.11 0.11c0 0.06 0.02 0.17 0.07 0.3 0 0.02 0.02 0.07 0.03 0.13v0.01l0.01 0.02 0.61 2.24-0.02 0.02c-0.7-0.14-0.84-0.16-1.11-0.18v-0.11c0.37-0.01 0.43-0.03 0.43-0.17 0-0.05-0.02-0.16-0.06-0.3l-0.33-1.24c-0.11-0.4-0.16-0.62-0.16-0.76 0-0.26 0.12-0.4 0.33-0.4 0.32 0 0.57 0.21 0.97 0.8z"/><path id="path4962" d="m158.12 710.19h-0.02-0.02-0.02l-0.01-0.01h-0.02l-0.02-0.01h-0.01l-0.02-0.01h-0.01l-0.01-0.01-0.02-0.01-0.01-0.01-0.01-0.01-0.02-0.01-0.01-0.01-0.01-0.02-0.01-0.01-0.01-0.01-0.01-0.02-0.01-0.01-0.01-0.02v-0.01l-0.01-0.02-0.01-0.01v-0.02l-0.01-0.02v-0.01l-0.01-0.02v-0.02-0.02-0.02-0.02c0-0.22 0.13-0.37 0.33-0.37 0.18 0 0.34 0.16 0.34 0.36s-0.16 0.38-0.34 0.38z"/><polygon id="polygon4964" points="162.45 710.41 167.55 710.41 167.55 710.97 162.45 710.97"/><polygon id="polygon4966" points="162.45 708.39 167.55 708.39 167.55 708.95 162.45 708.95"/><path id="path4968" d="m173.87 713.86-0.07-0.05-0.06-0.04-0.07-0.04-0.06-0.04-0.05-0.04-0.06-0.04-0.06-0.04-0.05-0.04-0.05-0.03-0.05-0.04-0.04-0.04-0.05-0.03-0.04-0.04-0.05-0.03-0.08-0.07-0.08-0.07-0.07-0.06-0.07-0.07-0.07-0.08-0.07-0.07-0.07-0.07-0.06-0.08-0.07-0.09c-0.71-0.87-1.06-1.86-1.06-3.03 0-1.26 0.37-2.24 1.25-3.25 0.4-0.48 0.66-0.7 1.18-1.02l0.12 0.16c-0.8 0.63-1.08 0.97-1.34 1.72-0.24 0.67-0.35 1.43-0.35 2.42 0 1.05 0.13 1.87 0.4 2.48 0.28 0.62 0.57 0.98 1.29 1.56z"/><path id="path4970" d="m174.46 711.14h0.02 0.02 0.02 0.01 0.02 0.02l0.04 0.01h0.03 0.02 0.02 0.02 0.02 0.02 0.02c0.38 0 0.48-0.17 0.62-1.09 0.1-0.69 0.22-2.19 0.22-2.77 0-0.28 0.02-0.35 0.09-0.35 0.25 0 1.18 1.06 2.19 2.47 0.35 0.5 0.61 1.15 0.61 1.52 0 0.32-0.26 0.59-0.56 0.59-0.22 0-0.36-0.13-0.36-0.34 0-0.16 0.05-0.28 0.23-0.44 0.13-0.12 0.18-0.2 0.18-0.3 0-0.46-0.65-1.56-1.36-2.3l-0.31-0.32c-0.07 1.4-0.13 1.92-0.26 2.66-0.2 1.02-0.2 1.04-0.29 1.04-0.05 0-0.12-0.01-0.2-0.04-0.18-0.05-0.72-0.15-1.1-0.21z"/><path id="path4972" d="m180.7 710.34-1.25-0.63v-0.1c0.08 0.04 0.16 0.06 0.18 0.08 0.13 0.05 0.25 0.08 0.32 0.08 0.15 0 0.21-0.11 0.21-0.33v-3.16c0-0.23-0.06-0.39-0.17-0.45-0.1-0.07-0.2-0.09-0.5-0.1v-0.1h1.93v0.1c-0.55 0.01-0.66 0.08-0.66 0.42v4.18z"/><path id="path4974" d="m183.71 706.42-0.02-0.02-0.01-0.01-0.02-0.02-0.01-0.02-0.01-0.02-0.01-0.01-0.02-0.02-0.01-0.01-0.01-0.02-0.01-0.01-0.01-0.01-0.01-0.02-0.01-0.01-0.01-0.01v-0.01l-0.01-0.01-0.01-0.01-0.01-0.01-0.01-0.01-0.01-0.02-0.02-0.01-0.01-0.02-0.01-0.01-0.02-0.02-0.01-0.01c-0.12-0.12-0.22-0.19-0.28-0.19s-0.12 0.06-0.12 0.11c0 0.06 0.03 0.17 0.07 0.3 0 0.02 0.03 0.07 0.04 0.13v0.01l0.01 0.02 0.61 2.24-0.02 0.02c-0.71-0.14-0.85-0.16-1.12-0.18v-0.11c0.37-0.01 0.44-0.03 0.44-0.17 0-0.05-0.02-0.16-0.06-0.3l-0.34-1.24c-0.11-0.4-0.15-0.62-0.15-0.76 0-0.26 0.11-0.4 0.32-0.4 0.32 0 0.58 0.21 0.98 0.8z"/><path id="path4976" d="m183.65 710.19h-0.02-0.01-0.02l-0.02-0.01h-0.01l-0.02-0.01h-0.01l-0.02-0.01h-0.01l-0.02-0.01-0.01-0.01-0.01-0.01-0.02-0.01-0.01-0.01-0.01-0.01-0.01-0.02-0.01-0.01-0.01-0.01-0.01-0.02-0.01-0.01-0.01-0.02-0.01-0.01v-0.02l-0.01-0.01-0.01-0.02v-0.02l-0.01-0.01v-0.02-0.02-0.02-0.02l-0.01-0.02c0-0.22 0.14-0.37 0.34-0.37 0.18 0 0.34 0.16 0.34 0.36s-0.16 0.38-0.35 0.38z"/><path id="path4978" d="m185.46 705.67-0.01 0.03v0.02 0.03 0.02 0.03l-0.01 0.02v0.02 0.03l-0.01 0.02v0.02l-0.01 0.02v0.02l-0.01 0.02-0.01 0.02v0.01l-0.01 0.02-0.01 0.02-0.01 0.01-0.01 0.03-0.02 0.03-0.02 0.03-0.02 0.02-0.02 0.02-0.03 0.02-0.02 0.02-0.02 0.02-0.02 0.02-0.03 0.01-0.02 0.01-0.02 0.01-0.03 0.01-0.02 0.01-0.02 0.01h-0.03l-0.02 0.01h-0.02l-0.02 0.01h-0.02-0.02-0.01-0.02c-0.17 0-0.4-0.1-0.4-0.4 0-0.28 0.25-0.35 0.43-0.35 0.05 0 0.08 0 0.1 0.01 0.03 0.01 0.05 0.02 0.07 0.02 0.04 0 0.09-0.04 0.09-0.1 0-0.13-0.11-0.45-0.57-0.74l0.06-0.13c0.21 0.07 0.79 0.53 0.79 1.02z"/><path id="path4980" d="m188.99 706.4-0.01-0.01-0.01-0.01-0.01-0.01-0.01-0.01-0.01-0.01-0.01-0.01v-0.01l-0.01-0.01-0.01-0.01-0.01-0.01-0.01-0.02-0.01-0.01-0.01-0.01v-0.01h-0.01l-0.01-0.01v-0.01l-0.01-0.01c-0.16-0.21-0.25-0.28-0.32-0.28-0.11 0-0.17 0.09-0.22 0.28-0.01 0.06-0.02 0.1-0.03 0.12-0.17 0.71-0.25 1.03-0.25 1.13 0.31 0.54 0.56 0.85 0.69 0.85 0.04 0 0.09-0.03 0.16-0.06 0.09-0.05 0.14-0.06 0.19-0.06 0.15 0 0.24 0.1 0.24 0.25 0 0.14-0.11 0.26-0.28 0.26-0.31 0-0.57-0.26-1.05-1l-0.08 0.38c-0.1 0.48-0.18 0.62-0.36 0.62-0.16 0-0.39-0.07-0.82-0.21l-0.08-0.03 0.03-0.1c0.27 0.06 0.33 0.08 0.39 0.08 0.18 0 0.22-0.06 0.32-0.48l0.2-0.86-0.57-0.82c-0.14-0.21-0.28-0.33-0.36-0.33-0.04 0-0.11 0.02-0.18 0.06-0.09 0.05-0.17 0.07-0.22 0.07-0.14 0-0.24-0.1-0.24-0.24 0-0.19 0.14-0.3 0.35-0.3s0.3 0.07 0.65 0.49c0.18 0.23 0.33 0.41 0.62 0.82l0.21-0.84c0.09-0.36 0.18-0.47 0.41-0.47 0.26 0 0.44 0.17 0.85 0.8z"/><path id="path4982" d="m191.74 707.18v0.04 0.04 0.03 0.04l-0.01 0.03v0.04 0.03l-0.01 0.03-0.01 0.03v0.03l-0.01 0.03-0.01 0.03-0.01 0.02-0.01 0.03-0.01 0.03-0.01 0.02-0.01 0.02-0.01 0.03-0.03 0.04-0.02 0.04-0.03 0.04-0.03 0.03-0.03 0.03-0.03 0.03-0.03 0.03-0.04 0.02-0.03 0.03-0.03 0.02-0.04 0.01-0.03 0.02-0.03 0.01-0.04 0.02-0.03 0.01h-0.03l-0.03 0.01-0.03 0.01h-0.03l-0.03 0.01h-0.03-0.02-0.02c-0.25 0-0.58-0.15-0.58-0.58 0-0.4 0.36-0.5 0.62-0.5 0.07 0 0.12 0.01 0.15 0.02 0.04 0.01 0.07 0.02 0.09 0.02 0.07 0 0.14-0.05 0.14-0.14 0-0.19-0.16-0.63-0.82-1.05l0.09-0.19c0.3 0.1 1.11 0.75 1.11 1.46z"/><path id="path4984" d="m196.49 713.86h-0.05-0.05l-0.05-0.01h-0.05l-0.05-0.01h-0.05l-0.04-0.01h-0.05l-0.05-0.01-0.04-0.01-0.04-0.01-0.05-0.01-0.04-0.02-0.04-0.01-0.05-0.02-0.04-0.01-0.04-0.02-0.04-0.02-0.04-0.01-0.04-0.02-0.04-0.02-0.03-0.03-0.04-0.02-0.04-0.02-0.04-0.03-0.03-0.02-0.04-0.03-0.04-0.03-0.03-0.03-0.04-0.03-0.03-0.03-0.04-0.03c-0.58-0.56-0.95-1.7-0.95-2.87 0-1.09 0.32-2.25 0.79-2.81 0.37-0.44 0.88-0.68 1.46-0.68v0.26c-0.86 0-1.3 1.07-1.3 3.14 0 2.11 0.45 3.22 1.31 3.22 0.83 0 1.28-1.13 1.28-3.21s-0.44-3.15-1.29-3.15v-0.26c0.51 0 0.93 0.17 1.29 0.52 0.58 0.55 0.96 1.71 0.96 2.91 0 2.04-0.91 3.45-2.21 3.45z"/><path id="path4986" d="m200.88 707.18v0.04 0.04 0.03l-0.01 0.04v0.03 0.04l-0.01 0.03-0.01 0.03v0.03l-0.01 0.03-0.01 0.03v0.03l-0.01 0.02-0.01 0.03-0.01 0.03-0.01 0.02-0.01 0.02-0.02 0.03-0.02 0.04-0.03 0.04-0.02 0.04-0.03 0.03-0.03 0.03-0.04 0.03-0.03 0.03-0.03 0.02-0.03 0.03-0.04 0.02-0.03 0.01-0.03 0.02-0.04 0.01-0.03 0.02-0.03 0.01h-0.04l-0.03 0.01-0.03 0.01h-0.03l-0.02 0.01h-0.03-0.02-0.03c-0.25 0-0.58-0.15-0.58-0.58 0-0.4 0.36-0.5 0.62-0.5 0.07 0 0.12 0.01 0.15 0.02 0.04 0.01 0.07 0.02 0.09 0.02 0.07 0 0.14-0.05 0.14-0.14 0-0.19-0.16-0.63-0.81-1.05l0.08-0.19c0.3 0.1 1.12 0.75 1.12 1.46z"/><path id="path4988" d="m205.62 713.86h-0.06-0.05l-0.05-0.01h-0.04l-0.05-0.01h-0.05l-0.05-0.01h-0.04l-0.05-0.01-0.04-0.01-0.05-0.01-0.04-0.01-0.04-0.02-0.05-0.01-0.04-0.02-0.04-0.01-0.04-0.02-0.04-0.02-0.04-0.01-0.04-0.02-0.04-0.02-0.04-0.03-0.03-0.02-0.04-0.02-0.04-0.03-0.04-0.02-0.03-0.03-0.04-0.03-0.03-0.03-0.04-0.03-0.03-0.03-0.04-0.03c-0.58-0.56-0.96-1.7-0.96-2.87 0-1.09 0.33-2.25 0.8-2.81 0.37-0.44 0.88-0.68 1.46-0.68v0.26c-0.86 0-1.3 1.07-1.3 3.14 0 2.11 0.45 3.22 1.31 3.22 0.83 0 1.28-1.13 1.28-3.21s-0.44-3.15-1.29-3.15v-0.26c0.5 0 0.93 0.17 1.29 0.52 0.58 0.55 0.96 1.71 0.96 2.91 0 2.04-0.91 3.45-2.21 3.45z"/><path id="path4990" d="m208.45 705.36 0.07 0.04 0.06 0.05 0.07 0.04 0.06 0.04 0.06 0.04 0.05 0.04 0.06 0.04 0.05 0.03 0.05 0.04 0.05 0.04 0.05 0.03 0.04 0.04 0.05 0.03 0.04 0.04 0.08 0.06 0.08 0.07 0.07 0.07 0.08 0.07 0.06 0.07 0.07 0.08 0.07 0.07 0.07 0.08 0.07 0.08c0.7 0.87 1.05 1.87 1.05 3.03 0 1.28-0.37 2.25-1.24 3.26-0.41 0.48-0.67 0.7-1.19 1.02l-0.12-0.16c0.8-0.63 1.07-0.98 1.35-1.73 0.24-0.66 0.34-1.42 0.34-2.42 0-1.03-0.12-1.86-0.39-2.47-0.28-0.62-0.58-0.98-1.3-1.56z"/></g>
  <g id="g5259" xml:space="preserve" ns0:pdfconverter="pstoedit" transform="matrix(1.75 0 0 -1.75 -129.8 1350.7)" ns0:text="$\\vec{v}_{2i} = 0$" ns0:version="0.7.2" ns0:inkscapeversion="0.91" ns0:preamble="/usr/share/inkscape/extensions/default_packages.tex" ns0:scale="1.4" ns0:texconverter="pdflatex"><polygon id="polygon5261" points="153.18 713.32 149.85 713.32 149.76 712.93 153.1 712.93 152.12 711.92 152.31 711.68 153.98 713.12 152.93 714.56 152.64 714.32"/><path id="path5263" d="m148.92 711.14h0.02 0.02 0.02 0.02 0.02 0.01l0.02 0.01h0.02 0.03 0.02 0.02 0.02 0.02 0.02 0.02c0.39 0 0.49-0.17 0.63-1.09 0.1-0.69 0.22-2.19 0.22-2.77 0-0.28 0.02-0.35 0.08-0.35 0.25 0 1.18 1.06 2.2 2.47 0.35 0.5 0.6 1.15 0.6 1.52 0 0.32-0.25 0.59-0.55 0.59-0.22 0-0.37-0.13-0.37-0.34 0-0.16 0.06-0.28 0.24-0.44 0.13-0.12 0.18-0.2 0.18-0.3 0-0.46-0.66-1.56-1.37-2.3l-0.31-0.32c-0.07 1.4-0.13 1.92-0.26 2.66-0.2 1.02-0.2 1.04-0.29 1.04-0.05 0-0.12-0.01-0.2-0.04-0.17-0.05-0.72-0.15-1.1-0.21z"/><path id="path5265" d="m156.45 706.59-0.09 0.03c-0.26-0.4-0.35-0.46-0.67-0.46h-1.66l1.17 1.23c0.62 0.65 0.89 1.18 0.89 1.72 0 0.7-0.56 1.23-1.29 1.23-0.38 0-0.74-0.15-1-0.43-0.23-0.24-0.33-0.46-0.45-0.95l0.15-0.04c0.28 0.68 0.53 0.91 1.01 0.91 0.59 0 0.98-0.4 0.98-0.99 0-0.54-0.32-1.19-0.9-1.81l-1.25-1.32v-0.08h2.72z"/><path id="path5267" d="m158.17 706.42-0.01-0.02-0.02-0.01-0.01-0.02-0.02-0.02-0.01-0.02-0.01-0.01-0.01-0.02-0.01-0.01-0.02-0.02-0.01-0.01-0.01-0.01-0.01-0.02v-0.01l-0.01-0.01-0.01-0.01-0.01-0.01-0.01-0.01v-0.01h-0.01l-0.01-0.01-0.01-0.01v-0.01l-0.01-0.01-0.02-0.02-0.01-0.01-0.01-0.02-0.02-0.01c-0.11-0.12-0.22-0.19-0.28-0.19s-0.11 0.06-0.11 0.11c0 0.06 0.02 0.17 0.07 0.3 0 0.02 0.02 0.07 0.03 0.13v0.01l0.01 0.02 0.61 2.24-0.02 0.02c-0.7-0.14-0.84-0.16-1.11-0.18v-0.11c0.37-0.01 0.43-0.03 0.43-0.17 0-0.05-0.02-0.16-0.06-0.3l-0.33-1.24c-0.11-0.4-0.16-0.62-0.16-0.76 0-0.26 0.12-0.4 0.33-0.4 0.32 0 0.57 0.21 0.97 0.8z"/><path id="path5269" d="m158.12 710.19h-0.02-0.02-0.02l-0.01-0.01h-0.02l-0.02-0.01h-0.01l-0.02-0.01h-0.01l-0.01-0.01-0.02-0.01-0.01-0.01-0.01-0.01-0.02-0.01-0.01-0.01-0.01-0.02-0.01-0.01-0.01-0.01-0.01-0.02-0.01-0.01-0.01-0.02v-0.01l-0.01-0.02-0.01-0.01v-0.02l-0.01-0.02v-0.01l-0.01-0.02v-0.02-0.02-0.02-0.02c0-0.22 0.13-0.37 0.33-0.37 0.18 0 0.34 0.16 0.34 0.36s-0.16 0.38-0.34 0.38z"/><polygon id="polygon5271" points="167.55 710.97 162.45 710.97 162.45 710.41 167.55 710.41"/><polygon id="polygon5273" points="167.55 708.95 162.45 708.95 162.45 708.39 167.55 708.39"/><path id="path5275" d="m173.46 713.86h-0.05-0.05l-0.05-0.01h-0.05l-0.04-0.01h-0.05l-0.05-0.01h-0.04l-0.05-0.01-0.05-0.01-0.04-0.01-0.04-0.01-0.05-0.02-0.04-0.01-0.04-0.02-0.04-0.01-0.04-0.02-0.04-0.02-0.04-0.01-0.04-0.02-0.04-0.02-0.04-0.03-0.04-0.02-0.03-0.02-0.04-0.03-0.04-0.02-0.04-0.03-0.03-0.03-0.04-0.03-0.03-0.03-0.04-0.03-0.03-0.03c-0.58-0.56-0.96-1.7-0.96-2.87 0-1.09 0.33-2.25 0.8-2.81 0.37-0.44 0.88-0.68 1.45-0.68v0.26c-0.85 0-1.29 1.07-1.29 3.14 0 2.11 0.45 3.22 1.3 3.22 0.84 0 1.29-1.13 1.29-3.21s-0.44-3.15-1.3-3.15v-0.26c0.51 0 0.94 0.17 1.3 0.52 0.58 0.55 0.96 1.71 0.96 2.91 0 2.04-0.91 3.45-2.22 3.45z"/></g>
  <g id="g5561" xml:space="preserve" ns0:pdfconverter="pstoedit" transform="matrix(1.75 0 0 -1.75 -165.53 1294.8)" ns0:text="$\n\\vec{v}_{1f} = (v_{1f,x},v_{1f,y},0)\n$" ns0:version="0.7.2" ns0:inkscapeversion="0.91" ns0:preamble="/usr/share/inkscape/extensions/default_packages.tex" ns0:scale="1.4" ns0:texconverter="pdflatex"><polygon id="polygon5563" points="153.98 713.12 152.93 714.56 152.64 714.32 153.18 713.32 149.85 713.32 149.76 712.93 153.1 712.93 152.12 711.92 152.31 711.68"/><path id="path5565" d="m148.92 711.14h0.02 0.02 0.02 0.02 0.02 0.01l0.02 0.01h0.02 0.03 0.02 0.02 0.02 0.02 0.02 0.02c0.39 0 0.49-0.17 0.63-1.09 0.1-0.69 0.22-2.19 0.22-2.77 0-0.28 0.02-0.35 0.08-0.35 0.25 0 1.18 1.06 2.2 2.47 0.35 0.5 0.6 1.15 0.6 1.52 0 0.32-0.25 0.59-0.55 0.59-0.22 0-0.37-0.13-0.37-0.34 0-0.16 0.06-0.28 0.24-0.44 0.13-0.12 0.18-0.2 0.18-0.3 0-0.46-0.66-1.56-1.37-2.3l-0.31-0.32c-0.07 1.4-0.13 1.92-0.26 2.66-0.2 1.02-0.2 1.04-0.29 1.04-0.05 0-0.12-0.01-0.2-0.04-0.17-0.05-0.72-0.15-1.1-0.21z"/><path id="path5567" d="m155.16 710.34-1.25-0.63v-0.1c0.08 0.04 0.16 0.06 0.19 0.08 0.12 0.05 0.24 0.08 0.31 0.08 0.15 0 0.21-0.11 0.21-0.33v-3.16c0-0.23-0.05-0.39-0.17-0.45-0.1-0.07-0.2-0.09-0.49-0.1v-0.1h1.92v0.1c-0.55 0.01-0.66 0.08-0.66 0.42v4.18z"/><path id="path5569" d="m157.92 708.39h0.62l-0.61-2.93c-0.15-0.74-0.38-1.13-0.68-1.13-0.08 0-0.13 0.05-0.13 0.11 0 0.03 0 0.05 0.02 0.08 0.03 0.04 0.04 0.07 0.04 0.11 0 0.15-0.13 0.27-0.28 0.27-0.14 0-0.25-0.13-0.25-0.29 0-0.23 0.24-0.42 0.55-0.42 0.62 0 1.11 0.69 1.39 1.97l0.51 2.23h0.75l0.05 0.22h-0.76c0.21 1.1 0.46 1.6 0.85 1.6 0.1 0 0.16-0.04 0.16-0.09 0-0.02-0.01-0.03-0.03-0.07-0.03-0.06-0.04-0.1-0.04-0.14 0-0.17 0.1-0.28 0.26-0.28s0.29 0.12 0.29 0.28c0 0.25-0.26 0.45-0.6 0.45s-0.61-0.15-0.87-0.48c-0.2-0.28-0.34-0.6-0.55-1.27h-0.65z"/><polygon id="polygon5571" points="169.61 710.97 164.51 710.97 164.51 710.41 169.61 710.41"/><polygon id="polygon5573" points="169.61 708.95 164.51 708.95 164.51 708.39 169.61 708.39"/><path id="path5575" d="m175.93 713.86-0.06-0.05-0.07-0.04-0.06-0.04-0.06-0.04-0.06-0.04-0.06-0.04-0.05-0.04-0.05-0.04-0.06-0.03-0.04-0.04-0.05-0.04-0.05-0.03-0.04-0.04-0.04-0.03-0.09-0.07-0.07-0.07-0.08-0.06-0.07-0.07-0.07-0.08-0.07-0.07-0.06-0.07-0.07-0.08-0.07-0.09c-0.71-0.87-1.06-1.86-1.06-3.03 0-1.26 0.37-2.24 1.25-3.25 0.41-0.48 0.67-0.7 1.18-1.02l0.12 0.16c-0.79 0.63-1.07 0.97-1.34 1.72-0.24 0.67-0.35 1.43-0.35 2.42 0 1.05 0.13 1.87 0.4 2.48 0.28 0.62 0.58 0.98 1.29 1.56z"/><path id="path5577" d="m176.52 711.14h0.02 0.02 0.02 0.02 0.01 0.02l0.02 0.01h0.02 0.03 0.02 0.02 0.02 0.02 0.02 0.02c0.39 0 0.49-0.17 0.63-1.09 0.09-0.69 0.21-2.19 0.21-2.77 0-0.28 0.02-0.35 0.1-0.35 0.24 0 1.17 1.06 2.19 2.47 0.34 0.5 0.6 1.15 0.6 1.52 0 0.32-0.26 0.59-0.55 0.59-0.22 0-0.37-0.13-0.37-0.34 0-0.16 0.06-0.28 0.24-0.44 0.13-0.12 0.18-0.2 0.18-0.3 0-0.46-0.66-1.56-1.37-2.3l-0.31-0.32c-0.07 1.4-0.13 1.92-0.26 2.66-0.2 1.02-0.2 1.04-0.29 1.04-0.05 0-0.11-0.01-0.2-0.04-0.17-0.05-0.72-0.15-1.1-0.21z"/><path id="path5579" d="m182.76 710.34-1.25-0.63v-0.1c0.08 0.04 0.16 0.06 0.19 0.08 0.12 0.05 0.24 0.08 0.31 0.08 0.15 0 0.21-0.11 0.21-0.33v-3.16c0-0.23-0.06-0.39-0.17-0.45-0.1-0.07-0.2-0.09-0.49-0.1v-0.1h1.92v0.1c-0.55 0.01-0.66 0.08-0.66 0.42v4.18z"/><path id="path5581" d="m185.52 708.39h0.62l-0.61-2.93c-0.15-0.74-0.38-1.13-0.68-1.13-0.08 0-0.14 0.05-0.14 0.11 0 0.03 0.01 0.05 0.03 0.08 0.03 0.04 0.04 0.07 0.04 0.11 0 0.15-0.13 0.27-0.27 0.27-0.15 0-0.26-0.13-0.26-0.29 0-0.23 0.24-0.42 0.55-0.42 0.62 0 1.11 0.69 1.39 1.97l0.51 2.23h0.76l0.04 0.22h-0.76c0.21 1.1 0.46 1.6 0.86 1.6 0.08 0 0.15-0.04 0.15-0.09 0-0.02-0.01-0.03-0.03-0.07-0.03-0.06-0.04-0.1-0.04-0.14 0-0.17 0.1-0.28 0.26-0.28s0.29 0.12 0.29 0.28c0 0.25-0.26 0.45-0.6 0.45s-0.61-0.15-0.87-0.48c-0.2-0.28-0.34-0.6-0.55-1.27h-0.64z"/><path id="path5583" d="m189.21 705.67-0.01 0.03v0.02 0.03 0.02 0.03l-0.01 0.02v0.02 0.03l-0.01 0.02v0.02l-0.01 0.02v0.02l-0.01 0.02-0.01 0.02v0.01l-0.01 0.02-0.01 0.02-0.01 0.01-0.01 0.03-0.02 0.03-0.02 0.03-0.02 0.02-0.02 0.02-0.03 0.02-0.02 0.02-0.02 0.02-0.02 0.02-0.03 0.01-0.02 0.01-0.02 0.01-0.03 0.01-0.02 0.01-0.02 0.01h-0.03l-0.02 0.01h-0.02l-0.02 0.01h-0.02-0.02-0.01-0.02c-0.17 0-0.4-0.1-0.4-0.4 0-0.28 0.25-0.35 0.43-0.35 0.05 0 0.08 0 0.1 0.01 0.03 0.01 0.05 0.02 0.07 0.02 0.04 0 0.09-0.04 0.09-0.1 0-0.13-0.11-0.45-0.57-0.74l0.06-0.13c0.21 0.07 0.79 0.53 0.79 1.02z"/><path id="path5585" d="m192.74 706.4-0.01-0.01-0.01-0.01-0.01-0.01-0.01-0.01-0.01-0.01-0.01-0.01v-0.01l-0.01-0.01-0.01-0.01-0.01-0.01-0.01-0.02-0.01-0.01-0.01-0.01v-0.01h-0.01l-0.01-0.01v-0.01l-0.01-0.01c-0.16-0.21-0.25-0.28-0.32-0.28-0.11 0-0.17 0.09-0.22 0.28-0.01 0.06-0.02 0.1-0.03 0.12-0.17 0.71-0.25 1.03-0.25 1.13 0.31 0.54 0.56 0.85 0.69 0.85 0.04 0 0.09-0.03 0.16-0.06 0.09-0.05 0.14-0.06 0.19-0.06 0.15 0 0.24 0.1 0.24 0.25 0 0.14-0.11 0.26-0.28 0.26-0.31 0-0.57-0.26-1.05-1l-0.08 0.38c-0.1 0.48-0.18 0.62-0.36 0.62-0.16 0-0.39-0.07-0.82-0.21l-0.08-0.03 0.03-0.1c0.27 0.06 0.33 0.08 0.39 0.08 0.18 0 0.22-0.06 0.32-0.48l0.2-0.86-0.57-0.82c-0.14-0.21-0.28-0.33-0.36-0.33-0.04 0-0.11 0.02-0.18 0.06-0.09 0.05-0.17 0.07-0.22 0.07-0.14 0-0.24-0.1-0.24-0.24 0-0.19 0.14-0.3 0.35-0.3s0.3 0.07 0.65 0.49c0.18 0.23 0.33 0.41 0.62 0.82l0.21-0.84c0.09-0.36 0.18-0.47 0.41-0.47 0.26 0 0.44 0.17 0.85 0.8z"/><path id="path5587" d="m195.49 707.18v0.04 0.04 0.03 0.04l-0.01 0.03v0.04 0.03l-0.01 0.03-0.01 0.03v0.03l-0.01 0.03-0.01 0.03-0.01 0.02-0.01 0.03-0.01 0.03-0.01 0.02-0.01 0.02-0.01 0.03-0.03 0.04-0.02 0.04-0.03 0.04-0.03 0.03-0.03 0.03-0.03 0.03-0.03 0.03-0.04 0.02-0.03 0.03-0.03 0.02-0.04 0.01-0.03 0.02-0.03 0.01-0.04 0.02-0.03 0.01h-0.03l-0.03 0.01-0.03 0.01h-0.03l-0.03 0.01h-0.03-0.02-0.02c-0.25 0-0.58-0.15-0.58-0.58 0-0.4 0.36-0.5 0.62-0.5 0.07 0 0.12 0.01 0.15 0.02 0.04 0.01 0.07 0.02 0.09 0.02 0.07 0 0.14-0.05 0.14-0.14 0-0.19-0.16-0.63-0.82-1.05l0.09-0.19c0.3 0.1 1.11 0.75 1.11 1.46z"/><path id="path5589" d="m197.91 711.14h0.02 0.02 0.02 0.02 0.02 0.01l0.02 0.01h0.02 0.03 0.02 0.02 0.02 0.02 0.02 0.02c0.39 0 0.49-0.17 0.63-1.09 0.09-0.69 0.21-2.19 0.21-2.77 0-0.28 0.02-0.35 0.1-0.35 0.24 0 1.17 1.06 2.19 2.47 0.34 0.5 0.6 1.15 0.6 1.52 0 0.32-0.26 0.59-0.55 0.59-0.22 0-0.37-0.13-0.37-0.34 0-0.16 0.06-0.28 0.24-0.44 0.13-0.12 0.18-0.2 0.18-0.3 0-0.46-0.66-1.56-1.37-2.3l-0.31-0.32c-0.07 1.4-0.13 1.92-0.26 2.66-0.2 1.02-0.2 1.04-0.29 1.04-0.05 0-0.11-0.01-0.2-0.04-0.17-0.05-0.72-0.15-1.1-0.21z"/><path id="path5591" d="m204.15 710.34-1.25-0.63v-0.1c0.08 0.04 0.16 0.06 0.19 0.08 0.12 0.05 0.24 0.08 0.31 0.08 0.15 0 0.21-0.11 0.21-0.33v-3.16c0-0.23-0.06-0.39-0.17-0.45-0.1-0.07-0.2-0.09-0.49-0.1v-0.1h1.92v0.1c-0.55 0.01-0.66 0.08-0.66 0.42v4.18z"/><path id="path5593" d="m206.9 708.39h0.63l-0.62-2.93c-0.15-0.74-0.38-1.13-0.67-1.13-0.09 0-0.14 0.05-0.14 0.11 0 0.03 0 0.05 0.02 0.08 0.03 0.04 0.04 0.07 0.04 0.11 0 0.15-0.13 0.27-0.27 0.27-0.15 0-0.26-0.13-0.26-0.29 0-0.23 0.24-0.42 0.55-0.42 0.62 0 1.11 0.69 1.4 1.97l0.5 2.23h0.76l0.04 0.22h-0.75c0.2 1.1 0.46 1.6 0.85 1.6 0.09 0 0.15-0.04 0.15-0.09 0-0.02-0.01-0.03-0.03-0.07-0.03-0.06-0.04-0.1-0.04-0.14 0-0.17 0.11-0.28 0.26-0.28 0.16 0 0.29 0.12 0.29 0.28 0 0.25-0.26 0.45-0.6 0.45s-0.61-0.15-0.86-0.48c-0.21-0.28-0.35-0.6-0.56-1.27h-0.64z"/><path id="path5595" d="m210.59 705.67v0.03 0.02l-0.01 0.03v0.02 0.03 0.02l-0.01 0.02v0.03l-0.01 0.02v0.02l-0.01 0.02v0.02l-0.01 0.02v0.02l-0.01 0.01-0.01 0.02-0.01 0.02v0.01l-0.02 0.03-0.02 0.03-0.02 0.03-0.02 0.02-0.02 0.02-0.02 0.02-0.02 0.02-0.03 0.02-0.02 0.02-0.02 0.01-0.03 0.01-0.02 0.01-0.03 0.01-0.02 0.01-0.02 0.01h-0.02l-0.03 0.01h-0.02l-0.02 0.01h-0.02-0.01-0.02-0.02c-0.17 0-0.4-0.1-0.4-0.4 0-0.28 0.25-0.35 0.43-0.35 0.05 0 0.08 0 0.1 0.01 0.03 0.01 0.05 0.02 0.07 0.02 0.05 0 0.1-0.04 0.1-0.1 0-0.13-0.12-0.45-0.58-0.74l0.07-0.13c0.21 0.07 0.78 0.53 0.78 1.02z"/><path id="path5597" d="m211.08 708.42h0.01 0.01v0.01h0.01 0.01 0.01 0.01l0.01 0.01h0.02 0.01 0.01 0.02 0.01 0.01l0.01 0.01h0.02 0.01 0.01 0.01 0.01c0.39 0 0.5-0.18 0.82-1.38 0.12-0.45 0.28-1.27 0.28-1.38 0-0.12-0.04-0.23-0.14-0.35-0.22-0.29-0.36-0.47-0.43-0.55-0.15-0.16-0.23-0.21-0.32-0.21-0.05 0-0.1 0.02-0.17 0.07-0.11 0.09-0.18 0.12-0.26 0.12-0.15 0-0.27-0.12-0.27-0.27 0-0.17 0.15-0.31 0.35-0.31 0.45 0 1.36 1.05 2.12 2.43 0.47 0.86 0.67 1.36 0.67 1.7 0 0.21-0.18 0.39-0.39 0.39-0.16 0-0.27-0.11-0.27-0.26 0-0.11 0.06-0.18 0.2-0.28 0.13-0.07 0.18-0.13 0.18-0.23 0-0.28-0.26-0.83-0.85-1.81l-0.14 0.81c-0.11 0.61-0.5 1.77-0.6 1.77h-0.03c-0.01-0.01-0.04-0.01-0.06-0.01-0.07-0.01-0.32-0.05-0.69-0.12-0.03-0.01-0.12-0.03-0.22-0.04z"/><path id="path5599" d="m216.51 707.18v0.04 0.04 0.03l-0.01 0.04v0.03 0.04l-0.01 0.03-0.01 0.03v0.03l-0.01 0.03-0.01 0.03v0.03l-0.01 0.02-0.01 0.03-0.01 0.03-0.01 0.02-0.01 0.02-0.02 0.03-0.02 0.04-0.03 0.04-0.02 0.04-0.03 0.03-0.03 0.03-0.04 0.03-0.03 0.03-0.03 0.02-0.03 0.03-0.04 0.02-0.03 0.01-0.03 0.02-0.04 0.01-0.03 0.02-0.03 0.01h-0.04l-0.03 0.01-0.03 0.01h-0.03l-0.02 0.01h-0.03-0.02-0.03c-0.25 0-0.58-0.15-0.58-0.58 0-0.4 0.36-0.5 0.62-0.5 0.07 0 0.12 0.01 0.15 0.02 0.04 0.01 0.07 0.02 0.09 0.02 0.07 0 0.14-0.05 0.14-0.14 0-0.19-0.16-0.63-0.82-1.05l0.09-0.19c0.3 0.1 1.12 0.75 1.12 1.46z"/><path id="path5601" d="m221.25 713.86h-0.05-0.05l-0.05-0.01h-0.05l-0.04-0.01h-0.05l-0.05-0.01h-0.04l-0.05-0.01-0.05-0.01-0.04-0.01-0.04-0.01-0.05-0.02-0.04-0.01-0.04-0.02-0.04-0.01-0.04-0.02-0.04-0.02-0.04-0.01-0.04-0.02-0.04-0.02-0.04-0.03-0.04-0.02-0.03-0.02-0.04-0.03-0.04-0.02-0.04-0.03-0.03-0.03-0.04-0.03-0.03-0.03-0.04-0.03-0.03-0.03c-0.58-0.56-0.96-1.7-0.96-2.87 0-1.09 0.33-2.25 0.8-2.81 0.37-0.44 0.87-0.68 1.45-0.68v0.26c-0.85 0-1.29 1.07-1.29 3.14 0 2.11 0.45 3.22 1.3 3.22 0.84 0 1.29-1.13 1.29-3.21s-0.44-3.15-1.3-3.15v-0.26c0.51 0 0.94 0.17 1.3 0.52 0.58 0.55 0.95 1.71 0.95 2.91 0 2.04-0.9 3.45-2.21 3.45z"/><path id="path5603" d="m224.08 705.36 0.07 0.04 0.06 0.05 0.07 0.04 0.06 0.04 0.06 0.04 0.05 0.04 0.06 0.04 0.05 0.03 0.05 0.04 0.05 0.04 0.05 0.03 0.04 0.04 0.05 0.03 0.04 0.04 0.08 0.06 0.08 0.07 0.07 0.07 0.08 0.07 0.06 0.07 0.07 0.08 0.07 0.07 0.07 0.08 0.07 0.08c0.7 0.87 1.05 1.87 1.05 3.03 0 1.28-0.37 2.25-1.24 3.26-0.41 0.48-0.67 0.7-1.19 1.02l-0.12-0.16c0.8-0.63 1.07-0.98 1.35-1.73 0.23-0.66 0.34-1.42 0.34-2.42 0-1.03-0.12-1.86-0.39-2.47-0.28-0.62-0.58-0.98-1.3-1.56z"/></g>
  <g id="g5933" xml:space="preserve" ns0:pdfconverter="pstoedit" transform="matrix(1.75 0 0 -1.75 -170.53 1436.8)" ns0:text="$\n\\vec{v}_{2f} =(v_{2f,x},v_{2f,y},0)\n$" ns0:version="0.7.2" ns0:inkscapeversion="0.91" ns0:preamble="/usr/share/inkscape/extensions/default_packages.tex" ns0:scale="1.4" ns0:texconverter="pdflatex"><polygon id="polygon5935" points="153.98 713.12 152.93 714.56 152.64 714.32 153.18 713.32 149.85 713.32 149.76 712.93 153.1 712.93 152.12 711.92 152.31 711.68"/><path id="path5937" d="m148.92 711.14h0.02 0.02 0.02 0.02 0.02 0.01l0.02 0.01h0.02 0.03 0.02 0.02 0.02 0.02 0.02 0.02c0.39 0 0.49-0.17 0.63-1.09 0.1-0.69 0.22-2.19 0.22-2.77 0-0.28 0.02-0.35 0.08-0.35 0.25 0 1.18 1.06 2.2 2.47 0.35 0.5 0.6 1.15 0.6 1.52 0 0.32-0.25 0.59-0.55 0.59-0.22 0-0.37-0.13-0.37-0.34 0-0.16 0.06-0.28 0.24-0.44 0.13-0.12 0.18-0.2 0.18-0.3 0-0.46-0.66-1.56-1.37-2.3l-0.31-0.32c-0.07 1.4-0.13 1.92-0.26 2.66-0.2 1.02-0.2 1.04-0.29 1.04-0.05 0-0.12-0.01-0.2-0.04-0.17-0.05-0.72-0.15-1.1-0.21z"/><path id="path5939" d="m156.45 706.59-0.09 0.03c-0.26-0.4-0.35-0.46-0.67-0.46h-1.66l1.17 1.23c0.62 0.65 0.89 1.18 0.89 1.72 0 0.7-0.56 1.23-1.29 1.23-0.38 0-0.74-0.15-1-0.43-0.23-0.24-0.33-0.46-0.45-0.95l0.15-0.04c0.28 0.68 0.53 0.91 1.01 0.91 0.59 0 0.98-0.4 0.98-0.99 0-0.54-0.32-1.19-0.9-1.81l-1.25-1.32v-0.08h2.72z"/><path id="path5941" d="m157.92 708.39h0.62l-0.61-2.93c-0.15-0.74-0.38-1.13-0.68-1.13-0.08 0-0.13 0.05-0.13 0.11 0 0.03 0 0.05 0.02 0.08 0.03 0.04 0.04 0.07 0.04 0.11 0 0.15-0.13 0.27-0.28 0.27-0.14 0-0.25-0.13-0.25-0.29 0-0.23 0.24-0.42 0.55-0.42 0.62 0 1.11 0.69 1.39 1.97l0.51 2.23h0.75l0.05 0.22h-0.76c0.21 1.1 0.46 1.6 0.85 1.6 0.1 0 0.16-0.04 0.16-0.09 0-0.02-0.01-0.03-0.03-0.07-0.03-0.06-0.04-0.1-0.04-0.14 0-0.17 0.1-0.28 0.26-0.28s0.29 0.12 0.29 0.28c0 0.25-0.26 0.45-0.6 0.45s-0.61-0.15-0.87-0.48c-0.2-0.28-0.34-0.6-0.55-1.27h-0.65z"/><polygon id="polygon5943" points="169.61 710.97 164.51 710.97 164.51 710.41 169.61 710.41"/><polygon id="polygon5945" points="169.61 708.95 164.51 708.95 164.51 708.39 169.61 708.39"/><path id="path5947" d="m175.93 713.86-0.06-0.05-0.07-0.04-0.06-0.04-0.06-0.04-0.06-0.04-0.06-0.04-0.05-0.04-0.05-0.04-0.06-0.03-0.04-0.04-0.05-0.04-0.05-0.03-0.04-0.04-0.04-0.03-0.09-0.07-0.07-0.07-0.08-0.06-0.07-0.07-0.07-0.08-0.07-0.07-0.06-0.07-0.07-0.08-0.07-0.09c-0.71-0.87-1.06-1.86-1.06-3.03 0-1.26 0.37-2.24 1.25-3.25 0.41-0.48 0.67-0.7 1.18-1.02l0.12 0.16c-0.79 0.63-1.07 0.97-1.34 1.72-0.24 0.67-0.35 1.43-0.35 2.42 0 1.05 0.13 1.87 0.4 2.48 0.28 0.62 0.58 0.98 1.29 1.56z"/><path id="path5949" d="m176.52 711.14h0.02 0.02 0.02 0.02 0.01 0.02l0.02 0.01h0.02 0.03 0.02 0.02 0.02 0.02 0.02 0.02c0.39 0 0.49-0.17 0.63-1.09 0.09-0.69 0.21-2.19 0.21-2.77 0-0.28 0.02-0.35 0.1-0.35 0.24 0 1.17 1.06 2.19 2.47 0.34 0.5 0.6 1.15 0.6 1.52 0 0.32-0.26 0.59-0.55 0.59-0.22 0-0.37-0.13-0.37-0.34 0-0.16 0.06-0.28 0.24-0.44 0.13-0.12 0.18-0.2 0.18-0.3 0-0.46-0.66-1.56-1.37-2.3l-0.31-0.32c-0.07 1.4-0.13 1.92-0.26 2.66-0.2 1.02-0.2 1.04-0.29 1.04-0.05 0-0.11-0.01-0.2-0.04-0.17-0.05-0.72-0.15-1.1-0.21z"/><path id="path5951" d="m184.05 706.59-0.09 0.03c-0.26-0.4-0.35-0.46-0.67-0.46h-1.66l1.17 1.23c0.62 0.65 0.89 1.18 0.89 1.72 0 0.7-0.56 1.23-1.29 1.23-0.38 0-0.74-0.15-1-0.43-0.23-0.24-0.33-0.46-0.45-0.95l0.15-0.04c0.28 0.68 0.53 0.91 1.01 0.91 0.59 0 0.98-0.4 0.98-0.99 0-0.54-0.32-1.19-0.9-1.81l-1.25-1.32v-0.08h2.72z"/><path id="path5953" d="m185.52 708.39h0.62l-0.61-2.93c-0.15-0.74-0.38-1.13-0.68-1.13-0.08 0-0.14 0.05-0.14 0.11 0 0.03 0.01 0.05 0.03 0.08 0.03 0.04 0.04 0.07 0.04 0.11 0 0.15-0.13 0.27-0.27 0.27-0.15 0-0.26-0.13-0.26-0.29 0-0.23 0.24-0.42 0.55-0.42 0.62 0 1.11 0.69 1.39 1.97l0.51 2.23h0.76l0.04 0.22h-0.76c0.21 1.1 0.46 1.6 0.86 1.6 0.08 0 0.15-0.04 0.15-0.09 0-0.02-0.01-0.03-0.03-0.07-0.03-0.06-0.04-0.1-0.04-0.14 0-0.17 0.1-0.28 0.26-0.28s0.29 0.12 0.29 0.28c0 0.25-0.26 0.45-0.6 0.45s-0.61-0.15-0.87-0.48c-0.2-0.28-0.34-0.6-0.55-1.27h-0.64z"/><path id="path5955" d="m189.21 705.67-0.01 0.03v0.02 0.03 0.02 0.03l-0.01 0.02v0.02 0.03l-0.01 0.02v0.02l-0.01 0.02v0.02l-0.01 0.02-0.01 0.02v0.01l-0.01 0.02-0.01 0.02-0.01 0.01-0.01 0.03-0.02 0.03-0.02 0.03-0.02 0.02-0.02 0.02-0.03 0.02-0.02 0.02-0.02 0.02-0.02 0.02-0.03 0.01-0.02 0.01-0.02 0.01-0.03 0.01-0.02 0.01-0.02 0.01h-0.03l-0.02 0.01h-0.02l-0.02 0.01h-0.02-0.02-0.01-0.02c-0.17 0-0.4-0.1-0.4-0.4 0-0.28 0.25-0.35 0.43-0.35 0.05 0 0.08 0 0.1 0.01 0.03 0.01 0.05 0.02 0.07 0.02 0.04 0 0.09-0.04 0.09-0.1 0-0.13-0.11-0.45-0.57-0.74l0.06-0.13c0.21 0.07 0.79 0.53 0.79 1.02z"/><path id="path5957" d="m192.74 706.4-0.01-0.01-0.01-0.01-0.01-0.01-0.01-0.01-0.01-0.01-0.01-0.01v-0.01l-0.01-0.01-0.01-0.01-0.01-0.01-0.01-0.02-0.01-0.01-0.01-0.01v-0.01h-0.01l-0.01-0.01v-0.01l-0.01-0.01c-0.16-0.21-0.25-0.28-0.32-0.28-0.11 0-0.17 0.09-0.22 0.28-0.01 0.06-0.02 0.1-0.03 0.12-0.17 0.71-0.25 1.03-0.25 1.13 0.31 0.54 0.56 0.85 0.69 0.85 0.04 0 0.09-0.03 0.16-0.06 0.09-0.05 0.14-0.06 0.19-0.06 0.15 0 0.24 0.1 0.24 0.25 0 0.14-0.11 0.26-0.28 0.26-0.31 0-0.57-0.26-1.05-1l-0.08 0.38c-0.1 0.48-0.18 0.62-0.36 0.62-0.16 0-0.39-0.07-0.82-0.21l-0.08-0.03 0.03-0.1c0.27 0.06 0.33 0.08 0.39 0.08 0.18 0 0.22-0.06 0.32-0.48l0.2-0.86-0.57-0.82c-0.14-0.21-0.28-0.33-0.36-0.33-0.04 0-0.11 0.02-0.18 0.06-0.09 0.05-0.17 0.07-0.22 0.07-0.14 0-0.24-0.1-0.24-0.24 0-0.19 0.14-0.3 0.35-0.3s0.3 0.07 0.65 0.49c0.18 0.23 0.33 0.41 0.62 0.82l0.21-0.84c0.09-0.36 0.18-0.47 0.41-0.47 0.26 0 0.44 0.17 0.85 0.8z"/><path id="path5959" d="m195.49 707.18v0.04 0.04 0.03 0.04l-0.01 0.03v0.04 0.03l-0.01 0.03-0.01 0.03v0.03l-0.01 0.03-0.01 0.03-0.01 0.02-0.01 0.03-0.01 0.03-0.01 0.02-0.01 0.02-0.01 0.03-0.03 0.04-0.02 0.04-0.03 0.04-0.03 0.03-0.03 0.03-0.03 0.03-0.03 0.03-0.04 0.02-0.03 0.03-0.03 0.02-0.04 0.01-0.03 0.02-0.03 0.01-0.04 0.02-0.03 0.01h-0.03l-0.03 0.01-0.03 0.01h-0.03l-0.03 0.01h-0.03-0.02-0.02c-0.25 0-0.58-0.15-0.58-0.58 0-0.4 0.36-0.5 0.62-0.5 0.07 0 0.12 0.01 0.15 0.02 0.04 0.01 0.07 0.02 0.09 0.02 0.07 0 0.14-0.05 0.14-0.14 0-0.19-0.16-0.63-0.82-1.05l0.09-0.19c0.3 0.1 1.11 0.75 1.11 1.46z"/><path id="path5961" d="m197.91 711.14h0.02 0.02 0.02 0.02 0.02 0.01l0.02 0.01h0.02 0.03 0.02 0.02 0.02 0.02 0.02 0.02c0.39 0 0.49-0.17 0.63-1.09 0.09-0.69 0.21-2.19 0.21-2.77 0-0.28 0.02-0.35 0.1-0.35 0.24 0 1.17 1.06 2.19 2.47 0.34 0.5 0.6 1.15 0.6 1.52 0 0.32-0.26 0.59-0.55 0.59-0.22 0-0.37-0.13-0.37-0.34 0-0.16 0.06-0.28 0.24-0.44 0.13-0.12 0.18-0.2 0.18-0.3 0-0.46-0.66-1.56-1.37-2.3l-0.31-0.32c-0.07 1.4-0.13 1.92-0.26 2.66-0.2 1.02-0.2 1.04-0.29 1.04-0.05 0-0.11-0.01-0.2-0.04-0.17-0.05-0.72-0.15-1.1-0.21z"/><path id="path5963" d="m205.44 706.59-0.09 0.03c-0.26-0.4-0.35-0.46-0.67-0.46h-1.66l1.17 1.23c0.62 0.65 0.89 1.18 0.89 1.72 0 0.7-0.56 1.23-1.29 1.23-0.38 0-0.74-0.15-1-0.43-0.23-0.24-0.33-0.46-0.45-0.95l0.15-0.04c0.28 0.68 0.53 0.91 1.01 0.91 0.59 0 0.98-0.4 0.98-0.99 0-0.54-0.32-1.19-0.9-1.81l-1.25-1.32v-0.08h2.72z"/><path id="path5965" d="m206.9 708.39h0.63l-0.62-2.93c-0.15-0.74-0.38-1.13-0.67-1.13-0.09 0-0.14 0.05-0.14 0.11 0 0.03 0 0.05 0.02 0.08 0.03 0.04 0.04 0.07 0.04 0.11 0 0.15-0.13 0.27-0.27 0.27-0.15 0-0.26-0.13-0.26-0.29 0-0.23 0.24-0.42 0.55-0.42 0.62 0 1.11 0.69 1.4 1.97l0.5 2.23h0.76l0.04 0.22h-0.75c0.2 1.1 0.46 1.6 0.85 1.6 0.09 0 0.15-0.04 0.15-0.09 0-0.02-0.01-0.03-0.03-0.07-0.03-0.06-0.04-0.1-0.04-0.14 0-0.17 0.11-0.28 0.26-0.28 0.16 0 0.29 0.12 0.29 0.28 0 0.25-0.26 0.45-0.6 0.45s-0.61-0.15-0.86-0.48c-0.21-0.28-0.35-0.6-0.56-1.27h-0.64z"/><path id="path5967" d="m210.59 705.67v0.03 0.02l-0.01 0.03v0.02 0.03 0.02l-0.01 0.02v0.03l-0.01 0.02v0.02l-0.01 0.02v0.02l-0.01 0.02v0.02l-0.01 0.01-0.01 0.02-0.01 0.02v0.01l-0.02 0.03-0.02 0.03-0.02 0.03-0.02 0.02-0.02 0.02-0.02 0.02-0.02 0.02-0.03 0.02-0.02 0.02-0.02 0.01-0.03 0.01-0.02 0.01-0.03 0.01-0.02 0.01-0.02 0.01h-0.02l-0.03 0.01h-0.02l-0.02 0.01h-0.02-0.01-0.02-0.02c-0.17 0-0.4-0.1-0.4-0.4 0-0.28 0.25-0.35 0.43-0.35 0.05 0 0.08 0 0.1 0.01 0.03 0.01 0.05 0.02 0.07 0.02 0.05 0 0.1-0.04 0.1-0.1 0-0.13-0.12-0.45-0.58-0.74l0.07-0.13c0.21 0.07 0.78 0.53 0.78 1.02z"/><path id="path5969" d="m211.08 708.42h0.01 0.01v0.01h0.01 0.01 0.01 0.01l0.01 0.01h0.02 0.01 0.01 0.02 0.01 0.01l0.01 0.01h0.02 0.01 0.01 0.01 0.01c0.39 0 0.5-0.18 0.82-1.38 0.12-0.45 0.28-1.27 0.28-1.38 0-0.12-0.04-0.23-0.14-0.35-0.22-0.29-0.36-0.47-0.43-0.55-0.15-0.16-0.23-0.21-0.32-0.21-0.05 0-0.1 0.02-0.17 0.07-0.11 0.09-0.18 0.12-0.26 0.12-0.15 0-0.27-0.12-0.27-0.27 0-0.17 0.15-0.31 0.35-0.31 0.45 0 1.36 1.05 2.12 2.43 0.47 0.86 0.67 1.36 0.67 1.7 0 0.21-0.18 0.39-0.39 0.39-0.16 0-0.27-0.11-0.27-0.26 0-0.11 0.06-0.18 0.2-0.28 0.13-0.07 0.18-0.13 0.18-0.23 0-0.28-0.26-0.83-0.85-1.81l-0.14 0.81c-0.11 0.61-0.5 1.77-0.6 1.77h-0.03c-0.01-0.01-0.04-0.01-0.06-0.01-0.07-0.01-0.32-0.05-0.69-0.12-0.03-0.01-0.12-0.03-0.22-0.04z"/><path id="path5971" d="m216.51 707.18v0.04 0.04 0.03l-0.01 0.04v0.03 0.04l-0.01 0.03-0.01 0.03v0.03l-0.01 0.03-0.01 0.03v0.03l-0.01 0.02-0.01 0.03-0.01 0.03-0.01 0.02-0.01 0.02-0.02 0.03-0.02 0.04-0.03 0.04-0.02 0.04-0.03 0.03-0.03 0.03-0.04 0.03-0.03 0.03-0.03 0.02-0.03 0.03-0.04 0.02-0.03 0.01-0.03 0.02-0.04 0.01-0.03 0.02-0.03 0.01h-0.04l-0.03 0.01-0.03 0.01h-0.03l-0.02 0.01h-0.03-0.02-0.03c-0.25 0-0.58-0.15-0.58-0.58 0-0.4 0.36-0.5 0.62-0.5 0.07 0 0.12 0.01 0.15 0.02 0.04 0.01 0.07 0.02 0.09 0.02 0.07 0 0.14-0.05 0.14-0.14 0-0.19-0.16-0.63-0.82-1.05l0.09-0.19c0.3 0.1 1.12 0.75 1.12 1.46z"/><path id="path5973" d="m221.25 713.86h-0.05-0.05l-0.05-0.01h-0.05l-0.04-0.01h-0.05l-0.05-0.01h-0.04l-0.05-0.01-0.05-0.01-0.04-0.01-0.04-0.01-0.05-0.02-0.04-0.01-0.04-0.02-0.04-0.01-0.04-0.02-0.04-0.02-0.04-0.01-0.04-0.02-0.04-0.02-0.04-0.03-0.04-0.02-0.03-0.02-0.04-0.03-0.04-0.02-0.04-0.03-0.03-0.03-0.04-0.03-0.03-0.03-0.04-0.03-0.03-0.03c-0.58-0.56-0.96-1.7-0.96-2.87 0-1.09 0.33-2.25 0.8-2.81 0.37-0.44 0.87-0.68 1.45-0.68v0.26c-0.85 0-1.29 1.07-1.29 3.14 0 2.11 0.45 3.22 1.3 3.22 0.84 0 1.29-1.13 1.29-3.21s-0.44-3.15-1.3-3.15v-0.26c0.51 0 0.94 0.17 1.3 0.52 0.58 0.55 0.95 1.71 0.95 2.91 0 2.04-0.9 3.45-2.21 3.45z"/><path id="path5975" d="m224.08 705.36 0.07 0.04 0.06 0.05 0.07 0.04 0.06 0.04 0.06 0.04 0.05 0.04 0.06 0.04 0.05 0.03 0.05 0.04 0.05 0.04 0.05 0.03 0.04 0.04 0.05 0.03 0.04 0.04 0.08 0.06 0.08 0.07 0.07 0.07 0.08 0.07 0.06 0.07 0.07 0.08 0.07 0.07 0.07 0.08 0.07 0.08c0.7 0.87 1.05 1.87 1.05 3.03 0 1.28-0.37 2.25-1.24 3.26-0.41 0.48-0.67 0.7-1.19 1.02l-0.12-0.16c0.8-0.63 1.07-0.98 1.35-1.73 0.23-0.66 0.34-1.42 0.34-2.42 0-1.03-0.12-1.86-0.39-2.47-0.28-0.62-0.58-0.98-1.3-1.56z"/></g>
 </g>
</svg>
