<?xml version="1.0" encoding="UTF-8" standalone="no"?>
<svg id="svg5871" xmlns:rdf="http://www.w3.org/1999/02/22-rdf-syntax-ns#" xmlns="http://www.w3.org/2000/svg" xmlns:ns0="http://www.iki.fi/pav/software/textext/" height="300" width="300" version="1.1" xmlns:cc="http://creativecommons.org/ns#" xmlns:xlink="http://www.w3.org/1999/xlink" viewBox="0 0 300 300" xmlns:dc="http://purl.org/dc/elements/1.1/">
 <style type="text/css">
	@import url('../estilo.css');
 </style>
 <defs>
  <circle id="gpPt5" stroke-width=".222" stroke="currentColor" cy="0" cx="0" r="1"/>
  <use id="gpPt6" xlink:href="#gpPt5" fill="currentColor"/>
 </defs>
 <metadata id="metadata6071">
  <rdf:RDF>
   <cc:Work rdf:about="">
    <dc:format>image/svg+xml</dc:format>
    <dc:type rdf:resource="http://purl.org/dc/dcmitype/StillImage"/>
    <dc:title>Gnuplot</dc:title>
   </cc:Work>
  </rdf:RDF>
 </metadata>
 <title id="title5873">Gnuplot</title>
 <desc id="desc5875">Produced by GNUPLOT 5.0 patchlevel 3</desc>
 <g fill="none">
  <rect id="rect5878" height="300" width="300" y="0" x="0"/>
  <g stroke="none">
   <g id="g5912" style="color:#808080">
    <path id="path5914" d="m20.7 277.2 254.3-254.3" stroke-dasharray="2, 4" stroke="#808080"/>
   </g>
   <g id="g5916" style="color:#808080">
    <path id="path5918" d="m20.7 22.9 254.3 254.3" stroke-dasharray="2, 4" stroke="#808080"/>
   </g>
   <g stroke-width="1.5">
    <g id="g5922" style="color:#000000">
     <g id="g5924" style="shape-rendering:crispEdges">
      <polygon id="polygon5926" points="132 134.2 122.1 131.6 129.4 131.6 129.4 131.6 129.4 124.3" fill="#e69f00"/>
     </g>
     <path id="path5928" d="m129.4 131.6v-7.3l2.6 9.9-9.9-2.6h7.3m-13.3-13.3 13.3 13.3" stroke="#e69f00"/>
    </g>
    <g id="g5930" style="color:#000000">
     <g id="g5932" style="shape-rendering:crispEdges">
      <polygon id="polygon5934" points="243.2 54.7 240.6 64.6 240.6 57.3 240.6 57.3 233.3 57.3" fill="#e69f00"/>
     </g>
     <path id="path5936" d="m240.6 57.3h-7.3l9.9-2.6-2.6 9.9v-7.3m-29.2 29.2 29.2-29.2" stroke="#e69f00"/>
    </g>
    <g id="g5938" style="color:#000000">
     <g id="g5940" style="shape-rendering:crispEdges">
      <polygon id="polygon5942" points="116.1 181.8 113.5 191.7 113.5 184.4 113.5 184.4 106.2 184.4" fill="#0072b2"/>
     </g>
     <path id="path5944" d="m113.5 184.4h-7.3l9.9-2.6-2.6 9.9v-7.3m-29.2 29.2 29.2-29.2" stroke="#0072b2"/>
    </g>
    <g id="g5946" style="color:#000000">
     <g id="g5948" style="shape-rendering:crispEdges">
      <polygon id="polygon5950" points="195.5 197.7 185.6 195.1 192.9 195.1 192.9 195.1 192.9 187.8" fill="#0072b2"/>
     </g>
     <path id="path5952" d="m192.9 195.1v-7.3l2.6 9.9-9.9-2.6h7.3m-13.3-13.3 13.3 13.3" stroke="#0072b2"/>
    </g>
   </g>
  </g>
 </g>
 <g id="gnuplot_plot_1">
  <title id="title5959">NaN</title>
 </g>
 <g stroke="none" fill="none">
  <g id="g5969" style="color:#ffffff">
   <g id="g5971" style="shape-rendering:crispEdges">
    <polygon id="polygon5973" points="161.2 148.7 161.1 148 160.9 147.3 160.8 146.7 160.6 146 160.3 145.3 160.1 144.7 159.8 144 159.4 143.4 159.1 142.8 158.7 142.2 158.2 141.7 157.8 141.1 157.3 140.6 156.8 140.1 156.2 139.7 155.7 139.2 155.1 138.8 154.5 138.5 153.9 138.1 153.2 137.8 152.6 137.6 151.9 137.3 151.2 137.1 150.6 137 149.9 136.8 149.2 136.7 148.5 136.7 147.8 136.7 147 136.7 146.3 136.7 145.6 136.8 144.9 137 144.3 137.1 143.6 137.3 142.9 137.6 142.3 137.8 141.6 138.1 141 138.5 140.4 138.8 139.8 139.2 139.3 139.7 138.7 140.1 138.2 140.6 137.7 141.1 137.3 141.7 136.8 142.2 136.4 142.8 136.1 143.4 135.7 144 135.4 144.7 135.2 145.3 134.9 146 134.7 146.7 134.6 147.3 134.4 148 134.3 148.7 134.3 149.4 134.3 150.1 134.3 150.9 134.3 151.6 134.4 152.3 134.6 153 134.7 153.6 134.9 154.3 135.2 155 135.4 155.6 135.7 156.3 136.1 156.9 136.4 157.5 136.8 158.1 137.3 158.6 137.7 159.2 138.2 159.7 138.7 160.2 139.3 160.6 139.8 161.1 140.4 161.5 141 161.8 141.6 162.2 142.3 162.5 142.9 162.7 143.6 163 144.3 163.2 144.9 163.3 145.6 163.5 146.3 163.6 147 163.6 147.7 163.6 148.5 163.6 149.2 163.6 149.9 163.5 150.6 163.3 151.2 163.2 151.9 163 152.6 162.7 153.2 162.5 153.9 162.2 154.5 161.8 155.1 161.5 155.7 161.1 156.2 160.6 156.8 160.2 157.3 159.7 157.8 159.2 158.2 158.6 158.7 158.1 159.1 157.5 159.4 156.9 159.8 156.3 160.1 155.6 160.3 155 160.6 154.3 160.8 153.6 160.9 153 161.1 152.3 161.2 151.6 161.2 150.9 161.2 150.1 161.2 149.4" fill="#fff"/>
   </g>
   <path id="path5975" d="m161.2 150.1v-0.7-0.7l-0.1-0.7-0.2-0.7-0.1-0.6-0.2-0.7-0.3-0.7-0.2-0.6-0.3-0.7-0.4-0.6-0.3-0.6-0.4-0.6-0.5-0.5-0.4-0.6-0.5-0.5-0.5-0.5-0.6-0.4-0.5-0.5-0.6-0.4-0.6-0.3-0.6-0.4-0.7-0.3-0.6-0.2-0.7-0.3-0.7-0.2-0.6-0.1-0.7-0.2-0.7-0.1h-0.7-0.7-0.8-0.7l-0.7 0.1-0.7 0.2-0.6 0.1-0.7 0.2-0.7 0.3-0.6 0.2-0.7 0.3-0.6 0.4-0.6 0.3-0.6 0.4-0.5 0.5-0.6 0.4-0.5 0.5-0.5 0.5-0.4 0.6-0.5 0.5-0.4 0.6-0.3 0.6-0.4 0.6-0.3 0.7-0.2 0.6-0.3 0.7-0.2 0.7-0.1 0.6-0.2 0.7-0.1 0.7v0.7 0.7 0.8 0.7l0.1 0.7 0.2 0.7 0.1 0.6 0.2 0.7 0.3 0.7 0.2 0.6 0.3 0.7 0.4 0.6 0.3 0.6 0.4 0.6 0.5 0.5 0.4 0.6 0.5 0.5 0.5 0.5 0.6 0.4 0.5 0.5 0.6 0.4 0.6 0.3 0.6 0.4 0.7 0.3 0.6 0.2 0.7 0.3 0.7 0.2 0.6 0.1 0.7 0.2 0.7 0.1h0.7 0.7 0.8 0.7l0.7-0.1 0.7-0.2 0.6-0.1 0.7-0.2 0.7-0.3 0.6-0.2 0.7-0.3 0.6-0.4 0.6-0.3 0.6-0.4 0.5-0.5 0.6-0.4 0.5-0.5 0.5-0.5 0.4-0.6 0.5-0.5 0.4-0.6 0.3-0.6 0.4-0.6 0.3-0.7 0.2-0.6 0.3-0.7 0.2-0.7 0.1-0.6 0.2-0.7 0.1-0.7v-0.7-0.7" stroke="#000"/>
   <g id="g5977" font-size="12px" transform="translate(120.6,118.3)" font-family="Arial" fill="#000">
    <text id="text5979"/>
   </g>
  </g>
  <g id="g5981" style="color:#000000">
   <use id="use5983" style="color:#e51e10" xlink:href="#gpPt6" transform="matrix(3.38,0,0,3.38,116.1,118.3)" height="100%" width="100%" y="0" x="0"/>
  </g>
  <g id="g5985" style="color:#000000">
   <g id="g5987" font-size="12px" transform="translate(120.6,118.3)" font-family="Arial" fill="#000">
    <text id="text5989"/>
   </g>
  </g>
  <g id="g5991" style="color:#000000">
   <use id="use5993" style="color:#000000" xlink:href="#gpPt5" transform="matrix(3.38,0,0,3.38,116.1,118.3)" height="100%" width="100%" y="0" x="0"/>
  </g>
  <g id="g5995" style="color:#000000">
   <g id="g5997" font-size="12px" transform="translate(215.9,86.5)" font-family="Arial" fill="#000">
    <text id="text5999"/>
   </g>
  </g>
  <g id="g6001" style="color:#000000">
   <use id="use6003" style="color:#e51e10" xlink:href="#gpPt6" transform="matrix(3.38,0,0,3.38,211.4,86.5)" height="100%" width="100%" y="0" x="0"/>
  </g>
  <g id="g6005" style="color:#000000">
   <g id="g6007" font-size="12px" transform="translate(215.9,86.5)" font-family="Arial" fill="#000">
    <text id="text6009"/>
   </g>
  </g>
  <g id="g6011" style="color:#000000">
   <use id="use6013" style="color:#000000" xlink:href="#gpPt5" transform="matrix(3.38,0,0,3.38,211.4,86.5)" height="100%" width="100%" y="0" x="0"/>
  </g>
  <g id="g6015" style="color:#000000">
   <g id="g6017" font-size="12px" transform="translate(88.8,213.6)" font-family="Arial" fill="#000">
    <text id="text6019"/>
   </g>
  </g>
  <g id="g6021" style="color:#000000">
   <use id="use6023" style="color:#00ff00" xlink:href="#gpPt6" transform="matrix(3.38,0,0,3.38,84.3,213.6)" height="100%" width="100%" y="0" x="0"/>
  </g>
  <g id="g6025" style="color:#000000">
   <g id="g6027" font-size="12px" transform="translate(88.8,213.6)" font-family="Arial" fill="#000">
    <text id="text6029"/>
   </g>
  </g>
  <g id="g6031" style="color:#000000">
   <use id="use6033" style="color:#000000" xlink:href="#gpPt5" transform="matrix(3.38,0,0,3.38,84.3,213.6)" height="100%" width="100%" y="0" x="0"/>
  </g>
  <g id="g6035" style="color:#000000">
   <g id="g6037" font-size="12px" transform="translate(184.1,181.8)" font-family="Arial" fill="#000">
    <text id="text6039"/>
   </g>
  </g>
  <g id="g6041" style="color:#000000">
   <use id="use6043" style="color:#00ff00" xlink:href="#gpPt6" transform="matrix(3.38,0,0,3.38,179.6,181.8)" height="100%" width="100%" y="0" x="0"/>
  </g>
  <g id="g6045" style="color:#000000">
   <g id="g6047" font-size="12px" transform="translate(184.1,181.8)" font-family="Arial" fill="#000">
    <text id="text6049"/>
   </g>
  </g>
  <g id="g6051" style="color:#000000">
   <use id="use6053" style="color:#000000" xlink:href="#gpPt5" transform="matrix(3.38,0,0,3.38,179.6,181.8)" height="100%" width="100%" y="0" x="0"/>
  </g>
  <g id="g6057" style="color:#000000">
   <g id="g6059" style="shape-rendering:crispEdges">
    <polygon id="polygon6061" points="145.6 150.1 155.2 146.6 155.2 150.1 155.2 150.1 155.2 153.6" fill="#000"/>
   </g>
   <path id="path6063" d="m155.2 150.1h38.1" stroke="#000"/>
  </g>
 </g>
 <g stroke-width="0" fill-rule="evenodd" stroke="#000" stroke-miterlimit="10.433">
  <g id="content" xml:space="preserve" ns0:pdfconverter="pstoedit" transform="matrix(1.75 0 0 -1.75 -159.74 1375.7)" ns0:text="$\\vec{v}_{1i}$" ns0:version="0.7.2" ns0:inkscapeversion="0.91" ns0:preamble="/usr/share/inkscape/extensions/default_packages.tex" ns0:scale="1.4" ns0:texconverter="pdflatex"><polygon id="polygon4830" points="152.12 711.92 152.31 711.68 153.98 713.12 152.93 714.56 152.64 714.32 153.18 713.32 149.85 713.32 149.76 712.93 153.1 712.93"/><path id="path4832" d="m148.92 711.14h0.02 0.02 0.02 0.02 0.02 0.01l0.02 0.01h0.02 0.03 0.02 0.02 0.02 0.02 0.02 0.02c0.39 0 0.49-0.17 0.63-1.09 0.1-0.69 0.22-2.19 0.22-2.77 0-0.28 0.02-0.35 0.08-0.35 0.25 0 1.18 1.06 2.2 2.47 0.35 0.5 0.6 1.15 0.6 1.52 0 0.32-0.25 0.59-0.55 0.59-0.22 0-0.37-0.13-0.37-0.34 0-0.16 0.06-0.28 0.24-0.44 0.13-0.12 0.18-0.2 0.18-0.3 0-0.46-0.66-1.56-1.37-2.3l-0.31-0.32c-0.07 1.4-0.13 1.92-0.26 2.66-0.2 1.02-0.2 1.04-0.29 1.04-0.05 0-0.12-0.01-0.2-0.04-0.17-0.05-0.72-0.15-1.1-0.21z"/><path id="path4834" d="m155.16 710.34-1.25-0.63v-0.1c0.08 0.04 0.16 0.06 0.19 0.08 0.12 0.05 0.24 0.08 0.31 0.08 0.15 0 0.21-0.11 0.21-0.33v-3.16c0-0.23-0.05-0.39-0.17-0.45-0.1-0.07-0.2-0.09-0.49-0.1v-0.1h1.92v0.1c-0.55 0.01-0.66 0.08-0.66 0.42v4.18z"/><path id="path4836" d="m158.17 706.42-0.01-0.02-0.02-0.01-0.01-0.02-0.02-0.02-0.01-0.02-0.01-0.01-0.01-0.02-0.01-0.01-0.02-0.02-0.01-0.01-0.01-0.01-0.01-0.02v-0.01l-0.01-0.01-0.01-0.01-0.01-0.01-0.01-0.01v-0.01h-0.01l-0.01-0.01-0.01-0.01v-0.01l-0.01-0.01-0.02-0.02-0.01-0.01-0.01-0.02-0.02-0.01c-0.11-0.12-0.22-0.19-0.28-0.19s-0.11 0.06-0.11 0.11c0 0.06 0.02 0.17 0.07 0.3 0 0.02 0.02 0.07 0.03 0.13v0.01l0.01 0.02 0.61 2.24-0.02 0.02c-0.7-0.14-0.84-0.16-1.11-0.18v-0.11c0.37-0.01 0.43-0.03 0.43-0.17 0-0.05-0.02-0.16-0.06-0.3l-0.33-1.24c-0.11-0.4-0.16-0.62-0.16-0.76 0-0.26 0.12-0.4 0.33-0.4 0.32 0 0.57 0.21 0.97 0.8z"/><path id="path4838" d="m158.12 710.19h-0.02-0.02-0.02l-0.01-0.01h-0.02l-0.02-0.01h-0.01l-0.02-0.01h-0.01l-0.01-0.01-0.02-0.01-0.01-0.01-0.01-0.01-0.02-0.01-0.01-0.01-0.01-0.02-0.01-0.01-0.01-0.01-0.01-0.02-0.01-0.01-0.01-0.02v-0.01l-0.01-0.02-0.01-0.01v-0.02l-0.01-0.02v-0.01l-0.01-0.02v-0.02-0.02-0.02-0.02c0-0.22 0.13-0.37 0.33-0.37 0.18 0 0.34 0.16 0.34 0.36s-0.16 0.38-0.34 0.38z"/></g>
  <g id="g5072" xml:space="preserve" ns0:pdfconverter="pstoedit" transform="matrix(1.75 0 0 -1.75 -55.43 1303.2)" ns0:text="$\\vec{v}_{1f}$" ns0:version="0.7.2" ns0:inkscapeversion="0.91" ns0:preamble="/usr/share/inkscape/extensions/default_packages.tex" ns0:scale="1.4" ns0:texconverter="pdflatex"><polygon id="polygon5074" points="152.12 711.92 152.31 711.68 153.98 713.12 152.93 714.56 152.64 714.32 153.18 713.32 149.85 713.32 149.76 712.93 153.1 712.93"/><path id="path5076" d="m148.92 711.14h0.02 0.02 0.02 0.02 0.02 0.01l0.02 0.01h0.02 0.03 0.02 0.02 0.02 0.02 0.02 0.02c0.39 0 0.49-0.17 0.63-1.09 0.1-0.69 0.22-2.19 0.22-2.77 0-0.28 0.02-0.35 0.08-0.35 0.25 0 1.18 1.06 2.2 2.47 0.35 0.5 0.6 1.15 0.6 1.52 0 0.32-0.25 0.59-0.55 0.59-0.22 0-0.37-0.13-0.37-0.34 0-0.16 0.06-0.28 0.24-0.44 0.13-0.12 0.18-0.2 0.18-0.3 0-0.46-0.66-1.56-1.37-2.3l-0.31-0.32c-0.07 1.4-0.13 1.92-0.26 2.66-0.2 1.02-0.2 1.04-0.29 1.04-0.05 0-0.12-0.01-0.2-0.04-0.17-0.05-0.72-0.15-1.1-0.21z"/><path id="path5078" d="m155.16 710.34-1.25-0.63v-0.1c0.08 0.04 0.16 0.06 0.19 0.08 0.12 0.05 0.24 0.08 0.31 0.08 0.15 0 0.21-0.11 0.21-0.33v-3.16c0-0.23-0.05-0.39-0.17-0.45-0.1-0.07-0.2-0.09-0.49-0.1v-0.1h1.92v0.1c-0.55 0.01-0.66 0.08-0.66 0.42v4.18z"/><path id="path5080" d="m157.92 708.39h0.62l-0.61-2.93c-0.15-0.74-0.38-1.13-0.68-1.13-0.08 0-0.13 0.05-0.13 0.11 0 0.03 0 0.05 0.02 0.08 0.03 0.04 0.04 0.07 0.04 0.11 0 0.15-0.13 0.27-0.28 0.27-0.14 0-0.25-0.13-0.25-0.29 0-0.23 0.24-0.42 0.55-0.42 0.62 0 1.11 0.69 1.39 1.97l0.51 2.23h0.75l0.05 0.22h-0.76c0.21 1.1 0.46 1.6 0.85 1.6 0.1 0 0.16-0.04 0.16-0.09 0-0.02-0.01-0.03-0.03-0.07-0.03-0.06-0.04-0.1-0.04-0.14 0-0.17 0.1-0.28 0.26-0.28s0.29 0.12 0.29 0.28c0 0.25-0.26 0.45-0.6 0.45s-0.61-0.15-0.87-0.48c-0.2-0.28-0.34-0.6-0.55-1.27h-0.65z"/></g>
  <g id="g5324" xml:space="preserve" ns0:pdfconverter="pstoedit" transform="matrix(1.75 0 0 -1.75 -180.03 1430)" ns0:text="$\\vec{v}_{2i}$" ns0:version="0.7.2" ns0:inkscapeversion="0.91" ns0:preamble="/usr/share/inkscape/extensions/default_packages.tex" ns0:scale="1.4" ns0:texconverter="pdflatex"><polygon id="polygon5326" points="152.12 711.92 152.31 711.68 153.98 713.12 152.93 714.56 152.64 714.32 153.18 713.32 149.85 713.32 149.76 712.93 153.1 712.93"/><path id="path5328" d="m148.92 711.14h0.02 0.02 0.02 0.02 0.02 0.01l0.02 0.01h0.02 0.03 0.02 0.02 0.02 0.02 0.02 0.02c0.39 0 0.49-0.17 0.63-1.09 0.1-0.69 0.22-2.19 0.22-2.77 0-0.28 0.02-0.35 0.08-0.35 0.25 0 1.18 1.06 2.2 2.47 0.35 0.5 0.6 1.15 0.6 1.52 0 0.32-0.25 0.59-0.55 0.59-0.22 0-0.37-0.13-0.37-0.34 0-0.16 0.06-0.28 0.24-0.44 0.13-0.12 0.18-0.2 0.18-0.3 0-0.46-0.66-1.56-1.37-2.3l-0.31-0.32c-0.07 1.4-0.13 1.92-0.26 2.66-0.2 1.02-0.2 1.04-0.29 1.04-0.05 0-0.12-0.01-0.2-0.04-0.17-0.05-0.72-0.15-1.1-0.21z"/><path id="path5330" d="m156.45 706.59-0.09 0.03c-0.26-0.4-0.35-0.46-0.67-0.46h-1.66l1.17 1.23c0.62 0.65 0.89 1.18 0.89 1.72 0 0.7-0.56 1.23-1.29 1.23-0.38 0-0.74-0.15-1-0.43-0.23-0.24-0.33-0.46-0.45-0.95l0.15-0.04c0.28 0.68 0.53 0.91 1.01 0.91 0.59 0 0.98-0.4 0.98-0.99 0-0.54-0.32-1.19-0.9-1.81l-1.25-1.32v-0.08h2.72z"/><path id="path5332" d="m158.17 706.42-0.01-0.02-0.02-0.01-0.01-0.02-0.02-0.02-0.01-0.02-0.01-0.01-0.01-0.02-0.01-0.01-0.02-0.02-0.01-0.01-0.01-0.01-0.01-0.02v-0.01l-0.01-0.01-0.01-0.01-0.01-0.01-0.01-0.01v-0.01h-0.01l-0.01-0.01-0.01-0.01v-0.01l-0.01-0.01-0.02-0.02-0.01-0.01-0.01-0.02-0.02-0.01c-0.11-0.12-0.22-0.19-0.28-0.19s-0.11 0.06-0.11 0.11c0 0.06 0.02 0.17 0.07 0.3 0 0.02 0.02 0.07 0.03 0.13v0.01l0.01 0.02 0.61 2.24-0.02 0.02c-0.7-0.14-0.84-0.16-1.11-0.18v-0.11c0.37-0.01 0.43-0.03 0.43-0.17 0-0.05-0.02-0.16-0.06-0.3l-0.33-1.24c-0.11-0.4-0.16-0.62-0.16-0.76 0-0.26 0.12-0.4 0.33-0.4 0.32 0 0.57 0.21 0.97 0.8z"/><path id="path5334" d="m158.12 710.19h-0.02-0.02-0.02l-0.01-0.01h-0.02l-0.02-0.01h-0.01l-0.02-0.01h-0.01l-0.01-0.01-0.02-0.01-0.01-0.01-0.01-0.01-0.02-0.01-0.01-0.01-0.01-0.02-0.01-0.01-0.01-0.01-0.01-0.02-0.01-0.01-0.01-0.02v-0.01l-0.01-0.02-0.01-0.01v-0.02l-0.01-0.02v-0.01l-0.01-0.02v-0.02-0.02-0.02-0.02c0-0.22 0.13-0.37 0.33-0.37 0.18 0 0.34 0.16 0.34 0.36s-0.16 0.38-0.34 0.38z"/></g>
  <g id="g5590" xml:space="preserve" ns0:pdfconverter="pstoedit" transform="matrix(1.75 0 0 -1.75 -97.467 1441.2)" ns0:text="$\\vec{v}_{2f}$" ns0:version="0.7.2" ns0:inkscapeversion="0.91" ns0:preamble="/usr/share/inkscape/extensions/default_packages.tex" ns0:scale="1.4" ns0:texconverter="pdflatex"><polygon id="polygon5592" points="152.31 711.68 153.98 713.12 152.93 714.56 152.64 714.32 153.18 713.32 149.85 713.32 149.76 712.93 153.1 712.93 152.12 711.92"/><path id="path5594" d="m148.92 711.14h0.02 0.02 0.02 0.02 0.02 0.01l0.02 0.01h0.02 0.03 0.02 0.02 0.02 0.02 0.02 0.02c0.39 0 0.49-0.17 0.63-1.09 0.1-0.69 0.22-2.19 0.22-2.77 0-0.28 0.02-0.35 0.08-0.35 0.25 0 1.18 1.06 2.2 2.47 0.35 0.5 0.6 1.15 0.6 1.52 0 0.32-0.25 0.59-0.55 0.59-0.22 0-0.37-0.13-0.37-0.34 0-0.16 0.06-0.28 0.24-0.44 0.13-0.12 0.18-0.2 0.18-0.3 0-0.46-0.66-1.56-1.37-2.3l-0.31-0.32c-0.07 1.4-0.13 1.92-0.26 2.66-0.2 1.02-0.2 1.04-0.29 1.04-0.05 0-0.12-0.01-0.2-0.04-0.17-0.05-0.72-0.15-1.1-0.21z"/><path id="path5596" d="m156.45 706.59-0.09 0.03c-0.26-0.4-0.35-0.46-0.67-0.46h-1.66l1.17 1.23c0.62 0.65 0.89 1.18 0.89 1.72 0 0.7-0.56 1.23-1.29 1.23-0.38 0-0.74-0.15-1-0.43-0.23-0.24-0.33-0.46-0.45-0.95l0.15-0.04c0.28 0.68 0.53 0.91 1.01 0.91 0.59 0 0.98-0.4 0.98-0.99 0-0.54-0.32-1.19-0.9-1.81l-1.25-1.32v-0.08h2.72z"/><path id="path5598" d="m157.92 708.39h0.62l-0.61-2.93c-0.15-0.74-0.38-1.13-0.68-1.13-0.08 0-0.13 0.05-0.13 0.11 0 0.03 0 0.05 0.02 0.08 0.03 0.04 0.04 0.07 0.04 0.11 0 0.15-0.13 0.27-0.28 0.27-0.14 0-0.25-0.13-0.25-0.29 0-0.23 0.24-0.42 0.55-0.42 0.62 0 1.11 0.69 1.39 1.97l0.51 2.23h0.75l0.05 0.22h-0.76c0.21 1.1 0.46 1.6 0.85 1.6 0.1 0 0.16-0.04 0.16-0.09 0-0.02-0.01-0.03-0.03-0.07-0.03-0.06-0.04-0.1-0.04-0.14 0-0.17 0.1-0.28 0.26-0.28s0.29 0.12 0.29 0.28c0 0.25-0.26 0.45-0.6 0.45s-0.61-0.15-0.87-0.48c-0.2-0.28-0.34-0.6-0.55-1.27h-0.65z"/></g>
 </g>
 <g id="g5762" transform="translate(-45.452 -2.012)">
  <text id="text5750" style="word-spacing:0px;letter-spacing:0px" font-size="16px" line-height="125%" y="156" x="242" font-family="&apos;STIX Two Text&apos;" xml:space="preserve" fill="#000000"><tspan id="tspan5752" y="156" x="242">choque</tspan></text>
  <rect id="rect5760" stroke-linejoin="round" height="25" width="55" stroke="#000" y="139.61" x="239.25" fill="none"/>
 </g>
</svg>
