<?xml version="1.0" encoding="UTF-8" standalone="no"?>
<svg id="svg4556" xmlns:rdf="http://www.w3.org/1999/02/22-rdf-syntax-ns#" xmlns="http://www.w3.org/2000/svg" xmlns:ns0="http://www.iki.fi/pav/software/textext/" height="90" width="200" version="1.1" xmlns:cc="http://creativecommons.org/ns#" xmlns:xlink="http://www.w3.org/1999/xlink" viewBox="0 0 200 90" xmlns:dc="http://purl.org/dc/elements/1.1/">
 <defs>
  <circle id="gpPt5" stroke-width=".222" cy="0" stroke="currentColor" cx="0" r="1"/>
  <use id="gpPt6" xlink:href="#gpPt5" fill="currentColor"/>
 </defs>
 <metadata id="metadata4680">
  <rdf:RDF>
   <cc:Work rdf:about="">
    <dc:format>image/svg+xml</dc:format>
    <dc:type rdf:resource="http://purl.org/dc/dcmitype/StillImage"/>
    <dc:title>Gnuplot</dc:title>
   </cc:Work>
  </rdf:RDF>
 </metadata>
 <title id="title4558">Gnuplot</title>
 <desc id="desc4560">Produced by GNUPLOT 5.0 patchlevel 3</desc>
 <g id="gnuplot_canvas">
  <g fill="none">
   <rect id="rect4563" height="90" width="200" y="0" x="0"/>
   <g stroke="currentColor">
    <g id="g4597" color="gray">
     <path id="path4599" stroke="gray" stroke-dasharray="2,4" d="m14.9 45h170.1"/>
    </g>
    <g id="g4603" color="black" stroke-width="1.5">
     <g id="g4605" stroke="none" shape-rendering="crispEdges">
      <polygon id="polygon4607" points="82.1 45 76.9 39.9 85.8 45 76.9 50.1" fill="#e69f00"/>
     </g>
     <path id="path4609" stroke="#e69f00" d="m82.1 45l-5.2-5.1 8.9 5.1-8.9 5.1 5.2-5.1m-53 0h53"/>
    </g>
    <g id="g4611" color="black" stroke-width="1.5">
     <g id="g4613" stroke="none" shape-rendering="crispEdges">
      <polygon id="polygon4615" points="167.2 45 162 39.9 170.9 45 162 50.1" fill="#0072b2"/>
     </g>
     <path id="path4617" stroke="#0072b2" d="m167.2 45l-5.2-5.1 8.9 5.1-8.9 5.1 5.2-5.1m-24.7 0h24.7"/>
    </g>
   </g>
  </g>
  <g id="gnuplot_plot_1">
   <title id="title4624">NaN</title>
  </g>
  <g stroke="currentColor" fill="none">
   <g id="g4630" color="black" stroke-width="2">
    <g id="g4632" font-size="12" transform="translate(33.6 45)" stroke="none" font-family="Arial" fill="#000">
     <text id="text4634"/>
    </g>
   </g>
   <g>
    <g id="g4638" color="black">
     <use id="use4640" color="rgb(229,  30,  16)" xlink:href="#gpPt6" transform="translate(29.1 45) scale(3.38)"/>
    </g>
    <g id="g4642" color="black">
     <g id="g4644" font-size="12" transform="translate(33.6 45)" stroke="none" font-family="Arial" fill="#000">
      <text id="text4646"/>
     </g>
    </g>
    <g id="g4648" color="black">
     <use id="use4650" color="black" xlink:href="#gpPt5" transform="translate(29.1 45) scale(3.38)"/>
    </g>
    <g id="g4652" color="black">
     <g id="g4654" font-size="12" transform="translate(147 45)" stroke="none" font-family="Arial" fill="#000">
      <text id="text4656"/>
     </g>
    </g>
    <g id="g4658" color="black">
     <use id="use4660" color="rgb(  0, 255,   0)" xlink:href="#gpPt6" transform="translate(142.5 45) scale(3.38)"/>
    </g>
    <g id="g4662" color="black">
     <g id="g4664" font-size="12" transform="translate(147 45)" stroke="none" font-family="Arial" fill="#000">
      <text id="text4666"/>
     </g>
    </g>
    <g id="g4668" color="black">
     <use id="use4670" color="black" xlink:href="#gpPt5" transform="translate(142.5 45) scale(3.38)"/>
    </g>
   </g>
  </g>
 </g>
 <g stroke-width="0" fill-rule="evenodd" stroke="#000" stroke-miterlimit="10.433">
  <g id="content" xml:space="preserve" ns0:pdfconverter="pstoedit" transform="matrix(1.75 0 0 -1.75 -237.12 1272.4)" ns0:text="$m_1$" ns0:version="0.7.2" ns0:inkscapeversion="0.91" ns0:preamble="/usr/share/inkscape/extensions/default_packages.tex" ns0:scale="1.4" ns0:texconverter="pdflatex"><path id="path4759" d="m155.57 708.29-0.01-0.02-0.02-0.03-0.02-0.02-0.02-0.02v-0.01l-0.01-0.01-0.01-0.01-0.01-0.01h-0.01v-0.01l-0.01-0.01-0.01-0.01v-0.01l-0.01-0.01-0.01-0.01-0.01-0.01v-0.01h-0.01v-0.01l-0.01-0.01-0.01-0.01-0.01-0.01v-0.01c-0.28-0.36-0.49-0.53-0.64-0.53-0.08 0-0.13 0.06-0.13 0.16 0 0.05 0.04 0.21 0.1 0.45l0.68 2.5c0 0.04 0.02 0.22 0.02 0.28 0 0.36-0.24 0.63-0.58 0.63-0.19 0-0.39-0.07-0.63-0.22-0.49-0.32-0.9-0.8-1.59-1.9 0.25 0.76 0.4 1.33 0.4 1.52 0 0.35-0.23 0.6-0.56 0.6-0.61 0-1.31-0.66-2.23-2.11l0.58 2.09-0.03 0.02c-0.56-0.12-0.77-0.16-1.59-0.31v-0.16h0.25c0.26 0 0.39-0.07 0.39-0.22 0-0.11-0.23-1.02-0.59-2.28-0.23-0.82-0.26-0.92-0.39-1.43h0.75c0.47 1.59 0.62 1.96 0.96 2.47 0.56 0.85 1.16 1.41 1.5 1.41 0.13 0 0.2-0.09 0.2-0.25 0-0.09-0.32-1.3-0.95-3.63h0.75c0.4 1.56 0.59 2.05 1.1 2.76 0.49 0.68 0.99 1.12 1.28 1.12 0.11 0 0.2-0.1 0.2-0.21 0-0.05-0.02-0.17-0.07-0.35l-0.58-2.29c-0.09-0.37-0.13-0.56-0.13-0.66 0-0.3 0.14-0.46 0.4-0.46 0.47 0 0.91 0.33 1.43 1.07l0.05 0.07z"/><path id="path4761" d="m157.93 710.34-1.25-0.63v-0.1c0.08 0.04 0.16 0.06 0.19 0.08 0.12 0.05 0.24 0.08 0.31 0.08 0.14 0 0.21-0.11 0.21-0.33v-3.16c0-0.23-0.06-0.39-0.17-0.45-0.1-0.07-0.2-0.09-0.49-0.1v-0.1h1.92v0.1c-0.55 0.01-0.66 0.08-0.66 0.42v4.18z"/></g>
  <g id="g4915" xml:space="preserve" ns0:pdfconverter="pstoedit" transform="matrix(1.75 0 0 -1.75 -124.05 1272.4)" ns0:text="$m_2$" ns0:version="0.7.2" ns0:inkscapeversion="0.91" ns0:preamble="/usr/share/inkscape/extensions/default_packages.tex" ns0:scale="1.4" ns0:texconverter="pdflatex"><path id="path4917" d="m155.57 708.29-0.01-0.02-0.02-0.03-0.02-0.02-0.02-0.02v-0.01l-0.01-0.01-0.01-0.01-0.01-0.01h-0.01v-0.01l-0.01-0.01-0.01-0.01v-0.01l-0.01-0.01-0.01-0.01-0.01-0.01v-0.01h-0.01v-0.01l-0.01-0.01-0.01-0.01-0.01-0.01v-0.01c-0.28-0.36-0.49-0.53-0.64-0.53-0.08 0-0.13 0.06-0.13 0.16 0 0.05 0.04 0.21 0.1 0.45l0.68 2.5c0 0.04 0.02 0.22 0.02 0.28 0 0.36-0.24 0.63-0.58 0.63-0.19 0-0.39-0.07-0.63-0.22-0.49-0.32-0.9-0.8-1.59-1.9 0.25 0.76 0.4 1.33 0.4 1.52 0 0.35-0.23 0.6-0.56 0.6-0.61 0-1.31-0.66-2.23-2.11l0.58 2.09-0.03 0.02c-0.56-0.12-0.77-0.16-1.59-0.31v-0.16h0.25c0.26 0 0.39-0.07 0.39-0.22 0-0.11-0.23-1.02-0.59-2.28-0.23-0.82-0.26-0.92-0.39-1.43h0.75c0.47 1.59 0.62 1.96 0.96 2.47 0.56 0.85 1.16 1.41 1.5 1.41 0.13 0 0.2-0.09 0.2-0.25 0-0.09-0.32-1.3-0.95-3.63h0.75c0.4 1.56 0.59 2.05 1.1 2.76 0.49 0.68 0.99 1.12 1.28 1.12 0.11 0 0.2-0.1 0.2-0.21 0-0.05-0.02-0.17-0.07-0.35l-0.58-2.29c-0.09-0.37-0.13-0.56-0.13-0.66 0-0.3 0.14-0.46 0.4-0.46 0.47 0 0.91 0.33 1.43 1.07l0.05 0.07z"/><path id="path4919" d="m159.21 706.59-0.09 0.03c-0.25-0.4-0.34-0.46-0.66-0.46h-1.67l1.18 1.23c0.62 0.65 0.89 1.18 0.89 1.72 0 0.7-0.57 1.23-1.29 1.23-0.38 0-0.75-0.15-1-0.43-0.23-0.24-0.33-0.46-0.45-0.95l0.14-0.04c0.28 0.68 0.53 0.91 1.02 0.91 0.58 0 0.98-0.4 0.98-0.99 0-0.54-0.32-1.19-0.91-1.81l-1.24-1.32v-0.08h2.72z"/></g>
  <g id="g5685" xml:space="preserve" ns0:scale="1.4" ns0:pdfconverter="pstoedit" transform="matrix(1.75 0 0 -1.75 -255.44 1309.2)" ns0:text="$\\vec{v}_{1i} = v_{1i} \\, \\vec{i}$" ns0:version="0.7.2" ns0:inkscapeversion="0.91" ns0:preamble="/usr/share/inkscape/extensions/default_packages.tex" ns0:texconverter="pdflatex"><polygon id="polygon5687" points="153.98 713.12 152.93 714.56 152.64 714.32 153.18 713.32 149.85 713.32 149.76 712.93 153.1 712.93 152.12 711.92 152.31 711.68"/><path id="path5689" d="m148.92 711.14h0.02 0.02 0.02 0.02 0.02 0.01l0.02 0.01h0.02 0.03 0.02 0.02 0.02 0.02 0.02 0.02c0.39 0 0.49-0.17 0.63-1.09 0.1-0.69 0.22-2.19 0.22-2.77 0-0.28 0.02-0.35 0.08-0.35 0.25 0 1.18 1.06 2.2 2.47 0.35 0.5 0.6 1.15 0.6 1.52 0 0.32-0.25 0.59-0.55 0.59-0.22 0-0.37-0.13-0.37-0.34 0-0.16 0.06-0.28 0.24-0.44 0.13-0.12 0.18-0.2 0.18-0.3 0-0.46-0.66-1.56-1.37-2.3l-0.31-0.32c-0.07 1.4-0.13 1.92-0.26 2.66-0.2 1.02-0.2 1.04-0.29 1.04-0.05 0-0.12-0.01-0.2-0.04-0.17-0.05-0.72-0.15-1.1-0.21z"/><path id="path5691" d="m155.16 710.34l-1.25-0.63v-0.1c0.08 0.04 0.16 0.06 0.19 0.08 0.12 0.05 0.24 0.08 0.31 0.08 0.15 0 0.21-0.11 0.21-0.33v-3.16c0-0.23-0.05-0.39-0.17-0.45-0.1-0.07-0.2-0.09-0.49-0.1v-0.1h1.92v0.1c-0.55 0.01-0.66 0.08-0.66 0.42v4.18z"/><path id="path5693" d="m158.17 706.42l-0.01-0.02-0.02-0.01-0.01-0.02-0.02-0.02-0.01-0.02-0.01-0.01-0.01-0.02-0.01-0.01-0.02-0.02-0.01-0.01-0.01-0.01-0.01-0.02v-0.01l-0.01-0.01-0.01-0.01-0.01-0.01-0.01-0.01v-0.01h-0.01l-0.01-0.01-0.01-0.01v-0.01l-0.01-0.01-0.02-0.02-0.01-0.01-0.01-0.02-0.02-0.01c-0.11-0.12-0.22-0.19-0.28-0.19s-0.11 0.06-0.11 0.11c0 0.06 0.02 0.17 0.07 0.3 0 0.02 0.02 0.07 0.03 0.13v0.01l0.01 0.02 0.61 2.24-0.02 0.02c-0.7-0.14-0.84-0.16-1.11-0.18v-0.11c0.37-0.01 0.43-0.03 0.43-0.17 0-0.05-0.02-0.16-0.06-0.3l-0.33-1.24c-0.11-0.4-0.16-0.62-0.16-0.76 0-0.26 0.12-0.4 0.33-0.4 0.32 0 0.57 0.21 0.97 0.8z"/><path id="path5695" d="m158.12 710.19h-0.02-0.02-0.02l-0.01-0.01h-0.02l-0.02-0.01h-0.01l-0.02-0.01h-0.01l-0.01-0.01-0.02-0.01-0.01-0.01-0.01-0.01-0.02-0.01-0.01-0.01-0.01-0.02-0.01-0.01-0.01-0.01-0.01-0.02-0.01-0.01-0.01-0.02v-0.01l-0.01-0.02-0.01-0.01v-0.02l-0.01-0.02v-0.01l-0.01-0.02v-0.02-0.02-0.02-0.02c0-0.22 0.13-0.37 0.33-0.37 0.18 0 0.34 0.16 0.34 0.36s-0.16 0.38-0.34 0.38z"/><polygon id="polygon5697" points="167.55 710.41 167.55 710.97 162.45 710.97 162.45 710.41"/><polygon id="polygon5699" points="167.55 708.39 167.55 708.95 162.45 708.95 162.45 708.39"/><path id="path5701" d="m171.14 711.14h0.02 0.02 0.02 0.02 0.02 0.02l0.03 0.01h0.04 0.01 0.02 0.02 0.02 0.02 0.02c0.39 0 0.49-0.17 0.63-1.09 0.1-0.69 0.22-2.19 0.22-2.77 0-0.28 0.02-0.35 0.09-0.35 0.25 0 1.17 1.06 2.19 2.47 0.35 0.5 0.61 1.15 0.61 1.52 0 0.32-0.26 0.59-0.56 0.59-0.22 0-0.37-0.13-0.37-0.34 0-0.16 0.06-0.28 0.24-0.44 0.13-0.12 0.18-0.2 0.18-0.3 0-0.46-0.66-1.56-1.37-2.3l-0.31-0.32c-0.06 1.4-0.12 1.92-0.25 2.66-0.2 1.02-0.2 1.04-0.29 1.04-0.05 0-0.12-0.01-0.2-0.04-0.18-0.05-0.73-0.15-1.11-0.21z"/><path id="path5703" d="m177.39 710.34l-1.26-0.63v-0.1c0.08 0.04 0.16 0.06 0.19 0.08 0.13 0.05 0.24 0.08 0.31 0.08 0.15 0 0.21-0.11 0.21-0.33v-3.16c0-0.23-0.05-0.39-0.16-0.45-0.11-0.07-0.21-0.09-0.5-0.1v-0.1h1.92v0.1c-0.55 0.01-0.66 0.08-0.66 0.42v4.18z"/><path id="path5705" d="m180.39 706.42l-0.02-0.02-0.01-0.01-0.02-0.02-0.01-0.02-0.01-0.02-0.02-0.01-0.01-0.02-0.01-0.01-0.01-0.02-0.01-0.01-0.01-0.01-0.01-0.02-0.01-0.01-0.01-0.01-0.01-0.01v-0.01l-0.01-0.01-0.01-0.01h-0.01v-0.01l-0.01-0.01-0.01-0.01-0.01-0.01-0.01-0.02-0.01-0.01-0.02-0.02-0.01-0.01c-0.12-0.12-0.22-0.19-0.29-0.19-0.05 0-0.11 0.06-0.11 0.11 0 0.06 0.02 0.17 0.07 0.3 0 0.02 0.02 0.07 0.04 0.13v0.01 0.02l0.62 2.24-0.02 0.02c-0.71-0.14-0.85-0.16-1.12-0.18v-0.11c0.37-0.01 0.44-0.03 0.44-0.17 0-0.05-0.02-0.16-0.06-0.3l-0.34-1.24c-0.11-0.4-0.15-0.62-0.15-0.76 0-0.26 0.11-0.4 0.32-0.4 0.32 0 0.58 0.21 0.98 0.8z"/><path id="path5707" d="m180.33 710.19h-0.02-0.01-0.02l-0.02-0.01h-0.01l-0.02-0.01h-0.02l-0.01-0.01h-0.02l-0.01-0.01-0.01-0.01-0.02-0.01-0.01-0.01-0.01-0.01-0.01-0.01-0.01-0.02-0.02-0.01-0.01-0.01v-0.02l-0.01-0.01-0.01-0.02-0.01-0.01-0.01-0.02v-0.01l-0.01-0.02v-0.02l-0.01-0.01v-0.02-0.02l-0.01-0.02v-0.02-0.02c0-0.22 0.13-0.37 0.34-0.37 0.18 0 0.34 0.16 0.34 0.36s-0.16 0.38-0.35 0.38z"/><polygon id="polygon5709" points="187.28 715.23 186.23 716.67 185.94 716.43 186.48 715.43 183.15 715.43 183.06 715.03 186.4 715.03 185.42 714.03 185.61 713.79"/><path id="path5711" d="m185.15 708.26l-0.02-0.03-0.02-0.03-0.02-0.03-0.02-0.02-0.02-0.02-0.02-0.03-0.01-0.02-0.02-0.02-0.01-0.02-0.02-0.02-0.01-0.02-0.02-0.01-0.01-0.02-0.01-0.02-0.01-0.01-0.01-0.01-0.02-0.02-0.01-0.01-0.01-0.01-0.01-0.02-0.01-0.01-0.01-0.01-0.01-0.02-0.02-0.02-0.02-0.02-0.02-0.02-0.02-0.02c-0.17-0.17-0.32-0.27-0.4-0.27s-0.16 0.08-0.16 0.15c0 0.1 0.03 0.25 0.09 0.44 0 0.03 0.03 0.1 0.05 0.18v0.02l0.02 0.02 0.87 3.21-0.03 0.02c-1-0.19-1.2-0.22-1.59-0.25v-0.16c0.53-0.01 0.62-0.04 0.62-0.24 0-0.08-0.03-0.24-0.08-0.44l-0.48-1.76c-0.16-0.58-0.22-0.89-0.22-1.09 0-0.37 0.16-0.57 0.46-0.57 0.46 0 0.82 0.3 1.39 1.14z"/><path id="path5713" d="m185.07 713.64h-0.02-0.03l-0.02-0.01h-0.03l-0.02-0.01-0.02-0.01h-0.02l-0.02-0.01-0.03-0.01-0.02-0.01-0.02-0.02-0.01-0.01-0.02-0.01-0.02-0.02-0.02-0.02-0.01-0.01-0.02-0.02-0.01-0.02-0.02-0.02-0.01-0.02-0.01-0.02-0.01-0.03-0.01-0.02-0.01-0.02-0.01-0.03-0.01-0.02v-0.03l-0.01-0.02v-0.03-0.02l-0.01-0.03v-0.03c0-0.32 0.19-0.53 0.48-0.53 0.26 0 0.49 0.23 0.49 0.51 0 0.29-0.23 0.55-0.5 0.55z"/></g>
  <g id="g5918" xml:space="preserve" ns0:scale="1.4" ns0:pdfconverter="pstoedit" transform="matrix(1.75 0 0 -1.75 -141.89 1309.2)" ns0:text="$\\vec{v}_{2i} = v_{2i} \\, \\vec{i}$" ns0:version="0.7.2" ns0:inkscapeversion="0.91" ns0:preamble="/usr/share/inkscape/extensions/default_packages.tex" ns0:texconverter="pdflatex"><polygon id="polygon5920" points="153.98 713.12 152.93 714.56 152.64 714.32 153.18 713.32 149.85 713.32 149.76 712.93 153.1 712.93 152.12 711.92 152.31 711.68"/><path id="path5922" d="m148.92 711.14h0.02 0.02 0.02 0.02 0.02 0.01l0.02 0.01h0.02 0.03 0.02 0.02 0.02 0.02 0.02 0.02c0.39 0 0.49-0.17 0.63-1.09 0.1-0.69 0.22-2.19 0.22-2.77 0-0.28 0.02-0.35 0.08-0.35 0.25 0 1.18 1.06 2.2 2.47 0.35 0.5 0.6 1.15 0.6 1.52 0 0.32-0.25 0.59-0.55 0.59-0.22 0-0.37-0.13-0.37-0.34 0-0.16 0.06-0.28 0.24-0.44 0.13-0.12 0.18-0.2 0.18-0.3 0-0.46-0.66-1.56-1.37-2.3l-0.31-0.32c-0.07 1.4-0.13 1.92-0.26 2.66-0.2 1.02-0.2 1.04-0.29 1.04-0.05 0-0.12-0.01-0.2-0.04-0.17-0.05-0.72-0.15-1.1-0.21z"/><path id="path5924" d="m156.45 706.59l-0.09 0.03c-0.26-0.4-0.35-0.46-0.67-0.46h-1.66l1.17 1.23c0.62 0.65 0.89 1.18 0.89 1.72 0 0.7-0.56 1.23-1.29 1.23-0.38 0-0.74-0.15-1-0.43-0.23-0.24-0.33-0.46-0.45-0.95l0.15-0.04c0.28 0.68 0.53 0.91 1.01 0.91 0.59 0 0.98-0.4 0.98-0.99 0-0.54-0.32-1.19-0.9-1.81l-1.25-1.32v-0.08h2.72z"/><path id="path5926" d="m158.17 706.42l-0.01-0.02-0.02-0.01-0.01-0.02-0.02-0.02-0.01-0.02-0.01-0.01-0.01-0.02-0.01-0.01-0.02-0.02-0.01-0.01-0.01-0.01-0.01-0.02v-0.01l-0.01-0.01-0.01-0.01-0.01-0.01-0.01-0.01v-0.01h-0.01l-0.01-0.01-0.01-0.01v-0.01l-0.01-0.01-0.02-0.02-0.01-0.01-0.01-0.02-0.02-0.01c-0.11-0.12-0.22-0.19-0.28-0.19s-0.11 0.06-0.11 0.11c0 0.06 0.02 0.17 0.07 0.3 0 0.02 0.02 0.07 0.03 0.13v0.01l0.01 0.02 0.61 2.24-0.02 0.02c-0.7-0.14-0.84-0.16-1.11-0.18v-0.11c0.37-0.01 0.43-0.03 0.43-0.17 0-0.05-0.02-0.16-0.06-0.3l-0.33-1.24c-0.11-0.4-0.16-0.62-0.16-0.76 0-0.26 0.12-0.4 0.33-0.4 0.32 0 0.57 0.21 0.97 0.8z"/><path id="path5928" d="m158.12 710.19h-0.02-0.02-0.02l-0.01-0.01h-0.02l-0.02-0.01h-0.01l-0.02-0.01h-0.01l-0.01-0.01-0.02-0.01-0.01-0.01-0.01-0.01-0.02-0.01-0.01-0.01-0.01-0.02-0.01-0.01-0.01-0.01-0.01-0.02-0.01-0.01-0.01-0.02v-0.01l-0.01-0.02-0.01-0.01v-0.02l-0.01-0.02v-0.01l-0.01-0.02v-0.02-0.02-0.02-0.02c0-0.22 0.13-0.37 0.33-0.37 0.18 0 0.34 0.16 0.34 0.36s-0.16 0.38-0.34 0.38z"/><polygon id="polygon5930" points="167.55 710.41 167.55 710.97 162.45 710.97 162.45 710.41"/><polygon id="polygon5932" points="167.55 708.39 167.55 708.95 162.45 708.95 162.45 708.39"/><path id="path5934" d="m171.14 711.14h0.02 0.02 0.02 0.02 0.02 0.02l0.03 0.01h0.04 0.01 0.02 0.02 0.02 0.02 0.02c0.39 0 0.49-0.17 0.63-1.09 0.1-0.69 0.22-2.19 0.22-2.77 0-0.28 0.02-0.35 0.09-0.35 0.25 0 1.17 1.06 2.19 2.47 0.35 0.5 0.61 1.15 0.61 1.52 0 0.32-0.26 0.59-0.56 0.59-0.22 0-0.37-0.13-0.37-0.34 0-0.16 0.06-0.28 0.24-0.44 0.13-0.12 0.18-0.2 0.18-0.3 0-0.46-0.66-1.56-1.37-2.3l-0.31-0.32c-0.06 1.4-0.12 1.92-0.25 2.66-0.2 1.02-0.2 1.04-0.29 1.04-0.05 0-0.12-0.01-0.2-0.04-0.18-0.05-0.73-0.15-1.11-0.21z"/><path id="path5936" d="m178.67 706.59l-0.09 0.03c-0.26-0.4-0.35-0.46-0.66-0.46h-1.67l1.17 1.23c0.62 0.65 0.89 1.18 0.89 1.72 0 0.7-0.56 1.23-1.29 1.23-0.38 0-0.74-0.15-1-0.43-0.22-0.24-0.33-0.46-0.45-0.95l0.15-0.04c0.28 0.68 0.53 0.91 1.01 0.91 0.59 0 0.98-0.4 0.98-0.99 0-0.54-0.32-1.19-0.9-1.81l-1.24-1.32v-0.08h2.72z"/><path id="path5938" d="m180.39 706.42l-0.02-0.02-0.01-0.01-0.02-0.02-0.01-0.02-0.01-0.02-0.02-0.01-0.01-0.02-0.01-0.01-0.01-0.02-0.01-0.01-0.01-0.01-0.01-0.02-0.01-0.01-0.01-0.01-0.01-0.01v-0.01l-0.01-0.01-0.01-0.01h-0.01v-0.01l-0.01-0.01-0.01-0.01-0.01-0.01-0.01-0.02-0.01-0.01-0.02-0.02-0.01-0.01c-0.12-0.12-0.22-0.19-0.29-0.19-0.05 0-0.11 0.06-0.11 0.11 0 0.06 0.02 0.17 0.07 0.3 0 0.02 0.02 0.07 0.04 0.13v0.01 0.02l0.62 2.24-0.02 0.02c-0.71-0.14-0.85-0.16-1.12-0.18v-0.11c0.37-0.01 0.44-0.03 0.44-0.17 0-0.05-0.02-0.16-0.06-0.3l-0.34-1.24c-0.11-0.4-0.15-0.62-0.15-0.76 0-0.26 0.11-0.4 0.32-0.4 0.32 0 0.58 0.21 0.98 0.8z"/><path id="path5940" d="m180.33 710.19h-0.02-0.01-0.02l-0.02-0.01h-0.01l-0.02-0.01h-0.02l-0.01-0.01h-0.02l-0.01-0.01-0.01-0.01-0.02-0.01-0.01-0.01-0.01-0.01-0.01-0.01-0.01-0.02-0.02-0.01-0.01-0.01v-0.02l-0.01-0.01-0.01-0.02-0.01-0.01-0.01-0.02v-0.01l-0.01-0.02v-0.02l-0.01-0.01v-0.02-0.02l-0.01-0.02v-0.02-0.02c0-0.22 0.13-0.37 0.34-0.37 0.18 0 0.34 0.16 0.34 0.36s-0.16 0.38-0.35 0.38z"/><polygon id="polygon5942" points="187.28 715.23 186.23 716.67 185.94 716.43 186.48 715.43 183.15 715.43 183.06 715.03 186.4 715.03 185.42 714.03 185.61 713.79"/><path id="path5944" d="m185.15 708.26l-0.02-0.03-0.02-0.03-0.02-0.03-0.02-0.02-0.02-0.02-0.02-0.03-0.01-0.02-0.02-0.02-0.01-0.02-0.02-0.02-0.01-0.02-0.02-0.01-0.01-0.02-0.01-0.02-0.01-0.01-0.01-0.01-0.02-0.02-0.01-0.01-0.01-0.01-0.01-0.02-0.01-0.01-0.01-0.01-0.01-0.02-0.02-0.02-0.02-0.02-0.02-0.02-0.02-0.02c-0.17-0.17-0.32-0.27-0.4-0.27s-0.16 0.08-0.16 0.15c0 0.1 0.03 0.25 0.09 0.44 0 0.03 0.03 0.1 0.05 0.18v0.02l0.02 0.02 0.87 3.21-0.03 0.02c-1-0.19-1.2-0.22-1.59-0.25v-0.16c0.53-0.01 0.62-0.04 0.62-0.24 0-0.08-0.03-0.24-0.08-0.44l-0.48-1.76c-0.16-0.58-0.22-0.89-0.22-1.09 0-0.37 0.16-0.57 0.46-0.57 0.46 0 0.82 0.3 1.39 1.14z"/><path id="path5946" d="m185.07 713.64h-0.02-0.03l-0.02-0.01h-0.03l-0.02-0.01-0.02-0.01h-0.02l-0.02-0.01-0.03-0.01-0.02-0.01-0.02-0.02-0.01-0.01-0.02-0.01-0.02-0.02-0.02-0.02-0.01-0.01-0.02-0.02-0.01-0.02-0.02-0.02-0.01-0.02-0.01-0.02-0.01-0.03-0.01-0.02-0.01-0.02-0.01-0.03-0.01-0.02v-0.03l-0.01-0.02v-0.03-0.02l-0.01-0.03v-0.03c0-0.32 0.19-0.53 0.48-0.53 0.26 0 0.49 0.23 0.49 0.51 0 0.29-0.23 0.55-0.5 0.55z"/></g>
 </g>
</svg>
