<?xml version="1.0" encoding="UTF-8" standalone="no"?>
<!-- Created with Inkscape (http://www.inkscape.org/) -->
<svg id="svg4191" xmlns:rdf="http://www.w3.org/1999/02/22-rdf-syntax-ns#" xmlns="http://www.w3.org/2000/svg" height="632.31" width="654.87" version="1.1" xmlns:cc="http://creativecommons.org/ns#" xmlns:dc="http://purl.org/dc/elements/1.1/" viewBox="0 0 654.87159 632.31251">
 <style type="text/css">
  @import url('../estilo.css');
 </style>
 <defs id="defs4193">
  <marker id="marker5033" refY="0" refX="0" orient="auto" overflow="visible">
   <path id="path4281" d="m0 0 5-5-17.5 5 17.5 5-5-5z" fill-rule="evenodd" transform="matrix(-.8 0 0 -.8 -10 0)" stroke="#000" stroke-width="1pt"/>
  </marker>
  <marker id="marker4428" refY="0" refX="0" overflow="visible" orient="auto">
   <path id="path4430" d="m0 0 5-5-17.5 5 17.5 5-5-5z" fill-rule="evenodd" transform="matrix(-.8 0 0 -.8 -10 0)" stroke="#000" stroke-width="1pt"/>
  </marker>
  <marker id="marker4404" refY="0" refX="0" overflow="visible" orient="auto">
   <path id="path4406" d="m0 0 5-5-17.5 5 17.5 5-5-5z" fill-rule="evenodd" transform="matrix(-.8 0 0 -.8 -10 0)" stroke="#000" stroke-width="1pt"/>
  </marker>
  <marker id="marker4390" refY="0" refX="0" orient="auto" overflow="visible">
   <path id="path4392" d="m0 0 5-5-17.5 5 17.5 5-5-5z" fill-rule="evenodd" transform="matrix(-.8 0 0 -.8 -10 0)" stroke="#000" stroke-width="1pt"/>
  </marker>
  <marker id="marker4364" refY="0" refX="0" overflow="visible" orient="auto">
   <path id="path4366" d="m0 0 5-5-17.5 5 17.5 5-5-5z" fill-rule="evenodd" transform="matrix(-.8 0 0 -.8 -10 0)" stroke="#000" stroke-width="1pt"/>
  </marker>
  <marker id="marker4358" refY="0" refX="0" orient="auto" overflow="visible">
   <path id="path4360" d="m0 0 5-5-17.5 5 17.5 5-5-5z" fill-rule="evenodd" transform="matrix(-.8 0 0 -.8 -10 0)" stroke="#000" stroke-width="1pt"/>
  </marker>
  <marker id="marker4330" refY="0" refX="0" overflow="visible" orient="auto">
   <path id="path4332" d="m0 0 5-5-17.5 5 17.5 5-5-5z" fill-rule="evenodd" transform="matrix(-.8 0 0 -.8 -10 0)" stroke="#000" stroke-width="1pt"/>
  </marker>
  <marker id="marker4314" refY="0" refX="0" overflow="visible" orient="auto">
   <path id="path4316" d="m0 0 5-5-17.5 5 17.5 5-5-5z" fill-rule="evenodd" transform="matrix(-.8 0 0 -.8 -10 0)" stroke="#00f" stroke-width="1pt" fill="#00f"/>
  </marker>
  <marker id="marker4304" refY="0" refX="0" orient="auto" overflow="visible">
   <path id="path4306" d="m0 0 5-5-17.5 5 17.5 5-5-5z" fill-rule="evenodd" transform="matrix(-.8 0 0 -.8 -10 0)" stroke="#000" stroke-width="1pt"/>
  </marker>
  <marker id="marker6828" refY="0" refX="0" overflow="visible" orient="auto">
   <path id="path6830" d="m0 0 5-5-17.5 5 17.5 5-5-5z" fill-rule="evenodd" transform="matrix(-.8 0 0 -.8 -10 0)" stroke="#000" stroke-width="1pt"/>
  </marker>
  <marker id="marker6648" refY="0" refX="0" overflow="visible" orient="auto">
   <path id="path6650" d="m0 0 5-5-17.5 5 17.5 5-5-5z" fill-rule="evenodd" transform="matrix(-.8 0 0 -.8 -10 0)" stroke="#000" stroke-width="1pt"/>
  </marker>
  <marker id="marker6352" refY="0" refX="0" orient="auto" overflow="visible">
   <path id="path6354" d="m0 0 5-5-17.5 5 17.5 5-5-5z" fill-rule="evenodd" transform="matrix(-.8 0 0 -.8 -10 0)" stroke="#000" stroke-width="1pt"/>
  </marker>
  <marker id="marker5718" refY="0" refX="0" orient="auto" overflow="visible">
   <path id="path5720" d="m0 0 5-5-17.5 5 17.5 5-5-5z" fill-rule="evenodd" transform="matrix(-.8 0 0 -.8 -10 0)" stroke="#000" stroke-width="1pt"/>
  </marker>
  <marker id="marker5640" refY="0" refX="0" overflow="visible" orient="auto">
   <path id="path5642" d="m0 0 5-5-17.5 5 17.5 5-5-5z" fill-rule="evenodd" transform="matrix(-.8 0 0 -.8 -10 0)" stroke="#000" stroke-width="1pt"/>
  </marker>
 </defs>
 <metadata id="metadata4196">
  <rdf:RDF>
   <cc:Work rdf:about="">
    <dc:format>image/svg+xml</dc:format>
    <dc:type rdf:resource="http://purl.org/dc/dcmitype/StillImage"/>
    <dc:title/>
   </cc:Work>
  </rdf:RDF>
 </metadata>
 <g id="layer1" transform="translate(-.94116 -43.729)">
  <text id="text4739" style="word-spacing:0px;letter-spacing:0px;text-anchor:middle;text-align:center" xml:space="preserve" font-size="16px" line-height="125%" y="64.362167" x="114.63467" font-family="&apos;STIX Two Text&apos;" fill="#000000"><tspan id="tspan4741" x="114.63467" y="64.362167">Q. Analítica</tspan><tspan id="tspan4743" x="114.63467" y="84.362167">(investigación,</tspan><tspan id="tspan5706" x="114.63467" y="104.36217">enseñanza)</tspan></text>
  <g id="g5609" transform="translate(-24.473)">
   <g id="g5435" fill-rule="evenodd" transform="translate(-28.517 -21.706)">
    <path id="path4747" style="color-rendering:auto;text-decoration-color:#000000;color:#000000;isolation:auto;mix-blend-mode:normal;shape-rendering:auto;solid-color:#000000;block-progression:tb;text-decoration-line:none;text-decoration-style:solid;image-rendering:auto;white-space:normal;text-indent:0;text-transform:none" d="m222.58 91.801v1h87.408v-1h-87.408z"/>
    <path id="path5431" d="m309.99 92.3-4 4 14-4-14-4 4 4z" stroke="#000" stroke-width=".8pt"/>
   </g>
   <text id="text4749" style="word-spacing:0px;letter-spacing:0px" font-size="19px" line-height="125%" y="65.469086" x="203.82681" font-family="&apos;STIX Two Text&apos;" xml:space="preserve" fill="#000000"><tspan id="tspan4751" font-size="13.125px" line-height="125%" y="65.469086" x="203.82681" font-family="&apos;STIX Two Text&apos;">fundamento</tspan></text>
  </g>
  <g id="g5488" transform="translate(-22.945 .12002)">
   <text id="text5439" style="word-spacing:0px;letter-spacing:0px;text-anchor:middle;text-align:center" font-size="16px" line-height="125%" y="64.362167" x="330.48807" font-family="&apos;STIX Two Text&apos;" xml:space="preserve" fill="#000000"><tspan id="tspan5441" y="64.362167" x="330.48807">Análisis</tspan><tspan id="tspan5463" y="84.362167" x="330.48807">químico</tspan></text>
   <rect id="rect5450" height="45.562" width="64.562" stroke="#000" stroke-linecap="square" y="47.693" x="298.18" fill="none"/>
  </g>
  <text id="text5457" style="word-spacing:0px;letter-spacing:0px" xml:space="preserve" font-size="15px" line-height="150%" y="62.840168" x="388" font-family="&apos;STIX Two Text&apos;" fill="#000000"><tspan id="tspan5459" line-height="150%" y="62.840168" x="388"> identificación (A. cualitativo)</tspan><tspan id="tspan5461" line-height="150%" y="85.340164" x="388"> contenido relativo (A. cuantitativo)</tspan></text>
  <path id="rect5476" d="m383.45 92.791v-45.562m4.5622 45.562h-4.5622m0-45.562h4.5622" stroke="#000" stroke-linecap="square" fill="none"/>
  <path id="path5494" marker-end="url(#marker5033)" d="m346.21 70.594h29" stroke="#000" stroke-width="1px" fill="none"/>
  <text id="text5624" style="word-spacing:0px;letter-spacing:0px" xml:space="preserve" font-size="19px" line-height="125%" y="184.36217" x="274.76242" font-family="&apos;STIX Two Text&apos;" fill="#000000"><tspan id="tspan5626" font-size="16px" line-height="125%" y="184.36217" x="274.76242" font-family="&apos;STIX Two Text&apos;">Problema</tspan></text>
  <g stroke="#000" fill="none">
   <rect id="rect5628" height="25.429" width="74.429" stroke-linecap="square" y="166.08" x="270.3"/>
   <path id="path5636" d="m394.01 224.58h-4.5622v-24-45.562-22h4.5622" stroke-linecap="square"/>
   <path id="path5638" marker-end="url(#marker5640)" d="m352.21 178.79h29" stroke-width="1px"/>
  </g>
  <text id="text5692" style="word-spacing:0px;letter-spacing:0px" xml:space="preserve" font-size="15px" line-height="150%" y="148.68916" x="394.16006" font-family="&apos;STIX Two Text&apos;" fill="#000000"><tspan id="tspan5694" line-height="150%" y="148.68916" x="394.16006"> datos</tspan><tspan id="tspan5696" line-height="150%" y="171.18916" x="394.16006"> hipótesis</tspan><tspan id="tspan5698" line-height="150%" y="193.68916" x="394.16006"> selección de métodos  </tspan><tspan id="tspan5700" line-height="150%" y="216.18916" x="394.16006"> planificar</tspan></text>
  <path id="path5708" d="m535.67 224.58h4.5622v-24-45.562-22h-4.5622" stroke="#000" stroke-linecap="square" fill="none"/>
  <path id="path5716" marker-end="url(#marker5718)" d="m548.81 178.79h29" stroke="#000" stroke-width="1px" fill="none"/>
  <text id="text6340" style="word-spacing:0px;letter-spacing:0px" xml:space="preserve" font-size="19px" line-height="125%" y="184.36217" x="584.46387" font-family="&apos;STIX Two Text&apos;" fill="#000000"><tspan id="tspan6342" font-size="15px" line-height="125%" y="184.36217" x="584.46387" font-family="&apos;STIX Two Text&apos;">interpretar</tspan></text>
  <path id="path6350" marker-end="url(#marker6352)" d="m307.52 112.42v29" stroke="#000" stroke-width="1px" fill="none"/>
  <text id="text6626" style="word-spacing:0px;letter-spacing:0px" xml:space="preserve" font-size="19px" line-height="125%" y="290.12845" x="256.4993" font-family="&apos;STIX Two Text&apos;" fill="#000000"><tspan id="tspan6628" font-size="16px" line-height="125%" y="290.12845" x="256.4993" font-family="&apos;STIX Two Text&apos;">Determinación</tspan></text>
  <g stroke="#000" fill="none">
   <rect id="rect6630" height="25.3" width="111.03" stroke-linecap="square" y="272.01" x="252"/>
   <path id="path6644" d="m407.45 308.79v-45.562m4.5622 45.562h-4.5622m0-45.562h4.5622" stroke-linecap="square"/>
   <path id="path6646" marker-end="url(#marker6648)" d="m370.21 286.59h29" stroke-width="1px"/>
  </g>
  <text id="text6814" style="word-spacing:0px;letter-spacing:0px" xml:space="preserve" font-size="19px" line-height="125%" y="301.71204" x="419.75" font-family="&apos;STIX Two Text&apos;" fill="#0000ff"><tspan id="tspan6816" font-size="15px" line-height="125%" y="301.71204" x="419.75" font-family="&apos;STIX Two Text&apos;" fill="#0000ff">tratamiento de la muestra</tspan></text>
  <text id="text6638" style="word-spacing:0px;letter-spacing:0px" line-height="125%" y="278.04184" x="416" font-family="&apos;STIX Two Text&apos;" xml:space="preserve" fill="#000000"><tspan id="tspan6640" font-size="15px" line-height="125%" y="278.04184" x="416"> toma de muestra</tspan><tspan id="tspan6642" font-size="16px" line-height="125%" y="296.79184" x="416"/></text>
  <rect id="rect6818" height="18.352" width="174.87" stroke="#000" stroke-linecap="square" y="287.32" x="414.07" fill="none"/>
  <path id="path6826" marker-end="url(#marker6828)" d="m307.52 217.35v29" stroke="#000" stroke-width="1px" fill="none"/>
  <text id="text7228" style="word-spacing:0px;letter-spacing:0px" xml:space="preserve" font-size="19px" line-height="125%" y="391.94632" x="275.4303" font-family="&apos;STIX Two Text&apos;" fill="#000000"><tspan id="tspan7230" font-size="16px" line-height="125%" y="391.94632" x="275.4303" font-family="&apos;STIX Two Text&apos;">Medición</tspan></text>
  <rect id="rect7232" height="25.429" width="74.429" stroke="#000" stroke-linecap="square" y="373.66" x="270.3" fill="none"/>
  <text id="text7234" style="word-spacing:0px;letter-spacing:0px;text-anchor:middle;text-align:center" font-size="15px" line-height="150%" y="378.77335" x="129.61011" font-family="&apos;STIX Two Text&apos;" xml:space="preserve" fill="#000000"><tspan id="tspan7236" style="text-anchor:middle;text-align:center" line-height="150%" y="378.77335" x="129.61011"><tspan id="tspan4237" style="text-anchor:middle;text-align:center" line-height="150%"> Gravimetría y volumetría <tspan id="tspan4300" style="text-anchor:middle;text-align:center" font-size="15px" line-height="150%" font-family="&apos;STIX Two Math&apos;">←</tspan><tspan id="tspan4281" style="text-anchor:middle;text-align:center" font-size="15px" font-style="italic" line-height="150%" font-family="&apos;STIX Two Text&apos;"> m</tspan>, </tspan><tspan id="tspan4286" style="text-anchor:middle;text-align:center" font-style="italic" line-height="150%">V</tspan></tspan><tspan id="tspan7238" style="text-anchor:middle;text-align:center" line-height="150%" y="401.27335" x="129.61011"> Análisis instrumental <tspan id="tspan4298" style="text-anchor:middle;text-align:center" font-size="15px" line-height="150%" font-family="&apos;STIX Two Math&apos;">←</tspan> ..., <tspan id="tspan4279" style="text-anchor:middle;text-align:center" font-size="15px" font-style="italic" line-height="150%" font-family="&apos;STIX Two Text&apos;">F</tspan>, <tspan id="tspan4288" style="text-anchor:middle;text-align:center" font-size="15px" font-style="italic" line-height="150%" font-family="&apos;STIX Two Text&apos;">q</tspan>/<tspan id="tspan4290" style="text-anchor:middle;text-align:center" font-size="15px" font-style="italic" line-height="150%" font-family="&apos;STIX Two Text&apos;">m</tspan>, <tspan id="tspan4292" style="text-anchor:middle;text-align:center" font-size="15px" font-style="italic" line-height="150%" font-family="&apos;STIX Two Text&apos;">i</tspan>, <tspan id="tspan4294" style="text-anchor:middle;text-align:center" font-size="15px" font-style="italic" line-height="150%" font-family="&apos;STIX Two Text&apos;">Λ</tspan></tspan></text>
  <g stroke-width="1px">
   <path id="path4296" d="m262.31 405.93 4-19.551-4-19.551" stroke="#000" fill="none"/>
   <path id="path4302" marker-end="url(#marker4304)" d="m307.52 322.08v29" stroke="#000" fill="none"/>
   <path id="path4312" marker-end="url(#marker4314)" d="m501.5 318.3v29" fill-rule="evenodd" stroke="#00f" fill="#00f"/>
  </g>
  <text id="text4320" style="word-spacing:0px;letter-spacing:0px" xml:space="preserve" font-size="19px" line-height="125%" y="481.29285" x="270.60318" font-family="&apos;STIX Two Text&apos;" fill="#000000"><tspan id="tspan4322" font-size="16px" line-height="125%" y="481.29285" x="270.60318" font-family="&apos;STIX Two Text&apos;">Resultados</tspan></text>
  <g stroke="#000" fill="none">
   <path id="path4324" d="m268.74 469.5v-4.5622h16 45.562 16v4.5622" stroke-linecap="square"/>
   <path id="path4326" d="m268.74 481.97v4.5622h16 45.562 16v-4.5622" stroke-linecap="square"/>
   <path id="path4328" marker-end="url(#marker4330)" d="m307.52 417.6v29" stroke-width="1px"/>
  </g>
  <text id="text4384" style="word-spacing:0px;letter-spacing:0px" xml:space="preserve" font-size="19px" line-height="125%" y="565.14758" x="232.54518" font-family="&apos;STIX Two Text&apos;" fill="#000000"><tspan id="tspan4386" font-size="16px" line-height="125%" y="565.14758" x="232.54518" font-family="&apos;STIX Two Text&apos;">Evaluación estadística</tspan></text>
  <path id="path4388" marker-end="url(#marker4390)" d="m307.52 505.03v29" stroke="#000" stroke-width="1px" fill="none"/>
  <text id="text4394" style="word-spacing:0px;letter-spacing:0px" xml:space="preserve" font-size="19px" line-height="125%" y="655.40839" x="256.40469" font-family="&apos;STIX Two Text&apos;" fill="#000000"><tspan id="tspan4396" font-size="16px" line-height="125%" y="655.40839" x="256.40469" font-family="&apos;STIX Two Text&apos;">Resultado final</tspan></text>
  <rect id="rect4400" height="25.3" width="111.03" stroke="#000" stroke-linecap="square" y="637.11" x="252" fill="none"/>
  <path id="path4402" marker-end="url(#marker4404)" d="m307.52 585.56v29" stroke="#000" stroke-width="1px" fill="none"/>
  <text id="text4418" style="word-spacing:0px;letter-spacing:0px" font-size="15px" line-height="125%" y="644.46539" x="413.33606" font-family="&apos;STIX Two Text&apos;" xml:space="preserve" fill="#000000"><tspan id="tspan4420" line-height="125%" y="644.46539" x="413.33606"> nos puede servir para</tspan><tspan id="tspan4422" line-height="125%" y="663.21539" x="413.33606"> reinterpretar el problema</tspan></text>
  <path id="path4424" d="m408.79 672.54v-45.562m4.5622 45.562h-4.5622m0-45.562h4.5622" stroke="#000" stroke-linecap="square" fill="none"/>
  <path id="path4426" marker-end="url(#marker4428)" d="m371.55 649.76h29" stroke="#000" stroke-width="1px" fill="none"/>
  <text id="text4368" style="word-spacing:0px;letter-spacing:0px;text-anchor:middle;text-align:center" xml:space="preserve" font-size="13.125px" line-height="125%" y="459.11331" x="452.664" font-family="&apos;STIX Two Text&apos;" fill="#000000"><tspan id="tspan4370" style="text-anchor:middle;text-align:center" line-height="125%" y="459.11331" x="452.664">disoluciones,</tspan><tspan id="tspan4372" style="text-anchor:middle;text-align:center" line-height="125%" y="475.51956" x="452.664">separaciones</tspan></text>
  <text id="text4374" style="word-spacing:0px;letter-spacing:0px" xml:space="preserve" font-size="13.125px" line-height="125%" y="459.11331" x="511.1936" font-family="&apos;STIX Two Text&apos;" fill="#000000"><tspan id="tspan4376" line-height="125%" y="459.11331" x="511.1936">reacción</tspan><tspan id="tspan4378" line-height="125%" y="475.51956" x="511.1936">analítica*</tspan></text>
  <rect id="rect4380" height="41.667" width="84.54" stroke="#00f" stroke-linecap="square" y="443.29" x="410.26" fill="none"/>
  <rect id="rect4382" height="41.72" width="65.72" stroke="#00f" stroke-linecap="square" y="443.27" x="504.6" fill="none"/>
  <g id="g4327" transform="translate(-1.4823 -4)">
   <text id="text4308" style="word-spacing:0px;letter-spacing:0px;text-anchor:middle;text-align:center" font-size="19px" line-height="125%" y="372.82666" x="502.57013" font-family="&apos;STIX Two Text&apos;" xml:space="preserve" fill="#000000"><tspan id="tspan4323" style="text-anchor:middle;text-align:center" font-size="15px" line-height="125%" y="372.82666" x="502.57013" font-family="&apos;STIX Two Text&apos;" fill="#0000ff">transformaciones</tspan></text>
   <g stroke="#000" stroke-width="1px" fill="none">
    <path id="path4350" d="m446.73 393.76c0 9.28 16.902-0.0624 19.887 8 3.354-7.9776 19.886 1.1963 19.887-8"/>
    <path id="path4354" d="m499.46 395.76c0 9.28 26.902-0.0624 29.887 8 3.354-7.9776 29.886 1.1963 29.887-8"/>
    <path id="path4356" marker-end="url(#marker4358)" d="m466.62 411.6v29"/>
    <path id="path4362" marker-end="url(#marker4364)" d="m529.34 411.6v29"/>
   </g>
   <g font-size="19px" font-family="&apos;STIX Two Text&apos;" fill="#000000">
    <text id="text4268" style="word-spacing:0px;letter-spacing:0px" line-height="125%" y="391.94632" x="447.24298" xml:space="preserve"><tspan id="tspan4270" font-size="15px" line-height="125%" y="391.94632" x="447.24298" font-family="&apos;STIX Two Text&apos;" fill="#0000ff">físicas</tspan></text>
    <text id="text4272" style="word-spacing:0px;letter-spacing:0px" line-height="125%" y="391.94632" x="500.53955" xml:space="preserve"><tspan id="tspan4274" font-size="15px" line-height="125%" y="391.94632" x="500.53955" font-family="&apos;STIX Two Text&apos;" fill="#0000ff">químicas</tspan></text>
    <text id="text4276" style="word-spacing:0px;letter-spacing:0px" line-height="125%" y="391.94632" x="489.79034" xml:space="preserve"><tspan id="tspan4278" font-size="15px" line-height="125%" y="391.94632" x="489.79034" font-family="&apos;STIX Two Text&apos;" fill="#0000ff">y</tspan></text>
   </g>
  </g>
 </g>
</svg>
