<?xml version="1.0" encoding="UTF-8" standalone="no"?>
<!-- Created with Inkscape (http://www.inkscape.org/) -->
<svg id="svg2" xmlns:rdf="http://www.w3.org/1999/02/22-rdf-syntax-ns#" xmlns="http://www.w3.org/2000/svg" xmlns:ns0="http://www.iki.fi/pav/software/textext/" height="127.17" width="260.37" version="1.1" xmlns:cc="http://creativecommons.org/ns#" viewBox="0 0 260.36814 127.16659" xmlns:dc="http://purl.org/dc/elements/1.1/">
 <style type="text/css">
	 @import url('../estilo.css');
 </style>
 <metadata id="metadata7">
  <rdf:RDF>
   <cc:Work rdf:about="">
    <dc:format>image/svg+xml</dc:format>
    <dc:type rdf:resource="http://purl.org/dc/dcmitype/StillImage"/>
    <dc:title/>
   </cc:Work>
  </rdf:RDF>
 </metadata>
 <g id="layer1" transform="translate(-305.16 -487.92)">
  <g id="content" xml:space="preserve" stroke="#000" fill-rule="evenodd" ns0:pdfconverter="pstoedit" transform="matrix(1.75 0 0 -1.75 63.158 1758.8)" stroke-miterlimit="10.433" ns0:text="$\n\\left(\n\\begin{array}{ccc}\n\t&amp; &amp; \\\\\n\t&amp; &amp; \\\\\n\t\\hline\n\t&amp; &amp; \\\\\n\t&amp; &amp;\n\\end{array}\n\\right)\n\\left(\n\\begin{array}{cc|c}\n\t&amp; &amp; \\\\\n\t&amp; &amp;\t\\\\\n\t&amp; &amp;\n\\end{array}\n\\right)\n=\n\\left(\n\\begin{array}{cc|c}\n\t&amp; &amp; \\\\\n\t&amp; &amp; \\\\\n\t\\hline\n\t&amp; &amp; \\\\\n\t&amp; &amp; \\\\\n\\end{array}\n\\right)\n$" ns0:version="0.7.2" ns0:inkscapeversion="0.91" ns0:preamble="/usr/share/inkscape/extensions/default_packages.tex" ns0:scale="1.4" ns0:texconverter="pdflatex"><g stroke-width="0"><path id="path4304" d="m152.4 714.64v0.01h-0.01v0.01 0.01l-0.01 0.01v0.01h-0.01-0.01v0.01h-0.01-0.01c-0.02 0-0.04-0.01-0.06-0.02-1.74-1.11-3.07-3.11-3.07-7.84v-0.5h0.94v0.5c0 2.7 0.15 5.87 2.16 7.56 0.08 0.07 0.09 0.16 0.09 0.24z"/><polygon id="polygon4306" points="149.21 704.23 150.15 704.23 150.15 707.3 149.21 707.3"/><polygon id="polygon4308" points="149.21 701.95 150.15 701.95 150.15 705.03 149.21 705.03"/><polygon id="polygon4310" points="149.21 699.67 150.15 699.67 150.15 702.74 149.21 702.74"/><polygon id="polygon4312" points="149.21 697.39 150.15 697.39 150.15 700.47 149.21 700.47"/><polygon id="polygon4314" points="149.21 695.11 150.15 695.11 150.15 698.18 149.21 698.18"/><polygon id="polygon4316" points="149.21 692.82 150.15 692.82 150.15 695.9 149.21 695.9"/><polygon id="polygon4318" points="149.21 690.54 150.15 690.54 150.15 693.62 149.21 693.62"/><polygon id="polygon4320" points="149.21 688.26 150.15 688.26 150.15 691.34 149.21 691.34"/><polygon id="polygon4322" points="149.21 685.98 150.15 685.98 150.15 689.06 149.21 689.06"/><polygon id="polygon4324" points="149.21 683.7 150.15 683.7 150.15 686.78 149.21 686.78"/><polygon id="polygon4326" points="149.21 681.41 150.15 681.41 150.15 684.49 149.21 684.49"/><polygon id="polygon4328" points="149.21 679.13 150.15 679.13 150.15 682.21 149.21 682.21"/><path id="path4330" d="m152.4 671.63v0.02 0.01 0.02l-0.01 0.01v0.02 0.01 0.01 0.01 0.01h-0.01v0.01 0.01 0.01h-0.01v0.01 0.01l-0.01 0.01-0.01 0.01v0.01l-0.01 0.01-0.01 0.01-0.01 0.01h-0.01v0.01c-2.01 1.69-2.16 4.86-2.16 7.56v0.5h-0.94v-0.5c0-4.73 1.33-6.72 3.07-7.84 0.02-0.01 0.04-0.02 0.06-0.02 0.03 0 0.06 0.02 0.06 0.06z"/></g><line id="line4332" stroke="#000" y1="692.98" y2="692.98" stroke-width=".398" x2="182.59" x1="152.7"/><g stroke-width="0"><path id="path4334" d="m186.07 706.34v0.5c0 4.73-1.33 6.73-3.06 7.84-0.02 0.01-0.04 0.02-0.06 0.02-0.03 0-0.06-0.02-0.06-0.07 0-0.08 0.01-0.16 0.09-0.23 1.99-1.69 2.16-4.86 2.16-7.56v-0.5z"/><polygon id="polygon4336" points="185.14 704.23 186.07 704.23 186.07 707.3 185.14 707.3"/><polygon id="polygon4338" points="185.14 701.95 186.07 701.95 186.07 705.03 185.14 705.03"/><polygon id="polygon4340" points="185.14 699.67 186.07 699.67 186.07 702.74 185.14 702.74"/><polygon id="polygon4342" points="185.14 697.39 186.07 697.39 186.07 700.47 185.14 700.47"/><polygon id="polygon4344" points="185.14 695.11 186.07 695.11 186.07 698.18 185.14 698.18"/><polygon id="polygon4346" points="185.14 692.82 186.07 692.82 186.07 695.9 185.14 695.9"/><polygon id="polygon4348" points="185.14 690.54 186.07 690.54 186.07 693.62 185.14 693.62"/><polygon id="polygon4350" points="185.14 688.26 186.07 688.26 186.07 691.34 185.14 691.34"/><polygon id="polygon4352" points="185.14 685.98 186.07 685.98 186.07 689.06 185.14 689.06"/><polygon id="polygon4354" points="185.14 683.7 186.07 683.7 186.07 686.78 185.14 686.78"/><polygon id="polygon4356" points="185.14 681.41 186.07 681.41 186.07 684.49 185.14 684.49"/><polygon id="polygon4358" points="185.14 679.13 186.07 679.13 186.07 682.21 185.14 682.21"/><path id="path4360" d="m186.07 679.43v0.5h-0.93v-0.5c0-2.7-0.18-5.86-2.17-7.56-0.08-0.06-0.08-0.16-0.08-0.24 0-0.04 0.03-0.06 0.06-0.06 0.02 0 0.04 0.01 0.06 0.02 1.73 1.12 3.06 3.11 3.06 7.84z"/><path id="path4362" d="m191.91 710.07v0.01 0.01 0.01l-0.01 0.01v0.01h-0.01l-0.01 0.01h-0.01-0.01-0.01c-0.02 0-0.04-0.01-0.06-0.02-1.73-1.11-3.06-3.1-3.06-7.84v-0.5h0.93v0.5c0 2.7 0.16 5.87 2.16 7.56 0.08 0.07 0.09 0.16 0.09 0.24z"/><polygon id="polygon4364" points="188.73 699.67 189.66 699.67 189.66 702.74 188.73 702.74"/><polygon id="polygon4366" points="188.73 697.39 189.66 697.39 189.66 700.47 188.73 700.47"/><polygon id="polygon4368" points="188.73 695.11 189.66 695.11 189.66 698.18 188.73 698.18"/><polygon id="polygon4370" points="188.73 692.82 189.66 692.82 189.66 695.9 188.73 695.9"/><polygon id="polygon4372" points="188.73 690.54 189.66 690.54 189.66 693.62 188.73 693.62"/><polygon id="polygon4374" points="188.73 688.26 189.66 688.26 189.66 691.34 188.73 691.34"/><polygon id="polygon4376" points="188.73 685.98 189.66 685.98 189.66 689.06 188.73 689.06"/><polygon id="polygon4378" points="188.73 683.7 189.66 683.7 189.66 686.78 188.73 686.78"/><path id="path4380" d="m191.91 676.19v0.02 0.01 0.02 0.01 0.02 0.01 0.01 0.01l-0.01 0.01v0.01 0.01 0.01h-0.01v0.01l-0.01 0.01v0.01l-0.01 0.01v0.01l-0.01 0.01h-0.01v0.01l-0.01 0.01h-0.01l-0.01 0.01c-2 1.69-2.16 4.86-2.16 7.56v0.5h-0.93v-0.5c0-4.73 1.33-6.72 3.06-7.84 0.02-0.01 0.04-0.02 0.06-0.02 0.03 0 0.06 0.02 0.06 0.06z"/></g><g stroke-width=".398" stroke="#000"><line id="line4382" y1="698.96" y2="710.91" x2="212.14" x1="212.14"/><line id="line4384" y1="687" y2="698.96" x2="212.14" x1="212.14"/><line id="line4386" y1="675.04" y2="687" x2="212.14" x1="212.14"/></g><g stroke-width="0"><path id="path4388" d="m225.59 701.77v0.5c0 4.74-1.33 6.73-3.07 7.84-0.02 0.01-0.04 0.02-0.06 0.02-0.03 0-0.06-0.02-0.06-0.07 0-0.08 0.01-0.16 0.09-0.23 2-1.69 2.16-4.86 2.16-7.56v-0.5z"/><polygon id="polygon4390" points="224.65 699.67 225.59 699.67 225.59 702.74 224.65 702.74"/><polygon id="polygon4392" points="224.65 697.39 225.59 697.39 225.59 700.47 224.65 700.47"/><polygon id="polygon4394" points="224.65 695.11 225.59 695.11 225.59 698.18 224.65 698.18"/><polygon id="polygon4396" points="224.65 692.82 225.59 692.82 225.59 695.9 224.65 695.9"/><polygon id="polygon4398" points="224.65 690.54 225.59 690.54 225.59 693.62 224.65 693.62"/><polygon id="polygon4400" points="224.65 688.26 225.59 688.26 225.59 691.34 224.65 691.34"/><polygon id="polygon4402" points="224.65 685.98 225.59 685.98 225.59 689.06 224.65 689.06"/><polygon id="polygon4404" points="224.65 683.7 225.59 683.7 225.59 686.78 224.65 686.78"/><path id="path4406" d="m225.59 683.99v0.5h-0.94v-0.5c0-2.7-0.17-5.86-2.17-7.56-0.08-0.06-0.08-0.16-0.08-0.24 0-0.04 0.03-0.06 0.06-0.06 0.02 0 0.04 0.01 0.06 0.02 1.74 1.12 3.07 3.11 3.07 7.84z"/><polygon id="polygon4408" points="229.47 693.71 234.57 693.71 234.57 694.27 229.47 694.27"/><polygon id="polygon4410" points="229.47 691.68 234.57 691.68 234.57 692.24 229.47 692.24"/><path id="path4412" d="m241.65 714.64v0.01h-0.01v0.01 0.01l-0.01 0.01v0.01h-0.01-0.01v0.01h-0.01-0.01c-0.02 0-0.04-0.01-0.06-0.02-1.74-1.11-3.07-3.11-3.07-7.84v-0.5h0.94v0.5c0 2.7 0.15 5.87 2.16 7.56 0.08 0.07 0.09 0.16 0.09 0.24z"/><polygon id="polygon4414" points="238.46 704.23 239.4 704.23 239.4 707.3 238.46 707.3"/><polygon id="polygon4416" points="238.46 701.95 239.4 701.95 239.4 705.03 238.46 705.03"/><polygon id="polygon4418" points="238.46 699.67 239.4 699.67 239.4 702.74 238.46 702.74"/><polygon id="polygon4420" points="238.46 697.39 239.4 697.39 239.4 700.47 238.46 700.47"/><polygon id="polygon4422" points="238.46 695.11 239.4 695.11 239.4 698.18 238.46 698.18"/><polygon id="polygon4424" points="238.46 692.82 239.4 692.82 239.4 695.9 238.46 695.9"/><polygon id="polygon4426" points="238.46 690.54 239.4 690.54 239.4 693.62 238.46 693.62"/><polygon id="polygon4428" points="238.46 688.26 239.4 688.26 239.4 691.34 238.46 691.34"/><polygon id="polygon4430" points="238.46 685.98 239.4 685.98 239.4 689.06 238.46 689.06"/><polygon id="polygon4432" points="238.46 683.7 239.4 683.7 239.4 686.78 238.46 686.78"/><polygon id="polygon4434" points="238.46 681.41 239.4 681.41 239.4 684.49 238.46 684.49"/><polygon id="polygon4436" points="238.46 679.13 239.4 679.13 239.4 682.21 238.46 682.21"/><path id="path4438" d="m241.65 671.63v0.02 0.01 0.02l-0.01 0.01v0.02 0.01 0.01 0.01 0.01h-0.01v0.01 0.01 0.01h-0.01v0.01 0.01l-0.01 0.01-0.01 0.01v0.01l-0.01 0.01-0.01 0.01-0.01 0.01h-0.01v0.01c-2.01 1.69-2.16 4.86-2.16 7.56v0.5h-0.94v-0.5c0-4.73 1.33-6.72 3.07-7.84 0.02-0.01 0.04-0.02 0.06-0.02 0.03 0 0.06 0.02 0.06 0.06z"/></g><g stroke-width=".398" stroke="#000"><line id="line4440" y1="705.13" y2="717.09" x2="261.87" x1="261.87"/><line id="line4442" y1="693.18" y2="705.13" x2="261.87" x1="261.87"/><line id="line4444" y1="692.98" y2="692.98" x2="271.83" x1="241.95"/><line id="line4446" y1="680.82" y2="692.78" x2="261.87" x1="261.87"/><line id="line4448" y1="668.87" y2="680.82" x2="261.87" x1="261.87"/></g><g stroke-width="0"><path id="path4450" d="m275.32 706.34v0.5c0 4.73-1.34 6.73-3.07 7.84-0.02 0.01-0.04 0.02-0.06 0.02-0.03 0-0.06-0.02-0.06-0.07 0-0.08 0.01-0.16 0.09-0.23 1.99-1.69 2.16-4.86 2.16-7.56v-0.5z"/><polygon id="polygon4452" points="274.38 704.23 275.32 704.23 275.32 707.3 274.38 707.3"/><polygon id="polygon4454" points="274.38 701.95 275.32 701.95 275.32 705.03 274.38 705.03"/><polygon id="polygon4456" points="274.38 699.67 275.32 699.67 275.32 702.74 274.38 702.74"/><polygon id="polygon4458" points="274.38 697.39 275.32 697.39 275.32 700.47 274.38 700.47"/><polygon id="polygon4460" points="274.38 695.11 275.32 695.11 275.32 698.18 274.38 698.18"/><polygon id="polygon4462" points="274.38 692.82 275.32 692.82 275.32 695.9 274.38 695.9"/><polygon id="polygon4464" points="274.38 690.54 275.32 690.54 275.32 693.62 274.38 693.62"/><polygon id="polygon4466" points="274.38 688.26 275.32 688.26 275.32 691.34 274.38 691.34"/><polygon id="polygon4468" points="274.38 685.98 275.32 685.98 275.32 689.06 274.38 689.06"/><polygon id="polygon4470" points="274.38 683.7 275.32 683.7 275.32 686.78 274.38 686.78"/><polygon id="polygon4472" points="274.38 681.41 275.32 681.41 275.32 684.49 274.38 684.49"/><polygon id="polygon4474" points="274.38 679.13 275.32 679.13 275.32 682.21 274.38 682.21"/><path id="path4476" d="m275.32 679.43v0.5h-0.94v-0.5c0-2.7-0.18-5.86-2.17-7.56-0.08-0.06-0.08-0.16-0.08-0.24 0-0.04 0.03-0.06 0.06-0.06 0.02 0 0.04 0.01 0.06 0.02 1.73 1.12 3.07 3.11 3.07 7.84z"/></g></g>
  <g font-size="16px" font-family="&apos;STIX Two Text&apos;" fill="#000000">
   <text id="text4673" style="word-spacing:0px;letter-spacing:0px" xml:space="preserve" line-height="125%" y="550.39685" x="309.64911"><tspan id="tspan4675" x="309.64911" y="550.39685">i)</tspan></text>
   <text id="text4677" style="word-spacing:0px;letter-spacing:0px" xml:space="preserve" line-height="125%" y="504.59561" x="430.76807"><tspan id="tspan4681" x="430.76807" y="504.59561">j)</tspan></text>
   <text id="text4687" style="word-spacing:0px;letter-spacing:0px" line-height="125%" y="606.3222" x="516.14661" xml:space="preserve"><tspan id="tspan4689" y="606.3222" x="516.14661">j)</tspan></text>
   <text id="text4691" style="word-spacing:0px;letter-spacing:0px" line-height="125%" y="550.39685" x="550.95874" xml:space="preserve"><tspan id="tspan4693" y="550.39685" x="550.95874">i)</tspan></text>
  </g>
 </g>
</svg>
