<?xml version="1.0" encoding="UTF-8" standalone="no"?>
<!-- Created with Inkscape (http://www.inkscape.org/) -->
<svg id="svg2" xmlns:rdf="http://www.w3.org/1999/02/22-rdf-syntax-ns#" xmlns="http://www.w3.org/2000/svg" xmlns:ns0="http://www.iki.fi/pav/software/textext/" height="131.6" width="302.53" version="1.1" xmlns:cc="http://creativecommons.org/ns#" viewBox="0 0 302.52549 131.59998" xmlns:dc="http://purl.org/dc/elements/1.1/">
 <style type="text/css">
	@import url('../estilo.css');
 </style>
 <defs id="defs4">
  <marker id="TriangleOutL" refY="0" refX="0" overflow="visible" orient="auto">
   <path id="path4589" d="m5.77 0-8.65 5v-10l8.65 5z" fill-rule="evenodd" transform="scale(.8)" stroke="#000" stroke-width="1pt"/>
  </marker>
 </defs>
 <metadata id="metadata7">
  <rdf:RDF>
   <cc:Work rdf:about="">
    <dc:format>image/svg+xml</dc:format>
    <dc:type rdf:resource="http://purl.org/dc/dcmitype/StillImage"/>
    <dc:title/>
   </cc:Work>
  </rdf:RDF>
 </metadata>
 <g id="layer1" transform="translate(-85.185 -287.36)">
  <g stroke="#000">
   <g id="content" xml:space="preserve" stroke-width="0" fill-rule="evenodd" ns0:pdfconverter="pstoedit" transform="matrix(1.75 0 0 -1.75 -92.597 1545.8)" stroke-miterlimit="10.433" ns0:text="$\n\\begin{pmatrix}\n  \\ &amp; \\enspace &amp; \\ \\\\\n  &amp; &amp; \\\\\n  &amp; &amp; \\\\\n  &amp; &amp; \\\\\n  &amp; &amp;\n\\end{pmatrix}\n$" ns0:version="0.7.2" ns0:inkscapeversion="0.91" ns0:preamble="/usr/share/inkscape/extensions/tx_fonts.ini" ns0:scale="1.4" ns0:texconverter="pdflatex"><path id="path4612" d="m152.4 714.57v0.01h-0.01v0.01 0.01h-0.01v0.01h-0.01v0.01h-0.01-0.01-0.01c-0.02 0-0.04-0.01-0.06-0.01-1.74-1.12-3.07-3.11-3.07-7.84v-0.5h0.94v0.5c0 2.7 0.15 5.86 2.16 7.56 0.08 0.07 0.09 0.16 0.09 0.24z"/><polygon id="polygon4614" points="150.15 707.23 149.21 707.23 149.21 704.15 150.15 704.15"/><polygon id="polygon4616" points="150.15 704.95 149.21 704.95 149.21 701.87 150.15 701.87"/><polygon id="polygon4618" points="150.15 702.67 149.21 702.67 149.21 699.59 150.15 699.59"/><polygon id="polygon4620" points="150.15 700.39 149.21 700.39 149.21 697.31 150.15 697.31"/><polygon id="polygon4622" points="150.15 698.11 149.21 698.11 149.21 695.03 150.15 695.03"/><polygon id="polygon4624" points="150.15 695.82 149.21 695.82 149.21 692.74 150.15 692.74"/><polygon id="polygon4626" points="150.15 693.54 149.21 693.54 149.21 690.46 150.15 690.46"/><polygon id="polygon4628" points="150.15 691.26 149.21 691.26 149.21 688.18 150.15 688.18"/><polygon id="polygon4630" points="150.15 688.98 149.21 688.98 149.21 685.9 150.15 685.9"/><polygon id="polygon4632" points="150.15 686.7 149.21 686.7 149.21 683.62 150.15 683.62"/><polygon id="polygon4634" points="150.15 684.41 149.21 684.41 149.21 681.34 150.15 681.34"/><polygon id="polygon4636" points="150.15 682.14 149.21 682.14 149.21 679.06 150.15 679.06"/><polygon id="polygon4638" points="150.15 679.85 149.21 679.85 149.21 676.78 150.15 676.78"/><polygon id="polygon4640" points="150.15 677.58 149.21 677.58 149.21 674.5 150.15 674.5"/><polygon id="polygon4642" points="150.15 675.29 149.21 675.29 149.21 672.22 150.15 672.22"/><polygon id="polygon4644" points="150.15 673.01 149.21 673.01 149.21 669.93 150.15 669.93"/><polygon id="polygon4646" points="150.15 670.73 149.21 670.73 149.21 667.65 150.15 667.65"/><path id="path4648" d="m152.4 660.15v0.01 0.02 0.01l-0.01 0.02v0.01 0.01 0.01 0.01 0.01l-0.01 0.01v0.01 0.01l-0.01 0.01v0.01 0.01h-0.01v0.01l-0.01 0.01v0.01h-0.01v0.01l-0.01 0.01h-0.01l-0.01 0.01v0.01c-2.01 1.69-2.16 4.86-2.16 7.56v0.5h-0.94v-0.5c0-4.73 1.33-6.73 3.07-7.84 0.02-0.01 0.04-0.02 0.06-0.02 0.03 0 0.06 0.02 0.06 0.06z"/><path id="path4650" d="m186.07 706.27v0.5c0 4.73-1.33 6.72-3.06 7.84-0.02 0-0.04 0.01-0.06 0.01-0.03 0-0.06-0.01-0.06-0.06 0-0.08 0.01-0.16 0.09-0.23 1.99-1.7 2.16-4.86 2.16-7.56v-0.5z"/><polygon id="polygon4652" points="186.07 707.23 185.14 707.23 185.14 704.15 186.07 704.15"/><polygon id="polygon4654" points="186.07 704.95 185.14 704.95 185.14 701.87 186.07 701.87"/><polygon id="polygon4656" points="186.07 702.67 185.14 702.67 185.14 699.59 186.07 699.59"/><polygon id="polygon4658" points="186.07 700.39 185.14 700.39 185.14 697.31 186.07 697.31"/><polygon id="polygon4660" points="186.07 698.11 185.14 698.11 185.14 695.03 186.07 695.03"/><polygon id="polygon4662" points="186.07 695.82 185.14 695.82 185.14 692.74 186.07 692.74"/><polygon id="polygon4664" points="186.07 693.54 185.14 693.54 185.14 690.46 186.07 690.46"/><polygon id="polygon4666" points="186.07 691.26 185.14 691.26 185.14 688.18 186.07 688.18"/><polygon id="polygon4668" points="186.07 688.98 185.14 688.98 185.14 685.9 186.07 685.9"/><polygon id="polygon4670" points="186.07 686.7 185.14 686.7 185.14 683.62 186.07 683.62"/><polygon id="polygon4672" points="186.07 684.41 185.14 684.41 185.14 681.34 186.07 681.34"/><polygon id="polygon4674" points="186.07 682.14 185.14 682.14 185.14 679.06 186.07 679.06"/><polygon id="polygon4676" points="186.07 679.85 185.14 679.85 185.14 676.78 186.07 676.78"/><polygon id="polygon4678" points="186.07 677.58 185.14 677.58 185.14 674.5 186.07 674.5"/><polygon id="polygon4680" points="186.07 675.29 185.14 675.29 185.14 672.22 186.07 672.22"/><polygon id="polygon4682" points="186.07 673.01 185.14 673.01 185.14 669.93 186.07 669.93"/><polygon id="polygon4684" points="186.07 670.73 185.14 670.73 185.14 667.65 186.07 667.65"/><path id="path4686" d="m186.07 667.95v0.5h-0.93v-0.5c0-2.7-0.18-5.86-2.17-7.56-0.08-0.06-0.08-0.16-0.08-0.24 0-0.04 0.03-0.06 0.06-0.06 0.02 0 0.04 0.01 0.06 0.02 1.73 1.11 3.06 3.11 3.06 7.84z"/></g>
   <g id="g4350" xml:space="preserve" stroke-width="0" fill-rule="evenodd" ns0:pdfconverter="pstoedit" transform="matrix(1.75 0 0 -1.75 -170.34 1584.5)" stroke-miterlimit="10.433" ns0:text="$\n\\rm\nD(g \\circ f) =\n$" ns0:version="0.7.2" ns0:inkscapeversion="0.91" ns0:preamble="/usr/share/inkscape/extensions/default_packages.tex" ns0:scale="1.4" ns0:texconverter="pdflatex"><path id="path4352" d="m149.75 708.21v-0.07l-0.01-0.06v-0.06-0.05-0.06l-0.01-0.05-0.01-0.04v-0.05l-0.01-0.04-0.01-0.04-0.02-0.03-0.01-0.04-0.02-0.03-0.02-0.03-0.02-0.03-0.02-0.02-0.02-0.02-0.03-0.02-0.03-0.02-0.03-0.02-0.03-0.02-0.04-0.01-0.04-0.02-0.04-0.01-0.05-0.01-0.05-0.01-0.05-0.01h-0.06l-0.05-0.01-0.07-0.01h-0.06l-0.04-0.01h-0.03v-0.19h2.83c1.15 0 2.2 0.33 2.82 0.89 0.65 0.59 1.01 1.47 1.01 2.44 0 0.9-0.29 1.67-0.84 2.22-0.68 0.69-1.77 1.05-3.13 1.05l-0.28-0.37c0.86 0 1.51-0.16 1.98-0.5 0.78-0.54 1.19-1.39 1.19-2.47 0-1.17-0.41-2.01-1.22-2.48-0.5-0.29-1.08-0.41-1.95-0.41-0.4 0-0.52 0.09-0.52 0.41v5.06c0 0.31 0.11 0.39 0.52 0.39l0.28 0.37h-2.69v-0.19c0.79-0.07 0.88-0.16 0.88-0.9z"/><path id="path4354" d="m158.84 713.86-0.07-0.05-0.06-0.04-0.07-0.04-0.06-0.04-0.05-0.04-0.06-0.04-0.06-0.04-0.05-0.04-0.05-0.03-0.05-0.04-0.04-0.04-0.05-0.03-0.04-0.04-0.05-0.03-0.08-0.07-0.08-0.07-0.07-0.06-0.07-0.07-0.07-0.08-0.07-0.07-0.07-0.07-0.06-0.08-0.07-0.09c-0.71-0.87-1.06-1.86-1.06-3.03 0-1.26 0.37-2.24 1.25-3.25 0.41-0.48 0.66-0.7 1.18-1.02l0.12 0.16c-0.8 0.63-1.08 0.97-1.34 1.72-0.24 0.67-0.35 1.43-0.35 2.42 0 1.05 0.13 1.87 0.4 2.48 0.27 0.62 0.57 0.98 1.29 1.56z"/><path id="path4356" d="m163.91 710.99v0.39h-0.77c-0.2 0-0.35 0.03-0.55 0.1l-0.22 0.08c-0.27 0.1-0.53 0.15-0.79 0.15-0.93 0-1.67-0.72-1.67-1.63 0-0.63 0.27-1 0.93-1.33-0.19-0.18-0.37-0.35-0.43-0.4-0.33-0.29-0.46-0.49-0.46-0.69 0-0.21 0.12-0.33 0.53-0.53l0.21-0.03c0.33-0.07 1.13-0.13 1.61-0.13 0.91 0 1.24-0.13 1.24-0.49 0-0.57-0.76-0.96-1.88-0.96-0.88 0-1.46 0.29-1.46 0.73 0 0.22 0.07 0.35 0.49 0.85l-0.21 0.03c-0.71-0.52-0.98-0.84-0.98-1.21 0-0.53 0.78-0.97 1.73-0.97 0.75 0 1.52 0.26 2.04 0.68 0.38 0.31 0.55 0.63 0.55 1 0 0.62-0.47 1.04-1.21 1.07l-1.28 0.06c-0.53 0.02-0.78 0.11-0.78 0.27 0 0.2 0.33 0.55 0.6 0.63 0.09-0.01 0.16-0.02 0.19-0.02 0.19-0.02 0.32-0.03 0.38-0.03l0.04 0.25c-0.6 0-1.02 0.64-1.02 1.6v0.03c0 0.59 0.28 0.94 0.74 0.94 0.31 0 0.56-0.17 0.72-0.47 0.18-0.35 0.3-0.81 0.3-1.2 0-0.55-0.29-0.9-0.74-0.9l-0.04-0.25c0.36 0 0.76 0.15 1.07 0.42 0.33 0.27 0.48 0.62 0.48 1.12 0 0.29-0.05 0.52-0.19 0.84z"/><path id="path4358" d="m170.75 709.68v0.1l-0.01 0.09-0.01 0.1-0.02 0.09-0.02 0.09-0.02 0.08-0.03 0.09-0.03 0.09-0.04 0.08-0.04 0.08-0.05 0.08-0.04 0.07-0.06 0.07-0.05 0.07-0.06 0.07-0.06 0.06-0.07 0.07-0.06 0.05-0.07 0.06-0.07 0.05-0.08 0.05-0.08 0.04-0.08 0.04-0.08 0.04-0.08 0.03-0.09 0.03-0.09 0.03-0.09 0.02-0.09 0.01-0.09 0.02h-0.1l-0.09 0.01c-1.05 0-1.86-0.83-1.86-1.86s0.81-1.85 1.86-1.85v0.48c-0.78 0-1.39 0.61-1.39 1.37s0.61 1.38 1.39 1.38c0.75 0 1.37-0.62 1.37-1.38s-0.62-1.37-1.37-1.37v-0.48c1.02 0 1.85 0.82 1.85 1.85z"/><path id="path4360" d="m176.66 711.61h-1.23v1.15c0 0.58 0.19 0.89 0.57 0.89 0.21 0 0.35-0.1 0.53-0.39 0.16-0.26 0.28-0.36 0.45-0.36 0.23 0 0.42 0.18 0.42 0.41 0 0.36-0.44 0.62-1.04 0.62-0.62 0-1.15-0.27-1.4-0.73-0.26-0.44-0.34-0.8-0.35-1.59h-0.82v-0.32h0.82v-3.13c0-0.73-0.11-0.85-0.83-0.89v-0.15h2.59v0.15c-0.82 0.03-0.93 0.14-0.93 0.89v3.13h1.22z"/><path id="path4362" d="m177.28 705.36 0.07 0.04 0.06 0.05 0.07 0.04 0.06 0.04 0.06 0.04 0.05 0.04 0.06 0.04 0.05 0.03 0.05 0.04 0.05 0.04 0.05 0.03 0.04 0.04 0.05 0.03 0.04 0.04 0.08 0.06 0.08 0.07 0.07 0.07 0.08 0.07 0.06 0.07 0.07 0.08 0.07 0.07 0.07 0.08 0.07 0.08c0.7 0.87 1.05 1.87 1.05 3.03 0 1.28-0.37 2.25-1.24 3.26-0.41 0.48-0.67 0.7-1.19 1.02l-0.12-0.16c0.8-0.63 1.07-0.98 1.35-1.73 0.23-0.66 0.34-1.42 0.34-2.42 0-1.03-0.12-1.86-0.39-2.47-0.28-0.62-0.58-0.98-1.3-1.56z"/><polygon id="polygon4364" points="188.7 710.97 183.6 710.97 183.6 710.41 188.7 710.41"/><polygon id="polygon4366" points="188.7 708.95 183.6 708.95 183.6 708.39 188.7 708.39"/></g>
   <path id="path4421" d="m200.77 292.36v100" stroke-dasharray="4, 4" fill="none"/>
   <path id="path4423" d="m170 342.96h70" stroke-dasharray="4, 4" fill="none"/>
  </g>
  <g id="g4437" transform="translate(-84.227 -59.4)" stroke="#000" stroke-width="1px" fill="none">
   <path id="path4425" d="m290 412.36-10-20"/>
   <path id="path4427" d="m280 412.36 10-20"/>
  </g>
  <path id="path4441" marker-end="url(#TriangleOutL)" d="m206 340.36 59-23" stroke="#000" stroke-width="1px" fill="none"/>
  <g>
   <g id="g4770" xml:space="preserve" stroke="#000" stroke-width="0" fill-rule="evenodd" ns0:pdfconverter="pstoedit" transform="matrix(1.75 0 0 -1.75 10.66 1558.7)" stroke-miterlimit="10.433" ns0:text="$\n\\rm\n\\partial (g \\circ f)_i / \\partial x_j (u_0)\n$" ns0:version="0.7.2" ns0:inkscapeversion="0.91" ns0:preamble="/usr/share/inkscape/extensions/default_packages.tex" ns0:scale="1.4" ns0:texconverter="pdflatex"><path id="path4772" d="m153.61 711.42v0.13 0.13l-0.01 0.13-0.01 0.13-0.01 0.13-0.02 0.12-0.01 0.12-0.02 0.12-0.03 0.11-0.02 0.12-0.03 0.1-0.03 0.11-0.04 0.1-0.04 0.1-0.04 0.09-0.04 0.09-0.05 0.09-0.05 0.08-0.05 0.08-0.06 0.07-0.06 0.07-0.06 0.06-0.07 0.06-0.07 0.05-0.08 0.05-0.07 0.04-0.08 0.04-0.09 0.02-0.09 0.03-0.09 0.01-0.09 0.01-0.1 0.01c-0.84 0-1.75-0.8-1.75-1.25 0-0.33 0.26-0.46 0.46-0.46 0.21 0 0.34 0.16 0.36 0.19-0.03 0.03-0.09 0.12-0.09 0.26 0 0.09 0.18 0.96 1.04 0.96 0.72 0 0.87-0.93 0.87-1.74 0-0.6-0.09-1.14-0.09-1.15h-0.01c0 0.01-0.38 0.62-1.17 0.62l-0.07-0.24c0.56 0 0.83-0.33 0.83-0.92 0-0.26-0.26-3.09-1.86-3.09-0.57 0-0.82 0.32-0.82 0.96 0 0.63 0.41 3.05 1.85 3.05l0.07 0.24c-1.99 0-2.82-1.94-2.82-2.96 0-0.93 0.55-1.53 1.65-1.53 1.72 0 3.06 1.75 3.06 4.46z"/><path id="path4774" d="m156.75 713.86-0.07-0.05-0.06-0.04-0.07-0.04-0.06-0.04-0.06-0.04-0.05-0.04-0.06-0.04-0.05-0.04-0.05-0.03-0.05-0.04-0.05-0.04-0.04-0.03-0.05-0.04-0.04-0.03-0.08-0.07-0.08-0.07-0.07-0.06-0.08-0.07-0.06-0.08-0.07-0.07-0.07-0.07-0.07-0.08-0.07-0.09c-0.7-0.87-1.05-1.86-1.05-3.03 0-1.26 0.37-2.24 1.24-3.25 0.41-0.48 0.67-0.7 1.19-1.02l0.12 0.16c-0.8 0.63-1.08 0.97-1.35 1.72-0.23 0.67-0.34 1.43-0.34 2.42 0 1.05 0.12 1.87 0.39 2.48 0.28 0.62 0.58 0.98 1.3 1.56z"/><path id="path4776" d="m161.82 710.99v0.39h-0.77c-0.2 0-0.35 0.03-0.55 0.1l-0.22 0.08c-0.27 0.1-0.54 0.15-0.8 0.15-0.92 0-1.66-0.72-1.66-1.63 0-0.63 0.27-1 0.93-1.33-0.19-0.18-0.37-0.35-0.43-0.4-0.33-0.29-0.46-0.49-0.46-0.69 0-0.21 0.12-0.33 0.53-0.53l0.21-0.03c0.33-0.07 1.12-0.13 1.61-0.13 0.91 0 1.24-0.13 1.24-0.49 0-0.57-0.76-0.96-1.89-0.96-0.87 0-1.45 0.29-1.45 0.73 0 0.22 0.07 0.35 0.49 0.85l-0.21 0.03c-0.71-0.52-0.98-0.84-0.98-1.21 0-0.53 0.78-0.97 1.72-0.97 0.75 0 1.53 0.26 2.05 0.68 0.38 0.31 0.55 0.63 0.55 1 0 0.62-0.47 1.04-1.21 1.07l-1.28 0.06c-0.53 0.02-0.78 0.11-0.78 0.27 0 0.2 0.33 0.55 0.59 0.63 0.1-0.01 0.16-0.02 0.19-0.02 0.19-0.02 0.32-0.03 0.38-0.03l0.04 0.25c-0.59 0-1.01 0.64-1.01 1.6v0.03c0 0.59 0.28 0.94 0.73 0.94 0.31 0 0.57-0.17 0.73-0.47 0.18-0.35 0.3-0.81 0.3-1.2 0-0.55-0.29-0.9-0.75-0.9l-0.04-0.25c0.37 0 0.77 0.15 1.08 0.42 0.33 0.27 0.48 0.62 0.48 1.12 0 0.29-0.05 0.52-0.19 0.84z"/><path id="path4778" d="m168.66 709.68v0.1l-0.01 0.09-0.01 0.1-0.02 0.09-0.02 0.09-0.02 0.08-0.03 0.09-0.04 0.09-0.03 0.08-0.04 0.08-0.05 0.08-0.05 0.07-0.05 0.07-0.05 0.07-0.06 0.07-0.06 0.06-0.07 0.07-0.06 0.05-0.07 0.06-0.08 0.05-0.07 0.05-0.08 0.04-0.08 0.04-0.08 0.04-0.09 0.03-0.08 0.03-0.09 0.03-0.09 0.02-0.09 0.01-0.09 0.02h-0.1l-0.09 0.01c-1.05 0-1.87-0.83-1.87-1.86s0.82-1.85 1.87-1.85v0.48c-0.78 0-1.39 0.61-1.39 1.37s0.61 1.38 1.39 1.38c0.74 0 1.37-0.62 1.37-1.38s-0.63-1.37-1.37-1.37v-0.48c1.02 0 1.85 0.82 1.85 1.85z"/><path id="path4780" d="m174.57 711.61h-1.23v1.15c0 0.58 0.19 0.89 0.57 0.89 0.21 0 0.35-0.1 0.53-0.39 0.16-0.26 0.27-0.36 0.44-0.36 0.23 0 0.42 0.18 0.42 0.41 0 0.36-0.43 0.62-1.03 0.62-0.62 0-1.15-0.27-1.41-0.73-0.26-0.44-0.34-0.8-0.35-1.59h-0.81v-0.32h0.81v-3.13c0-0.73-0.11-0.85-0.82-0.89v-0.15h2.59v0.15c-0.82 0.03-0.93 0.14-0.93 0.89v3.13h1.22z"/><path id="path4782" d="m175.19 705.36 0.07 0.04 0.06 0.05 0.07 0.04 0.06 0.04 0.05 0.04 0.06 0.04 0.06 0.04 0.05 0.03 0.05 0.04 0.05 0.04 0.04 0.03 0.05 0.04 0.04 0.03 0.05 0.04 0.08 0.06 0.08 0.07 0.07 0.07 0.07 0.07 0.07 0.07 0.07 0.08 0.07 0.07 0.06 0.08 0.07 0.08c0.71 0.87 1.06 1.87 1.06 3.03 0 1.28-0.37 2.25-1.25 3.26-0.4 0.48-0.66 0.7-1.18 1.02l-0.12-0.16c0.8-0.63 1.06-0.98 1.34-1.73 0.24-0.66 0.35-1.42 0.35-2.42 0-1.03-0.13-1.86-0.4-2.47-0.27-0.62-0.57-0.98-1.29-1.56z"/><path id="path4784" d="m179.35 708.84-1.09-0.39v-0.1l0.06 0.01c0.08 0.01 0.17 0.02 0.24 0.02 0.17 0 0.23-0.11 0.23-0.42v-1.62c0-0.5-0.07-0.58-0.55-0.61v-0.1h1.65v0.1c-0.46 0.04-0.52 0.11-0.52 0.61v2.48z"/><path id="path4786" d="m179.02 710.39h-0.02-0.02-0.01-0.02l-0.02-0.01h-0.01l-0.02-0.01-0.02-0.01h-0.01l-0.02-0.01-0.01-0.01-0.02-0.01-0.01-0.01-0.01-0.01-0.02-0.01-0.01-0.01-0.01-0.01-0.01-0.02-0.01-0.01-0.01-0.01-0.01-0.02-0.01-0.01-0.01-0.02v-0.01l-0.01-0.02v-0.02l-0.01-0.01v-0.02l-0.01-0.02v-0.02-0.01-0.02c0-0.2 0.15-0.36 0.35-0.36s0.36 0.16 0.36 0.36c0 0.19-0.16 0.35-0.36 0.35z"/><polygon id="polygon4788" points="181.18 705.52 181.7 705.52 184.34 713.88 183.82 713.88"/><path id="path4790" d="m189.86 711.42v0.13l-0.01 0.13v0.13l-0.01 0.13-0.01 0.13-0.02 0.12-0.02 0.12-0.02 0.12-0.02 0.11-0.03 0.12-0.02 0.1-0.04 0.11-0.03 0.1-0.04 0.1-0.04 0.09-0.04 0.09-0.05 0.09-0.05 0.08-0.06 0.08-0.05 0.07-0.06 0.07-0.07 0.06-0.06 0.06-0.07 0.05-0.08 0.05-0.08 0.04-0.08 0.04-0.08 0.02-0.09 0.03-0.09 0.01-0.1 0.01-0.09 0.01c-0.84 0-1.75-0.8-1.75-1.25 0-0.33 0.26-0.46 0.46-0.46 0.21 0 0.34 0.16 0.36 0.19-0.03 0.03-0.09 0.12-0.09 0.26 0 0.09 0.18 0.96 1.04 0.96 0.71 0 0.87-0.93 0.87-1.74 0-0.6-0.09-1.14-0.09-1.15h-0.01c0 0.01-0.39 0.62-1.17 0.62-2 0-2.82-1.94-2.82-2.96 0-0.93 0.55-1.53 1.65-1.53l0.07 0.24c-0.57 0-0.83 0.32-0.83 0.96 0 0.63 0.42 3.05 1.86 3.05 0.55 0 0.82-0.33 0.82-0.92 0-0.26-0.26-3.09-1.85-3.09l-0.07-0.24c1.71 0 3.06 1.75 3.06 4.46z"/><path id="path4792" d="m192.83 707.12h2v0.15c-0.31 0-0.51 0.16-0.82 0.6l-1.27 1.95 0.82 1.2c0.19 0.27 0.49 0.43 0.81 0.44v0.15h-1.57v-0.15c0.3-0.02 0.4-0.08 0.4-0.22 0-0.12-0.12-0.34-0.37-0.65-0.05-0.06-0.17-0.24-0.3-0.44l-0.14 0.2c-0.28 0.42-0.46 0.76-0.46 0.89 0 0.14 0.13 0.21 0.43 0.22v0.15h-2.06v-0.15h0.09c0.29 0 0.46-0.13 0.76-0.6l0.94-1.44-1.14-1.64c-0.3-0.41-0.39-0.48-0.72-0.51v-0.15h1.44v0.15c-0.28 0-0.4 0.05-0.4 0.18 0 0.06 0.07 0.21 0.2 0.41l0.79 1.23 0.91-1.4c0.04-0.06 0.06-0.12 0.06-0.18 0-0.18-0.07-0.22-0.4-0.24z"/><path id="path4794" d="m196.38 708.82-0.03 0.02c-0.41-0.16-0.68-0.25-1.09-0.38v-0.11l0.04 0.01c0.1 0.01 0.21 0.02 0.27 0.02 0.17 0 0.23-0.12 0.23-0.42v-2.64c0-0.53-0.02-0.71-0.1-0.85-0.04-0.07-0.14-0.12-0.24-0.12s-0.17 0.05-0.29 0.19c-0.13 0.16-0.22 0.23-0.33 0.23-0.16 0-0.29-0.12-0.29-0.28 0-0.22 0.28-0.38 0.66-0.38 0.76 0 1.17 0.53 1.17 1.52z"/><path id="path4796" d="m196.03 710.39h-0.02-0.02-0.01-0.02l-0.02-0.01h-0.01l-0.02-0.01-0.02-0.01h-0.01l-0.02-0.01-0.01-0.01-0.02-0.01-0.01-0.01-0.01-0.01-0.02-0.01-0.01-0.01-0.01-0.01-0.01-0.02-0.01-0.01-0.01-0.01-0.01-0.02-0.01-0.01-0.01-0.02v-0.01l-0.01-0.02v-0.02l-0.01-0.01v-0.02l-0.01-0.02v-0.02-0.01-0.02c0-0.2 0.15-0.36 0.35-0.36s0.36 0.16 0.36 0.36c0 0.19-0.16 0.35-0.36 0.35z"/><path id="path4798" d="m200.41 713.86-0.06-0.05-0.07-0.04-0.06-0.04-0.06-0.04-0.06-0.04-0.06-0.04-0.05-0.04-0.05-0.04-0.06-0.03-0.04-0.04-0.05-0.04-0.05-0.03-0.04-0.04-0.04-0.03-0.09-0.07-0.07-0.07-0.08-0.06-0.07-0.07-0.07-0.08-0.07-0.07-0.06-0.07-0.07-0.08-0.07-0.09c-0.71-0.87-1.06-1.86-1.06-3.03 0-1.26 0.37-2.24 1.25-3.25 0.41-0.48 0.67-0.7 1.18-1.02l0.12 0.16c-0.79 0.63-1.07 0.97-1.34 1.72-0.24 0.67-0.35 1.43-0.35 2.42 0 1.05 0.13 1.87 0.4 2.48 0.28 0.62 0.58 0.98 1.29 1.56z"/><path id="path4800" d="m205.56 707.62h-0.05c-0.46 0-0.57 0.11-0.57 0.57v3.42h-1.57v-0.17c0.62-0.03 0.74-0.13 0.74-0.63v-2.34c0-0.28-0.05-0.42-0.19-0.53-0.27-0.22-0.58-0.34-0.88-0.34-0.39 0-0.71 0.34-0.71 0.76v3.25h-1.45v-0.14c0.48-0.03 0.62-0.18 0.62-0.64v-2.51c0-0.79 0.48-1.3 1.2-1.3 0.37 0 0.76 0.16 1.03 0.43l0.43 0.43v-0.83l0.04-0.02c0.5 0.2 0.85 0.31 1.36 0.45z"/><path id="path4802" d="m207.55 710.34h-0.04-0.03-0.04-0.03-0.03l-0.04-0.01h-0.03l-0.03-0.01h-0.03l-0.04-0.01-0.03-0.01-0.03-0.01h-0.03l-0.03-0.01-0.03-0.01-0.03-0.02-0.02-0.01-0.03-0.01-0.03-0.01-0.03-0.02-0.03-0.01-0.02-0.02-0.03-0.01-0.03-0.02-0.02-0.02-0.03-0.01-0.02-0.02-0.03-0.02-0.02-0.02-0.03-0.02-0.02-0.03-0.03-0.02c-0.4-0.39-0.66-1.19-0.66-2.01 0-0.76 0.23-1.57 0.55-1.96 0.26-0.31 0.62-0.48 1.02-0.48v0.18c-0.6 0-0.91 0.75-0.91 2.2 0 1.48 0.32 2.25 0.92 2.25 0.58 0 0.9-0.78 0.9-2.24s-0.31-2.21-0.91-2.21v-0.18c0.36 0 0.66 0.12 0.91 0.37 0.4 0.38 0.67 1.19 0.67 2.03 0 1.43-0.64 2.41-1.55 2.41z"/><path id="path4804" d="m210.14 705.36 0.07 0.04 0.06 0.05 0.07 0.04 0.06 0.04 0.05 0.04 0.06 0.04 0.06 0.04 0.05 0.03 0.05 0.04 0.05 0.04 0.04 0.03 0.05 0.04 0.04 0.03 0.05 0.04 0.08 0.06 0.08 0.07 0.07 0.07 0.07 0.07 0.07 0.07 0.07 0.08 0.07 0.07 0.06 0.08 0.07 0.08c0.71 0.87 1.06 1.87 1.06 3.03 0 1.28-0.37 2.25-1.25 3.26-0.4 0.48-0.66 0.7-1.18 1.02l-0.12-0.16c0.8-0.63 1.07-0.98 1.34-1.73 0.24-0.66 0.35-1.42 0.35-2.42 0-1.03-0.13-1.86-0.4-2.47-0.27-0.62-0.57-0.98-1.29-1.56z"/></g>
   <text id="text4885" style="word-spacing:0px;letter-spacing:0px" xml:space="preserve" font-size="16px" line-height="125%" y="347.31415" x="242.37457" font-family="&apos;STIX Two Text&apos;" fill="#000000"><tspan id="tspan4887" x="242.37457" y="347.31415">i)</tspan></text>
   <text id="text4889" style="word-spacing:0px;letter-spacing:0px" xml:space="preserve" font-size="16px" line-height="125%" y="410.20215" x="196.91989" font-family="&apos;STIX Two Text&apos;" fill="#000000"><tspan id="tspan4891" x="196.91989" y="410.20215">j)</tspan></text>
  </g>
 </g>
</svg>
