<?xml version="1.0" encoding="UTF-8" standalone="no"?>
<!-- Created with Inkscape (http://www.inkscape.org/) -->
<svg id="svg2" xmlns:rdf="http://www.w3.org/1999/02/22-rdf-syntax-ns#" xmlns="http://www.w3.org/2000/svg" height="160" width="210" version="1.1" xmlns:cc="http://creativecommons.org/ns#" xmlns:dc="http://purl.org/dc/elements/1.1/" viewBox="0 0 210 160">
 <style type="text/css">
	@import url('../estilo.css');
 </style>
 <defs id="defs4">
  <marker id="TriangleOutL" refY="0" refX="0" orient="auto" overflow="visible">
   <path id="path4373" d="m5.77 0-8.65 5v-10l8.65 5z" fill-rule="evenodd" transform="scale(.8)" stroke="#000" stroke-width="1pt"/>
  </marker>
 </defs>
 <metadata id="metadata7">
  <rdf:RDF>
   <cc:Work rdf:about="">
    <dc:format>image/svg+xml</dc:format>
    <dc:type rdf:resource="http://purl.org/dc/dcmitype/StillImage"/>
    <dc:title/>
   </cc:Work>
  </rdf:RDF>
 </metadata>
 <g id="layer1" transform="translate(-175 -342.36)">
  <g stroke="#000" fill="none">
   <path id="path4219" d="m180 447.36h200" stroke-width="1px"/>
   <path id="path4221" d="m230 497.36v-150" stroke-width="1px"/>
   <path id="path4223" d="m345 437.36-95-80" stroke-dasharray="2, 2"/>
   <path id="path10877" marker-end="url(#TriangleOutL)" d="m316.5 413.36-38-32"/>
  </g>
  <rect id="rect10948" height="2.5" width="2.5" stroke="#000" stroke-linecap="square" y="412.11" x="315.25"/>
  <g id="g10975" transform="translate(23,56)">
   <g id="content" stroke-width="0" xml:space="preserve" transform="matrix(1.063 0 0 -1.063 -186.02 789.27)" stroke="#000" stroke-miterlimit="10.433"><path id="path10978" d="m463.64 406.8h-0.09c-0.73 0-0.9 0.17-0.9 0.91v5.46h-2.52v-0.27c0.99-0.04 1.18-0.2 1.18-1v-3.75c0-0.44-0.08-0.67-0.31-0.84-0.43-0.35-0.92-0.54-1.4-0.54-0.62 0-1.13 0.54-1.13 1.21v5.19h-2.33v-0.22c0.77-0.05 0.99-0.29 0.99-1.02v-4.02c0-1.26 0.77-2.07 1.93-2.07 0.59 0 1.21 0.25 1.64 0.69l0.69 0.68v-1.32l0.06-0.03c0.8 0.32 1.37 0.49 2.19 0.71z"/><path id="path10980" d="m465.84 411.54h-0.06-0.06-0.05l-0.06-0.01h-0.05l-0.06-0.01h-0.05l-0.05-0.01-0.05-0.01-0.05-0.01-0.05-0.02-0.05-0.01-0.05-0.01-0.05-0.02-0.04-0.01-0.05-0.02-0.05-0.02-0.04-0.02-0.05-0.02-0.04-0.02-0.04-0.03-0.05-0.02-0.04-0.03-0.04-0.02-0.04-0.03-0.04-0.03-0.04-0.03-0.04-0.03-0.04-0.03-0.04-0.04-0.04-0.03-0.04-0.04c-0.65-0.62-1.07-1.91-1.07-3.21 0-1.22 0.37-2.52 0.89-3.15 0.41-0.49 0.98-0.76 1.63-0.76v0.29c-0.96 0-1.45 1.2-1.45 3.52 0 2.37 0.5 3.6 1.46 3.6 0.94 0 1.44-1.26 1.44-3.59s-0.49-3.53-1.45-3.53v-0.29c0.57 0 1.05 0.2 1.45 0.59 0.65 0.61 1.07 1.9 1.07 3.25 0 2.29-1.01 3.86-2.47 3.86z"/></g>
  </g>
  <text id="text11003" style="word-spacing:0px;letter-spacing:0px" font-size="16px" line-height="125%" y="394.36218" x="299" font-family="&apos;STIX Two Text&apos;" xml:space="preserve" fill="#000000"><tspan id="tspan11005" y="394.36218" x="299">v</tspan></text>
  <text id="text11098" style="word-spacing:0px;letter-spacing:0px" xml:space="preserve" font-size="16px" line-height="125%" y="362.74017" x="318.15604" font-family="&apos;STIX Two Text&apos;" fill="#000000"><tspan id="tspan11100" x="318.15604" y="362.74017">v <tspan id="tspan11102" font-size="16px" line-height="125%" font-family="&apos;STIX Two Math&apos;">∈</tspan> ℝ<tspan id="tspan11104" dy="-5" font-size="65%">n</tspan></tspan></text>
 </g>
</svg>
