<?xml version="1.0" encoding="UTF-8" standalone="no"?>
<!-- Created with Inkscape (http://www.inkscape.org/) -->
<svg id="svg2" xmlns:rdf="http://www.w3.org/1999/02/22-rdf-syntax-ns#" xmlns="http://www.w3.org/2000/svg" xmlns:ns0="http://www.iki.fi/pav/software/textext/" height="160" width="213.14" version="1.1" xmlns:cc="http://creativecommons.org/ns#" viewBox="0 0 213.13976 160" xmlns:dc="http://purl.org/dc/elements/1.1/">
 <defs id="defs4">
  <marker id="marker4638" refY="0" refX="0" overflow="visible" orient="auto">
   <path id="path4640" d="m5.77 0-8.65 5v-10l8.65 5z" fill-rule="evenodd" transform="scale(.8)" stroke="#000" stroke-width="1pt"/>
  </marker>
  <marker id="TriangleOutL" refY="0" refX="0" orient="auto" overflow="visible">
   <path id="path4498" d="m5.77 0-8.65 5v-10l8.65 5z" fill-rule="evenodd" transform="scale(.8)" stroke="#000" stroke-width="1pt"/>
  </marker>
 </defs>
 <metadata id="metadata7">
  <rdf:RDF>
   <cc:Work rdf:about="">
    <dc:format>image/svg+xml</dc:format>
    <dc:type rdf:resource="http://purl.org/dc/dcmitype/StillImage"/>
    <dc:title/>
   </cc:Work>
  </rdf:RDF>
 </metadata>
 <g id="layer1" transform="translate(-245 -262.36)" stroke="#000">
  <g stroke-width="1px" fill="none">
   <path id="path4200" d="m250 367.36h200"/>
   <path id="path4202" d="m300 417.36v-150"/>
   <path id="path4204" d="m310 322.36c10.589-23.99 35.661 18.26 57.5 0 16.338-13.661 30.172 20.198 57.5 0"/>
   <path id="path4346" marker-end="url(#TriangleOutL)" d="m366.25 323.34 26.841-19.595"/>
  </g>
  <rect id="rect4348" height="1.7445" width="1.7445" y="322.49" x="365.13"/>
  <path id="path4350" marker-end="url(#marker4638)" d="m366 323.36-11.75-28.25" stroke-width="1px" fill="none"/>
  <g stroke-width="0" fill-rule="evenodd" stroke-miterlimit="10.433">
   <g id="content" xml:space="preserve" ns0:pdfconverter="pstoedit" transform="matrix(1.75 0 0 -1.75 140.51 1538.1)" ns0:text="$\n\\rm\nh\&apos;(t_0)\n$" ns0:version="0.7.2" ns0:inkscapeversion="0.91" ns0:preamble="/usr/share/inkscape/extensions/default_packages.tex" ns0:scale="1.4" ns0:texconverter="pdflatex"><path id="path4683" d="m150.27 710.54 0.04 0.04 0.04 0.04 0.04 0.04 0.04 0.04 0.03 0.03 0.04 0.04 0.03 0.03 0.04 0.03 0.03 0.03 0.04 0.03 0.03 0.02 0.04 0.03 0.03 0.02 0.03 0.03 0.04 0.02 0.03 0.02 0.03 0.01 0.03 0.02 0.04 0.02 0.03 0.01 0.03 0.01 0.04 0.01 0.03 0.01 0.03 0.01 0.04 0.01 0.03 0.01h0.03l0.04 0.01h0.03 0.04l0.03 0.01h0.04c0.5 0 0.75-0.36 0.75-1.06v-1.97c0-0.68-0.1-0.81-0.68-0.87v-0.15h2.11v0.15c-0.54 0.1-0.6 0.18-0.6 0.87v1.98c0 1.05-0.41 1.59-1.22 1.59-0.59 0-1.01-0.24-1.47-0.84v3.03l-0.05 0.03c-0.33-0.12-0.58-0.2-1.14-0.36l-0.27-0.08v-0.16c0.04 0.01 0.07 0.01 0.12 0.01 0.43 0 0.51-0.08 0.51-0.51v-4.69c0-0.7-0.06-0.79-0.64-0.87v-0.15h2.15v0.15c-0.58 0.06-0.68 0.18-0.68 0.87z"/><path id="path4685" d="m155.77 713.61v0.02 0.03l-0.01 0.02v0.02l-0.01 0.02-0.01 0.02v0.02l-0.01 0.02-0.01 0.02-0.02 0.01-0.01 0.02-0.01 0.02-0.02 0.01-0.01 0.02-0.02 0.01-0.01 0.02-0.02 0.01-0.02 0.01-0.02 0.02-0.02 0.01-0.02 0.01-0.02 0.01-0.02 0.01h-0.02l-0.02 0.01-0.02 0.01h-0.02l-0.02 0.01h-0.02-0.02-0.02-0.03c-0.25 0-0.38-0.25-0.45-0.46l-0.72-2.11c-0.02-0.06-0.07-0.18-0.07-0.24 0-0.07 0.04-0.15 0.11-0.15 0.1 0 0.22 0.15 0.27 0.22l1.14 1.81c0.1 0.14 0.2 0.34 0.2 0.52z"/><path id="path4687" d="m159.55 713.86-0.06-0.05-0.07-0.04-0.06-0.04-0.06-0.04-0.06-0.04-0.06-0.04-0.05-0.04-0.05-0.04-0.06-0.03-0.04-0.04-0.05-0.04-0.05-0.03-0.04-0.04-0.04-0.03-0.09-0.07-0.07-0.07-0.08-0.06-0.07-0.07-0.07-0.08-0.07-0.07-0.06-0.07-0.07-0.08-0.07-0.09c-0.71-0.87-1.06-1.86-1.06-3.03 0-1.26 0.37-2.24 1.25-3.25 0.41-0.48 0.67-0.7 1.18-1.02l0.12 0.16c-0.79 0.63-1.07 0.97-1.34 1.72-0.24 0.67-0.35 1.43-0.35 2.42 0 1.05 0.13 1.87 0.4 2.48 0.28 0.62 0.58 0.98 1.29 1.56z"/><path id="path4689" d="m162.47 711.61h-1.01v1.15c0 0.1-0.01 0.13-0.06 0.13-0.08-0.09-0.14-0.18-0.2-0.28-0.38-0.55-0.81-1.02-0.97-1.06-0.11-0.07-0.17-0.14-0.17-0.19 0-0.03 0.01-0.05 0.04-0.07h0.53v-3c0-0.84 0.3-1.27 0.88-1.27 0.49 0 0.87 0.24 1.2 0.76l-0.13 0.11c-0.21-0.25-0.38-0.35-0.6-0.35-0.37 0-0.52 0.27-0.52 0.9v2.85h1.01z"/><path id="path4691" d="m164.47 710.34h-0.04-0.03-0.04-0.03-0.03l-0.04-0.01h-0.03l-0.03-0.01h-0.03l-0.04-0.01-0.03-0.01-0.03-0.01h-0.03l-0.03-0.01-0.03-0.01-0.03-0.02-0.02-0.01-0.03-0.01-0.03-0.01-0.03-0.02-0.03-0.01-0.02-0.02-0.03-0.01-0.03-0.02-0.02-0.02-0.03-0.01-0.02-0.02-0.03-0.02-0.02-0.02-0.03-0.02-0.02-0.03-0.03-0.02c-0.4-0.39-0.66-1.19-0.66-2.01 0-0.76 0.23-1.57 0.55-1.96 0.26-0.31 0.62-0.48 1.02-0.48v0.18c-0.6 0-0.91 0.75-0.91 2.2 0 1.48 0.32 2.25 0.92 2.25 0.58 0 0.9-0.78 0.9-2.24s-0.31-2.21-0.91-2.21v-0.18c0.36 0 0.66 0.12 0.91 0.37 0.4 0.38 0.67 1.19 0.67 2.03 0 1.43-0.64 2.41-1.55 2.41z"/><path id="path4693" d="m167.07 705.36 0.06 0.04 0.07 0.05 0.06 0.04 0.06 0.04 0.06 0.04 0.06 0.04 0.05 0.04 0.05 0.03 0.06 0.04 0.04 0.04 0.05 0.03 0.05 0.04 0.04 0.03 0.04 0.04 0.09 0.06 0.07 0.07 0.08 0.07 0.07 0.07 0.07 0.07 0.07 0.08 0.06 0.07 0.07 0.08 0.07 0.08c0.71 0.87 1.06 1.87 1.06 3.03 0 1.28-0.37 2.25-1.25 3.26-0.41 0.48-0.67 0.7-1.18 1.02l-0.12-0.16c0.79-0.63 1.06-0.98 1.34-1.73 0.24-0.66 0.35-1.42 0.35-2.42 0-1.03-0.13-1.86-0.4-2.47-0.28-0.62-0.58-0.98-1.29-1.56z"/></g>
   <g id="g4739" xml:space="preserve" ns0:pdfconverter="pstoedit" transform="matrix(1.75 0 0 -1.75 73.918 1522.1)" ns0:text="$\n\\rm\n\\nabla f(u_0)\n$" ns0:version="0.7.2" ns0:inkscapeversion="0.91" ns0:preamble="/usr/share/inkscape/extensions/default_packages.tex" ns0:scale="1.4" ns0:texconverter="pdflatex"><polygon id="polygon4741" points="149.02 713.86 151.96 707.12 152.16 707.12 154.98 713.86 154.15 712.99 152.32 708.57 150.47 712.99 154.15 712.99 154.98 713.86"/><path id="path4743" d="m158.4 711.61h-1.22v1.15c0 0.58 0.19 0.89 0.57 0.89 0.21 0 0.35-0.1 0.52-0.39 0.16-0.26 0.28-0.36 0.45-0.36 0.23 0 0.42 0.18 0.42 0.41 0 0.36-0.44 0.62-1.04 0.62-0.61 0-1.14-0.27-1.4-0.73-0.26-0.44-0.34-0.8-0.35-1.59h-0.82v-0.32h0.82v-3.13c0-0.73-0.11-0.85-0.83-0.89v-0.15h2.6v0.15c-0.82 0.03-0.93 0.14-0.93 0.89v3.13h1.21z"/><path id="path4745" d="m161.59 713.86-0.07-0.05-0.07-0.04-0.06-0.04-0.06-0.04-0.06-0.04-0.06-0.04-0.05-0.04-0.05-0.04-0.05-0.03-0.05-0.04-0.05-0.04-0.05-0.03-0.04-0.04-0.04-0.03-0.08-0.07-0.08-0.07-0.08-0.06-0.07-0.07-0.07-0.08-0.06-0.07-0.07-0.07-0.07-0.08-0.07-0.09c-0.71-0.87-1.05-1.86-1.05-3.03 0-1.26 0.36-2.24 1.24-3.25 0.41-0.48 0.67-0.7 1.19-1.02l0.12 0.16c-0.8 0.63-1.08 0.97-1.35 1.72-0.24 0.67-0.35 1.43-0.35 2.42 0 1.05 0.13 1.87 0.4 2.48 0.28 0.62 0.58 0.98 1.3 1.56z"/><path id="path4747" d="m166.74 707.62h-0.06c-0.45 0-0.56 0.11-0.56 0.57v3.42h-1.58v-0.17c0.62-0.03 0.74-0.13 0.74-0.63v-2.34c0-0.28-0.05-0.42-0.19-0.53-0.27-0.22-0.58-0.34-0.88-0.34-0.38 0-0.7 0.34-0.7 0.76v3.25h-1.46v-0.14c0.48-0.03 0.62-0.18 0.62-0.64v-2.51c0-0.79 0.48-1.3 1.21-1.3 0.36 0 0.75 0.16 1.02 0.43l0.43 0.43v-0.83l0.04-0.02c0.5 0.2 0.86 0.31 1.37 0.45z"/><path id="path4749" d="m168.71 710.34h-0.03-0.04-0.03-0.04-0.03l-0.03-0.01h-0.04l-0.03-0.01h-0.03l-0.03-0.01-0.03-0.01-0.03-0.01h-0.03l-0.03-0.01-0.03-0.01-0.03-0.02-0.03-0.01-0.03-0.01-0.03-0.01-0.02-0.02-0.03-0.01-0.03-0.02-0.02-0.01-0.03-0.02-0.03-0.02-0.02-0.01-0.03-0.02-0.02-0.02-0.03-0.02-0.02-0.02-0.03-0.03-0.02-0.02c-0.4-0.39-0.67-1.19-0.67-2.01 0-0.76 0.23-1.57 0.56-1.96 0.26-0.31 0.61-0.48 1.02-0.48v0.18c-0.6 0-0.91 0.75-0.91 2.2 0 1.48 0.31 2.25 0.91 2.25 0.59 0 0.9-0.78 0.9-2.24s-0.3-2.21-0.9-2.21v-0.18c0.35 0 0.65 0.12 0.9 0.37 0.41 0.38 0.67 1.19 0.67 2.03 0 1.43-0.63 2.41-1.55 2.41z"/><path id="path4751" d="m171.31 705.36 0.07 0.04 0.06 0.05 0.07 0.04 0.06 0.04 0.06 0.04 0.05 0.04 0.06 0.04 0.05 0.03 0.05 0.04 0.05 0.04 0.05 0.03 0.04 0.04 0.05 0.03 0.04 0.04 0.08 0.06 0.08 0.07 0.07 0.07 0.08 0.07 0.06 0.07 0.07 0.08 0.07 0.07 0.07 0.08 0.07 0.08c0.7 0.87 1.05 1.87 1.05 3.03 0 1.28-0.37 2.25-1.24 3.26-0.41 0.48-0.67 0.7-1.19 1.02l-0.12-0.16c0.8-0.63 1.07-0.98 1.35-1.73 0.23-0.66 0.34-1.42 0.34-2.42 0-1.03-0.12-1.86-0.39-2.47-0.28-0.62-0.58-0.98-1.3-1.56z"/></g>
   <g id="g4811" xml:space="preserve" ns0:pdfconverter="pstoedit" transform="matrix(1.75 0 0 -1.75 90.971 1585.2)" ns0:text="$\n\\rm\nu_0 = h(t_0)\n$" ns0:version="0.7.2" ns0:inkscapeversion="0.91" ns0:preamble="/usr/share/inkscape/extensions/default_packages.tex" ns0:scale="1.4" ns0:texconverter="pdflatex"><path id="path4813" d="m153.48 707.62h-0.05c-0.46 0-0.57 0.11-0.57 0.57v3.42h-1.57v-0.17c0.62-0.03 0.74-0.13 0.74-0.63v-2.34c0-0.28-0.05-0.42-0.19-0.53-0.27-0.22-0.58-0.34-0.88-0.34-0.39 0-0.71 0.34-0.71 0.76v3.25h-1.45v-0.14c0.48-0.03 0.62-0.18 0.62-0.64v-2.51c0-0.79 0.48-1.3 1.2-1.3 0.37 0 0.76 0.16 1.03 0.43l0.43 0.43v-0.83l0.04-0.02c0.5 0.2 0.85 0.31 1.36 0.45z"/><path id="path4815" d="m155.47 710.34h-0.04-0.03-0.04-0.03-0.03l-0.04-0.01h-0.03l-0.03-0.01h-0.03l-0.04-0.01-0.03-0.01-0.03-0.01h-0.03l-0.03-0.01-0.03-0.01-0.03-0.02-0.02-0.01-0.03-0.01-0.03-0.01-0.03-0.02-0.03-0.01-0.02-0.02-0.03-0.01-0.03-0.02-0.02-0.02-0.03-0.01-0.02-0.02-0.03-0.02-0.02-0.02-0.03-0.02-0.02-0.03-0.03-0.02c-0.4-0.39-0.66-1.19-0.66-2.01 0-0.76 0.23-1.57 0.55-1.96 0.26-0.31 0.62-0.48 1.02-0.48v0.18c-0.6 0-0.91 0.75-0.91 2.2 0 1.48 0.32 2.25 0.92 2.25 0.58 0 0.9-0.78 0.9-2.24s-0.31-2.21-0.91-2.21v-0.18c0.36 0 0.66 0.12 0.91 0.37 0.4 0.38 0.67 1.19 0.67 2.03 0 1.43-0.64 2.41-1.55 2.41z"/><polygon id="polygon4817" points="166.17 710.97 161.07 710.97 161.07 710.41 166.17 710.41"/><polygon id="polygon4819" points="166.17 708.95 161.07 708.95 161.07 708.39 166.17 708.39"/><path id="path4821" d="m171.12 710.54 0.04 0.04 0.03 0.04 0.04 0.04 0.04 0.04 0.04 0.03 0.03 0.04 0.04 0.03 0.03 0.03 0.04 0.03 0.03 0.03 0.03 0.02 0.04 0.03 0.03 0.02 0.03 0.03 0.04 0.02 0.03 0.02 0.03 0.01 0.04 0.02 0.03 0.02 0.03 0.01 0.03 0.01 0.04 0.01 0.03 0.01 0.03 0.01 0.04 0.01 0.03 0.01h0.04l0.03 0.01h0.04 0.03l0.04 0.01h0.03c0.5 0 0.75-0.36 0.75-1.06v-1.97c0-0.68-0.1-0.81-0.68-0.87v-0.15h2.11v0.15c-0.53 0.1-0.59 0.18-0.59 0.87v1.98c0 1.05-0.42 1.59-1.23 1.59-0.59 0-1.01-0.24-1.46-0.84v3.03l-0.05 0.03c-0.34-0.12-0.59-0.2-1.15-0.36l-0.27-0.08v-0.16c0.04 0.01 0.07 0.01 0.12 0.01 0.43 0 0.51-0.08 0.51-0.51v-4.69c0-0.7-0.06-0.79-0.64-0.87v-0.15h2.15v0.15c-0.57 0.06-0.67 0.18-0.67 0.87z"/><path id="path4823" d="m177.47 713.86-0.07-0.05-0.06-0.04-0.07-0.04-0.06-0.04-0.05-0.04-0.06-0.04-0.06-0.04-0.05-0.04-0.05-0.03-0.05-0.04-0.04-0.04-0.05-0.03-0.04-0.04-0.05-0.03-0.08-0.07-0.08-0.07-0.07-0.06-0.07-0.07-0.07-0.08-0.07-0.07-0.07-0.07-0.06-0.08-0.07-0.09c-0.71-0.87-1.06-1.86-1.06-3.03 0-1.26 0.37-2.24 1.25-3.25 0.4-0.48 0.66-0.7 1.18-1.02l0.12 0.16c-0.8 0.63-1.07 0.97-1.34 1.72-0.24 0.67-0.35 1.43-0.35 2.42 0 1.05 0.13 1.87 0.4 2.48 0.27 0.62 0.57 0.98 1.29 1.56z"/><path id="path4825" d="m180.39 711.61h-1.01v1.15c0 0.1-0.01 0.13-0.07 0.13-0.07-0.09-0.13-0.18-0.2-0.28-0.38-0.55-0.8-1.02-0.96-1.06-0.11-0.07-0.17-0.14-0.17-0.19 0-0.03 0.01-0.05 0.04-0.07h0.52v-3c0-0.84 0.3-1.27 0.89-1.27 0.49 0 0.87 0.24 1.2 0.76l-0.13 0.11c-0.21-0.25-0.38-0.35-0.6-0.35-0.37 0-0.52 0.27-0.52 0.9v2.85h1.01z"/><path id="path4827" d="m182.39 710.34h-0.04-0.03-0.04-0.03-0.04l-0.03-0.01h-0.03l-0.04-0.01h-0.03l-0.03-0.01-0.03-0.01-0.03-0.01h-0.03l-0.03-0.01-0.03-0.01-0.03-0.02-0.03-0.01-0.02-0.01-0.03-0.01-0.03-0.02-0.03-0.01-0.02-0.02-0.03-0.01-0.03-0.02-0.02-0.02-0.03-0.01-0.02-0.02-0.03-0.02-0.02-0.02-0.03-0.02-0.02-0.03-0.03-0.02c-0.4-0.39-0.67-1.19-0.67-2.01 0-0.76 0.23-1.57 0.56-1.96 0.26-0.31 0.61-0.48 1.02-0.48v0.18c-0.6 0-0.91 0.75-0.91 2.2 0 1.48 0.32 2.25 0.92 2.25 0.58 0 0.89-0.78 0.89-2.24s-0.3-2.21-0.9-2.21v-0.18c0.35 0 0.65 0.12 0.9 0.37 0.41 0.38 0.67 1.19 0.67 2.03 0 1.43-0.63 2.41-1.54 2.41z"/><path id="path4829" d="m184.98 705.36 0.07 0.04 0.07 0.05 0.06 0.04 0.06 0.04 0.06 0.04 0.06 0.04 0.05 0.04 0.05 0.03 0.05 0.04 0.05 0.04 0.05 0.03 0.05 0.04 0.04 0.03 0.04 0.04 0.08 0.06 0.08 0.07 0.08 0.07 0.07 0.07 0.07 0.07 0.06 0.08 0.07 0.07 0.07 0.08 0.07 0.08c0.71 0.87 1.05 1.87 1.05 3.03 0 1.28-0.36 2.25-1.24 3.26-0.41 0.48-0.67 0.7-1.19 1.02l-0.12-0.16c0.8-0.63 1.07-0.98 1.35-1.73 0.24-0.66 0.35-1.42 0.35-2.42 0-1.03-0.13-1.86-0.4-2.47-0.28-0.62-0.58-0.98-1.3-1.56z"/></g>
   <g id="g4913" xml:space="preserve" ns0:pdfconverter="pstoedit" transform="matrix(1.75 0 0 -1.75 168.55 1565.1)" ns0:text="$\n\\rm\nh(t)\n$" ns0:version="0.7.2" ns0:inkscapeversion="0.91" ns0:preamble="/usr/share/inkscape/extensions/default_packages.tex" ns0:scale="1.4" ns0:texconverter="pdflatex"><path id="path4915" d="m150.27 710.54 0.04 0.04 0.04 0.04 0.04 0.04 0.04 0.04 0.03 0.03 0.04 0.04 0.03 0.03 0.04 0.03 0.03 0.03 0.04 0.03 0.03 0.02 0.04 0.03 0.03 0.02 0.03 0.03 0.04 0.02 0.03 0.02 0.03 0.01 0.03 0.02 0.04 0.02 0.03 0.01 0.03 0.01 0.04 0.01 0.03 0.01 0.03 0.01 0.04 0.01 0.03 0.01h0.03l0.04 0.01h0.03 0.04l0.03 0.01h0.04c0.5 0 0.75-0.36 0.75-1.06v-1.97c0-0.68-0.1-0.81-0.68-0.87v-0.15h2.11v0.15c-0.54 0.1-0.6 0.18-0.6 0.87v1.98c0 1.05-0.41 1.59-1.22 1.59-0.59 0-1.01-0.24-1.47-0.84v3.03l-0.05 0.03c-0.33-0.12-0.58-0.2-1.14-0.36l-0.27-0.08v-0.16c0.04 0.01 0.07 0.01 0.12 0.01 0.43 0 0.51-0.08 0.51-0.51v-4.69c0-0.7-0.06-0.79-0.64-0.87v-0.15h2.15v0.15c-0.58 0.06-0.68 0.18-0.68 0.87z"/><path id="path4917" d="m156.63 713.86-0.07-0.05-0.06-0.04-0.07-0.04-0.06-0.04-0.06-0.04-0.05-0.04-0.06-0.04-0.05-0.04-0.05-0.03-0.05-0.04-0.05-0.04-0.04-0.03-0.05-0.04-0.04-0.03-0.08-0.07-0.08-0.07-0.07-0.06-0.08-0.07-0.06-0.08-0.07-0.07-0.07-0.07-0.07-0.08-0.07-0.09c-0.7-0.87-1.05-1.86-1.05-3.03 0-1.26 0.37-2.24 1.24-3.25 0.41-0.48 0.67-0.7 1.19-1.02l0.12 0.16c-0.8 0.63-1.08 0.97-1.35 1.72-0.24 0.67-0.35 1.43-0.35 2.42 0 1.05 0.13 1.87 0.4 2.48 0.28 0.62 0.58 0.98 1.3 1.56z"/><path id="path4919" d="m159.55 711.61h-1v1.15c0 0.1-0.01 0.13-0.07 0.13-0.07-0.09-0.13-0.18-0.2-0.28-0.38-0.55-0.81-1.02-0.97-1.06-0.11-0.07-0.17-0.14-0.17-0.19 0-0.03 0.01-0.05 0.04-0.07h0.53v-3c0-0.84 0.3-1.27 0.89-1.27 0.49 0 0.86 0.24 1.19 0.76l-0.13 0.11c-0.21-0.25-0.38-0.35-0.59-0.35-0.37 0-0.52 0.27-0.52 0.9v2.85h1z"/><path id="path4921" d="m160.16 705.36 0.07 0.04 0.06 0.05 0.07 0.04 0.06 0.04 0.05 0.04 0.06 0.04 0.06 0.04 0.05 0.03 0.05 0.04 0.05 0.04 0.04 0.03 0.05 0.04 0.04 0.03 0.05 0.04 0.08 0.06 0.08 0.07 0.07 0.07 0.07 0.07 0.07 0.07 0.07 0.08 0.07 0.07 0.06 0.08 0.07 0.08c0.71 0.87 1.06 1.87 1.06 3.03 0 1.28-0.37 2.25-1.25 3.26-0.4 0.48-0.66 0.7-1.18 1.02l-0.12-0.16c0.8-0.63 1.06-0.98 1.34-1.73 0.24-0.66 0.35-1.42 0.35-2.42 0-1.03-0.13-1.86-0.4-2.47-0.27-0.62-0.57-0.98-1.29-1.56z"/></g>
  </g>
 </g>
</svg>
