<?xml version="1.0" encoding="UTF-8" standalone="no"?>
<svg id="svg11281" xmlns:rdf="http://www.w3.org/1999/02/22-rdf-syntax-ns#" xmlns="http://www.w3.org/2000/svg" height="190" width="300" version="1.1" xmlns:cc="http://creativecommons.org/ns#" xmlns:xlink="http://www.w3.org/1999/xlink" viewBox="0 0 300 190" xmlns:dc="http://purl.org/dc/elements/1.1/">
 <style type="text/css">
	 @import url('../estilo.css');
 </style>
 <defs>
  <pattern id="pattern6821-569-825" xlink:href="#Polkadots-med-16-702" patternTransform="scale(2.4516)"/>
  <pattern id="Polkadots-med-16-702" height="10" width="10" patternUnits="userSpaceOnUse" patternTransform="translate(0) scale(10)">
   <circle id="circle7167" cy=".81" cx="2.567" r=".15" fill="#666"/>
   <circle id="circle7169" cy="2.33" cx="3.048" r=".15" fill="#666"/>
   <circle id="circle7171" cy="2.415" cx="4.418" r=".15" fill="#666"/>
   <circle id="circle7173" cy="3.029" cx="1.844" r=".15" fill="#666"/>
   <circle id="circle7175" cy="1.363" cx="6.08" r=".15" fill="#666"/>
   <circle id="circle7177" cy="4.413" cx="5.819" r=".15" fill="#666"/>
   <circle id="circle7179" cy="4.048" cx="4.305" r=".15" fill="#666"/>
   <circle id="circle7181" cy="3.045" cx="5.541" r=".15" fill="#666"/>
   <circle id="circle7183" cy="5.527" cx="4.785" r=".15" fill="#666"/>
   <circle id="circle7185" cy="5.184" cx="2.667" r=".15" fill="#666"/>
   <circle id="circle7187" cy="1.448" cx="7.965" r=".15" fill="#666"/>
   <circle id="circle7189" cy="5.049" cx="7.047" r=".15" fill="#666"/>
   <circle id="circle7191" cy=".895" cx="4.34" r=".15" fill="#666"/>
   <circle id="circle7193" cy=".34" cx="7.125" r=".15" fill="#666"/>
   <circle id="circle7195" cy="1.049" cx="9.553" r=".15" fill="#666"/>
   <circle id="circle7197" cy="2.689" cx="7.006" r=".15" fill="#666"/>
   <circle id="circle7199" cy="2.689" cx="8.909" r=".15" fill="#666"/>
   <circle id="circle7201" cy="4.407" cx="9.315" r=".15" fill="#666"/>
   <circle id="circle7203" cy="3.87" cx="7.82" r=".15" fill="#666"/>
   <circle id="circle7205" cy="5.948" cx="8.27" r=".15" fill="#666"/>
   <circle id="circle7207" cy="7.428" cx="7.973" r=".15" fill="#666"/>
   <circle id="circle7209" cy="8.072" cx="9.342" r=".15" fill="#666"/>
   <circle id="circle7211" cy="9.315" cx="8.206" r=".15" fill="#666"/>
   <circle id="circle7213" cy="9.475" cx="9.682" r=".15" fill="#666"/>
   <circle id="circle7215" cy="6.186" cx="9.688" r=".15" fill="#666"/>
   <circle id="circle7217" cy="6.296" cx="3.379" r=".15" fill="#666"/>
   <circle id="circle7219" cy="8.204" cx="2.871" r=".15" fill="#666"/>
   <circle id="circle7221" cy="8.719" cx="4.59" r=".15" fill="#666"/>
   <circle id="circle7223" cy="9.671" cx="3.181" r=".15" fill="#666"/>
   <circle id="circle7225" cy="7.315" cx="5.734" r=".15" fill="#666"/>
   <circle id="circle7227" cy="6.513" cx="6.707" r=".15" fill="#666"/>
   <circle id="circle7229" cy="9.67" cx="5.73" r=".15" fill="#666"/>
   <circle id="circle7231" cy="8.373" cx="6.535" r=".15" fill="#666"/>
   <circle id="circle7233" cy="7.154" cx="4.37" r=".15" fill="#666"/>
   <circle id="circle7235" cy="7.25" cx=".622" r=".15" fill="#666"/>
   <circle id="circle7237" cy="5.679" cx=".831" r=".15" fill="#666"/>
   <circle id="circle7239" cy="8.519" cx="1.257" r=".15" fill="#666"/>
   <circle id="circle7241" cy="6.877" cx="1.989" r=".15" fill="#666"/>
   <circle id="circle7243" cy="3.181" cx=".374" r=".15" fill="#666"/>
   <circle id="circle7245" cy="1.664" cx="1.166" r=".15" fill="#666"/>
   <circle id="circle7247" cy=".093" cx="1.151" r=".15" fill="#666"/>
   <circle id="circle7249" cy="10.093" cx="1.151" r=".15" fill="#666"/>
   <circle id="circle7251" cy="4.451" cx="1.302" r=".15" fill="#666"/>
   <circle id="circle7253" cy="3.763" cx="3.047" r=".15" fill="#666"/>
  </pattern>
  <pattern id="pattern6821-522-178" xlink:href="#Polkadots-med-944-217" patternTransform="scale(2.4516)"/>
  <pattern id="Polkadots-med-944-217" height="10" width="10" patternUnits="userSpaceOnUse" patternTransform="translate(0) scale(10)">
   <circle id="circle7347" cy=".81" cx="2.567" r=".15" fill="#666"/>
   <circle id="circle7349" cy="2.33" cx="3.048" r=".15" fill="#666"/>
   <circle id="circle7351" cy="2.415" cx="4.418" r=".15" fill="#666"/>
   <circle id="circle7353" cy="3.029" cx="1.844" r=".15" fill="#666"/>
   <circle id="circle7355" cy="1.363" cx="6.08" r=".15" fill="#666"/>
   <circle id="circle7357" cy="4.413" cx="5.819" r=".15" fill="#666"/>
   <circle id="circle7359" cy="4.048" cx="4.305" r=".15" fill="#666"/>
   <circle id="circle7361" cy="3.045" cx="5.541" r=".15" fill="#666"/>
   <circle id="circle7363" cy="5.527" cx="4.785" r=".15" fill="#666"/>
   <circle id="circle7365" cy="5.184" cx="2.667" r=".15" fill="#666"/>
   <circle id="circle7367" cy="1.448" cx="7.965" r=".15" fill="#666"/>
   <circle id="circle7369" cy="5.049" cx="7.047" r=".15" fill="#666"/>
   <circle id="circle7371" cy=".895" cx="4.34" r=".15" fill="#666"/>
   <circle id="circle7373" cy=".34" cx="7.125" r=".15" fill="#666"/>
   <circle id="circle7375" cy="1.049" cx="9.553" r=".15" fill="#666"/>
   <circle id="circle7377" cy="2.689" cx="7.006" r=".15" fill="#666"/>
   <circle id="circle7379" cy="2.689" cx="8.909" r=".15" fill="#666"/>
   <circle id="circle7381" cy="4.407" cx="9.315" r=".15" fill="#666"/>
   <circle id="circle7383" cy="3.87" cx="7.82" r=".15" fill="#666"/>
   <circle id="circle7385" cy="5.948" cx="8.27" r=".15" fill="#666"/>
   <circle id="circle7387" cy="7.428" cx="7.973" r=".15" fill="#666"/>
   <circle id="circle7389" cy="8.072" cx="9.342" r=".15" fill="#666"/>
   <circle id="circle7391" cy="9.315" cx="8.206" r=".15" fill="#666"/>
   <circle id="circle7393" cy="9.475" cx="9.682" r=".15" fill="#666"/>
   <circle id="circle7395" cy="6.186" cx="9.688" r=".15" fill="#666"/>
   <circle id="circle7397" cy="6.296" cx="3.379" r=".15" fill="#666"/>
   <circle id="circle7399" cy="8.204" cx="2.871" r=".15" fill="#666"/>
   <circle id="circle7401" cy="8.719" cx="4.59" r=".15" fill="#666"/>
   <circle id="circle7403" cy="9.671" cx="3.181" r=".15" fill="#666"/>
   <circle id="circle7405" cy="7.315" cx="5.734" r=".15" fill="#666"/>
   <circle id="circle7407" cy="6.513" cx="6.707" r=".15" fill="#666"/>
   <circle id="circle7409" cy="9.67" cx="5.73" r=".15" fill="#666"/>
   <circle id="circle7411" cy="8.373" cx="6.535" r=".15" fill="#666"/>
   <circle id="circle7413" cy="7.154" cx="4.37" r=".15" fill="#666"/>
   <circle id="circle7415" cy="7.25" cx=".622" r=".15" fill="#666"/>
   <circle id="circle7417" cy="5.679" cx=".831" r=".15" fill="#666"/>
   <circle id="circle7419" cy="8.519" cx="1.257" r=".15" fill="#666"/>
   <circle id="circle7421" cy="6.877" cx="1.989" r=".15" fill="#666"/>
   <circle id="circle7423" cy="3.181" cx=".374" r=".15" fill="#666"/>
   <circle id="circle7425" cy="1.664" cx="1.166" r=".15" fill="#666"/>
   <circle id="circle7427" cy=".093" cx="1.151" r=".15" fill="#666"/>
   <circle id="circle7429" cy="10.093" cx="1.151" r=".15" fill="#666"/>
   <circle id="circle7431" cy="4.451" cx="1.302" r=".15" fill="#666"/>
   <circle id="circle7433" cy="3.763" cx="3.047" r=".15" fill="#666"/>
  </pattern>
  <pattern id="pattern6821-665-648" xlink:href="#Polkadots-med-621-950" patternTransform="scale(2.4516)"/>
  <pattern id="Polkadots-med-621-950" height="10" width="10" patternUnits="userSpaceOnUse" patternTransform="translate(0) scale(10)">
   <circle id="circle7437" cy=".81" cx="2.567" r=".15" fill="#666"/>
   <circle id="circle7439" cy="2.33" cx="3.048" r=".15" fill="#666"/>
   <circle id="circle7441" cy="2.415" cx="4.418" r=".15" fill="#666"/>
   <circle id="circle7443" cy="3.029" cx="1.844" r=".15" fill="#666"/>
   <circle id="circle7445" cy="1.363" cx="6.08" r=".15" fill="#666"/>
   <circle id="circle7447" cy="4.413" cx="5.819" r=".15" fill="#666"/>
   <circle id="circle7449" cy="4.048" cx="4.305" r=".15" fill="#666"/>
   <circle id="circle7451" cy="3.045" cx="5.541" r=".15" fill="#666"/>
   <circle id="circle7453" cy="5.527" cx="4.785" r=".15" fill="#666"/>
   <circle id="circle7455" cy="5.184" cx="2.667" r=".15" fill="#666"/>
   <circle id="circle7457" cy="1.448" cx="7.965" r=".15" fill="#666"/>
   <circle id="circle7459" cy="5.049" cx="7.047" r=".15" fill="#666"/>
   <circle id="circle7461" cy=".895" cx="4.34" r=".15" fill="#666"/>
   <circle id="circle7463" cy=".34" cx="7.125" r=".15" fill="#666"/>
   <circle id="circle7465" cy="1.049" cx="9.553" r=".15" fill="#666"/>
   <circle id="circle7467" cy="2.689" cx="7.006" r=".15" fill="#666"/>
   <circle id="circle7469" cy="2.689" cx="8.909" r=".15" fill="#666"/>
   <circle id="circle7471" cy="4.407" cx="9.315" r=".15" fill="#666"/>
   <circle id="circle7473" cy="3.87" cx="7.82" r=".15" fill="#666"/>
   <circle id="circle7475" cy="5.948" cx="8.27" r=".15" fill="#666"/>
   <circle id="circle7477" cy="7.428" cx="7.973" r=".15" fill="#666"/>
   <circle id="circle7479" cy="8.072" cx="9.342" r=".15" fill="#666"/>
   <circle id="circle7481" cy="9.315" cx="8.206" r=".15" fill="#666"/>
   <circle id="circle7483" cy="9.475" cx="9.682" r=".15" fill="#666"/>
   <circle id="circle7485" cy="6.186" cx="9.688" r=".15" fill="#666"/>
   <circle id="circle7487" cy="6.296" cx="3.379" r=".15" fill="#666"/>
   <circle id="circle7489" cy="8.204" cx="2.871" r=".15" fill="#666"/>
   <circle id="circle7491" cy="8.719" cx="4.59" r=".15" fill="#666"/>
   <circle id="circle7493" cy="9.671" cx="3.181" r=".15" fill="#666"/>
   <circle id="circle7495" cy="7.315" cx="5.734" r=".15" fill="#666"/>
   <circle id="circle7497" cy="6.513" cx="6.707" r=".15" fill="#666"/>
   <circle id="circle7499" cy="9.67" cx="5.73" r=".15" fill="#666"/>
   <circle id="circle7501" cy="8.373" cx="6.535" r=".15" fill="#666"/>
   <circle id="circle7503" cy="7.154" cx="4.37" r=".15" fill="#666"/>
   <circle id="circle7505" cy="7.25" cx=".622" r=".15" fill="#666"/>
   <circle id="circle7507" cy="5.679" cx=".831" r=".15" fill="#666"/>
   <circle id="circle7509" cy="8.519" cx="1.257" r=".15" fill="#666"/>
   <circle id="circle7511" cy="6.877" cx="1.989" r=".15" fill="#666"/>
   <circle id="circle7513" cy="3.181" cx=".374" r=".15" fill="#666"/>
   <circle id="circle7515" cy="1.664" cx="1.166" r=".15" fill="#666"/>
   <circle id="circle7517" cy=".093" cx="1.151" r=".15" fill="#666"/>
   <circle id="circle7519" cy="10.093" cx="1.151" r=".15" fill="#666"/>
   <circle id="circle7521" cy="4.451" cx="1.302" r=".15" fill="#666"/>
   <circle id="circle7523" cy="3.763" cx="3.047" r=".15" fill="#666"/>
  </pattern>
  <pattern id="pattern6821-522-580" xlink:href="#Polkadots-med-944-857" patternTransform="scale(2.4516)"/>
  <pattern id="Polkadots-med-944-857" height="10" width="10" patternUnits="userSpaceOnUse" patternTransform="translate(0) scale(10)">
   <circle id="circle7527" cy=".81" cx="2.567" r=".15" fill="#666"/>
   <circle id="circle7529" cy="2.33" cx="3.048" r=".15" fill="#666"/>
   <circle id="circle7531" cy="2.415" cx="4.418" r=".15" fill="#666"/>
   <circle id="circle7533" cy="3.029" cx="1.844" r=".15" fill="#666"/>
   <circle id="circle7535" cy="1.363" cx="6.08" r=".15" fill="#666"/>
   <circle id="circle7537" cy="4.413" cx="5.819" r=".15" fill="#666"/>
   <circle id="circle7539" cy="4.048" cx="4.305" r=".15" fill="#666"/>
   <circle id="circle7541" cy="3.045" cx="5.541" r=".15" fill="#666"/>
   <circle id="circle7543" cy="5.527" cx="4.785" r=".15" fill="#666"/>
   <circle id="circle7545" cy="5.184" cx="2.667" r=".15" fill="#666"/>
   <circle id="circle7547" cy="1.448" cx="7.965" r=".15" fill="#666"/>
   <circle id="circle7549" cy="5.049" cx="7.047" r=".15" fill="#666"/>
   <circle id="circle7551" cy=".895" cx="4.34" r=".15" fill="#666"/>
   <circle id="circle7553" cy=".34" cx="7.125" r=".15" fill="#666"/>
   <circle id="circle7555" cy="1.049" cx="9.553" r=".15" fill="#666"/>
   <circle id="circle7557" cy="2.689" cx="7.006" r=".15" fill="#666"/>
   <circle id="circle7559" cy="2.689" cx="8.909" r=".15" fill="#666"/>
   <circle id="circle7561" cy="4.407" cx="9.315" r=".15" fill="#666"/>
   <circle id="circle7563" cy="3.87" cx="7.82" r=".15" fill="#666"/>
   <circle id="circle7565" cy="5.948" cx="8.27" r=".15" fill="#666"/>
   <circle id="circle7567" cy="7.428" cx="7.973" r=".15" fill="#666"/>
   <circle id="circle7569" cy="8.072" cx="9.342" r=".15" fill="#666"/>
   <circle id="circle7571" cy="9.315" cx="8.206" r=".15" fill="#666"/>
   <circle id="circle7573" cy="9.475" cx="9.682" r=".15" fill="#666"/>
   <circle id="circle7575" cy="6.186" cx="9.688" r=".15" fill="#666"/>
   <circle id="circle7577" cy="6.296" cx="3.379" r=".15" fill="#666"/>
   <circle id="circle7579" cy="8.204" cx="2.871" r=".15" fill="#666"/>
   <circle id="circle7581" cy="8.719" cx="4.59" r=".15" fill="#666"/>
   <circle id="circle7583" cy="9.671" cx="3.181" r=".15" fill="#666"/>
   <circle id="circle7585" cy="7.315" cx="5.734" r=".15" fill="#666"/>
   <circle id="circle7587" cy="6.513" cx="6.707" r=".15" fill="#666"/>
   <circle id="circle7589" cy="9.67" cx="5.73" r=".15" fill="#666"/>
   <circle id="circle7591" cy="8.373" cx="6.535" r=".15" fill="#666"/>
   <circle id="circle7593" cy="7.154" cx="4.37" r=".15" fill="#666"/>
   <circle id="circle7595" cy="7.25" cx=".622" r=".15" fill="#666"/>
   <circle id="circle7597" cy="5.679" cx=".831" r=".15" fill="#666"/>
   <circle id="circle7599" cy="8.519" cx="1.257" r=".15" fill="#666"/>
   <circle id="circle7601" cy="6.877" cx="1.989" r=".15" fill="#666"/>
   <circle id="circle7603" cy="3.181" cx=".374" r=".15" fill="#666"/>
   <circle id="circle7605" cy="1.664" cx="1.166" r=".15" fill="#666"/>
   <circle id="circle7607" cy=".093" cx="1.151" r=".15" fill="#666"/>
   <circle id="circle7609" cy="10.093" cx="1.151" r=".15" fill="#666"/>
   <circle id="circle7611" cy="4.451" cx="1.302" r=".15" fill="#666"/>
   <circle id="circle7613" cy="3.763" cx="3.047" r=".15" fill="#666"/>
  </pattern>
  <circle id="gpPt5" stroke-width=".222" stroke="currentColor" cy="0" cx="0" r="1"/>
  <use id="gpPt6" xlink:href="#gpPt5" fill="currentColor"/>
 </defs>
 <metadata id="metadata11510">
  <rdf:RDF>
   <cc:Work rdf:about="">
    <dc:format>image/svg+xml</dc:format>
    <dc:type rdf:resource="http://purl.org/dc/dcmitype/StillImage"/>
    <dc:title>Gnuplot</dc:title>
   </cc:Work>
  </rdf:RDF>
 </metadata>
 <title id="title11283">Gnuplot</title>
 <desc id="desc11285">Produced by GNUPLOT 5.0 patchlevel 3</desc>
 <g fill="none">
  <rect id="rect11288" height="190" width="300" y="0" x="0"/>
  <g stroke="none">
   <g id="g11322" style="color:#ffffff" stroke-width=".5">
    <path id="path11324" d="m181.7 124.3-0.1-1.7-0.1-1.8-0.3-1.8-0.3-1.7-0.4-1.7-0.5-1.7-0.6-1.7-0.7-1.6-0.7-1.6-0.9-1.6-0.9-1.5-1-1.5-1.1-1.4-1.2-1.3-1.2-1.3" stroke="#fff"/>
    <path id="path11326" d="m181.7 124.3-0.1-1.7-0.1-1.8-0.3-1.8-0.3-1.7-0.4-1.7-0.5-1.7-0.6-1.7-0.7-1.6-0.7-1.6-0.9-1.6-0.9-1.5-1-1.5-1.1-1.4-1.2-1.3-1.2-1.3-23.9 23.9h33.9" stroke="#009e73"/>
   </g>
   <g id="g11334" style="color:#000000" stroke-width=".5">
    <path id="path11336" d="m20.7 124.3h254.3" stroke="#000"/>
   </g>
   <g id="g11340" style="color:#000000">
    <path id="path11342" d="m147.8 124.3 60-59.9" stroke="#000"/>
   </g>
   <g id="g11344" style="color:#000000">
    <g id="g11346" style="text-anchor:middle" font-size="16px" transform="translate(272.4,136.9)" font-family="&apos;Stix Two Text&apos;" fill="#000">
     <text id="text11348">
      <tspan id="tspan11350" font-weight="bold" font-family="&apos;Stix Two Text&apos;" font-style="italic">x</tspan>
     </text>
    </g>
   </g>
  </g>
 </g>
 <g id="gnuplot_plot_1a">
  <title id="title11355"/>
  <g id="g11359" style="color:#000000" stroke="currentColor" stroke-width="1.5" fill="none">
   <path id="path11361" d="m214.7 124.3 3.7-4.5 3.6-4.9 3.3-5.5 2.9-5.9 2.5-6.4 1.8-6.7 1.1-6.9 0.3-7-0.8-6.9-1.8-6.7-2.9-6.1-3.9-5.5-4.9-4.7-5.6-3.6-6.3-2.6-6.8-1.6-7-0.5-7 0.5-6.8 1.3-6.7 2-6.2 2.6-5.8 3-5.4 3.4-4.8 3.6-4.4 3.8-3.9 3.8-3.4 3.8-3 3.8-2.7 3.7-2.2 3.6-2 3.5-1.7 3.4-1.4 3.3-1.2 3.1-0.9 3-0.8 2.8-0.7 2.7-0.4 2.6-0.4 2.5-0.2 2.4-0.1 2.2v2.2 2l0.2 2 0.2 1.9 0.2 1.8 0.4 1.7 0.4 1.7 0.4 1.6 0.5 1.5 0.5 1.4 0.6 1.5 0.6 1.3 0.7 1.3 0.7 1.3 0.7 1.2 0.7 1.1 0.8 1.1 0.9 1.1 0.8 1.1 0.9 1 1 0.9 1 1 1 0.8 1 0.9 1.1 0.8 1.1 0.8 1.2 0.8 1.2 0.7 1.3 0.7 1.3 0.6 1.4 0.6 1.4 0.6 1.5 0.5 1.5 0.5 1.6 0.4 1.7 0.4 1.7 0.3 1.9 0.3 1.9 0.2 1.9 0.1h2.1 2.2l2.3-0.2 2.4-0.2 2.5-0.4 2.6-0.5 2.8-0.7 2.9-0.8 3-1 3.1-1.3 3.3-1.4 3.4-1.8 3.5-2 3.7-2.4 3.7-2.7 3.8-3.1 3.9-3.6 3.8-4" stroke="#0072b2"/>
  </g>
 </g>
 <g stroke="none">
  <g id="g11365" style="color:#000000" stroke-width="2" fill="none">
   <g id="g11367" style="text-anchor:end" font-size="15px" transform="translate(150.3,138.9)" font-family="&apos;Stix Two Text&apos;" fill="#000">
    <text id="text11369">
     <tspan id="tspan11371" font-family="&apos;Stix Two Text&apos;" font-style="italic">O</tspan>
    </text>
   </g>
  </g>
  <g fill="none">
   <g id="g11375" style="color:#000000">
    <use id="use11377" style="color:#000000" xlink:href="#gpPt6" transform="matrix(2.25,0,0,2.25,147.8,124.3)" height="100%" width="100%" y="0" x="0"/>
   </g>
   <g id="g11379" style="color:#000000">
    <g id="g11381" style="text-anchor:middle" font-size="15px" transform="translate(208.2,81.7)" font-family="&apos;Stix Two Text&apos;" fill="#000">
     <text id="text11383">
      <tspan id="tspan11385" font-family="&apos;Stix Two Text&apos;" font-style="italic">P</tspan>
     </text>
    </g>
   </g>
   <g id="g11387" style="color:#000000">
    <use id="use11389" style="color:#e51e10" xlink:href="#gpPt6" transform="matrix(2.25,0,0,2.25,207.8,64.4)" height="100%" width="100%" y="0" x="0"/>
   </g>
   <g id="g11391" style="color:#000000">
    <g id="g11393" font-size="15px" transform="translate(212.3,65.5)" font-family="&apos;Stix Two Text&apos;" fill="#000">
     <text id="text11395"/>
    </g>
   </g>
   <g id="g11397" style="color:#000000">
    <use id="use11399" style="color:#000000" xlink:href="#gpPt5" transform="matrix(2.25,0,0,2.25,207.8,64.4)" height="100%" width="100%" y="0" x="0"/>
   </g>
   <g id="g11401" style="color:#000000">
    <g id="g11403" font-size="15px" transform="translate(181.2,112.5)" font-family="&apos;Stix Two Text&apos;" fill="#000">
     <text id="text11405">
      <tspan id="tspan11407" font-family="&apos;Stix Two Text&apos;" font-style="italic">θ</tspan><tspan id="tspan11409" font-family="&apos;Stix Two Text&apos;" font-size="12px" dy="4.5">1</tspan>
      <tspan id="tspan11411" font-size="15px" dy="-4.5"/>
     </text>
    </g>
   </g>
  </g>
  <g id="g11417" style="color:#ffffff" stroke-width=".5" fill="none">
   <path id="path11419" d="m176 124.3v-1.4l-0.1-1.5-0.2-1.5-0.3-1.4-0.4-1.5-0.4-1.4-0.5-1.4-0.5-1.3-0.7-1.4-0.7-1.3-0.8-1.2-0.8-1.3-0.9-1.1-1-1.2-1-1-1-1-1.2-1-1.1-0.9-2.5-1.6" stroke="#fff"/>
   <path id="path11421" d="m176 124.3v-1.4l-0.1-1.5-0.2-1.5-0.3-1.4-0.4-1.5-0.4-1.4-0.5-1.4-0.5-1.3-0.7-1.4-0.7-1.3-0.8-1.2-0.8-1.3-0.9-1.1-1-1.2-1-1-1-1-1.2-1-1.1-0.9-2.5-1.6-14.1 24.4h28.2" stroke="#9400d3"/>
  </g>
  <g id="g11425" style="color:#000000" font-family="&apos;Stix Two Text&apos;" font-size="13px">
   <g id="g11427" transform="translate(252.3,21.3)">
    <text id="text11429">
     <tspan id="tspan11431" font-family="&apos;Stix Two Text&apos;">mov. de</tspan>
    </text>
   </g>
   <g id="g11433" transform="translate(252.3,40.7)">
    <text id="text11435">
     <tspan id="tspan11437" font-family="&apos;Stix Two Text&apos;">rotación</tspan>
    </text>
   </g>
  </g>
  <g id="g11439" style="color:#000000" fill="none">
   <path id="path11441" d="m147.8 124.3 42.4-73.4" stroke="#000"/>
  </g>
  <g id="g11445" style="color:#000000" stroke-width="1.5" fill="none">
   <g id="g11447" style="shape-rendering:crispEdges">
    <polygon id="polygon11449" points="222.7 19.5 232.6 22.1 225.3 22.1 225.3 22.1 225.3 29.4" fill="#000"/>
   </g>
   <path id="path11451" d="m225.3 22.1v7.3l-2.6-9.9 9.9 2.6h-7.3m27.4 27.3-27.4-27.3" stroke="#000"/>
  </g>
 </g>
 <g id="gnuplot_plot_1b">
  <title id="title11458"/>
  <g id="g11462" style="color:#000000" stroke="currentColor" stroke-width="1.5" fill="none">
   <path id="path11464" d="m200.8 124.3 2.9-3.5 2.9-4 2.8-4.3 2.7-4.8 2.4-5.3 2.2-5.6 1.9-6.1 1.4-6.5 0.8-6.7 0.1-7-0.6-6.9-1.5-6.9-2.4-6.5-3.4-6.1-4.2-5.3-5.1-4.4-5.9-3.3-6.3-2.3-6.8-1-6.9 0.1-6.8 1.2-6.7 2.1-6.4 3-5.9 3.6-5.5 4-4.9 4.5-4.3 4.6-3.8 4.7-3.3 4.8-2.9 4.7-2.3 4.6-2 4.5-1.6 4.3-1.3 4.1-1.1 3.9-0.7 3.7-0.6 3.5-0.3 3.4-0.2 3.1-0.1 3 0.1 2.8 0.2 2.6 0.3 2.5 0.4 2.4 0.5 2.2 0.5 2.1 0.6 2 0.6 1.9 0.7 1.8 0.7 1.7 0.8 1.5 0.8 1.6 0.8 1.4 0.9 1.3 0.9 1.3 0.9 1.2 0.9 1.2 1 1.1 1 1 1 1 1 0.9 1.1 0.9 1.1 0.9 1.1 0.7 1.1 0.8 1.2 0.7 1.1 0.6 1.2 0.6 1.3 0.6 1.2 0.5 1.3 0.5 1.3 0.4 1.4 0.4 1.4 0.3 1.4 0.3 1.5 0.3 1.5 0.1 1.6 0.2h1.6 1.6 1.7l1.8-0.1 1.8-0.3 1.9-0.2 1.9-0.4 2.1-0.5 2-0.6 2.2-0.7 2.2-0.9 2.3-1 2.4-1.1 2.5-1.4 2.6-1.5 2.6-1.7 2.7-2 2.8-2.2 2.8-2.6 2.9-2.8 2.9-3.2" stroke-dasharray="3.8, 6" stroke="#0072b2"/>
  </g>
 </g>
 <g stroke="none">
  <g id="g11468" style="color:#000000" font-family="&apos;Stix Two Text&apos;" stroke-width="2">
   <g id="g11470" style="text-anchor:end" font-size="12px" transform="translate(173.1,119.2)">
    <text id="text11472">
     <tspan id="tspan11474" font-family="&apos;Stix Two Text&apos;" font-style="italic">θ</tspan><tspan id="tspan11476" font-family="&apos;Stix Two Text&apos;" font-size="9.6px" dy="3.5999999">2</tspan>
     <tspan id="tspan11478" font-size="12px" dy="-3.5999999"/>
    </text>
   </g>
   <g id="g11480" style="text-anchor:end" font-size="15px" transform="translate(183.1,61)">
    <text id="text11482">
     <tspan id="tspan11484" font-family="&apos;Stix Two Text&apos;" font-style="italic">P</tspan>
    </text>
   </g>
  </g>
  <g fill="none">
   <g id="g11488" style="color:#000000">
    <use id="use11490" style="color:#e51e10" xlink:href="#gpPt6" transform="matrix(2.25,0,0,2.25,190.2,50.9)" height="100%" width="100%" y="0" x="0"/>
   </g>
   <g id="g11492" style="color:#000000">
    <g id="g11494" font-size="15px" transform="translate(194.7,52)" font-family="&apos;Stix Two Text&apos;" fill="#000">
     <text id="text11496"/>
    </g>
   </g>
   <g id="g11498" style="color:#000000">
    <use id="use11500" style="color:#000000" xlink:href="#gpPt5" transform="matrix(2.25,0,0,2.25,190.2,50.9)" height="100%" width="100%" y="0" x="0"/>
   </g>
  </g>
 </g>
 <g id="gnuplot_plot_1" fill="url(#pattern6821-569-825)">
  <title id="title4487"/>
  <g id="g4491" style="color:#000000" fill="url(#pattern6821-665-648)">
   <path id="path4493" d="m214.7 124.3 3.7-4.5 3.6-4.9 3.3-5.5 2.9-5.9 2.5-6.4 1.8-6.7 1.1-6.9 0.3-7-0.8-6.9-1.8-6.7-2.9-6.1-3.9-5.5-4.9-4.7-5.6-3.6-6.3-2.6-6.8-1.6-7-0.5-7 0.5-6.8 1.3-6.7 2-6.2 2.6-5.8 3-5.4 3.4-4.8 3.6-4.4 3.8-3.9 3.8-3.4 3.8-3 3.8-2.7 3.7-2.2 3.6-2 3.5-1.7 3.4-1.4 3.3-1.2 3.1-0.9 3-0.8 2.8-0.7 2.7-0.4 2.6-0.4 2.5-0.2 2.4-0.1 2.2v2.2 2l0.2 2 0.2 1.9 0.2 1.8 0.4 1.7 0.4 1.7 0.4 1.6 0.5 1.5 0.5 1.4 0.6 1.5 0.6 1.3 0.7 1.3 0.7 1.3 0.7 1.2 0.7 1.1 0.8 1.1 0.9 1.1 0.8 1.1 0.9 1 1 0.9 1 1 1 0.8 1 0.9 1.1 0.8 1.1 0.8 1.2 0.8 1.2 0.7 1.3 0.7 1.3 0.6 1.4 0.6 1.4 0.6 1.5 0.5 1.5 0.5 1.6 0.4 1.7 0.4 1.7 0.3 1.9 0.3 1.9 0.2 1.9 0.1h2.1 2.2l2.3-0.2 2.4-0.2 2.5-0.4 2.6-0.5 2.8-0.7 2.9-0.8 3-1 3.1-1.3 3.3-1.4 3.4-1.8 3.5-2 3.7-2.4 3.7-2.7 3.8-3.1 3.9-3.6 3.8-4" fill="url(#pattern6821-522-580)"/>
  </g>
 </g>
 <g id="g12631" fill="url(#pattern6821-569-825)" transform="matrix(.96593 -.25882 .25882 .96593 -27.144 42.482)">
  <title id="title12633"/>
  <g id="g12637" style="color:#000000" fill="url(#pattern6821-665-648)">
   <path id="path12639" fill="url(#pattern6821-522-580)" d="m214.7 124.3 3.7-4.5 3.6-4.9 3.3-5.5 2.9-5.9 2.5-6.4 1.8-6.7 1.1-6.9 0.3-7-0.8-6.9-1.8-6.7-2.9-6.1-3.9-5.5-4.9-4.7-5.6-3.6-6.3-2.6-6.8-1.6-7-0.5-7 0.5-6.8 1.3-6.7 2-6.2 2.6-5.8 3-5.4 3.4-4.8 3.6-4.4 3.8-3.9 3.8-3.4 3.8-3 3.8-2.7 3.7-2.2 3.6-2 3.5-1.7 3.4-1.4 3.3-1.2 3.1-0.9 3-0.8 2.8-0.7 2.7-0.4 2.6-0.4 2.5-0.2 2.4-0.1 2.2v2.2 2l0.2 2 0.2 1.9 0.2 1.8 0.4 1.7 0.4 1.7 0.4 1.6 0.5 1.5 0.5 1.4 0.6 1.5 0.6 1.3 0.7 1.3 0.7 1.3 0.7 1.2 0.7 1.1 0.8 1.1 0.9 1.1 0.8 1.1 0.9 1 1 0.9 1 1 1 0.8 1 0.9 1.1 0.8 1.1 0.8 1.2 0.8 1.2 0.7 1.3 0.7 1.3 0.6 1.4 0.6 1.4 0.6 1.5 0.5 1.5 0.5 1.6 0.4 1.7 0.4 1.7 0.3 1.9 0.3 1.9 0.2 1.9 0.1h2.1 2.2l2.3-0.2 2.4-0.2 2.5-0.4 2.6-0.5 2.8-0.7 2.9-0.8 3-1 3.1-1.3 3.3-1.4 3.4-1.8 3.5-2 3.7-2.4 3.7-2.7 3.8-3.1 3.9-3.6 3.8-4"/>
  </g>
 </g>
</svg>
