<?xml version="1.0" encoding="UTF-8" standalone="no"?>
<!-- Created with Inkscape (http://www.inkscape.org/) -->
<svg id="svg2" xmlns:rdf="http://www.w3.org/1999/02/22-rdf-syntax-ns#" xmlns="http://www.w3.org/2000/svg" height="165.31" width="304.36" version="1.1" xmlns:cc="http://creativecommons.org/ns#" xmlns:dc="http://purl.org/dc/elements/1.1/" viewBox="0 0 304.36473 165.30696">
 <style type="text/css">
	 @import url('../estilo.css');
 </style>
 <defs id="defs4">
  <marker id="Arrow2Mend" refY="0" refX="0" orient="auto" overflow="visible">
   <path id="path4389" stroke-linejoin="round" d="m8.7186 4.0337-10.926-4.0177 10.926-4.0177c-1.7455 2.3721-1.7354 5.6175-6e-7 8.0354z" fill-rule="evenodd" transform="scale(-.6)" stroke="#000" stroke-width=".625"/>
  </marker>
 </defs>
 <metadata id="metadata7">
  <rdf:RDF>
   <cc:Work rdf:about="">
    <dc:format>image/svg+xml</dc:format>
    <dc:type rdf:resource="http://purl.org/dc/dcmitype/StillImage"/>
    <dc:title/>
   </cc:Work>
  </rdf:RDF>
 </metadata>
 <g id="layer1" transform="translate(-78.172 -132.62)">
  <path id="path4228" d="m200.06 239.39v-97.011" fill-rule="evenodd" stroke="#999" stroke-width="1px" fill="#999"/>
  <g stroke="#000" fill="none">
   <path id="rect4219" d="m289.89 198.01v20.415m-158.21 0v-20.415"/>
   <rect id="rect4223" height="74.003" width="158.21" y="218.42" x="131.68"/>
   <path id="path4281" d="m195.73 231.69v-60.12"/>
   <path id="path4279" d="m195.73 166.65v-13.043"/>
   <path id="path4277" d="m204.4 153.6v78.086"/>
   <path id="rect4231" d="m195.73 172.32h-6.7272m0-5.6739h6.7272"/>
  </g>
  <path id="rect4257" d="m194.71 241.39 10.714-4v12.277l-10.714 4z" stroke="#000" fill="#999"/>
  <g fill="none">
   <g stroke="#000">
    <path id="path4283" d="m195.73 231.69v-60.12"/>
    <path id="path4285" d="m195.73 166.65v-13.043"/>
    <path id="path4287" d="m204.4 153.6v78.086"/>
    <path id="path4289" d="m204.4 231.69c6.0464 1.458 7.4315 8.1556 7.4315 20.435"/>
    <path id="path4293" d="m195.73 231.69c-6.0464 1.458-7.4315 8.1556-7.4315 20.435"/>
   </g>
   <g stroke="#999">
    <path id="circle4333" d="m200.06 142.38a4.2587 4.2587 0 0 1 3.5192 -4.194 4.2587 4.2587 0 0 1 4.7413 2.7374 4.2587 4.2587 0 0 1 -1.8725 5.1446"/>
    <path id="circle4335" d="m211.27 142.38a4.2587 4.2587 0 0 1 -4.2587 4.2587 4.2587 4.2587 0 0 1 -4.2586 -4.2587 4.2587 4.2587 0 0 1 4.2586 -4.2587 4.2587 4.2587 0 0 1 4.2587 4.2587z"/>
    <path id="circle4343" d="m213.96 142.38a4.2587 4.2587 0 0 1 -4.2586 4.2587 4.2587 4.2587 0 0 1 -4.2587 -4.2587 4.2587 4.2587 0 0 1 4.2587 -4.2587 4.2587 4.2587 0 0 1 4.2586 4.2587z"/>
    <path id="circle4350" d="m216.93 142.38a4.2587 4.2587 0 0 1 -3.8875 4.2424 4.2587 4.2587 0 0 1 -4.5651 -3.5029 4.2587 4.2587 0 0 1 3.0917 -4.8531"/>
   </g>
   <path id="path4356" marker-end="url(#Arrow2Mend)" d="m165.25 169.65h19.068" stroke="#000" stroke-width="1px"/>
  </g>
  <g font-family="&apos;STIX Two Text&apos;" fill="#000000">
   <text id="text5744" style="word-spacing:0px;letter-spacing:0px" xml:space="preserve" font-size="16px" line-height="125%" y="163.29674" x="121.82769"><tspan id="tspan5746" style="text-anchor:middle;text-align:center" line-height="125%" y="163.29674" x="121.82769">760 mm Hg</tspan><tspan id="tspan5748" style="text-anchor:middle;text-align:center" line-height="125%" y="183.29674" x="121.82769">H<tspan id="tspan5800" dy="5" font-size="65%">2</tspan></tspan></text>
   <flowRoot id="flowRoot5752" style="word-spacing:0px;letter-spacing:0px" xml:space="preserve" font-size="17.812px" line-height="125%"><flowRegion id="flowRegion5754"><rect id="rect5756" y="131.97" width="24.272" x="89.32" height="28.155"/></flowRegion><flowPara id="flowPara5758"/></flowRoot>
   <text id="text5774" style="word-spacing:0px;letter-spacing:0px" xml:space="preserve" font-size="17.812px" line-height="125%" y="271.77969" x="224.27185"><tspan id="tspan5776" font-size="16px" line-height="125%" y="271.77969" x="224.27185" font-family="&apos;STIX Two Text&apos;">{H<tspan id="tspan5792" dy="-5" font-size="65%">+</tspan><tspan dy="5">} = 1</tspan></tspan></text>
   <text id="text5782" style="word-spacing:0px;letter-spacing:0px" xml:space="preserve" font-size="17.812px" line-height="125%" y="214.67288" x="321.35922"><tspan id="tspan5784" font-size="16px" font-style="italic" line-height="125%" y="214.67288" x="321.35922" font-family="&apos;STIX Two Text&apos;">E<tspan id="tspan5796" font-size="16px" font-style="normal" line-height="125%" font-family="&apos;STIX Two Text&apos;"><tspan id="tspan5798" dy="5" font-size="65%">SHE</tspan><tspan dy="-5"> = 0</tspan></tspan></tspan></text>
  </g>
  <flowRoot id="flowRoot5814" style="word-spacing:0px;letter-spacing:0px;writing-mode:lr" xml:space="preserve" font-size="17.812px" line-height="125%" font-family="&apos;STIX Two Text&apos;" fill="black"><flowRegion id="flowRegion5816"><rect id="rect5818" y="263.37" width="60.194" x="-43.689" height="29.126"/></flowRegion><flowPara id="flowPara5820"/></flowRoot>
  <text id="text5830" style="word-spacing:0px;letter-spacing:0px" xml:space="preserve" font-size="19px" line-height="125%" y="176.56442" x="335.45312" font-family="&apos;STIX Two Text&apos;" fill="#000000"><tspan id="tspan5832" x="335.45312" y="176.56442"/></text>
 </g>
</svg>
