<?xml version="1.0" encoding="UTF-8" standalone="no"?>
<svg id="svg4414" xmlns:rdf="http://www.w3.org/1999/02/22-rdf-syntax-ns#" xmlns="http://www.w3.org/2000/svg" xmlns:ns0="http://www.iki.fi/pav/software/textext/" height="300" width="180" version="1.1" xmlns:cc="http://creativecommons.org/ns#" xmlns:xlink="http://www.w3.org/1999/xlink" viewBox="0 0 180 300" xmlns:dc="http://purl.org/dc/elements/1.1/">
 <defs>
  <radialGradient id="radialGradient5103" gradientUnits="userSpaceOnUse" cy="150" cx="87.85" gradientTransform="matrix(1 0 0 1.3338 0 -50.075)" r="66.65">
   <stop id="stop5099" stop-color="#ff0" stop-opacity=".33333" offset="0"/>
   <stop id="stop5101" stop-color="#ff0" stop-opacity=".66667" offset="1"/>
  </radialGradient>
  <path id="gpPt1" stroke="currentColor" stroke-width=".222" d="m-1-1l2 2m0-2l-2 2"/>
 </defs>
 <metadata id="metadata4508">
  <rdf:RDF>
   <cc:Work rdf:about="">
    <dc:format>image/svg+xml</dc:format>
    <dc:type rdf:resource="http://purl.org/dc/dcmitype/StillImage"/>
    <dc:title>Gnuplot</dc:title>
   </cc:Work>
  </rdf:RDF>
 </metadata>
 <title id="title4416">Gnuplot</title>
 <desc id="desc4418">Produced by GNUPLOT 5.0 patchlevel 3</desc>
 <g id="content" xml:space="preserve" stroke="#000" stroke-width="0" fill-rule="evenodd" ns0:pdfconverter="pstoedit" transform="matrix(1.75 0 0 -1.75 -161.64 1366.1)" stroke-miterlimit="10.433" ns0:text="$r_i$" ns0:version="0.7.2" ns0:inkscapeversion="0.91" ns0:preamble="/usr/share/inkscape/extensions/default_packages.tex" ns0:scale="1.4" ns0:texconverter="pdflatex"><path id="path4569" d="m149.91 707.12 0.05 0.16 0.05 0.15 0.04 0.14 0.04 0.13 0.05 0.13 0.03 0.12 0.04 0.12 0.04 0.11 0.03 0.11 0.04 0.1 0.03 0.1 0.03 0.09 0.04 0.09 0.03 0.08 0.03 0.08 0.03 0.08 0.03 0.08 0.03 0.07 0.06 0.14 0.07 0.14 0.06 0.13 0.07 0.13 0.07 0.13 0.08 0.13 0.04 0.07 0.04 0.07c0.33 0.56 0.61 0.87 0.78 0.87 0.06 0 0.11-0.04 0.16-0.14 0.08-0.17 0.16-0.22 0.36-0.22 0.29 0 0.46 0.18 0.46 0.49s-0.2 0.52-0.47 0.52c-0.23 0-0.5-0.15-0.76-0.42-0.41-0.42-0.81-1.01-0.97-1.41l-0.14-0.36 0.53 2.17-0.03 0.02c-0.73-0.13-0.82-0.15-1.54-0.27v-0.17c0.24 0.05 0.27 0.05 0.34 0.05 0.21 0 0.34-0.1 0.34-0.28 0-0.14 0-0.14-0.16-0.82l-0.8-2.91z"/><path id="path4571" d="m154.14 706.42-0.02-0.02-0.01-0.01-0.02-0.02-0.01-0.02-0.01-0.02-0.02-0.01-0.01-0.02-0.01-0.01-0.01-0.02-0.01-0.01-0.01-0.01-0.01-0.02-0.01-0.01-0.01-0.01-0.01-0.01v-0.01l-0.01-0.01-0.01-0.01h-0.01v-0.01l-0.01-0.01-0.01-0.01-0.01-0.01-0.01-0.02-0.01-0.01-0.02-0.02-0.01-0.01c-0.12-0.12-0.22-0.19-0.29-0.19-0.05 0-0.11 0.06-0.11 0.11 0 0.06 0.02 0.17 0.07 0.3 0 0.02 0.02 0.07 0.04 0.13v0.01 0.02l0.62 2.24-0.02 0.02c-0.71-0.14-0.85-0.16-1.12-0.18v-0.11c0.37-0.01 0.44-0.03 0.44-0.17 0-0.05-0.02-0.16-0.06-0.3l-0.34-1.24c-0.11-0.4-0.15-0.62-0.15-0.76 0-0.26 0.11-0.4 0.32-0.4 0.32 0 0.58 0.21 0.98 0.8z"/><path id="path4573" d="m154.08 710.19h-0.02-0.01-0.02l-0.02-0.01h-0.01l-0.02-0.01h-0.02l-0.01-0.01h-0.02l-0.01-0.01-0.01-0.01-0.02-0.01-0.01-0.01-0.01-0.01-0.01-0.01-0.01-0.02-0.02-0.01-0.01-0.01v-0.02l-0.01-0.01-0.01-0.02-0.01-0.01-0.01-0.02v-0.01l-0.01-0.02v-0.02l-0.01-0.01v-0.02-0.02l-0.01-0.02v-0.02-0.02c0-0.22 0.13-0.37 0.34-0.37 0.18 0 0.34 0.16 0.34 0.36s-0.16 0.38-0.35 0.38z"/></g>
 <g id="g4700" xml:space="preserve" stroke="#000" stroke-width="0" fill-rule="evenodd" ns0:pdfconverter="pstoedit" transform="matrix(1.75 0 0 -1.75 -135.25 1361.9)" stroke-miterlimit="10.433" ns0:text="$m_i$" ns0:version="0.7.2" ns0:inkscapeversion="0.91" ns0:preamble="/usr/share/inkscape/extensions/default_packages.tex" ns0:scale="1.4" ns0:texconverter="pdflatex"><path id="path4702" d="m155.57 708.29-0.01-0.02-0.02-0.03-0.02-0.02-0.02-0.02v-0.01l-0.01-0.01-0.01-0.01-0.01-0.01h-0.01v-0.01l-0.01-0.01-0.01-0.01v-0.01l-0.01-0.01-0.01-0.01-0.01-0.01v-0.01h-0.01v-0.01l-0.01-0.01-0.01-0.01-0.01-0.01v-0.01c-0.28-0.36-0.49-0.53-0.64-0.53-0.08 0-0.13 0.06-0.13 0.16 0 0.05 0.04 0.21 0.1 0.45l0.68 2.5c0 0.04 0.02 0.22 0.02 0.28 0 0.36-0.24 0.63-0.58 0.63-0.19 0-0.39-0.07-0.63-0.22-0.49-0.32-0.9-0.8-1.59-1.9 0.25 0.76 0.4 1.33 0.4 1.52 0 0.35-0.23 0.6-0.56 0.6-0.61 0-1.31-0.66-2.23-2.11l0.58 2.09-0.03 0.02c-0.56-0.12-0.77-0.16-1.59-0.31v-0.16h0.25c0.26 0 0.39-0.07 0.39-0.22 0-0.11-0.23-1.02-0.59-2.28-0.23-0.82-0.26-0.92-0.39-1.43h0.75c0.47 1.59 0.62 1.96 0.96 2.47 0.56 0.85 1.16 1.41 1.5 1.41 0.13 0 0.2-0.09 0.2-0.25 0-0.09-0.32-1.3-0.95-3.63h0.75c0.4 1.56 0.59 2.05 1.1 2.76 0.49 0.68 0.99 1.12 1.28 1.12 0.11 0 0.2-0.1 0.2-0.21 0-0.05-0.02-0.17-0.07-0.35l-0.58-2.29c-0.09-0.37-0.13-0.56-0.13-0.66 0-0.3 0.14-0.46 0.4-0.46 0.47 0 0.91 0.33 1.43 1.07l0.05 0.07z"/><path id="path4704" d="m157.45 706.42-0.01-0.02-0.02-0.01-0.01-0.02-0.02-0.02-0.01-0.02-0.01-0.01-0.01-0.02-0.01-0.01-0.02-0.02-0.01-0.01-0.01-0.01-0.01-0.02v-0.01l-0.01-0.01-0.01-0.01-0.01-0.01-0.01-0.01v-0.01h-0.01l-0.01-0.01-0.01-0.01v-0.01l-0.01-0.01-0.02-0.02-0.01-0.01-0.01-0.02-0.02-0.01c-0.11-0.12-0.22-0.19-0.28-0.19s-0.11 0.06-0.11 0.11c0 0.06 0.02 0.17 0.07 0.3 0 0.02 0.02 0.07 0.03 0.13v0.01l0.01 0.02 0.61 2.24-0.02 0.02c-0.7-0.14-0.84-0.16-1.11-0.18v-0.11c0.37-0.01 0.43-0.03 0.43-0.17 0-0.05-0.02-0.16-0.06-0.3l-0.33-1.24c-0.11-0.4-0.16-0.62-0.16-0.76 0-0.26 0.12-0.4 0.33-0.4 0.32 0 0.57 0.21 0.97 0.8z"/><path id="path4706" d="m157.4 710.19h-0.02-0.02-0.02l-0.01-0.01h-0.02l-0.02-0.01h-0.01l-0.02-0.01h-0.01l-0.01-0.01-0.02-0.01-0.01-0.01-0.01-0.01-0.02-0.01-0.01-0.01-0.01-0.02-0.01-0.01-0.01-0.01-0.01-0.02-0.01-0.01-0.01-0.02v-0.01l-0.01-0.02-0.01-0.01v-0.02l-0.01-0.02v-0.01l-0.01-0.02v-0.02-0.02-0.02-0.02c0-0.22 0.13-0.37 0.33-0.37 0.18 0 0.34 0.16 0.34 0.36s-0.16 0.38-0.34 0.38z"/></g>
 <g fill="none">
  <rect id="rect4421" height="300" width="180" y="0" x="0"/>
  <g stroke="none">
   <g id="g4453" style="color:#000000">
    <g id="g4455" transform="translate(123.2,116.7)" font-size="12px" font-family="Arial" fill="#000">
     <text id="text4457"/>
    </g>
   </g>
   <g id="g4459" style="color:#000000">
    <use id="use4461" style="color:#000000" xlink:href="#gpPt1" transform="matrix(3.38,0,0,3.38,118.7,116.7)" height="100%" width="100%" y="0" x="0"/>
   </g>
   <g id="g4465" style="color:#808080">
    <path id="path4467" stroke-dasharray="2, 4" stroke="#808080" d="m87.9 283.4v-266.7"/>
   </g>
   <g id="g4469" style="color:#000000">
    <path id="path4471" stroke="#e51e10" d="m87.8 116.7h30.9"/>
   </g>
   <g id="g4473" style="color:#000000">
    <g id="g4475" style="shape-rendering:crispEdges">
     <polygon id="polygon4477" points="99.5 20.9 107.3 18.3 106.5 22.2 106.5 22.2 105.7 26.3" fill="#000"/>
    </g>
    <path id="path4479" stroke="#000" d="m103.6 21.7 2.9 0.5"/>
   </g>
  </g>
 </g>
 <g id="gnuplot_plot_1">
  <title id="title4484"/>
  <g id="g4486" style="color:#000000" stroke="currentColor" fill="none">
   <path id="path4488" stroke="#000" d="m72.1 21.7-0.7 0.2-0.7 0.2-0.6 0.2-0.6 0.2-0.6 0.2-0.5 0.2-0.5 0.3-0.5 0.2-0.4 0.2-0.3 0.3-0.3 0.3-0.3 0.2-0.2 0.3-0.1 0.2-0.1 0.3-0.1 0.3v0.2l0.1 0.3 0.1 0.2 0.1 0.3 0.2 0.3 0.3 0.2 0.3 0.3 0.3 0.2 0.4 0.3 0.5 0.2 0.5 0.3 0.5 0.2 0.6 0.2 0.6 0.2 0.6 0.2 0.7 0.2 0.7 0.2 0.8 0.2 0.8 0.2 0.8 0.1 0.9 0.2 0.9 0.1 0.9 0.2 0.9 0.1 1 0.1 1 0.1 1 0.1 1 0.1h1l1.1 0.1h1 1.1 1 1.1 1 1.1 1l1.1-0.1h1l1-0.1 1-0.1 1-0.1 1-0.1 0.9-0.1 0.9-0.2 0.9-0.1 0.9-0.2 0.8-0.1 0.8-0.2 0.8-0.2 0.7-0.2 0.7-0.2 0.6-0.2 0.6-0.2 0.6-0.2 0.5-0.2 0.5-0.3 0.5-0.2 0.4-0.3 0.3-0.2 0.3-0.3 0.3-0.2 0.2-0.3 0.1-0.3 0.1-0.2 0.1-0.3v-0.2l-0.1-0.3-0.1-0.3-0.1-0.2-0.2-0.3-0.3-0.2-0.3-0.3-0.3-0.3-0.4-0.2-0.5-0.2-0.5-0.3-0.5-0.2-0.6-0.2-0.6-0.2-0.6-0.2-0.7-0.2-0.7-0.2"/>
  </g>
 </g>
 <g id="g4496" style="color:#000000" stroke="none" fill="url(#radialGradient5103)">
  <g id="g4498" style="shape-rendering:crispEdges" fill="url(#radialGradient5103)">
   <polygon id="polygon4500" points="76.2 62.5 70.5 64.1 65 66.5 59.6 69.4 54.5 73 49.6 77.2 45 81.9 40.7 87.1 36.7 92.9 33.2 99 30.1 105.5 27.4 112.4 25.2 119.6 23.4 127 22.2 134.6 21.4 142.3 21.2 150 21.4 157.7 22.2 165.4 23.4 173 25.2 180.4 27.4 187.6 30.1 194.4 33.2 201 36.7 207.1 40.7 212.9 45 218.1 49.6 222.8 54.5 227 59.6 230.6 65 233.5 70.5 235.9 76.2 237.5 82 238.6 87.8 238.9 93.6 238.6 99.4 237.5 105.1 235.9 110.6 233.5 116 230.6 121.1 227 126 222.8 130.6 218.1 134.9 212.9 138.9 207.1 142.4 201 145.5 194.5 148.2 187.6 150.4 180.4 152.2 173 153.4 165.4 154.2 157.7 154.5 150 154.2 142.3 153.4 134.6 152.2 127 150.4 119.6 148.2 112.4 145.5 105.6 142.4 99 138.9 92.9 134.9 87.1 130.6 81.9 126 77.2 121.1 73 116 69.4 110.6 66.5 105.1 64.1 99.4 62.5 93.6 61.4 87.8 61.1 82 61.4" fill="url(#radialGradient5103)"/>
  </g>
 </g>
 <g id="g4840" xml:space="preserve" stroke="#000" fill-rule="evenodd" ns0:pdfconverter="pstoedit" transform="matrix(1.75 0 0 -1.75 -146.25 1269.2)" stroke-miterlimit="10.433" ns0:text="$\\omega$" ns0:version="0.7.2" ns0:inkscapeversion="0.91" ns0:preamble="/usr/share/inkscape/extensions/default_packages.tex" ns0:scale="1.4" ns0:texconverter="pdflatex"><path id="path4842" stroke-width="0" d="m155.35 709.64v0.1 0.09l-0.01 0.1-0.01 0.09-0.02 0.09-0.02 0.08-0.02 0.09-0.02 0.08-0.03 0.08-0.02 0.08-0.03 0.07-0.03 0.08-0.03 0.07-0.03 0.07-0.04 0.06-0.03 0.06-0.03 0.06-0.04 0.06-0.03 0.06-0.03 0.05-0.04 0.05-0.03 0.04-0.03 0.04-0.03 0.04-0.02 0.04-0.03 0.03-0.02 0.03-0.02 0.02-0.02 0.02-0.02 0.02-0.01 0.02-0.01 0.01h-0.33c0.07-0.12 0.31-0.6 0.31-1.31 0-1.17-0.76-2.79-1.74-2.79-0.37 0-0.63 0.21-0.63 0.57 0 1 0.53 1.93 0.53 2.16 0 0.04-0.01 0.06-0.06 0.06h-0.47c-0.31 0-0.07-2.79-1.62-2.79-0.7 0-0.74 0.7-0.74 0.97 0 1.58 1.16 2.92 1.36 3.13h-0.33c-0.01 0-1.94-1.31-1.94-3.1 0-0.62 0.33-1.41 1.36-1.41 1.23 0 1.59 1.02 1.59 1.03h0.01c0-0.01-0.02-0.09-0.02-0.22 0-0.31 0.13-0.81 1-0.81 1.27 0 2.47 1.36 2.47 2.63z"/></g>
</svg>
