<?xml version="1.0" encoding="UTF-8" standalone="no"?>
<svg id="svg7640" xmlns:rdf="http://www.w3.org/1999/02/22-rdf-syntax-ns#" xmlns="http://www.w3.org/2000/svg" xmlns:ns0="http://www.iki.fi/pav/software/textext/" height="400" width="450" version="1.1" xmlns:cc="http://creativecommons.org/ns#" xmlns:xlink="http://www.w3.org/1999/xlink" viewBox="0 0 450 400" xmlns:dc="http://purl.org/dc/elements/1.1/">
 <style type="text/css">
	 @import url('../estilo.css');
 </style>
 <defs>
  <circle id="gpPt5" stroke-width=".222" cy="0" stroke="currentColor" cx="0" r="1"/>
  <use id="gpPt6" xlink:href="#gpPt5" fill="currentColor"/>
 </defs>
 <metadata id="metadata7827">
  <rdf:RDF>
   <cc:Work rdf:about="">
    <dc:format>image/svg+xml</dc:format>
    <dc:type rdf:resource="http://purl.org/dc/dcmitype/StillImage"/>
    <dc:title>Gnuplot</dc:title>
   </cc:Work>
  </rdf:RDF>
 </metadata>
 <title id="title7642">Gnuplot</title>
 <desc id="desc7644">Produced by GNUPLOT 5.0 patchlevel 3</desc>
 <g id="gnuplot_canvas">
  <rect id="rect7647" height="400" width="450" y="0" x="0" fill="none"/>
  <g id="g7681" color="gray" stroke="currentColor" fill="none">
   <path id="path7683" stroke="gray" stroke-dasharray="2,4" d="m200.4 200l179.7-179.6"/>
  </g>
  <g id="gnuplot_plot_1a">
   <title id="title7688"/>
   <g id="g7690" color="black" fill="none">
    <g id="g7692" shape-rendering="crispEdges">
     <polygon id="polygon7694" fill-opacity=".8" points="425 200 423.6 185.9 419.7 172.1 413.2 159 404.7 147 394.4 136.3 382.8 127 370.2 119.2 357.1 112.9 343.8 107.9 330.6 104.2 317.6 101.7 305.1 100.2 293.1 99.6 281.8 99.8 271.2 100.6 261.3 102 252 103.7 243.4 105.9 235.5 108.3 228.1 110.9 221.3 113.7 215.1 116.7 209.3 119.7 204.1 122.8 199.2 126 194.8 129.2 190.7 132.4 186.9 135.6 183.4 138.8 180.3 142 177.4 145.1 174.7 148.3 172.3 151.4 170.1 154.5 168.1 157.6 166.3 160.7 164.6 163.7 163.1 166.7 161.8 169.7 160.6 172.6 159.5 175.6 158.6 178.5 157.8 181.4 157.1 184.3 156.6 187.2 156.1 190.1 155.8 192.9 155.6 195.8 155.5 198.6 155.5 201.5 155.6 204.3 155.8 207.2 156.1 210 156.6 212.9 157.1 215.8 157.8 218.7 158.6 221.6 159.5 224.5 160.6 227.5 161.8 230.4 163.1 233.4 164.6 236.4 166.3 239.4 168.1 242.5 170.1 245.6 172.3 248.7 174.7 251.8 177.4 255 180.3 258.1 183.4 261.3 186.9 264.5 190.7 267.7 194.8 270.9 199.2 274.1 204.1 277.3 209.3 280.4 215.1 283.4 221.3 286.4 228.1 289.2 235.5 291.8 243.4 294.2 252 296.4 261.3 298.1 271.2 299.5 281.8 300.3 293.1 300.5 305.1 299.9 317.6 298.4 330.6 295.9 343.8 292.2 357.1 287.2 370.2 280.9 382.8 273.1 394.4 263.8 404.7 253.1 413.2 241.1 419.7 228 423.6 214.2 425 200.1" fill="#ff9"/>
    </g>
    <path id="path7696" stroke="#ff9" d="m425 200l-1.4-14.1-3.9-13.8-6.5-13.1-8.5-12-10.3-10.7-11.6-9.3-12.6-7.8-13.1-6.3-13.3-5-13.2-3.7-13-2.5-12.5-1.5-12-0.6-11.3 0.2-10.6 0.8-9.9 1.4-9.3 1.7-8.6 2.2-7.9 2.4-7.4 2.6-6.8 2.8-6.2 3-5.8 3-5.2 3.1-4.9 3.2-4.4 3.2-4.1 3.2-3.8 3.2-3.5 3.2-3.1 3.2-2.9 3.1-2.7 3.2-2.4 3.1-2.2 3.1-2 3.1-1.8 3.1-1.7 3-1.5 3-1.3 3-1.2 2.9-1.1 3-0.9 2.9-0.8 2.9-0.7 2.9-0.5 2.9-0.5 2.9-0.3 2.8-0.2 2.9-0.1 2.8v2.9l0.1 2.8 0.2 2.9 0.3 2.8 0.5 2.9 0.5 2.9 0.7 2.9 0.8 2.9 0.9 2.9 1.1 3 1.2 2.9 1.3 3 1.5 3 1.7 3 1.8 3.1 2 3.1 2.2 3.1 2.4 3.1 2.7 3.2 2.9 3.1 3.1 3.2 3.5 3.2 3.8 3.2 4.1 3.2 4.4 3.2 4.9 3.2 5.2 3.1 5.8 3 6.2 3 6.8 2.8 7.4 2.6 7.9 2.4 8.6 2.2 9.3 1.7 9.9 1.4 10.6 0.8 11.3 0.2 12-0.6 12.5-1.5 13-2.5 13.2-3.7 13.3-5 13.1-6.3 12.6-7.8 11.6-9.3 10.3-10.7 8.5-12 6.5-13.1 3.9-13.8 1.4-14.1"/>
   </g>
  </g>
  <g>
   <g id="g7700" color="black" stroke="currentColor" stroke-width="2" fill="none">
    <g id="g7702" font-size="16" transform="translate(193.3,203.3)" text-anchor="end" stroke="none" font-family="Stix Two Text" fill="#000">
     <text id="text7704">
      <tspan id="tspan7706" font-family="Stix Two Text" font-style="italic">O</tspan>
     </text>
    </g>
   </g>
   <g>
    <g id="g7710" color="black" stroke="currentColor" fill="none">
     <use id="use7712" color="black" xlink:href="#gpPt6" transform="translate(200.4 200) scale(3.38)"/>
    </g>
    <g id="g7716" color="gray" stroke="currentColor" fill="none">
     <path id="path7718" stroke="gray" stroke-dasharray="2,4" d="m20.7 379.7l179.7-179.7"/>
    </g>
    <g id="g7722" font-size="16" font-family="Stix Two Text" color="black">
     <g id="g7724" transform="translate(289.9,205.4)" text-anchor="middle">
      <text id="text7726">
       <tspan id="tspan7728" font-family="Stix Two Text" font-style="italic">r</tspan>
      </text>
     </g>
     <g id="g7730" transform="translate(309.9,184.6)">
      <text id="text7732">
       <tspan id="tspan7734" font-family="Stix Two Text" font-style="italic">dθ</tspan>
      </text>
     </g>
     <g id="g7736" transform="translate(373.2,174.9)" text-anchor="end">
      <text id="text7738">
       <tspan id="tspan7740" font-family="Stix Two Text" font-style="italic">ds</tspan>
      </text>
     </g>
    </g>
   </g>
   <g stroke="currentColor" stroke-width=".5" fill="none">
    <g id="g7744" color="black">
     <path id="path7746" stroke="#000" d="m200.4 200l173.6-46.4"/>
    </g>
    <g id="g7748" color="black">
     <path id="path7750" stroke="#000" d="m200.4 200l179-15.6"/>
    </g>
    <g id="g7752" color="gray">
     <path id="path7754" stroke="gray" stroke-dasharray="2,4" d="m417.4 103l6.7 77.6"/>
    </g>
    <g id="g7756" color="gray">
     <path id="path7758" stroke="gray" stroke-dasharray="2,4" d="m417.4 103l-44.8 4"/>
    </g>
   </g>
   <g stroke="currentColor" stroke-width="1.5" fill="none">
    <g id="g7762" color="black">
     <g id="g7764" stroke="none" shape-rendering="crispEdges">
      <polygon id="polygon7766" points="415.8 106.4 408.9 108.9 417.3 103 418.2 113.2" fill="#0072b2"/>
     </g>
     <path id="path7768" stroke="#0072b2" d="m415.8 106.4l-6.9 2.5 8.4-5.9 0.9 10.2-2.4-6.8m-36.4 78l36.4-78"/>
    </g>
    <g id="g7770" color="black">
     <g id="g7772" stroke="none" shape-rendering="crispEdges">
      <polygon id="polygon7774" points="420.4 180.8 414.8 176.2 424.1 180.5 415.7 186.4" fill="#e51e10"/>
     </g>
     <path id="path7776" stroke="#e51e10" d="m420.4 180.8l-5.6-4.6 9.3 4.3-8.4 5.9 4.7-5.6m-41 3.6l41-3.6"/>
    </g>
    <g id="g7778" color="black">
     <g id="g7780" stroke="none" shape-rendering="crispEdges">
      <polygon id="polygon7782" points="372.9 110.6 368.3 116.2 372.6 106.9 378.5 115.3" fill="#e51e10"/>
     </g>
     <path id="path7784" stroke="#e51e10" d="m372.9 110.6l-4.6 5.6 4.3-9.3 5.9 8.4-5.6-4.7m6.5 73.8l-6.5-73.8"/>
    </g>
   </g>
  </g>
  <g id="gnuplot_plot_1b">
   <title id="title7791"/>
   <g id="g7793" color="black" stroke="currentColor" fill="none">
    <path id="path7795" stroke="#000" stroke-dasharray="1.0,2.0" d="m290.2 355.6l3.7-2.2 3.6-2.2 3.6-2.4 3.5-2.4 3.5-2.5 3.4-2.6 3.3-2.7 3.3-2.8 3.2-2.8 3.1-2.9 3-3 3-3.1 2.9-3.1 2.9-3.2 2.8-3.3 2.6-3.3 2.6-3.4 2.6-3.4 2.4-3.6 2.4-3.5 2.2-3.6 2.2-3.7 2.1-3.8 2-3.7 1.9-3.9 1.8-3.8 1.8-3.9 1.6-4 1.5-4 1.5-4 1.3-4 1.3-4.1 1.2-4.2 1-4.1 1-4.2 0.8-4.2 0.8-4.2 0.6-4.2 0.6-4.2 0.5-4.3 0.3-4.2 0.3-4.3 0.1-4.3 0.1-4.3-0.1-4.2-0.1-4.3-0.3-4.3-0.3-4.2-0.5-4.3-0.6-4.2-0.6-4.2-0.8-4.2-0.8-4.2-1-4.2-1-4.1-1.2-4.2-1.3-4.1-1.3-4-1.5-4-1.5-4-1.6-4-1.8-3.9-1.8-3.8-1.9-3.9-2-3.7-2.1-3.8-2.2-3.7-2.2-3.6-2.4-3.5-2.4-3.6-2.6-3.4-2.6-3.4-2.6-3.3-2.8-3.3-2.9-3.2-2.9-3.1-3-3.1-3-3-3.1-2.9-3.2-2.8-3.3-2.8-3.3-2.7-3.4-2.6-3.5-2.5-3.5-2.4-3.6-2.4-3.6-2.2-3.7-2.2-3.7-2.1-3.8-2-3.8-1.9-3.9-1.9-3.9-1.7-3.9-1.6-4-1.6-4-1.4-4.1-1.4-4.1-1.2-4.1-1.2"/>
   </g>
  </g>
  <g id="gnuplot_plot_2b">
   <title id="title7798"/>
   <g id="g7802" color="black" stroke="currentColor" stroke-width="2" fill="none">
    <path id="path7804" stroke="#000" d="m379.4 184.4v-0.3l-0.1-0.3v-0.4-0.3l-0.1-0.3v-0.3-0.3-0.3l-0.1-0.3v-0.4-0.3l-0.1-0.3v-0.3-0.3l-0.1-0.3v-0.3l-0.1-0.4v-0.3-0.3l-0.1-0.3v-0.3-0.3l-0.1-0.3v-0.4l-0.1-0.3v-0.3l-0.1-0.3v-0.3-0.3l-0.1-0.3v-0.4l-0.1-0.3v-0.3l-0.1-0.3v-0.3l-0.1-0.3v-0.3l-0.1-0.4v-0.3l-0.1-0.3v-0.3l-0.1-0.3v-0.3l-0.1-0.3v-0.3l-0.1-0.4v-0.3l-0.1-0.3v-0.3l-0.1-0.3v-0.3l-0.1-0.3v-0.3l-0.1-0.3-0.1-0.4v-0.3l-0.1-0.3v-0.3l-0.1-0.3-0.1-0.3v-0.3l-0.1-0.3v-0.3l-0.1-0.4-0.1-0.3v-0.3l-0.1-0.3-0.1-0.3v-0.3l-0.1-0.3-0.1-0.3v-0.3l-0.1-0.3-0.1-0.4v-0.3l-0.1-0.3-0.1-0.3v-0.3l-0.1-0.3-0.1-0.3-0.1-0.3v-0.3l-0.1-0.3-0.1-0.3-0.1-0.4v-0.3l-0.1-0.3-0.1-0.3-0.1-0.3v-0.3l-0.1-0.3-0.1-0.3-0.1-0.3v-0.3l-0.1-0.3-0.1-0.3-0.1-0.3-0.1-0.3v-0.3"/>
   </g>
  </g>
  <g id="gnuplot_plot_3b">
   <title id="title7807"/>
   <g id="g7811" color="black" stroke="currentColor" stroke-width=".5" fill="none">
    <path id="path7813" stroke="#9400d3" d="m307.8 190.7v-0.2-0.2l-0.1-0.2v-0.2-0.2-0.2-0.2l-0.1-0.2v-0.1-0.2-0.2-0.2l-0.1-0.2v-0.2-0.2-0.2-0.2l-0.1-0.1v-0.2-0.2-0.2l-0.1-0.2v-0.2-0.2-0.2l-0.1-0.2v-0.1-0.2-0.2l-0.1-0.2v-0.2-0.2-0.2l-0.1-0.2v-0.1-0.2-0.2l-0.1-0.2v-0.2-0.2l-0.1-0.2v-0.2-0.1l-0.1-0.2v-0.2-0.2l-0.1-0.2v-0.2-0.2l-0.1-0.2v-0.1-0.2l-0.1-0.2v-0.2-0.2l-0.1-0.2v-0.2-0.2l-0.1-0.1v-0.2-0.2l-0.1-0.2v-0.2-0.2l-0.1-0.2v-0.1l-0.1-0.2v-0.2-0.2l-0.1-0.2v-0.2l-0.1-0.2v-0.1-0.2l-0.1-0.2v-0.2l-0.1-0.2v-0.2l-0.1-0.2v-0.1-0.2l-0.1-0.2v-0.2l-0.1-0.2v-0.2l-0.1-0.2v-0.1-0.2l-0.1-0.2v-0.2l-0.1-0.2v-0.2l-0.1-0.1v-0.2l-0.1-0.2v-0.2l-0.1-0.2v-0.2l-0.1-0.1"/>
   </g>
  </g>
 </g>
 <g stroke-width="0" fill-rule="evenodd" stroke="#000" stroke-miterlimit="10.433">
  <g id="content" xml:space="preserve" ns0:pdfconverter="pstoedit" transform="matrix(1.75 0 0 -1.75 155.34 1336.4)" ns0:text="$\\vec{F}$" ns0:version="0.7.2" ns0:inkscapeversion="0.91" ns0:preamble="/usr/share/inkscape/extensions/default_packages.tex" ns0:scale="1.4" ns0:texconverter="pdflatex"><polygon id="polygon5229" points="155.2 715.03 154.23 714.03 154.42 713.79 156.09 715.23 155.03 716.67 154.74 716.43 155.28 715.43 151.96 715.43 151.87 715.03"/><path id="path5231" d="m155.38 713.63h-4.96v-0.16c0.65-0.06 0.77-0.12 0.77-0.41 0-0.15-0.04-0.4-0.11-0.64l-1.23-4.4c-0.17-0.6-0.25-0.66-0.81-0.74v-0.16h2.51v0.16c-0.58 0.03-0.76 0.14-0.76 0.44 0 0.08 0.03 0.23 0.09 0.45l0.62 2.22c0.37-0.02 0.59-0.03 0.8-0.03 0.39 0 0.46-0.01 0.55-0.05 0.15-0.08 0.22-0.21 0.22-0.41 0-0.16-0.02-0.28-0.08-0.59l0.17-0.05 0.76 2.34-0.18 0.05c-0.45-0.9-0.48-0.91-2.15-0.93l0.65 2.32c0.06 0.2 0.2 0.26 0.61 0.26 1.68 0 2.03-0.13 2.03-0.75v-0.24c-0.01-0.06-0.01-0.07-0.03-0.19l0.22-0.02z"/></g>
  <g id="g5681" xml:space="preserve" ns0:pdfconverter="pstoedit" transform="matrix(1.75 0 0 -1.75 104.53 1338.5)" ns0:text="$\\vec{F}_{\\text{t}}$" ns0:version="0.7.2" ns0:inkscapeversion="0.91" ns0:preamble="/usr/share/inkscape/extensions/default_packages.tex" ns0:scale="1.4" ns0:texconverter="pdflatex"><polygon id="polygon5683" points="155.03 716.67 154.74 716.43 155.28 715.43 151.96 715.43 151.87 715.03 155.2 715.03 154.23 714.03 154.42 713.79 156.09 715.23"/><path id="path5685" d="m155.38 713.63h-4.96v-0.16c0.65-0.06 0.77-0.12 0.77-0.41 0-0.15-0.04-0.4-0.11-0.64l-1.23-4.4c-0.17-0.6-0.25-0.66-0.81-0.74v-0.16h2.51v0.16c-0.58 0.03-0.76 0.14-0.76 0.44 0 0.08 0.03 0.23 0.09 0.45l0.62 2.22c0.37-0.02 0.59-0.03 0.8-0.03 0.39 0 0.46-0.01 0.55-0.05 0.15-0.08 0.22-0.21 0.22-0.41 0-0.16-0.02-0.28-0.08-0.59l0.17-0.05 0.76 2.34-0.18 0.05c-0.45-0.9-0.48-0.91-2.15-0.93l0.65 2.32c0.06 0.2 0.2 0.26 0.61 0.26 1.68 0 2.03-0.13 2.03-0.75v-0.24c-0.01-0.06-0.01-0.07-0.03-0.19l0.22-0.02z"/><path id="path5687" d="m157.07 708.77h-0.7v0.81c0 0.07-0.01 0.09-0.05 0.09-0.05-0.07-0.09-0.13-0.14-0.2-0.26-0.38-0.56-0.72-0.68-0.74-0.07-0.05-0.11-0.1-0.11-0.14 0-0.02 0-0.03 0.02-0.05h0.37v-2.09c0-0.59 0.21-0.89 0.62-0.89 0.35 0 0.61 0.17 0.84 0.53l-0.09 0.08c-0.15-0.18-0.27-0.25-0.42-0.25-0.26 0-0.36 0.19-0.36 0.63v1.99h0.7z"/></g>
  <g id="g5917" xml:space="preserve" ns0:pdfconverter="pstoedit" transform="matrix(1.75 0 0 -1.75 146.41 1443.8)" ns0:text="$\\vec{F}_{\\text{r}}$" ns0:version="0.7.2" ns0:inkscapeversion="0.91" ns0:preamble="/usr/share/inkscape/extensions/default_packages.tex" ns0:scale="1.4" ns0:texconverter="pdflatex"><polygon id="polygon5919" points="154.42 713.79 156.09 715.23 155.03 716.67 154.74 716.43 155.28 715.43 151.96 715.43 151.87 715.03 155.2 715.03 154.23 714.03"/><path id="path5921" d="m155.38 713.63h-4.96v-0.16c0.65-0.06 0.77-0.12 0.77-0.41 0-0.15-0.04-0.4-0.11-0.64l-1.23-4.4c-0.17-0.6-0.25-0.66-0.81-0.74v-0.16h2.51v0.16c-0.58 0.03-0.76 0.14-0.76 0.44 0 0.08 0.03 0.23 0.09 0.45l0.62 2.22c0.37-0.02 0.59-0.03 0.8-0.03 0.39 0 0.46-0.01 0.55-0.05 0.15-0.08 0.22-0.21 0.22-0.41 0-0.16-0.02-0.28-0.08-0.59l0.17-0.05 0.76 2.34-0.18 0.05c-0.45-0.9-0.48-0.91-2.15-0.93l0.65 2.32c0.06 0.2 0.2 0.26 0.61 0.26 1.68 0 2.03-0.13 2.03-0.75v-0.24c-0.01-0.06-0.01-0.07-0.03-0.19l0.22-0.02z"/><path id="path5923" d="m155.34 708.35h0.01 0.01l0.01 0.01h0.01 0.02 0.01l0.02 0.01h0.01 0.02 0.01 0.02 0.01l0.01 0.01h0.02 0.01 0.02 0.01 0.02c0.17 0 0.23-0.11 0.23-0.42v-1.74c0-0.35-0.04-0.4-0.49-0.49v-0.1h1.67v0.1c-0.47 0.03-0.59 0.13-0.59 0.53v1.57c0 0.22 0.3 0.57 0.49 0.57 0.04 0 0.1-0.04 0.18-0.11 0.11-0.09 0.19-0.13 0.28-0.13 0.17 0 0.27 0.11 0.27 0.31 0 0.23-0.14 0.37-0.38 0.37-0.29 0-0.5-0.16-0.84-0.66v0.64l-0.03 0.02c-0.37-0.16-0.62-0.25-1.04-0.38z"/></g>
 </g>
</svg>
