<?xml version="1.0" encoding="UTF-8"?>
<svg width="459.05" height="297.86" version="1.1" viewBox="0 0 459.05 297.86" xmlns="http://www.w3.org/2000/svg" xmlns:cc="http://creativecommons.org/ns#" xmlns:dc="http://purl.org/dc/elements/1.1/" xmlns:rdf="http://www.w3.org/1999/02/22-rdf-syntax-ns#" xmlns:xlink="http://www.w3.org/1999/xlink">
 <style type="text/css">
  @import url('../estilo.css');
 </style>
 <metadata>
  <rdf:RDF>
   <cc:Work rdf:about="">
    <dc:format>image/svg+xml</dc:format>
    <dc:type rdf:resource="http://purl.org/dc/dcmitype/StillImage"/>
    <dc:title>Gnuplot</dc:title>
   </cc:Work>
  </rdf:RDF>
 </metadata>
 <defs>
  <marker id="marker1340" overflow="visible" orient="auto">
   <path transform="scale(.8)" d="m5.77 0-8.65 5v-10z" fill-rule="evenodd" stroke="#000" stroke-width="1pt"/>
  </marker>
 </defs>
 <title>Gnuplot</title>
 <desc>Produced by GNUPLOT 5.2 patchlevel 2</desc>
 <g id="gnuplot_canvas" transform="translate(214.05 60.68)">
  <rect width="240" height="180" fill="none"/>
  <defs>
   <circle id="gpPt5" r="1" stroke="currentColor" stroke-width=".222"/>
   <use id="gpPt6" width="100%" height="100%" fill="currentColor" xlink:href="#gpPt5"/>
  </defs>
  <g fill="none" stroke="currentColor">
   <g color="#000000">
    <path d="m48.5 139.5v4.5" stroke="#000"/>
    <g transform="translate(48.5,157.3)" fill="#000" font-family="'Stix Two Text'" font-size="13px" stroke="none" text-anchor="middle">
     <text>
      <tspan font-family="'Stix Two Text'">50</tspan>
     </text>
    </g>
   </g>
   <g color="#000000">
    <path d="m110.1 139.5v4.5" stroke="#000"/>
    <g transform="translate(110.1,157.3)" fill="#000" font-family="'Stix Two Text'" font-size="13px" stroke="none" text-anchor="middle">
     <text>
      <tspan font-family="'Stix Two Text'" font-style="italic">μ</tspan>
     </text>
    </g>
   </g>
   <g color="#000000">
    <path d="m20.7 18.1m0 121.4h194.3m0-121.4m-194.3 0" stroke="#000"/>
    <g transform="translate(123.1,77.4)" fill="#000" font-family="'Stix Two Text'" font-size="13px" stroke="none" text-anchor="middle">
     <text>
      <tspan font-family="'Stix Two Text'" font-style="italic">σ</tspan>
     </text>
    </g>
   </g>
   <g color="#808080">
    <path d="m110.1 139.5v-121.4" stroke="#808080" stroke-dasharray="2, 4"/>
   </g>
   <g color="#000000">
    <g fill="#000" shape-rendering="crispEdges" stroke="none">
     <polygon points="117.8 65.9 117.8 68.7 110.1 65.9 117.8 63.1"/>
     <polygon points="128.3 65.9 128.3 63.1 136 65.9 128.3 68.7"/>
    </g>
    <path d="m128.3 65.9h-10.5" stroke="#000"/>
   </g>
  </g>
  <g color="#000000" fill="none" stroke="currentColor">
   <path d="m20.7 139.2 0.8-0.1 2.2-0.1 2.3-0.1 2.2-0.2 2.3-0.3 2.2-0.3 2.2-0.4 2.3-0.6 2.2-0.6 2.3-0.8 2.2-0.9 2.3-1.2 2.2-1.3 2.2-1.6 2.3-1.9 2.2-2.2 2.3-2.6 2.2-2.9 2.3-3.2 2.2-3.7 2.2-4.1 2.3-4.5 2.2-4.8 2.3-5.3 2.2-5.5 2.3-5.9 2.2-6.1 2.2-6.3 2.3-6.3 2.2-6.4 2.3-6.2 2.2-6 2.3-5.7 2.2-5.3 2.2-4.7 2.3-4.2 2.2-3.4 2.3-2.6 2.2-1.8 2.3-0.9h2.2l2.2 0.9 2.3 1.8 2.2 2.6 2.3 3.4 2.2 4.2 2.3 4.7 2.2 5.3 2.2 5.7 2.3 6 2.2 6.2 2.3 6.4 2.2 6.3 2.3 6.3 2.2 6.1 2.2 5.9 2.3 5.5 2.2 5.3 2.3 4.8 2.2 4.5 2.3 4.1 2.2 3.7 2.2 3.2 2.3 2.9 2.2 2.6 2.3 2.2 2.2 1.9 2.3 1.6 2.2 1.3 2.2 1.2 2.3 0.9 2.2 0.8 2.3 0.6 2.2 0.6 2.3 0.4 4.4 0.6 2.3 0.2 2.2 0.1 2.3 0.1 2.2 0.1 2.3 0.1 2.2 0.1h6.7l2.3 0.1h0.6" stroke="#9400d3" stroke-dasharray="2.5, 4"/>
  </g>
  <g color="#000000" fill="none" stroke="currentColor">
   <use transform="matrix(2.25,0,0,2.25,120.6,139.5)" width="100%" height="100%" color="#000000" xlink:href="#gpPt6"/>
   <use transform="matrix(2.25,0,0,2.25,65.1,139.5)" width="100%" height="100%" color="#000000" xlink:href="#gpPt6"/>
   <use transform="matrix(2.25,0,0,2.25,142.8,139.5)" width="100%" height="100%" color="#000000" xlink:href="#gpPt6"/>
   <use transform="matrix(2.25,0,0,2.25,131.7,139.5)" width="100%" height="100%" color="#000000" xlink:href="#gpPt6"/>
   <use transform="matrix(2.25,0,0,2.25,98.4,139.5)" width="100%" height="100%" color="#000000" xlink:href="#gpPt6"/>
   <use transform="matrix(2.25,0,0,2.25,98.4,139.5)" width="100%" height="100%" color="#000000" xlink:href="#gpPt6"/>
   <use transform="matrix(2.25,0,0,2.25,148.4,139.5)" width="100%" height="100%" color="#000000" xlink:href="#gpPt6"/>
   <use transform="matrix(2.25,0,0,2.25,87.3,139.5)" width="100%" height="100%" color="#000000" xlink:href="#gpPt6"/>
   <use transform="matrix(2.25,0,0,2.25,98.4,139.5)" width="100%" height="100%" color="#000000" xlink:href="#gpPt6"/>
   <use transform="matrix(2.25,0,0,2.25,109.5,139.5)" width="100%" height="100%" color="#000000" xlink:href="#gpPt6"/>
  </g>
 </g>
 <g transform="translate(214.05 161.18)">
  <path d="m69.699-55.691v1h80.802v-1z" color="#000000" color-rendering="auto" dominant-baseline="auto" image-rendering="auto" shape-rendering="auto" solid-color="#000000" style="font-feature-settings:normal;font-variant-alternates:normal;font-variant-caps:normal;font-variant-ligatures:normal;font-variant-numeric:normal;font-variant-position:normal;isolation:auto;mix-blend-mode:normal;shape-padding:0;text-decoration-color:#000000;text-decoration-line:none;text-decoration-style:solid;text-indent:0;text-orientation:mixed;text-transform:none;white-space:normal"/>
  <path d="m71.118-50.754-12.018-4.4195 12.018-4.4195c-1.92 2.6093-1.909 6.1792 0 8.839z" fill-rule="evenodd"/>
  <path d="m149.08-59.629 12.018 4.4195-12.018 4.4195c1.92-2.6093 1.909-6.1792 0-8.839z" fill-rule="evenodd"/>
 </g>
 <g fill="#000000" font-size="16px" letter-spacing="0px" word-spacing="0px">
  <text x="4.1999998" y="16.68" font-family="'STIX Two Text'" style="font-feature-settings:normal;font-variant-caps:normal;font-variant-ligatures:normal;font-variant-numeric:normal;line-height:1.25" xml:space="preserve"><tspan x="4.1999998" y="16.68">Cualitativa (concepto)</tspan><tspan x="4.1999998" y="36.68">Cuantitativa (valor numérico)</tspan></text>
  <text x="205.36424" y="16.68" font-family="'STIX Two Math'" style="font-feature-settings:normal;font-variant-caps:normal;font-variant-ligatures:normal;font-variant-numeric:normal;line-height:1.25" xml:space="preserve"><tspan x="205.36424" y="16.68" style="font-feature-settings:normal;font-variant-caps:normal;font-variant-ligatures:normal;font-variant-numeric:normal">   →    </tspan><tspan x="205.36424" y="36.68" style="font-feature-settings:normal;font-variant-caps:normal;font-variant-ligatures:normal;font-variant-numeric:normal">   →   </tspan></text>
  <text x="242.46049" y="16.68" font-family="'STIX Two Text'" style="font-feature-settings:normal;font-variant-caps:normal;font-variant-ligatures:normal;font-variant-numeric:normal;line-height:1.25" xml:space="preserve"><tspan x="242.46049" y="16.68">Precisión.</tspan><tspan x="242.46049" y="36.68">Dispersión.</tspan></text>
 </g>
 <path d="m276.78 44.097 18.077 48.583" fill="none" marker-end="url(#marker1340)" stroke="#000" stroke-width="1px"/>
 <g transform="translate(188.05 285.18)">
  <path d="m85.1-55.691v1h40.402v-1z" color="#000000" color-rendering="auto" dominant-baseline="auto" image-rendering="auto" shape-rendering="auto" solid-color="#000000" style="font-feature-settings:normal;font-variant-alternates:normal;font-variant-caps:normal;font-variant-ligatures:normal;font-variant-numeric:normal;font-variant-position:normal;isolation:auto;mix-blend-mode:normal;shape-padding:0;text-decoration-color:#000000;text-decoration-line:none;text-decoration-style:solid;text-indent:0;text-orientation:mixed;text-transform:none;white-space:normal"/>
  <path d="m86.518-50.754-12.018-4.4195 12.018-4.4195c-1.92 2.6093-1.909 6.1792 0 8.839z" fill-rule="evenodd"/>
  <path d="m124.08-59.629 12.018 4.4195-12.018 4.4195c1.92-2.6093 1.909-6.1792 0-8.839z" fill-rule="evenodd"/>
 </g>
 <g fill="#000000" font-size="16px" letter-spacing="0px" word-spacing="0px">
  <text x="274.94214" y="252.67999" font-family="'STIX Two Text'" style="font-feature-settings:normal;font-variant-caps:normal;font-variant-ligatures:normal;font-variant-numeric:normal;line-height:1.25" xml:space="preserve"><tspan x="274.94214" y="252.67999">Error</tspan><tspan x="274.94214" y="272.67999">sistemático.</tspan><tspan x="274.94214" y="292.67999">Exactitud.</tspan></text>
  <text x="352.36215" y="252.67999" font-family="'STIX Two Text'" style="font-feature-settings:normal;font-variant-caps:normal;font-variant-ligatures:normal;font-variant-numeric:normal;line-height:1.25" xml:space="preserve"><tspan x="352.36215" y="252.67999"> = Sesgo.</tspan></text>
  <text x="237.86189" y="252.67999" font-family="'STIX Two Math'" style="font-feature-settings:normal;font-variant-caps:normal;font-variant-ligatures:normal;font-variant-numeric:normal;line-height:1.25" xml:space="preserve"><tspan x="237.86189" y="252.67999" style="font-feature-settings:normal;font-variant-caps:normal;font-variant-ligatures:normal;font-variant-numeric:normal">   →    </tspan><tspan x="237.86189" y="272.67999" style="font-feature-settings:normal;font-variant-caps:normal;font-variant-ligatures:normal;font-variant-numeric:normal"/><tspan x="237.86189" y="292.67999" style="font-feature-settings:normal;font-variant-caps:normal;font-variant-ligatures:normal;font-variant-numeric:normal">   →   </tspan></text>
  <text x="154.15215" y="252.67999" font-family="'STIX Two Text'" style="font-feature-settings:normal;font-variant-caps:normal;font-variant-ligatures:normal;font-variant-numeric:normal;line-height:1.25" xml:space="preserve"><tspan x="154.15215" y="252.67999">Cuantitativa</tspan><tspan x="154.15215" y="272.67999"/><tspan x="154.15215" y="292.67999">Cualitativa</tspan></text>
 </g>
</svg>
