<?xml version="1.0" encoding="UTF-8"?>
<!-- Created with Inkscape (http://www.inkscape.org/) -->
<svg width="387.67" height="211.47" version="1.1" viewBox="0 0 387.67 211.47" xmlns="http://www.w3.org/2000/svg" xmlns:cc="http://creativecommons.org/ns#" xmlns:dc="http://purl.org/dc/elements/1.1/" xmlns:rdf="http://www.w3.org/1999/02/22-rdf-syntax-ns#" xmlns:xlink="http://www.w3.org/1999/xlink">
 <style type="text/css">
  @import url('../estilo.css');
 </style>
 <defs>
  <marker id="Arrow2Mstart" overflow="visible" orient="auto">
   <path transform="scale(.6)" d="m8.7186 4.0337-10.926-4.0177 10.926-4.0177c-1.7455 2.3721-1.7354 5.6175-6e-7 8.0354z" fill-rule="evenodd" stroke="#000" stroke-linejoin="round" stroke-width=".625"/>
  </marker>
  <marker id="marker4763" overflow="visible" orient="auto">
   <path transform="scale(-.6)" d="m8.7186 4.0337-10.926-4.0177 10.926-4.0177c-1.7455 2.3721-1.7354 5.6175-6e-7 8.0354z" fill-rule="evenodd" stroke="#000" stroke-linejoin="round" stroke-width=".625"/>
  </marker>
  <marker id="marker4645" overflow="visible" orient="auto">
   <path transform="scale(-.6)" d="m8.7186 4.0337-10.926-4.0177 10.926-4.0177c-1.7455 2.3721-1.7354 5.6175-6e-7 8.0354z" fill-rule="evenodd" stroke="#000" stroke-linejoin="round" stroke-width=".625"/>
  </marker>
  <marker id="marker3797" overflow="visible" orient="auto">
   <path transform="scale(-.6)" d="m8.7186 4.0337-10.926-4.0177 10.926-4.0177c-1.7455 2.3721-1.7354 5.6175-6e-7 8.0354z" fill-rule="evenodd" stroke="#000" stroke-linejoin="round" stroke-width=".625"/>
  </marker>
  <marker id="Arrow1Lend" overflow="visible" orient="auto">
   <path transform="matrix(-.8 0 0 -.8 -10 0)" d="m0 0 5-5-17.5 5 17.5 5z" fill-rule="evenodd" stroke="#000" stroke-width="1pt"/>
  </marker>
  <pattern id="pattern2336-615-260-790-328" patternTransform="matrix(.98058 .98058 -.98058 .98058 245 82.52)" xlink:href="#Strips1_4-537-828-370-97"/>
  <pattern id="Strips1_4-537-828-370-97" width="5" height="1" patternTransform="translate(0) scale(10)" patternUnits="userSpaceOnUse">
   <rect y="-.5" width="1" height="2" fill="#f00"/>
  </pattern>
  <pattern id="pattern2305-916-46" patternTransform="matrix(.79678 .79678 -.79678 .79678 0 0)" xlink:href="#Strips1_1-651-550"/>
  <pattern id="Strips1_1-651-550" width="2" height="1" patternTransform="translate(0) scale(10)" patternUnits="userSpaceOnUse">
   <rect y="-.5" width="1" height="2" fill="#ccc"/>
  </pattern>
  <pattern id="pattern2309-903-302" patternTransform="matrix(.79678 .79678 -.79678 .79678 0 100)" xlink:href="#pattern2305-428-47"/>
  <pattern id="pattern2305-428-47" patternTransform="matrix(.79678 .79678 -.79678 .79678 0 0)" xlink:href="#Strips1_1-955-254"/>
  <pattern id="Strips1_1-955-254" width="2" height="1" patternTransform="translate(0) scale(10)" patternUnits="userSpaceOnUse">
   <rect y="-.5" width="1" height="2" fill="#ccc"/>
  </pattern>
 </defs>
 <metadata>
  <rdf:RDF>
   <cc:Work rdf:about="">
    <dc:format>image/svg+xml</dc:format>
    <dc:type rdf:resource="http://purl.org/dc/dcmitype/StillImage"/>
    <dc:title/>
   </cc:Work>
  </rdf:RDF>
 </metadata>
 <g transform="translate(-25 18.776)">
  <g fill="#fff" stroke="#000">
   <rect x="100" y="32.52" width="10" height="90"/>
   <rect x="80" y="72.52" width="20" height="10"/>
  </g>
  <rect x="190" y="32.52" width="20" height="90" fill="url(#pattern2336-615-260-790-328)" stroke="#f00"/>
  <g transform="translate(79)" fill="#fff" stroke="#000">
   <rect x="100" y="32.52" width="10" height="90"/>
   <rect x="80" y="72.52" width="20" height="10"/>
  </g>
  <g transform="translate(1)" fill="#fff" stroke="#000">
   <rect x="210" y="32.52" width="10" height="90"/>
   <rect x="220" y="72.52" width="20" height="10"/>
  </g>
  <g transform="translate(110)" fill="#fff" stroke="#000">
   <rect x="210" y="32.52" width="10" height="90"/>
   <rect x="220" y="72.52" width="20" height="10"/>
  </g>
  <g>
   <path d="m110 113.02h3v-1h-3zm6 0h3v-1h-3zm6 0h3v-1h-3zm6 0h3v-1h-3zm6 0h3v-1h-3zm6 0h3v-1h-3zm6 0h3v-1h-3zm6 0h3v-1h-3zm6 0h3v-1h-3zm6 0h3v-1h-3zm6 0h3v-1h-3zm6 0h3v-1h-3z" color="#000000" color-rendering="auto" dominant-baseline="auto" image-rendering="auto" shape-rendering="auto" solid-color="#000000" style="font-feature-settings:normal;font-variant-alternates:normal;font-variant-caps:normal;font-variant-ligatures:normal;font-variant-numeric:normal;font-variant-position:normal;isolation:auto;mix-blend-mode:normal;shape-padding:0;text-decoration-color:#000000;text-decoration-line:none;text-decoration-style:solid;text-indent:0;text-orientation:mixed;text-transform:none;white-space:normal"/>
   <path d="m167.98 108.08 12.018 4.4195-12.018 4.4195c1.92-2.6093 1.909-6.1792 0-8.839z" fill-rule="evenodd"/>
   <path d="m307.98 108.08 12.018 4.4195-12.018 4.4195c1.92-2.6093 1.909-6.1792 0-8.839z" fill-rule="evenodd"/>
  </g>
  <g stroke="#000">
   <path d="m220 112.52h100" fill="none" stroke-dasharray="3, 3"/>
   <path d="m30 77.52h40" fill="none" marker-end="url(#Arrow1Lend)" stroke-width="1px"/>
   <rect x="50" y="122.52" width="300" height="10" fill="url(#pattern2309-903-302)"/>
   <rect x="50" y="22.52" width="300" height="10" fill="url(#pattern2305-916-46)"/>
  </g>
  <g fill="#000000" font-family="'STIX Two Text'" font-size="16px" letter-spacing="0px" word-spacing="0px">
   <text x="114.88961" y="52.519653" style="font-feature-settings:normal;font-variant-caps:normal;font-variant-ligatures:normal;font-variant-numeric:normal;line-height:1.25" xml:space="preserve"><tspan x="114.88961" y="52.519653"><tspan font-family="'STIX Two Text'" font-style="italic">P</tspan><tspan dy="5" font-size="65%">1</tspan><tspan dy="-5">,</tspan> <tspan font-family="'STIX Two Text'" font-style="italic">V</tspan><tspan dy="5" font-size="65%">1</tspan><tspan dy="-5">,</tspan> <tspan font-family="'STIX Two Text'" font-style="italic">T</tspan><tspan dy="5" font-size="65%">1</tspan></tspan></text>
   <text x="125.078" y="102.51965" style="font-feature-settings:normal;font-variant-caps:normal;font-variant-ligatures:normal;font-variant-numeric:normal;line-height:1.25" xml:space="preserve"><tspan x="125.078" y="102.51965">1 mol</tspan></text>
   <text x="240.38962" y="52.519653" style="font-feature-settings:normal;font-variant-caps:normal;font-variant-ligatures:normal;font-variant-numeric:normal;line-height:1.25" xml:space="preserve"><tspan x="240.38962" y="52.519653"><tspan font-family="'STIX Two Text'" font-style="italic">P</tspan><tspan dy="5" font-size="65%">2</tspan><tspan dy="-5">,</tspan> <tspan font-family="'STIX Two Text'" font-style="italic">V</tspan><tspan dy="5" font-size="65%">2</tspan><tspan dy="-5">,</tspan> <tspan font-family="'STIX Two Text'" font-style="italic">T</tspan><tspan dy="5" font-size="65%">2</tspan></tspan></text>
  </g>
  <path d="m200 2.5197v30" fill="none" marker-end="url(#marker3797)" stroke="#000" stroke-width="1px"/>
  <text x="155.98299" y="-2.4803467" fill="#000000" font-family="'STIX Two Text'" font-size="16px" letter-spacing="0px" word-spacing="0px" style="font-feature-settings:normal;font-variant-caps:normal;font-variant-ligatures:normal;font-variant-numeric:normal;line-height:1.25" xml:space="preserve"><tspan x="155.98299" y="-2.4803467">tapón poroso</tspan></text>
  <path d="m300 2.5197-10 20" fill="none" marker-end="url(#marker4645)" stroke="#000" stroke-width="1px"/>
  <text x="277" y="-2.4803467" fill="#000000" font-family="'STIX Two Text'" font-size="16px" letter-spacing="0px" word-spacing="0px" style="font-feature-settings:normal;font-variant-caps:normal;font-variant-ligatures:normal;font-variant-numeric:normal;line-height:1.25" xml:space="preserve"><tspan x="277" y="-2.4803467">paredes adiabáticas</tspan></text>
  <path d="m105 122.52 55 50 55-50" fill="none" marker-end="url(#marker4763)" marker-start="url(#Arrow2Mstart)" stroke="#000" stroke-width="1px"/>
  <text x="103.51191" y="187.51965" fill="#000000" font-family="'STIX Two Text'" font-size="16px" letter-spacing="0px" word-spacing="0px" style="font-feature-settings:normal;font-variant-caps:normal;font-variant-ligatures:normal;font-variant-numeric:normal;line-height:1.25" xml:space="preserve"><tspan x="103.51191" y="187.51965">émbolos ficticios</tspan></text>
  <text x="81" y="112.63169" fill="#000000" font-family="'STIX Two Text'" font-size="16px" letter-spacing="0px" word-spacing="0px" style="font-feature-settings:normal;font-variant-caps:normal;font-variant-ligatures:normal;font-variant-numeric:normal;line-height:1.25" xml:space="preserve"><tspan x="81" y="112.63169">1</tspan></text>
  <circle cx="85" cy="107.52" r="10" fill="none" stroke="#000"/>
  <text x="231" y="102.63169" fill="#000000" font-family="'STIX Two Text'" font-size="16px" letter-spacing="0px" word-spacing="0px" style="font-feature-settings:normal;font-variant-caps:normal;font-variant-ligatures:normal;font-variant-numeric:normal;line-height:1.25" xml:space="preserve"><tspan x="231" y="102.63169">2</tspan></text>
  <circle cx="235" cy="97.52" r="10" fill="none" stroke="#000"/>
 </g>
</svg>
