<?xml version="1.0" encoding="UTF-8" standalone="no"?>
<svg id="svg4468" xmlns:rdf="http://www.w3.org/1999/02/22-rdf-syntax-ns#" xmlns="http://www.w3.org/2000/svg" xmlns:ns0="http://www.iki.fi/pav/software/textext/" height="300" width="300" version="1.1" xmlns:cc="http://creativecommons.org/ns#" xmlns:xlink="http://www.w3.org/1999/xlink" viewBox="0 0 300 300" xmlns:dc="http://purl.org/dc/elements/1.1/">
 <style type="text/css">
	@import url('../estilo.css');
 </style>
 <defs>
  <circle id="gpPt5" stroke-width=".222" cy="0" stroke="currentColor" cx="0" r="1"/>
  <use id="gpPt6" xlink:href="#gpPt5" fill="currentColor"/>
 </defs>
 <metadata id="metadata4724">
  <rdf:RDF>
   <cc:Work rdf:about="">
    <dc:format>image/svg+xml</dc:format>
    <dc:type rdf:resource="http://purl.org/dc/dcmitype/StillImage"/>
    <dc:title>Gnuplot</dc:title>
   </cc:Work>
  </rdf:RDF>
 </metadata>
 <title id="title4470">Gnuplot</title>
 <desc id="desc4472">Produced by GNUPLOT 5.0 patchlevel 3</desc>
 <g id="gnuplot_canvas">
  <rect id="rect4475" height="300" width="300" y="0" x="0" fill="none"/>
  <g id="gnuplot_plot_1a">
   <title id="title4512"/>
   <g id="g4516" color="black" stroke="currentColor" stroke-width=".75" fill="none">
    <path id="path4518" stroke="#e51e10" d="m147.8 243.1l-0.3-1.3-0.4-1.4-0.4-1.3-0.4-1.3-0.4-1.3-0.5-1.4-0.4-1.3-0.5-1.3-0.5-1.3-0.5-1.3-0.5-1.3-0.5-1.3-0.5-1.3-0.6-1.3-0.5-1.2-0.6-1.3-0.6-1.3-0.6-1.2-0.6-1.3-0.6-1.2-0.7-1.2-0.6-1.3-0.7-1.2-0.7-1.2-0.7-1.2-0.7-1.2-0.7-1.2-0.7-1.2-0.8-1.2-0.7-1.1-0.8-1.2-0.8-1.2-0.8-1.1-0.8-1.1-0.8-1.2-0.8-1.1-0.9-1.1-0.8-1.1-0.9-1.1-0.9-1.1-0.8-1-0.9-1.1-0.9-1.1-1-1-0.9-1-0.9-1.1-1-1-1-1-0.9-1-1-1-1-0.9-1-1-1-1-1.1-0.9-1-0.9-1-1-1.1-0.9-1.1-0.9-1-0.8-1.1-0.9-1.1-0.9-1.1-0.8-1.1-0.9-1.1-0.8-1.2-0.8-1.1-0.8-1.1-0.8-1.2-0.8-1.2-0.8-1.1-0.7-1.2-0.8-1.2-0.7-1.2-0.7-1.2-0.7-1.2-0.7-1.2-0.7-1.2-0.7-1.3-0.6-1.2-0.7-1.2-0.6-1.3-0.6-1.2-0.6-1.3-0.6-1.3-0.6-1.2-0.5-1.3-0.6-1.3-0.5-1.3-0.5-1.3-0.5-1.3-0.5-1.3-0.5-1.3-0.5-1.3-0.4-1.4-0.5-1.3-0.4-1.3-0.4-1.3-0.4-1.4-0.4-1.3-0.3"/>
   </g>
  </g>
  <g id="gnuplot_plot_2a">
   <title id="title4521"/>
   <g id="g4523" color="black" stroke="currentColor" stroke-width=".75" fill="none">
    <path id="path4525" stroke="#0072b2" d="m211.4 226.1l-0.5-2-0.6-2-0.6-2-0.6-2-0.6-2-0.7-2-0.7-2-0.7-1.9-0.7-2-0.7-2-0.8-1.9-0.8-1.9-0.8-2-0.8-1.9-0.8-1.9-0.9-1.9-0.9-1.9-0.9-1.9-0.9-1.8-1-1.9-0.9-1.9-1-1.8-1-1.8-1-1.9-1.1-1.8-1-1.8-1.1-1.8-1.1-1.7-1.1-1.8-1.1-1.8-1.2-1.7-1.2-1.7-1.2-1.8-1.2-1.7-1.2-1.7-1.2-1.6-1.3-1.7-1.3-1.6-1.3-1.7-1.3-1.6-1.3-1.6-1.4-1.6-1.3-1.6-1.4-1.6-1.4-1.5-1.4-1.6-1.4-1.5-1.5-1.5-1.4-1.5-1.5-1.5-1.5-1.4-1.5-1.5-1.5-1.4-1.6-1.4-1.5-1.4-1.6-1.4-1.6-1.3-1.6-1.4-1.6-1.3-1.6-1.3-1.7-1.3-1.6-1.3-1.7-1.3-1.6-1.2-1.7-1.2-1.7-1.2-1.8-1.2-1.7-1.2-1.7-1.2-1.8-1.1-1.8-1.1-1.7-1.1-1.8-1.1-1.8-1-1.8-1.1-1.9-1-1.8-1-1.8-1-1.9-0.9-1.9-1-1.8-0.9-1.9-0.9-1.9-0.9-1.9-0.9-1.9-0.8-1.9-0.8-2-0.8-1.9-0.8-1.9-0.8-2-0.7-2-0.7-1.9-0.7-2-0.7-2-0.7-2-0.6-2-0.6-2-0.6-2-0.6-2-0.5"/>
   </g>
  </g>
  <g stroke="currentColor" fill="none">
   <g id="g4537" color="black">
    <path id="path4539" stroke="#000" d="m20.7 277.2h254.3"/>
   </g>
   <g id="g4541" color="black">
    <path id="path4543" stroke="#000" d="m20.7 277.2v-254.3"/>
    <g id="g4545" font-size="16" transform="translate(275 292.2)" text-anchor="end" stroke="none" font-family="Stix Two Text" fill="#000">
     <text id="text4547">
      <tspan id="tspan4549" font-family="Stix Two Text" font-weight="bold" font-style="italic">x</tspan>
     </text>
    </g>
    <g id="g4551" font-size="16" transform="translate(14.5,28.9)" text-anchor="end" stroke="none" font-family="Stix Two Text" fill="#000">
     <text id="text4553">
      <tspan id="tspan4555" font-family="Stix Two Text" font-weight="bold" font-style="italic">y</tspan>
     </text>
    </g>
   </g>
   <g stroke-width=".5">
    <g id="g4559" color="black">
     <g id="g4561" stroke="none" shape-rendering="crispEdges">
      <polygon id="polygon4563" points="266.6 277.2 265.1 274.6 275 277.2 265.1 279.8" fill="#000"/>
     </g>
     <path id="path4565" stroke="#000" d="m266.6 277.2l-1.5-2.6 9.9 2.6-9.9 2.6 1.5-2.6m-4.3 0h4.3"/>
    </g>
    <g id="g4567" color="black">
     <g id="g4569" stroke="none" shape-rendering="crispEdges">
      <polygon id="polygon4571" points="20.7 31.3 18.1 32.8 20.7 22.9 23.3 32.8" fill="#000"/>
     </g>
     <path id="path4573" stroke="#000" d="m20.7 31.3l-2.6 1.5 2.6-9.9 2.6 9.9-2.6-1.5m0 4.3v-4.3"/>
    </g>
    <g id="g4575" color="gray">
     <path id="path4577" stroke="gray" stroke-dasharray="2,4" d="m20.7 277.2l254.3-68.1"/>
    </g>
    <g id="g4579" color="gray">
     <path id="path4581" stroke="gray" stroke-dasharray="2,4" d="m20.7 277.2l68.1-254.3"/>
    </g>
   </g>
   <g id="g4585" color="black" stroke-width=".75">
    <path id="path4587" stroke="#0072b2" d="m147.8 243.1l63.6-17"/>
   </g>
   <g id="g4589" color="black" stroke-width=".75">
    <path id="path4591" stroke="#e51e10" d="m54.8 150.1l17-63.6"/>
   </g>
   <g stroke-width="1.5">
    <g id="g4595" color="black">
     <g id="g4597" stroke="none" shape-rendering="crispEdges">
      <polygon id="polygon4599" points="87.9 259.3 94.2 262.8 84.3 260.2 91.5 253" fill="#000"/>
     </g>
     <path id="path4601" stroke="#000" d="m87.9 259.3l6.3 3.5-9.9-2.6 7.2-7.2-3.6 6.3m59.9-16.2l-59.9 16.2"/>
    </g>
    <g id="g4603" color="black">
     <g id="g4605" stroke="none" shape-rendering="crispEdges">
      <polygon id="polygon4607" points="176 235.5 169.7 232 179.6 234.6 172.4 241.8" fill="#e69f00"/>
     </g>
     <path id="path4609" stroke="#e69f00" d="m176 235.5l-6.3-3.5 9.9 2.6-7.2 7.2 3.6-6.3m-28.2 7.6l28.2-7.6"/>
    </g>
    <g id="g4611" color="black">
     <g id="g4613" stroke="none" shape-rendering="crispEdges">
      <polygon id="polygon4615" points="203.7 198 200.2 204.3 202.8 194.4 210.1 201.6" fill="#f0f"/>
     </g>
     <path id="path4617" stroke="#f0f" d="m203.7 198l-3.5 6.3 2.6-9.9 7.3 7.2-6.4-3.6m7.7 28.1l-7.7-28.1"/>
    </g>
   </g>
  </g>
  <g id="gnuplot_plot_1b">
   <title id="title4624">NaN</title>
  </g>
  <g stroke="currentColor" fill="none">
   <g id="g4634" color="black">
    <g id="g4636" stroke="none" shape-rendering="crispEdges">
     <polygon id="polygon4638" points="151 243.1 151 243 151 242.8 151 242.6 151 242.5 150.9 242.3 150.9 242.1 150.8 242 150.8 241.8 150.7 241.7 150.6 241.5 150.5 241.4 150.4 241.2 150.3 241.1 150.2 240.9 150.1 240.8 150 240.7 149.8 240.6 149.7 240.5 149.5 240.4 149.4 240.3 149.2 240.2 149.1 240.1 148.9 240.1 148.8 240 148.6 240 148.4 239.9 148.3 239.9 148.1 239.9 147.9 239.9 147.8 239.9 147.6 239.9 147.4 239.9 147.2 239.9 147.1 239.9 146.9 240 146.7 240 146.6 240.1 146.4 240.1 146.3 240.2 146.1 240.3 146 240.4 145.8 240.5 145.7 240.6 145.5 240.7 145.4 240.8 145.3 240.9 145.2 241.1 145.1 241.2 145 241.4 144.9 241.5 144.8 241.7 144.7 241.8 144.7 242 144.6 242.1 144.6 242.3 144.5 242.5 144.5 242.6 144.5 242.8 144.5 243 144.5 243.1 144.5 243.3 144.5 243.5 144.5 243.7 144.5 243.8 144.6 244 144.6 244.2 144.7 244.3 144.7 244.5 144.8 244.6 144.9 244.8 145 244.9 145.1 245.1 145.2 245.2 145.3 245.4 145.4 245.5 145.5 245.6 145.7 245.7 145.8 245.8 146 245.9 146.1 246 146.3 246.1 146.4 246.2 146.6 246.2 146.7 246.3 146.9 246.3 147.1 246.4 147.2 246.4 147.4 246.4 147.6 246.4 147.7 246.4 147.9 246.4 148.1 246.4 148.3 246.4 148.4 246.4 148.6 246.3 148.8 246.3 148.9 246.2 149.1 246.2 149.2 246.1 149.4 246 149.5 245.9 149.7 245.8 149.8 245.7 150 245.6 150.1 245.5 150.2 245.4 150.3 245.2 150.4 245.1 150.5 244.9 150.6 244.8 150.7 244.6 150.8 244.5 150.8 244.3 150.9 244.2 150.9 244 151 243.8 151 243.7 151 243.5 151 243.3" fill="#e51e10"/>
    </g>
   </g>
   <g id="g4640" color="black">
    <g id="g4642" stroke="none" shape-rendering="crispEdges">
     <polygon id="polygon4644" points="144.5 243.1 144.5 243.3 144.5 243.5 144.5 243.7 144.5 243.8 144.6 244 144.6 244.2 144.7 244.3 144.7 244.5 144.8 244.6 144.9 244.8 145 244.9 145.1 245.1 145.2 245.2 145.3 245.4 145.4 245.5 145.5 245.6 145.7 245.7 145.8 245.8 146 245.9 146.1 246 146.3 246.1 146.4 246.2 146.6 246.2 146.7 246.3 146.9 246.3 147.1 246.4 147.2 246.4 147.4 246.4 147.6 246.4 147.7 246.4 147.9 246.4 148.1 246.4 148.3 246.4 148.4 246.4 148.6 246.3 148.8 246.3 148.9 246.2 149.1 246.2 149.2 246.1 149.4 246 149.5 245.9 149.7 245.8 149.8 245.7 150 245.6 150.1 245.5 150.2 245.4 150.3 245.2 150.4 245.1 150.5 244.9 150.6 244.8 150.7 244.6 150.8 244.5 150.8 244.3 150.9 244.2 150.9 244 151 243.8 151 243.7 151 243.5 151 243.3 151 243.2 147.8 243.1" fill="#0072b2"/>
    </g>
   </g>
   <g id="g4646" color="black">
    <g id="g4648" stroke="none" shape-rendering="crispEdges">
     <polygon id="polygon4650" points="75 86.5 75 86.4 75 86.2 75 86 75 85.9 74.9 85.7 74.9 85.5 74.8 85.4 74.8 85.2 74.7 85.1 74.6 84.9 74.5 84.8 74.4 84.6 74.3 84.5 74.2 84.3 74.1 84.2 74 84.1 73.8 84 73.7 83.9 73.5 83.8 73.4 83.7 73.2 83.6 73.1 83.5 72.9 83.5 72.8 83.4 72.6 83.4 72.4 83.3 72.3 83.3 72.1 83.3 71.9 83.3 71.8 83.3 71.6 83.3 71.4 83.3 71.2 83.3 71.1 83.3 70.9 83.4 70.7 83.4 70.6 83.5 70.4 83.5 70.3 83.6 70.1 83.7 70 83.8 69.8 83.9 69.7 84 69.5 84.1 69.4 84.2 69.3 84.3 69.2 84.5 69.1 84.6 69 84.8 68.9 84.9 68.8 85.1 68.7 85.2 68.7 85.4 68.6 85.5 68.6 85.7 68.5 85.9 68.5 86 68.5 86.2 68.5 86.4 68.5 86.5 68.5 86.7 68.5 86.9 68.5 87.1 68.5 87.2 68.6 87.4 68.6 87.6 68.7 87.7 68.7 87.9 68.8 88 68.9 88.2 69 88.3 69.1 88.5 69.2 88.6 69.3 88.8 69.4 88.9 69.5 89 69.7 89.1 69.8 89.2 70 89.3 70.1 89.4 70.3 89.5 70.4 89.6 70.6 89.6 70.7 89.7 70.9 89.7 71.1 89.8 71.2 89.8 71.4 89.8 71.6 89.8 71.7 89.8 71.9 89.8 72.1 89.8 72.3 89.8 72.4 89.8 72.6 89.7 72.8 89.7 72.9 89.6 73.1 89.6 73.2 89.5 73.4 89.4 73.5 89.3 73.7 89.2 73.8 89.1 74 89 74.1 88.9 74.2 88.8 74.3 88.6 74.4 88.5 74.5 88.3 74.6 88.2 74.7 88 74.8 87.9 74.8 87.7 74.9 87.6 74.9 87.4 75 87.2 75 87.1 75 86.9 75 86.7" fill="#e51e10"/>
    </g>
   </g>
   <g id="g4652" color="black">
    <g id="g4654" stroke="none" shape-rendering="crispEdges">
     <polygon id="polygon4656" points="68.5 86.5 68.5 86.7 68.5 86.9 68.5 87.1 68.5 87.2 68.6 87.4 68.6 87.6 68.7 87.7 68.7 87.9 68.8 88 68.9 88.2 69 88.3 69.1 88.5 69.2 88.6 69.3 88.8 69.4 88.9 69.5 89 69.7 89.1 69.8 89.2 70 89.3 70.1 89.4 70.3 89.5 70.4 89.6 70.6 89.6 70.7 89.7 70.9 89.7 71.1 89.8 71.2 89.8 71.4 89.8 71.6 89.8 71.7 89.8 71.9 89.8 72.1 89.8 72.3 89.8 72.4 89.8 72.6 89.7 72.8 89.7 72.9 89.6 73.1 89.6 73.2 89.5 73.4 89.4 73.5 89.3 73.7 89.2 73.8 89.1 74 89 74.1 88.9 74.2 88.8 74.3 88.6 74.4 88.5 74.5 88.3 74.6 88.2 74.7 88 74.8 87.9 74.8 87.7 74.9 87.6 74.9 87.4 75 87.2 75 87.1 75 86.9 75 86.7 75 86.6 71.8 86.5" fill="#0072b2"/>
     <g id="g4658" font-size="12" transform="translate(215.9,226.1)" stroke="none" font-family="Arial" fill="#000">
      <text id="text4660"/>
     </g>
    </g>
   </g>
   <g id="g4662" color="black">
    <use id="use4664" color="rgb(  0, 114, 178)" xlink:href="#gpPt6" transform="translate(211.4,226.1) scale(3.38)"/>
   </g>
   <g id="g4666" color="black">
    <g id="g4668" font-size="12" transform="translate(215.9,226.1)" stroke="none" font-family="Arial" fill="#000">
     <text id="text4670"/>
    </g>
   </g>
   <g id="g4672" color="black">
    <use id="use4674" color="black" xlink:href="#gpPt5" transform="translate(211.4,226.1) scale(3.38)"/>
   </g>
   <g id="g4676" color="black">
    <g id="g4678" font-size="12" transform="translate(59.3,150.1)" stroke="none" font-family="Arial" fill="#000">
     <text id="text4680"/>
    </g>
   </g>
   <g id="g4682" color="black">
    <use id="use4684" color="rgb(229,  30,  16)" xlink:href="#gpPt6" transform="translate(54.8,150.1) scale(3.38)"/>
   </g>
   <g id="g4686" color="black">
    <g id="g4688" font-size="12" transform="translate(59.3,150.1)" stroke="none" font-family="Arial" fill="#000">
     <text id="text4690"/>
    </g>
   </g>
   <g id="g4692" color="black">
    <use id="use4694" color="black" xlink:href="#gpPt5" transform="translate(54.8,150.1) scale(3.38)"/>
   </g>
   <g id="g4696" color="black">
    <g id="g4698" font-size="12" transform="translate(152.3,243.1)" stroke="none" font-family="Arial" fill="#000">
     <text id="text4700"/>
    </g>
   </g>
   <g id="g4702" color="black">
    <use id="use4704" color="black" xlink:href="#gpPt5" transform="translate(147.8,243.1) scale(3.38)"/>
   </g>
   <g id="g4706" color="black">
    <g id="g4708" font-size="12" transform="translate(76.3,86.5)" stroke="none" font-family="Arial" fill="#000">
     <text id="text4710"/>
    </g>
   </g>
   <g id="g4712" color="black">
    <use id="use4714" color="black" xlink:href="#gpPt5" transform="translate(71.8,86.5) scale(3.38)"/>
   </g>
  </g>
 </g>
 <g stroke-width="0" fill-rule="evenodd" stroke="#000" stroke-miterlimit="10.433">
  <g id="content" xml:space="preserve" ns0:pdfconverter="pstoedit" transform="matrix(1.75 0 0 -1.75 -231.29 1390.9)" ns0:text="$O_2$" ns0:version="0.7.2" ns0:inkscapeversion="0.91" ns0:preamble="/usr/share/inkscape/extensions/default_packages.tex" ns0:scale="1.4" ns0:texconverter="pdflatex"><path id="path4867" d="m153.43 713.76h-0.08l-0.08-0.01h-0.07l-0.08-0.01-0.08-0.01-0.08-0.01-0.08-0.02-0.08-0.02-0.08-0.02-0.09-0.02-0.08-0.02-0.08-0.03-0.08-0.02-0.08-0.04-0.08-0.03-0.08-0.03-0.08-0.04-0.08-0.04-0.08-0.04-0.08-0.04-0.08-0.05-0.08-0.04-0.15-0.11-0.16-0.1-0.15-0.12-0.16-0.13-0.15-0.13c-1-0.92-1.59-2.14-1.59-3.31 0-1.39 0.9-2.38 2.17-2.38 2.07 0 4.08 2.09 4.19 4.35 0.07 1.4-0.9 2.47-2.24 2.47l-0.09-0.33c0.79 0 1.29-0.58 1.29-1.52 0-1.07-0.47-2.53-1.12-3.46-0.55-0.79-1.16-1.18-1.86-1.18-0.84 0-1.3 0.61-1.3 1.69 0 0.93 0.5 2.42 1.1 3.28 0.56 0.81 1.17 1.19 1.89 1.19l0.09 0.33z"/><path id="path4869" d="m159.21 706.59-0.09 0.03c-0.25-0.4-0.34-0.46-0.66-0.46h-1.67l1.18 1.23c0.62 0.65 0.89 1.18 0.89 1.72 0 0.7-0.57 1.23-1.29 1.23-0.38 0-0.75-0.15-1-0.43-0.23-0.24-0.33-0.46-0.45-0.95l0.14-0.04c0.28 0.68 0.53 0.91 1.02 0.91 0.58 0 0.98-0.4 0.98-0.99 0-0.54-0.32-1.19-0.91-1.81l-1.24-1.32v-0.08h2.72z"/></g>
  <g id="g5155" xml:space="preserve" ns0:pdfconverter="pstoedit" transform="matrix(1.75 0 0 -1.75 -212.69 1327.1)" ns0:text="$P_2$" ns0:version="0.7.2" ns0:inkscapeversion="0.91" ns0:preamble="/usr/share/inkscape/extensions/default_packages.tex" ns0:scale="1.4" ns0:texconverter="pdflatex"><path id="path5157" d="m150.41 713.47h0.03l0.02-0.01h0.05l0.05-0.01 0.05-0.01 0.04-0.01h0.04l0.04-0.01 0.03-0.01 0.04-0.01 0.03-0.01 0.03-0.01 0.03-0.01 0.02-0.01 0.03-0.01 0.02-0.01 0.02-0.01 0.02-0.01 0.01-0.01 0.02-0.02 0.02-0.01 0.01-0.02 0.01-0.01 0.01-0.02 0.01-0.02 0.01-0.01v-0.02l0.01-0.02v-0.02l0.01-0.02v-0.02-0.03-0.02c0-0.14-0.04-0.35-0.17-0.8l-1.18-4.23c-0.17-0.6-0.25-0.66-0.81-0.74v-0.16h2.44v0.16c-0.63 0.09-0.68 0.12-0.68 0.46 0 0.12 0.02 0.22 0.12 0.58l0.53 1.92 0.09 0.34 0.7 2.47c0.07 0.21 0.19 0.28 0.46 0.28 0.39 0 0.77-0.1 0.97-0.24 0.26-0.18 0.37-0.48 0.37-0.95 0-0.64-0.23-1.1-0.67-1.36-0.31-0.17-0.7-0.25-1.31-0.25-0.17 0-0.25 0.01-0.52 0.05l-0.09-0.34c0.25-0.06 0.51-0.08 0.92-0.08 0.81 0 1.48 0.17 1.91 0.48 0.5 0.37 0.79 0.92 0.79 1.5 0 0.96-0.75 1.49-2.11 1.49h-2.47z"/><path id="path5159" d="m158.36 706.59-0.09 0.03c-0.26-0.4-0.35-0.46-0.66-0.46h-1.67l1.17 1.23c0.62 0.65 0.89 1.18 0.89 1.72 0 0.7-0.56 1.23-1.29 1.23-0.38 0-0.74-0.15-1-0.43-0.22-0.24-0.33-0.46-0.45-0.95l0.15-0.04c0.28 0.68 0.53 0.91 1.01 0.91 0.59 0 0.98-0.4 0.98-0.99 0-0.54-0.32-1.19-0.9-1.81l-1.24-1.32v-0.08h2.72z"/></g>
  <g id="g5747" xml:space="preserve" ns0:scale="1.4" ns0:pdfconverter="pstoedit" transform="matrix(1.75 0 0 -1.75 -151.61 1483.7)" ns0:text="$\\vec{F}$" ns0:version="0.7.2" ns0:inkscapeversion="0.91" ns0:preamble="/usr/share/inkscape/extensions/default_packages.tex" ns0:texconverter="pdflatex"><polygon id="polygon5749" points="156.09 715.23 155.03 716.67 154.74 716.43 155.28 715.43 151.96 715.43 151.87 715.03 155.2 715.03 154.23 714.03 154.42 713.79"/><path id="path5751" d="m155.38 713.63h-4.96v-0.16c0.65-0.06 0.77-0.12 0.77-0.41 0-0.15-0.04-0.4-0.11-0.64l-1.23-4.4c-0.17-0.6-0.25-0.66-0.81-0.74v-0.16h2.51v0.16c-0.58 0.03-0.76 0.14-0.76 0.44 0 0.08 0.03 0.23 0.09 0.45l0.62 2.22c0.37-0.02 0.59-0.03 0.8-0.03 0.39 0 0.46-0.01 0.55-0.05 0.15-0.08 0.22-0.21 0.22-0.41 0-0.16-0.02-0.28-0.08-0.59l0.17-0.05 0.76 2.34-0.18 0.05c-0.45-0.9-0.48-0.91-2.15-0.93l0.65 2.32c0.06 0.2 0.2 0.26 0.61 0.26 1.68 0 2.03-0.13 2.03-0.75v-0.24c-0.01-0.06-0.01-0.07-0.03-0.19l0.22-0.02z"/></g>
  <g id="g6163" xml:space="preserve" ns0:pdfconverter="pstoedit" transform="matrix(1.75 0 0 -1.75 -117.5 1498.8)" ns0:text="$\nP_1\n$" ns0:version="0.7.2" ns0:inkscapeversion="0.91" ns0:preamble="/usr/share/inkscape/extensions/default_packages.tex" ns0:scale="1.4" ns0:texconverter="pdflatex"><path id="path6165" d="m150.41 713.47h0.03l0.02-0.01h0.05l0.05-0.01 0.05-0.01 0.04-0.01h0.04l0.04-0.01 0.03-0.01 0.04-0.01 0.03-0.01 0.03-0.01 0.03-0.01 0.02-0.01 0.03-0.01 0.02-0.01 0.02-0.01 0.02-0.01 0.01-0.01 0.02-0.02 0.02-0.01 0.01-0.02 0.01-0.01 0.01-0.02 0.01-0.02 0.01-0.01v-0.02l0.01-0.02v-0.02l0.01-0.02v-0.02-0.03-0.02c0-0.14-0.04-0.35-0.17-0.8l-1.18-4.23c-0.17-0.6-0.25-0.66-0.81-0.74v-0.16h2.44v0.16c-0.63 0.09-0.68 0.12-0.68 0.46 0 0.12 0.02 0.22 0.12 0.58l0.53 1.92 0.09 0.34 0.7 2.47c0.07 0.21 0.19 0.28 0.46 0.28 0.39 0 0.77-0.1 0.97-0.24 0.26-0.18 0.37-0.48 0.37-0.95 0-0.64-0.23-1.1-0.67-1.36-0.31-0.17-0.7-0.25-1.31-0.25-0.17 0-0.25 0.01-0.52 0.05l-0.09-0.34c0.25-0.06 0.51-0.08 0.92-0.08 0.81 0 1.48 0.17 1.91 0.48 0.5 0.37 0.79 0.92 0.79 1.5 0 0.96-0.75 1.49-2.11 1.49h-2.47z"/><path id="path6167" d="m157.08 710.34-1.26-0.63v-0.1c0.08 0.04 0.16 0.06 0.19 0.08 0.12 0.05 0.24 0.08 0.31 0.08 0.15 0 0.21-0.11 0.21-0.33v-3.16c0-0.23-0.05-0.39-0.16-0.45-0.11-0.07-0.21-0.09-0.5-0.1v-0.1h1.92v0.1c-0.55 0.01-0.66 0.08-0.66 0.42v4.18z"/></g>
  <g id="g6471" xml:space="preserve" ns0:pdfconverter="pstoedit" transform="matrix(1.75 0 0 -1.75 -105.59 1467.9)" ns0:text="$d\\vec{r}$" ns0:version="0.7.2" ns0:inkscapeversion="0.91" ns0:preamble="/usr/share/inkscape/extensions/default_packages.tex" ns0:scale="1.4" ns0:texconverter="pdflatex"><path id="path6473" d="m153.32 708.23-0.02-0.03-0.03-0.03-0.02-0.03-0.02-0.02-0.03-0.03-0.02-0.02-0.02-0.03-0.02-0.02-0.02-0.02-0.02-0.02-0.02-0.03-0.02-0.02-0.02-0.02-0.01-0.02-0.04-0.03-0.03-0.04-0.03-0.03-0.03-0.03-0.03-0.03-0.02-0.02-0.03-0.03-0.02-0.02-0.02-0.02-0.03-0.01-0.02-0.02-0.01-0.02-0.02-0.01-0.02-0.01-0.02-0.01-0.01-0.01-0.02-0.01h-0.02l-0.01-0.01h-0.02-0.01l-0.02-0.01h-0.01-0.03c-0.1 0-0.18 0.09-0.18 0.2 0 0.14 0.32 1.36 0.64 2.45 0.27 0.92 0.48 1.72 0.99 3.71l-0.05 0.05c-0.53-0.11-0.89-0.17-1.52-0.23v-0.17c0.54-0.02 0.61-0.05 0.61-0.26 0-0.13-0.01-0.19-0.15-0.7l-0.43-1.63c-0.08 0.42-0.26 0.58-0.65 0.58l0.04-0.23c0.3-0.02 0.45-0.21 0.45-0.57 0-1.51-1.04-3.23-1.96-3.23-0.34 0-0.57 0.27-0.57 0.66 0 0.83 0.49 1.98 1.15 2.68 0.28 0.29 0.65 0.48 0.93 0.46l-0.04 0.23c-1.3 0-2.91-1.88-2.91-3.37 0-0.71 0.4-1.14 1.05-1.14 0.67 0 1.11 0.32 1.79 1.32-0.11-0.51-0.13-0.66-0.13-0.89 0-0.27 0.17-0.45 0.42-0.45 0.42 0 0.93 0.41 1.45 1.14z"/><polygon id="polygon6475" points="157.82 714.32 158.36 713.32 155.03 713.32 154.94 712.93 158.28 712.93 157.3 711.92 157.49 711.68 159.16 713.12 158.11 714.56"/><path id="path6477" d="m155.16 707.12 0.05 0.16 0.05 0.15 0.04 0.14 0.04 0.13 0.05 0.13 0.03 0.12 0.04 0.12 0.04 0.11 0.03 0.11 0.04 0.1 0.03 0.1 0.03 0.09 0.04 0.09 0.03 0.08 0.03 0.08 0.03 0.08 0.03 0.08 0.03 0.07 0.06 0.14 0.07 0.14 0.06 0.13 0.07 0.13 0.07 0.13 0.08 0.13 0.04 0.07 0.04 0.07c0.33 0.56 0.61 0.87 0.78 0.87 0.06 0 0.11-0.04 0.16-0.14 0.08-0.17 0.16-0.22 0.36-0.22 0.29 0 0.46 0.18 0.46 0.49s-0.19 0.52-0.47 0.52c-0.23 0-0.5-0.15-0.76-0.42-0.41-0.42-0.81-1.01-0.97-1.41l-0.14-0.36 0.53 2.17-0.03 0.02c-0.73-0.13-0.82-0.15-1.54-0.27v-0.17c0.24 0.05 0.27 0.05 0.34 0.05 0.21 0 0.35-0.1 0.35-0.28 0-0.14 0-0.14-0.17-0.82l-0.8-2.91z"/></g>
  <g id="g6789" xml:space="preserve" ns0:pdfconverter="pstoedit" transform="matrix(1.75 0 0 -1.75 -54.2 1481.9)" ns0:text="$O_1$" ns0:version="0.7.2" ns0:inkscapeversion="0.91" ns0:preamble="/usr/share/inkscape/extensions/default_packages.tex" ns0:scale="1.4" ns0:texconverter="pdflatex"><path id="path6791" d="m153.43 713.76h-0.08l-0.08-0.01h-0.07l-0.08-0.01-0.08-0.01-0.08-0.01-0.08-0.02-0.08-0.02-0.08-0.02-0.09-0.02-0.08-0.02-0.08-0.03-0.08-0.02-0.08-0.04-0.08-0.03-0.08-0.03-0.08-0.04-0.08-0.04-0.08-0.04-0.08-0.04-0.08-0.05-0.08-0.04-0.15-0.11-0.16-0.1-0.15-0.12-0.16-0.13-0.15-0.13c-1-0.92-1.59-2.14-1.59-3.31 0-1.39 0.9-2.38 2.17-2.38 2.07 0 4.08 2.09 4.19 4.35 0.07 1.4-0.9 2.47-2.24 2.47l-0.09-0.33c0.79 0 1.29-0.58 1.29-1.52 0-1.07-0.47-2.53-1.12-3.46-0.55-0.79-1.16-1.18-1.86-1.18-0.84 0-1.3 0.61-1.3 1.69 0 0.93 0.5 2.42 1.1 3.28 0.56 0.81 1.17 1.19 1.89 1.19l0.09 0.33z"/><path id="path6793" d="m157.93 710.34-1.25-0.63v-0.1c0.08 0.04 0.16 0.06 0.19 0.08 0.12 0.05 0.24 0.08 0.31 0.08 0.14 0 0.21-0.11 0.21-0.33v-3.16c0-0.23-0.06-0.39-0.17-0.45-0.1-0.07-0.2-0.09-0.49-0.1v-0.1h1.92v0.1c-0.55 0.01-0.66 0.08-0.66 0.42v4.18z"/></g>
  <g id="g7111" xml:space="preserve" ns0:pdfconverter="pstoedit" transform="matrix(1.75 0 0 -1.75 -47.747 1446.7)" ns0:text="$d\\vec{l}$" ns0:version="0.7.2" ns0:inkscapeversion="0.91" ns0:preamble="/usr/share/inkscape/extensions/default_packages.tex" ns0:scale="1.4" ns0:texconverter="pdflatex"><path id="path7113" d="m153.32 708.23-0.02-0.03-0.03-0.03-0.02-0.03-0.02-0.02-0.03-0.03-0.02-0.02-0.02-0.03-0.02-0.02-0.02-0.02-0.02-0.02-0.02-0.03-0.02-0.02-0.02-0.02-0.01-0.02-0.04-0.03-0.03-0.04-0.03-0.03-0.03-0.03-0.03-0.03-0.02-0.02-0.03-0.03-0.02-0.02-0.02-0.02-0.03-0.01-0.02-0.02-0.01-0.02-0.02-0.01-0.02-0.01-0.02-0.01-0.01-0.01-0.02-0.01h-0.02l-0.01-0.01h-0.02-0.01l-0.02-0.01h-0.01-0.03c-0.1 0-0.18 0.09-0.18 0.2 0 0.14 0.32 1.36 0.64 2.45 0.27 0.92 0.48 1.72 0.99 3.71l-0.05 0.05c-0.53-0.11-0.89-0.17-1.52-0.23v-0.17c0.54-0.02 0.61-0.05 0.61-0.26 0-0.13-0.01-0.19-0.15-0.7l-0.43-1.63c-0.08 0.42-0.26 0.58-0.65 0.58l0.04-0.23c0.3-0.02 0.45-0.21 0.45-0.57 0-1.51-1.04-3.23-1.96-3.23-0.34 0-0.57 0.27-0.57 0.66 0 0.83 0.49 1.98 1.15 2.68 0.28 0.29 0.65 0.48 0.93 0.46l-0.04 0.23c-1.3 0-2.91-1.88-2.91-3.37 0-0.71 0.4-1.14 1.05-1.14 0.67 0 1.11 0.32 1.79 1.32-0.11-0.51-0.13-0.66-0.13-0.89 0-0.27 0.17-0.45 0.42-0.45 0.42 0 0.93 0.41 1.45 1.14z"/><polygon id="polygon7115" points="154.96 715.24 158.29 715.24 157.32 714.24 157.51 714 159.18 715.44 158.12 716.88 157.84 716.64 158.37 715.64 155.05 715.64"/><path id="path7117" d="m156.23 708.35-0.07-0.08-0.03-0.05-0.03-0.04-0.04-0.04-0.03-0.04-0.03-0.05-0.04-0.04c-0.32-0.42-0.51-0.57-0.69-0.57-0.09 0-0.14 0.07-0.14 0.18 0 0.07 0.03 0.19 0.08 0.39 0 0.03 0.02 0.08 0.03 0.1l1.5 5.77-0.05 0.05c-0.59-0.13-0.97-0.2-1.55-0.27v-0.16c0.47 0 0.67-0.07 0.67-0.23 0-0.03-0.01-0.09-0.04-0.18l-1.36-5.26c-0.03-0.11-0.05-0.21-0.05-0.26 0-0.36 0.17-0.56 0.49-0.56 0.52 0 0.86 0.29 1.51 1.25z"/></g>
 </g>
</svg>
