<?xml version="1.0" encoding="UTF-8" standalone="no"?>
<svg id="svg4348" xmlns:rdf="http://www.w3.org/1999/02/22-rdf-syntax-ns#" xmlns="http://www.w3.org/2000/svg" xmlns:ns0="http://www.iki.fi/pav/software/textext/" height="120" width="80" version="1.1" xmlns:cc="http://creativecommons.org/ns#" xmlns:xlink="http://www.w3.org/1999/xlink" viewBox="0 0 80 120" xmlns:dc="http://purl.org/dc/elements/1.1/">
 <style type="text/css">
	 @import url('../estilo.css');
 </style>
 <defs>
  <path id="gpPt1" stroke="currentColor" stroke-width=".222" d="m-1-1l2 2m0-2l-2 2"/>
  <circle id="gpPt5" stroke-width=".222" cy="0" stroke="currentColor" cx="0" r="1"/>
  <use id="gpPt6" xlink:href="#gpPt5" fill="currentColor"/>
 </defs>
 <metadata id="metadata4466">
  <rdf:RDF>
   <cc:Work rdf:about="">
    <dc:format>image/svg+xml</dc:format>
    <dc:type rdf:resource="http://purl.org/dc/dcmitype/StillImage"/>
    <dc:title>Gnuplot</dc:title>
   </cc:Work>
  </rdf:RDF>
 </metadata>
 <title id="title4350">Gnuplot</title>
 <desc id="desc4352">Produced by GNUPLOT 5.0 patchlevel 3</desc>
 <g id="gnuplot_canvas">
  <g fill="none">
   <rect id="rect4355" height="120" width="80" y="0" x="0"/>
   <g stroke="currentColor">
    <g id="g4391" color="black" stroke-width=".75">
     <path id="path4393" stroke="#000" stroke-dasharray="1.9,3.0" d="m8.3 117.8l65.3-113.2"/>
    </g>
    <g id="g4397" color="black" stroke-width="1.5">
     <g id="g4399" stroke="none" shape-rendering="crispEdges">
      <polygon id="polygon4401" points="45.7 53.1 38.6 55 47.5 49.9 47.5 60.1" fill="#0072b2"/>
     </g>
     <path id="path4403" stroke="#0072b2" d="m45.7 53.1l-7.1 1.9 8.9-5.1v10.2l-1.8-7m-24.3 42.1l24.3-42.1"/>
    </g>
    <g id="g4405" color="black" stroke-width="1.5">
     <g id="g4407" stroke="none" shape-rendering="crispEdges">
      <polygon id="polygon4409" points="58.8 30.5 51.7 32.4 60.6 27.3 60.6 37.5" fill="#e69f00"/>
     </g>
     <path id="path4411" stroke="#e69f00" d="m58.8 30.5l-7.1 1.9 8.9-5.1v10.2l-1.8-7m-11.3 19.4l11.3-19.4"/>
    </g>
   </g>
  </g>
  <g id="gnuplot_plot_1">
   <title id="title4418">NaN</title>
  </g>
  <g stroke="currentColor" fill="none">
   <g id="g4424" color="black" stroke-width="2">
    <g id="g4426" font-size="12" transform="translate(52 49.9)" stroke="none" font-family="Arial" fill="#000">
     <text id="text4428"/>
    </g>
   </g>
   <g>
    <g id="g4432" color="black">
     <use id="use4434" color="black" xlink:href="#gpPt1" transform="translate(47.5 49.9) scale(4.5)"/>
    </g>
    <g id="g4436" color="black">
     <g id="g4438" font-size="16" transform="translate(3.1,101.2)" stroke="none" font-family="Stix Two Text" fill="#000">
      <text id="text4440">
       <tspan id="tspan4442" font-family="Stix Two Text" font-style="italic">O</tspan>
      </text>
     </g>
    </g>
    <g id="g4444" color="black">
     <use id="use4446" color="rgb(229,  30,  16)" xlink:href="#gpPt6" transform="translate(21.4,95.2) scale(3.38)"/>
    </g>
    <g id="g4448" color="black">
     <g id="g4450" font-size="16" transform="translate(25.9,96.7)" stroke="none" font-family="Stix Two Text" fill="#000">
      <text id="text4452"/>
     </g>
    </g>
    <g id="g4454" color="black">
     <use id="use4456" color="black" xlink:href="#gpPt5" transform="translate(21.4,95.2) scale(3.38)"/>
    </g>
   </g>
  </g>
 </g>
 <g id="content" xml:space="preserve" stroke="#000" stroke-width="0" fill-rule="evenodd" ns0:pdfconverter="pstoedit" transform="matrix(1.75 0 0 -1.75 -223.57 1321.3)" stroke-miterlimit="10.433" ns0:text="$\\vec{r}$" ns0:version="0.7.2" ns0:inkscapeversion="0.91" ns0:preamble="/usr/share/inkscape/extensions/default_packages.tex" ns0:scale="1.4" ns0:texconverter="pdflatex"><polygon id="polygon4539" points="152.57 714.32 153.11 713.32 149.78 713.32 149.69 712.93 153.03 712.93 152.05 711.92 152.24 711.68 153.91 713.12 152.86 714.56"/><path id="path4541" d="m149.91 707.12 0.05 0.16 0.05 0.15 0.04 0.14 0.04 0.13 0.05 0.13 0.03 0.12 0.04 0.12 0.04 0.11 0.03 0.11 0.04 0.1 0.03 0.1 0.03 0.09 0.04 0.09 0.03 0.08 0.03 0.08 0.03 0.08 0.03 0.08 0.03 0.07 0.06 0.14 0.07 0.14 0.06 0.13 0.07 0.13 0.07 0.13 0.08 0.13 0.04 0.07 0.04 0.07c0.33 0.56 0.61 0.87 0.78 0.87 0.06 0 0.11-0.04 0.16-0.14 0.08-0.17 0.16-0.22 0.36-0.22 0.29 0 0.46 0.18 0.46 0.49s-0.2 0.52-0.47 0.52c-0.23 0-0.5-0.15-0.76-0.42-0.41-0.42-0.81-1.01-0.97-1.41l-0.14-0.36 0.53 2.17-0.03 0.02c-0.73-0.13-0.82-0.15-1.54-0.27v-0.17c0.24 0.05 0.27 0.05 0.34 0.05 0.21 0 0.34-0.1 0.34-0.28 0-0.14 0-0.14-0.16-0.82l-0.8-2.91z"/></g>
 <g id="g4687" xml:space="preserve" stroke="#000" stroke-width="0" fill-rule="evenodd" ns0:pdfconverter="pstoedit" transform="matrix(1.75 0 0 -1.75 -222.2 1272.7)" stroke-miterlimit="10.433" ns0:text="$\\vec{F}$" ns0:version="0.7.2" ns0:inkscapeversion="0.91" ns0:preamble="/usr/share/inkscape/extensions/default_packages.tex" ns0:scale="1.4" ns0:texconverter="pdflatex"><polygon id="polygon4689" points="154.74 716.43 155.28 715.43 151.96 715.43 151.87 715.03 155.2 715.03 154.23 714.03 154.42 713.79 156.09 715.23 155.03 716.67"/><path id="path4691" d="m155.38 713.63h-4.96v-0.16c0.65-0.06 0.77-0.12 0.77-0.41 0-0.15-0.04-0.4-0.11-0.64l-1.23-4.4c-0.17-0.6-0.25-0.66-0.81-0.74v-0.16h2.51v0.16c-0.58 0.03-0.76 0.14-0.76 0.44 0 0.08 0.03 0.23 0.09 0.45l0.62 2.22c0.37-0.02 0.59-0.03 0.8-0.03 0.39 0 0.46-0.01 0.55-0.05 0.15-0.08 0.22-0.21 0.22-0.41 0-0.16-0.02-0.28-0.08-0.59l0.17-0.05 0.76 2.34-0.18 0.05c-0.45-0.9-0.48-0.91-2.15-0.93l0.65 2.32c0.06 0.2 0.2 0.26 0.61 0.26 1.68 0 2.03-0.13 2.03-0.75v-0.24c-0.01-0.06-0.01-0.07-0.03-0.19l0.22-0.02z"/></g>
</svg>
