<?xml version="1.0" encoding="UTF-8" standalone="no"?>
<svg id="svg5968" xmlns:rdf="http://www.w3.org/1999/02/22-rdf-syntax-ns#" xmlns="http://www.w3.org/2000/svg" xmlns:ns0="http://www.iki.fi/pav/software/textext/" height="400" width="400" version="1.1" xmlns:cc="http://creativecommons.org/ns#" xmlns:xlink="http://www.w3.org/1999/xlink" viewBox="0 0 400 400" xmlns:dc="http://purl.org/dc/elements/1.1/">
 <defs>
  <circle id="gpPt5" stroke-width=".222" stroke="currentColor" cy="0" cx="0" r="1"/>
  <use id="gpPt6" xlink:href="#gpPt5" fill="currentColor"/>
 </defs>
 <metadata id="metadata6151">
  <rdf:RDF>
   <cc:Work rdf:about="">
    <dc:format>image/svg+xml</dc:format>
    <dc:type rdf:resource="http://purl.org/dc/dcmitype/StillImage"/>
    <dc:title>Gnuplot</dc:title>
   </cc:Work>
  </rdf:RDF>
 </metadata>
 <title id="title5970">Gnuplot</title>
 <desc id="desc5972">Produced by GNUPLOT 5.0 patchlevel 3</desc>
 <g id="gnuplot_canvas">
  <rect id="rect5975" height="400" width="400" y="0" x="0" fill="none"/>
  <g id="g6009" color="gray" stroke="currentColor" fill="none">
   <path id="path6011" stroke="gray" stroke-dasharray="2,4" d="m47.4 373.7v-173.7"/>
  </g>
  <g id="gnuplot_plot_1a">
   <title id="title6016"/>
   <g id="g6018" color="black" fill="none">
    <g id="g6020" shape-rendering="crispEdges">
     <polygon id="polygon6022" points="371.5 200 368.6 202.5 364.6 204.8 359.7 207.2 353.8 209.5 347 211.7 339.6 213.8 331.4 215.7 322.7 217.6 313.5 219.4 304 221 294.2 222.4 284.3 223.8 274.2 225 264.2 226 254.2 227 244.3 227.8 234.6 228.5 225.1 229.1 215.9 229.6 206.9 230 198.2 230.3 189.8 230.5 181.7 230.6 174 230.7 166.5 230.7 159.4 230.7 152.6 230.6 146.1 230.5 140 230.4 134.1 230.2 128.5 229.9 123.1 229.7 118 229.4 113.2 229.1 108.6 228.8 104.3 228.5 100.1 228.2 96.2 227.8 92.5 227.5 88.9 227.1 85.6 226.8 82.4 226.4 79.3 226 76.5 225.7 73.7 225.3 71.1 224.9 68.6 224.5 66.3 224.2 64.1 223.8 61.9 223.4 59.9 223.1 58 222.7 56.2 222.3 54.4 222 52.8 221.6 51.2 221.3 49.7 220.9 48.2 220.6 46.9 220.3 45.6 219.9 44.3 219.6 43.1 219.3 42 218.9 40.9 218.6 39.9 218.3 38.9 218 38 217.7 37.1 217.4 36.3 217.1 35.5 216.8 34.7 216.5 33.9 216.2 33.2 215.9 32.6 215.6 31.9 215.3 31.3 215.1 30.7 214.8 30.2 214.5 29.7 214.2 29.1 214 28.7 213.7 28.2 213.5 27.8 213.2 27.4 213 27 212.7 26.6 212.5 26.2 212.2 25.9 212 25.6 211.7 25.2 211.5 25 211.3 24.7 211 24.4 210.8 24.2 210.6 23.9 210.3 23.7 210.1 23.5 209.9 23.3 209.7 23.1 209.5 23 209.3 22.8 209 22.6 208.8 22.5 208.6 22.4 208.4 22.3 208.2 22.1 208 22 207.8 22 207.6 21.9 207.4 21.8 207.2 21.7 207 21.7 206.8 21.6 206.6 21.6 206.4 21.5 206.2 21.5 206 21.5 205.8 21.5 205.7 21.5 205.5 21.5 205.3 21.5 205.1 21.5 204.9 21.5 204.7 21.6 204.5 21.6 204.4 21.6 204.2 21.7 204 21.7 203.8 21.8 203.6 21.8 203.5 21.9 203.3 22 203.1 22.1 202.9 22.1 202.7 22.2 202.6 22.3 202.4 22.4 202.2 22.5 202 22.7 201.9 22.8 201.7 22.9 201.5 23 201.3 23.2 201.2 23.3 201 23.5 200.8 23.6 200.7 23.8 200.5 23.9 200.3 24.1 200.1 24.3 200 24.4 199.8 24.6 199.6 24.8 199.4 25 199.3 25.2 199.1 25.4 198.9 25.6 198.8 25.8 198.6 26.1 198.4 26.3 198.2 26.5 198.1 26.8 197.9 27 197.7 27.3 197.5 27.5 197.4 27.8 197.2 28.1 197 28.4 196.8 28.7 196.6 29 196.5 29.3 196.3 29.6 196.1 29.9 195.9 30.2 195.7 30.5 195.6 30.9 195.4 31.2 195.2 31.6 195 31.9 194.8 32.3 194.6 32.7 194.4 33.1 194.3 33.5 194.1 33.9 193.9 34.3 193.7 34.7 193.5 35.2 193.3 35.6 193.1 36.1 192.9 36.6 192.7 37.1 192.5 37.5 192.3 38.1 192.1 38.6 191.9 39.1 191.7 39.7 191.5 40.2 191.3 40.8 191.1 41.4 190.8 42 190.6 42.6 190.4 43.2 190.2 43.9 190 44.5 189.8 45.2 189.5 45.9 189.3 46.6 189.1 47.4 188.8 48.1 188.6 48.9 188.4 49.7 188.1 50.5 187.9 51.4 187.6 52.3 187.4 53.2 187.1 54.1 186.9 55 186.6 56 186.4 57 186.1 58 185.9 59.1 185.6 60.2 185.3 61.3 185 62.5 184.8 63.7 184.5 64.9 184.2 66.2 183.9 67.5 183.6 68.9 183.3 70.3 183 71.8 182.7 73.3 182.4 74.8 182.1 76.4 181.8 78.1 181.5 79.8 181.2 81.6 180.8 83.4 180.5 85.3 180.2 87.3 179.8 89.3 179.5 91.4 179.2 93.6 178.8 95.9 178.5 98.3 178.1 100.8 177.8 103.3 177.4 106 177 108.7 176.7 111.6 176.3 114.5 175.9 117.6 175.6 120.9 175.2 124.2 174.8 127.7 174.4 131.3 174.1 135.1 173.7 139 173.3 143.1 173 147.4 172.6 151.8 172.3 156.4 171.9 161.2 171.6 166.2 171.3 171.4 171 176.8 170.7 182.4 170.4 188.2 170.2 194.3 169.9 200.6 169.7 207.1 169.6 213.8 169.5 220.8 169.4 227.9 169.4 235.3 169.4 242.9 169.5 250.7 169.6 258.6 169.8 266.7 170.1 274.9 170.5 283.2 171 291.5 171.6 299.8 172.3 308.1 173.1 316.2 174.1 324.1 175.1 331.7 176.3 339 177.7 345.9 179.1 352.2 180.7 357.8 182.5 362.8 184.4 367 186.3 370.2 188.4 372.6 190.6 373.9 192.9 374.2 195.3 373.4 197.6" fill="#ffa070" fill-opacity=".3"/>
    </g>
    <path id="path6024" stroke="#000" d="m371.5 200l-2.9 2.5-4 2.3-4.9 2.4-5.9 2.3-6.8 2.2-7.4 2.1-8.2 1.9-8.7 1.9-9.2 1.8-9.5 1.6-9.8 1.4-9.9 1.4-10.1 1.2-10 1-10 1-9.9 0.8-9.7 0.7-9.5 0.6-9.2 0.5-9 0.4-8.7 0.3-8.4 0.2-8.1 0.1-7.7 0.1h-7.5-7.1l-6.8-0.1-6.5-0.1-6.1-0.1-5.9-0.2-5.6-0.3-5.4-0.2-5.1-0.3-4.8-0.3-4.6-0.3-4.3-0.3-4.2-0.3-3.9-0.4-3.7-0.3-3.6-0.4-3.3-0.3-3.2-0.4-3.1-0.4-2.8-0.3-2.8-0.4-2.6-0.4-2.5-0.4-2.3-0.3-2.2-0.4-2.2-0.4-2-0.3-1.9-0.4-1.8-0.4-1.8-0.3-1.6-0.4-1.6-0.3-1.5-0.4-1.5-0.3-1.3-0.3-1.3-0.4-1.3-0.3-1.2-0.3-1.1-0.4-1.1-0.3-1-0.3-1-0.3-0.9-0.3-0.9-0.3-0.8-0.3-0.8-0.3-0.8-0.3-0.8-0.3-0.7-0.3-0.6-0.3-0.7-0.3-0.6-0.2-0.6-0.3-0.5-0.3-0.5-0.3-0.6-0.2-0.4-0.3-0.5-0.2-0.4-0.3-0.4-0.2-0.4-0.3-0.4-0.2-0.4-0.3-0.3-0.2-0.3-0.3-0.4-0.2-0.2-0.2-0.3-0.3-0.3-0.2-0.2-0.2-0.3-0.3-0.2-0.2-0.2-0.2-0.2-0.2-0.2-0.2-0.1-0.2-0.2-0.3-0.2-0.2-0.1-0.2-0.1-0.2-0.1-0.2-0.2-0.2-0.1-0.2v-0.2l-0.1-0.2-0.1-0.2-0.1-0.2v-0.2l-0.1-0.2v-0.2l-0.1-0.2v-0.2-0.2-0.1-0.2-0.2-0.2-0.2-0.2l0.1-0.2v-0.1-0.2l0.1-0.2v-0.2l0.1-0.2v-0.1l0.1-0.2 0.1-0.2 0.1-0.2v-0.2l0.1-0.1 0.1-0.2 0.1-0.2 0.1-0.2 0.2-0.1 0.1-0.2 0.1-0.2 0.1-0.2 0.2-0.1 0.1-0.2 0.2-0.2 0.1-0.1 0.2-0.2 0.1-0.2 0.2-0.2 0.2-0.1 0.1-0.2 0.2-0.2 0.2-0.2 0.2-0.1 0.2-0.2 0.2-0.2 0.2-0.1 0.2-0.2 0.3-0.2 0.2-0.2 0.2-0.1 0.3-0.2 0.2-0.2 0.3-0.2 0.2-0.1 0.3-0.2 0.3-0.2 0.3-0.2 0.3-0.2 0.3-0.1 0.3-0.2 0.3-0.2 0.3-0.2 0.3-0.2 0.3-0.1 0.4-0.2 0.3-0.2 0.4-0.2 0.3-0.2 0.4-0.2 0.4-0.2 0.4-0.1 0.4-0.2 0.4-0.2 0.4-0.2 0.4-0.2 0.5-0.2 0.4-0.2 0.5-0.2 0.5-0.2 0.5-0.2 0.4-0.2 0.6-0.2 0.5-0.2 0.5-0.2 0.6-0.2 0.5-0.2 0.6-0.2 0.6-0.3 0.6-0.2 0.6-0.2 0.6-0.2 0.7-0.2 0.6-0.2 0.7-0.3 0.7-0.2 0.7-0.2 0.8-0.3 0.7-0.2 0.8-0.2 0.8-0.3 0.8-0.2 0.9-0.3 0.9-0.2 0.9-0.3 0.9-0.2 0.9-0.3 1-0.2 1-0.3 1-0.2 1.1-0.3 1.1-0.3 1.1-0.3 1.2-0.2 1.2-0.3 1.2-0.3 1.3-0.3 1.3-0.3 1.4-0.3 1.4-0.3 1.5-0.3 1.5-0.3 1.5-0.3 1.6-0.3 1.7-0.3 1.7-0.3 1.8-0.4 1.8-0.3 1.9-0.3 2-0.4 2-0.3 2.1-0.3 2.2-0.4 2.3-0.3 2.4-0.4 2.5-0.3 2.5-0.4 2.7-0.4 2.7-0.3 2.9-0.4 2.9-0.4 3.1-0.3 3.3-0.4 3.3-0.4 3.5-0.4 3.6-0.3 3.8-0.4 3.9-0.4 4.1-0.3 4.3-0.4 4.4-0.3 4.6-0.4 4.8-0.3 5-0.3 5.2-0.3 5.4-0.3 5.6-0.3 5.8-0.2 6.1-0.3 6.3-0.2 6.5-0.1 6.7-0.1 7-0.1h7.1 7.4l7.6 0.1 7.8 0.1 7.9 0.2 8.1 0.3 8.2 0.4 8.3 0.5 8.3 0.6 8.3 0.7 8.3 0.8 8.1 1 7.9 1 7.6 1.2 7.3 1.4 6.9 1.4 6.3 1.6 5.6 1.8 5 1.9 4.2 1.9 3.2 2.1 2.4 2.2 1.3 2.3 0.3 2.4-0.8 2.3-1.9 2.4"/>
   </g>
  </g>
  <g id="gnuplot_plot_2a">
   <title id="title6027">xp(ri*cos(t*pi-pi/2.),ri*sin(t*pi-pi/2.),0),yp(ri*cos(t*pi-pi/2.),ri*sin(t*pi-pi/2.),0)</title>
   <g id="g6029" color="black" stroke="currentColor" fill="none">
    <path id="path6031" stroke="#000" stroke-dasharray="1.0,2.0" d="m108.8 138.7h1.9 1.8 1.8 1.8 1.8l1.8 0.1h1.7l1.8 0.1h1.8l1.7 0.1 1.8 0.1h1.7l1.7 0.1 1.7 0.1 1.7 0.1 1.7 0.1 1.7 0.1 1.7 0.2 1.7 0.1 1.6 0.1 1.7 0.1 1.6 0.2 1.6 0.1 1.6 0.2 1.6 0.2 1.6 0.1 1.6 0.2 1.6 0.2 1.5 0.2 1.6 0.2 1.5 0.2 1.5 0.2 1.5 0.2 1.5 0.2 1.5 0.3 1.4 0.2 1.5 0.2 1.4 0.3 1.5 0.2 1.4 0.3 1.4 0.3 1.3 0.2 1.4 0.3 1.4 0.3 1.3 0.3 1.3 0.3 1.3 0.3 1.3 0.3 1.3 0.3 1.3 0.3 1.2 0.4 1.2 0.3 1.3 0.3 1.2 0.4 1.1 0.3 1.2 0.4 1.2 0.3 1.1 0.4 1.1 0.4 1.1 0.4 1.1 0.3 1.1 0.4 1 0.4 1.1 0.4 1 0.4 1 0.4 1 0.5 0.9 0.4 1 0.4 0.9 0.4 0.9 0.5 0.9 0.4 0.9 0.4 0.8 0.5 0.9 0.5 0.8 0.4 0.8 0.5 0.8 0.4 0.7 0.5 0.8 0.5 0.7 0.5 0.7 0.5 0.7 0.5 0.7 0.5 0.6 0.5 0.7 0.5 0.6 0.5 0.6 0.5 0.6 0.5 0.5 0.5 0.5 0.5 0.6 0.6 0.5 0.5 0.4 0.5 0.5 0.6 0.4 0.5 0.4 0.6 0.4 0.5 0.4 0.6 0.4 0.5 0.3 0.6 0.3 0.6 0.3 0.5 0.3 0.6 0.3 0.6 0.2 0.6 0.2 0.5 0.2 0.6 0.2 0.6 0.1 0.6 0.2 0.6 0.1 0.6 0.1 0.6 0.1 0.6v0.6 0.6l0.1 0.6-0.1 0.6v0.6 0.6l-0.1 0.6-0.1 0.7-0.1 0.6-0.1 0.6-0.2 0.6-0.1 0.6-0.2 0.7-0.2 0.6-0.3 0.6-0.2 0.7-0.3 0.6-0.3 0.6-0.3 0.7-0.3 0.6-0.4 0.6-0.3 0.7-0.4 0.6-0.4 0.6-0.5 0.7-0.4 0.6-0.5 0.7-0.5 0.6-0.5 0.7-0.5 0.6-0.6 0.6-0.5 0.7-0.6 0.6-0.6 0.7-0.7 0.6-0.6 0.7-0.7 0.6-0.7 0.7-0.7 0.6-0.7 0.7-0.7 0.6-0.8 0.6-0.8 0.7-0.8 0.6-0.8 0.7-0.8 0.6-0.8 0.7-0.9 0.6-0.9 0.6-0.9 0.7-0.9 0.6-1 0.6-0.9 0.7-1 0.6-1 0.6-1 0.7-1 0.6-1.1 0.6-1.1 0.7-1 0.6-1.1 0.6-1.1 0.6-1.2 0.6-1.1 0.7-1.2 0.6-1.2 0.6-1.2 0.6-1.2 0.6-1.2 0.6-1.2 0.6-1.3 0.6-1.3 0.6-1.3 0.6-1.3 0.6-1.3 0.6-1.3 0.6-1.4 0.6-1.3 0.6-1.4 0.5-1.4 0.6-1.4 0.6-1.4 0.6-1.5 0.5-1.4 0.6-1.5 0.6-1.4 0.5-1.5 0.6-1.5 0.5-1.5 0.6-1.6 0.5-1.5 0.6-1.5 0.5-1.6 0.5-1.6 0.6-1.6 0.5-1.6 0.5-1.6 0.5-1.6 0.5-1.6 0.5-1.7 0.5-1.6 0.5-1.7 0.5-1.6 0.5-1.7 0.5-1.7 0.5-1.7 0.5-1.7 0.5-1.8 0.4-1.7 0.5-1.7 0.4-1.8 0.5-1.7 0.5-1.8 0.4-1.8 0.4-1.8 0.5-1.8 0.4-1.7 0.4-1.9 0.4-1.8 0.5-1.8 0.4-1.8 0.4-1.8 0.4-1.9 0.4-1.8 0.4-1.9 0.3-1.8 0.4-1.9 0.4-1.9 0.4-1.8 0.3-1.9 0.4-1.9 0.3-1.9 0.4-1.9 0.3-1.9 0.3-1.9 0.4-1.9 0.3-1.9 0.3-1.9 0.3-1.9 0.3-1.9 0.3-2 0.3-1.9 0.3-1.9 0.3-1.9 0.2-2 0.3-1.9 0.3-1.9 0.2-1.9 0.3-2 0.2-1.9 0.2-2 0.3-1.9 0.2-1.9 0.2-2 0.2-1.9 0.2-1.9 0.2-2 0.2-1.9 0.2-1.9 0.2-2 0.1-1.9 0.2-1.9 0.2-1.9 0.1-2 0.2-1.9 0.1-1.9 0.1-1 0.1"/>
   </g>
  </g>
  <g id="g6045" color="black" stroke-width="1.5" fill="none">
   <g id="g6047" shape-rendering="crispEdges">
    <polygon id="polygon6049" points="217.4 200 212.2 194.9 221.1 200 212.2 205.1" fill="#000"/>
   </g>
   <path id="path6051" stroke="#000" d="m217.4 200l-5.2-5.1 8.9 5.1-8.9 5.1 5.2-5.1m-170 0h170"/>
  </g>
  <g id="g6053" color="black" stroke-width="1.5" fill="none">
   <g id="g6055" shape-rendering="crispEdges">
    <polygon id="polygon6057" points="279.9 141.3 272.6 141.3 282.5 138.7 279.9 148.6" fill="#0072b2"/>
   </g>
   <path id="path6059" stroke="#0072b2" d="m279.9 141.3h-7.3l9.9-2.6-2.6 9.9v-7.3m-58.8 58.7l58.8-58.7"/>
  </g>
  <g id="gnuplot_plot_1b">
   <title id="title6066"/>
   <g id="g6068" color="black" fill="none">
    <g id="g6070" shape-rendering="crispEdges">
     <polygon id="polygon6072" points="53.3 200 53.2 200.1 53.2 200.1 53.1 200.2 53.1 200.2 53 200.3 53 200.3 52.9 200.4 52.8 200.4 52.8 200.4 52.7 200.5 52.6 200.5 52.6 200.6 52.5 200.6 52.4 200.6 52.3 200.7 52.3 200.7 52.2 200.8 52.1 200.8 52 200.8 51.9 200.9 51.8 200.9 51.7 201 51.6 201 51.5 201 51.4 201.1 51.3 201.1 51.2 201.2 51.1 201.2 51 201.2 50.9 201.3 50.8 201.3 50.7 201.3 50.6 201.4 50.5 201.4 50.4 201.4 50.3 201.5 50.1 201.5 50 201.5 49.9 201.6 49.8 201.6 49.7 201.6 49.5 201.6 49.4 201.7 49.3 201.7 49.2 201.7 49.1 201.7 48.9 201.8 48.8 201.8 48.7 201.8 48.5 201.8 48.4 201.9 48.3 201.9 48.2 201.9 48 201.9 47.9 201.9 47.8 201.9 47.6 202 47.5 202 47.4 202 47.3 202 47.1 202 47 202 46.9 202 46.7 202.1 46.6 202.1 46.5 202.1 46.4 202.1 46.2 202.1 46.1 202.1 46 202.1 45.8 202.1 45.7 202.1 45.6 202.1 45.5 202.1 45.4 202.1 45.2 202.1 45.1 202.1 45 202.1 44.9 202.1 44.8 202.1 44.6 202.1 44.5 202.1 44.4 202.1 44.3 202.1 44.2 202.1 44.1 202 44 202 43.9 202 43.8 202 43.7 202 43.6 202 43.5 202 43.4 202 43.3 201.9 43.2 201.9 43.1 201.9 43 201.9 42.9 201.9 42.8 201.8 42.7 201.8 42.6 201.8 42.6 201.8 42.5 201.8 42.4 201.7 42.3 201.7 42.3 201.7 42.2 201.7 42.1 201.6 42.1 201.6 42 201.6 41.9 201.5 41.9 201.5 41.8 201.5 41.8 201.4 41.7 201.4 41.7 201.4 41.6 201.3 41.6 201.3 41.5 201.3 41.5 201.2 41.5 201.2 41.4 201.2 41.4 201.1 41.4 201.1 41.4 201.1 41.3 201 41.3 201 41.3 200.9 41.3 200.9 41.3 200.9 41.3 200.8 41.3 200.8 41.3 200.7 41.3 200.7 41.3 200.7 41.3 200.6 41.3 200.6 41.3 200.5 41.3 200.5 41.3 200.5 41.4 200.4 41.4 200.4 41.4 200.3 41.4 200.3 41.5 200.2 41.5 200.2 41.5 200.2 41.6 200.1 41.6 200.1 41.6 200 41.7 200 41.7 199.9 41.8 199.9 41.8 199.9 41.9 199.8 42 199.8 42 199.7 42.1 199.7 42.1 199.6 42.2 199.6 42.3 199.6 42.4 199.5 42.4 199.5 42.5 199.4 42.6 199.4 42.7 199.4 42.8 199.3 42.8 199.3 42.9 199.2 43 199.2 43.1 199.2 43.2 199.1 43.3 199.1 43.4 199 43.5 199 43.6 199 43.7 198.9 43.8 198.9 43.9 198.9 44 198.8 44.1 198.8 44.2 198.8 44.3 198.7 44.5 198.7 44.6 198.7 44.7 198.6 44.8 198.6 44.9 198.6 45 198.5 45.2 198.5 45.3 198.5 45.4 198.4 45.5 198.4 45.6 198.4 45.8 198.4 45.9 198.3 46 198.3 46.1 198.3 46.3 198.3 46.4 198.3 46.5 198.2 46.7 198.2 46.8 198.2 46.9 198.2 47 198.2 47.2 198.1 47.3 198.1 47.4 198.1 47.6 198.1 47.7 198.1 47.8 198.1 47.9 198.1 48.1 198.1 48.2 198 48.3 198 48.5 198 48.6 198 48.7 198 48.8 198 49 198 49.1 198 49.2 198 49.3 198 49.5 198 49.6 198 49.7 198 49.8 198 49.9 198 50.1 198 50.2 198 50.3 198 50.4 198 50.5 198 50.6 198 50.7 198 50.9 198.1 51 198.1 51.1 198.1 51.2 198.1 51.3 198.1 51.4 198.1 51.5 198.1 51.6 198.2 51.7 198.2 51.8 198.2 51.9 198.2 51.9 198.2 52 198.2 52.1 198.3 52.2 198.3 52.3 198.3 52.4 198.3 52.4 198.4 52.5 198.4 52.6 198.4 52.7 198.4 52.7 198.5 52.8 198.5 52.9 198.5 52.9 198.5 53 198.6 53 198.6 53.1 198.6 53.1 198.7 53.2 198.7 53.2 198.7 53.3 198.8 53.3 198.8 53.4 198.8 53.4 198.9 53.4 198.9 53.5 198.9 53.5 199 53.5 199 53.5 199.1 53.5 199.1 53.6 199.1 53.6 199.2 53.6 199.2 53.6 199.3 53.6 199.3 53.6 199.3 53.6 199.4 53.6 199.4 53.6 199.5 53.6 199.5 53.6 199.5 53.6 199.6 53.6 199.6 53.5 199.7 53.5 199.7 53.5 199.7 53.5 199.8 53.4 199.8 53.4 199.9 53.4 199.9 53.3 200 53.3 200" fill="#0f0"/>
    </g>
    <path id="path6074" stroke="#000" d="m53.3 200l-0.1 0.1-0.1 0.1-0.1 0.1-0.1 0.1h-0.1l-0.1 0.1h-0.1v0.1h-0.1-0.1l-0.1 0.1-0.1 0.1h-0.1-0.1l-0.1 0.1h-0.1l-0.1 0.1h-0.1-0.1l-0.1 0.1h-0.1l-0.1 0.1h-0.1-0.1l-0.1 0.1h-0.1-0.1l-0.1 0.1h-0.1-0.1l-0.1 0.1h-0.2-0.1l-0.1 0.1h-0.1-0.1-0.2l-0.1 0.1h-0.1-0.1-0.1l-0.2 0.1h-0.1-0.1-0.2l-0.1 0.1h-0.1-0.1-0.2-0.1-0.1l-0.2 0.1h-0.1-0.1-0.1-0.2-0.1-0.1l-0.2 0.1h-0.1-0.1-0.1-0.2-0.1-0.1-0.2-0.1-0.1-0.1-0.1-0.2-0.1-0.1-0.1-0.1-0.2-0.1-0.1-0.1-0.1l-0.1-0.1h-0.1-0.1-0.1-0.1-0.1-0.1-0.1l-0.1-0.1h-0.1-0.1-0.1-0.1l-0.1-0.1h-0.1-0.1-0.1l-0.1-0.1h-0.1-0.1l-0.1-0.1h-0.1l-0.1-0.1h-0.1v-0.1h-0.1l-0.1-0.1h-0.1v-0.1h-0.1v-0.1l-0.1-0.1v-0.1-0.1-0.1-0.1-0.1l0.1-0.1v-0.1l0.1-0.1 0.1-0.1v-0.1h0.1v-0.1h0.1l0.1-0.1h0.1v-0.1h0.1v-0.1h0.1 0.1l0.1-0.1 0.1-0.1h0.1 0.1l0.1-0.1 0.1-0.1h0.1 0.1l0.1-0.1h0.1l0.1-0.1h0.1 0.1l0.1-0.1h0.1 0.1l0.1-0.1h0.1 0.1l0.1-0.1h0.2 0.1l0.1-0.1h0.1 0.1l0.1-0.1h0.2 0.1l0.1-0.1h0.1 0.1 0.2l0.1-0.1h0.1 0.1 0.2 0.1l0.1-0.1h0.2 0.1 0.1 0.1l0.2-0.1h0.1 0.1 0.2 0.1 0.1 0.1 0.2l0.1-0.1h0.1 0.2 0.1 0.1 0.1 0.2 0.1 0.1 0.1 0.2 0.1 0.1 0.1 0.1 0.2 0.1 0.1 0.1 0.1 0.1 0.1l0.2 0.1h0.1 0.1 0.1 0.1 0.1 0.1l0.1 0.1h0.1 0.1 0.1 0.1l0.1 0.1h0.1 0.1 0.1v0.1h0.1 0.1 0.1v0.1h0.1 0.1l0.1 0.1h0.1v0.1h0.1l0.1 0.1h0.1v0.1h0.1v0.1 0.1h0.1v0.1 0.1 0.1 0.1 0.1l-0.1 0.1v0.1h-0.1v0.1l-0.1 0.1"/>
   </g>
  </g>
  <g stroke="currentColor" fill="none">
   <g id="g6078" color="black" stroke-width="2">
    <g id="g6080" font-size="12" transform="translate(225.6 200)" stroke="none" font-family="Arial" fill="#000">
     <text id="text6082"/>
    </g>
   </g>
   <g>
    <g id="g6086" color="black">
     <use id="use6088" color="rgb(240, 228,  66)" xlink:href="#gpPt6" transform="translate(221.1 200) scale(1.12)"/>
    </g>
    <g id="g6090" color="black">
     <g id="g6092" font-size="12" transform="translate(225.6 200)" stroke="none" font-family="Arial" fill="#000">
      <text id="text6094"/>
     </g>
    </g>
    <g id="g6096" color="black">
     <use id="use6098" color="black" xlink:href="#gpPt5" transform="translate(221.1 200) scale(1.12)"/>
    </g>
    <g id="g6102" color="gray">
     <path id="path6104" stroke="gray" stroke-dasharray="2,4" d="m47.4 200v-173.6"/>
    </g>
   </g>
   <g id="g6108" color="black" stroke-width="1.5">
    <g id="g6110" stroke="none" shape-rendering="crispEdges">
     <polygon id="polygon6112" points="47.4 116.9 42.3 122.1 47.4 113.2 52.5 122.1" fill="#e51e10"/>
    </g>
    <path id="path6114" stroke="#e51e10" d="m47.4 116.9l-5.1 5.2 5.1-8.9 5.1 8.9-5.1-5.2m0 83.1v-83.1"/>
   </g>
   <g id="g6122" color="black">
    <g id="g6124" stroke="none" shape-rendering="crispEdges">
     <polygon id="polygon6126" points="66.5 44.9 65.5 48.9 59.6 43.1 67.6 40.9" fill="#000"/>
    </g>
    <path id="path6128" stroke="#000" d="m67.3 45.1l-0.8-0.2"/>
   </g>
  </g>
  <g id="gnuplot_plot_1c">
   <title id="title6133">xp(a*(1-e)*cos(-pi/4.+t*3*pi/2.),a*(1-e)*sin(-pi/4.+t*3*pi/2.),1.75*vi*ri),yp(a*(1-e)*cos(-pi/4.+t*3*pi/2.),a*(1-e)*sin(-pi/4.+t*3*pi/2.),1.75*vi*ri)</title>
   <g id="g6135" color="black" stroke="currentColor" fill="none">
    <path id="path6137" stroke="#000" d="m63.9 44l0.3 0.1h0.2l0.3 0.1 0.2 0.1h0.2l0.3 0.1 0.2 0.1h0.2l0.3 0.1 0.2 0.1 0.2 0.1h0.2l0.2 0.1 0.2 0.1 0.2 0.1h0.2l0.2 0.1 0.1 0.1 0.2 0.1 0.2 0.1 0.1 0.1h0.2l0.2 0.1 0.1 0.1 0.2 0.1 0.1 0.1 0.1 0.1h0.1l0.2 0.1 0.1 0.1 0.1 0.1 0.1 0.1 0.1 0.1 0.1 0.1 0.1 0.1h0.1v0.1l0.1 0.1 0.1 0.1v0.1l0.1 0.1v0.1l0.1 0.1v0.1 0.1l0.1 0.1v0.1 0.1 0.1 0.1 0.1 0.1 0.1l-0.1 0.1v0.1 0.1l-0.1 0.1-0.1 0.1v0.1l-0.1 0.1-0.1 0.1-0.1 0.1-0.1 0.1v0.1l-0.1 0.1h-0.1l-0.1 0.1-0.2 0.1-0.1 0.1-0.1 0.1-0.1 0.1-0.2 0.1-0.1 0.1h-0.1l-0.2 0.1-0.1 0.1-0.2 0.1-0.2 0.1h-0.1l-0.2 0.1-0.2 0.1-0.2 0.1-0.2 0.1h-0.2l-0.2 0.1-0.2 0.1-0.2 0.1h-0.2l-0.2 0.1-0.2 0.1-0.3 0.1h-0.2l-0.2 0.1-0.3 0.1h-0.2l-0.3 0.1-0.2 0.1h-0.3l-0.3 0.1-0.2 0.1h-0.3l-0.3 0.1h-0.2l-0.3 0.1-0.3 0.1h-0.3l-0.3 0.1h-0.3l-0.3 0.1h-0.3l-0.3 0.1h-0.3l-0.3 0.1h-0.3l-0.4 0.1h-0.3l-0.3 0.1h-0.3-0.4l-0.3 0.1h-0.3l-0.4 0.1h-0.3-0.3l-0.4 0.1h-0.3-0.4-0.3l-0.4 0.1h-0.3-0.4-0.3l-0.4 0.1h-0.3-0.4-0.4-0.3l-0.4 0.1h-0.4-0.3-0.4-0.3-0.4-0.4-0.3-0.4-0.4-0.3-0.4-0.4-0.3-0.4-0.4-0.3-0.4-0.4-0.3l-0.4-0.1h-0.4-0.3-0.4-0.3l-0.4-0.1h-0.3-0.4-0.3l-0.4-0.1h-0.3-0.4-0.3l-0.4-0.1h-0.3-0.4l-0.3-0.1h-0.3l-0.4-0.1h-0.3-0.3l-0.3-0.1h-0.4l-0.3-0.1h-0.3l-0.3-0.1h-0.3l-0.3-0.1h-0.3l-0.3-0.1h-0.3l-0.3-0.1h-0.3l-0.3-0.1-0.3-0.1h-0.3l-0.2-0.1h-0.3l-0.3-0.1-0.2-0.1h-0.3l-0.2-0.1-0.3-0.1h-0.2l-0.3-0.1-0.2-0.1h-0.2l-0.3-0.1-0.2-0.1-0.2-0.1h-0.2l-0.2-0.1-0.2-0.1-0.2-0.1h-0.2l-0.2-0.1-0.2-0.1-0.2-0.1-0.2-0.1h-0.1l-0.2-0.1-0.2-0.1-0.1-0.1-0.2-0.1h-0.1l-0.2-0.1-0.1-0.1-0.1-0.1-0.1-0.1-0.2-0.1-0.1-0.1-0.1-0.1h-0.1l-0.1-0.1-0.1-0.1v-0.1l-0.1-0.1-0.1-0.1-0.1-0.1v-0.1l-0.1-0.1-0.1-0.1v-0.1-0.1l-0.1-0.1v-0.1-0.1-0.1-0.1-0.1-0.1-0.1-0.1l0.1-0.1v-0.1l0.1-0.1v-0.1l0.1-0.1v-0.1l0.1-0.1v-0.1l0.1-0.1h0.1l0.1-0.1 0.1-0.1 0.1-0.1 0.1-0.1 0.1-0.1 0.1-0.1 0.1-0.1h0.2l0.1-0.1 0.1-0.1 0.2-0.1 0.1-0.1 0.2-0.1h0.1l0.2-0.1 0.2-0.1 0.1-0.1 0.2-0.1 0.2-0.1h0.2l0.2-0.1 0.2-0.1 0.2-0.1h0.2l0.2-0.1 0.2-0.1 0.3-0.1h0.2l0.2-0.1 0.2-0.1h0.3l0.2-0.1 0.3-0.1h0.2l0.3-0.1"/>
   </g>
  </g>
 </g>
 <g fill-rule="evenodd" stroke="#000" stroke-miterlimit="10.433">
  <g id="content" xml:space="preserve" ns0:pdfconverter="pstoedit" transform="matrix(1.75 0 0 -1.75 -185.45 1289.1)" ns0:text="$\\omega$" ns0:version="0.7.2" ns0:inkscapeversion="0.91" ns0:preamble="/usr/share/inkscape/extensions/default_packages.tex" ns0:scale="1.4" ns0:texconverter="pdflatex"><path id="path6258" stroke-width="0" d="m155.35 709.64v0.1 0.09l-0.01 0.1-0.01 0.09-0.02 0.09-0.02 0.08-0.02 0.09-0.02 0.08-0.03 0.08-0.02 0.08-0.03 0.07-0.03 0.08-0.03 0.07-0.03 0.07-0.04 0.06-0.03 0.06-0.03 0.06-0.04 0.06-0.03 0.06-0.03 0.05-0.04 0.05-0.03 0.04-0.03 0.04-0.03 0.04-0.02 0.04-0.03 0.03-0.02 0.03-0.02 0.02-0.02 0.02-0.02 0.02-0.01 0.02-0.01 0.01h-0.33c0.07-0.12 0.31-0.6 0.31-1.31 0-1.17-0.76-2.79-1.74-2.79-0.37 0-0.63 0.21-0.63 0.57 0 1 0.53 1.93 0.53 2.16 0 0.04-0.01 0.06-0.06 0.06h-0.47c-0.31 0-0.07-2.79-1.62-2.79-0.7 0-0.74 0.7-0.74 0.97 0 1.58 1.16 2.92 1.36 3.13h-0.33c-0.01 0-1.94-1.31-1.94-3.1 0-0.62 0.33-1.41 1.36-1.41 1.23 0 1.59 1.02 1.59 1.03h0.01c0-0.01-0.02-0.09-0.02-0.22 0-0.31 0.13-0.81 1-0.81 1.27 0 2.47 1.36 2.47 2.63z"/></g>
  <g id="g6470" xml:space="preserve" stroke-width="0" ns0:pdfconverter="pstoedit" transform="matrix(1.75 0 0 -1.75 -233.06 1385.5)" ns0:text="$\\vec{L}_i$" ns0:version="0.7.2" ns0:inkscapeversion="0.91" ns0:preamble="/usr/share/inkscape/extensions/default_packages.tex" ns0:scale="1.4" ns0:texconverter="pdflatex"><polygon id="polygon6472" points="153.81 716.67 153.52 716.43 154.06 715.43 150.73 715.43 150.64 715.03 153.98 715.03 153.01 714.03 153.19 713.79 154.87 715.23"/><path id="path6474" d="m152.97 713.63h-2.72v-0.16c0.62-0.06 0.77-0.14 0.77-0.43 0-0.14-0.04-0.37-0.11-0.62l-1.23-4.4c-0.17-0.58-0.24-0.64-0.8-0.74v-0.16h5.07l0.58 1.79-0.2 0.06c-0.35-0.72-0.62-1.04-1.06-1.26-0.35-0.17-0.76-0.23-1.62-0.23-0.76 0-1.01 0.08-1.01 0.34 0 0.07 0.05 0.31 0.1 0.5l1.23 4.41c0.15 0.51 0.41 0.7 1 0.74z"/><path id="path6476" d="m156.05 706.42-0.02-0.02-0.01-0.01-0.02-0.02-0.01-0.02-0.01-0.02-0.01-0.01-0.02-0.02-0.01-0.01-0.01-0.02-0.01-0.01-0.01-0.01-0.01-0.02-0.01-0.01-0.01-0.01v-0.01l-0.01-0.01-0.01-0.01-0.01-0.01-0.01-0.01-0.01-0.02-0.02-0.01-0.01-0.02-0.01-0.01-0.02-0.02-0.01-0.01c-0.12-0.12-0.22-0.19-0.28-0.19s-0.11 0.06-0.11 0.11c0 0.06 0.02 0.17 0.06 0.3 0 0.02 0.03 0.07 0.04 0.13v0.01l0.01 0.02 0.61 2.24-0.02 0.02c-0.7-0.14-0.84-0.16-1.12-0.18v-0.11c0.37-0.01 0.44-0.03 0.44-0.17 0-0.05-0.02-0.16-0.06-0.3l-0.34-1.24c-0.11-0.4-0.15-0.62-0.15-0.76 0-0.26 0.11-0.4 0.32-0.4 0.32 0 0.58 0.21 0.98 0.8z"/><path id="path6478" d="m155.99 710.19h-0.02-0.01-0.02l-0.02-0.01h-0.01l-0.02-0.01h-0.01l-0.02-0.01h-0.01l-0.02-0.01-0.01-0.01-0.01-0.01-0.02-0.01-0.01-0.01-0.01-0.01-0.01-0.02-0.01-0.01-0.01-0.01-0.01-0.02-0.01-0.01-0.01-0.02-0.01-0.01v-0.02l-0.01-0.01-0.01-0.02v-0.02l-0.01-0.01v-0.02-0.02-0.02-0.02l-0.01-0.02c0-0.22 0.14-0.37 0.34-0.37 0.18 0 0.34 0.16 0.34 0.36s-0.16 0.38-0.35 0.38z"/></g>
  <g id="g6926" xml:space="preserve" ns0:pdfconverter="pstoedit" transform="matrix(1.75 0 0 -1.75 -232.02 1446.5)" ns0:text="\\footnotesize\n$O$" ns0:version="0.7.2" ns0:inkscapeversion="0.91" ns0:preamble="/usr/share/inkscape/extensions/default_packages.tex" ns0:scale="1.4" ns0:texconverter="pdflatex"><path id="path6928" stroke-width="0" d="m152.49 712.43h-0.06-0.07l-0.06-0.01h-0.07l-0.06-0.01-0.06-0.01-0.07-0.01-0.06-0.02-0.07-0.01-0.06-0.02-0.06-0.02-0.07-0.02-0.06-0.02-0.07-0.03-0.06-0.02-0.07-0.03-0.06-0.03-0.06-0.03-0.07-0.03-0.06-0.04-0.07-0.04-0.06-0.03-0.13-0.08-0.12-0.09-0.12-0.09-0.13-0.1-0.12-0.11c-0.8-0.74-1.27-1.71-1.27-2.65 0-1.11 0.72-1.9 1.74-1.9 1.65 0 3.26 1.67 3.35 3.47 0.06 1.13-0.72 1.98-1.79 1.98l-0.07-0.26c0.63 0 1.02-0.46 1.02-1.21 0-0.87-0.37-2.03-0.89-2.78-0.44-0.63-0.93-0.94-1.49-0.94-0.67 0-1.04 0.49-1.04 1.35 0 0.75 0.4 1.94 0.88 2.63 0.45 0.64 0.93 0.95 1.52 0.95l0.07 0.26z" fill-rule="evenodd" stroke-miterlimit="10.433"/></g>
  <g id="g7154" xml:space="preserve" stroke-width="0" ns0:pdfconverter="pstoedit" transform="matrix(1.75 0 0 -1.75 -130.64 1453.9)" ns0:text="$\\vec{r}_i$" ns0:version="0.7.2" ns0:inkscapeversion="0.91" ns0:preamble="/usr/share/inkscape/extensions/default_packages.tex" ns0:scale="1.4" ns0:texconverter="pdflatex"><polygon id="polygon7156" points="152.05 711.92 152.24 711.68 153.91 713.12 152.86 714.56 152.57 714.32 153.11 713.32 149.78 713.32 149.69 712.93 153.03 712.93"/><path id="path7158" d="m149.91 707.12 0.05 0.16 0.05 0.15 0.04 0.14 0.04 0.13 0.05 0.13 0.03 0.12 0.04 0.12 0.04 0.11 0.03 0.11 0.04 0.1 0.03 0.1 0.03 0.09 0.04 0.09 0.03 0.08 0.03 0.08 0.03 0.08 0.03 0.08 0.03 0.07 0.06 0.14 0.07 0.14 0.06 0.13 0.07 0.13 0.07 0.13 0.08 0.13 0.04 0.07 0.04 0.07c0.33 0.56 0.61 0.87 0.78 0.87 0.06 0 0.11-0.04 0.16-0.14 0.08-0.17 0.16-0.22 0.36-0.22 0.29 0 0.46 0.18 0.46 0.49s-0.2 0.52-0.47 0.52c-0.23 0-0.5-0.15-0.76-0.42-0.41-0.42-0.81-1.01-0.97-1.41l-0.14-0.36 0.53 2.17-0.03 0.02c-0.73-0.13-0.82-0.15-1.54-0.27v-0.17c0.24 0.05 0.27 0.05 0.34 0.05 0.21 0 0.34-0.1 0.34-0.28 0-0.14 0-0.14-0.16-0.82l-0.8-2.91z"/><path id="path7160" d="m154.14 706.42-0.02-0.02-0.01-0.01-0.02-0.02-0.01-0.02-0.01-0.02-0.02-0.01-0.01-0.02-0.01-0.01-0.01-0.02-0.01-0.01-0.01-0.01-0.01-0.02-0.01-0.01-0.01-0.01-0.01-0.01v-0.01l-0.01-0.01-0.01-0.01h-0.01v-0.01l-0.01-0.01-0.01-0.01-0.01-0.01-0.01-0.02-0.01-0.01-0.02-0.02-0.01-0.01c-0.12-0.12-0.22-0.19-0.29-0.19-0.05 0-0.11 0.06-0.11 0.11 0 0.06 0.02 0.17 0.07 0.3 0 0.02 0.02 0.07 0.04 0.13v0.01 0.02l0.62 2.24-0.02 0.02c-0.71-0.14-0.85-0.16-1.12-0.18v-0.11c0.37-0.01 0.44-0.03 0.44-0.17 0-0.05-0.02-0.16-0.06-0.3l-0.34-1.24c-0.11-0.4-0.15-0.62-0.15-0.76 0-0.26 0.11-0.4 0.32-0.4 0.32 0 0.58 0.21 0.98 0.8z"/><path id="path7162" d="m154.08 710.19h-0.02-0.01-0.02l-0.02-0.01h-0.01l-0.02-0.01h-0.02l-0.01-0.01h-0.02l-0.01-0.01-0.01-0.01-0.02-0.01-0.01-0.01-0.01-0.01-0.01-0.01-0.01-0.02-0.02-0.01-0.01-0.01v-0.02l-0.01-0.01-0.01-0.02-0.01-0.01-0.01-0.02v-0.01l-0.01-0.02v-0.02l-0.01-0.01v-0.02-0.02l-0.01-0.02v-0.02-0.02c0-0.22 0.13-0.37 0.34-0.37 0.18 0 0.34 0.16 0.34 0.36s-0.16 0.38-0.35 0.38z"/></g>
  <g id="g7398" xml:space="preserve" stroke-width="0" ns0:pdfconverter="pstoedit" transform="matrix(1.75 0 0 -1.75 -36.249 1445.9)" ns0:text="$m_i$" ns0:version="0.7.2" ns0:inkscapeversion="0.91" ns0:preamble="/usr/share/inkscape/extensions/default_packages.tex" ns0:scale="1.4" ns0:texconverter="pdflatex"><path id="path7400" d="m155.57 708.29-0.01-0.02-0.02-0.03-0.02-0.02-0.02-0.02v-0.01l-0.01-0.01-0.01-0.01-0.01-0.01h-0.01v-0.01l-0.01-0.01-0.01-0.01v-0.01l-0.01-0.01-0.01-0.01-0.01-0.01v-0.01h-0.01v-0.01l-0.01-0.01-0.01-0.01-0.01-0.01v-0.01c-0.28-0.36-0.49-0.53-0.64-0.53-0.08 0-0.13 0.06-0.13 0.16 0 0.05 0.04 0.21 0.1 0.45l0.68 2.5c0 0.04 0.02 0.22 0.02 0.28 0 0.36-0.24 0.63-0.58 0.63-0.19 0-0.39-0.07-0.63-0.22-0.49-0.32-0.9-0.8-1.59-1.9 0.25 0.76 0.4 1.33 0.4 1.52 0 0.35-0.23 0.6-0.56 0.6-0.61 0-1.31-0.66-2.23-2.11l0.58 2.09-0.03 0.02c-0.56-0.12-0.77-0.16-1.59-0.31v-0.16h0.25c0.26 0 0.39-0.07 0.39-0.22 0-0.11-0.23-1.02-0.59-2.28-0.23-0.82-0.26-0.92-0.39-1.43h0.75c0.47 1.59 0.62 1.96 0.96 2.47 0.56 0.85 1.16 1.41 1.5 1.41 0.13 0 0.2-0.09 0.2-0.25 0-0.09-0.32-1.3-0.95-3.63h0.75c0.4 1.56 0.59 2.05 1.1 2.76 0.49 0.68 0.99 1.12 1.28 1.12 0.11 0 0.2-0.1 0.2-0.21 0-0.05-0.02-0.17-0.07-0.35l-0.58-2.29c-0.09-0.37-0.13-0.56-0.13-0.66 0-0.3 0.14-0.46 0.4-0.46 0.47 0 0.91 0.33 1.43 1.07l0.05 0.07z"/><path id="path7402" d="m157.45 706.42-0.01-0.02-0.02-0.01-0.01-0.02-0.02-0.02-0.01-0.02-0.01-0.01-0.01-0.02-0.01-0.01-0.02-0.02-0.01-0.01-0.01-0.01-0.01-0.02v-0.01l-0.01-0.01-0.01-0.01-0.01-0.01-0.01-0.01v-0.01h-0.01l-0.01-0.01-0.01-0.01v-0.01l-0.01-0.01-0.02-0.02-0.01-0.01-0.01-0.02-0.02-0.01c-0.11-0.12-0.22-0.19-0.28-0.19s-0.11 0.06-0.11 0.11c0 0.06 0.02 0.17 0.07 0.3 0 0.02 0.02 0.07 0.03 0.13v0.01l0.01 0.02 0.61 2.24-0.02 0.02c-0.7-0.14-0.84-0.16-1.11-0.18v-0.11c0.37-0.01 0.43-0.03 0.43-0.17 0-0.05-0.02-0.16-0.06-0.3l-0.33-1.24c-0.11-0.4-0.16-0.62-0.16-0.76 0-0.26 0.12-0.4 0.33-0.4 0.32 0 0.57 0.21 0.97 0.8z"/><path id="path7404" d="m157.4 710.19h-0.02-0.02-0.02l-0.01-0.01h-0.02l-0.02-0.01h-0.01l-0.02-0.01h-0.01l-0.01-0.01-0.02-0.01-0.01-0.01-0.01-0.01-0.02-0.01-0.01-0.01-0.01-0.02-0.01-0.01-0.01-0.01-0.01-0.02-0.01-0.01-0.01-0.02v-0.01l-0.01-0.02-0.01-0.01v-0.02l-0.01-0.02v-0.01l-0.01-0.02v-0.02-0.02-0.02-0.02c0-0.22 0.13-0.37 0.33-0.37 0.18 0 0.34 0.16 0.34 0.36s-0.16 0.38-0.34 0.38z"/></g>
  <g id="g7667" xml:space="preserve" stroke-width="0" ns0:pdfconverter="pstoedit" transform="matrix(1.75 0 0 -1.75 26.088 1381.9)" ns0:text="$\\vec{v}_i$" ns0:version="0.7.2" ns0:inkscapeversion="0.91" ns0:preamble="/usr/share/inkscape/extensions/default_packages.tex" ns0:scale="1.4" ns0:texconverter="pdflatex"><polygon id="polygon7669" points="152.93 714.56 152.64 714.32 153.18 713.32 149.85 713.32 149.76 712.93 153.1 712.93 152.12 711.92 152.31 711.68 153.98 713.12"/><path id="path7671" d="m148.92 711.14h0.02 0.02 0.02 0.02 0.02 0.01l0.02 0.01h0.02 0.03 0.02 0.02 0.02 0.02 0.02 0.02c0.39 0 0.49-0.17 0.63-1.09 0.1-0.69 0.22-2.19 0.22-2.77 0-0.28 0.02-0.35 0.08-0.35 0.25 0 1.18 1.06 2.2 2.47 0.35 0.5 0.6 1.15 0.6 1.52 0 0.32-0.25 0.59-0.55 0.59-0.22 0-0.37-0.13-0.37-0.34 0-0.16 0.06-0.28 0.24-0.44 0.13-0.12 0.18-0.2 0.18-0.3 0-0.46-0.66-1.56-1.37-2.3l-0.31-0.32c-0.07 1.4-0.13 1.92-0.26 2.66-0.2 1.02-0.2 1.04-0.29 1.04-0.05 0-0.12-0.01-0.2-0.04-0.17-0.05-0.72-0.15-1.1-0.21z"/><path id="path7673" d="m154.68 706.42-0.01-0.02-0.02-0.01-0.01-0.02-0.01-0.02-0.02-0.02-0.01-0.01-0.01-0.02-0.01-0.01-0.01-0.02-0.01-0.01-0.01-0.01-0.01-0.02-0.01-0.01-0.01-0.01-0.01-0.01-0.01-0.01v-0.01l-0.01-0.01h-0.01l-0.01-0.01v-0.01l-0.01-0.01-0.01-0.01-0.01-0.02-0.02-0.01-0.01-0.02-0.01-0.01c-0.12-0.12-0.23-0.19-0.29-0.19-0.05 0-0.11 0.06-0.11 0.11 0 0.06 0.02 0.17 0.07 0.3 0 0.02 0.02 0.07 0.03 0.13v0.01l0.01 0.02 0.62 2.24-0.03 0.02c-0.7-0.14-0.84-0.16-1.11-0.18v-0.11c0.37-0.01 0.44-0.03 0.44-0.17 0-0.05-0.02-0.16-0.07-0.3l-0.33-1.24c-0.11-0.4-0.15-0.62-0.15-0.76 0-0.26 0.11-0.4 0.32-0.4 0.32 0 0.58 0.21 0.97 0.8z"/><path id="path7675" d="m154.63 710.19h-0.02-0.02-0.01l-0.02-0.01h-0.02l-0.01-0.01h-0.02l-0.01-0.01h-0.02l-0.01-0.01-0.02-0.01-0.01-0.01-0.01-0.01-0.01-0.01-0.02-0.01-0.01-0.02-0.01-0.01-0.01-0.01-0.01-0.02-0.01-0.01v-0.02l-0.01-0.01-0.01-0.02-0.01-0.01v-0.02l-0.01-0.02v-0.01-0.02l-0.01-0.02v-0.02-0.02-0.02c0-0.22 0.13-0.37 0.33-0.37 0.19 0 0.35 0.16 0.35 0.36s-0.16 0.38-0.35 0.38z"/></g>
 </g>
</svg>
