<?xml version="1.0" encoding="UTF-8" standalone="no"?>
<!-- Created with Inkscape (http://www.inkscape.org/) -->
<svg id="svg2" xmlns:rdf="http://www.w3.org/1999/02/22-rdf-syntax-ns#" xmlns="http://www.w3.org/2000/svg" height="262.39" width="280.7" version="1.1" xmlns:cc="http://creativecommons.org/ns#" xmlns:dc="http://purl.org/dc/elements/1.1/" viewBox="0 0 280.70398 262.39255">
 <style type="text/css">
	@import url('../estilo.css');
 </style>
 <metadata id="metadata7">
  <rdf:RDF>
   <cc:Work rdf:about="">
    <dc:format>image/svg+xml</dc:format>
    <dc:type rdf:resource="http://purl.org/dc/dcmitype/StillImage"/>
    <dc:title/>
   </cc:Work>
  </rdf:RDF>
 </metadata>
 <g id="layer1" transform="translate(-106.34 -134.8)">
  <g stroke="#000" fill="none">
   <path id="path4217" d="m111.34 254.42 270.7 0.28169" stroke-width="1px"/>
   <g>
    <path id="path5203" d="m132.39 264.84h-5.9155"/>
    <path id="path5201" d="m126.48 264.84v-20.563"/>
    <path id="rect4219" d="m126.48 244.28h5.9155"/>
    <path id="path5209" d="m252.39 264.84h-5.6303"/>
    <path id="path5207" d="m246.76 264.84v-20.563"/>
    <path id="path4222" d="m246.76 244.28h5.6303"/>
    <path id="path5215" d="m301.13 264.84h5.7729"/>
    <path id="path5213" d="m306.91 264.84v-20.563"/>
    <path id="path4224" d="m306.91 244.28h-5.7729"/>
    <path id="path5221" d="m361.13 264.84h5.9155"/>
    <path id="path5219" d="m367.05 264.84v-20.563"/>
    <path id="path4226" d="m367.05 244.28h-5.9155"/>
   </g>
  </g>
  <g id="g5544" transform="translate(-91.028 -60.286)">
   <g id="g5546" stroke-width="0" xml:space="preserve" transform="matrix(1.063 0 0 -1.063 -186.02 789.27)" stroke="#000" stroke-miterlimit="10.433"><path id="path5548" d="m460.43 406h3.21v0.24c-0.5 0-0.82 0.26-1.31 0.96l-2.04 3.12 1.32 1.91c0.3 0.43 0.78 0.69 1.29 0.7v0.24h-2.52v-0.24c0.48-0.03 0.64-0.13 0.64-0.35 0-0.19-0.19-0.54-0.59-1.03-0.08-0.1-0.27-0.39-0.48-0.7l-0.22 0.31c-0.44 0.68-0.73 1.22-0.73 1.42 0 0.22 0.2 0.34 0.68 0.35v0.24h-3.3v-0.24h0.15c0.47 0 0.73-0.2 1.22-0.95l1.5-2.3-1.82-2.63c-0.47-0.65-0.63-0.76-1.16-0.81v-0.24h2.31v0.24c-0.44 0-0.63 0.08-0.63 0.29 0 0.09 0.1 0.33 0.31 0.65l1.26 1.96 1.45-2.23c0.07-0.1 0.1-0.19 0.1-0.29 0-0.28-0.11-0.35-0.64-0.38z"/><path id="path5550" d="m465.84 411.54h-0.06-0.06-0.05l-0.06-0.01h-0.05l-0.06-0.01h-0.05l-0.05-0.01-0.05-0.01-0.05-0.01-0.05-0.02-0.05-0.01-0.05-0.01-0.05-0.02-0.04-0.01-0.05-0.02-0.05-0.02-0.04-0.02-0.05-0.02-0.04-0.02-0.04-0.03-0.05-0.02-0.04-0.03-0.04-0.02-0.04-0.03-0.04-0.03-0.04-0.03-0.04-0.03-0.04-0.03-0.04-0.04-0.04-0.03-0.04-0.04c-0.65-0.62-1.07-1.91-1.07-3.21 0-1.22 0.37-2.52 0.89-3.15 0.41-0.49 0.98-0.76 1.63-0.76v0.29c-0.96 0-1.45 1.2-1.45 3.52 0 2.37 0.5 3.6 1.46 3.6 0.94 0 1.44-1.26 1.44-3.59s-0.49-3.53-1.45-3.53v-0.29c0.57 0 1.05 0.2 1.45 0.59 0.65 0.61 1.07 1.9 1.07 3.25 0 2.29-1.01 3.86-2.47 3.86z"/><polygon id="polygon5552" points="476.99 411.26 485.15 411.26 485.15 412.15 476.99 412.15"/><polygon id="polygon5554" points="476.99 408.02 485.15 408.02 485.15 408.92 476.99 408.92"/><path id="path5556" d="m504.05 418.05-0.03-0.02-0.02-0.02-0.03-0.02-0.02-0.02-0.03-0.01-0.02-0.02-0.02-0.02-0.02-0.01-0.03-0.01-0.02-0.02-0.02-0.01-0.02-0.01-0.02-0.01-0.03-0.01-0.02-0.01-0.02-0.01-0.02-0.01-0.02-0.01-0.02-0.01h-0.02l-0.02-0.01-0.02-0.01h-0.02-0.02l-0.05-0.01-0.04-0.01h-0.04-0.05c-0.36 0-0.47 0.22-0.47 0.92v3.11c0 0.83-0.08 1.29-0.32 1.68-0.35 0.57-1.04 0.87-1.98 0.87-1.5 0-2.68-0.78-2.68-1.78 0-0.37 0.32-0.69 0.69-0.69 0.38 0 0.72 0.32 0.72 0.67 0 0.06-0.02 0.15-0.04 0.26-0.03 0.14-0.05 0.27-0.05 0.38 0 0.43 0.52 0.78 1.15 0.78 0.78 0 1.21-0.46 1.21-1.33v-0.96-0.39-2.31c0-0.5-0.07-0.64-0.41-0.83-0.38-0.22-0.83-0.36-1.16-0.36-0.56 0-1.01 0.54-1.01 1.22v0.06c0 0.95 0.65 1.52 2.58 2.22v0.39c-2.45-0.99-2.72-1.12-3.41-1.73-0.35-0.32-0.57-0.86-0.57-1.38 0-1.01 0.7-1.71 1.67-1.71 0.7 0 1.36 0.34 2.33 1.16 0.08-0.82 0.37-1.16 1.02-1.16 0.54 0 0.88 0.19 1.44 0.8z"/><polygon id="polygon5558" points="512.52 425.14 511.62 425.14 511.62 421.54 507.99 421.54 507.99 420.65 511.62 420.65 511.62 417 512.52 417 512.52 420.65 516.15 420.65 516.15 421.54 512.52 421.54"/><path id="path5560" d="m523.44 427.86-0.08 0.03c-0.67-0.24-1.1-0.37-1.85-0.58l-0.46-0.12v-0.26c0.1 0.02 0.16 0.02 0.27 0.02 0.64 0 0.78-0.15 0.78-0.82v-8.27c0-0.49 1.35-1.02 2.63-1.02l0.25 0.51c-0.82 0-1.54 0.37-1.54 0.77v4.01c0 0.62 0.75 1.2 1.58 1.2 1.24 0 2.04-1.24 2.04-3.19 0-1.77-0.77-2.79-2.08-2.79l-0.25-0.51c2.11 0 3.73 1.75 3.73 4.04 0 1.96-1.21 3.45-2.8 3.45-0.98 0-1.9-0.57-2.22-1.35z"/><polyline id="polyline5562" points="497 410 529.28 410 529.28 410.96 497 410.96"/><path id="path5564" d="m516.57 397.18-0.21 0.08c-0.59-0.9-0.79-1.05-1.51-1.05h-3.81l2.68 2.81c1.42 1.48 2.04 2.69 2.04 3.93 0 1.6-1.29 2.83-2.95 2.83-0.88 0-1.7-0.35-2.29-0.99-0.52-0.54-0.75-1.06-1.02-2.19l0.33-0.08c0.63 1.57 1.21 2.08 2.31 2.08 1.34 0 2.25-0.91 2.25-2.25 0-1.24-0.73-2.73-2.07-4.15l-2.84-3.01v-0.19h6.22z"/></g>
  </g>
  <text id="text5612" style="word-spacing:0px;letter-spacing:0px" font-size="16px" line-height="125%" y="297.19125" x="122.36687" font-family="&apos;STIX Two Text&apos;" xml:space="preserve" fill="#000000"><tspan id="tspan5614" y="297.19125" x="122.36687">a</tspan></text>
  <text id="text5616" style="word-spacing:0px;letter-spacing:0px" font-size="16px" line-height="125%" y="297.19125" x="363.08929" font-family="&apos;STIX Two Text&apos;" xml:space="preserve" fill="#000000"><tspan id="tspan5618" y="297.19125" x="363.08929">b</tspan></text>
  <g id="g5975" transform="translate(-35.669 -135)">
   <g id="content" stroke-width="0" xml:space="preserve" transform="matrix(1.063 0 0 -1.063 -186.02 789.27)" stroke="#000" stroke-miterlimit="10.433"><path id="path5978" d="m460.43 406h3.21v0.24c-0.5 0-0.82 0.26-1.31 0.96l-2.04 3.12 1.32 1.91c0.3 0.43 0.78 0.69 1.29 0.7v0.24h-2.52v-0.24c0.48-0.03 0.64-0.13 0.64-0.35 0-0.19-0.19-0.54-0.59-1.03-0.08-0.1-0.27-0.39-0.48-0.7l-0.22 0.31c-0.44 0.68-0.73 1.22-0.73 1.42 0 0.22 0.2 0.34 0.68 0.35v0.24h-3.3v-0.24h0.15c0.47 0 0.73-0.2 1.22-0.95l1.5-2.3-1.82-2.63c-0.47-0.65-0.63-0.76-1.16-0.81v-0.24h2.31v0.24c-0.44 0-0.63 0.08-0.63 0.29 0 0.09 0.1 0.33 0.31 0.65l1.26 1.96 1.45-2.23c0.07-0.1 0.1-0.19 0.1-0.29 0-0.28-0.11-0.35-0.64-0.38z"/><path id="path5980" d="m466.25 411.54-2.01-1.01v-0.16c0.13 0.06 0.26 0.1 0.3 0.12 0.2 0.08 0.39 0.13 0.5 0.13 0.24 0 0.34-0.17 0.34-0.53v-5.05c0-0.37-0.09-0.63-0.27-0.73-0.17-0.1-0.32-0.13-0.79-0.14v-0.17h3.07v0.17c-0.87 0.01-1.05 0.12-1.05 0.65v6.7z"/><polygon id="polygon5982" points="476.99 412.15 476.99 411.26 485.15 411.26 485.15 412.15"/><polygon id="polygon5984" points="476.99 408.92 476.99 408.02 485.15 408.02 485.15 408.92"/><path id="path5986" d="m501.43 417h3.21v0.24c-0.5 0-0.82 0.26-1.31 0.96l-2.04 3.12 1.32 1.91c0.3 0.43 0.78 0.69 1.29 0.7v0.24h-2.52v-0.24c0.48-0.03 0.64-0.13 0.64-0.35 0-0.19-0.19-0.54-0.59-1.03-0.08-0.1-0.27-0.39-0.48-0.7l-0.22 0.31c-0.44 0.68-0.73 1.22-0.73 1.42 0 0.22 0.2 0.34 0.68 0.35v0.24h-3.3v-0.24h0.15c0.47 0 0.73-0.2 1.22-0.95l1.5-2.3-1.82-2.63c-0.47-0.65-0.63-0.76-1.16-0.81v-0.24h2.31v0.24c-0.44 0-0.63 0.08-0.63 0.29 0 0.09 0.1 0.33 0.31 0.65l1.26 1.96 1.45-2.23c0.07-0.1 0.1-0.19 0.1-0.29 0-0.28-0.11-0.35-0.64-0.38z"/><path id="path5988" d="m506.84 422.54h-0.06-0.06-0.05l-0.06-0.01h-0.05l-0.06-0.01h-0.05l-0.05-0.01-0.05-0.01-0.05-0.01-0.05-0.02-0.05-0.01-0.05-0.01-0.05-0.02-0.04-0.01-0.05-0.02-0.05-0.02-0.04-0.02-0.05-0.02-0.04-0.02-0.04-0.03-0.05-0.02-0.04-0.03-0.04-0.02-0.04-0.03-0.04-0.03-0.04-0.03-0.04-0.03-0.04-0.03-0.04-0.04-0.04-0.03-0.04-0.04c-0.65-0.62-1.07-1.91-1.07-3.21 0-1.22 0.37-2.52 0.89-3.15 0.41-0.49 0.98-0.76 1.63-0.76v0.29c-0.96 0-1.45 1.2-1.45 3.52 0 2.37 0.5 3.6 1.46 3.6 0.94 0 1.44-1.26 1.44-3.59s-0.49-3.53-1.45-3.53v-0.29c0.57 0 1.05 0.2 1.45 0.59 0.65 0.61 1.07 1.9 1.07 3.25 0 2.29-1.01 3.86-2.47 3.86z"/><polygon id="polygon5990" points="521.52 417 521.52 420.65 525.15 420.65 525.15 421.54 521.52 421.54 521.52 425.14 520.62 425.14 520.62 421.54 516.99 421.54 516.99 420.65 520.62 420.65 520.62 417"/><path id="path5992" d="m532.44 427.86-0.08 0.03c-0.67-0.24-1.1-0.37-1.85-0.58l-0.46-0.12v-0.26c0.1 0.02 0.16 0.02 0.27 0.02 0.64 0 0.78-0.15 0.78-0.82v-8.27c0-0.49 1.35-1.02 2.63-1.02l0.25 0.51c-0.82 0-1.54 0.37-1.54 0.77v4.01c0 0.62 0.75 1.2 1.58 1.2 1.24 0 2.04-1.24 2.04-3.19 0-1.77-0.77-2.79-2.08-2.79l-0.25-0.51c2.11 0 3.73 1.75 3.73 4.04 0 1.96-1.21 3.45-2.8 3.45-0.98 0-1.9-0.57-2.22-1.35z"/><polyline id="polyline5994" points="497 410 538.28 410 538.28 410.96 497 410.96"/><path id="path5996" d="m520.57 397.18-0.21 0.08c-0.59-0.9-0.79-1.05-1.51-1.05h-3.81l2.68 2.81c1.42 1.48 2.04 2.69 2.04 3.93 0 1.6-1.29 2.83-2.95 2.83-0.88 0-1.71-0.35-2.29-0.99-0.52-0.54-0.75-1.06-1.02-2.19l0.33-0.08c0.64 1.57 1.21 2.08 2.31 2.08 1.34 0 2.25-0.91 2.25-2.25 0-1.24-0.73-2.73-2.07-4.15l-2.84-3.01v-0.19h6.22z"/></g>
  </g>
  <g id="g5223" transform="translate(-3.5417 -4)">
   <g id="g4350" transform="translate(-15.174 -188.51)">
    <g id="g4352" stroke-width="0" xml:space="preserve" transform="matrix(1.063 0 0 -1.063 -186.02 789.27)" stroke="#000" stroke-miterlimit="10.433"><path id="path4354" d="m460.93 413.17h-1.97v1.85c0 0.93 0.31 1.42 0.92 1.42 0.33 0 0.55-0.16 0.84-0.62 0.25-0.41 0.44-0.57 0.72-0.57 0.36 0 0.67 0.28 0.67 0.65 0 0.57-0.71 0.99-1.66 0.99-0.99 0-1.84-0.43-2.25-1.17-0.41-0.7-0.54-1.27-0.56-2.55h-1.3v-0.51h1.3v-5c0-1.16-0.18-1.36-1.32-1.42v-0.24h4.14v0.24c-1.3 0.05-1.48 0.22-1.48 1.42v5h1.95z"/><path id="path4356" d="m465.7 416.78-0.11-0.07-0.1-0.07-0.1-0.07-0.1-0.06-0.09-0.07-0.09-0.06-0.09-0.06-0.08-0.06-0.08-0.06-0.08-0.06-0.08-0.05-0.07-0.06-0.07-0.06-0.07-0.05-0.13-0.11-0.13-0.11-0.12-0.11-0.11-0.11-0.11-0.12-0.11-0.11-0.11-0.13-0.11-0.12-0.11-0.14c-1.13-1.38-1.68-2.98-1.68-4.84 0-2.03 0.59-3.59 1.99-5.22 0.65-0.76 1.06-1.11 1.9-1.62l0.19 0.25c-1.28 1.01-1.73 1.57-2.15 2.76-0.39 1.07-0.56 2.28-0.56 3.88 0 1.67 0.2 2.98 0.63 3.97 0.45 0.98 0.93 1.56 2.08 2.48z"/><path id="path4358" d="m470.43 406h3.21v0.24c-0.5 0-0.82 0.26-1.31 0.96l-2.04 3.12 1.32 1.91c0.3 0.43 0.78 0.69 1.29 0.7v0.24h-2.52v-0.24c0.48-0.03 0.64-0.13 0.64-0.35 0-0.19-0.19-0.54-0.59-1.03-0.08-0.1-0.27-0.39-0.48-0.7l-0.22 0.31c-0.44 0.68-0.73 1.22-0.73 1.42 0 0.22 0.2 0.34 0.68 0.35v0.24h-3.3v-0.24h0.15c0.47 0 0.73-0.2 1.22-0.95l1.5-2.3-1.82-2.63c-0.47-0.65-0.63-0.76-1.16-0.81v-0.24h2.31v0.24c-0.44 0-0.63 0.08-0.63 0.29 0 0.09 0.1 0.33 0.31 0.65l1.26 1.96 1.45-2.23c0.07-0.1 0.1-0.19 0.1-0.29 0-0.28-0.11-0.35-0.64-0.38z"/><path id="path4360" d="m477.25 411.54-2.01-1.01v-0.16c0.13 0.06 0.26 0.1 0.3 0.12 0.2 0.08 0.39 0.13 0.5 0.13 0.24 0 0.34-0.17 0.34-0.53v-5.05c0-0.37-0.09-0.63-0.27-0.73-0.17-0.1-0.32-0.13-0.79-0.14v-0.17h3.07v0.17c-0.87 0.01-1.05 0.12-1.05 0.65v6.7z"/><path id="path4362" d="m480.61 403.18 0.1 0.07 0.11 0.07 0.1 0.07 0.1 0.06 0.09 0.07 0.09 0.06 0.09 0.06 0.08 0.06 0.08 0.06 0.08 0.05 0.08 0.06 0.07 0.06 0.07 0.05 0.07 0.06 0.13 0.11 0.12 0.11 0.12 0.11 0.12 0.11 0.11 0.11 0.11 0.12 0.1 0.12 0.11 0.13 0.11 0.13c1.13 1.39 1.69 2.98 1.69 4.85 0 2.04-0.59 3.58-1.99 5.21-0.65 0.76-1.07 1.12-1.9 1.63l-0.19-0.26c1.28-1 1.71-1.56 2.15-2.76 0.39-1.06 0.56-2.28 0.56-3.87 0-1.66-0.21-2.98-0.63-3.95-0.45-1.01-0.93-1.58-2.08-2.51z"/><polygon id="polygon4364" points="491.34 391.25 487.25 410.59 491.34 429.89 490.32 429.89 485.8 410.57 490.32 391.25"/></g>
   </g>
   <text id="text4439" style="word-spacing:0px;letter-spacing:0px" xml:space="preserve" font-size="16px" line-height="125%" y="180.97316" x="324.05417" font-family="&apos;STIX Two Text&apos;" fill="#000000"><tspan id="tspan4441" font-size="16px" line-height="125%" y="180.97316" x="324.05417" font-family="&apos;STIX Two Math&apos;">⊖</tspan></text>
   <text id="text4443" style="word-spacing:0px;letter-spacing:0px" xml:space="preserve" font-size="16px" line-height="125%" y="155.94708" x="325.19019" font-family="&apos;STIX Two Text&apos;" fill="#000000"><tspan id="tspan4445" x="325.19019" y="155.94708">+</tspan></text>
  </g>
  <g id="g5237" transform="translate(-3.6843 -6)">
   <g id="g5047" transform="translate(-75.174 1.4931)">
    <g id="g5049" stroke-width="0" xml:space="preserve" transform="matrix(1.063 0 0 -1.063 -186.02 789.27)" stroke="#000" stroke-miterlimit="10.433"><path id="path5051" d="m460.93 413.17h-1.97v1.85c0 0.93 0.31 1.42 0.92 1.42 0.33 0 0.55-0.16 0.84-0.62 0.25-0.41 0.44-0.57 0.72-0.57 0.36 0 0.67 0.28 0.67 0.65 0 0.57-0.71 0.99-1.66 0.99-0.99 0-1.84-0.43-2.25-1.17-0.41-0.7-0.54-1.27-0.56-2.55h-1.3v-0.51h1.3v-5c0-1.16-0.18-1.36-1.32-1.42v-0.24h4.14v0.24c-1.3 0.05-1.48 0.22-1.48 1.42v5h1.95z"/><path id="path5053" d="m465.7 416.78-0.11-0.07-0.1-0.07-0.1-0.07-0.1-0.06-0.09-0.07-0.09-0.06-0.09-0.06-0.08-0.06-0.08-0.06-0.08-0.06-0.08-0.05-0.07-0.06-0.07-0.06-0.07-0.05-0.13-0.11-0.13-0.11-0.12-0.11-0.11-0.11-0.11-0.12-0.11-0.11-0.11-0.13-0.11-0.12-0.11-0.14c-1.13-1.38-1.68-2.98-1.68-4.84 0-2.03 0.59-3.59 1.99-5.22 0.65-0.76 1.06-1.11 1.9-1.62l0.19 0.25c-1.28 1.01-1.73 1.57-2.15 2.76-0.39 1.07-0.56 2.28-0.56 3.88 0 1.67 0.2 2.98 0.63 3.97 0.45 0.98 0.93 1.56 2.08 2.48z"/><path id="path5055" d="m470.43 406h3.21v0.24c-0.5 0-0.82 0.26-1.31 0.96l-2.04 3.12 1.32 1.91c0.3 0.43 0.78 0.69 1.29 0.7v0.24h-2.52v-0.24c0.48-0.03 0.64-0.13 0.64-0.35 0-0.19-0.19-0.54-0.59-1.03-0.08-0.1-0.27-0.39-0.48-0.7l-0.22 0.31c-0.44 0.68-0.73 1.22-0.73 1.42 0 0.22 0.2 0.34 0.68 0.35v0.24h-3.3v-0.24h0.15c0.47 0 0.73-0.2 1.22-0.95l1.5-2.3-1.82-2.63c-0.47-0.65-0.63-0.76-1.16-0.81v-0.24h2.31v0.24c-0.44 0-0.63 0.08-0.63 0.29 0 0.09 0.1 0.33 0.31 0.65l1.26 1.96 1.45-2.23c0.07-0.1 0.1-0.19 0.1-0.29 0-0.28-0.11-0.35-0.64-0.38z"/><path id="path5057" d="m476.84 411.54h-0.06-0.06-0.05l-0.06-0.01h-0.05l-0.06-0.01h-0.05l-0.05-0.01-0.05-0.01-0.05-0.01-0.05-0.02-0.05-0.01-0.05-0.01-0.05-0.02-0.04-0.01-0.05-0.02-0.05-0.02-0.04-0.02-0.05-0.02-0.04-0.02-0.04-0.03-0.05-0.02-0.04-0.03-0.04-0.02-0.04-0.03-0.04-0.03-0.04-0.03-0.04-0.03-0.04-0.03-0.04-0.04-0.04-0.03-0.04-0.04c-0.65-0.62-1.07-1.91-1.07-3.21 0-1.22 0.37-2.52 0.89-3.15 0.41-0.49 0.98-0.76 1.63-0.76v0.29c-0.96 0-1.45 1.2-1.45 3.52 0 2.37 0.5 3.6 1.46 3.6 0.94 0 1.44-1.26 1.44-3.59s-0.49-3.53-1.45-3.53v-0.29c0.57 0 1.05 0.2 1.45 0.59 0.65 0.61 1.07 1.9 1.07 3.25 0 2.29-1.01 3.86-2.47 3.86z"/><path id="path5059" d="m480.61 403.18 0.1 0.07 0.11 0.07 0.1 0.07 0.1 0.06 0.09 0.07 0.09 0.06 0.09 0.06 0.08 0.06 0.08 0.06 0.08 0.05 0.08 0.06 0.07 0.06 0.07 0.05 0.07 0.06 0.13 0.11 0.12 0.11 0.12 0.11 0.12 0.11 0.11 0.11 0.11 0.12 0.1 0.12 0.11 0.13 0.11 0.13c1.13 1.39 1.69 2.98 1.69 4.85 0 2.04-0.59 3.58-1.99 5.21-0.65 0.76-1.07 1.12-1.9 1.63l-0.19-0.26c1.28-1 1.71-1.56 2.15-2.76 0.39-1.06 0.56-2.28 0.56-3.87 0-1.66-0.21-2.98-0.63-3.95-0.45-1.01-0.93-1.58-2.08-2.51z"/><polygon id="polygon5061" points="485.8 410.57 490.32 391.25 491.34 391.25 487.25 410.59 491.34 429.89 490.32 429.89"/></g>
   </g>
   <text id="text5127" style="word-spacing:0px;letter-spacing:0px" font-size="16px" line-height="125%" y="345.94708" x="264.05417" font-family="&apos;STIX Two Text&apos;" xml:space="preserve" fill="#000000"><tspan id="tspan5129" font-size="16px" line-height="125%" y="345.94708" x="264.05417" font-family="&apos;STIX Two Math&apos;">⊕</tspan></text>
   <text id="text5131" style="word-spacing:0px;letter-spacing:0px" font-size="16px" line-height="125%" y="370.97314" x="265.19019" font-family="&apos;STIX Two Text&apos;" xml:space="preserve" fill="#000000"><tspan id="tspan5133" y="370.97314" x="265.19019">−</tspan></text>
  </g>
  <g font-size="16px" font-family="&apos;STIX Two Text&apos;" fill="#000000">
   <text id="text5135" style="word-spacing:0px;letter-spacing:0px" xml:space="preserve" line-height="125%" y="352.68411" x="114.784"><tspan id="tspan5137" x="114.784" y="352.68411">f(a)</tspan></text>
   <text id="text5139" style="word-spacing:0px;letter-spacing:0px" xml:space="preserve" line-height="125%" y="352.68411" x="355.02628"><tspan id="tspan5141" x="355.02628" y="352.68411">f(b)</tspan></text>
   <text id="text5143" style="word-spacing:0px;letter-spacing:0px" xml:space="preserve" line-height="125%" y="391.53165" x="120.71887"><tspan id="tspan5145" x="120.71887" y="391.53165">−</tspan></text>
   <text id="text5147" style="word-spacing:0px;letter-spacing:0px" xml:space="preserve" line-height="125%" y="391.53165" x="361.28928"><tspan id="tspan5149" x="361.28928" y="391.53165">+</tspan></text>
   <text id="text5151" style="word-spacing:0px;letter-spacing:0px" line-height="125%" y="372.97314" x="119.58287" xml:space="preserve"><tspan id="tspan5153" font-size="16px" line-height="125%" y="372.97314" x="119.58287" font-family="&apos;STIX Two Math&apos;">⊕</tspan></text>
   <text id="text5155" style="word-spacing:0px;letter-spacing:0px" xml:space="preserve" line-height="125%" y="372.97314" x="360.15329"><tspan id="tspan5157" font-size="16px" line-height="125%" y="372.97314" x="360.15329" font-family="&apos;STIX Two Math&apos;">⊖</tspan></text>
  </g>
 </g>
</svg>
