<?xml version="1.0" encoding="UTF-8" standalone="no"?>
<!-- Created with Inkscape (http://www.inkscape.org/) -->
<svg id="svg2" xmlns:rdf="http://www.w3.org/1999/02/22-rdf-syntax-ns#" xmlns="http://www.w3.org/2000/svg" height="135.68" width="185" version="1.1" xmlns:cc="http://creativecommons.org/ns#" xmlns:dc="http://purl.org/dc/elements/1.1/" viewBox="0 0 185 135.67752">
 <style type="text/css">
	@import url('../estilo.css');
 </style>
 <metadata id="metadata7">
  <rdf:RDF>
   <cc:Work rdf:about="">
    <dc:format>image/svg+xml</dc:format>
    <dc:type rdf:resource="http://purl.org/dc/dcmitype/StillImage"/>
    <dc:title/>
   </cc:Work>
  </rdf:RDF>
 </metadata>
 <g id="layer1" transform="translate(-210 -354.04)">
  <g stroke="#000" stroke-width="1px" fill="none">
   <path id="path4200" d="m215 467.36h175"/>
   <path id="path4202" d="m230 467.36v3"/>
   <path id="path4204" d="m300 467.36v3"/>
   <path id="path4206" d="m370 467.36v3"/>
  </g>
  <g stroke="#000">
   <rect id="rect4208" height="1.6437" width="1.6437" y="406.54" x="269.18"/>
   <rect id="rect4210" height="1.6437" width="1.6437" y="386.54" x="284.18"/>
   <rect id="rect4212" height="1.6437" width="1.6437" y="376.54" x="299.18"/>
   <rect id="rect4214" height="1.6437" width="1.6437" y="391.54" x="314.18"/>
   <rect id="rect4216" height="1.6437" width="1.6437" y="411.54" x="329.18"/>
  </g>
  <text id="text4218" style="word-spacing:0px;letter-spacing:0px" xml:space="preserve" font-size="16px" line-height="125%" y="471.7142" x="259.76471" font-family="&apos;STIX Two Text&apos;" fill="#000000"><tspan id="tspan4220" x="259.76471" y="471.7142">(</tspan></text>
  <text id="text4222" style="word-spacing:0px;letter-spacing:0px" xml:space="preserve" font-size="16px" line-height="125%" y="471.7142" x="335.41321" font-family="&apos;STIX Two Text&apos;" fill="#000000"><tspan id="tspan4224" x="335.41321" y="471.7142">)</tspan></text>
  <g stroke="#000" fill="none">
   <g stroke-dasharray="2, 2">
    <path id="path4226" d="m270 467.36v-60"/>
    <path id="path4228" d="m285 467.36v-80"/>
    <path id="path4230" d="m300 467.36v-90"/>
    <path id="path4232" d="m315 467.36v-75"/>
    <path id="path4234" d="m330 467.36v-55"/>
   </g>
   <path id="path4315" d="m270 407.36s8.9462-14.273 15-20c4.3654-4.1296 8.4598-10 15-10s10.367 9.6581 15 15c5.46 6.2954 15 20 15 20" stroke-width="1px"/>
  </g>
  <g font-size="16px" font-family="&apos;STIX Two Text&apos;" fill="#000000">
   <text id="text4317" style="word-spacing:0px;letter-spacing:0px" xml:space="preserve" line-height="125%" y="484.55417" x="225.888"><tspan id="tspan4319" x="225.888" y="484.55417">a</tspan></text>
   <text id="text4321" style="word-spacing:0px;letter-spacing:0px" xml:space="preserve" line-height="125%" y="484.55417" x="296.32001"><tspan id="tspan4323" x="296.32001" y="484.55417">c</tspan></text>
   <text id="text4325" style="word-spacing:0px;letter-spacing:0px" xml:space="preserve" line-height="125%" y="484.55417" x="366.04001"><tspan id="tspan4327" x="366.04001" y="484.55417">b</tspan></text>
   <text id="text4329" style="word-spacing:0px;letter-spacing:0px" xml:space="preserve" line-height="125%" y="370.71664" x="288.57971"><tspan id="tspan4331" x="288.57971" y="370.71664">f(c)</tspan></text>
  </g>
 </g>
</svg>
