<?xml version="1.0" encoding="UTF-8" standalone="no"?>
<!-- Created with Inkscape (http://www.inkscape.org/) -->
<svg id="svg2" xmlns:rdf="http://www.w3.org/1999/02/22-rdf-syntax-ns#" xmlns="http://www.w3.org/2000/svg" height="127.18" width="235" version="1.1" xmlns:cc="http://creativecommons.org/ns#" xmlns:dc="http://purl.org/dc/elements/1.1/" viewBox="0 0 235 127.18094">
 <style type="text/css">
	@import url('../estilo.css');
 </style>
 <metadata id="metadata7">
  <rdf:RDF>
   <cc:Work rdf:about="">
    <dc:format>image/svg+xml</dc:format>
    <dc:type rdf:resource="http://purl.org/dc/dcmitype/StillImage"/>
    <dc:title/>
   </cc:Work>
  </rdf:RDF>
 </metadata>
 <g id="layer1" transform="translate(-215 -292.7)">
  <g stroke="#000" fill="none">
   <g stroke-width="1px">
    <path id="path4200" d="m220 372.36h225"/>
    <path id="path4202" d="m235 372.36v3"/>
    <path id="path4204" d="m425 372.36v3"/>
    <path id="path4206" d="m235 332.36c41.982-47.969 42.728 10 85 10s89.682-92.328 105-10"/>
   </g>
   <path id="path4312" d="m235 332.36h190" stroke-dasharray="2, 2"/>
   <path id="path4314" d="m320 342.36v30" stroke-dasharray="2, 2"/>
   <path id="path4316" d="m320 372.36v3" stroke-width="1px"/>
  </g>
  <g font-size="16px" font-family="&apos;STIX Two Text&apos;" fill="#000000">
   <text id="text4318" style="word-spacing:0px;letter-spacing:0px" xml:space="preserve" line-height="125%" y="391.36221" x="230.888"><tspan id="tspan4320" x="230.888" y="391.36221">a</tspan></text>
   <text id="text4322" style="word-spacing:0px;letter-spacing:0px" xml:space="preserve" line-height="125%" y="391.36221" x="421.04001"><tspan id="tspan4324" x="421.04001" y="391.36221">b</tspan></text>
   <text id="text4326" style="word-spacing:0px;letter-spacing:0px" xml:space="preserve" line-height="125%" y="391.36221" x="316.32001"><tspan id="tspan4328" x="316.32001" y="391.36221">c</tspan></text>
  </g>
  <g id="g4427" transform="translate(-7.3537 54.184)">
   <g id="g4429" stroke-width="0" xml:space="preserve" transform="matrix(1.063 0 0 -1.063 -186.02 789.27)" stroke="#000" stroke-miterlimit="10.433"><path id="path4431" d="m460.93 413.17h-1.97v1.85c0 0.93 0.31 1.42 0.92 1.42 0.33 0 0.55-0.16 0.84-0.62 0.25-0.41 0.44-0.57 0.72-0.57 0.36 0 0.67 0.28 0.67 0.65 0 0.57-0.71 0.99-1.66 0.99-0.99 0-1.84-0.43-2.25-1.17-0.41-0.7-0.54-1.27-0.56-2.55h-1.3v-0.51h1.3v-5c0-1.16-0.18-1.36-1.32-1.42v-0.24h4.14v0.24c-1.3 0.05-1.48 0.22-1.48 1.42v5h1.95z"/><path id="path4433" d="m465.31 416.59v0.03 0.04l-0.01 0.03v0.04l-0.01 0.03-0.02 0.03-0.01 0.03-0.01 0.03-0.02 0.03-0.02 0.03-0.02 0.03-0.02 0.03-0.03 0.02-0.02 0.03-0.02 0.02-0.03 0.02-0.03 0.02-0.03 0.02-0.03 0.02-0.03 0.02-0.03 0.02-0.03 0.01-0.03 0.02-0.04 0.01-0.03 0.01-0.03 0.01-0.04 0.01h-0.03l-0.03 0.01h-0.04l-0.03 0.01h-0.04c-0.41 0-0.61-0.41-0.72-0.74l-1.16-3.38c-0.03-0.09-0.11-0.29-0.11-0.39s0.06-0.24 0.18-0.24c0.16 0 0.35 0.24 0.43 0.36l1.83 2.89c0.16 0.23 0.31 0.55 0.31 0.84z"/><path id="path4435" d="m469.7 416.78-0.11-0.07-0.1-0.07-0.1-0.07-0.1-0.06-0.09-0.07-0.09-0.06-0.09-0.06-0.08-0.06-0.08-0.06-0.08-0.06-0.08-0.05-0.07-0.06-0.07-0.06-0.07-0.05-0.13-0.11-0.13-0.11-0.12-0.11-0.11-0.11-0.11-0.12-0.11-0.11-0.11-0.13-0.11-0.12-0.11-0.14c-1.13-1.38-1.68-2.98-1.68-4.84 0-2.03 0.59-3.59 1.99-5.22 0.65-0.76 1.06-1.11 1.9-1.62l0.19 0.25c-1.28 1.01-1.73 1.57-2.15 2.76-0.39 1.07-0.56 2.28-0.56 3.88 0 1.67 0.2 2.98 0.63 3.97 0.45 0.98 0.93 1.56 2.08 2.48z"/><path id="path4437" d="m477.34 408.49-0.07-0.1-0.07-0.1-0.07-0.1-0.07-0.09-0.06-0.08-0.07-0.09-0.07-0.07-0.06-0.08-0.07-0.07-0.06-0.06-0.07-0.07-0.06-0.06-0.07-0.05-0.07-0.06-0.06-0.05-0.07-0.04-0.06-0.04-0.07-0.04-0.07-0.04-0.07-0.03-0.06-0.03-0.07-0.03-0.07-0.02-0.08-0.02-0.07-0.02-0.07-0.02-0.08-0.01-0.08-0.01-0.08-0.01-0.08-0.01h-0.08-0.08c-1.46 0-2.48 1.27-2.48 3.11 0 1.64 0.88 2.77 2.17 2.77 0.58 0 0.78-0.17 0.94-0.76l0.1-0.36c0.13-0.44 0.42-0.73 0.75-0.73 0.41 0 0.76 0.3 0.76 0.67 0 0.89-1.11 1.64-2.45 1.64-0.78 0-1.59-0.32-2.25-0.89-0.8-0.7-1.24-1.78-1.24-3.05 0-2.07 1.26-3.55 3.03-3.55 0.71 0 1.35 0.25 1.93 0.75 0.43 0.38 0.73 0.81 1.21 1.75z"/><path id="path4439" d="m478.61 403.18 0.1 0.07 0.11 0.07 0.1 0.07 0.1 0.06 0.09 0.07 0.09 0.06 0.09 0.06 0.08 0.06 0.08 0.06 0.08 0.05 0.08 0.06 0.07 0.06 0.07 0.05 0.07 0.06 0.13 0.11 0.12 0.11 0.12 0.11 0.12 0.11 0.11 0.11 0.11 0.12 0.1 0.12 0.11 0.13 0.11 0.13c1.13 1.39 1.69 2.98 1.69 4.85 0 2.04-0.59 3.58-1.99 5.21-0.65 0.76-1.07 1.12-1.9 1.63l-0.19-0.26c1.28-1 1.71-1.56 2.15-2.76 0.39-1.06 0.56-2.28 0.56-3.87 0-1.66-0.21-2.98-0.63-3.95-0.45-1.01-0.93-1.58-2.08-2.51z"/><polygon id="polygon4441" points="487.99 411.26 496.15 411.26 496.15 412.15 487.99 412.15"/><polygon id="polygon4443" points="487.99 408.02 496.15 408.02 496.15 408.92 487.99 408.92"/><path id="path4445" d="m506.05 416.78h-0.08l-0.08-0.01h-0.08l-0.08-0.01h-0.08l-0.07-0.01-0.08-0.01-0.07-0.01-0.08-0.02-0.07-0.01-0.07-0.02-0.07-0.02-0.07-0.02-0.06-0.02-0.07-0.02-0.07-0.03-0.06-0.03-0.07-0.02-0.06-0.03-0.06-0.04-0.06-0.03-0.07-0.03-0.06-0.04-0.06-0.04-0.06-0.04-0.06-0.04-0.05-0.04-0.06-0.05-0.06-0.05-0.05-0.04-0.06-0.05-0.06-0.05c-0.92-0.9-1.53-2.73-1.53-4.59 0-1.74 0.53-3.61 1.28-4.5 0.59-0.7 1.4-1.08 2.32-1.08v0.41c-1.37 0-2.07 1.71-2.07 5.02 0 3.38 0.72 5.15 2.09 5.15 1.34 0 2.06-1.8 2.06-5.13s-0.7-5.04-2.08-5.04v-0.41c0.82 0 1.5 0.27 2.08 0.83 0.92 0.87 1.53 2.72 1.53 4.65 0 3.27-1.45 5.52-3.54 5.52z"/></g>
  </g>
 </g>
</svg>
