<?xml version="1.0" encoding="UTF-8" standalone="no"?>
<!-- Created with Inkscape (http://www.inkscape.org/) -->
<svg id="svg2" xmlns:rdf="http://www.w3.org/1999/02/22-rdf-syntax-ns#" xmlns="http://www.w3.org/2000/svg" height="100.72" width="280" version="1.1" xmlns:cc="http://creativecommons.org/ns#" xmlns:dc="http://purl.org/dc/elements/1.1/" viewBox="0 0 280 100.7189">
 <style type="text/css">
	@import url('../estilo.css');
 </style>
 <metadata id="metadata7">
  <rdf:RDF>
   <cc:Work rdf:about="">
    <dc:format>image/svg+xml</dc:format>
    <dc:type rdf:resource="http://purl.org/dc/dcmitype/StillImage"/>
    <dc:title/>
   </cc:Work>
  </rdf:RDF>
 </metadata>
 <g id="layer1" transform="translate(-105 -403.71)">
  <g id="g5200" transform="translate(-155.73 71.358)">
   <g id="g5202" stroke-width="0" xml:space="preserve" transform="matrix(1.063 0 0 -1.063 -186.02 789.27)" stroke="#000" stroke-miterlimit="10.433"><path id="path5204" d="m460.43 406h3.21v0.24c-0.5 0-0.82 0.26-1.31 0.96l-2.04 3.12 1.32 1.91c0.3 0.43 0.78 0.69 1.29 0.7v0.24h-2.52v-0.24c0.48-0.03 0.64-0.13 0.64-0.35 0-0.19-0.19-0.54-0.59-1.03-0.08-0.1-0.27-0.39-0.48-0.7l-0.22 0.31c-0.44 0.68-0.73 1.22-0.73 1.42 0 0.22 0.2 0.34 0.68 0.35v0.24h-3.3v-0.24h0.15c0.47 0 0.73-0.2 1.22-0.95l1.5-2.3-1.82-2.63c-0.47-0.65-0.63-0.76-1.16-0.81v-0.24h2.31v0.24c-0.44 0-0.63 0.08-0.63 0.29 0 0.09 0.1 0.33 0.31 0.65l1.26 1.96 1.45-2.23c0.07-0.1 0.1-0.19 0.1-0.29 0-0.28-0.11-0.35-0.64-0.38z"/><path id="path5206" d="m468.3 405.53-0.14 0.06c-0.42-0.64-0.56-0.74-1.07-0.74h-2.66l1.87 1.96c1 1.04 1.43 1.89 1.43 2.76 0 1.11-0.9 1.97-2.06 1.97-0.62 0-1.2-0.24-1.61-0.69-0.36-0.38-0.52-0.74-0.71-1.53l0.23-0.05c0.45 1.09 0.85 1.45 1.62 1.45 0.94 0 1.57-0.64 1.57-1.58 0-0.87-0.51-1.91-1.45-2.9l-1.98-2.11v-0.13h4.35z"/><polygon id="polygon5208" points="485.15 412.15 476.99 412.15 476.99 411.26 485.15 411.26"/><polygon id="polygon5210" points="485.15 408.92 476.99 408.92 476.99 408.02 485.15 408.02"/><path id="path5212" d="m504.05 418.05-0.03-0.02-0.02-0.02-0.03-0.02-0.02-0.02-0.03-0.01-0.02-0.02-0.02-0.02-0.02-0.01-0.03-0.01-0.02-0.02-0.02-0.01-0.02-0.01-0.02-0.01-0.03-0.01-0.02-0.01-0.02-0.01-0.02-0.01-0.02-0.01-0.02-0.01h-0.02l-0.02-0.01-0.02-0.01h-0.02-0.02l-0.05-0.01-0.04-0.01h-0.04-0.05c-0.36 0-0.47 0.22-0.47 0.92v3.11c0 0.83-0.08 1.29-0.32 1.68-0.35 0.57-1.04 0.87-1.98 0.87-1.5 0-2.68-0.78-2.68-1.78 0-0.37 0.32-0.69 0.69-0.69 0.38 0 0.72 0.32 0.72 0.67 0 0.06-0.02 0.15-0.04 0.26-0.03 0.14-0.05 0.27-0.05 0.38 0 0.43 0.52 0.78 1.15 0.78 0.78 0 1.21-0.46 1.21-1.33v-0.96-0.39-2.31c0-0.5-0.07-0.64-0.41-0.83-0.38-0.22-0.83-0.36-1.16-0.36-0.56 0-1.01 0.54-1.01 1.22v0.06c0 0.95 0.65 1.52 2.58 2.22v0.39c-2.45-0.99-2.72-1.12-3.41-1.73-0.35-0.32-0.57-0.86-0.57-1.38 0-1.01 0.7-1.71 1.67-1.71 0.7 0 1.36 0.34 2.33 1.16 0.08-0.82 0.37-1.16 1.02-1.16 0.54 0 0.88 0.19 1.44 0.8z"/><polygon id="polygon5214" points="511.62 417 512.52 417 512.52 420.65 516.15 420.65 516.15 421.54 512.52 421.54 512.52 425.14 511.62 425.14 511.62 421.54 507.99 421.54 507.99 420.65 511.62 420.65"/><path id="path5216" d="m525.43 417h3.21v0.24c-0.5 0-0.82 0.26-1.31 0.96l-2.04 3.12 1.32 1.91c0.3 0.43 0.78 0.69 1.29 0.7v0.24h-2.52v-0.24c0.48-0.03 0.64-0.13 0.64-0.35 0-0.19-0.19-0.54-0.59-1.03-0.08-0.1-0.27-0.39-0.48-0.7l-0.22 0.31c-0.45 0.68-0.73 1.22-0.73 1.42 0 0.22 0.2 0.34 0.68 0.35v0.24h-3.3v-0.24h0.15c0.47 0 0.73-0.2 1.22-0.95l1.5-2.3-1.82-2.63c-0.47-0.65-0.63-0.76-1.16-0.81v-0.24h2.31v0.24c-0.44 0-0.63 0.08-0.63 0.29 0 0.09 0.1 0.33 0.31 0.65l1.26 1.96 1.45-2.23c0.06-0.1 0.1-0.19 0.1-0.29 0-0.28-0.11-0.35-0.64-0.38z"/><path id="path5218" d="m532.25 422.54-2.01-1.01v-0.16c0.13 0.06 0.26 0.1 0.3 0.12 0.2 0.08 0.39 0.13 0.5 0.13 0.24 0 0.34-0.17 0.34-0.53v-5.05c0-0.37-0.09-0.63-0.27-0.73-0.17-0.1-0.33-0.13-0.79-0.14v-0.17h3.08v0.17c-0.88 0.01-1.06 0.12-1.06 0.65v6.7z"/><polyline id="polyline5220" points="497 410 534.8 410 534.8 410.96 497 410.96"/><path id="path5222" d="m518.57 397.18-0.21 0.08c-0.59-0.9-0.79-1.05-1.51-1.05h-3.81l2.68 2.81c1.42 1.48 2.04 2.69 2.04 3.93 0 1.6-1.29 2.83-2.95 2.83-0.88 0-1.71-0.35-2.29-0.99-0.52-0.54-0.75-1.06-1.02-2.19l0.33-0.08c0.64 1.57 1.21 2.08 2.31 2.08 1.34 0 2.25-0.91 2.25-2.25 0-1.24-0.73-2.73-2.07-4.15l-2.84-3.01v-0.19h6.22z"/></g>
  </g>
  <g stroke="#000" fill="none">
   <path id="path4905" d="m110 452.36h270" stroke-width="1px"/>
   <g>
    <path id="path5203" d="m130.92 462.64h-5.9155"/>
    <path id="path5201" d="m125 462.64v-20.563"/>
    <path id="rect4219" d="m125 442.08h5.9155"/>
    <path id="path5221" d="m359.08 462.64h5.9155"/>
    <path id="path5219" d="m365 462.64v-20.563"/>
    <path id="path4226" d="m365 442.08h-5.9155"/>
   </g>
   <path id="path4996" d="m185 449.36v6" stroke-width="1px"/>
   <path id="path4998" d="m245 455.36v-6" stroke-width="1px"/>
  </g>
  <g id="g5016" transform="translate(-92.792 130.04)">
   <g id="content" stroke-width="0" xml:space="preserve" transform="matrix(1.063 0 0 -1.063 -186.02 789.27)" stroke="#000" stroke-miterlimit="10.433"><path id="path5019" d="m460.43 406h3.21v0.24c-0.5 0-0.82 0.26-1.31 0.96l-2.04 3.12 1.32 1.91c0.3 0.43 0.78 0.69 1.29 0.7v0.24h-2.52v-0.24c0.48-0.03 0.64-0.13 0.64-0.35 0-0.19-0.19-0.54-0.59-1.03-0.08-0.1-0.27-0.39-0.48-0.7l-0.22 0.31c-0.44 0.68-0.73 1.22-0.73 1.42 0 0.22 0.2 0.34 0.68 0.35v0.24h-3.3v-0.24h0.15c0.47 0 0.73-0.2 1.22-0.95l1.5-2.3-1.82-2.63c-0.47-0.65-0.63-0.76-1.16-0.81v-0.24h2.31v0.24c-0.44 0-0.63 0.08-0.63 0.29 0 0.09 0.1 0.33 0.31 0.65l1.26 1.96 1.45-2.23c0.07-0.1 0.1-0.19 0.1-0.29 0-0.28-0.11-0.35-0.64-0.38z"/><path id="path5021" d="m466.25 411.54-2.01-1.01v-0.16c0.13 0.06 0.26 0.1 0.3 0.12 0.2 0.08 0.39 0.13 0.5 0.13 0.24 0 0.34-0.17 0.34-0.53v-5.05c0-0.37-0.09-0.63-0.27-0.73-0.17-0.1-0.32-0.13-0.79-0.14v-0.17h3.07v0.17c-0.87 0.01-1.05 0.12-1.05 0.65v6.7z"/><polygon id="polygon5023" points="485.15 412.15 476.99 412.15 476.99 411.26 485.15 411.26"/><polygon id="polygon5025" points="485.15 408.92 476.99 408.92 476.99 408.02 485.15 408.02"/><path id="path5027" d="m504.05 418.05-0.03-0.02-0.02-0.02-0.03-0.02-0.02-0.02-0.03-0.01-0.02-0.02-0.02-0.02-0.02-0.01-0.03-0.01-0.02-0.02-0.02-0.01-0.02-0.01-0.02-0.01-0.03-0.01-0.02-0.01-0.02-0.01-0.02-0.01-0.02-0.01-0.02-0.01h-0.02l-0.02-0.01-0.02-0.01h-0.02-0.02l-0.05-0.01-0.04-0.01h-0.04-0.05c-0.36 0-0.47 0.22-0.47 0.92v3.11c0 0.83-0.08 1.29-0.32 1.68-0.35 0.57-1.04 0.87-1.98 0.87-1.5 0-2.68-0.78-2.68-1.78 0-0.37 0.32-0.69 0.69-0.69 0.38 0 0.72 0.32 0.72 0.67 0 0.06-0.02 0.15-0.04 0.26-0.03 0.14-0.05 0.27-0.05 0.38 0 0.43 0.52 0.78 1.15 0.78 0.78 0 1.21-0.46 1.21-1.33v-0.96-0.39-2.31c0-0.5-0.07-0.64-0.41-0.83-0.38-0.22-0.83-0.36-1.16-0.36-0.56 0-1.01 0.54-1.01 1.22v0.06c0 0.95 0.65 1.52 2.58 2.22v0.39c-2.45-0.99-2.72-1.12-3.41-1.73-0.35-0.32-0.57-0.86-0.57-1.38 0-1.01 0.7-1.71 1.67-1.71 0.7 0 1.36 0.34 2.33 1.16 0.08-0.82 0.37-1.16 1.02-1.16 0.54 0 0.88 0.19 1.44 0.8z"/><polygon id="polygon5029" points="511.62 421.54 507.99 421.54 507.99 420.65 511.62 420.65 511.62 417 512.52 417 512.52 420.65 516.15 420.65 516.15 421.54 512.52 421.54 512.52 425.14 511.62 425.14"/><path id="path5031" d="m523.44 427.86-0.08 0.03c-0.67-0.24-1.1-0.37-1.85-0.58l-0.46-0.12v-0.26c0.1 0.02 0.16 0.02 0.27 0.02 0.64 0 0.78-0.15 0.78-0.82v-8.27c0-0.49 1.35-1.02 2.63-1.02l0.25 0.51c-0.82 0-1.54 0.37-1.54 0.77v4.01c0 0.62 0.75 1.2 1.58 1.2 1.24 0 2.04-1.24 2.04-3.19 0-1.77-0.77-2.79-2.08-2.79l-0.25-0.51c2.11 0 3.73 1.75 3.73 4.04 0 1.96-1.21 3.45-2.8 3.45-0.98 0-1.9-0.57-2.22-1.35z"/><polyline id="polyline5033" points="497 410 529.28 410 529.28 410.96 497 410.96"/><path id="path5035" d="m516.57 397.18-0.21 0.08c-0.59-0.9-0.79-1.05-1.51-1.05h-3.81l2.68 2.81c1.42 1.48 2.04 2.69 2.04 3.93 0 1.6-1.29 2.83-2.95 2.83-0.88 0-1.7-0.35-2.29-0.99-0.52-0.54-0.75-1.06-1.02-2.19l0.33-0.08c0.63 1.57 1.21 2.08 2.31 2.08 1.34 0 2.25-0.91 2.25-2.25 0-1.24-0.73-2.73-2.07-4.15l-2.84-3.01v-0.19h6.22z"/></g>
  </g>
  <text id="text5150" style="word-spacing:0px;letter-spacing:0px" font-size="16px" line-height="125%" y="481.36218" x="123.84574" font-family="&apos;STIX Two Text&apos;" xml:space="preserve" fill="#000000"><tspan id="tspan5152" y="481.36218" x="123.84574">a</tspan></text>
  <text id="text5154" style="word-spacing:0px;letter-spacing:0px" font-size="16px" line-height="125%" y="481.36218" x="358.08224" font-family="&apos;STIX Two Text&apos;" xml:space="preserve" fill="#000000"><tspan id="tspan5156" y="481.36218" x="358.08224">b</tspan></text>
 </g>
</svg>
