<?xml version="1.0" encoding="UTF-8" standalone="no"?>
<!-- Created with Inkscape (http://www.inkscape.org/) -->
<svg id="svg2" xmlns:rdf="http://www.w3.org/1999/02/22-rdf-syntax-ns#" xmlns="http://www.w3.org/2000/svg" height="193.03" width="235" version="1.1" xmlns:cc="http://creativecommons.org/ns#" xmlns:dc="http://purl.org/dc/elements/1.1/" viewBox="0 0 235 193.03427">
 <style type="text/css">
	@import url('../estilo.css');
 </style>
 <metadata id="metadata7">
  <rdf:RDF>
   <cc:Work rdf:about="">
    <dc:format>image/svg+xml</dc:format>
    <dc:type rdf:resource="http://purl.org/dc/dcmitype/StillImage"/>
    <dc:title/>
   </cc:Work>
  </rdf:RDF>
 </metadata>
 <g id="layer1" transform="translate(-135 -304.12)">
  <path id="path4278" d="m155 400.36s9.3856-33.706 25-33c13.338 0.60281 18.259 38.603 20 45 4.8913 17.974 11.733 53.918 25 50 14.918-4.4051 17.637-32.882 25-50 7.7081-17.92 7.2348-55.638 20-55 6.1717 0.30849 8.0588 41.477 10 55 3.3491 23.331 5.4529 69.734 10 70 7.5268 0.44108 7.4452-45.935 10-70 3.3305-31.372 11.617-89.928 25-90 14.38-0.077 20 66 20 66" stroke="#000" stroke-width="1px" fill="none"/>
  <path id="path4235" d="m140 412.36h225" stroke="#000" stroke-width="1px" fill="none"/>
  <g stroke="#000">
   <circle id="circle4244" cy="1521.2" cx="1216.2" r=".0000084104"/>
   <circle id="circle4246" cy="1537.2" cx="1229" r=".0000084104"/>
   <circle id="circle4248" cy="1536.8" cx="1251.6" r=".0000084104"/>
   <circle id="path4268" cx="290" cy="482.36" r="1.2961"/>
   <circle id="circle4270" cy="322.36" cx="325" r="1.2961"/>
  </g>
  <path id="path4274" d="m155 415.36v-3" stroke="#000" stroke-width="1px" fill="none"/>
  <path id="path4276" d="m345 415.36v-3" stroke="#000" stroke-width="1px" fill="none"/>
  <g font-size="16px" font-family="&apos;STIX Two Text&apos;" fill="#000000">
   <text id="text4376" style="word-spacing:0px;letter-spacing:0px" xml:space="preserve" line-height="125%" y="429.25894" x="150.888"><tspan id="tspan4378" x="150.888" y="429.25894">a</tspan></text>
   <text id="text4380" style="word-spacing:0px;letter-spacing:0px" xml:space="preserve" line-height="125%" y="429.25894" x="341.04001"><tspan id="tspan4382" x="341.04001" y="429.25894">b</tspan></text>
   <text id="text4384" style="word-spacing:0px;letter-spacing:0px" xml:space="preserve" line-height="125%" y="319.6333" x="329.39059"><tspan id="tspan4386" x="329.39059" y="319.6333">M</tspan></text>
   <text id="text4388" style="word-spacing:0px;letter-spacing:0px" xml:space="preserve" line-height="125%" y="492.15558" x="273.19907"><tspan id="tspan4390" x="273.19907" y="492.15558">m</tspan></text>
  </g>
  <circle id="circle4261" stroke="#000" cy="400.36" cx="155" r="1.2961"/>
  <circle id="circle4263" cx="345" stroke="#000" cy="388.36" r="1.2961"/>
 </g>
</svg>
