<?xml version="1.0" encoding="UTF-8" standalone="no"?>
<svg id="svg9838" xmlns:rdf="http://www.w3.org/1999/02/22-rdf-syntax-ns#" xmlns="http://www.w3.org/2000/svg" xmlns:ns0="http://www.iki.fi/pav/software/textext/" height="250" width="425" version="1.1" xmlns:cc="http://creativecommons.org/ns#" xmlns:xlink="http://www.w3.org/1999/xlink" viewBox="0 0 425 250" xmlns:dc="http://purl.org/dc/elements/1.1/">
 <defs>
  <path id="gpPt0" stroke="currentColor" stroke-width=".222" d="m-1 0h2m-1-1v2"/>
  <circle id="gpPt5" stroke-width=".222" cy="0" stroke="currentColor" cx="0" r="1"/>
  <use id="gpPt6" xlink:href="#gpPt5" fill="currentColor"/>
 </defs>
 <metadata id="metadata10029">
  <rdf:RDF>
   <cc:Work rdf:about="">
    <dc:format>image/svg+xml</dc:format>
    <dc:type rdf:resource="http://purl.org/dc/dcmitype/StillImage"/>
    <dc:title>Gnuplot</dc:title>
   </cc:Work>
  </rdf:RDF>
 </metadata>
 <title id="title9840">Gnuplot</title>
 <desc id="desc9842">Produced by GNUPLOT 5.0 patchlevel 3</desc>
 <g stroke-width="0" fill-rule="evenodd" stroke="#000" stroke-miterlimit="10.433">
  <g id="g8626" xml:space="preserve" ns0:pdfconverter="pstoedit" transform="matrix(1.75 0 0 -1.75 -5.0991 1364.9)" ns0:text="$\\bar{r}_i$" ns0:version="0.7.2" ns0:inkscapeversion="0.91" ns0:preamble="/usr/share/inkscape/extensions/default_packages.tex" ns0:scale="1.4" ns0:texconverter="pdflatex"><polygon id="polygon8628" points="149.4 712.57 152.5 712.57 152.5 713.11 149.4 713.11"/><path id="path8630" d="m149.91 707.12 0.05 0.16 0.05 0.15 0.04 0.14 0.04 0.13 0.05 0.13 0.03 0.12 0.04 0.12 0.04 0.11 0.03 0.11 0.04 0.1 0.03 0.1 0.03 0.09 0.04 0.09 0.03 0.08 0.03 0.08 0.03 0.08 0.03 0.08 0.03 0.07 0.06 0.14 0.07 0.14 0.06 0.13 0.07 0.13 0.07 0.13 0.08 0.13 0.04 0.07 0.04 0.07c0.33 0.56 0.61 0.87 0.78 0.87 0.06 0 0.11-0.04 0.16-0.14 0.08-0.17 0.16-0.22 0.36-0.22 0.29 0 0.46 0.18 0.46 0.49s-0.2 0.52-0.47 0.52c-0.23 0-0.5-0.15-0.76-0.42-0.41-0.42-0.81-1.01-0.97-1.41l-0.14-0.36 0.53 2.17-0.03 0.02c-0.73-0.13-0.82-0.15-1.54-0.27v-0.17c0.24 0.05 0.27 0.05 0.34 0.05 0.21 0 0.34-0.1 0.34-0.28 0-0.14 0-0.14-0.16-0.82l-0.8-2.91z"/><path id="path8632" d="m154.14 706.42-0.02-0.02-0.01-0.01-0.02-0.02-0.01-0.02-0.01-0.02-0.02-0.01-0.01-0.02-0.01-0.01-0.01-0.02-0.01-0.01-0.01-0.01-0.01-0.02-0.01-0.01-0.01-0.01-0.01-0.01v-0.01l-0.01-0.01-0.01-0.01h-0.01v-0.01l-0.01-0.01-0.01-0.01-0.01-0.01-0.01-0.02-0.01-0.01-0.02-0.02-0.01-0.01c-0.12-0.12-0.22-0.19-0.29-0.19-0.05 0-0.11 0.06-0.11 0.11 0 0.06 0.02 0.17 0.07 0.3 0 0.02 0.02 0.07 0.04 0.13v0.01 0.02l0.62 2.24-0.02 0.02c-0.71-0.14-0.85-0.16-1.12-0.18v-0.11c0.37-0.01 0.44-0.03 0.44-0.17 0-0.05-0.02-0.16-0.06-0.3l-0.34-1.24c-0.11-0.4-0.15-0.62-0.15-0.76 0-0.26 0.11-0.4 0.32-0.4 0.32 0 0.58 0.21 0.98 0.8z"/><path id="path8634" d="m154.08 710.19h-0.02-0.01-0.02l-0.02-0.01h-0.01l-0.02-0.01h-0.02l-0.01-0.01h-0.02l-0.01-0.01-0.01-0.01-0.02-0.01-0.01-0.01-0.01-0.01-0.01-0.01-0.01-0.02-0.02-0.01-0.01-0.01v-0.02l-0.01-0.01-0.01-0.02-0.01-0.01-0.01-0.02v-0.01l-0.01-0.02v-0.02l-0.01-0.01v-0.02-0.02l-0.01-0.02v-0.02-0.02c0-0.22 0.13-0.37 0.34-0.37 0.18 0 0.34 0.16 0.34 0.36s-0.16 0.38-0.35 0.38z"/></g>
  <g id="g8926" xml:space="preserve" ns0:pdfconverter="pstoedit" transform="matrix(1.75 0 0 -1.75 10.242 1375.8)" ns0:text="$p_i$" ns0:version="0.7.2" ns0:inkscapeversion="0.91" ns0:preamble="/usr/share/inkscape/extensions/default_packages.tex" ns0:scale="1.4" ns0:texconverter="pdflatex"><path id="path8928" d="m150.02 711.15h0.23s0.02 0 0.03 0.01c0.13 0.06 0.38-0.13 0.38-0.28 0-0.09-0.35-1.51-0.7-2.82-0.27-1-0.51-1.94-0.58-2.23-0.11-0.46-0.24-0.58-0.67-0.59v-0.16h2.05v0.15c-0.47 0-0.64 0.09-0.64 0.3 0 0.14 0.17 0.92 0.37 1.65 0.25-0.13 0.42-0.17 0.65-0.17l-0.04 0.19c-0.28 0-0.47 0.15-0.47 0.37 0 0.34 0.35 1.65 0.64 2.38 0.27 0.68 0.85 1.17 1.35 1.14 0.43-0.02 0.62-0.28 0.62-0.86 0-0.66-0.29-1.51-0.72-2.13-0.42-0.59-0.9-0.9-1.42-0.9l0.04-0.19c1.46 0 2.99 1.68 2.99 3.26 0 0.78-0.44 1.25-1.14 1.25-0.65 0-1.13-0.32-1.71-1.13l0.29 1 0.03 0.09s-0.01 0.01-0.02 0.03l-0.02 0.01c0 0.01-0.01 0.01-0.01 0.01l-0.02-0.01-1.53-0.22z"/><path id="path8930" d="m155.99 706.42-0.02-0.02-0.01-0.01-0.02-0.02-0.01-0.02-0.01-0.02-0.01-0.01-0.02-0.02-0.01-0.01-0.01-0.02-0.01-0.01-0.01-0.01-0.01-0.02-0.01-0.01-0.01-0.01v-0.01l-0.01-0.01-0.01-0.01-0.01-0.01-0.01-0.01-0.01-0.02-0.02-0.01-0.01-0.02-0.01-0.01-0.02-0.02-0.01-0.01c-0.12-0.12-0.22-0.19-0.28-0.19s-0.12 0.06-0.12 0.11c0 0.06 0.03 0.17 0.07 0.3 0 0.02 0.03 0.07 0.04 0.13v0.01l0.01 0.02 0.61 2.24-0.02 0.02c-0.71-0.14-0.85-0.16-1.12-0.18v-0.11c0.37-0.01 0.44-0.03 0.44-0.17 0-0.05-0.02-0.16-0.06-0.3l-0.34-1.24c-0.11-0.4-0.15-0.62-0.15-0.76 0-0.26 0.11-0.4 0.32-0.4 0.32 0 0.58 0.21 0.98 0.8z"/><path id="path8932" d="m155.93 710.19h-0.02-0.01-0.02l-0.02-0.01h-0.01l-0.02-0.01h-0.01l-0.02-0.01h-0.01l-0.02-0.01-0.01-0.01-0.01-0.01-0.02-0.01-0.01-0.01-0.01-0.01-0.01-0.02-0.01-0.01-0.01-0.01-0.01-0.02-0.01-0.01-0.01-0.02-0.01-0.01v-0.02l-0.01-0.01-0.01-0.02v-0.02l-0.01-0.01v-0.02-0.02-0.02-0.02l-0.01-0.02c0-0.22 0.14-0.37 0.34-0.37 0.18 0 0.34 0.16 0.34 0.36s-0.16 0.38-0.35 0.38z"/></g>
  <g id="g9232" xml:space="preserve" ns0:pdfconverter="pstoedit" transform="matrix(1.75 0 0 -1.75 25.299 1389.1)" ns0:text="$y_i,\\bar{y}_i$" ns0:version="0.7.2" ns0:inkscapeversion="0.91" ns0:preamble="/usr/share/inkscape/extensions/default_packages.tex" ns0:scale="1.4" ns0:texconverter="pdflatex"><path id="path9234" d="m148.86 711.11h0.01 0.01l0.01 0.01h0.02 0.01 0.01 0.01l0.01 0.01h0.02 0.02l0.01 0.01h0.02 0.02 0.02 0.01 0.02l0.02 0.01h0.02 0.02 0.01 0.01c0.57 0 0.72-0.25 1.17-1.97 0.17-0.64 0.41-1.81 0.41-1.98 0-0.16-0.06-0.32-0.21-0.5-0.31-0.4-0.5-0.66-0.61-0.78-0.21-0.22-0.33-0.3-0.46-0.3-0.06 0-0.13 0.03-0.24 0.11-0.15 0.12-0.26 0.17-0.37 0.17-0.22 0-0.39-0.17-0.39-0.39 0-0.25 0.22-0.44 0.51-0.44 0.64 0 1.94 1.5 3.02 3.47 0.68 1.22 0.95 1.94 0.95 2.43 0 0.3-0.24 0.55-0.54 0.55-0.23 0-0.39-0.15-0.39-0.37 0-0.15 0.08-0.26 0.28-0.39 0.19-0.11 0.26-0.2 0.26-0.34 0-0.4-0.37-1.18-1.22-2.58l-0.2 1.15c-0.15 0.88-0.71 2.53-0.86 2.53h-0.04c-0.01-0.01-0.05-0.01-0.09-0.01-0.08-0.01-0.44-0.07-0.97-0.17-0.05-0.01-0.18-0.04-0.32-0.06z"/><path id="path9236" d="m154.68 706.42-0.01-0.02-0.02-0.01-0.01-0.02-0.01-0.02-0.02-0.02-0.01-0.01-0.01-0.02-0.01-0.01-0.01-0.02-0.01-0.01-0.01-0.01-0.01-0.02-0.01-0.01-0.01-0.01-0.01-0.01-0.01-0.01v-0.01l-0.01-0.01h-0.01l-0.01-0.01v-0.01l-0.01-0.01-0.01-0.01-0.01-0.02-0.02-0.01-0.01-0.02-0.01-0.01c-0.12-0.12-0.23-0.19-0.29-0.19-0.05 0-0.11 0.06-0.11 0.11 0 0.06 0.02 0.17 0.07 0.3 0 0.02 0.02 0.07 0.03 0.13v0.01l0.01 0.02 0.62 2.24-0.03 0.02c-0.7-0.14-0.84-0.16-1.11-0.18v-0.11c0.37-0.01 0.44-0.03 0.44-0.17 0-0.05-0.02-0.16-0.07-0.3l-0.33-1.24c-0.11-0.4-0.15-0.62-0.15-0.76 0-0.26 0.11-0.4 0.32-0.4 0.32 0 0.58 0.21 0.97 0.8z"/><path id="path9238" d="m154.63 710.19h-0.02-0.02-0.01l-0.02-0.01h-0.02l-0.01-0.01h-0.02l-0.01-0.01h-0.02l-0.01-0.01-0.02-0.01-0.01-0.01-0.01-0.01-0.01-0.01-0.02-0.01-0.01-0.02-0.01-0.01-0.01-0.01-0.01-0.02-0.01-0.01v-0.02l-0.01-0.01-0.01-0.02-0.01-0.01v-0.02l-0.01-0.02v-0.01-0.02l-0.01-0.02v-0.02-0.02-0.02c0-0.22 0.13-0.37 0.33-0.37 0.19 0 0.35 0.16 0.35 0.36s-0.16 0.38-0.35 0.38z"/><path id="path9240" d="m157.51 707.18v0.04 0.04 0.03 0.04l-0.01 0.03v0.04 0.03l-0.01 0.03-0.01 0.03v0.03l-0.01 0.03-0.01 0.03-0.01 0.02-0.01 0.03-0.01 0.03-0.01 0.02-0.01 0.02-0.01 0.03-0.03 0.04-0.02 0.04-0.03 0.04-0.03 0.03-0.03 0.03-0.03 0.03-0.03 0.03-0.04 0.02-0.03 0.03-0.03 0.02-0.04 0.01-0.03 0.02-0.03 0.01-0.04 0.02-0.03 0.01h-0.03l-0.03 0.01-0.03 0.01h-0.03l-0.03 0.01h-0.03-0.02-0.02c-0.25 0-0.58-0.15-0.58-0.58 0-0.4 0.36-0.5 0.62-0.5 0.07 0 0.12 0.01 0.15 0.02 0.04 0.01 0.07 0.02 0.09 0.02 0.07 0 0.14-0.05 0.14-0.14 0-0.19-0.16-0.63-0.82-1.05l0.09-0.19c0.3 0.1 1.11 0.75 1.11 1.46z"/><polygon id="polygon9242" points="160.57 712.57 163.67 712.57 163.67 713.11 160.57 713.11"/><path id="path9244" d="m159.88 711.11h0.01 0.01l0.01 0.01h0.01 0.01 0.01 0.01l0.01 0.01h0.02 0.02l0.02 0.01h0.02 0.02 0.01 0.02 0.02l0.02 0.01h0.02 0.02 0.01 0.01c0.56 0 0.71-0.25 1.17-1.97 0.17-0.64 0.41-1.81 0.41-1.98 0-0.16-0.06-0.32-0.21-0.5-0.31-0.4-0.51-0.66-0.62-0.78-0.21-0.22-0.33-0.3-0.45-0.3-0.06 0-0.14 0.03-0.24 0.11-0.15 0.12-0.26 0.17-0.37 0.17-0.22 0-0.39-0.17-0.39-0.39 0-0.25 0.22-0.44 0.51-0.44 0.63 0 1.94 1.5 3.01 3.47 0.68 1.22 0.96 1.94 0.96 2.43 0 0.3-0.25 0.55-0.55 0.55-0.22 0-0.38-0.15-0.38-0.37 0-0.15 0.08-0.26 0.27-0.39 0.19-0.11 0.26-0.2 0.26-0.34 0-0.4-0.37-1.18-1.21-2.58l-0.2 1.15c-0.15 0.88-0.71 2.53-0.86 2.53h-0.04c-0.01-0.01-0.05-0.01-0.09-0.01-0.09-0.01-0.45-0.07-0.97-0.17-0.05-0.01-0.18-0.04-0.32-0.06z"/><path id="path9246" d="m165.69 706.42-0.01-0.02-0.02-0.01-0.01-0.02-0.01-0.02-0.02-0.02-0.01-0.01-0.01-0.02-0.01-0.01-0.01-0.02-0.01-0.01-0.01-0.01-0.01-0.02-0.01-0.01-0.01-0.01-0.01-0.01-0.01-0.01v-0.01l-0.01-0.01h-0.01l-0.01-0.01-0.01-0.02-0.01-0.01-0.01-0.02-0.02-0.01-0.01-0.02-0.01-0.01c-0.12-0.12-0.23-0.19-0.29-0.19-0.05 0-0.11 0.06-0.11 0.11 0 0.06 0.02 0.17 0.07 0.3 0 0.02 0.02 0.07 0.03 0.13v0.01l0.01 0.02 0.62 2.24-0.03 0.02c-0.7-0.14-0.84-0.16-1.11-0.18v-0.11c0.37-0.01 0.44-0.03 0.44-0.17 0-0.05-0.02-0.16-0.06-0.3l-0.34-1.24c-0.11-0.4-0.15-0.62-0.15-0.76 0-0.26 0.11-0.4 0.32-0.4 0.32 0 0.58 0.21 0.97 0.8z"/><path id="path9248" d="m165.64 710.19h-0.02-0.02-0.01l-0.02-0.01h-0.02l-0.01-0.01h-0.02l-0.01-0.01h-0.02l-0.01-0.01-0.02-0.01-0.01-0.01-0.01-0.01-0.01-0.01-0.02-0.01-0.01-0.02-0.01-0.01-0.01-0.01-0.01-0.02-0.01-0.01v-0.02l-0.01-0.01-0.01-0.02-0.01-0.01v-0.02l-0.01-0.02v-0.01-0.02l-0.01-0.02v-0.02-0.02-0.02c0-0.22 0.13-0.37 0.33-0.37 0.19 0 0.35 0.16 0.35 0.36s-0.16 0.38-0.35 0.38z"/></g>
  <g id="g8060" xml:space="preserve" ns0:pdfconverter="pstoedit" transform="matrix(1.75 0 0 -1.75 -12.532 1404.8)" ns0:text="\\tiny\n$\\text{CM}$" ns0:version="0.7.2" ns0:inkscapeversion="0.91" ns0:preamble="/usr/share/inkscape/extensions/default_packages.tex" ns0:scale="1.4" ns0:texconverter="pdflatex"><path id="path8062" d="m151.8 709.36-0.05 1.13h-0.1c-0.03-0.1-0.11-0.16-0.21-0.16-0.04 0-0.12 0.01-0.2 0.04-0.24 0.08-0.49 0.12-0.72 0.12-0.41 0-0.82-0.15-1.13-0.43-0.35-0.31-0.54-0.77-0.54-1.32 0-0.46 0.15-0.89 0.4-1.17 0.3-0.33 0.76-0.52 1.25-0.52 0.57 0 1.06 0.23 1.36 0.63l-0.09 0.1c-0.37-0.36-0.69-0.51-1.11-0.51-0.31 0-0.59 0.1-0.8 0.29-0.28 0.24-0.43 0.69-0.43 1.25 0 0.9 0.46 1.48 1.18 1.48 0.29 0 0.55-0.1 0.74-0.3 0.16-0.16 0.24-0.3 0.33-0.63z"/><path id="path8064" d="m155.39 709.98v-2.26c0-0.41-0.06-0.48-0.45-0.5v-0.1h1.39v0.1c-0.36 0.02-0.43 0.09-0.43 0.44v2.22c0 0.35 0.06 0.42 0.43 0.45v0.09h-0.99l-1.1-2.51-1.15 2.51h-0.99v-0.09c0.41-0.03 0.47-0.09 0.47-0.45v-2.03c0-0.51-0.06-0.6-0.48-0.63v-0.1h1.17v0.1c-0.38 0.02-0.47 0.13-0.47 0.63v2.01l1.25-2.74h0.08z"/></g>
  <g id="g8336" xml:space="preserve" ns0:pdfconverter="pstoedit" transform="matrix(1.75 0 0 -1.75 4.9325 1425.7)" ns0:text="$p_i\&apos;$" ns0:version="0.7.2" ns0:inkscapeversion="0.91" ns0:preamble="/usr/share/inkscape/extensions/default_packages.tex" ns0:scale="1.4" ns0:texconverter="pdflatex"><path id="path8338" d="m150.02 711.15h0.23s0.02 0 0.03 0.01c0.13 0.06 0.38-0.13 0.38-0.28 0-0.09-0.35-1.51-0.7-2.82-0.27-1-0.51-1.94-0.58-2.23-0.11-0.46-0.24-0.58-0.67-0.59v-0.16h2.05v0.15c-0.47 0-0.64 0.09-0.64 0.3 0 0.14 0.17 0.92 0.37 1.65 0.25-0.13 0.42-0.17 0.65-0.17l-0.04 0.19c-0.28 0-0.47 0.15-0.47 0.37 0 0.34 0.35 1.65 0.64 2.38 0.27 0.68 0.85 1.17 1.35 1.14 0.43-0.02 0.62-0.28 0.62-0.86 0-0.66-0.29-1.51-0.72-2.13-0.42-0.59-0.9-0.9-1.42-0.9l0.04-0.19c1.46 0 2.99 1.68 2.99 3.26 0 0.78-0.44 1.25-1.14 1.25-0.65 0-1.13-0.32-1.71-1.13l0.29 1 0.03 0.09s-0.01 0.01-0.02 0.03l-0.02 0.01c0 0.01-0.01 0.01-0.01 0.01l-0.02-0.01-1.53-0.22z"/><path id="path8340" d="m156.51 713.61v0.02 0.03l-0.01 0.02v0.02l-0.01 0.02v0.02l-0.01 0.02-0.01 0.02-0.01 0.02-0.01 0.01-0.02 0.02-0.01 0.02-0.01 0.01-0.02 0.02-0.02 0.01-0.01 0.02-0.02 0.01-0.02 0.01-0.02 0.02-0.02 0.01-0.01 0.01-0.02 0.01-0.02 0.01h-0.02l-0.03 0.01-0.02 0.01h-0.02l-0.02 0.01h-0.02-0.02-0.02-0.02c-0.26 0-0.39-0.25-0.46-0.46l-0.72-2.11c-0.02-0.06-0.07-0.18-0.07-0.24 0-0.07 0.04-0.15 0.11-0.15 0.11 0 0.22 0.15 0.27 0.22l1.15 1.81c0.09 0.14 0.19 0.34 0.19 0.52z"/><path id="path8342" d="m155.99 704.74-0.02-0.02-0.01-0.01-0.02-0.02-0.01-0.02-0.01-0.02-0.01-0.01-0.02-0.02-0.01-0.01-0.01-0.02-0.01-0.01-0.01-0.01-0.01-0.02-0.01-0.01-0.01-0.01v-0.01l-0.01-0.01-0.01-0.01-0.01-0.01-0.01-0.01-0.01-0.01v-0.01l-0.02-0.01-0.01-0.02-0.01-0.01-0.02-0.02-0.01-0.01c-0.12-0.12-0.22-0.19-0.28-0.19s-0.12 0.06-0.12 0.11c0 0.07 0.03 0.17 0.07 0.3 0 0.02 0.03 0.07 0.04 0.13v0.01l0.01 0.02 0.61 2.24-0.02 0.02c-0.71-0.14-0.85-0.16-1.12-0.18v-0.11c0.37-0.01 0.44-0.03 0.44-0.17 0-0.05-0.02-0.16-0.06-0.3l-0.34-1.24c-0.11-0.4-0.15-0.62-0.15-0.76 0-0.26 0.11-0.4 0.32-0.4 0.32 0 0.58 0.21 0.98 0.8z"/><path id="path8344" d="m155.93 708.51h-0.02-0.01-0.02l-0.02-0.01h-0.01l-0.02-0.01h-0.01l-0.02-0.01h-0.01l-0.02-0.01-0.01-0.01-0.01-0.01-0.02-0.01-0.01-0.01-0.01-0.01-0.01-0.02-0.01-0.01-0.01-0.01-0.01-0.02-0.01-0.01-0.01-0.02-0.01-0.01v-0.02l-0.01-0.01-0.01-0.02v-0.02l-0.01-0.01v-0.02-0.02-0.02-0.02l-0.01-0.02c0-0.22 0.14-0.37 0.34-0.37 0.18 0 0.34 0.16 0.34 0.36s-0.16 0.38-0.35 0.38z"/></g>
  <g id="g6157" xml:space="preserve" ns0:pdfconverter="pstoedit" transform="matrix(1.75 0 0 -1.75 -31.428 1428.7)" ns0:text="$\\bar{x}_i$" ns0:version="0.7.2" ns0:inkscapeversion="0.91" ns0:preamble="/usr/share/inkscape/extensions/default_packages.tex" ns0:scale="1.4" ns0:texconverter="pdflatex"><polygon id="polygon6159" points="153.34 713.11 150.24 713.11 150.24 712.57 153.34 712.57"/><path id="path6161" d="m153.22 708.23-0.02-0.02-0.01-0.01-0.01-0.02-0.02-0.01-0.01-0.02-0.01-0.01-0.02-0.02-0.01-0.01-0.01-0.02-0.01-0.02-0.02-0.01-0.01-0.02-0.01-0.01-0.01-0.01v-0.01l-0.01-0.01-0.01-0.01-0.01-0.01v-0.01l-0.01-0.01c-0.23-0.3-0.35-0.4-0.46-0.4-0.15 0-0.24 0.13-0.31 0.41-0.02 0.08-0.03 0.14-0.04 0.17-0.25 1.01-0.36 1.46-0.36 1.61 0.44 0.77 0.8 1.21 0.98 1.21 0.06 0 0.14-0.03 0.24-0.08 0.12-0.07 0.19-0.09 0.27-0.09 0.21 0 0.35 0.15 0.35 0.36s-0.17 0.37-0.41 0.37c-0.44 0-0.82-0.36-1.51-1.43l-0.11 0.55c-0.14 0.68-0.25 0.88-0.52 0.88-0.21 0-0.55-0.09-1.16-0.29l-0.11-0.04 0.04-0.15c0.38 0.09 0.47 0.11 0.56 0.11 0.25 0 0.31-0.09 0.45-0.69l0.28-1.23-0.81-1.16c-0.2-0.3-0.4-0.48-0.51-0.48-0.06 0-0.16 0.03-0.26 0.09-0.13 0.07-0.24 0.1-0.32 0.1-0.19 0-0.34-0.15-0.34-0.35 0-0.26 0.2-0.42 0.5-0.42 0.31 0 0.43 0.09 0.93 0.7 0.27 0.32 0.48 0.59 0.89 1.17l0.3-1.2c0.13-0.51 0.26-0.67 0.58-0.67 0.38 0 0.64 0.24 1.22 1.14z"/><path id="path6163" d="m155.19 706.42-0.02-0.02-0.01-0.01-0.02-0.02-0.01-0.02-0.01-0.02-0.02-0.01-0.01-0.02-0.01-0.01-0.01-0.02-0.01-0.01-0.01-0.01-0.01-0.02-0.01-0.01-0.01-0.01-0.01-0.01v-0.01l-0.01-0.01-0.01-0.01h-0.01v-0.01l-0.01-0.01-0.01-0.01-0.01-0.01-0.01-0.02-0.01-0.01-0.02-0.02-0.01-0.01c-0.12-0.12-0.22-0.19-0.29-0.19-0.05 0-0.11 0.06-0.11 0.11 0 0.06 0.02 0.17 0.07 0.3 0 0.02 0.02 0.07 0.04 0.13v0.01 0.02l0.62 2.24-0.02 0.02c-0.71-0.14-0.85-0.16-1.12-0.18v-0.11c0.37-0.01 0.44-0.03 0.44-0.17 0-0.05-0.02-0.16-0.06-0.3l-0.34-1.24c-0.11-0.4-0.15-0.62-0.15-0.76 0-0.26 0.11-0.4 0.32-0.4 0.32 0 0.58 0.21 0.98 0.8z"/><path id="path6165" d="m155.13 710.19h-0.02-0.01-0.02l-0.02-0.01h-0.01l-0.02-0.01h-0.02l-0.01-0.01h-0.02l-0.01-0.01-0.01-0.01-0.02-0.01-0.01-0.01-0.01-0.01-0.01-0.01-0.01-0.02-0.02-0.01-0.01-0.01v-0.02l-0.01-0.01-0.01-0.02-0.01-0.01-0.01-0.02v-0.01l-0.01-0.02v-0.02l-0.01-0.01v-0.02-0.02l-0.01-0.02v-0.02-0.02c0-0.22 0.13-0.37 0.34-0.37 0.18 0 0.34 0.16 0.34 0.36s-0.16 0.38-0.35 0.38z"/></g>
 </g>
 <g id="gnuplot_canvas">
  <g fill="none">
   <rect id="rect9845" height="250" width="425" y="0" x="0"/>
   <g stroke="currentColor">
    <g stroke-width=".5">
     <g id="g9881" color="black">
      <g id="g9883" stroke="none" shape-rendering="crispEdges">
       <polygon id="polygon9885" points="37.1 227.5 40.1 228.3 31.2 233.4 36.3 224.5" fill="#000"/>
      </g>
      <path id="path9887" stroke="#000" d="m37.1 227.5l3 0.8-8.9 5.1 5.1-8.9 0.8 3m69.2-69.2l-69.2 69.2"/>
     </g>
     <g id="g9889" color="black">
      <path id="path9891" stroke="#000" d="m106.3 158.3h141.6"/>
     </g>
     <g id="g9893" color="black">
      <g id="g9895" stroke="none" shape-rendering="crispEdges">
       <polygon id="polygon9897" points="106.3 25.1 103.7 26.6 106.3 16.7 108.9 26.6" fill="#000"/>
      </g>
      <path id="path9899" stroke="#000" d="m106.3 25.1l-2.6 1.5 2.6-9.9 2.6 9.9-2.6-1.5m0 133.2v-133.2"/>
     </g>
     <g id="g9901" color="black">
      <g id="g9903" stroke="none" shape-rendering="crispEdges">
       <polygon id="polygon9905" points="178.7 227.5 181.7 228.3 172.8 233.4 177.9 224.5" fill="#000"/>
      </g>
      <path id="path9907" stroke="#000" d="m178.7 227.5l3 0.8-8.9 5.1 5.1-8.9 0.8 3m69.2-69.2l-69.2 69.2"/>
     </g>
     <g id="g9909" color="black">
      <g id="g9911" stroke="none" shape-rendering="crispEdges">
       <polygon id="polygon9913" points="381.1 158.3 379.6 155.7 389.5 158.3 379.6 160.9" fill="#000"/>
      </g>
      <path id="path9915" stroke="#000" d="m381.1 158.3l-1.5-2.6 9.9 2.6-9.9 2.6 1.5-2.6m-133.2 0h133.2"/>
     </g>
     <g id="g9917" color="black">
      <g id="g9919" stroke="none" shape-rendering="crispEdges">
       <polygon id="polygon9921" points="247.9 25.1 245.3 26.6 247.9 16.7 250.5 26.6" fill="#000"/>
      </g>
      <path id="path9923" stroke="#000" d="m247.9 25.1l-2.6 1.5 2.6-9.9 2.6 9.9-2.6-1.5m0 133.2v-133.2"/>
     </g>
    </g>
    <g>
     <g id="g9927" color="gray">
      <path id="path9929" stroke="gray" stroke-dasharray="2,4" d="m87.5 177.1h177"/>
     </g>
     <g id="g9931" color="gray">
      <path id="path9933" stroke="gray" stroke-dasharray="2,4" d="m264.5 177.1l18.8-18.8"/>
     </g>
     <g id="g9935" color="gray">
      <path id="path9937" stroke="gray" stroke-dasharray="2,4" d="m264.5 177.1v-35.4"/>
     </g>
     <g id="g9939" color="black">
      <path id="path9941" stroke="#009e73" d="m264.5 141.7l-16.6-18.8"/>
     </g>
     <g id="g9943" color="black">
      <path id="path9945" stroke="#0072b2" d="m264.5 141.7l-158.2-18.8"/>
     </g>
     <g id="g9947" color="black">
      <g id="g9949" stroke="none" fill="#e51e10" shape-rendering="crispEdges">
       <polygon id="polygon9951" points="182 214.6 182 211.1 191.6 214.6 182 218.1"/>
       <polygon id="polygon9953" points="59.6 214.6 59.6 218.1 50 214.6 59.6 211.1"/>
      </g>
      <path id="path9955" stroke="#e51e10" d="m59.6 214.6h122.4"/>
     </g>
    </g>
   </g>
  </g>
  <g id="gnuplot_plot_1a">
   <title id="title9960">NaN</title>
  </g>
  <g stroke="currentColor" fill="none">
   <g id="g9966" color="black" stroke-width="2">
    <g id="g9968" font-size="12" transform="translate(269 141.7)" stroke="none" font-family="Arial" fill="#000">
     <text id="text9970"/>
    </g>
   </g>
   <g>
    <g id="g9974" color="black">
     <use id="use9976" color="rgb(  0, 255, 255)" xlink:href="#gpPt6" transform="translate(264.5,141.7) scale(3.38)"/>
    </g>
    <g id="g9978" color="black">
     <g id="g9980" font-size="12" transform="translate(269 141.7)" stroke="none" font-family="Arial" fill="#000">
      <text id="text9982"/>
     </g>
    </g>
    <g id="g9984" color="black">
     <use id="use9986" color="black" xlink:href="#gpPt5" transform="translate(264.5,141.7) scale(3.38)"/>
    </g>
    <g id="g9988" color="black">
     <g id="g9990" font-size="12" transform="translate(269 177.1)" stroke="none" font-family="Arial" fill="#000">
      <text id="text9992"/>
     </g>
    </g>
    <g id="g9994" color="black">
     <use id="use9996" color="black" xlink:href="#gpPt0" transform="translate(264.5,177.1) scale(3.38)"/>
    </g>
   </g>
  </g>
  <g id="gnuplot_plot_1b">
   <title id="title10007">NaN</title>
  </g>
  <g id="g10017" color="black" stroke="currentColor" fill="none">
   <g id="g10019" stroke="none" shape-rendering="crispEdges">
    <polygon id="polygon10021" fill-opacity=".5" points="301 158.3 300.9 155.6 300.7 152.8 300.3 150 299.8 147.3 299.1 144.6 298.4 141.9 297.4 139.3 296.4 136.8 295.2 134.2 293.8 131.8 292.4 129.4 290.8 127.1 289.1 124.9 287.3 122.8 285.4 120.8 283.4 118.9 281.3 117.1 279.1 115.4 276.8 113.8 274.4 112.4 272 111 269.4 109.8 266.9 108.8 264.3 107.8 261.6 107.1 258.9 106.4 256.2 105.9 253.4 105.5 250.6 105.3 247.9 105.2 245.1 105.3 242.3 105.5 239.5 105.9 236.8 106.4 234.1 107.1 231.4 107.8 228.8 108.8 226.3 109.8 223.7 111 221.3 112.4 218.9 113.8 216.6 115.4 214.4 117.1 212.3 118.9 210.3 120.8 208.4 122.8 206.6 124.9 204.9 127.1 203.3 129.4 201.9 131.8 200.5 134.2 199.3 136.8 198.3 139.3 197.3 141.9 196.6 144.6 195.9 147.3 195.4 150 195 152.8 194.8 155.6 194.7 158.3 194.8 161.1 195 163.9 195.4 166.7 195.9 169.4 196.6 172.1 197.3 174.8 198.3 177.4 199.3 179.9 200.5 182.5 201.9 184.9 203.3 187.3 204.9 189.6 206.6 191.8 208.4 193.9 210.3 195.9 212.3 197.8 214.4 199.6 216.6 201.3 218.9 202.9 221.3 204.3 223.7 205.7 226.3 206.9 228.8 207.9 231.4 208.9 234.1 209.6 236.8 210.3 239.5 210.8 242.3 211.2 245.1 211.4 247.8 211.5 250.6 211.4 253.4 211.2 256.2 210.8 258.9 210.3 261.6 209.6 264.3 208.9 266.9 207.9 269.4 206.9 272 205.7 274.4 204.3 276.8 202.9 279.1 201.3 281.3 199.6 283.4 197.8 285.4 195.9 287.3 193.9 289.1 191.8 290.8 189.6 292.4 187.3 293.8 184.9 295.2 182.5 296.4 179.9 297.4 177.4 298.4 174.8 299.1 172.1 299.8 169.4 300.3 166.7 300.7 163.9 300.9 161.1" fill="#f0e442"/>
   </g>
  </g>
 </g>
 <g fill-rule="evenodd" stroke="#000" stroke-miterlimit="10.433">
  <g id="content" xml:space="preserve" ns0:pdfconverter="pstoedit" transform="matrix(1.75 0 0 -1.75 -173.48 1268.2)" ns0:text="$Z$" ns0:version="0.7.2" ns0:inkscapeversion="0.91" ns0:preamble="/usr/share/inkscape/extensions/default_packages.tex" ns0:scale="1.4" ns0:texconverter="pdflatex"><path id="path4719" stroke-width="0" d="m154.75 713.63h-4.84l-0.46-1.46 0.19-0.05c0.21 0.44 0.32 0.61 0.51 0.78 0.29 0.24 0.82 0.37 1.57 0.37h1.7l-4.77-6.01v-0.14h5.03l0.54 1.68-0.19 0.03c-0.32-0.64-0.5-0.88-0.84-1.07-0.34-0.2-0.83-0.28-1.65-0.28h-1.61l4.82 6.01z"/></g>
  <g id="g4940" xml:space="preserve" stroke-width="0" ns0:pdfconverter="pstoedit" transform="matrix(1.75 0 0 -1.75 -31.475 1268.2)" ns0:text="$\\bar{Z}$" ns0:version="0.7.2" ns0:inkscapeversion="0.91" ns0:preamble="/usr/share/inkscape/extensions/default_packages.tex" ns0:scale="1.4" ns0:texconverter="pdflatex"><polygon id="polygon4942" points="150.76 714.6 153.86 714.6 153.86 715.14 150.76 715.14"/><path id="path4944" d="m154.75 713.63h-4.84l-0.46-1.46 0.19-0.05c0.21 0.44 0.32 0.61 0.51 0.78 0.29 0.24 0.82 0.37 1.57 0.37h1.7l-4.77-6.01v-0.14h5.03l0.54 1.68-0.19 0.03c-0.32-0.64-0.5-0.88-0.84-1.07-0.34-0.2-0.83-0.28-1.65-0.28h-1.61l4.82 6.01z"/></g>
  <g id="g5170" xml:space="preserve" ns0:pdfconverter="pstoedit" transform="matrix(1.75 0 0 -1.75 -244.72 1476.6)" ns0:text="$X$" ns0:version="0.7.2" ns0:inkscapeversion="0.91" ns0:preamble="/usr/share/inkscape/extensions/default_packages.tex" ns0:scale="1.4" ns0:texconverter="pdflatex"><path id="path5172" stroke-width="0" d="m155.48 713.63h-2.07v-0.16c0.49-0.06 0.61-0.13 0.61-0.36 0-0.13-0.06-0.25-0.2-0.41l-1.44-1.66-0.59 1.46c-0.11 0.26-0.15 0.43-0.15 0.56 0 0.25 0.16 0.34 0.71 0.41v0.16h-2.64v-0.16c0.58-0.05 0.73-0.15 0.92-0.61l1.06-2.62c-0.37-0.42-0.7-0.81-0.83-0.97-1.38-1.63-1.66-1.88-2.19-1.99v-0.16h2.13v0.16c-0.48 0-0.65 0.09-0.65 0.34 0 0.15 0.08 0.32 0.21 0.47l1.51 1.71 0.66-1.64c0.07-0.18 0.11-0.34 0.11-0.49 0-0.29-0.1-0.34-0.75-0.39v-0.16h2.72v0.16c-0.7 0.08-0.79 0.14-1.04 0.74l-1.02 2.57 1.69 1.93c0.52 0.58 0.81 0.81 1.24 0.95z"/></g>
  <g id="g5402" xml:space="preserve" stroke-width="0" ns0:pdfconverter="pstoedit" transform="matrix(1.75 0 0 -1.75 -102.13 1475.6)" ns0:text="$\\bar{X}$" ns0:version="0.7.2" ns0:inkscapeversion="0.91" ns0:preamble="/usr/share/inkscape/extensions/default_packages.tex" ns0:scale="1.4" ns0:texconverter="pdflatex"><polygon id="polygon5404" points="151.13 714.6 154.23 714.6 154.23 715.14 151.13 715.14"/><path id="path5406" d="m155.48 713.63h-2.07v-0.16c0.49-0.06 0.61-0.13 0.61-0.36 0-0.13-0.06-0.25-0.2-0.41l-1.44-1.66-0.59 1.46c-0.11 0.26-0.15 0.43-0.15 0.56 0 0.25 0.16 0.34 0.71 0.41v0.16h-2.64v-0.16c0.58-0.05 0.73-0.15 0.92-0.61l1.06-2.62c-0.37-0.42-0.7-0.81-0.83-0.97-1.38-1.63-1.66-1.88-2.19-1.99v-0.16h2.13v0.16c-0.48 0-0.65 0.09-0.65 0.34 0 0.15 0.08 0.32 0.21 0.47l1.51 1.71 0.66-1.64c0.07-0.18 0.11-0.34 0.11-0.49 0-0.29-0.1-0.34-0.75-0.39v-0.16h2.72v0.16c-0.7 0.08-0.79 0.14-1.04 0.74l-1.02 2.57 1.69 1.93c0.52 0.58 0.81 0.81 1.24 0.95z"/></g>
  <g id="g5661" xml:space="preserve" ns0:pdfconverter="pstoedit" transform="matrix(1.75 0 0 -1.75 -147.82 1462.6)" ns0:text="$a$" ns0:version="0.7.2" ns0:inkscapeversion="0.91" ns0:preamble="/usr/share/inkscape/extensions/default_packages.tex" ns0:scale="1.4" ns0:texconverter="pdflatex"><path id="path5663" stroke-width="0" d="m153.33 708.22-0.01-0.02-0.01-0.01-0.02-0.01-0.01-0.01-0.01-0.02-0.01-0.01-0.01-0.01-0.01-0.01-0.01-0.01-0.01-0.01-0.01-0.01h-0.01l-0.01-0.01-0.01-0.01-0.01-0.01-0.01-0.01v-0.01h-0.01l-0.02-0.02-0.01-0.01-0.01-0.01-0.02-0.02-0.01-0.01-0.01-0.02-0.02-0.01c-0.29-0.31-0.43-0.41-0.51-0.41s-0.14 0.06-0.14 0.13c0 0.2 0.42 1.9 0.88 3.62 0.03 0.1 0.04 0.12 0.06 0.21l-0.07 0.03-0.61-0.07-0.03-0.03-0.1-0.48c-0.08 0.37-0.37 0.58-0.8 0.58l0.06-0.22c0.34-0.02 0.56-0.26 0.56-0.61 0-0.84-0.5-2.01-1.19-2.75-0.24-0.27-0.58-0.44-0.87-0.44-0.34 0-0.57 0.29-0.57 0.75 0 0.54 0.38 1.56 0.8 2.18 0.4 0.58 0.87 0.9 1.27 0.87l-0.06 0.22c-1.32 0-2.85-1.83-2.85-3.4 0-0.7 0.38-1.11 1.02-1.11 0.69 0 1.12 0.33 2 1.57-0.2-0.78-0.23-0.91-0.23-1.15 0-0.29 0.12-0.41 0.4-0.41 0.4 0 0.64 0.19 1.38 1.1z"/></g>
  <g id="g5903" xml:space="preserve" stroke-width="0" ns0:pdfconverter="pstoedit" transform="matrix(1.75 0 0 -1.75 -175.75 1428.7)" ns0:text="$x_i$" ns0:version="0.7.2" ns0:inkscapeversion="0.91" ns0:preamble="/usr/share/inkscape/extensions/default_packages.tex" ns0:scale="1.4" ns0:texconverter="pdflatex"><path id="path5905" d="m153.22 708.23-0.02-0.02-0.01-0.01-0.01-0.02-0.02-0.01-0.01-0.02-0.01-0.01-0.02-0.02-0.01-0.01-0.01-0.02-0.01-0.02-0.02-0.01-0.01-0.02-0.01-0.01-0.01-0.01v-0.01l-0.01-0.01-0.01-0.01-0.01-0.01v-0.01l-0.01-0.01c-0.23-0.3-0.35-0.4-0.46-0.4-0.15 0-0.24 0.13-0.31 0.41-0.02 0.08-0.03 0.14-0.04 0.17-0.25 1.01-0.36 1.46-0.36 1.61 0.44 0.77 0.8 1.21 0.98 1.21 0.06 0 0.14-0.03 0.24-0.08 0.12-0.07 0.19-0.09 0.27-0.09 0.21 0 0.35 0.15 0.35 0.36s-0.17 0.37-0.41 0.37c-0.44 0-0.82-0.36-1.51-1.43l-0.11 0.55c-0.14 0.68-0.25 0.88-0.52 0.88-0.21 0-0.55-0.09-1.16-0.29l-0.11-0.04 0.04-0.15c0.38 0.09 0.47 0.11 0.56 0.11 0.25 0 0.31-0.09 0.45-0.69l0.28-1.23-0.81-1.16c-0.2-0.3-0.4-0.48-0.51-0.48-0.06 0-0.16 0.03-0.26 0.09-0.13 0.07-0.24 0.1-0.32 0.1-0.19 0-0.34-0.15-0.34-0.35 0-0.26 0.2-0.42 0.5-0.42 0.31 0 0.43 0.09 0.93 0.7 0.27 0.32 0.48 0.59 0.89 1.17l0.3-1.2c0.13-0.51 0.26-0.67 0.58-0.67 0.38 0 0.64 0.24 1.22 1.14z"/><path id="path5907" d="m155.19 706.42-0.02-0.02-0.01-0.01-0.02-0.02-0.01-0.02-0.01-0.02-0.02-0.01-0.01-0.02-0.01-0.01-0.01-0.02-0.01-0.01-0.01-0.01-0.01-0.02-0.01-0.01-0.01-0.01-0.01-0.01v-0.01l-0.01-0.01-0.01-0.01h-0.01v-0.01l-0.01-0.01-0.01-0.01-0.01-0.01-0.01-0.02-0.01-0.01-0.02-0.02-0.01-0.01c-0.12-0.12-0.22-0.19-0.29-0.19-0.05 0-0.11 0.06-0.11 0.11 0 0.06 0.02 0.17 0.07 0.3 0 0.02 0.02 0.07 0.04 0.13v0.01 0.02l0.62 2.24-0.02 0.02c-0.71-0.14-0.85-0.16-1.12-0.18v-0.11c0.37-0.01 0.44-0.03 0.44-0.17 0-0.05-0.02-0.16-0.06-0.3l-0.34-1.24c-0.11-0.4-0.15-0.62-0.15-0.76 0-0.26 0.11-0.4 0.32-0.4 0.32 0 0.58 0.21 0.98 0.8z"/><path id="path5909" d="m155.13 710.19h-0.02-0.01-0.02l-0.02-0.01h-0.01l-0.02-0.01h-0.02l-0.01-0.01h-0.02l-0.01-0.01-0.01-0.01-0.02-0.01-0.01-0.01-0.01-0.01-0.01-0.01-0.01-0.02-0.02-0.01-0.01-0.01v-0.02l-0.01-0.01-0.01-0.02-0.01-0.01-0.01-0.02v-0.01l-0.01-0.02v-0.02l-0.01-0.01v-0.02-0.02l-0.01-0.02v-0.02-0.02c0-0.22 0.13-0.37 0.34-0.37 0.18 0 0.34 0.16 0.34 0.36s-0.16 0.38-0.35 0.38z"/></g>
  <g id="g6423" xml:space="preserve" stroke-width="0" ns0:pdfconverter="pstoedit" transform="matrix(1.75 0 0 -1.75 -97.72 1361.9)" ns0:text="$r_i$" ns0:version="0.7.2" ns0:inkscapeversion="0.91" ns0:preamble="/usr/share/inkscape/extensions/default_packages.tex" ns0:scale="1.4" ns0:texconverter="pdflatex"><path id="path6425" d="m149.91 707.12 0.05 0.16 0.05 0.15 0.04 0.14 0.04 0.13 0.05 0.13 0.03 0.12 0.04 0.12 0.04 0.11 0.03 0.11 0.04 0.1 0.03 0.1 0.03 0.09 0.04 0.09 0.03 0.08 0.03 0.08 0.03 0.08 0.03 0.08 0.03 0.07 0.06 0.14 0.07 0.14 0.06 0.13 0.07 0.13 0.07 0.13 0.08 0.13 0.04 0.07 0.04 0.07c0.33 0.56 0.61 0.87 0.78 0.87 0.06 0 0.11-0.04 0.16-0.14 0.08-0.17 0.16-0.22 0.36-0.22 0.29 0 0.46 0.18 0.46 0.49s-0.2 0.52-0.47 0.52c-0.23 0-0.5-0.15-0.76-0.42-0.41-0.42-0.81-1.01-0.97-1.41l-0.14-0.36 0.53 2.17-0.03 0.02c-0.73-0.13-0.82-0.15-1.54-0.27v-0.17c0.24 0.05 0.27 0.05 0.34 0.05 0.21 0 0.34-0.1 0.34-0.28 0-0.14 0-0.14-0.16-0.82l-0.8-2.91z"/><path id="path6427" d="m154.14 706.42-0.02-0.02-0.01-0.01-0.02-0.02-0.01-0.02-0.01-0.02-0.02-0.01-0.01-0.02-0.01-0.01-0.01-0.02-0.01-0.01-0.01-0.01-0.01-0.02-0.01-0.01-0.01-0.01-0.01-0.01v-0.01l-0.01-0.01-0.01-0.01h-0.01v-0.01l-0.01-0.01-0.01-0.01-0.01-0.01-0.01-0.02-0.01-0.01-0.02-0.02-0.01-0.01c-0.12-0.12-0.22-0.19-0.29-0.19-0.05 0-0.11 0.06-0.11 0.11 0 0.06 0.02 0.17 0.07 0.3 0 0.02 0.02 0.07 0.04 0.13v0.01 0.02l0.62 2.24-0.02 0.02c-0.71-0.14-0.85-0.16-1.12-0.18v-0.11c0.37-0.01 0.44-0.03 0.44-0.17 0-0.05-0.02-0.16-0.06-0.3l-0.34-1.24c-0.11-0.4-0.15-0.62-0.15-0.76 0-0.26 0.11-0.4 0.32-0.4 0.32 0 0.58 0.21 0.98 0.8z"/><path id="path6429" d="m154.08 710.19h-0.02-0.01-0.02l-0.02-0.01h-0.01l-0.02-0.01h-0.02l-0.01-0.01h-0.02l-0.01-0.01-0.01-0.01-0.02-0.01-0.01-0.01-0.01-0.01-0.01-0.01-0.01-0.02-0.02-0.01-0.01-0.01v-0.02l-0.01-0.01-0.01-0.02-0.01-0.01-0.01-0.02v-0.01l-0.01-0.02v-0.02l-0.01-0.01v-0.02-0.02l-0.01-0.02v-0.02-0.02c0-0.22 0.13-0.37 0.34-0.37 0.18 0 0.34 0.16 0.34 0.36s-0.16 0.38-0.35 0.38z"/></g>
  <g id="g9566" xml:space="preserve" stroke-width="0" ns0:pdfconverter="pstoedit" transform="matrix(1.75 0 0 -1.75 109.82 1415.6)" ns0:text="$Y,\\bar{Y}$" ns0:version="0.7.2" ns0:inkscapeversion="0.91" ns0:preamble="/usr/share/inkscape/extensions/default_packages.tex" ns0:scale="1.4" ns0:texconverter="pdflatex"><path id="path9568" d="m149.62 713.47h0.02l0.03-0.01 0.05-0.01h0.04l0.04-0.01 0.04-0.01h0.04l0.03-0.01 0.04-0.01 0.03-0.01 0.03-0.01 0.02-0.01 0.03-0.01 0.02-0.01 0.02-0.01 0.02-0.02 0.02-0.01 0.02-0.02 0.02-0.02 0.01-0.02 0.02-0.02 0.01-0.02 0.02-0.03 0.01-0.03 0.01-0.03 0.02-0.03 0.01-0.03 0.01-0.04 0.02-0.04 0.01-0.04 0.01-0.04 0.01-0.03 0.01-0.02 0.01-0.02v-0.03l0.77-2.68-0.61-2.11c-0.17-0.54-0.38-0.7-1.04-0.74v-0.16h2.88v0.16c-0.16 0.01-0.3 0.02-0.36 0.03-0.39 0.02-0.53 0.12-0.53 0.37 0 0.21 0.07 0.51 0.31 1.29 0.03 0.08 0.05 0.15 0.06 0.19l0.29 1.01 2.18 2.69c0.32 0.4 0.4 0.47 0.7 0.61v0.16h-1.89v-0.16c0.12-0.01 0.23-0.02 0.27-0.03 0.29-0.03 0.42-0.11 0.42-0.28 0-0.27-0.46-0.92-1.49-2.12-0.17-0.2-0.23-0.28-0.38-0.46-0.12 0.44-0.15 0.57-0.31 1.09-0.25 0.86-0.36 1.29-0.36 1.44 0 0.24 0.12 0.3 0.72 0.36v0.16h-2.38z"/><path id="path9570" d="m155.31 707.18v0.04 0.04 0.03l-0.01 0.04v0.03 0.04l-0.01 0.03-0.01 0.03v0.03l-0.01 0.03-0.01 0.03v0.03l-0.01 0.02-0.01 0.03-0.01 0.03-0.01 0.02-0.01 0.02-0.02 0.03-0.02 0.04-0.03 0.04-0.02 0.04-0.03 0.03-0.03 0.03-0.04 0.03-0.03 0.03-0.03 0.02-0.03 0.03-0.04 0.02-0.03 0.01-0.03 0.02-0.04 0.01-0.03 0.02-0.03 0.01h-0.04l-0.03 0.01-0.03 0.01h-0.03l-0.02 0.01h-0.03-0.02-0.03c-0.25 0-0.57-0.15-0.57-0.58 0-0.4 0.35-0.5 0.61-0.5 0.07 0 0.12 0.01 0.15 0.02 0.04 0.01 0.07 0.02 0.09 0.02 0.07 0 0.14-0.05 0.14-0.14 0-0.19-0.16-0.63-0.82-1.05l0.09-0.19c0.3 0.1 1.12 0.75 1.12 1.46z"/><polygon id="polygon9572" points="162.51 714.6 162.51 715.14 159.41 715.14 159.41 714.6"/><path id="path9574" d="m158.42 713.47h0.03l0.02-0.01 0.05-0.01h0.05l0.04-0.01 0.04-0.01h0.03l0.04-0.01 0.03-0.01 0.03-0.01 0.03-0.01 0.03-0.01 0.02-0.01 0.02-0.01 0.03-0.01 0.02-0.02 0.02-0.01 0.01-0.02 0.02-0.02 0.02-0.02 0.01-0.02 0.02-0.02 0.01-0.03 0.01-0.03 0.02-0.03 0.01-0.03 0.01-0.03 0.02-0.04 0.01-0.04 0.01-0.04 0.02-0.04 0.01-0.03v-0.02l0.01-0.02 0.01-0.03 0.77-2.68-0.61-2.11c-0.17-0.54-0.39-0.7-1.05-0.74v-0.16h2.88v0.16c-0.16 0.01-0.3 0.02-0.36 0.03-0.39 0.02-0.52 0.12-0.52 0.37 0 0.21 0.06 0.51 0.3 1.29 0.03 0.08 0.05 0.15 0.06 0.19l0.29 1.01 2.18 2.69c0.32 0.4 0.4 0.47 0.7 0.61v0.16h-1.88v-0.16c0.12-0.01 0.23-0.02 0.27-0.03 0.29-0.03 0.42-0.11 0.42-0.28 0-0.27-0.46-0.92-1.5-2.12-0.17-0.2-0.23-0.28-0.38-0.46-0.12 0.44-0.15 0.57-0.31 1.09-0.24 0.86-0.35 1.29-0.35 1.44 0 0.24 0.12 0.3 0.71 0.36v0.16h-2.38z"/></g>
 </g>
</svg>
