<?xml version="1.0" encoding="UTF-8" standalone="no"?>
<svg id="svg4290" xmlns:rdf="http://www.w3.org/1999/02/22-rdf-syntax-ns#" xmlns="http://www.w3.org/2000/svg" height="183.74" width="560.3" version="1.1" xmlns:cc="http://creativecommons.org/ns#" xmlns:xlink="http://www.w3.org/1999/xlink" viewBox="0 0 560.29956 183.74175" xmlns:dc="http://purl.org/dc/elements/1.1/">
 <style type="text/css">
	@import url('../estilo.css');
 </style>
 <defs>
  <marker id="marker6104" refY="0" refX="0" orient="auto" overflow="visible">
   <path id="path6106" stroke-linejoin="round" d="m8.7186 4.0337-10.926-4.0177 10.926-4.0177c-1.7455 2.3721-1.7354 5.6175-6e-7 8.0354z" fill-rule="evenodd" transform="matrix(-1.1,0,0,-1.1,-1.1,0)" stroke="#000" stroke-width=".625"/>
  </marker>
  <marker id="Arrow2Lend" refY="0" refX="0" orient="auto" overflow="visible">
   <path id="path5793" stroke-linejoin="round" d="m8.7186 4.0337-10.926-4.0177 10.926-4.0177c-1.7455 2.3721-1.7354 5.6175-6e-7 8.0354z" fill-rule="evenodd" transform="matrix(-1.1,0,0,-1.1,-1.1,0)" stroke="#000" stroke-width=".625"/>
  </marker>
 </defs>
 <metadata id="metadata4404">
  <rdf:RDF>
   <cc:Work rdf:about="">
    <dc:format>image/svg+xml</dc:format>
    <dc:type rdf:resource="http://purl.org/dc/dcmitype/StillImage"/>
    <dc:title>Gnuplot</dc:title>
   </cc:Work>
  </rdf:RDF>
 </metadata>
 <title id="title4292">Gnuplot</title>
 <desc id="desc4294">Produced by GNUPLOT 5.0 patchlevel 3</desc>
 <g stroke="currentColor" stroke-width="1.5" fill="none">
  <g id="g4329" style="color:#000000;stroke:none" transform="translate(-5.5171 -16.798)">
   <path id="path4331" d="m31.1 122.3v9m0-9v-9" stroke="#000"/>
   <g id="g4333" style="text-anchor:middle" font-size="15px" transform="translate(31.1,145.9)" font-family="&apos;Stix Two Text&apos;" fill="#000">
    <text id="text4335">
     <tspan id="tspan4337" font-family="&apos;Stix Two Text&apos;">0</tspan>
    </text>
   </g>
  </g>
  <g id="g4339" style="color:#000000;stroke:none" transform="translate(-5.5171 -16.798)">
   <path id="path4341" d="m215 122.3v9m0-9v-9" stroke="#000"/>
   <g id="g4343" style="text-anchor:middle" font-size="15px" transform="translate(215,145.9)" font-family="&apos;Stix Two Text&apos;" fill="#000">
    <text id="text4345">
     <tspan id="tspan4347" font-family="&apos;Stix Two Text&apos;">2π</tspan>
    </text>
   </g>
  </g>
  <g id="g4349" style="color:#000000" transform="translate(-5.5171 -16.798)">
   <path id="path4351" d="m31.1 122.3v9m0-9v-9m18.4 9v9m0-9v-9m18.4 9v9m0-9v-9m18.4 9v9m0-9v-9m18.4 9v9m0-9v-9m18.4 9v9m0-9v-9m18.3 9v9m0-9v-9m18.4 9v9m0-9v-9m18.4 9v9m0-9v-9m18.4 9v9m0-9v-9m18.4 9v9m0-9v-9m0 9v9m0-9v-9" stroke="#000"/>
  </g>
  <g id="g4353" style="color:#000000" transform="translate(-5.5171 -16.798)">
   <path id="path4355" d="m31.1 30.3v92h183.9v-92h-183.9z" stroke="#000"/>
   <g id="g4357" style="text-anchor:end;stroke:none" font-size="13px" transform="translate(29.1,127.2)" font-family="&apos;Stix Two Text&apos;" fill="#000">
    <text id="text4359">
     <tspan id="tspan4361" font-family="&apos;Stix Two Text&apos;">o</tspan>
    </text>
   </g>
  </g>
  <g id="g4363" style="color:#000000;stroke:none" transform="translate(-5.5171 -16.798)">
   <g id="g4365" style="text-anchor:middle" font-size="16px" transform="translate(13.1,82.3)" font-family="&apos;Stix Two Text&apos;" fill="#000">
    <text id="text4367">
     <tspan id="tspan4369" font-family="&apos;Stix Two Text&apos;">r</tspan>
    </text>
   </g>
  </g>
  <g id="g4371" style="color:#000000;stroke:none" transform="translate(-5.5171 -16.798)">
   <g id="g4373" style="text-anchor:middle" font-size="16px" transform="translate(123,159.8)" font-family="&apos;Stix Two Text&apos;" fill="#000">
    <text id="text4375">
     <tspan id="tspan4377" font-family="&apos;Stix Two Text&apos;">θ</tspan>
    </text>
   </g>
  </g>
 </g>
 <g id="gnuplot_plot_1" transform="translate(-5.5171 -16.798)">
  <title id="title4382">NaN</title>
 </g>
 <path id="path4396" style="color:#000000" d="m25.583 13.502v92h183.9v-92h-183.9z" stroke="#000" stroke-width="1.5" fill="none"/>
 <g id="g5521" transform="translate(114.48 -16.798)">
  <g id="gnuplot_plot_3" fill="#f9f9f9" transform="translate(227.74 -4.4517)">
   <title id="title4635">gnuplot_plot_3</title>
   <g id="g4637" style="color:#000000" fill="#f9f9f9">
    <path id="path4639" fill="#f9f9f9" d="m120 43.1m59.3-1.9m31.6-4.8m-10.9-5.4m-48.4-3.5m-63.2 0m-48.4 3.5m-10.9 5.4m31.6 4.8m59.3 1.9h5.8l5.8-0.1 5.8-0.1 5.8-0.1 5.6-0.1 5.5-0.2 5.4-0.2 5.2-0.2 5-0.3 4.8-0.3 4.6-0.3 4.4-0.3 4.1-0.4 3.9-0.4 3.5-0.4 3.3-0.4 2.9-0.5 2.6-0.4 2.3-0.5 1.9-0.5 1.5-0.5 1.2-0.5 0.9-0.5 0.4-0.5 0.1-0.5-0.2-0.5-0.7-0.5-1-0.5-1.4-0.5-1.7-0.5-2.1-0.5-2.5-0.5-2.7-0.4-3.1-0.4-3.4-0.5-3.7-0.3-4-0.4-4.2-0.4-4.5-0.3-4.8-0.3-4.9-0.3-5.1-0.2-5.3-0.3-5.4-0.1-5.6-0.2-5.7-0.1-5.8-0.1-5.8-0.1h-5.8-5.8-5.8l-5.8 0.1-5.8 0.1-5.7 0.1-5.6 0.2-5.4 0.1-5.3 0.3-5.1 0.2-4.9 0.3-4.8 0.3-4.5 0.3-4.2 0.4-4 0.4-3.7 0.3-3.4 0.5-3.1 0.4-2.7 0.4-2.5 0.5-2.1 0.5-1.7 0.5-1.4 0.5-1 0.5-0.7 0.5-0.2 0.5 0.1 0.5 0.4 0.5 0.9 0.5 1.2 0.5 1.5 0.5 1.9 0.5 2.3 0.5 2.6 0.4 2.9 0.5 3.3 0.4 3.5 0.4 3.9 0.4 4.1 0.4 4.4 0.3 4.6 0.3 4.8 0.3 5 0.3 5.2 0.2 5.4 0.2 5.5 0.2 5.6 0.1 5.8 0.1 5.8 0.1 5.8 0.1h5.8 5.8l5.8-0.1 5.8-0.1 5.8-0.1 5.6-0.1 5.5-0.2 5.4-0.2 5.2-0.2 5-0.3 4.8-0.3 4.6-0.3 4.4-0.3 4.1-0.4 3.9-0.4 3.5-0.4 3.3-0.4 2.9-0.5 2.6-0.4 2.3-0.5 1.9-0.5 1.5-0.5 1.2-0.5 0.9-0.5 0.4-0.5 0.1-0.5-0.2-0.5-0.7-0.5-1-0.5-1.4-0.5-1.7-0.5-2.1-0.5-2.5-0.5-2.7-0.4-3.1-0.4-3.4-0.5-3.7-0.3-4-0.4-4.2-0.4-4.5-0.3-4.8-0.3-4.9-0.3-5.1-0.2-5.3-0.3-5.4-0.1-5.6-0.2-5.7-0.1-5.8-0.1-5.8-0.1h-5.8-5.8-5.8l-5.8 0.1-5.8 0.1-5.7 0.1-5.6 0.2-5.4 0.1-5.3 0.3-5.1 0.2-4.9 0.3-4.8 0.3-4.5 0.3-4.2 0.4-4 0.4-3.7 0.3-3.4 0.5-3.1 0.4-2.7 0.4-2.5 0.5-2.1 0.5-1.7 0.5-1.4 0.5-1 0.5-0.7 0.5-0.2 0.5 0.1 0.5 0.4 0.5 0.9 0.5 1.2 0.5 1.5 0.5 1.9 0.5 2.3 0.5 2.6 0.4 2.9 0.5 3.3 0.4 3.5 0.4 3.9 0.4 4.1 0.4 4.4 0.3 4.6 0.3 4.8 0.3 5 0.3 5.2 0.2 5.4 0.2 5.5 0.2 5.6 0.1 5.8 0.1 5.8 0.1 5.8 0.1h5.8 5.8l5.8-0.1 5.8-0.1 5.8-0.1 5.6-0.1 5.5-0.2 5.4-0.2 5.2-0.2 5-0.3 4.8-0.3 4.6-0.3 4.4-0.3 4.1-0.4 3.9-0.4 3.5-0.4 3.3-0.4 2.9-0.5 2.6-0.4 2.3-0.5 1.9-0.5 1.5-0.5 1.2-0.5 0.9-0.5 0.4-0.5 0.1-0.5-0.2-0.5-0.7-0.5-1-0.5-1.4-0.5-1.7-0.5-2.1-0.5-2.5-0.5-2.7-0.4-3.1-0.4-3.4-0.5-3.7-0.3-4-0.4-4.2-0.4-4.5-0.3-4.8-0.3-4.9-0.3-5.1-0.2-5.3-0.3-5.4-0.1-5.6-0.2-5.7-0.1-5.8-0.1-5.8-0.1h-5.8-5.8-5.8l-5.8 0.1-5.8 0.1-5.7 0.1-5.6 0.2-5.4 0.1-5.3 0.3-5.1 0.2-4.9 0.3-4.8 0.3-4.5 0.3-4.2 0.4-4 0.4-3.7 0.3-3.4 0.5-3.1 0.4-2.7 0.4-2.5 0.5-2.1 0.5-1.7 0.5-1.4 0.5-1 0.5-0.7 0.5-0.2 0.5 0.1 0.5 0.4 0.5 0.9 0.5 1.2 0.5 1.5 0.5 1.9 0.5 2.3 0.5 2.6 0.4 2.9 0.5 3.3 0.4 3.5 0.4 3.9 0.4 4.1 0.4 4.4 0.3 4.6 0.3 4.8 0.3 5 0.3 5.2 0.2 5.4 0.2 5.5 0.2 5.6 0.1 5.8 0.1 5.8 0.1 5.8 0.1h5.8 5.8l5.8-0.1 5.8-0.1 5.8-0.1 5.6-0.1 5.5-0.2 5.4-0.2 5.2-0.2 5-0.3 4.8-0.3 4.6-0.3 4.4-0.3 4.1-0.4 3.9-0.4 3.5-0.4 3.3-0.4 2.9-0.5 2.6-0.4 2.3-0.5 1.9-0.5 1.5-0.5 1.2-0.5 0.9-0.5 0.4-0.5 0.1-0.5-0.2-0.5-0.7-0.5-1-0.5-1.4-0.5-1.7-0.5-2.1-0.5-2.5-0.5-2.7-0.4-3.1-0.4-3.4-0.5-3.7-0.3-4-0.4-4.2-0.4-4.5-0.3-4.8-0.3-4.9-0.3-5.1-0.2-5.3-0.3-5.4-0.1-5.6-0.2-5.7-0.1-5.8-0.1-5.8-0.1h-5.8-5.8-5.8l-5.8 0.1-5.8 0.1-5.7 0.1-5.6 0.2-5.4 0.1-5.3 0.3-5.1 0.2-4.9 0.3-4.8 0.3-4.5 0.3-4.2 0.4-4 0.4-3.7 0.3-3.4 0.5-3.1 0.4-2.7 0.4-2.5 0.5-2.1 0.5-1.7 0.5-1.4 0.5-1 0.5-0.7 0.5-0.2 0.5 0.1 0.5 0.4 0.5 0.9 0.5 1.2 0.5 1.5 0.5 1.9 0.5 2.3 0.5 2.6 0.4 2.9 0.5 3.3 0.4 3.5 0.4 3.9 0.4 4.1 0.4 4.4 0.3 4.6 0.3 4.8 0.3 5 0.3 5.2 0.2 5.4 0.2 5.5 0.2 5.6 0.1 5.8 0.1 5.8 0.1 5.8 0.1h5.8 5.8l5.8-0.1 5.8-0.1 5.8-0.1 5.6-0.1 5.5-0.2 5.4-0.2 5.2-0.2 5-0.3 4.8-0.3 4.6-0.3 4.4-0.3 4.1-0.4 3.9-0.4 3.5-0.4 3.3-0.4 2.9-0.5 2.6-0.4 2.3-0.5 1.9-0.5 1.5-0.5 1.2-0.5 0.9-0.5 0.4-0.5 0.1-0.5-0.2-0.5-0.7-0.5-1-0.5-1.4-0.5-1.7-0.5-2.1-0.5-2.5-0.5-2.7-0.4-3.1-0.4-3.4-0.5-3.7-0.3-4-0.4-4.2-0.4-4.5-0.3-4.8-0.3-4.9-0.3-5.1-0.2-5.3-0.3-5.4-0.1-5.6-0.2-5.7-0.1-5.8-0.1-5.8-0.1h-5.8-5.8-5.8l-5.8 0.1-5.8 0.1-5.7 0.1-5.6 0.2-5.4 0.1-5.3 0.3-5.1 0.2-4.9 0.3-4.8 0.3-4.5 0.3-4.2 0.4-4 0.4-3.7 0.3-3.4 0.5-3.1 0.4-2.7 0.4-2.5 0.5-2.1 0.5-1.7 0.5-1.4 0.5-1 0.5-0.7 0.5-0.2 0.5 0.1 0.5 0.4 0.5 0.9 0.5 1.2 0.5 1.5 0.5 1.9 0.5 2.3 0.5 2.6 0.4 2.9 0.5 3.3 0.4 3.5 0.4 3.9 0.4 4.1 0.4 4.4 0.3 4.6 0.3 4.8 0.3 5 0.3 5.2 0.2 5.4 0.2 5.5 0.2 5.6 0.1 5.8 0.1 5.8 0.1 5.8 0.1h5.8 5.8l5.8-0.1 5.8-0.1 5.8-0.1 5.6-0.1 5.5-0.2 5.4-0.2 5.2-0.2 5-0.3 4.8-0.3 4.6-0.3 4.4-0.3 4.1-0.4 3.9-0.4 3.5-0.4 3.3-0.4 2.9-0.5 2.6-0.4 2.3-0.5 1.9-0.5 1.5-0.5 1.2-0.5 0.9-0.5 0.4-0.5 0.1-0.5-0.2-0.5-0.7-0.5-1-0.5-1.4-0.5-1.7-0.5-2.1-0.5-2.5-0.5-2.7-0.4-3.1-0.4-3.4-0.5-3.7-0.3-4-0.4-4.2-0.4-4.5-0.3-4.8-0.3-4.9-0.3-5.1-0.2-5.3-0.3-5.4-0.1-5.6-0.2-5.7-0.1-5.8-0.1-5.8-0.1h-5.8-5.8-5.8l-5.8 0.1-5.8 0.1-5.7 0.1-5.6 0.2-5.4 0.1-5.3 0.3-5.1 0.2-4.9 0.3-4.8 0.3-4.5 0.3-4.2 0.4-4 0.4-3.7 0.3-3.4 0.5-3.1 0.4-2.7 0.4-2.5 0.5-2.1 0.5-1.7 0.5-1.4 0.5-1 0.5-0.7 0.5-0.2 0.5 0.1 0.5 0.4 0.5 0.9 0.5 1.2 0.5 1.5 0.5 1.9 0.5 2.3 0.5 2.6 0.4 2.9 0.5 3.3 0.4 3.5 0.4 3.9 0.4 4.1 0.4 4.4 0.3 4.6 0.3 4.8 0.3 5 0.3 5.2 0.2 5.4 0.2 5.5 0.2 5.6 0.1 5.8 0.1 5.8 0.1 5.8 0.1h5.8 5.8l5.8-0.1 5.8-0.1 5.8-0.1 5.6-0.1 5.5-0.2 5.4-0.2 5.2-0.2 5-0.3 4.8-0.3 4.6-0.3 4.4-0.3 4.1-0.4 3.9-0.4 3.5-0.4 3.3-0.4 2.9-0.5 2.6-0.4 2.3-0.5 1.9-0.5 1.5-0.5 1.2-0.5 0.9-0.5 0.4-0.5 0.1-0.5-0.2-0.5-0.7-0.5-1-0.5-1.4-0.5-1.7-0.5-2.1-0.5-2.5-0.5-2.7-0.4-3.1-0.4-3.4-0.5-3.7-0.3-4-0.4-4.2-0.4-4.5-0.3-4.8-0.3-4.9-0.3-5.1-0.2-5.3-0.3-5.4-0.1-5.6-0.2-5.7-0.1-5.8-0.1-5.8-0.1h-5.8-5.8-5.8l-5.8 0.1-5.8 0.1-5.7 0.1-5.6 0.2-5.4 0.1-5.3 0.3-5.1 0.2-4.9 0.3-4.8 0.3-4.5 0.3-4.2 0.4-4 0.4-3.7 0.3-3.4 0.5-3.1 0.4-2.7 0.4-2.5 0.5-2.1 0.5-1.7 0.5-1.4 0.5-1 0.5-0.7 0.5-0.2 0.5 0.1 0.5 0.4 0.5 0.9 0.5 1.2 0.5 1.5 0.5 1.9 0.5 2.3 0.5 2.6 0.4 2.9 0.5 3.3 0.4 3.5 0.4 3.9 0.4 4.1 0.4 4.4 0.3 4.6 0.3 4.8 0.3 5 0.3 5.2 0.2 5.4 0.2 5.5 0.2 5.6 0.1 5.8 0.1 5.8 0.1 5.8 0.1h5.8 5.8l5.8-0.1 5.8-0.1 5.8-0.1 5.6-0.1 5.5-0.2 5.4-0.2 5.2-0.2 5-0.3 4.8-0.3 4.6-0.3 4.4-0.3 4.1-0.4 3.9-0.4 3.5-0.4 3.3-0.4 2.9-0.5 2.6-0.4 2.3-0.5 1.9-0.5 1.5-0.5 1.2-0.5 0.9-0.5 0.4-0.5 0.1-0.5-0.2-0.5-0.7-0.5-1-0.5-1.4-0.5-1.7-0.5-2.1-0.5-2.5-0.5-2.7-0.4-3.1-0.4-3.4-0.5-3.7-0.3-4-0.4-4.2-0.4-4.5-0.3-4.8-0.3-4.9-0.3-5.1-0.2-5.3-0.3-5.4-0.1-5.6-0.2-5.7-0.1-5.8-0.1-5.8-0.1h-5.8-5.8-5.8l-5.8 0.1-5.8 0.1-5.7 0.1-5.6 0.2-5.4 0.1-5.3 0.3-5.1 0.2-4.9 0.3-4.8 0.3-4.5 0.3-4.2 0.4-4 0.4-3.7 0.3-3.4 0.5-3.1 0.4-2.7 0.4-2.5 0.5-2.1 0.5-1.7 0.5-1.4 0.5-1 0.5-0.7 0.5-0.2 0.5 0.1 0.5 0.4 0.5 0.9 0.5 1.2 0.5 1.5 0.5 1.9 0.5 2.3 0.5 2.6 0.4 2.9 0.5 3.3 0.4 3.5 0.4 3.9 0.4 4.1 0.4 4.4 0.3 4.6 0.3 4.8 0.3 5 0.3 5.2 0.2 5.4 0.2 5.5 0.2 5.6 0.1 5.8 0.1 5.8 0.1 5.8 0.1h5.8 5.8l5.8-0.1 5.8-0.1 5.8-0.1 5.6-0.1 5.5-0.2 5.4-0.2 5.2-0.2 5-0.3 4.8-0.3 4.6-0.3 4.4-0.3 4.1-0.4 3.9-0.4 3.5-0.4 3.3-0.4 2.9-0.5 2.6-0.4 2.3-0.5 1.9-0.5 1.5-0.5 1.2-0.5 0.9-0.5 0.4-0.5 0.1-0.5-0.2-0.5-0.7-0.5-1-0.5-1.4-0.5-1.7-0.5-2.1-0.5-2.5-0.5-2.7-0.4-3.1-0.4-3.4-0.5-3.7-0.3-4-0.4-4.2-0.4-4.5-0.3-4.8-0.3-4.9-0.3-5.1-0.2-5.3-0.3-5.4-0.1-5.6-0.2-5.7-0.1-5.8-0.1-5.8-0.1h-5.8-5.8-5.8l-5.8 0.1-5.8 0.1-5.7 0.1-5.6 0.2-5.4 0.1-5.3 0.3-5.1 0.2-4.9 0.3-4.8 0.3-4.5 0.3-4.2 0.4-4 0.4-3.7 0.3-3.4 0.5-3.1 0.4-2.7 0.4-2.5 0.5-2.1 0.5-1.7 0.5-1.4 0.5-1 0.5-0.7 0.5-0.2 0.5 0.1 0.5 0.4 0.5 0.9 0.5 1.2 0.5 1.5 0.5 1.9 0.5 2.3 0.5 2.6 0.4 2.9 0.5 3.3 0.4 3.5 0.4 3.9 0.4 4.1 0.4 4.4 0.3 4.6 0.3 4.8 0.3 5 0.3 5.2 0.2 5.4 0.2 5.5 0.2 5.6 0.1 5.8 0.1 5.8 0.1 5.8 0.1h5.8 5.8l5.8-0.1 5.8-0.1 5.8-0.1 5.6-0.1 5.5-0.2 5.4-0.2 5.2-0.2 5-0.3 4.8-0.3 4.6-0.3 4.4-0.3 4.1-0.4 3.9-0.4 3.5-0.4 3.3-0.4 2.9-0.5 2.6-0.4 2.3-0.5 1.9-0.5 1.5-0.5 1.2-0.5 0.9-0.5 0.4-0.5 0.1-0.5-0.2-0.5-0.7-0.5-1-0.5-1.4-0.5-1.7-0.5-2.1-0.5-2.5-0.5-2.7-0.4-3.1-0.4-3.4-0.5-3.7-0.3-4-0.4-4.2-0.4-4.5-0.3-4.8-0.3-4.9-0.3-5.1-0.2-5.3-0.3-5.4-0.1-5.6-0.2-5.7-0.1-5.8-0.1-5.8-0.1h-5.8-5.8-5.8l-5.8 0.1-5.8 0.1-5.7 0.1-5.6 0.2-5.4 0.1-5.3 0.3-5.1 0.2-4.9 0.3-4.8 0.3-4.5 0.3-4.2 0.4-4 0.4-3.7 0.3-3.4 0.5-3.1 0.4-2.7 0.4-2.5 0.5-2.1 0.5-1.7 0.5-1.4 0.5-1 0.5-0.7 0.5-0.2 0.5 0.1 0.5 0.4 0.5 0.9 0.5 1.2 0.5 1.5 0.5 1.9 0.5 2.3 0.5 2.6 0.4 2.9 0.5 3.3 0.4 3.5 0.4 3.9 0.4 4.1 0.4 4.4 0.3 4.6 0.3 4.8 0.3 5 0.3 5.2 0.2 5.4 0.2 5.5 0.2 5.6 0.1 5.8 0.1 5.8 0.1 5.8 0.1h5.8"/>
   </g>
  </g>
  <path id="rect4246" d="m256.34 31.548c17.594 9.0674 164.83 9.8651 182.8 0l-90.5 90h-1.8z" fill="#f2f2f2"/>
  <g id="gnuplot_plot_1-7" transform="translate(227.74 -4.0163)">
   <title id="title4810">gnuplot_plot_1</title>
   <g stroke="currentColor" stroke-width=".25" fill="none">
    <g id="g4814" style="color:#000000">
     <path id="path4816" stroke="#d3d3d3" d="m120 43v-16"/>
    </g>
    <g id="g4818" style="color:#000000">
     <path id="path4820" stroke="#d3d3d3" d="m90 27.4 30-0.4"/>
    </g>
    <g id="g4822" style="color:#000000">
     <path id="path4824" stroke="#d3d3d3" d="m120 43v-16"/>
    </g>
    <g id="g4826" style="color:#000000">
     <path id="path4828" stroke="#d3d3d3" d="m150 27.4-30-0.4"/>
    </g>
    <g id="g4830" style="color:#000000">
     <path id="path4832" stroke="#d3d3d3" d="m94.6 42.7-4.6-15.3"/>
    </g>
    <g id="g4834" style="color:#000000">
     <path id="path4836" stroke="#d3d3d3" d="m63.3 28.7 26.7-1.3"/>
    </g>
    <g id="g4838" style="color:#000000">
     <path id="path4840" stroke="#d3d3d3" d="m145.4 42.7 4.6-15.3"/>
    </g>
    <g id="g4842" style="color:#000000">
     <path id="path4844" stroke="#d3d3d3" d="m176.7 28.7-26.7-1.3"/>
    </g>
    <g id="g4846" style="color:#000000">
     <path id="path4848" stroke="#d3d3d3" d="m70.8 41.8-7.5-13.1"/>
    </g>
    <g id="g4850" style="color:#000000">
     <path id="path4852" stroke="#d3d3d3" d="m42.7 30.6 20.6-1.9"/>
    </g>
    <g id="g4854" style="color:#000000">
     <path id="path4856" stroke="#d3d3d3" d="m169.2 41.8 7.5-13.1"/>
    </g>
    <g id="g4858" style="color:#000000">
     <path id="path4860" stroke="#d3d3d3" d="m197.3 30.6-20.6-1.9"/>
    </g>
    <g id="g4862" style="color:#000000">
     <path id="path4864" stroke="#d3d3d3" d="m50.4 40.3-7.7-9.7"/>
    </g>
    <g id="g4866" style="color:#000000">
     <path id="path4868" stroke="#d3d3d3" d="m30.5 33 12.2-2.4"/>
    </g>
    <g id="g4870" style="color:#000000">
     <path id="path4872" stroke="#d3d3d3" d="m189.6 40.3 7.7-9.7"/>
    </g>
    <g id="g4874" style="color:#000000">
     <path id="path4876" stroke="#d3d3d3" d="m209.5 33-12.2-2.4"/>
    </g>
    <g id="g4878" style="color:#000000">
     <path id="path4880" stroke="#d3d3d3" d="m35.4 38.3-4.9-5.3"/>
    </g>
    <g id="g4882" style="color:#000000">
     <path id="path4884" stroke="#d3d3d3" d="m28 35.7 2.5-2.7"/>
    </g>
    <g id="g4886" style="color:#000000">
     <path id="path4888" stroke="#d3d3d3" d="m204.6 38.3 4.9-5.3"/>
    </g>
    <g id="g4890" style="color:#000000">
     <path id="path4892" stroke="#d3d3d3" d="m212 35.7-2.5-2.7"/>
    </g>
    <g id="g4894" style="color:#000000">
     <path id="path4896" stroke="#d3d3d3" d="m120 127"/>
    </g>
    <g id="g4906" style="color:#000000">
     <path id="path4908" stroke="#d3d3d3" d="m97 104.1 23 22.9"/>
    </g>
    <g id="g4912" style="color:#000000">
     <path id="path4914" stroke="#d3d3d3" d="m98.9 104.8 21.1 22.2"/>
    </g>
    <g id="g4918" style="color:#000000">
     <path id="path4920" stroke="#d3d3d3" d="m103.1 105.3 16.9 21.7"/>
    </g>
    <g id="g4924" style="color:#000000">
     <path id="path4926" stroke="#d3d3d3" d="m109.1 105.7 10.9 21.3"/>
    </g>
    <g id="g4930" style="color:#000000">
     <path id="path4932" stroke="#d3d3d3" d="m116.2 105.9 3.8 21.1"/>
    </g>
    <g id="g4936" style="color:#000000">
     <path id="path4938" stroke="#d3d3d3" d="m123.8 105.9-3.8 21.1"/>
    </g>
    <g id="g4942" style="color:#000000">
     <path id="path4944" stroke="#d3d3d3" d="m130.9 105.7-10.9 21.3"/>
    </g>
    <g id="g4948" style="color:#000000">
     <path id="path4950" stroke="#d3d3d3" d="m136.9 105.3-16.9 21.7"/>
    </g>
    <g id="g4954" style="color:#000000">
     <path id="path4956" stroke="#d3d3d3" d="m141.1 104.8-21.1 22.2"/>
    </g>
    <g id="g4960" style="color:#000000">
     <path id="path4962" stroke="#d3d3d3" d="m143 104.1-23 22.9"/>
    </g>
    <g id="g4974" style="color:#000000">
     <path id="path4976" stroke="#d3d3d3" d="m74 81.3 23 22.8"/>
    </g>
    <g id="g4978" style="color:#000000">
     <path id="path4980" stroke="#d3d3d3" d="m98.9 104.8-1.9-0.7"/>
    </g>
    <g id="g4982" style="color:#000000">
     <path id="path4984" stroke="#d3d3d3" d="m141.1 104.8 1.9-0.7"/>
    </g>
    <g id="g4986" style="color:#000000">
     <path id="path4988" stroke="#d3d3d3" d="m166 81.3-23 22.8"/>
    </g>
    <g id="g4990" style="color:#000000">
     <path id="path4992" stroke="#d3d3d3" d="m51 58.5 23 22.8"/>
    </g>
    <g id="g4994" style="color:#000000">
     <path id="path4996" stroke="#d3d3d3" d="m77.7 82.6-3.7-1.3"/>
    </g>
    <g id="g4998" style="color:#000000">
     <path id="path5000" stroke="#d3d3d3" d="m162.3 82.6 3.7-1.3"/>
    </g>
    <g id="g5002" style="color:#000000">
     <path id="path5004" stroke="#d3d3d3" d="m189 58.5-23 22.8"/>
    </g>
    <g id="g5006" style="color:#000000">
     <path id="path5008" stroke="#d3d3d3" d="m77.7 82.6 21.2 22.2"/>
    </g>
    <g id="g5010" style="color:#000000">
     <path id="path5012" stroke="#d3d3d3" d="m103.1 105.3-4.2-0.5"/>
    </g>
    <g id="g5014" style="color:#000000">
     <path id="path5016" stroke="#d3d3d3" d="m136.9 105.3 4.2-0.5"/>
    </g>
    <g id="g5018" style="color:#000000">
     <path id="path5020" stroke="#d3d3d3" d="m162.3 82.6-21.2 22.2"/>
    </g>
    <g id="g5022" style="color:#000000">
     <path id="path5024" stroke="#d3d3d3" d="m28 35.7 23 22.8"/>
    </g>
    <g id="g5026" style="color:#000000">
     <path id="path5028" stroke="#d3d3d3" d="m56.6 60.5-5.6-2"/>
    </g>
    <g id="g5030" style="color:#000000">
     <path id="path5032" stroke="#d3d3d3" d="m183.4 60.5 5.6-2"/>
    </g>
    <g id="g5034" style="color:#000000">
     <path id="path5036" stroke="#d3d3d3" d="m212 35.7-23 22.8"/>
    </g>
    <g id="g5038" style="color:#000000">
     <path id="path5040" stroke="#d3d3d3" d="m35.4 38.3-7.4-2.6"/>
    </g>
    <g id="g5042" style="color:#000000">
     <path id="path5044" stroke="#d3d3d3" d="m204.6 38.3 7.4-2.6"/>
    </g>
    <g id="g5046" style="color:#000000">
     <path id="path5048" stroke="#d3d3d3" d="m86.1 83.7 17 21.6"/>
    </g>
    <g id="g5050" style="color:#000000">
     <path id="path5052" stroke="#d3d3d3" d="m109.1 105.7-6-0.4"/>
    </g>
    <g id="g5054" style="color:#000000">
     <path id="path5056" stroke="#d3d3d3" d="m130.9 105.7 6-0.4"/>
    </g>
    <g id="g5058" style="color:#000000">
     <path id="path5060" stroke="#d3d3d3" d="m153.9 83.7-17 21.6"/>
    </g>
    <g id="g5062" style="color:#000000">
     <path id="path5064" stroke="#d3d3d3" d="m98.1 84.5 11 21.2"/>
    </g>
    <g id="g5066" style="color:#000000">
     <path id="path5068" stroke="#d3d3d3" d="m116.2 105.9-7.1-0.2"/>
    </g>
    <g id="g5070" style="color:#000000">
     <path id="path5072" stroke="#d3d3d3" d="m123.8 105.9 7.1-0.2"/>
    </g>
    <g id="g5074" style="color:#000000">
     <path id="path5076" stroke="#d3d3d3" d="m141.9 84.5-11 21.2"/>
    </g>
    <g id="g5078" style="color:#000000">
     <path id="path5080" stroke="#d3d3d3" d="m56.6 60.5 21.1 22.1"/>
    </g>
    <g id="g5082" style="color:#000000">
     <path id="path5084" stroke="#d3d3d3" d="m86.1 83.7-8.4-1.1"/>
    </g>
    <g id="g5086" style="color:#000000">
     <path id="path5088" stroke="#d3d3d3" d="m153.9 83.7 8.4-1.1"/>
    </g>
    <g id="g5090" style="color:#000000">
     <path id="path5092" stroke="#d3d3d3" d="m183.4 60.5-21.1 22.1"/>
    </g>
    <g id="g5094" style="color:#000000">
     <path id="path5096" stroke="#d3d3d3" d="m112.4 84.9 3.8 21"/>
    </g>
    <g id="g5098" style="color:#000000">
     <path id="path5100" stroke="#d3d3d3" d="m123.8 105.9h-7.6"/>
    </g>
    <g id="g5102" style="color:#000000">
     <path id="path5104" stroke="#d3d3d3" d="m127.6 84.9-3.8 21"/>
    </g>
    <g id="g5106" style="color:#000000">
     <path id="path5108" stroke="#d3d3d3" d="m35.4 38.3 21.2 22.2"/>
    </g>
    <g id="g5110" style="color:#000000">
     <path id="path5112" stroke="#d3d3d3" d="m69.1 62.1-12.5-1.6"/>
    </g>
    <g id="g5114" style="color:#000000">
     <path id="path5116" stroke="#d3d3d3" d="m170.9 62.1 12.5-1.6"/>
    </g>
    <g id="g5118" style="color:#000000">
     <path id="path5120" stroke="#d3d3d3" d="m204.6 38.3-21.2 22.2"/>
    </g>
    <g id="g5122" style="color:#000000">
     <path id="path5124" stroke="#d3d3d3" d="m69.1 62.1 17 21.6"/>
    </g>
    <g id="g5126" style="color:#000000">
     <path id="path5128" stroke="#d3d3d3" d="m98.1 84.5-12-0.8"/>
    </g>
    <g id="g5130" style="color:#000000">
     <path id="path5132" stroke="#d3d3d3" d="m141.9 84.5 12-0.8"/>
    </g>
    <g id="g5134" style="color:#000000">
     <path id="path5136" stroke="#d3d3d3" d="m170.9 62.1-17 21.6"/>
    </g>
    <g id="g5138" style="color:#000000">
     <path id="path5140" stroke="#d3d3d3" d="m87.1 63.3 11 21.2"/>
    </g>
    <g id="g5142" style="color:#000000">
     <path id="path5144" stroke="#d3d3d3" d="m112.4 84.9-14.3-0.4"/>
    </g>
    <g id="g5146" style="color:#000000">
     <path id="path5148" stroke="#d3d3d3" d="m127.6 84.9 14.3-0.4"/>
    </g>
    <g id="g5150" style="color:#000000">
     <path id="path5152" stroke="#d3d3d3" d="m152.9 63.3-11 21.2"/>
    </g>
    <g id="g5154" style="color:#000000">
     <path id="path5156" stroke="#d3d3d3" d="m52.1 40.5-16.7-2.2"/>
    </g>
    <g id="g5158" style="color:#000000">
     <path id="path5160" stroke="#d3d3d3" d="m187.9 40.5 16.7-2.2"/>
    </g>
    <g id="g5162" style="color:#000000">
     <path id="path5164" stroke="#d3d3d3" d="m108.6 64 3.8 20.9"/>
    </g>
    <g id="g5166" style="color:#000000">
     <path id="path5168" stroke="#d3d3d3" d="m127.6 84.9h-15.2"/>
    </g>
    <g id="g5170" style="color:#000000">
     <path id="path5172" stroke="#d3d3d3" d="m131.4 64-3.8 20.9"/>
    </g>
    <g id="g5174" style="color:#000000">
     <path id="path5176" stroke="#d3d3d3" d="m52.1 40.5 17 21.6"/>
    </g>
    <g id="g5178" style="color:#000000">
     <path id="path5180" stroke="#d3d3d3" d="m87.1 63.3-18-1.2"/>
    </g>
    <g id="g5182" style="color:#000000">
     <path id="path5184" stroke="#d3d3d3" d="m152.9 63.3 18-1.2"/>
    </g>
    <g id="g5186" style="color:#000000">
     <path id="path5188" stroke="#d3d3d3" d="m187.9 40.5-17 21.6"/>
    </g>
    <g id="g5190" style="color:#000000">
     <path id="path5192" stroke="#d3d3d3" d="m76.1 42.1 11 21.2"/>
    </g>
    <g id="g5194" style="color:#000000">
     <path id="path5196" stroke="#d3d3d3" d="m108.6 64-21.5-0.7"/>
    </g>
    <g id="g5198" style="color:#000000">
     <path id="path5200" stroke="#d3d3d3" d="m131.4 64 21.5-0.7"/>
    </g>
    <g id="g5202" style="color:#000000">
     <path id="path5204" stroke="#d3d3d3" d="m163.9 42.1-11 21.2"/>
    </g>
    <g id="g5206" style="color:#000000">
     <path id="path5208" stroke="#d3d3d3" d="m76.1 42.1-24-1.6"/>
    </g>
    <g id="g5210" style="color:#000000">
     <path id="path5212" stroke="#d3d3d3" d="m163.9 42.1 24-1.6"/>
    </g>
    <g id="g5214" style="color:#000000">
     <path id="path5216" stroke="#d3d3d3" d="m104.8 43 3.8 21"/>
    </g>
    <g id="g5218" style="color:#000000">
     <path id="path5220" stroke="#d3d3d3" d="m108.6 64h22.8"/>
    </g>
    <g id="g5222" style="color:#000000">
     <path id="path5224" stroke="#d3d3d3" d="m135.2 43-3.8 21"/>
    </g>
    <g id="g5226" style="color:#000000">
     <path id="path5228" stroke="#d3d3d3" d="m104.8 43-28.7-0.9"/>
    </g>
    <g id="g5230" style="color:#000000">
     <path id="path5232" stroke="#d3d3d3" d="m135.2 43 28.7-0.9"/>
    </g>
    <g id="g5234" style="color:#000000">
     <path id="path5236" stroke="#d3d3d3" d="m135.2 43h-30.4"/>
    </g>
   </g>
  </g>
  <g id="g5513" fill="none" stroke="#000" transform="translate(227.74 -4.4517)">
   <title id="title5515">gnuplot_plot_3</title>
   <g id="g5517" style="color:#000000" stroke="#000" stroke-width="1.5" fill="none">
    <path id="path5519" fill="none" stroke="#000" d="m120 43.1m59.3-1.9m31.6-4.8m-10.9-5.4m-48.4-3.5m-63.2 0m-48.4 3.5m-10.9 5.4m31.6 4.8m59.3 1.9h5.8l5.8-0.1 5.8-0.1 5.8-0.1 5.6-0.1 5.5-0.2 5.4-0.2 5.2-0.2 5-0.3 4.8-0.3 4.6-0.3 4.4-0.3 4.1-0.4 3.9-0.4 3.5-0.4 3.3-0.4 2.9-0.5 2.6-0.4 2.3-0.5 1.9-0.5 1.5-0.5 1.2-0.5 0.9-0.5 0.4-0.5 0.1-0.5-0.2-0.5-0.7-0.5-1-0.5-1.4-0.5-1.7-0.5-2.1-0.5-2.5-0.5-2.7-0.4-3.1-0.4-3.4-0.5-3.7-0.3-4-0.4-4.2-0.4-4.5-0.3-4.8-0.3-4.9-0.3-5.1-0.2-5.3-0.3-5.4-0.1-5.6-0.2-5.7-0.1-5.8-0.1-5.8-0.1h-5.8-5.8-5.8l-5.8 0.1-5.8 0.1-5.7 0.1-5.6 0.2-5.4 0.1-5.3 0.3-5.1 0.2-4.9 0.3-4.8 0.3-4.5 0.3-4.2 0.4-4 0.4-3.7 0.3-3.4 0.5-3.1 0.4-2.7 0.4-2.5 0.5-2.1 0.5-1.7 0.5-1.4 0.5-1 0.5-0.7 0.5-0.2 0.5 0.1 0.5 0.4 0.5 0.9 0.5 1.2 0.5 1.5 0.5 1.9 0.5 2.3 0.5 2.6 0.4 2.9 0.5 3.3 0.4 3.5 0.4 3.9 0.4 4.1 0.4 4.4 0.3 4.6 0.3 4.8 0.3 5 0.3 5.2 0.2 5.4 0.2 5.5 0.2 5.6 0.1 5.8 0.1 5.8 0.1 5.8 0.1h5.8 5.8l5.8-0.1 5.8-0.1 5.8-0.1 5.6-0.1 5.5-0.2 5.4-0.2 5.2-0.2 5-0.3 4.8-0.3 4.6-0.3 4.4-0.3 4.1-0.4 3.9-0.4 3.5-0.4 3.3-0.4 2.9-0.5 2.6-0.4 2.3-0.5 1.9-0.5 1.5-0.5 1.2-0.5 0.9-0.5 0.4-0.5 0.1-0.5-0.2-0.5-0.7-0.5-1-0.5-1.4-0.5-1.7-0.5-2.1-0.5-2.5-0.5-2.7-0.4-3.1-0.4-3.4-0.5-3.7-0.3-4-0.4-4.2-0.4-4.5-0.3-4.8-0.3-4.9-0.3-5.1-0.2-5.3-0.3-5.4-0.1-5.6-0.2-5.7-0.1-5.8-0.1-5.8-0.1h-5.8-5.8-5.8l-5.8 0.1-5.8 0.1-5.7 0.1-5.6 0.2-5.4 0.1-5.3 0.3-5.1 0.2-4.9 0.3-4.8 0.3-4.5 0.3-4.2 0.4-4 0.4-3.7 0.3-3.4 0.5-3.1 0.4-2.7 0.4-2.5 0.5-2.1 0.5-1.7 0.5-1.4 0.5-1 0.5-0.7 0.5-0.2 0.5 0.1 0.5 0.4 0.5 0.9 0.5 1.2 0.5 1.5 0.5 1.9 0.5 2.3 0.5 2.6 0.4 2.9 0.5 3.3 0.4 3.5 0.4 3.9 0.4 4.1 0.4 4.4 0.3 4.6 0.3 4.8 0.3 5 0.3 5.2 0.2 5.4 0.2 5.5 0.2 5.6 0.1 5.8 0.1 5.8 0.1 5.8 0.1h5.8 5.8l5.8-0.1 5.8-0.1 5.8-0.1 5.6-0.1 5.5-0.2 5.4-0.2 5.2-0.2 5-0.3 4.8-0.3 4.6-0.3 4.4-0.3 4.1-0.4 3.9-0.4 3.5-0.4 3.3-0.4 2.9-0.5 2.6-0.4 2.3-0.5 1.9-0.5 1.5-0.5 1.2-0.5 0.9-0.5 0.4-0.5 0.1-0.5-0.2-0.5-0.7-0.5-1-0.5-1.4-0.5-1.7-0.5-2.1-0.5-2.5-0.5-2.7-0.4-3.1-0.4-3.4-0.5-3.7-0.3-4-0.4-4.2-0.4-4.5-0.3-4.8-0.3-4.9-0.3-5.1-0.2-5.3-0.3-5.4-0.1-5.6-0.2-5.7-0.1-5.8-0.1-5.8-0.1h-5.8-5.8-5.8l-5.8 0.1-5.8 0.1-5.7 0.1-5.6 0.2-5.4 0.1-5.3 0.3-5.1 0.2-4.9 0.3-4.8 0.3-4.5 0.3-4.2 0.4-4 0.4-3.7 0.3-3.4 0.5-3.1 0.4-2.7 0.4-2.5 0.5-2.1 0.5-1.7 0.5-1.4 0.5-1 0.5-0.7 0.5-0.2 0.5 0.1 0.5 0.4 0.5 0.9 0.5 1.2 0.5 1.5 0.5 1.9 0.5 2.3 0.5 2.6 0.4 2.9 0.5 3.3 0.4 3.5 0.4 3.9 0.4 4.1 0.4 4.4 0.3 4.6 0.3 4.8 0.3 5 0.3 5.2 0.2 5.4 0.2 5.5 0.2 5.6 0.1 5.8 0.1 5.8 0.1 5.8 0.1h5.8 5.8l5.8-0.1 5.8-0.1 5.8-0.1 5.6-0.1 5.5-0.2 5.4-0.2 5.2-0.2 5-0.3 4.8-0.3 4.6-0.3 4.4-0.3 4.1-0.4 3.9-0.4 3.5-0.4 3.3-0.4 2.9-0.5 2.6-0.4 2.3-0.5 1.9-0.5 1.5-0.5 1.2-0.5 0.9-0.5 0.4-0.5 0.1-0.5-0.2-0.5-0.7-0.5-1-0.5-1.4-0.5-1.7-0.5-2.1-0.5-2.5-0.5-2.7-0.4-3.1-0.4-3.4-0.5-3.7-0.3-4-0.4-4.2-0.4-4.5-0.3-4.8-0.3-4.9-0.3-5.1-0.2-5.3-0.3-5.4-0.1-5.6-0.2-5.7-0.1-5.8-0.1-5.8-0.1h-5.8-5.8-5.8l-5.8 0.1-5.8 0.1-5.7 0.1-5.6 0.2-5.4 0.1-5.3 0.3-5.1 0.2-4.9 0.3-4.8 0.3-4.5 0.3-4.2 0.4-4 0.4-3.7 0.3-3.4 0.5-3.1 0.4-2.7 0.4-2.5 0.5-2.1 0.5-1.7 0.5-1.4 0.5-1 0.5-0.7 0.5-0.2 0.5 0.1 0.5 0.4 0.5 0.9 0.5 1.2 0.5 1.5 0.5 1.9 0.5 2.3 0.5 2.6 0.4 2.9 0.5 3.3 0.4 3.5 0.4 3.9 0.4 4.1 0.4 4.4 0.3 4.6 0.3 4.8 0.3 5 0.3 5.2 0.2 5.4 0.2 5.5 0.2 5.6 0.1 5.8 0.1 5.8 0.1 5.8 0.1h5.8 5.8l5.8-0.1 5.8-0.1 5.8-0.1 5.6-0.1 5.5-0.2 5.4-0.2 5.2-0.2 5-0.3 4.8-0.3 4.6-0.3 4.4-0.3 4.1-0.4 3.9-0.4 3.5-0.4 3.3-0.4 2.9-0.5 2.6-0.4 2.3-0.5 1.9-0.5 1.5-0.5 1.2-0.5 0.9-0.5 0.4-0.5 0.1-0.5-0.2-0.5-0.7-0.5-1-0.5-1.4-0.5-1.7-0.5-2.1-0.5-2.5-0.5-2.7-0.4-3.1-0.4-3.4-0.5-3.7-0.3-4-0.4-4.2-0.4-4.5-0.3-4.8-0.3-4.9-0.3-5.1-0.2-5.3-0.3-5.4-0.1-5.6-0.2-5.7-0.1-5.8-0.1-5.8-0.1h-5.8-5.8-5.8l-5.8 0.1-5.8 0.1-5.7 0.1-5.6 0.2-5.4 0.1-5.3 0.3-5.1 0.2-4.9 0.3-4.8 0.3-4.5 0.3-4.2 0.4-4 0.4-3.7 0.3-3.4 0.5-3.1 0.4-2.7 0.4-2.5 0.5-2.1 0.5-1.7 0.5-1.4 0.5-1 0.5-0.7 0.5-0.2 0.5 0.1 0.5 0.4 0.5 0.9 0.5 1.2 0.5 1.5 0.5 1.9 0.5 2.3 0.5 2.6 0.4 2.9 0.5 3.3 0.4 3.5 0.4 3.9 0.4 4.1 0.4 4.4 0.3 4.6 0.3 4.8 0.3 5 0.3 5.2 0.2 5.4 0.2 5.5 0.2 5.6 0.1 5.8 0.1 5.8 0.1 5.8 0.1h5.8 5.8l5.8-0.1 5.8-0.1 5.8-0.1 5.6-0.1 5.5-0.2 5.4-0.2 5.2-0.2 5-0.3 4.8-0.3 4.6-0.3 4.4-0.3 4.1-0.4 3.9-0.4 3.5-0.4 3.3-0.4 2.9-0.5 2.6-0.4 2.3-0.5 1.9-0.5 1.5-0.5 1.2-0.5 0.9-0.5 0.4-0.5 0.1-0.5-0.2-0.5-0.7-0.5-1-0.5-1.4-0.5-1.7-0.5-2.1-0.5-2.5-0.5-2.7-0.4-3.1-0.4-3.4-0.5-3.7-0.3-4-0.4-4.2-0.4-4.5-0.3-4.8-0.3-4.9-0.3-5.1-0.2-5.3-0.3-5.4-0.1-5.6-0.2-5.7-0.1-5.8-0.1-5.8-0.1h-5.8-5.8-5.8l-5.8 0.1-5.8 0.1-5.7 0.1-5.6 0.2-5.4 0.1-5.3 0.3-5.1 0.2-4.9 0.3-4.8 0.3-4.5 0.3-4.2 0.4-4 0.4-3.7 0.3-3.4 0.5-3.1 0.4-2.7 0.4-2.5 0.5-2.1 0.5-1.7 0.5-1.4 0.5-1 0.5-0.7 0.5-0.2 0.5 0.1 0.5 0.4 0.5 0.9 0.5 1.2 0.5 1.5 0.5 1.9 0.5 2.3 0.5 2.6 0.4 2.9 0.5 3.3 0.4 3.5 0.4 3.9 0.4 4.1 0.4 4.4 0.3 4.6 0.3 4.8 0.3 5 0.3 5.2 0.2 5.4 0.2 5.5 0.2 5.6 0.1 5.8 0.1 5.8 0.1 5.8 0.1h5.8 5.8l5.8-0.1 5.8-0.1 5.8-0.1 5.6-0.1 5.5-0.2 5.4-0.2 5.2-0.2 5-0.3 4.8-0.3 4.6-0.3 4.4-0.3 4.1-0.4 3.9-0.4 3.5-0.4 3.3-0.4 2.9-0.5 2.6-0.4 2.3-0.5 1.9-0.5 1.5-0.5 1.2-0.5 0.9-0.5 0.4-0.5 0.1-0.5-0.2-0.5-0.7-0.5-1-0.5-1.4-0.5-1.7-0.5-2.1-0.5-2.5-0.5-2.7-0.4-3.1-0.4-3.4-0.5-3.7-0.3-4-0.4-4.2-0.4-4.5-0.3-4.8-0.3-4.9-0.3-5.1-0.2-5.3-0.3-5.4-0.1-5.6-0.2-5.7-0.1-5.8-0.1-5.8-0.1h-5.8-5.8-5.8l-5.8 0.1-5.8 0.1-5.7 0.1-5.6 0.2-5.4 0.1-5.3 0.3-5.1 0.2-4.9 0.3-4.8 0.3-4.5 0.3-4.2 0.4-4 0.4-3.7 0.3-3.4 0.5-3.1 0.4-2.7 0.4-2.5 0.5-2.1 0.5-1.7 0.5-1.4 0.5-1 0.5-0.7 0.5-0.2 0.5 0.1 0.5 0.4 0.5 0.9 0.5 1.2 0.5 1.5 0.5 1.9 0.5 2.3 0.5 2.6 0.4 2.9 0.5 3.3 0.4 3.5 0.4 3.9 0.4 4.1 0.4 4.4 0.3 4.6 0.3 4.8 0.3 5 0.3 5.2 0.2 5.4 0.2 5.5 0.2 5.6 0.1 5.8 0.1 5.8 0.1 5.8 0.1h5.8 5.8l5.8-0.1 5.8-0.1 5.8-0.1 5.6-0.1 5.5-0.2 5.4-0.2 5.2-0.2 5-0.3 4.8-0.3 4.6-0.3 4.4-0.3 4.1-0.4 3.9-0.4 3.5-0.4 3.3-0.4 2.9-0.5 2.6-0.4 2.3-0.5 1.9-0.5 1.5-0.5 1.2-0.5 0.9-0.5 0.4-0.5 0.1-0.5-0.2-0.5-0.7-0.5-1-0.5-1.4-0.5-1.7-0.5-2.1-0.5-2.5-0.5-2.7-0.4-3.1-0.4-3.4-0.5-3.7-0.3-4-0.4-4.2-0.4-4.5-0.3-4.8-0.3-4.9-0.3-5.1-0.2-5.3-0.3-5.4-0.1-5.6-0.2-5.7-0.1-5.8-0.1-5.8-0.1h-5.8-5.8-5.8l-5.8 0.1-5.8 0.1-5.7 0.1-5.6 0.2-5.4 0.1-5.3 0.3-5.1 0.2-4.9 0.3-4.8 0.3-4.5 0.3-4.2 0.4-4 0.4-3.7 0.3-3.4 0.5-3.1 0.4-2.7 0.4-2.5 0.5-2.1 0.5-1.7 0.5-1.4 0.5-1 0.5-0.7 0.5-0.2 0.5 0.1 0.5 0.4 0.5 0.9 0.5 1.2 0.5 1.5 0.5 1.9 0.5 2.3 0.5 2.6 0.4 2.9 0.5 3.3 0.4 3.5 0.4 3.9 0.4 4.1 0.4 4.4 0.3 4.6 0.3 4.8 0.3 5 0.3 5.2 0.2 5.4 0.2 5.5 0.2 5.6 0.1 5.8 0.1 5.8 0.1 5.8 0.1h5.8 5.8l5.8-0.1 5.8-0.1 5.8-0.1 5.6-0.1 5.5-0.2 5.4-0.2 5.2-0.2 5-0.3 4.8-0.3 4.6-0.3 4.4-0.3 4.1-0.4 3.9-0.4 3.5-0.4 3.3-0.4 2.9-0.5 2.6-0.4 2.3-0.5 1.9-0.5 1.5-0.5 1.2-0.5 0.9-0.5 0.4-0.5 0.1-0.5-0.2-0.5-0.7-0.5-1-0.5-1.4-0.5-1.7-0.5-2.1-0.5-2.5-0.5-2.7-0.4-3.1-0.4-3.4-0.5-3.7-0.3-4-0.4-4.2-0.4-4.5-0.3-4.8-0.3-4.9-0.3-5.1-0.2-5.3-0.3-5.4-0.1-5.6-0.2-5.7-0.1-5.8-0.1-5.8-0.1h-5.8-5.8-5.8l-5.8 0.1-5.8 0.1-5.7 0.1-5.6 0.2-5.4 0.1-5.3 0.3-5.1 0.2-4.9 0.3-4.8 0.3-4.5 0.3-4.2 0.4-4 0.4-3.7 0.3-3.4 0.5-3.1 0.4-2.7 0.4-2.5 0.5-2.1 0.5-1.7 0.5-1.4 0.5-1 0.5-0.7 0.5-0.2 0.5 0.1 0.5 0.4 0.5 0.9 0.5 1.2 0.5 1.5 0.5 1.9 0.5 2.3 0.5 2.6 0.4 2.9 0.5 3.3 0.4 3.5 0.4 3.9 0.4 4.1 0.4 4.4 0.3 4.6 0.3 4.8 0.3 5 0.3 5.2 0.2 5.4 0.2 5.5 0.2 5.6 0.1 5.8 0.1 5.8 0.1 5.8 0.1h5.8 5.8l5.8-0.1 5.8-0.1 5.8-0.1 5.6-0.1 5.5-0.2 5.4-0.2 5.2-0.2 5-0.3 4.8-0.3 4.6-0.3 4.4-0.3 4.1-0.4 3.9-0.4 3.5-0.4 3.3-0.4 2.9-0.5 2.6-0.4 2.3-0.5 1.9-0.5 1.5-0.5 1.2-0.5 0.9-0.5 0.4-0.5 0.1-0.5-0.2-0.5-0.7-0.5-1-0.5-1.4-0.5-1.7-0.5-2.1-0.5-2.5-0.5-2.7-0.4-3.1-0.4-3.4-0.5-3.7-0.3-4-0.4-4.2-0.4-4.5-0.3-4.8-0.3-4.9-0.3-5.1-0.2-5.3-0.3-5.4-0.1-5.6-0.2-5.7-0.1-5.8-0.1-5.8-0.1h-5.8-5.8-5.8l-5.8 0.1-5.8 0.1-5.7 0.1-5.6 0.2-5.4 0.1-5.3 0.3-5.1 0.2-4.9 0.3-4.8 0.3-4.5 0.3-4.2 0.4-4 0.4-3.7 0.3-3.4 0.5-3.1 0.4-2.7 0.4-2.5 0.5-2.1 0.5-1.7 0.5-1.4 0.5-1 0.5-0.7 0.5-0.2 0.5 0.1 0.5 0.4 0.5 0.9 0.5 1.2 0.5 1.5 0.5 1.9 0.5 2.3 0.5 2.6 0.4 2.9 0.5 3.3 0.4 3.5 0.4 3.9 0.4 4.1 0.4 4.4 0.3 4.6 0.3 4.8 0.3 5 0.3 5.2 0.2 5.4 0.2 5.5 0.2 5.6 0.1 5.8 0.1 5.8 0.1 5.8 0.1h5.8"/>
   </g>
  </g>
  <g id="gnuplot_plot_1-3" transform="translate(227.74 -4.4517)">
   <title id="title4615">gnuplot_plot_1</title>
   <g id="g4619" style="color:#000000" stroke="#000" stroke-width="1.5" fill="none">
    <path id="path4621" d="m120 127 0.9-1 0.9-0.9 1-0.9 0.9-0.9 0.9-1 1-0.9 0.9-0.9 0.9-1 0.9-0.9 1-0.9 0.9-1 1-0.9 0.9-0.9 0.9-0.9 1-1 0.9-0.9 0.9-0.9 0.9-1 1-0.9 0.9-0.9 0.9-1 1-0.9 0.9-0.9 1-0.9 0.9-1 0.9-0.9 1-0.9 0.9-1 0.9-0.9 1-0.9 0.9-0.9 0.9-1 1-0.9 0.9-0.9 0.9-1 0.9-0.9 1-0.9 0.9-1 1-0.9 0.9-0.9 0.9-0.9 0.9-1 1-0.9 0.9-0.9 1-1 0.9-0.9 0.9-0.9 1-1 0.9-0.9 0.9-0.8 1-0.9 0.9-1 0.9-0.9 1-0.9 0.9-1 0.9-0.9 1-0.9 0.9-1 0.9-0.9 1-0.9 0.9-0.9 0.9-1 1-0.9 0.9-0.9 0.9-1 1-0.9 0.9-0.9 0.9-1 0.9-0.9 1-0.9 0.9-0.9 0.9-1 1-0.9 0.9-0.9 1-1 0.9-0.9 0.9-0.9 1-0.9 0.9-1 0.9-0.9 1-0.9 0.9-1 0.9-0.9 0.9-0.9 1-1 0.9-0.9 1-0.9 0.9-0.9 0.9-1 1-0.9 0.9-0.9 0.9-1 1-0.9 0.9-0.9 0.9-1 1-0.9 0.9-0.9 0.9-0.9 1-1m-92.4 92 0.9-1 0.9-0.9 1-0.9 0.9-0.9 0.9-1 1-0.9 0.9-0.9 0.9-1 0.9-0.9 1-0.9 0.9-1 1-0.9 0.9-0.9 0.9-0.9 1-1 0.9-0.9 0.9-0.9 0.9-1 1-0.9 0.9-0.9 0.9-1 1-0.9 0.9-0.9 1-0.9 0.9-1 0.9-0.9 1-0.9 0.9-1 0.9-0.9 1-0.9 0.9-0.9 0.9-1 1-0.9 0.9-0.9 0.9-1 0.9-0.9 1-0.9 0.9-1 1-0.9 0.9-0.9 0.9-0.9 0.9-1 1-0.9 0.9-0.9 1-1 0.9-0.9 0.9-0.9 1-1 0.9-0.9 0.9-0.8 1-0.9 0.9-1 0.9-0.9 1-0.9 0.9-1 0.9-0.9 1-0.9 0.9-1 0.9-0.9 1-0.9 0.9-0.9 0.9-1 1-0.9 0.9-0.9 0.9-1 1-0.9 0.9-0.9 0.9-1 0.9-0.9 1-0.9 0.9-0.9 0.9-1 1-0.9 0.9-0.9 1-1 0.9-0.9 0.9-0.9 1-0.9 0.9-1 0.9-0.9 1-0.9 0.9-1 0.9-0.9 0.9-0.9 1-1 0.9-0.9 1-0.9 0.9-0.9 0.9-1 1-0.9 0.9-0.9 0.9-1 1-0.9 0.9-0.9 0.9-1 1-0.9 0.9-0.9 0.9-0.9 1-1m-92.4 92 0.9-1 0.9-0.9 1-0.9 0.9-0.9 0.9-1 1-0.9 0.9-0.9 0.9-1 0.9-0.9 1-0.9 0.9-1 1-0.9 0.9-0.9 0.9-0.9 1-1 0.9-0.9 0.9-0.9 0.9-1 1-0.9 0.9-0.9 0.9-1 1-0.9 0.9-0.9 1-0.9 0.9-1 0.9-0.9 1-0.9 0.9-1 0.9-0.9 1-0.9 0.9-0.9 0.9-1 1-0.9 0.9-0.9 0.9-1 0.9-0.9 1-0.9 0.9-1 1-0.9 0.9-0.9 0.9-0.9 0.9-1 1-0.9 0.9-0.9 1-1 0.9-0.9 0.9-0.9 1-1 0.9-0.9 0.9-0.8 1-0.9 0.9-1 0.9-0.9 1-0.9 0.9-1 0.9-0.9 1-0.9 0.9-1 0.9-0.9 1-0.9 0.9-0.9 0.9-1 1-0.9 0.9-0.9 0.9-1 1-0.9 0.9-0.9 0.9-1 0.9-0.9 1-0.9 0.9-0.9 0.9-1 1-0.9 0.9-0.9 1-1 0.9-0.9 0.9-0.9 1-0.9 0.9-1 0.9-0.9 1-0.9 0.9-1 0.9-0.9 0.9-0.9 1-1 0.9-0.9 1-0.9 0.9-0.9 0.9-1 1-0.9 0.9-0.9 0.9-1 1-0.9 0.9-0.9 0.9-1 1-0.9 0.9-0.9 0.9-0.9 1-1m-92.4 92 0.9-1 0.9-0.9 1-0.9 0.9-0.9 0.9-1 1-0.9 0.9-0.9 0.9-1 0.9-0.9 1-0.9 0.9-1 1-0.9 0.9-0.9 0.9-0.9 1-1 0.9-0.9 0.9-0.9 0.9-1 1-0.9 0.9-0.9 0.9-1 1-0.9 0.9-0.9 1-0.9 0.9-1 0.9-0.9 1-0.9 0.9-1 0.9-0.9 1-0.9 0.9-0.9 0.9-1 1-0.9 0.9-0.9 0.9-1 0.9-0.9 1-0.9 0.9-1 1-0.9 0.9-0.9 0.9-0.9 0.9-1 1-0.9 0.9-0.9 1-1 0.9-0.9 0.9-0.9 1-1 0.9-0.9 0.9-0.8 1-0.9 0.9-1 0.9-0.9 1-0.9 0.9-1 0.9-0.9 1-0.9 0.9-1 0.9-0.9 1-0.9 0.9-0.9 0.9-1 1-0.9 0.9-0.9 0.9-1 1-0.9 0.9-0.9 0.9-1 0.9-0.9 1-0.9 0.9-0.9 0.9-1 1-0.9 0.9-0.9 1-1 0.9-0.9 0.9-0.9 1-0.9 0.9-1 0.9-0.9 1-0.9 0.9-1 0.9-0.9 0.9-0.9 1-1 0.9-0.9 1-0.9 0.9-0.9 0.9-1 1-0.9 0.9-0.9 0.9-1 1-0.9 0.9-0.9 0.9-1 1-0.9 0.9-0.9 0.9-0.9 1-1m-92.4 92 0.9-1 0.9-0.9 1-0.9 0.9-0.9 0.9-1 1-0.9 0.9-0.9 0.9-1 0.9-0.9 1-0.9 0.9-1 1-0.9 0.9-0.9 0.9-0.9 1-1 0.9-0.9 0.9-0.9 0.9-1 1-0.9 0.9-0.9 0.9-1 1-0.9 0.9-0.9 1-0.9 0.9-1 0.9-0.9 1-0.9 0.9-1 0.9-0.9 1-0.9 0.9-0.9 0.9-1 1-0.9 0.9-0.9 0.9-1 0.9-0.9 1-0.9 0.9-1 1-0.9 0.9-0.9 0.9-0.9 0.9-1 1-0.9 0.9-0.9 1-1 0.9-0.9 0.9-0.9 1-1 0.9-0.9 0.9-0.8 1-0.9 0.9-1 0.9-0.9 1-0.9 0.9-1 0.9-0.9 1-0.9 0.9-1 0.9-0.9 1-0.9 0.9-0.9 0.9-1 1-0.9 0.9-0.9 0.9-1 1-0.9 0.9-0.9 0.9-1 0.9-0.9 1-0.9 0.9-0.9 0.9-1 1-0.9 0.9-0.9 1-1 0.9-0.9 0.9-0.9 1-0.9 0.9-1 0.9-0.9 1-0.9 0.9-1 0.9-0.9 0.9-0.9 1-1 0.9-0.9 1-0.9 0.9-0.9 0.9-1 1-0.9 0.9-0.9 0.9-1 1-0.9 0.9-0.9 0.9-1 1-0.9 0.9-0.9 0.9-0.9 1-1m-92.4 92 0.9-1 0.9-0.9 1-0.9 0.9-0.9 0.9-1 1-0.9 0.9-0.9 0.9-1 0.9-0.9 1-0.9 0.9-1 1-0.9 0.9-0.9 0.9-0.9 1-1 0.9-0.9 0.9-0.9 0.9-1 1-0.9 0.9-0.9 0.9-1 1-0.9 0.9-0.9 1-0.9 0.9-1 0.9-0.9 1-0.9 0.9-1 0.9-0.9 1-0.9 0.9-0.9 0.9-1 1-0.9 0.9-0.9 0.9-1 0.9-0.9 1-0.9 0.9-1 1-0.9 0.9-0.9 0.9-0.9 0.9-1 1-0.9 0.9-0.9 1-1 0.9-0.9 0.9-0.9 1-1 0.9-0.9 0.9-0.8 1-0.9 0.9-1 0.9-0.9 1-0.9 0.9-1 0.9-0.9 1-0.9 0.9-1 0.9-0.9 1-0.9 0.9-0.9 0.9-1 1-0.9 0.9-0.9 0.9-1 1-0.9 0.9-0.9 0.9-1 0.9-0.9 1-0.9 0.9-0.9 0.9-1 1-0.9 0.9-0.9 1-1 0.9-0.9 0.9-0.9 1-0.9 0.9-1 0.9-0.9 1-0.9 0.9-1 0.9-0.9 0.9-0.9 1-1 0.9-0.9 1-0.9 0.9-0.9 0.9-1 1-0.9 0.9-0.9 0.9-1 1-0.9 0.9-0.9 0.9-1 1-0.9 0.9-0.9 0.9-0.9 1-1"/>
    <path id="path4623" d="m120 127c5.205-5.329 10.525-10.531 15.8-15.8 3.8664-3.9711 7.8818-7.7962 11.788-11.729 6.2186-6.2121 12.408-12.451 18.703-18.596 4.5863-4.4289 9.0295-9.0064 13.585-13.47 6.599-6.7123 13.388-13.239 19.983-19.963 4.24-4.088 8.33-8.323 12.54-12.442m-92.4 92c5.205-5.329 10.525-10.531 15.8-15.8 3.8664-3.9711 7.8818-7.7962 11.788-11.729 6.2186-6.2121 12.408-12.451 18.703-18.596 4.5863-4.4289 9.0295-9.0064 13.585-13.47 6.599-6.7123 13.388-13.239 19.983-19.963 4.24-4.088 8.33-8.323 12.54-12.442m-92.4 92c5.205-5.329 10.525-10.531 15.8-15.8 3.8664-3.9711 7.8818-7.7962 11.788-11.729 6.2186-6.2121 12.408-12.451 18.703-18.596 4.5863-4.4289 9.0295-9.0064 13.585-13.47 6.599-6.7123 13.388-13.239 19.983-19.963 4.24-4.088 8.33-8.323 12.54-12.442m-92.4 92c5.205-5.329 10.525-10.531 15.8-15.8 3.8664-3.9711 7.8818-7.7962 11.788-11.729 6.2186-6.2121 12.408-12.451 18.703-18.596 4.5863-4.4289 9.0295-9.0064 13.585-13.47 6.599-6.7123 13.388-13.239 19.983-19.963 4.24-4.088 8.33-8.323 12.54-12.442"/>
   </g>
  </g>
  <g id="gnuplot_plot_2" transform="translate(227.74 -4.4517)">
   <title id="title4626">gnuplot_plot_2</title>
   <g id="g4628" style="color:#000000" stroke="#000" stroke-width="1.5" fill="none">
    <path id="path4630" d="m120 127-0.9-1-0.9-0.9-1-0.9-0.9-0.9-0.9-1-1-0.9-0.9-0.9-0.9-1-0.9-0.9-1-0.9-0.9-1-1-0.9-0.9-0.9-0.9-0.9-1-1-0.9-0.9-0.9-0.9-0.9-1-1-0.9-0.9-0.9-0.9-1-1-0.9-0.9-0.9-1-0.9-0.9-1-0.9-0.9-1-0.9-0.9-1-0.9-0.9-1-0.9-0.9-0.9-0.9-1-1-0.9-0.9-0.9-0.9-1-0.9-0.9-1-0.9-0.9-1-1-0.9-0.9-0.9-0.9-0.9-0.9-1-1-0.9-0.9-0.9-1-1-0.9-0.9-0.9-0.9-1-1-0.9-0.9-0.9-0.8-1-0.9-0.9-1-0.9-0.9-1-0.9-0.9-1-0.9-0.9-1-0.9-0.9-1-0.9-0.9-1-0.9-0.9-0.9-0.9-1-1-0.9-0.9-0.9-0.9-1-1-0.9-0.9-0.9-0.9-1-0.9-0.9-1-0.9-0.9-0.9-0.9-1-1-0.9-0.9-0.9-1-1-0.9-0.9-0.9-0.9-1-0.9-0.9-1-0.9-0.9-1-0.9-0.9-1-0.9-0.9-0.9-0.9-1-1-0.9-0.9-1-0.9-0.9-0.9-0.9-1-1-0.9-0.9-0.9-0.9-1-1-0.9-0.9-0.9-0.9-1-1-0.9-0.9-0.9-0.9-0.9-1-1m92.4 92-0.9-1-0.9-0.9-1-0.9-0.9-0.9-0.9-1-1-0.9-0.9-0.9-0.9-1-0.9-0.9-1-0.9-0.9-1-1-0.9-0.9-0.9-0.9-0.9-1-1-0.9-0.9-0.9-0.9-0.9-1-1-0.9-0.9-0.9-0.9-1-1-0.9-0.9-0.9-1-0.9-0.9-1-0.9-0.9-1-0.9-0.9-1-0.9-0.9-1-0.9-0.9-0.9-0.9-1-1-0.9-0.9-0.9-0.9-1-0.9-0.9-1-0.9-0.9-1-1-0.9-0.9-0.9-0.9-0.9-0.9-1-1-0.9-0.9-0.9-1-1-0.9-0.9-0.9-0.9-1-1-0.9-0.9-0.9-0.8-1-0.9-0.9-1-0.9-0.9-1-0.9-0.9-1-0.9-0.9-1-0.9-0.9-1-0.9-0.9-1-0.9-0.9-0.9-0.9-1-1-0.9-0.9-0.9-0.9-1-1-0.9-0.9-0.9-0.9-1-0.9-0.9-1-0.9-0.9-0.9-0.9-1-1-0.9-0.9-0.9-1-1-0.9-0.9-0.9-0.9-1-0.9-0.9-1-0.9-0.9-1-0.9-0.9-1-0.9-0.9-0.9-0.9-1-1-0.9-0.9-1-0.9-0.9-0.9-0.9-1-1-0.9-0.9-0.9-0.9-1-1-0.9-0.9-0.9-0.9-1-1-0.9-0.9-0.9-0.9-0.9-1-1m92.4 92-0.9-1-0.9-0.9-1-0.9-0.9-0.9-0.9-1-1-0.9-0.9-0.9-0.9-1-0.9-0.9-1-0.9-0.9-1-1-0.9-0.9-0.9-0.9-0.9-1-1-0.9-0.9-0.9-0.9-0.9-1-1-0.9-0.9-0.9-0.9-1-1-0.9-0.9-0.9-1-0.9-0.9-1-0.9-0.9-1-0.9-0.9-1-0.9-0.9-1-0.9-0.9-0.9-0.9-1-1-0.9-0.9-0.9-0.9-1-0.9-0.9-1-0.9-0.9-1-1-0.9-0.9-0.9-0.9-0.9-0.9-1-1-0.9-0.9-0.9-1-1-0.9-0.9-0.9-0.9-1-1-0.9-0.9-0.9-0.8-1-0.9-0.9-1-0.9-0.9-1-0.9-0.9-1-0.9-0.9-1-0.9-0.9-1-0.9-0.9-1-0.9-0.9-0.9-0.9-1-1-0.9-0.9-0.9-0.9-1-1-0.9-0.9-0.9-0.9-1-0.9-0.9-1-0.9-0.9-0.9-0.9-1-1-0.9-0.9-0.9-1-1-0.9-0.9-0.9-0.9-1-0.9-0.9-1-0.9-0.9-1-0.9-0.9-1-0.9-0.9-0.9-0.9-1-1-0.9-0.9-1-0.9-0.9-0.9-0.9-1-1-0.9-0.9-0.9-0.9-1-1-0.9-0.9-0.9-0.9-1-1-0.9-0.9-0.9-0.9-0.9-1-1m92.4 92-0.9-1-0.9-0.9-1-0.9-0.9-0.9-0.9-1-1-0.9-0.9-0.9-0.9-1-0.9-0.9-1-0.9-0.9-1-1-0.9-0.9-0.9-0.9-0.9-1-1-0.9-0.9-0.9-0.9-0.9-1-1-0.9-0.9-0.9-0.9-1-1-0.9-0.9-0.9-1-0.9-0.9-1-0.9-0.9-1-0.9-0.9-1-0.9-0.9-1-0.9-0.9-0.9-0.9-1-1-0.9-0.9-0.9-0.9-1-0.9-0.9-1-0.9-0.9-1-1-0.9-0.9-0.9-0.9-0.9-0.9-1-1-0.9-0.9-0.9-1-1-0.9-0.9-0.9-0.9-1-1-0.9-0.9-0.9-0.8-1-0.9-0.9-1-0.9-0.9-1-0.9-0.9-1-0.9-0.9-1-0.9-0.9-1-0.9-0.9-1-0.9-0.9-0.9-0.9-1-1-0.9-0.9-0.9-0.9-1-1-0.9-0.9-0.9-0.9-1-0.9-0.9-1-0.9-0.9-0.9-0.9-1-1-0.9-0.9-0.9-1-1-0.9-0.9-0.9-0.9-1-0.9-0.9-1-0.9-0.9-1-0.9-0.9-1-0.9-0.9-0.9-0.9-1-1-0.9-0.9-1-0.9-0.9-0.9-0.9-1-1-0.9-0.9-0.9-0.9-1-1-0.9-0.9-0.9-0.9-1-1-0.9-0.9-0.9-0.9-0.9-1-1m92.4 92-0.9-1-0.9-0.9-1-0.9-0.9-0.9-0.9-1-1-0.9-0.9-0.9-0.9-1-0.9-0.9-1-0.9-0.9-1-1-0.9-0.9-0.9-0.9-0.9-1-1-0.9-0.9-0.9-0.9-0.9-1-1-0.9-0.9-0.9-0.9-1-1-0.9-0.9-0.9-1-0.9-0.9-1-0.9-0.9-1-0.9-0.9-1-0.9-0.9-1-0.9-0.9-0.9-0.9-1-1-0.9-0.9-0.9-0.9-1-0.9-0.9-1-0.9-0.9-1-1-0.9-0.9-0.9-0.9-0.9-0.9-1-1-0.9-0.9-0.9-1-1-0.9-0.9-0.9-0.9-1-1-0.9-0.9-0.9-0.8-1-0.9-0.9-1-0.9-0.9-1-0.9-0.9-1-0.9-0.9-1-0.9-0.9-1-0.9-0.9-1-0.9-0.9-0.9-0.9-1-1-0.9-0.9-0.9-0.9-1-1-0.9-0.9-0.9-0.9-1-0.9-0.9-1-0.9-0.9-0.9-0.9-1-1-0.9-0.9-0.9-1-1-0.9-0.9-0.9-0.9-1-0.9-0.9-1-0.9-0.9-1-0.9-0.9-1-0.9-0.9-0.9-0.9-1-1-0.9-0.9-1-0.9-0.9-0.9-0.9-1-1-0.9-0.9-0.9-0.9-1-1-0.9-0.9-0.9-0.9-1-1-0.9-0.9-0.9-0.9-0.9-1-1m92.4 92-0.9-1-0.9-0.9-1-0.9-0.9-0.9-0.9-1-1-0.9-0.9-0.9-0.9-1-0.9-0.9-1-0.9-0.9-1-1-0.9-0.9-0.9-0.9-0.9-1-1-0.9-0.9-0.9-0.9-0.9-1-1-0.9-0.9-0.9-0.9-1-1-0.9-0.9-0.9-1-0.9-0.9-1-0.9-0.9-1-0.9-0.9-1-0.9-0.9-1-0.9-0.9-0.9-0.9-1-1-0.9-0.9-0.9-0.9-1-0.9-0.9-1-0.9-0.9-1-1-0.9-0.9-0.9-0.9-0.9-0.9-1-1-0.9-0.9-0.9-1-1-0.9-0.9-0.9-0.9-1-1-0.9-0.9-0.9-0.8-1-0.9-0.9-1-0.9-0.9-1-0.9-0.9-1-0.9-0.9-1-0.9-0.9-1-0.9-0.9-1-0.9-0.9-0.9-0.9-1-1-0.9-0.9-0.9-0.9-1-1-0.9-0.9-0.9-0.9-1-0.9-0.9-1-0.9-0.9-0.9-0.9-1-1-0.9-0.9-0.9-1-1-0.9-0.9-0.9-0.9-1-0.9-0.9-1-0.9-0.9-1-0.9-0.9-1-0.9-0.9-0.9-0.9-1-1-0.9-0.9-1-0.9-0.9-0.9-0.9-1-1-0.9-0.9-0.9-0.9-1-1-0.9-0.9-0.9-0.9-1-1-0.9-0.9-0.9-0.9-0.9-1-1"/>
    <path id="path4632" d="m120 127c-5.205-5.329-10.525-10.531-15.8-15.8-3.8664-3.9711-7.8818-7.7962-11.788-11.729-6.219-6.212-12.408-12.451-18.703-18.597-4.587-4.429-9.03-9.006-13.585-13.47-6.599-6.712-13.389-13.239-19.984-19.964-4.241-4.086-8.325-8.321-12.54-12.44m92.4 92c-5.205-5.329-10.525-10.531-15.8-15.8-3.8664-3.9711-7.8818-7.7962-11.788-11.729-6.219-6.212-12.408-12.451-18.703-18.597-4.587-4.429-9.03-9.006-13.585-13.47-6.599-6.712-13.389-13.239-19.984-19.964-4.241-4.086-8.325-8.321-12.54-12.44m92.4 92c-5.205-5.329-10.525-10.531-15.8-15.8-3.8664-3.9711-7.8818-7.7962-11.788-11.729-6.219-6.212-12.408-12.451-18.703-18.597-4.587-4.429-9.03-9.006-13.585-13.47-6.599-6.712-13.389-13.239-19.984-19.964-4.241-4.086-8.325-8.321-12.54-12.44m92.4 92c-5.205-5.329-10.525-10.531-15.8-15.8-3.8664-3.9711-7.8818-7.7962-11.788-11.729-6.219-6.212-12.408-12.451-18.703-18.597-4.587-4.429-9.03-9.006-13.585-13.47-6.599-6.712-13.389-13.239-19.984-19.964-4.241-4.086-8.325-8.321-12.54-12.44"/>
   </g>
  </g>
 </g>
 <g id="gnuplot_plot_2-9" transform="translate(102.16 -66.449)">
  <title id="title5239">gnuplot_plot_2</title>
 </g>
 <text id="text5758" style="word-spacing:0px;letter-spacing:0px;text-anchor:middle;text-align:center" xml:space="preserve" font-size="16px" line-height="125%" y="80.24173" x="295.07062" font-family="&apos;STIX Two Text&apos;" fill="#000000"><tspan id="tspan5760" x="295.07062" y="80.24173">coordenadas</tspan><tspan id="tspan5762" x="295.07062" y="100.24173">cilíndricas</tspan></text>
 <path id="path5766" marker-end="url(#Arrow2Lend)" d="m239.29 59.519h110" stroke="#000" stroke-width="1px" fill="none"/>
 <path id="path6102" marker-end="url(#marker6104)" d="m150 118.24 70 60h160l79-69" stroke="#000" stroke-width="1px" fill="none"/>
</svg>
