<?xml version="1.0" encoding="UTF-8" standalone="no"?>
<!-- Created with Inkscape (http://www.inkscape.org/) -->
<svg id="svg4222" xmlns:rdf="http://www.w3.org/1999/02/22-rdf-syntax-ns#" xmlns="http://www.w3.org/2000/svg" xmlns:ns0="http://www.iki.fi/pav/software/textext/" height="215.99" viewBox="0 0 189.18907 215.99255" width="189.19" version="1.1" xmlns:cc="http://creativecommons.org/ns#" xmlns:dc="http://purl.org/dc/elements/1.1/">
 <style type="text/css">
	@import url('../estilo.css');
 </style>
 <metadata id="metadata4228">
  <rdf:RDF>
   <cc:Work rdf:about="">
    <dc:format>image/svg+xml</dc:format>
    <dc:type rdf:resource="http://purl.org/dc/dcmitype/StillImage"/>
    <dc:title/>
   </cc:Work>
  </rdf:RDF>
 </metadata>
 <defs id="defs4226">
  <marker id="marker4558" refY="0.0" refX="0.0" orient="auto" overflow="visible">
   <path id="path4560" d="m5.77 0l-8.65 5v-10l8.65 5z" fill-rule="evenodd" transform="scale(.8)" stroke="#000" stroke-width="1pt"/>
  </marker>
  <marker id="marker4545" refY="0.0" refX="0.0" orient="auto" overflow="visible">
   <path id="path4431" d="m5.77 0l-8.65 5v-10l8.65 5z" fill-rule="evenodd" transform="scale(.8)" stroke="#000" stroke-width="1pt"/>
  </marker>
 </defs>
 <path id="path4237" d="m5.0891 75.499c47.542 8.61 67.083-67.37 115-70 6.3533 39.407 20.409 77.629 40 115-46.031-2.3294-70.716 81.027-125 90-13.56-50.18-26.86-92.82-30.001-135z" fill="#ffff80"/>
 <path id="rect4234" d="m5.0891 75.499c47.542 8.61 67.083-67.37 115-70m40 115c-46.031-2.3294-70.716 81.027-125 90" stroke="#000" fill="none"/>
 <circle id="path4246" cy="65.499" cx="101.09" r="2.4833"/>
 <path id="path4248" marker-end="url(#marker4545)" d="m101.09 65.499v30" stroke="#000" stroke-width="1px" fill="none"/>
 <path id="path4746" marker-end="url(#marker4558)" d="m101.09 65.499-41 19.568" stroke="#000" stroke-width="1px" fill="none"/>
 <g fill-rule="evenodd" stroke="#000" stroke-miterlimit="10.433">
  <g id="content" xml:space="preserve" stroke-width="0" ns0:pdfconverter="pstoedit" transform="matrix(1.75 0 0 -1.75 -161.75 1298.2)" ns0:text="$\n\\rm\nP = f(x_0,y_0)\n$" ns0:version="0.7.2" ns0:inkscapeversion="0.91" ns0:preamble="/usr/share/inkscape/extensions/default_packages.tex" ns0:scale="1.4" ns0:texconverter="pdflatex"><path id="path4820" d="m150.72 710.02v0.4 2.59c0 0.27 0.07 0.34 0.34 0.34 1.35 0 1.96-0.47 1.96-1.5 0-0.96-0.58-1.46-1.73-1.46-0.2 0-0.34 0.01-0.57 0.03v-0.4c0.26-0.02 0.43-0.03 0.69-0.03 0.78 0 1.32 0.1 1.74 0.34 0.6 0.32 0.96 0.93 0.96 1.58 0 0.42-0.14 0.8-0.41 1.09-0.4 0.44-1.26 0.72-2.2 0.72h-2.63v-0.19c0.74-0.08 0.84-0.18 0.84-0.9v-4.31c0-0.84-0.08-0.94-0.84-1.01v-0.19h2.79v0.19c-0.79 0.03-0.94 0.17-0.94 0.9z"/><polygon id="polygon4822" points="162.74 710.41 162.74 710.97 157.64 710.97 157.64 710.41"/><polygon id="polygon4824" points="162.74 708.39 162.74 708.95 157.64 708.95 157.64 708.39"/><path id="path4826" d="m169.2 711.61h-1.22v1.15c0 0.58 0.19 0.89 0.57 0.89 0.21 0 0.35-0.1 0.52-0.39 0.16-0.26 0.28-0.36 0.45-0.36 0.23 0 0.42 0.18 0.42 0.41 0 0.36-0.44 0.62-1.04 0.62-0.61 0-1.14-0.27-1.4-0.73-0.26-0.44-0.34-0.8-0.35-1.59h-0.82v-0.32h0.82v-3.13c0-0.73-0.11-0.85-0.83-0.89v-0.15h2.59v0.15c-0.81 0.03-0.92 0.14-0.92 0.89v3.13h1.21z"/><path id="path4828" d="m172.38 713.86-0.07-0.05-0.06-0.04-0.07-0.04-0.06-0.04-0.06-0.04-0.05-0.04-0.06-0.04-0.05-0.04-0.05-0.03-0.05-0.04-0.05-0.04-0.04-0.03-0.05-0.04-0.04-0.03-0.08-0.07-0.08-0.07-0.07-0.06-0.08-0.07-0.06-0.08-0.07-0.07-0.07-0.07-0.07-0.08-0.07-0.09c-0.7-0.87-1.05-1.86-1.05-3.03 0-1.26 0.37-2.24 1.24-3.25 0.41-0.48 0.67-0.7 1.19-1.02l0.12 0.16c-0.8 0.63-1.08 0.97-1.35 1.72-0.24 0.67-0.35 1.43-0.35 2.42 0 1.05 0.13 1.87 0.4 2.48 0.28 0.62 0.58 0.98 1.3 1.56z"/><path id="path4830" d="m175.52 707.12h2.01v0.15c-0.31 0-0.51 0.16-0.82 0.6l-1.28 1.95 0.83 1.2c0.19 0.27 0.49 0.43 0.81 0.44v0.15h-1.58v-0.15c0.3-0.02 0.4-0.08 0.4-0.22 0-0.12-0.12-0.34-0.37-0.65-0.04-0.06-0.17-0.24-0.29-0.44l-0.14 0.2c-0.28 0.42-0.46 0.76-0.46 0.89 0 0.14 0.13 0.21 0.43 0.22v0.15h-2.07v-0.15h0.09c0.3 0 0.46-0.13 0.77-0.6l0.94-1.44-1.14-1.64c-0.3-0.41-0.4-0.48-0.73-0.51v-0.15h1.45v0.15c-0.28 0-0.4 0.05-0.4 0.18 0 0.06 0.07 0.21 0.2 0.41l0.79 1.23 0.9-1.4c0.04-0.06 0.06-0.12 0.06-0.18 0-0.18-0.07-0.22-0.4-0.24z"/><path id="path4832" d="m179.51 710.34h-0.03-0.04-0.03-0.04-0.03l-0.03-0.01h-0.04l-0.03-0.01h-0.03l-0.03-0.01-0.03-0.01-0.03-0.01h-0.03l-0.03-0.01-0.03-0.01-0.03-0.02-0.03-0.01-0.03-0.01-0.03-0.01-0.02-0.02-0.03-0.01-0.03-0.02-0.02-0.01-0.03-0.02-0.03-0.02-0.02-0.01-0.03-0.02-0.02-0.02-0.03-0.02-0.02-0.02-0.03-0.03-0.02-0.02c-0.4-0.39-0.67-1.19-0.67-2.01 0-0.76 0.23-1.57 0.56-1.96 0.26-0.31 0.61-0.48 1.02-0.48v0.18c-0.6 0-0.91 0.75-0.91 2.2 0 1.48 0.31 2.25 0.91 2.25 0.59 0 0.9-0.78 0.9-2.24s-0.3-2.21-0.9-2.21v-0.18c0.35 0 0.65 0.12 0.9 0.37 0.41 0.38 0.67 1.19 0.67 2.03 0 1.43-0.63 2.41-1.55 2.41z"/><path id="path4834" d="m183.67 707.18v0.04 0.04l-0.01 0.03v0.04 0.03l-0.01 0.04v0.03l-0.01 0.03v0.03l-0.01 0.03-0.01 0.03-0.01 0.03-0.01 0.02-0.01 0.03-0.01 0.03-0.01 0.02-0.01 0.02-0.01 0.03-0.02 0.04-0.03 0.04-0.03 0.04-0.03 0.03-0.03 0.03-0.03 0.03-0.03 0.03-0.03 0.02-0.04 0.03-0.03 0.02-0.03 0.01-0.04 0.02-0.03 0.01-0.03 0.02-0.04 0.01h-0.03l-0.03 0.01-0.03 0.01h-0.03l-0.03 0.01h-0.02-0.03-0.02c-0.25 0-0.58-0.15-0.58-0.58 0-0.4 0.36-0.5 0.62-0.5 0.07 0 0.12 0.01 0.15 0.02 0.04 0.01 0.07 0.02 0.09 0.02 0.07 0 0.14-0.05 0.14-0.14 0-0.19-0.16-0.63-0.82-1.05l0.09-0.19c0.3 0.1 1.12 0.75 1.12 1.46z"/><path id="path4836" d="m190.6 711.61h-1.34v-0.15c0.32 0 0.48-0.09 0.48-0.25 0-0.04-0.01-0.1-0.04-0.17l-0.97-2.75-1.14 2.52c-0.06 0.14-0.1 0.27-0.1 0.38 0 0.18 0.15 0.25 0.57 0.27v0.15h-2.05v-0.14c0.26-0.04 0.43-0.15 0.51-0.32l1.14-2.45 0.03-0.08 0.15-0.3c0.27-0.5 0.43-0.86 0.43-1.01s-0.23-0.78-0.39-1.07c-0.14-0.26-0.36-0.45-0.5-0.45-0.06 0-0.15 0.02-0.25 0.07-0.19 0.07-0.36 0.11-0.53 0.11-0.23 0-0.43-0.2-0.43-0.44 0-0.33 0.32-0.58 0.74-0.58 0.67 0 1.14 0.56 1.68 1.99l1.54 4.07c0.13 0.32 0.24 0.42 0.47 0.45z"/><path id="path4838" d="m192.62 710.34h-0.03-0.04-0.03-0.04-0.03l-0.03-0.01h-0.04l-0.03-0.01h-0.03l-0.03-0.01-0.03-0.01-0.03-0.01h-0.03l-0.03-0.01-0.03-0.01-0.03-0.02-0.03-0.01-0.03-0.01-0.03-0.01-0.02-0.02-0.03-0.01-0.03-0.02-0.02-0.01-0.03-0.02-0.03-0.02-0.02-0.01-0.03-0.02-0.02-0.02-0.03-0.02-0.02-0.02-0.03-0.03-0.02-0.02c-0.4-0.39-0.67-1.19-0.67-2.01 0-0.76 0.23-1.57 0.56-1.96 0.26-0.31 0.61-0.48 1.02-0.48v0.18c-0.6 0-0.91 0.75-0.91 2.2 0 1.48 0.31 2.25 0.91 2.25 0.59 0 0.9-0.78 0.9-2.24s-0.3-2.21-0.9-2.21v-0.18c0.35 0 0.65 0.12 0.9 0.37 0.41 0.38 0.67 1.19 0.67 2.03 0 1.43-0.63 2.41-1.55 2.41z"/><path id="path4840" d="m195.22 705.36 0.07 0.04 0.06 0.05 0.07 0.04 0.06 0.04 0.06 0.04 0.05 0.04 0.06 0.04 0.05 0.03 0.05 0.04 0.05 0.04 0.05 0.03 0.04 0.04 0.05 0.03 0.04 0.04 0.08 0.06 0.08 0.07 0.07 0.07 0.08 0.07 0.06 0.07 0.07 0.08 0.07 0.07 0.07 0.08 0.07 0.08c0.7 0.87 1.05 1.87 1.05 3.03 0 1.28-0.37 2.25-1.24 3.26-0.41 0.48-0.67 0.7-1.19 1.02l-0.12-0.16c0.8-0.63 1.07-0.98 1.35-1.73 0.23-0.66 0.34-1.42 0.34-2.42 0-1.03-0.12-1.86-0.39-2.47-0.28-0.62-0.58-0.98-1.3-1.56z"/></g>
  <g id="g4906" xml:space="preserve" ns0:pdfconverter="pstoedit" transform="matrix(1.75 0 0 -1.75 -246.03 1334.5)" ns0:text="$\n\\rm\n\\dfrac{\\partial f}{\\partial y}(x_0,y_0)\n$" ns0:version="0.7.2" ns0:inkscapeversion="0.91" ns0:preamble="/usr/share/inkscape/extensions/default_packages.tex" ns0:scale="1.4" ns0:texconverter="pdflatex"><path id="path4908" d="m155.39 714.49v0.13l-0.01 0.14v0.13l-0.01 0.12-0.01 0.13-0.02 0.12-0.02 0.12-0.02 0.12-0.02 0.12-0.03 0.11-0.02 0.11-0.04 0.1-0.03 0.11-0.04 0.09-0.04 0.1-0.04 0.09-0.05 0.09-0.05 0.08-0.06 0.07-0.05 0.08-0.06 0.07-0.07 0.06-0.06 0.06-0.07 0.05-0.08 0.04-0.08 0.04-0.08 0.04-0.08 0.03-0.09 0.02-0.09 0.02-0.1 0.01h-0.09c-0.84 0-1.75-0.8-1.75-1.24 0-0.33 0.26-0.46 0.46-0.46 0.21 0 0.34 0.16 0.36 0.19-0.03 0.03-0.09 0.12-0.09 0.26 0 0.09 0.18 0.95 1.04 0.95 0.71 0 0.87-0.92 0.87-1.73 0-0.61-0.09-1.15-0.09-1.16h-0.01c0 0.01-0.39 0.62-1.17 0.62-2 0-2.82-1.93-2.82-2.96 0-0.92 0.55-1.52 1.65-1.52l0.07 0.24c-0.57 0-0.83 0.32-0.83 0.95s0.42 3.05 1.86 3.05c0.55 0 0.82-0.33 0.82-0.91 0-0.26-0.26-3.09-1.85-3.09l-0.07-0.24c1.71 0 3.06 1.74 3.06 4.45z" stroke-width="0"/><path id="path4910" d="m158.67 714.68h-1.22v1.16c0 0.57 0.19 0.88 0.57 0.88 0.21 0 0.35-0.1 0.52-0.39 0.16-0.25 0.28-0.35 0.45-0.35 0.23 0 0.42 0.18 0.42 0.4 0 0.36-0.44 0.62-1.03 0.62-0.62 0-1.15-0.27-1.41-0.72-0.26-0.44-0.34-0.8-0.35-1.6h-0.82v-0.32h0.82v-3.13c0-0.72-0.11-0.84-0.83-0.88v-0.15h2.59v0.15c-0.81 0.03-0.92 0.14-0.92 0.88v3.13h1.21z" stroke-width="0"/><line id="line4912" stroke-width="0.558" y2="706.01" x2="159.99" y1="706.01" x1="149.91"/><g stroke-width="0"><path id="path4914" d="m154.81 700.91v0.13 0.13l-0.01 0.13-0.01 0.13-0.01 0.13-0.02 0.12-0.01 0.12-0.02 0.12-0.03 0.12-0.02 0.11-0.03 0.11-0.03 0.1-0.04 0.1-0.04 0.1-0.04 0.1-0.04 0.09-0.05 0.08-0.05 0.08-0.05 0.08-0.06 0.07-0.06 0.07-0.06 0.06-0.07 0.06-0.07 0.05-0.08 0.05-0.07 0.04-0.08 0.04-0.09 0.03-0.09 0.02-0.09 0.02-0.09 0.01h-0.1c-0.84 0-1.75-0.8-1.75-1.25 0-0.33 0.26-0.45 0.46-0.45 0.21 0 0.34 0.16 0.36 0.18-0.03 0.04-0.09 0.12-0.09 0.26 0 0.09 0.18 0.96 1.04 0.96 0.72 0 0.87-0.93 0.87-1.73 0-0.61-0.09-1.15-0.09-1.16h-0.01c0 0.01-0.38 0.62-1.17 0.62-1.99 0-2.82-1.93-2.82-2.96 0-0.93 0.55-1.52 1.65-1.52l0.07 0.24c-0.56 0-0.82 0.31-0.82 0.95 0 0.63 0.41 3.05 1.85 3.05 0.56 0 0.83-0.33 0.83-0.92 0-0.26-0.26-3.08-1.86-3.08l-0.07-0.24c1.72 0 3.06 1.74 3.06 4.45z"/><path id="path4916" d="m159.74 701.1h-1.34v-0.15c0.32 0 0.48-0.09 0.48-0.25 0-0.04-0.01-0.1-0.04-0.17l-0.97-2.75-1.15 2.52c-0.06 0.14-0.1 0.27-0.1 0.38 0 0.18 0.15 0.25 0.58 0.27v0.15h-2.05v-0.14c0.26-0.04 0.43-0.15 0.51-0.32l1.13-2.45 0.03-0.08 0.15-0.3c0.28-0.5 0.44-0.86 0.44-1.01 0-0.14-0.23-0.77-0.4-1.07-0.14-0.26-0.36-0.45-0.5-0.45-0.05 0-0.14 0.02-0.25 0.07-0.18 0.07-0.35 0.11-0.52 0.11-0.23 0-0.43-0.2-0.43-0.44 0-0.33 0.32-0.58 0.74-0.58 0.66 0 1.14 0.56 1.68 2l1.53 4.06c0.13 0.32 0.24 0.42 0.48 0.45z"/><path id="path4918" d="m164.12 710.18-0.07-0.04-0.06-0.05-0.07-0.04-0.06-0.04-0.05-0.04-0.06-0.04-0.06-0.03-0.05-0.04-0.05-0.04-0.05-0.03-0.04-0.04-0.05-0.04-0.04-0.03-0.05-0.03-0.08-0.07-0.08-0.07-0.07-0.07-0.07-0.07-0.07-0.07-0.07-0.07-0.07-0.08-0.06-0.08-0.07-0.08c-0.71-0.87-1.06-1.87-1.06-3.03 0-1.27 0.37-2.24 1.25-3.26 0.4-0.48 0.66-0.7 1.18-1.02l0.12 0.16c-0.8 0.63-1.08 0.98-1.34 1.73-0.24 0.66-0.35 1.42-0.35 2.42 0 1.04 0.13 1.86 0.4 2.48 0.28 0.62 0.57 0.98 1.29 1.55z"/><path id="path4920" d="m167.27 703.45h2.01v0.15c-0.31 0-0.51 0.16-0.82 0.6l-1.28 1.95 0.83 1.19c0.19 0.27 0.49 0.43 0.81 0.44v0.15h-1.58v-0.15c0.3-0.02 0.4-0.08 0.4-0.22 0-0.12-0.12-0.34-0.37-0.65-0.04-0.06-0.17-0.24-0.29-0.43l-0.14 0.19c-0.28 0.42-0.46 0.76-0.46 0.89 0 0.14 0.13 0.21 0.43 0.22v0.15h-2.07v-0.15h0.09c0.3 0 0.46-0.13 0.77-0.6l0.94-1.43-1.14-1.65c-0.3-0.4-0.4-0.47-0.73-0.5v-0.15h1.45v0.15c-0.28 0-0.4 0.05-0.4 0.18 0 0.06 0.07 0.21 0.2 0.4l0.79 1.23 0.9-1.39c0.04-0.06 0.06-0.12 0.06-0.18 0-0.18-0.07-0.22-0.4-0.24z"/><path id="path4922" d="m171.26 706.67h-0.04-0.03-0.04l-0.03-0.01h-0.04-0.03l-0.03-0.01h-0.04l-0.03-0.01-0.03-0.01h-0.03l-0.03-0.01-0.03-0.01-0.03-0.01-0.03-0.01-0.03-0.01-0.03-0.01-0.02-0.01-0.03-0.02-0.03-0.01-0.03-0.02-0.02-0.01-0.03-0.02-0.03-0.01-0.02-0.02-0.03-0.02-0.02-0.02-0.03-0.02-0.02-0.02-0.03-0.02-0.02-0.02-0.03-0.02c-0.4-0.39-0.67-1.2-0.67-2.01 0-0.76 0.23-1.58 0.56-1.97 0.26-0.3 0.61-0.47 1.02-0.47v0.18c-0.6 0-0.91 0.74-0.91 2.19 0 1.48 0.32 2.26 0.92 2.26 0.58 0 0.89-0.79 0.89-2.25s-0.3-2.2-0.9-2.2v-0.18c0.35 0 0.65 0.12 0.9 0.36 0.41 0.38 0.67 1.19 0.67 2.04 0 1.43-0.63 2.41-1.54 2.41z"/><path id="path4924" d="m175.41 703.51v0.04 0.03 0.04l-0.01 0.03v0.04 0.03l-0.01 0.03-0.01 0.04v0.03l-0.01 0.03-0.01 0.02v0.03l-0.01 0.03-0.01 0.03-0.01 0.02-0.01 0.03-0.01 0.02-0.02 0.02-0.02 0.05-0.03 0.04-0.02 0.03-0.03 0.04-0.03 0.03-0.04 0.03-0.03 0.03-0.03 0.02-0.03 0.02-0.04 0.02-0.03 0.02-0.03 0.01-0.04 0.02-0.03 0.01-0.03 0.01-0.04 0.01-0.03 0.01h-0.03l-0.03 0.01h-0.02-0.03-0.02-0.03c-0.25 0-0.58-0.15-0.58-0.57 0-0.4 0.36-0.5 0.62-0.5 0.07 0 0.12 0.01 0.15 0.02 0.04 0.01 0.07 0.02 0.09 0.02 0.07 0 0.14-0.05 0.14-0.14 0-0.19-0.16-0.64-0.81-1.06l0.08-0.19c0.3 0.1 1.12 0.76 1.12 1.47z"/><path id="path4926" d="m182.35 707.93h-1.34v-0.15c0.32 0 0.48-0.09 0.48-0.25 0-0.04-0.01-0.1-0.04-0.17l-0.97-2.75-1.14 2.52c-0.06 0.14-0.1 0.27-0.1 0.38 0 0.18 0.15 0.25 0.57 0.27v0.15h-2.05v-0.14c0.26-0.04 0.43-0.15 0.51-0.32l1.14-2.45 0.03-0.08 0.15-0.3c0.27-0.49 0.43-0.85 0.43-1s-0.23-0.78-0.4-1.08c-0.13-0.26-0.35-0.45-0.49-0.45-0.06 0-0.15 0.02-0.25 0.07-0.19 0.07-0.36 0.11-0.53 0.11-0.23 0-0.43-0.2-0.43-0.44 0-0.32 0.32-0.57 0.74-0.57 0.67 0 1.14 0.55 1.68 1.99l1.54 4.06c0.13 0.32 0.24 0.42 0.47 0.45z"/><path id="path4928" d="m184.37 706.67h-0.03-0.04-0.03l-0.04-0.01h-0.03-0.03l-0.04-0.01h-0.03l-0.03-0.01-0.03-0.01h-0.03l-0.03-0.01-0.03-0.01-0.03-0.01-0.03-0.01-0.03-0.01-0.03-0.01-0.03-0.01-0.03-0.02-0.02-0.01-0.03-0.02-0.03-0.01-0.02-0.02-0.03-0.01-0.03-0.02-0.02-0.02-0.03-0.02-0.02-0.02-0.03-0.02-0.02-0.02-0.03-0.02-0.02-0.02c-0.4-0.39-0.67-1.2-0.67-2.01 0-0.76 0.23-1.58 0.56-1.97 0.26-0.3 0.61-0.47 1.02-0.47v0.18c-0.6 0-0.91 0.74-0.91 2.19 0 1.48 0.31 2.26 0.91 2.26 0.59 0 0.9-0.79 0.9-2.25s-0.3-2.2-0.9-2.2v-0.18c0.35 0 0.65 0.12 0.9 0.36 0.41 0.38 0.67 1.19 0.67 2.04 0 1.43-0.63 2.41-1.55 2.41z"/><path id="path4930" d="m186.96 701.68 0.07 0.05 0.07 0.04 0.06 0.04 0.06 0.04 0.06 0.04 0.06 0.04 0.05 0.04 0.05 0.04 0.05 0.03 0.05 0.04 0.05 0.04 0.05 0.03 0.04 0.04 0.04 0.03 0.08 0.07 0.08 0.07 0.08 0.07 0.07 0.07 0.07 0.07 0.06 0.07 0.07 0.08 0.07 0.08 0.07 0.08c0.71 0.87 1.05 1.86 1.05 3.03 0 1.27-0.36 2.24-1.24 3.26-0.41 0.47-0.67 0.69-1.19 1.01l-0.12-0.16c0.8-0.62 1.07-0.97 1.35-1.72 0.24-0.67 0.35-1.42 0.35-2.42 0-1.04-0.13-1.86-0.4-2.47-0.28-0.63-0.58-0.99-1.3-1.57z"/></g></g>
  <g id="g5022" xml:space="preserve" ns0:pdfconverter="pstoedit" transform="matrix(1.75 0 0 -1.75 -153.06 1339.3)" ns0:text="$\n\\rm\n\\dfrac{\\partial f}{\\partial x}(x_0,y_0)\n$" ns0:version="0.7.2" ns0:inkscapeversion="0.91" ns0:preamble="/usr/share/inkscape/extensions/default_packages.tex" ns0:scale="1.4" ns0:texconverter="pdflatex"><path id="path5024" stroke-width="0" d="m155.39 714.49v0.13l-0.01 0.14v0.13l-0.01 0.12-0.01 0.13-0.02 0.12-0.02 0.12-0.02 0.12-0.02 0.12-0.03 0.11-0.02 0.11-0.04 0.1-0.03 0.11-0.04 0.09-0.04 0.1-0.04 0.09-0.05 0.09-0.05 0.08-0.06 0.07-0.05 0.08-0.06 0.07-0.07 0.06-0.06 0.06-0.07 0.05-0.08 0.04-0.08 0.04-0.08 0.04-0.08 0.03-0.09 0.02-0.09 0.02-0.1 0.01h-0.09c-0.84 0-1.75-0.8-1.75-1.24 0-0.33 0.26-0.46 0.46-0.46 0.21 0 0.34 0.16 0.36 0.19-0.03 0.03-0.09 0.12-0.09 0.26 0 0.09 0.18 0.95 1.04 0.95 0.71 0 0.87-0.92 0.87-1.73 0-0.61-0.09-1.15-0.09-1.16h-0.01c0 0.01-0.39 0.62-1.17 0.62-2 0-2.82-1.93-2.82-2.96 0-0.92 0.55-1.52 1.65-1.52l0.07 0.24c-0.57 0-0.83 0.32-0.83 0.95s0.42 3.05 1.86 3.05c0.55 0 0.82-0.33 0.82-0.91 0-0.26-0.26-3.09-1.85-3.09l-0.07-0.24c1.71 0 3.06 1.74 3.06 4.45z"/><path id="path5026" stroke-width="0" d="m158.67 714.68h-1.22v1.16c0 0.57 0.19 0.88 0.57 0.88 0.21 0 0.35-0.1 0.52-0.39 0.16-0.25 0.28-0.35 0.45-0.35 0.23 0 0.42 0.18 0.42 0.4 0 0.36-0.44 0.62-1.03 0.62-0.62 0-1.15-0.27-1.41-0.72-0.26-0.44-0.34-0.8-0.35-1.6h-0.82v-0.32h0.82v-3.13c0-0.72-0.11-0.84-0.83-0.88v-0.15h2.59v0.15c-0.81 0.03-0.92 0.14-0.92 0.88v3.13h1.21z"/><line id="line5028" stroke-width="0.558" y2="706.01" y1="706.01" x2="159.99" x1="149.91"/><g stroke-width="0"><path id="path5030" d="m154.81 700.91v0.13 0.13l-0.01 0.13-0.01 0.13-0.01 0.13-0.02 0.12-0.01 0.12-0.02 0.12-0.03 0.12-0.02 0.11-0.03 0.11-0.03 0.1-0.04 0.1-0.04 0.1-0.04 0.1-0.04 0.09-0.05 0.08-0.05 0.08-0.05 0.08-0.06 0.07-0.06 0.07-0.06 0.06-0.07 0.06-0.07 0.05-0.08 0.05-0.07 0.04-0.08 0.04-0.09 0.03-0.09 0.02-0.09 0.02-0.09 0.01h-0.1c-0.84 0-1.75-0.8-1.75-1.25 0-0.33 0.26-0.45 0.46-0.45 0.21 0 0.34 0.16 0.36 0.18-0.03 0.04-0.09 0.12-0.09 0.26 0 0.09 0.18 0.96 1.04 0.96 0.72 0 0.87-0.93 0.87-1.73 0-0.61-0.09-1.15-0.09-1.16h-0.01c0 0.01-0.38 0.62-1.17 0.62-1.99 0-2.82-1.93-2.82-2.96 0-0.93 0.55-1.52 1.65-1.52l0.07 0.24c-0.56 0-0.82 0.31-0.82 0.95 0 0.63 0.41 3.05 1.85 3.05 0.56 0 0.83-0.33 0.83-0.92 0-0.26-0.26-3.08-1.86-3.08l-0.07-0.24c1.72 0 3.06 1.74 3.06 4.45z"/><path id="path5032" d="m157.78 696.61h2v0.15c-0.31 0-0.51 0.16-0.82 0.6l-1.27 1.96 0.83 1.19c0.19 0.27 0.49 0.43 0.8 0.44v0.15h-1.57v-0.15c0.3-0.02 0.4-0.08 0.4-0.22 0-0.12-0.12-0.34-0.37-0.65-0.05-0.06-0.17-0.24-0.3-0.44l-0.14 0.2c-0.28 0.42-0.46 0.76-0.46 0.89 0 0.14 0.13 0.21 0.43 0.22v0.15h-2.06v-0.15h0.09c0.3 0 0.46-0.13 0.77-0.6l0.93-1.43-1.13-1.65c-0.3-0.41-0.4-0.48-0.73-0.51v-0.15h1.44v0.15c-0.27 0-0.39 0.05-0.39 0.18 0 0.06 0.06 0.21 0.2 0.41l0.78 1.23 0.91-1.4c0.04-0.06 0.06-0.12 0.06-0.18 0-0.18-0.07-0.22-0.4-0.24z"/><path id="path5034" d="m164.12 710.18-0.07-0.04-0.06-0.05-0.07-0.04-0.06-0.04-0.05-0.04-0.06-0.04-0.06-0.03-0.05-0.04-0.05-0.04-0.05-0.03-0.04-0.04-0.05-0.04-0.04-0.03-0.05-0.03-0.08-0.07-0.08-0.07-0.07-0.07-0.07-0.07-0.07-0.07-0.07-0.07-0.07-0.08-0.06-0.08-0.07-0.08c-0.71-0.87-1.06-1.87-1.06-3.03 0-1.27 0.37-2.24 1.25-3.26 0.4-0.48 0.66-0.7 1.18-1.02l0.12 0.16c-0.8 0.63-1.08 0.98-1.34 1.73-0.24 0.66-0.35 1.42-0.35 2.42 0 1.04 0.13 1.86 0.4 2.48 0.28 0.62 0.57 0.98 1.29 1.55z"/><path id="path5036" d="m167.27 703.45h2.01v0.15c-0.31 0-0.51 0.16-0.82 0.6l-1.28 1.95 0.83 1.19c0.19 0.27 0.49 0.43 0.81 0.44v0.15h-1.58v-0.15c0.3-0.02 0.4-0.08 0.4-0.22 0-0.12-0.12-0.34-0.37-0.65-0.04-0.06-0.17-0.24-0.29-0.43l-0.14 0.19c-0.28 0.42-0.46 0.76-0.46 0.89 0 0.14 0.13 0.21 0.43 0.22v0.15h-2.07v-0.15h0.09c0.3 0 0.46-0.13 0.77-0.6l0.94-1.43-1.14-1.65c-0.3-0.4-0.4-0.47-0.73-0.5v-0.15h1.45v0.15c-0.28 0-0.4 0.05-0.4 0.18 0 0.06 0.07 0.21 0.2 0.4l0.79 1.23 0.9-1.39c0.04-0.06 0.06-0.12 0.06-0.18 0-0.18-0.07-0.22-0.4-0.24z"/><path id="path5038" d="m171.26 706.67h-0.04-0.03-0.04l-0.03-0.01h-0.04-0.03l-0.03-0.01h-0.04l-0.03-0.01-0.03-0.01h-0.03l-0.03-0.01-0.03-0.01-0.03-0.01-0.03-0.01-0.03-0.01-0.03-0.01-0.02-0.01-0.03-0.02-0.03-0.01-0.03-0.02-0.02-0.01-0.03-0.02-0.03-0.01-0.02-0.02-0.03-0.02-0.02-0.02-0.03-0.02-0.02-0.02-0.03-0.02-0.02-0.02-0.03-0.02c-0.4-0.39-0.67-1.2-0.67-2.01 0-0.76 0.23-1.58 0.56-1.97 0.26-0.3 0.61-0.47 1.02-0.47v0.18c-0.6 0-0.91 0.74-0.91 2.19 0 1.48 0.32 2.26 0.92 2.26 0.58 0 0.89-0.79 0.89-2.25s-0.3-2.2-0.9-2.2v-0.18c0.35 0 0.65 0.12 0.9 0.36 0.41 0.38 0.67 1.19 0.67 2.04 0 1.43-0.63 2.41-1.54 2.41z"/><path id="path5040" d="m175.41 703.51v0.04 0.03 0.04l-0.01 0.03v0.04 0.03l-0.01 0.03-0.01 0.04v0.03l-0.01 0.03-0.01 0.02v0.03l-0.01 0.03-0.01 0.03-0.01 0.02-0.01 0.03-0.01 0.02-0.02 0.02-0.02 0.05-0.03 0.04-0.02 0.03-0.03 0.04-0.03 0.03-0.04 0.03-0.03 0.03-0.03 0.02-0.03 0.02-0.04 0.02-0.03 0.02-0.03 0.01-0.04 0.02-0.03 0.01-0.03 0.01-0.04 0.01-0.03 0.01h-0.03l-0.03 0.01h-0.02-0.03-0.02-0.03c-0.25 0-0.58-0.15-0.58-0.57 0-0.4 0.36-0.5 0.62-0.5 0.07 0 0.12 0.01 0.15 0.02 0.04 0.01 0.07 0.02 0.09 0.02 0.07 0 0.14-0.05 0.14-0.14 0-0.19-0.16-0.64-0.81-1.06l0.08-0.19c0.3 0.1 1.12 0.76 1.12 1.47z"/><path id="path5042" d="m182.35 707.93h-1.34v-0.15c0.32 0 0.48-0.09 0.48-0.25 0-0.04-0.01-0.1-0.04-0.17l-0.97-2.75-1.14 2.52c-0.06 0.14-0.1 0.27-0.1 0.38 0 0.18 0.15 0.25 0.57 0.27v0.15h-2.05v-0.14c0.26-0.04 0.43-0.15 0.51-0.32l1.14-2.45 0.03-0.08 0.15-0.3c0.27-0.49 0.43-0.85 0.43-1s-0.23-0.78-0.4-1.08c-0.13-0.26-0.35-0.45-0.49-0.45-0.06 0-0.15 0.02-0.25 0.07-0.19 0.07-0.36 0.11-0.53 0.11-0.23 0-0.43-0.2-0.43-0.44 0-0.32 0.32-0.57 0.74-0.57 0.67 0 1.14 0.55 1.68 1.99l1.54 4.06c0.13 0.32 0.24 0.42 0.47 0.45z"/><path id="path5044" d="m184.37 706.67h-0.03-0.04-0.03l-0.04-0.01h-0.03-0.03l-0.04-0.01h-0.03l-0.03-0.01-0.03-0.01h-0.03l-0.03-0.01-0.03-0.01-0.03-0.01-0.03-0.01-0.03-0.01-0.03-0.01-0.03-0.01-0.03-0.02-0.02-0.01-0.03-0.02-0.03-0.01-0.02-0.02-0.03-0.01-0.03-0.02-0.02-0.02-0.03-0.02-0.02-0.02-0.03-0.02-0.02-0.02-0.03-0.02-0.02-0.02c-0.4-0.39-0.67-1.2-0.67-2.01 0-0.76 0.23-1.58 0.56-1.97 0.26-0.3 0.61-0.47 1.02-0.47v0.18c-0.6 0-0.91 0.74-0.91 2.19 0 1.48 0.31 2.26 0.91 2.26 0.59 0 0.9-0.79 0.9-2.25s-0.3-2.2-0.9-2.2v-0.18c0.35 0 0.65 0.12 0.9 0.36 0.41 0.38 0.67 1.19 0.67 2.04 0 1.43-0.63 2.41-1.55 2.41z"/><path id="path5046" d="m186.96 701.68 0.07 0.05 0.07 0.04 0.06 0.04 0.06 0.04 0.06 0.04 0.06 0.04 0.05 0.04 0.05 0.04 0.05 0.03 0.05 0.04 0.05 0.04 0.05 0.03 0.04 0.04 0.04 0.03 0.08 0.07 0.08 0.07 0.08 0.07 0.07 0.07 0.07 0.07 0.06 0.07 0.07 0.08 0.07 0.08 0.07 0.08c0.71 0.87 1.05 1.86 1.05 3.03 0 1.27-0.36 2.24-1.24 3.26-0.41 0.47-0.67 0.69-1.19 1.01l-0.12-0.16c0.8-0.62 1.07-0.97 1.35-1.72 0.24-0.67 0.35-1.42 0.35-2.42 0-1.04-0.13-1.86-0.4-2.47-0.28-0.63-0.58-0.99-1.3-1.57z"/></g></g>
 </g>
 <text id="text5105" style="word-spacing:0px;letter-spacing:0px" xml:space="preserve" font-size="16px" line-height="125%" y="170.77563" x="37.275028" font-family="&apos;STIX Two Text&apos;" fill="#000000"><tspan id="tspan5107" x="37.275028" y="170.77563">S</tspan></text>
</svg>
