<?xml version="1.0" encoding="UTF-8" standalone="no"?>
<!-- Created with Inkscape (http://www.inkscape.org/) -->
<svg id="svg4222" xmlns:rdf="http://www.w3.org/1999/02/22-rdf-syntax-ns#" xmlns="http://www.w3.org/2000/svg" xmlns:ns0="http://www.iki.fi/pav/software/textext/" height="215.99" viewBox="0 0 263.6308 215.99255" width="263.63" version="1.1" xmlns:cc="http://creativecommons.org/ns#" xmlns:dc="http://purl.org/dc/elements/1.1/">
 <style type="text/css">
	 @import url('../estilo.css');
 </style>
 <metadata id="metadata4228">
  <rdf:RDF>
   <cc:Work rdf:about="">
    <dc:format>image/svg+xml</dc:format>
    <dc:type rdf:resource="http://purl.org/dc/dcmitype/StillImage"/>
    <dc:title/>
   </cc:Work>
  </rdf:RDF>
 </metadata>
 <defs id="defs4226">
  <marker id="marker4462" refY="0" refX="0" overflow="visible" orient="auto">
   <path id="path4348" d="m5.77 0-8.65 5v-10l8.65 5z" fill-rule="evenodd" transform="scale(.8)" stroke="#f00" stroke-width="1pt" fill="#f00"/>
  </marker>
  <marker id="marker4558" refY="0" refX="0" overflow="visible" orient="auto">
   <path id="path4560" d="m5.77 0-8.65 5v-10l8.65 5z" fill-rule="evenodd" transform="scale(.8)" stroke="#000" stroke-width="1pt"/>
  </marker>
  <marker id="marker4545" refY="0" refX="0" overflow="visible" orient="auto">
   <path id="path4431" d="m5.77 0-8.65 5v-10l8.65 5z" fill-rule="evenodd" transform="scale(.8)" stroke="#000" stroke-width="1pt"/>
  </marker>
 </defs>
 <path id="path4237" d="m5.0891 75.499c47.542 8.61 67.083-67.37 115-70 6.3533 39.407 20.409 77.629 40 115-46.031-2.3294-70.716 81.027-125 90-13.56-50.18-26.86-92.82-30.001-135z" fill="#ffff80"/>
 <path id="rect4234" d="m5.0891 75.499c47.542 8.61 67.083-67.37 115-70m40 115c-46.031-2.3294-70.716 81.027-125 90" stroke="#000" fill="none"/>
 <path id="path4200" marker-end="url(#marker4462)" d="m101.09 65.499-16-25" stroke="#f00" stroke-width="1px" fill="none"/>
 <circle id="path4246" cx="101.09" cy="65.499" r="2.4833"/>
 <path id="path4248" marker-end="url(#marker4545)" d="m101.09 65.499v30" stroke="#000" stroke-width="1px" fill="none"/>
 <path id="path4746" marker-end="url(#marker4558)" d="m101.09 65.499-41 19.568" stroke="#000" stroke-width="1px" fill="none"/>
 <g>
  <text id="text5105" style="word-spacing:0px;letter-spacing:0px" font-size="16px" line-height="125%" y="170.77563" x="37.275028" font-family="&apos;STIX Two Text&apos;" xml:space="preserve" fill="#000000"><tspan id="tspan5107" y="170.77563" x="37.275028">S</tspan></text>
  <g id="content" xml:space="preserve" stroke="#000" fill-rule="evenodd" ns0:pdfconverter="pstoedit" transform="matrix(1.75 0 0 -1.75 -248.9 1338.8)" stroke-miterlimit="10.433" ns0:text="$\n\\rm\n\\dfrac{\\partial f}{\\partial x}(x_0,y_0)\n$" ns0:version="0.7.2" ns0:inkscapeversion="0.91" ns0:preamble="/usr/share/inkscape/extensions/default_packages.tex" ns0:scale="1.4" ns0:texconverter="pdflatex"><path id="path7624" stroke-width="0" d="m155.39 714.49v0.13l-0.01 0.14v0.13l-0.01 0.12-0.01 0.13-0.02 0.12-0.02 0.12-0.02 0.12-0.02 0.12-0.03 0.11-0.02 0.11-0.04 0.1-0.03 0.11-0.04 0.09-0.04 0.1-0.04 0.09-0.05 0.09-0.05 0.08-0.06 0.07-0.05 0.08-0.06 0.07-0.07 0.06-0.06 0.06-0.07 0.05-0.08 0.04-0.08 0.04-0.08 0.04-0.08 0.03-0.09 0.02-0.09 0.02-0.1 0.01h-0.09c-0.84 0-1.75-0.8-1.75-1.24 0-0.33 0.26-0.46 0.46-0.46 0.21 0 0.34 0.16 0.36 0.19-0.03 0.03-0.09 0.12-0.09 0.26 0 0.09 0.18 0.95 1.04 0.95 0.71 0 0.87-0.92 0.87-1.73 0-0.61-0.09-1.15-0.09-1.16h-0.01c0 0.01-0.39 0.62-1.17 0.62-2 0-2.82-1.93-2.82-2.96 0-0.92 0.55-1.52 1.65-1.52l0.07 0.24c-0.57 0-0.83 0.32-0.83 0.95s0.42 3.05 1.86 3.05c0.55 0 0.82-0.33 0.82-0.91 0-0.26-0.26-3.09-1.85-3.09l-0.07-0.24c1.71 0 3.06 1.74 3.06 4.45z"/><path id="path7626" stroke-width="0" d="m158.67 714.68h-1.22v1.16c0 0.57 0.19 0.88 0.57 0.88 0.21 0 0.35-0.1 0.52-0.39 0.16-0.25 0.28-0.35 0.45-0.35 0.23 0 0.42 0.18 0.42 0.4 0 0.36-0.44 0.62-1.03 0.62-0.62 0-1.15-0.27-1.41-0.72-0.26-0.44-0.34-0.8-0.35-1.6h-0.82v-0.32h0.82v-3.13c0-0.72-0.11-0.84-0.83-0.88v-0.15h2.59v0.15c-0.81 0.03-0.92 0.14-0.92 0.88v3.13h1.21z"/><line id="line7628" stroke="#000" y1="706.01" y2="706.01" stroke-width="0.558" x2="159.99" x1="149.91"/><g stroke-width="0"><path id="path7630" d="m154.81 700.91v0.13 0.13l-0.01 0.13-0.01 0.13-0.01 0.13-0.02 0.12-0.01 0.12-0.02 0.12-0.03 0.12-0.02 0.11-0.03 0.11-0.03 0.1-0.04 0.1-0.04 0.1-0.04 0.1-0.04 0.09-0.05 0.08-0.05 0.08-0.05 0.08-0.06 0.07-0.06 0.07-0.06 0.06-0.07 0.06-0.07 0.05-0.08 0.05-0.07 0.04-0.08 0.04-0.09 0.03-0.09 0.02-0.09 0.02-0.09 0.01h-0.1c-0.84 0-1.75-0.8-1.75-1.25 0-0.33 0.26-0.45 0.46-0.45 0.21 0 0.34 0.16 0.36 0.18-0.03 0.04-0.09 0.12-0.09 0.26 0 0.09 0.18 0.96 1.04 0.96 0.72 0 0.87-0.93 0.87-1.73 0-0.61-0.09-1.15-0.09-1.16h-0.01c0 0.01-0.38 0.62-1.17 0.62-1.99 0-2.82-1.93-2.82-2.96 0-0.93 0.55-1.52 1.65-1.52l0.07 0.24c-0.56 0-0.82 0.31-0.82 0.95 0 0.63 0.41 3.05 1.85 3.05 0.56 0 0.83-0.33 0.83-0.92 0-0.26-0.26-3.08-1.86-3.08l-0.07-0.24c1.72 0 3.06 1.74 3.06 4.45z"/><path id="path7632" d="m157.78 696.61h2v0.15c-0.31 0-0.51 0.16-0.82 0.6l-1.27 1.96 0.83 1.19c0.19 0.27 0.49 0.43 0.8 0.44v0.15h-1.57v-0.15c0.3-0.02 0.4-0.08 0.4-0.22 0-0.12-0.12-0.34-0.37-0.65-0.05-0.06-0.17-0.24-0.3-0.44l-0.14 0.2c-0.28 0.42-0.46 0.76-0.46 0.89 0 0.14 0.13 0.21 0.43 0.22v0.15h-2.06v-0.15h0.09c0.3 0 0.46-0.13 0.77-0.6l0.93-1.43-1.13-1.65c-0.3-0.41-0.4-0.48-0.73-0.51v-0.15h1.44v0.15c-0.27 0-0.39 0.05-0.39 0.18 0 0.06 0.06 0.21 0.2 0.41l0.78 1.23 0.91-1.4c0.04-0.06 0.06-0.12 0.06-0.18 0-0.18-0.07-0.22-0.4-0.24z"/><path id="path7634" d="m164.12 710.18-0.07-0.04-0.06-0.05-0.07-0.04-0.06-0.04-0.05-0.04-0.06-0.04-0.06-0.03-0.05-0.04-0.05-0.04-0.05-0.03-0.04-0.04-0.05-0.04-0.04-0.03-0.05-0.03-0.08-0.07-0.08-0.07-0.07-0.07-0.07-0.07-0.07-0.07-0.07-0.07-0.07-0.08-0.06-0.08-0.07-0.08c-0.71-0.87-1.06-1.87-1.06-3.03 0-1.27 0.37-2.24 1.25-3.26 0.4-0.48 0.66-0.7 1.18-1.02l0.12 0.16c-0.8 0.63-1.08 0.98-1.34 1.73-0.24 0.66-0.35 1.42-0.35 2.42 0 1.04 0.13 1.86 0.4 2.48 0.28 0.62 0.57 0.98 1.29 1.55z"/><path id="path7636" d="m167.27 703.45h2.01v0.15c-0.31 0-0.51 0.16-0.82 0.6l-1.28 1.95 0.83 1.19c0.19 0.27 0.49 0.43 0.81 0.44v0.15h-1.58v-0.15c0.3-0.02 0.4-0.08 0.4-0.22 0-0.12-0.12-0.34-0.37-0.65-0.04-0.06-0.17-0.24-0.29-0.43l-0.14 0.19c-0.28 0.42-0.46 0.76-0.46 0.89 0 0.14 0.13 0.21 0.43 0.22v0.15h-2.07v-0.15h0.09c0.3 0 0.46-0.13 0.77-0.6l0.94-1.43-1.14-1.65c-0.3-0.4-0.4-0.47-0.73-0.5v-0.15h1.45v0.15c-0.28 0-0.4 0.05-0.4 0.18 0 0.06 0.07 0.21 0.2 0.4l0.79 1.23 0.9-1.39c0.04-0.06 0.06-0.12 0.06-0.18 0-0.18-0.07-0.22-0.4-0.24z"/><path id="path7638" d="m171.26 706.67h-0.04-0.03-0.04l-0.03-0.01h-0.04-0.03l-0.03-0.01h-0.04l-0.03-0.01-0.03-0.01h-0.03l-0.03-0.01-0.03-0.01-0.03-0.01-0.03-0.01-0.03-0.01-0.03-0.01-0.02-0.01-0.03-0.02-0.03-0.01-0.03-0.02-0.02-0.01-0.03-0.02-0.03-0.01-0.02-0.02-0.03-0.02-0.02-0.02-0.03-0.02-0.02-0.02-0.03-0.02-0.02-0.02-0.03-0.02c-0.4-0.39-0.67-1.2-0.67-2.01 0-0.76 0.23-1.58 0.56-1.97 0.26-0.3 0.61-0.47 1.02-0.47v0.18c-0.6 0-0.91 0.74-0.91 2.19 0 1.48 0.32 2.26 0.92 2.26 0.58 0 0.89-0.79 0.89-2.25s-0.3-2.2-0.9-2.2v-0.18c0.35 0 0.65 0.12 0.9 0.36 0.41 0.38 0.67 1.19 0.67 2.04 0 1.43-0.63 2.41-1.54 2.41z"/><path id="path7640" d="m175.41 703.51v0.04 0.03 0.04l-0.01 0.03v0.04 0.03l-0.01 0.03-0.01 0.04v0.03l-0.01 0.03-0.01 0.02v0.03l-0.01 0.03-0.01 0.03-0.01 0.02-0.01 0.03-0.01 0.02-0.02 0.02-0.02 0.05-0.03 0.04-0.02 0.03-0.03 0.04-0.03 0.03-0.04 0.03-0.03 0.03-0.03 0.02-0.03 0.02-0.04 0.02-0.03 0.02-0.03 0.01-0.04 0.02-0.03 0.01-0.03 0.01-0.04 0.01-0.03 0.01h-0.03l-0.03 0.01h-0.02-0.03-0.02-0.03c-0.25 0-0.58-0.15-0.58-0.57 0-0.4 0.36-0.5 0.62-0.5 0.07 0 0.12 0.01 0.15 0.02 0.04 0.01 0.07 0.02 0.09 0.02 0.07 0 0.14-0.05 0.14-0.14 0-0.19-0.16-0.64-0.81-1.06l0.08-0.19c0.3 0.1 1.12 0.76 1.12 1.47z"/><path id="path7642" d="m182.35 707.93h-1.34v-0.15c0.32 0 0.48-0.09 0.48-0.25 0-0.04-0.01-0.1-0.04-0.17l-0.97-2.75-1.14 2.52c-0.06 0.14-0.1 0.27-0.1 0.38 0 0.18 0.15 0.25 0.57 0.27v0.15h-2.05v-0.14c0.26-0.04 0.43-0.15 0.51-0.32l1.14-2.45 0.03-0.08 0.15-0.3c0.27-0.49 0.43-0.85 0.43-1s-0.23-0.78-0.4-1.08c-0.13-0.26-0.35-0.45-0.49-0.45-0.06 0-0.15 0.02-0.25 0.07-0.19 0.07-0.36 0.11-0.53 0.11-0.23 0-0.43-0.2-0.43-0.44 0-0.32 0.32-0.57 0.74-0.57 0.67 0 1.14 0.55 1.68 1.99l1.54 4.06c0.13 0.32 0.24 0.42 0.47 0.45z"/><path id="path7644" d="m184.37 706.67h-0.03-0.04-0.03l-0.04-0.01h-0.03-0.03l-0.04-0.01h-0.03l-0.03-0.01-0.03-0.01h-0.03l-0.03-0.01-0.03-0.01-0.03-0.01-0.03-0.01-0.03-0.01-0.03-0.01-0.03-0.01-0.03-0.02-0.02-0.01-0.03-0.02-0.03-0.01-0.02-0.02-0.03-0.01-0.03-0.02-0.02-0.02-0.03-0.02-0.02-0.02-0.03-0.02-0.02-0.02-0.03-0.02-0.02-0.02c-0.4-0.39-0.67-1.2-0.67-2.01 0-0.76 0.23-1.58 0.56-1.97 0.26-0.3 0.61-0.47 1.02-0.47v0.18c-0.6 0-0.91 0.74-0.91 2.19 0 1.48 0.31 2.26 0.91 2.26 0.59 0 0.9-0.79 0.9-2.25s-0.3-2.2-0.9-2.2v-0.18c0.35 0 0.65 0.12 0.9 0.36 0.41 0.38 0.67 1.19 0.67 2.04 0 1.43-0.63 2.41-1.55 2.41z"/><path id="path7646" d="m186.96 701.68 0.07 0.05 0.07 0.04 0.06 0.04 0.06 0.04 0.06 0.04 0.06 0.04 0.05 0.04 0.05 0.04 0.05 0.03 0.05 0.04 0.05 0.04 0.05 0.03 0.04 0.04 0.04 0.03 0.08 0.07 0.08 0.07 0.08 0.07 0.07 0.07 0.07 0.07 0.06 0.07 0.07 0.08 0.07 0.08 0.07 0.08c0.71 0.87 1.05 1.86 1.05 3.03 0 1.27-0.36 2.24-1.24 3.26-0.41 0.47-0.67 0.69-1.19 1.01l-0.12-0.16c0.8-0.62 1.07-0.97 1.35-1.72 0.24-0.67 0.35-1.42 0.35-2.42 0-1.04-0.13-1.86-0.4-2.47-0.28-0.63-0.58-0.99-1.3-1.57z"/></g></g>
  <g id="g7743" xml:space="preserve" stroke="#000" fill-rule="evenodd" ns0:pdfconverter="pstoedit" transform="matrix(1.75 0 0 -1.75 -153.94 1341.8)" stroke-miterlimit="10.433" ns0:text="$\n\\rm\n\\dfrac{\\partial f}{\\partial y}(x_0,y_0)\n$" ns0:version="0.7.2" ns0:inkscapeversion="0.91" ns0:preamble="/usr/share/inkscape/extensions/default_packages.tex" ns0:scale="1.4" ns0:texconverter="pdflatex"><path id="path7745" stroke-width="0" d="m155.39 714.49v0.13l-0.01 0.14v0.13l-0.01 0.12-0.01 0.13-0.02 0.12-0.02 0.12-0.02 0.12-0.02 0.12-0.03 0.11-0.02 0.11-0.04 0.1-0.03 0.11-0.04 0.09-0.04 0.1-0.04 0.09-0.05 0.09-0.05 0.08-0.06 0.07-0.05 0.08-0.06 0.07-0.07 0.06-0.06 0.06-0.07 0.05-0.08 0.04-0.08 0.04-0.08 0.04-0.08 0.03-0.09 0.02-0.09 0.02-0.1 0.01h-0.09c-0.84 0-1.75-0.8-1.75-1.24 0-0.33 0.26-0.46 0.46-0.46 0.21 0 0.34 0.16 0.36 0.19-0.03 0.03-0.09 0.12-0.09 0.26 0 0.09 0.18 0.95 1.04 0.95 0.71 0 0.87-0.92 0.87-1.73 0-0.61-0.09-1.15-0.09-1.16h-0.01c0 0.01-0.39 0.62-1.17 0.62-2 0-2.82-1.93-2.82-2.96 0-0.92 0.55-1.52 1.65-1.52l0.07 0.24c-0.57 0-0.83 0.32-0.83 0.95s0.42 3.05 1.86 3.05c0.55 0 0.82-0.33 0.82-0.91 0-0.26-0.26-3.09-1.85-3.09l-0.07-0.24c1.71 0 3.06 1.74 3.06 4.45z"/><path id="path7747" stroke-width="0" d="m158.67 714.68h-1.22v1.16c0 0.57 0.19 0.88 0.57 0.88 0.21 0 0.35-0.1 0.52-0.39 0.16-0.25 0.28-0.35 0.45-0.35 0.23 0 0.42 0.18 0.42 0.4 0 0.36-0.44 0.62-1.03 0.62-0.62 0-1.15-0.27-1.41-0.72-0.26-0.44-0.34-0.8-0.35-1.6h-0.82v-0.32h0.82v-3.13c0-0.72-0.11-0.84-0.83-0.88v-0.15h2.59v0.15c-0.81 0.03-0.92 0.14-0.92 0.88v3.13h1.21z"/><line id="line7749" stroke="#000" y1="706.01" y2="706.01" stroke-width="0.558" x2="159.99" x1="149.91"/><g stroke-width="0"><path id="path7751" d="m154.81 700.91v0.13 0.13l-0.01 0.13-0.01 0.13-0.01 0.13-0.02 0.12-0.01 0.12-0.02 0.12-0.03 0.12-0.02 0.11-0.03 0.11-0.03 0.1-0.04 0.1-0.04 0.1-0.04 0.1-0.04 0.09-0.05 0.08-0.05 0.08-0.05 0.08-0.06 0.07-0.06 0.07-0.06 0.06-0.07 0.06-0.07 0.05-0.08 0.05-0.07 0.04-0.08 0.04-0.09 0.03-0.09 0.02-0.09 0.02-0.09 0.01h-0.1c-0.84 0-1.75-0.8-1.75-1.25 0-0.33 0.26-0.45 0.46-0.45 0.21 0 0.34 0.16 0.36 0.18-0.03 0.04-0.09 0.12-0.09 0.26 0 0.09 0.18 0.96 1.04 0.96 0.72 0 0.87-0.93 0.87-1.73 0-0.61-0.09-1.15-0.09-1.16h-0.01c0 0.01-0.38 0.62-1.17 0.62-1.99 0-2.82-1.93-2.82-2.96 0-0.93 0.55-1.52 1.65-1.52l0.07 0.24c-0.56 0-0.82 0.31-0.82 0.95 0 0.63 0.41 3.05 1.85 3.05 0.56 0 0.83-0.33 0.83-0.92 0-0.26-0.26-3.08-1.86-3.08l-0.07-0.24c1.72 0 3.06 1.74 3.06 4.45z"/><path id="path7753" d="m159.74 701.1h-1.34v-0.15c0.32 0 0.48-0.09 0.48-0.25 0-0.04-0.01-0.1-0.04-0.17l-0.97-2.75-1.15 2.52c-0.06 0.14-0.1 0.27-0.1 0.38 0 0.18 0.15 0.25 0.58 0.27v0.15h-2.05v-0.14c0.26-0.04 0.43-0.15 0.51-0.32l1.13-2.45 0.03-0.08 0.15-0.3c0.28-0.5 0.44-0.86 0.44-1.01 0-0.14-0.23-0.77-0.4-1.07-0.14-0.26-0.36-0.45-0.5-0.45-0.05 0-0.14 0.02-0.25 0.07-0.18 0.07-0.35 0.11-0.52 0.11-0.23 0-0.43-0.2-0.43-0.44 0-0.33 0.32-0.58 0.74-0.58 0.66 0 1.14 0.56 1.68 2l1.53 4.06c0.13 0.32 0.24 0.42 0.48 0.45z"/><path id="path7755" d="m164.12 710.18-0.07-0.04-0.06-0.05-0.07-0.04-0.06-0.04-0.05-0.04-0.06-0.04-0.06-0.03-0.05-0.04-0.05-0.04-0.05-0.03-0.04-0.04-0.05-0.04-0.04-0.03-0.05-0.03-0.08-0.07-0.08-0.07-0.07-0.07-0.07-0.07-0.07-0.07-0.07-0.07-0.07-0.08-0.06-0.08-0.07-0.08c-0.71-0.87-1.06-1.87-1.06-3.03 0-1.27 0.37-2.24 1.25-3.26 0.4-0.48 0.66-0.7 1.18-1.02l0.12 0.16c-0.8 0.63-1.08 0.98-1.34 1.73-0.24 0.66-0.35 1.42-0.35 2.42 0 1.04 0.13 1.86 0.4 2.48 0.28 0.62 0.57 0.98 1.29 1.55z"/><path id="path7757" d="m167.27 703.45h2.01v0.15c-0.31 0-0.51 0.16-0.82 0.6l-1.28 1.95 0.83 1.19c0.19 0.27 0.49 0.43 0.81 0.44v0.15h-1.58v-0.15c0.3-0.02 0.4-0.08 0.4-0.22 0-0.12-0.12-0.34-0.37-0.65-0.04-0.06-0.17-0.24-0.29-0.43l-0.14 0.19c-0.28 0.42-0.46 0.76-0.46 0.89 0 0.14 0.13 0.21 0.43 0.22v0.15h-2.07v-0.15h0.09c0.3 0 0.46-0.13 0.77-0.6l0.94-1.43-1.14-1.65c-0.3-0.4-0.4-0.47-0.73-0.5v-0.15h1.45v0.15c-0.28 0-0.4 0.05-0.4 0.18 0 0.06 0.07 0.21 0.2 0.4l0.79 1.23 0.9-1.39c0.04-0.06 0.06-0.12 0.06-0.18 0-0.18-0.07-0.22-0.4-0.24z"/><path id="path7759" d="m171.26 706.67h-0.04-0.03-0.04l-0.03-0.01h-0.04-0.03l-0.03-0.01h-0.04l-0.03-0.01-0.03-0.01h-0.03l-0.03-0.01-0.03-0.01-0.03-0.01-0.03-0.01-0.03-0.01-0.03-0.01-0.02-0.01-0.03-0.02-0.03-0.01-0.03-0.02-0.02-0.01-0.03-0.02-0.03-0.01-0.02-0.02-0.03-0.02-0.02-0.02-0.03-0.02-0.02-0.02-0.03-0.02-0.02-0.02-0.03-0.02c-0.4-0.39-0.67-1.2-0.67-2.01 0-0.76 0.23-1.58 0.56-1.97 0.26-0.3 0.61-0.47 1.02-0.47v0.18c-0.6 0-0.91 0.74-0.91 2.19 0 1.48 0.32 2.26 0.92 2.26 0.58 0 0.89-0.79 0.89-2.25s-0.3-2.2-0.9-2.2v-0.18c0.35 0 0.65 0.12 0.9 0.36 0.41 0.38 0.67 1.19 0.67 2.04 0 1.43-0.63 2.41-1.54 2.41z"/><path id="path7761" d="m175.41 703.51v0.04 0.03 0.04l-0.01 0.03v0.04 0.03l-0.01 0.03-0.01 0.04v0.03l-0.01 0.03-0.01 0.02v0.03l-0.01 0.03-0.01 0.03-0.01 0.02-0.01 0.03-0.01 0.02-0.02 0.02-0.02 0.05-0.03 0.04-0.02 0.03-0.03 0.04-0.03 0.03-0.04 0.03-0.03 0.03-0.03 0.02-0.03 0.02-0.04 0.02-0.03 0.02-0.03 0.01-0.04 0.02-0.03 0.01-0.03 0.01-0.04 0.01-0.03 0.01h-0.03l-0.03 0.01h-0.02-0.03-0.02-0.03c-0.25 0-0.58-0.15-0.58-0.57 0-0.4 0.36-0.5 0.62-0.5 0.07 0 0.12 0.01 0.15 0.02 0.04 0.01 0.07 0.02 0.09 0.02 0.07 0 0.14-0.05 0.14-0.14 0-0.19-0.16-0.64-0.81-1.06l0.08-0.19c0.3 0.1 1.12 0.76 1.12 1.47z"/><path id="path7763" d="m182.35 707.93h-1.34v-0.15c0.32 0 0.48-0.09 0.48-0.25 0-0.04-0.01-0.1-0.04-0.17l-0.97-2.75-1.14 2.52c-0.06 0.14-0.1 0.27-0.1 0.38 0 0.18 0.15 0.25 0.57 0.27v0.15h-2.05v-0.14c0.26-0.04 0.43-0.15 0.51-0.32l1.14-2.45 0.03-0.08 0.15-0.3c0.27-0.49 0.43-0.85 0.43-1s-0.23-0.78-0.4-1.08c-0.13-0.26-0.35-0.45-0.49-0.45-0.06 0-0.15 0.02-0.25 0.07-0.19 0.07-0.36 0.11-0.53 0.11-0.23 0-0.43-0.2-0.43-0.44 0-0.32 0.32-0.57 0.74-0.57 0.67 0 1.14 0.55 1.68 1.99l1.54 4.06c0.13 0.32 0.24 0.42 0.47 0.45z"/><path id="path7765" d="m184.37 706.67h-0.03-0.04-0.03l-0.04-0.01h-0.03-0.03l-0.04-0.01h-0.03l-0.03-0.01-0.03-0.01h-0.03l-0.03-0.01-0.03-0.01-0.03-0.01-0.03-0.01-0.03-0.01-0.03-0.01-0.03-0.01-0.03-0.02-0.02-0.01-0.03-0.02-0.03-0.01-0.02-0.02-0.03-0.01-0.03-0.02-0.02-0.02-0.03-0.02-0.02-0.02-0.03-0.02-0.02-0.02-0.03-0.02-0.02-0.02c-0.4-0.39-0.67-1.2-0.67-2.01 0-0.76 0.23-1.58 0.56-1.97 0.26-0.3 0.61-0.47 1.02-0.47v0.18c-0.6 0-0.91 0.74-0.91 2.19 0 1.48 0.31 2.26 0.91 2.26 0.59 0 0.9-0.79 0.9-2.25s-0.3-2.2-0.9-2.2v-0.18c0.35 0 0.65 0.12 0.9 0.36 0.41 0.38 0.67 1.19 0.67 2.04 0 1.43-0.63 2.41-1.55 2.41z"/><path id="path7767" d="m186.96 701.68 0.07 0.05 0.07 0.04 0.06 0.04 0.06 0.04 0.06 0.04 0.06 0.04 0.05 0.04 0.05 0.04 0.05 0.03 0.05 0.04 0.05 0.04 0.05 0.03 0.04 0.04 0.04 0.03 0.08 0.07 0.08 0.07 0.08 0.07 0.07 0.07 0.07 0.07 0.06 0.07 0.07 0.08 0.07 0.08 0.07 0.08c0.71 0.87 1.05 1.86 1.05 3.03 0 1.27-0.36 2.24-1.24 3.26-0.41 0.47-0.67 0.69-1.19 1.01l-0.12-0.16c0.8-0.62 1.07-0.97 1.35-1.72 0.24-0.67 0.35-1.42 0.35-2.42 0-1.04-0.13-1.86-0.4-2.47-0.28-0.63-0.58-0.99-1.3-1.57z"/></g></g>
  <text id="text7822" style="word-spacing:0px;letter-spacing:0px" font-size="16px" line-height="125%" y="70.755249" x="105" font-family="&apos;STIX Two Text&apos;" xml:space="preserve" fill="#000000"><tspan id="tspan7824" y="70.755249" x="105">P</tspan></text>
  <g id="g9359" xml:space="preserve" stroke="#000" fill-rule="evenodd" ns0:pdfconverter="pstoedit" transform="matrix(1.75 0 0 -1.75 -163.78 1271.1)" stroke-miterlimit="10.433" ns0:text="$\n\\rm\n\\dfrac{\\partial f}{\\partial x}(x_0,y_0)\n\\times\n\\dfrac{\\partial f}{\\partial y}(x_0,y_0)\n$" ns0:version="0.7.2" ns0:inkscapeversion="0.91" ns0:preamble="/usr/share/inkscape/extensions/default_packages.tex" ns0:scale="1.4" ns0:texconverter="pdflatex"><path id="path9361" stroke-width="0" d="m155.39 714.49v0.13l-0.01 0.14v0.13l-0.01 0.12-0.01 0.13-0.02 0.12-0.02 0.12-0.02 0.12-0.02 0.12-0.03 0.11-0.02 0.11-0.04 0.1-0.03 0.11-0.04 0.09-0.04 0.1-0.04 0.09-0.05 0.09-0.05 0.08-0.06 0.07-0.05 0.08-0.06 0.07-0.07 0.06-0.06 0.06-0.07 0.05-0.08 0.04-0.08 0.04-0.08 0.04-0.08 0.03-0.09 0.02-0.09 0.02-0.1 0.01h-0.09c-0.84 0-1.75-0.8-1.75-1.24 0-0.33 0.26-0.46 0.46-0.46 0.21 0 0.34 0.16 0.36 0.19-0.03 0.03-0.09 0.12-0.09 0.26 0 0.09 0.18 0.95 1.04 0.95 0.71 0 0.87-0.92 0.87-1.73 0-0.61-0.09-1.15-0.09-1.16h-0.01c0 0.01-0.39 0.62-1.17 0.62-2 0-2.82-1.93-2.82-2.96 0-0.92 0.55-1.52 1.65-1.52l0.07 0.24c-0.57 0-0.83 0.32-0.83 0.95s0.42 3.05 1.86 3.05c0.55 0 0.82-0.33 0.82-0.91 0-0.26-0.26-3.09-1.85-3.09l-0.07-0.24c1.71 0 3.06 1.74 3.06 4.45z"/><path id="path9363" stroke-width="0" d="m158.67 714.68h-1.22v1.16c0 0.57 0.19 0.88 0.57 0.88 0.21 0 0.35-0.1 0.52-0.39 0.16-0.25 0.28-0.35 0.45-0.35 0.23 0 0.42 0.18 0.42 0.4 0 0.36-0.44 0.62-1.03 0.62-0.62 0-1.15-0.27-1.41-0.72-0.26-0.44-0.34-0.8-0.35-1.6h-0.82v-0.32h0.82v-3.13c0-0.72-0.11-0.84-0.83-0.88v-0.15h2.59v0.15c-0.81 0.03-0.92 0.14-0.92 0.88v3.13h1.21z"/><line id="line9365" stroke-width="0.558" y2="706.01" y1="706.01" x2="159.99" x1="149.91"/><g stroke-width="0"><path id="path9367" d="m154.81 700.91v0.13 0.13l-0.01 0.13-0.01 0.13-0.01 0.13-0.02 0.12-0.01 0.12-0.02 0.12-0.03 0.12-0.02 0.11-0.03 0.11-0.03 0.1-0.04 0.1-0.04 0.1-0.04 0.1-0.04 0.09-0.05 0.08-0.05 0.08-0.05 0.08-0.06 0.07-0.06 0.07-0.06 0.06-0.07 0.06-0.07 0.05-0.08 0.05-0.07 0.04-0.08 0.04-0.09 0.03-0.09 0.02-0.09 0.02-0.09 0.01h-0.1c-0.84 0-1.75-0.8-1.75-1.25 0-0.33 0.26-0.45 0.46-0.45 0.21 0 0.34 0.16 0.36 0.18-0.03 0.04-0.09 0.12-0.09 0.26 0 0.09 0.18 0.96 1.04 0.96 0.72 0 0.87-0.93 0.87-1.73 0-0.61-0.09-1.15-0.09-1.16h-0.01c0 0.01-0.38 0.62-1.17 0.62-1.99 0-2.82-1.93-2.82-2.96 0-0.93 0.55-1.52 1.65-1.52l0.07 0.24c-0.56 0-0.82 0.31-0.82 0.95 0 0.63 0.41 3.05 1.85 3.05 0.56 0 0.83-0.33 0.83-0.92 0-0.26-0.26-3.08-1.86-3.08l-0.07-0.24c1.72 0 3.06 1.74 3.06 4.45z"/><path id="path9369" d="m157.78 696.61h2v0.15c-0.31 0-0.51 0.16-0.82 0.6l-1.27 1.96 0.83 1.19c0.19 0.27 0.49 0.43 0.8 0.44v0.15h-1.57v-0.15c0.3-0.02 0.4-0.08 0.4-0.22 0-0.12-0.12-0.34-0.37-0.65-0.05-0.06-0.17-0.24-0.3-0.44l-0.14 0.2c-0.28 0.42-0.46 0.76-0.46 0.89 0 0.14 0.13 0.21 0.43 0.22v0.15h-2.06v-0.15h0.09c0.3 0 0.46-0.13 0.77-0.6l0.93-1.43-1.13-1.65c-0.3-0.41-0.4-0.48-0.73-0.51v-0.15h1.44v0.15c-0.27 0-0.39 0.05-0.39 0.18 0 0.06 0.06 0.21 0.2 0.41l0.78 1.23 0.91-1.4c0.04-0.06 0.06-0.12 0.06-0.18 0-0.18-0.07-0.22-0.4-0.24z"/><path id="path9371" d="m164.12 710.18-0.07-0.04-0.06-0.05-0.07-0.04-0.06-0.04-0.05-0.04-0.06-0.04-0.06-0.03-0.05-0.04-0.05-0.04-0.05-0.03-0.04-0.04-0.05-0.04-0.04-0.03-0.05-0.03-0.08-0.07-0.08-0.07-0.07-0.07-0.07-0.07-0.07-0.07-0.07-0.07-0.07-0.08-0.06-0.08-0.07-0.08c-0.71-0.87-1.06-1.87-1.06-3.03 0-1.27 0.37-2.24 1.25-3.26 0.4-0.48 0.66-0.7 1.18-1.02l0.12 0.16c-0.8 0.63-1.08 0.98-1.34 1.73-0.24 0.66-0.35 1.42-0.35 2.42 0 1.04 0.13 1.86 0.4 2.48 0.28 0.62 0.57 0.98 1.29 1.55z"/><path id="path9373" d="m167.27 703.45h2.01v0.15c-0.31 0-0.51 0.16-0.82 0.6l-1.28 1.95 0.83 1.19c0.19 0.27 0.49 0.43 0.81 0.44v0.15h-1.58v-0.15c0.3-0.02 0.4-0.08 0.4-0.22 0-0.12-0.12-0.34-0.37-0.65-0.04-0.06-0.17-0.24-0.29-0.43l-0.14 0.19c-0.28 0.42-0.46 0.76-0.46 0.89 0 0.14 0.13 0.21 0.43 0.22v0.15h-2.07v-0.15h0.09c0.3 0 0.46-0.13 0.77-0.6l0.94-1.43-1.14-1.65c-0.3-0.4-0.4-0.47-0.73-0.5v-0.15h1.45v0.15c-0.28 0-0.4 0.05-0.4 0.18 0 0.06 0.07 0.21 0.2 0.4l0.79 1.23 0.9-1.39c0.04-0.06 0.06-0.12 0.06-0.18 0-0.18-0.07-0.22-0.4-0.24z"/><path id="path9375" d="m171.26 706.67h-0.04-0.03-0.04l-0.03-0.01h-0.04-0.03l-0.03-0.01h-0.04l-0.03-0.01-0.03-0.01h-0.03l-0.03-0.01-0.03-0.01-0.03-0.01-0.03-0.01-0.03-0.01-0.03-0.01-0.02-0.01-0.03-0.02-0.03-0.01-0.03-0.02-0.02-0.01-0.03-0.02-0.03-0.01-0.02-0.02-0.03-0.02-0.02-0.02-0.03-0.02-0.02-0.02-0.03-0.02-0.02-0.02-0.03-0.02c-0.4-0.39-0.67-1.2-0.67-2.01 0-0.76 0.23-1.58 0.56-1.97 0.26-0.3 0.61-0.47 1.02-0.47v0.18c-0.6 0-0.91 0.74-0.91 2.19 0 1.48 0.32 2.26 0.92 2.26 0.58 0 0.89-0.79 0.89-2.25s-0.3-2.2-0.9-2.2v-0.18c0.35 0 0.65 0.12 0.9 0.36 0.41 0.38 0.67 1.19 0.67 2.04 0 1.43-0.63 2.41-1.54 2.41z"/><path id="path9377" d="m175.41 703.51v0.04 0.03 0.04l-0.01 0.03v0.04 0.03l-0.01 0.03-0.01 0.04v0.03l-0.01 0.03-0.01 0.02v0.03l-0.01 0.03-0.01 0.03-0.01 0.02-0.01 0.03-0.01 0.02-0.02 0.02-0.02 0.05-0.03 0.04-0.02 0.03-0.03 0.04-0.03 0.03-0.04 0.03-0.03 0.03-0.03 0.02-0.03 0.02-0.04 0.02-0.03 0.02-0.03 0.01-0.04 0.02-0.03 0.01-0.03 0.01-0.04 0.01-0.03 0.01h-0.03l-0.03 0.01h-0.02-0.03-0.02-0.03c-0.25 0-0.58-0.15-0.58-0.57 0-0.4 0.36-0.5 0.62-0.5 0.07 0 0.12 0.01 0.15 0.02 0.04 0.01 0.07 0.02 0.09 0.02 0.07 0 0.14-0.05 0.14-0.14 0-0.19-0.16-0.64-0.81-1.06l0.08-0.19c0.3 0.1 1.12 0.76 1.12 1.47z"/><path id="path9379" d="m182.35 707.93h-1.34v-0.15c0.32 0 0.48-0.09 0.48-0.25 0-0.04-0.01-0.1-0.04-0.17l-0.97-2.75-1.14 2.52c-0.06 0.14-0.1 0.27-0.1 0.38 0 0.18 0.15 0.25 0.57 0.27v0.15h-2.05v-0.14c0.26-0.04 0.43-0.15 0.51-0.32l1.14-2.45 0.03-0.08 0.15-0.3c0.27-0.49 0.43-0.85 0.43-1s-0.23-0.78-0.4-1.08c-0.13-0.26-0.35-0.45-0.49-0.45-0.06 0-0.15 0.02-0.25 0.07-0.19 0.07-0.36 0.11-0.53 0.11-0.23 0-0.43-0.2-0.43-0.44 0-0.32 0.32-0.57 0.74-0.57 0.67 0 1.14 0.55 1.68 1.99l1.54 4.06c0.13 0.32 0.24 0.42 0.47 0.45z"/><path id="path9381" d="m184.37 706.67h-0.03-0.04-0.03l-0.04-0.01h-0.03-0.03l-0.04-0.01h-0.03l-0.03-0.01-0.03-0.01h-0.03l-0.03-0.01-0.03-0.01-0.03-0.01-0.03-0.01-0.03-0.01-0.03-0.01-0.03-0.01-0.03-0.02-0.02-0.01-0.03-0.02-0.03-0.01-0.02-0.02-0.03-0.01-0.03-0.02-0.02-0.02-0.03-0.02-0.02-0.02-0.03-0.02-0.02-0.02-0.03-0.02-0.02-0.02c-0.4-0.39-0.67-1.2-0.67-2.01 0-0.76 0.23-1.58 0.56-1.97 0.26-0.3 0.61-0.47 1.02-0.47v0.18c-0.6 0-0.91 0.74-0.91 2.19 0 1.48 0.31 2.26 0.91 2.26 0.59 0 0.9-0.79 0.9-2.25s-0.3-2.2-0.9-2.2v-0.18c0.35 0 0.65 0.12 0.9 0.36 0.41 0.38 0.67 1.19 0.67 2.04 0 1.43-0.63 2.41-1.55 2.41z"/><path id="path9383" d="m186.96 701.68 0.07 0.05 0.07 0.04 0.06 0.04 0.06 0.04 0.06 0.04 0.06 0.04 0.05 0.04 0.05 0.04 0.05 0.03 0.05 0.04 0.05 0.04 0.05 0.03 0.04 0.04 0.04 0.03 0.08 0.07 0.08 0.07 0.08 0.07 0.07 0.07 0.07 0.07 0.06 0.07 0.07 0.08 0.07 0.08 0.07 0.08c0.71 0.87 1.05 1.86 1.05 3.03 0 1.27-0.36 2.24-1.24 3.26-0.41 0.47-0.67 0.69-1.19 1.01l-0.12-0.16c0.8-0.62 1.07-0.97 1.35-1.72 0.24-0.67 0.35-1.42 0.35-2.42 0-1.04-0.13-1.86-0.4-2.47-0.28-0.63-0.58-0.99-1.3-1.57z"/><polygon id="polygon9385" points="192.68 703.8 193.08 703.4 195.29 705.62 197.5 703.4 197.9 703.8 195.68 706.01 197.9 708.23 197.5 708.63 195.29 706.41 193.08 708.63 192.68 708.23 194.89 706.01"/><path id="path9387" d="m207.35 714.49v0.13l-0.01 0.14v0.13l-0.01 0.12-0.01 0.13-0.02 0.12-0.02 0.12-0.02 0.12-0.02 0.12-0.03 0.11-0.02 0.11-0.04 0.1-0.03 0.11-0.04 0.09-0.04 0.1-0.04 0.09-0.05 0.09-0.05 0.08-0.06 0.07-0.05 0.08-0.06 0.07-0.07 0.06-0.06 0.06-0.07 0.05-0.08 0.04-0.08 0.04-0.08 0.04-0.08 0.03-0.09 0.02-0.09 0.02-0.1 0.01h-0.09c-0.84 0-1.75-0.8-1.75-1.24 0-0.33 0.26-0.46 0.46-0.46 0.21 0 0.34 0.16 0.36 0.19-0.03 0.03-0.09 0.12-0.09 0.26 0 0.09 0.18 0.95 1.03 0.95 0.72 0 0.88-0.92 0.88-1.73 0-0.61-0.09-1.15-0.09-1.16h-0.01c0 0.01-0.39 0.62-1.17 0.62-2 0-2.82-1.93-2.82-2.96 0-0.92 0.54-1.52 1.65-1.52l0.07 0.24c-0.57 0-0.83 0.32-0.83 0.95s0.42 3.05 1.86 3.05c0.55 0 0.82-0.33 0.82-0.91 0-0.26-0.26-3.09-1.85-3.09l-0.07-0.24c1.71 0 3.06 1.74 3.06 4.45z"/><path id="path9389" d="m210.63 714.68h-1.23v1.16c0 0.57 0.19 0.88 0.57 0.88 0.21 0 0.35-0.1 0.53-0.39 0.16-0.25 0.27-0.35 0.45-0.35 0.22 0 0.41 0.18 0.41 0.4 0 0.36-0.43 0.62-1.03 0.62-0.62 0-1.15-0.27-1.41-0.72-0.26-0.44-0.34-0.8-0.35-1.6h-0.81v-0.32h0.81v-3.13c0-0.72-0.11-0.84-0.82-0.88v-0.15h2.59v0.15c-0.82 0.03-0.93 0.14-0.93 0.88v3.13h1.22z"/></g><line id="line9391" stroke-width="0.558" y2="706.01" y1="706.01" x2="211.95" x1="201.86"/><g stroke-width="0"><path id="path9393" d="m206.76 700.91v0.13 0.13l-0.01 0.13-0.01 0.13-0.01 0.13-0.01 0.12-0.02 0.12-0.02 0.12-0.02 0.12-0.03 0.11-0.03 0.11-0.03 0.1-0.04 0.1-0.03 0.1-0.05 0.1-0.04 0.09-0.05 0.08-0.05 0.08-0.05 0.08-0.06 0.07-0.06 0.07-0.06 0.06-0.07 0.06-0.07 0.05-0.07 0.05-0.08 0.04-0.08 0.04-0.09 0.03-0.08 0.02-0.1 0.02-0.09 0.01h-0.1c-0.84 0-1.74-0.8-1.74-1.25 0-0.33 0.25-0.45 0.45-0.45 0.21 0 0.34 0.16 0.36 0.18-0.03 0.04-0.09 0.12-0.09 0.26 0 0.09 0.18 0.96 1.04 0.96 0.72 0 0.88-0.93 0.88-1.73 0-0.61-0.09-1.15-0.09-1.16h-0.01c0 0.01-0.39 0.62-1.18 0.62-1.99 0-2.82-1.93-2.82-2.96 0-0.93 0.55-1.52 1.66-1.52l0.06 0.24c-0.56 0-0.82 0.31-0.82 0.95 0 0.63 0.42 3.05 1.85 3.05 0.56 0 0.83-0.33 0.83-0.92 0-0.26-0.26-3.08-1.86-3.08l-0.06-0.24c1.71 0 3.05 1.74 3.05 4.45z"/><path id="path9395" d="m211.7 701.1h-1.35v-0.15c0.32 0 0.48-0.09 0.48-0.25 0-0.04-0.01-0.1-0.04-0.17l-0.97-2.75-1.14 2.52c-0.06 0.14-0.1 0.27-0.1 0.38 0 0.18 0.15 0.25 0.57 0.27v0.15h-2.05v-0.14c0.26-0.04 0.43-0.15 0.51-0.32l1.14-2.45 0.03-0.08 0.15-0.3c0.27-0.5 0.43-0.86 0.43-1.01 0-0.14-0.23-0.77-0.4-1.07-0.13-0.26-0.35-0.45-0.49-0.45-0.06 0-0.15 0.02-0.25 0.07-0.19 0.07-0.36 0.11-0.53 0.11-0.23 0-0.43-0.2-0.43-0.44 0-0.33 0.32-0.58 0.74-0.58 0.67 0 1.14 0.56 1.68 2l1.54 4.06c0.13 0.32 0.24 0.42 0.48 0.45z"/><path id="path9397" d="m216.08 710.18-0.07-0.04-0.06-0.05-0.07-0.04-0.06-0.04-0.05-0.04-0.06-0.04-0.06-0.03-0.05-0.04-0.05-0.04-0.05-0.03-0.04-0.04-0.05-0.04-0.04-0.03-0.05-0.03-0.08-0.07-0.08-0.07-0.07-0.07-0.07-0.07-0.07-0.07-0.07-0.07-0.07-0.08-0.06-0.08-0.07-0.08c-0.71-0.87-1.06-1.87-1.06-3.03 0-1.27 0.37-2.24 1.25-3.26 0.4-0.48 0.66-0.7 1.18-1.02l0.12 0.16c-0.8 0.63-1.07 0.98-1.34 1.73-0.24 0.66-0.35 1.42-0.35 2.42 0 1.04 0.13 1.86 0.4 2.48s0.57 0.98 1.29 1.55z"/><path id="path9399" d="m219.23 703.45h2v0.15c-0.31 0-0.51 0.16-0.82 0.6l-1.27 1.95 0.82 1.19c0.19 0.27 0.49 0.43 0.81 0.44v0.15h-1.57v-0.15c0.3-0.02 0.4-0.08 0.4-0.22 0-0.12-0.12-0.34-0.37-0.65-0.05-0.06-0.17-0.24-0.3-0.43l-0.14 0.19c-0.28 0.42-0.46 0.76-0.46 0.89 0 0.14 0.13 0.21 0.43 0.22v0.15h-2.06v-0.15h0.09c0.3 0 0.45-0.13 0.76-0.6l0.94-1.43-1.14-1.65c-0.3-0.4-0.39-0.47-0.72-0.5v-0.15h1.44v0.15c-0.28 0-0.4 0.05-0.4 0.18 0 0.06 0.07 0.21 0.2 0.4l0.79 1.23 0.91-1.39c0.04-0.06 0.06-0.12 0.06-0.18 0-0.18-0.07-0.22-0.4-0.24z"/><path id="path9401" d="m223.21 706.67h-0.04-0.03-0.04l-0.03-0.01h-0.03-0.04l-0.03-0.01h-0.03l-0.03-0.01-0.04-0.01h-0.03l-0.03-0.01-0.03-0.01-0.03-0.01-0.03-0.01-0.03-0.01-0.02-0.01-0.03-0.01-0.03-0.02-0.03-0.01-0.03-0.02-0.02-0.01-0.03-0.02-0.03-0.01-0.02-0.02-0.03-0.02-0.02-0.02-0.03-0.02-0.02-0.02-0.03-0.02-0.02-0.02-0.03-0.02c-0.4-0.39-0.67-1.2-0.67-2.01 0-0.76 0.24-1.58 0.56-1.97 0.26-0.3 0.62-0.47 1.02-0.47v0.18c-0.6 0-0.91 0.74-0.91 2.19 0 1.48 0.32 2.26 0.92 2.26 0.58 0 0.9-0.79 0.9-2.25s-0.31-2.2-0.91-2.2v-0.18c0.36 0 0.66 0.12 0.91 0.36 0.4 0.38 0.67 1.19 0.67 2.04 0 1.43-0.64 2.41-1.55 2.41z"/><path id="path9403" d="m227.37 703.51v0.04 0.03 0.04l-0.01 0.03v0.04 0.03l-0.01 0.03-0.01 0.04v0.03l-0.01 0.03-0.01 0.02v0.03l-0.01 0.03-0.01 0.03-0.01 0.02-0.01 0.03-0.01 0.02-0.02 0.02-0.02 0.05-0.03 0.04-0.02 0.03-0.03 0.04-0.03 0.03-0.04 0.03-0.03 0.03-0.03 0.02-0.03 0.02-0.04 0.02-0.03 0.02-0.03 0.01-0.04 0.02-0.03 0.01-0.03 0.01-0.04 0.01-0.03 0.01h-0.03l-0.03 0.01h-0.02-0.03-0.02-0.03c-0.25 0-0.57-0.15-0.57-0.57 0-0.4 0.35-0.5 0.61-0.5 0.07 0 0.12 0.01 0.15 0.02 0.04 0.01 0.07 0.02 0.09 0.02 0.07 0 0.14-0.05 0.14-0.14 0-0.19-0.16-0.64-0.82-1.06l0.09-0.19c0.3 0.1 1.12 0.76 1.12 1.47z"/><path id="path9405" d="m234.31 707.93h-1.35v-0.15c0.32 0 0.48-0.09 0.48-0.25 0-0.04-0.01-0.1-0.04-0.17l-0.97-2.75-1.14 2.52c-0.06 0.14-0.1 0.27-0.1 0.38 0 0.18 0.15 0.25 0.58 0.27v0.15h-2.06v-0.14c0.26-0.04 0.43-0.15 0.51-0.32l1.14-2.45 0.03-0.08 0.15-0.3c0.28-0.49 0.44-0.85 0.44-1s-0.23-0.78-0.4-1.08c-0.14-0.26-0.36-0.45-0.5-0.45-0.06 0-0.15 0.02-0.25 0.07-0.19 0.07-0.36 0.11-0.53 0.11-0.23 0-0.43-0.2-0.43-0.44 0-0.32 0.32-0.57 0.74-0.57 0.67 0 1.15 0.55 1.68 1.99l1.54 4.06c0.13 0.32 0.24 0.42 0.48 0.45z"/><path id="path9407" d="m236.33 706.67h-0.04-0.03-0.04l-0.03-0.01h-0.04-0.03l-0.03-0.01h-0.04l-0.03-0.01-0.03-0.01h-0.03l-0.03-0.01-0.03-0.01-0.03-0.01-0.03-0.01-0.03-0.01-0.03-0.01-0.02-0.01-0.03-0.02-0.03-0.01-0.03-0.02-0.02-0.01-0.03-0.02-0.03-0.01-0.02-0.02-0.03-0.02-0.02-0.02-0.03-0.02-0.02-0.02-0.03-0.02-0.02-0.02-0.03-0.02c-0.4-0.39-0.67-1.2-0.67-2.01 0-0.76 0.23-1.58 0.56-1.97 0.26-0.3 0.61-0.47 1.02-0.47v0.18c-0.6 0-0.91 0.74-0.91 2.19 0 1.48 0.32 2.26 0.91 2.26s0.91-0.79 0.91-2.25-0.31-2.2-0.91-2.2v-0.18c0.35 0 0.65 0.12 0.91 0.36 0.4 0.38 0.67 1.19 0.67 2.04 0 1.43-0.64 2.41-1.55 2.41z"/><path id="path9409" d="m238.92 701.68 0.07 0.05 0.07 0.04 0.06 0.04 0.06 0.04 0.06 0.04 0.06 0.04 0.05 0.04 0.05 0.04 0.05 0.03 0.05 0.04 0.05 0.04 0.05 0.03 0.04 0.04 0.04 0.03 0.08 0.07 0.08 0.07 0.08 0.07 0.07 0.07 0.07 0.07 0.06 0.07 0.07 0.08 0.07 0.08 0.07 0.08c0.71 0.87 1.05 1.86 1.05 3.03 0 1.27-0.36 2.24-1.24 3.26-0.41 0.47-0.67 0.69-1.19 1.01l-0.12-0.16c0.8-0.62 1.07-0.97 1.35-1.72 0.24-0.67 0.35-1.42 0.35-2.42 0-1.04-0.13-1.86-0.4-2.47-0.28-0.63-0.58-0.99-1.3-1.57z"/></g></g>
 </g>
</svg>
