<?xml version="1.0" encoding="UTF-8" standalone="no"?>
<!-- Created with Inkscape (http://www.inkscape.org/) -->
<svg id="svg10991" xmlns:rdf="http://www.w3.org/1999/02/22-rdf-syntax-ns#" xmlns="http://www.w3.org/2000/svg" height="215.99" width="165.11" version="1.1" xmlns:cc="http://creativecommons.org/ns#" xmlns:dc="http://purl.org/dc/elements/1.1/" viewBox="0 0 165.11437 215.99256">
 <style type="text/css">
	 @import url('../estilo.css');
 </style>
 <defs id="defs10993">
  <marker id="marker12608" refY="0" refX="0" orient="auto" overflow="visible">
   <path id="path12610" stroke-linejoin="round" d="m8.7186 4.0337-10.926-4.0177 10.926-4.0177c-1.7455 2.3721-1.7354 5.6175-6e-7 8.0354z" fill-rule="evenodd" transform="scale(-.6)" stroke="#000" stroke-width=".625"/>
  </marker>
  <marker id="marker12526" refY="0" refX="0" orient="auto" overflow="visible">
   <path id="path12528" stroke-linejoin="round" d="m8.7186 4.0337-10.926-4.0177 10.926-4.0177c-1.7455 2.3721-1.7354 5.6175-6e-7 8.0354z" fill-rule="evenodd" transform="scale(-.6)" stroke="#000" stroke-width=".625"/>
  </marker>
  <marker id="marker12516" refY="0" refX="0" orient="auto" overflow="visible">
   <path id="path12518" stroke-linejoin="round" d="m8.7186 4.0337-10.926-4.0177 10.926-4.0177c-1.7455 2.3721-1.7354 5.6175-6e-7 8.0354z" fill-rule="evenodd" transform="scale(-.6)" stroke="#000" stroke-width=".625"/>
  </marker>
  <marker id="Arrow2Mend" refY="0" refX="0" orient="auto" overflow="visible">
   <path id="path11727" stroke-linejoin="round" d="m8.7186 4.0337-10.926-4.0177 10.926-4.0177c-1.7455 2.3721-1.7354 5.6175-6e-7 8.0354z" fill-rule="evenodd" transform="scale(-.6)" stroke="#000" stroke-width=".625"/>
  </marker>
 </defs>
 <metadata id="metadata10996">
  <rdf:RDF>
   <cc:Work rdf:about="">
    <dc:format>image/svg+xml</dc:format>
    <dc:type rdf:resource="http://purl.org/dc/dcmitype/StillImage"/>
    <dc:title/>
   </cc:Work>
  </rdf:RDF>
 </metadata>
 <g id="layer1" transform="translate(-237.63 -303.99)">
  <path id="path4237" d="m242.72 379.49c47.541 8.6097 67.083-67.371 115-70 6.3533 39.407 20.409 77.629 40 115-46.031-2.3294-70.716 81.027-125 90-13.559-50.177-26.859-92.821-30-135z" fill="#ffff80"/>
  <path id="rect4234" d="m242.72 379.49c47.541 8.6097 67.083-67.371 115-70m40 115c-46.031-2.3294-70.716 81.027-125 90" stroke="#000" fill="none"/>
  <text id="text5105" style="word-spacing:0px;letter-spacing:0px" font-size="16px" line-height="125%" y="474.76862" x="274.90433" font-family="&apos;STIX Two Text&apos;" xml:space="preserve" fill="#000000"><tspan id="tspan5107" y="474.76862" x="274.90433">S</tspan></text>
  <g stroke="#000" stroke-width="1px" fill="none">
   <path id="path11688" marker-end="url(#marker12516)" d="m290 422.36 2.1238-35.094"/>
   <path id="path11690" marker-end="url(#Arrow2Mend)" d="m304 444.36 37.114-22.743"/>
   <path id="path11692" marker-end="url(#marker12608)" d="m349 399.36-5.7426-27.238"/>
   <path id="path11694" marker-end="url(#marker12526)" d="m309 395.36 16-37"/>
  </g>
  <text id="text16367" style="word-spacing:0px;letter-spacing:0px" xml:space="preserve" font-size="16px" line-height="125%" y="367.18341" x="378.54352" font-family="&apos;STIX Two Text&apos;" fill="#000000"><tspan id="tspan16369" x="378.54352" y="367.18341">ℝ<tspan id="tspan16371" dy="-5" font-size="65%">3</tspan></tspan></text>
 </g>
</svg>
