<?xml version="1.0" encoding="UTF-8"?>
<!-- Created with Inkscape (http://www.inkscape.org/) -->
<svg width="181.97" height="181.59" version="1.1" viewBox="0 0 181.97 181.59" xmlns="http://www.w3.org/2000/svg" xmlns:cc="http://creativecommons.org/ns#" xmlns:dc="http://purl.org/dc/elements/1.1/" xmlns:rdf="http://www.w3.org/1999/02/22-rdf-syntax-ns#" xmlns:xlink="http://www.w3.org/1999/xlink">
 <style type="text/css">
  @import url('../estilo.css');
 </style>
 <defs>
  <marker id="Arrow2Mstart" overflow="visible" orient="auto">
   <path transform="scale(.6)" d="m8.7186 4.0337-10.926-4.0177 10.926-4.0177c-1.7455 2.3721-1.7354 5.6175-6e-7 8.0354z" fill-rule="evenodd" stroke="#000" stroke-linejoin="round" stroke-width=".625"/>
  </marker>
  <marker id="Arrow2Mend" overflow="visible" orient="auto">
   <path transform="scale(-.6)" d="m8.7186 4.0337-10.926-4.0177 10.926-4.0177c-1.7455 2.3721-1.7354 5.6175-6e-7 8.0354z" fill-rule="evenodd" stroke="#000" stroke-linejoin="round" stroke-width=".625"/>
  </marker>
  <marker id="marker1183" overflow="visible" orient="auto">
   <path transform="matrix(.4 0 0 .4 2.96 .4)" d="m-2.5-1c0 2.76-2.24 5-5 5s-5-2.24-5-5 2.24-5 5-5 5 2.24 5 5z" fill-rule="evenodd" stroke="#000" stroke-width="1pt"/>
  </marker>
  <marker id="DotM" overflow="visible" orient="auto">
   <path transform="matrix(.4 0 0 .4 2.96 .4)" d="m-2.5-1c0 2.76-2.24 5-5 5s-5-2.24-5-5 2.24-5 5-5 5 2.24 5 5z" fill-rule="evenodd" stroke="#000" stroke-width="1pt"/>
  </marker>
  <marker id="Arrow2Lend" overflow="visible" orient="auto">
   <path transform="matrix(-1.1,0,0,-1.1,-1.1,0)" d="m8.7186 4.0337-10.926-4.0177 10.926-4.0177c-1.7455 2.3721-1.7354 5.6175-6e-7 8.0354z" fill-rule="evenodd" stroke="#000" stroke-linejoin="round" stroke-width=".625"/>
  </marker>
  <pattern id="pattern2707-224" patternTransform="matrix(.32009 .32009 -.32009 .32009 250 147.52)" xlink:href="#Strips1_10-836"/>
  <pattern id="Strips1_10-836" width="11" height="1" patternTransform="translate(0) scale(10)" patternUnits="userSpaceOnUse">
   <rect y="-.5" width="1" height="2" fill="#999"/>
  </pattern>
 </defs>
 <metadata>
  <rdf:RDF>
   <cc:Work rdf:about="">
    <dc:format>image/svg+xml</dc:format>
    <dc:type rdf:resource="http://purl.org/dc/dcmitype/StillImage"/>
    <dc:title/>
   </cc:Work>
  </rdf:RDF>
 </metadata>
 <g transform="translate(-74.856 -66.005)">
  <path d="m130 107.52v115" fill="none" stroke="#999" stroke-dasharray="3.00472426, 3.00472426" stroke-width="1.0016"/>
  <path d="m210 182.52v40" fill="none" stroke="#999" stroke-dasharray="3.00472426, 3.00472426" stroke-width="1.0016"/>
  <path d="m130 107.52s22.703 40.347 40 55c11.374 9.6356 40 20 40 20v40h-80z" fill="url(#pattern2707-224)"/>
  <path d="m100 72.52v150h150" fill="none" marker-end="url(#Arrow2Mend)" marker-start="url(#Arrow2Mstart)" stroke="#000" stroke-width="1.0016"/>
  <path d="m130 107.52s22.703 40.347 40 55c11.374 9.6356 40 20 40 20" fill="none" marker-end="url(#DotM)" marker-mid="url(#Arrow2Lend)" marker-start="url(#marker1183)" stroke="#000" stroke-width="1.0016"/>
  <g fill="#000000" font-family="'STIX Two Text'" font-size="16px" letter-spacing="0px" word-spacing="0px">
   <text x="80" y="82.519653" style="font-feature-settings:normal;font-variant-caps:normal;font-variant-ligatures:normal;font-variant-numeric:normal;line-height:1.25" xml:space="preserve"><tspan x="80" y="82.519653" font-family="'STIX Two Text'" font-style="italic">P</tspan></text>
   <text x="240" y="242.51965" font-style="italic" style="font-feature-settings:normal;font-variant-caps:normal;font-variant-ligatures:normal;font-variant-numeric:normal;line-height:1.25" xml:space="preserve"><tspan x="240" y="242.51965">V</tspan></text>
   <text x="120" y="102.51965" style="font-feature-settings:normal;font-variant-caps:normal;font-variant-ligatures:normal;font-variant-numeric:normal;line-height:1.25" xml:space="preserve"><tspan x="120" y="102.51965">1</tspan></text>
   <text x="215" y="187.51965" style="font-feature-settings:normal;font-variant-caps:normal;font-variant-ligatures:normal;font-variant-numeric:normal;line-height:1.25" xml:space="preserve"><tspan x="215" y="187.51965">2</tspan></text>
  </g>
 </g>
</svg>
