<?xml version="1.0" encoding="UTF-8" standalone="no"?>
<svg id="svg4381" xmlns:rdf="http://www.w3.org/1999/02/22-rdf-syntax-ns#" xmlns="http://www.w3.org/2000/svg" xmlns:ns0="http://www.iki.fi/pav/software/textext/" height="120" width="150" version="1.1" xmlns:cc="http://creativecommons.org/ns#" xmlns:xlink="http://www.w3.org/1999/xlink" viewBox="0 0 150 120" xmlns:dc="http://purl.org/dc/elements/1.1/">
 <metadata id="metadata4463">
  <rdf:RDF>
   <cc:Work rdf:about="">
    <dc:format>image/svg+xml</dc:format>
    <dc:type rdf:resource="http://purl.org/dc/dcmitype/StillImage"/>
    <dc:title>Gnuplot</dc:title>
   </cc:Work>
  </rdf:RDF>
 </metadata>
 <title id="title4383">Gnuplot</title>
 <desc id="desc4385">Produced by GNUPLOT 5.0 patchlevel 3</desc>
 <rect id="rect4388" height="120" width="150" y="4.5753" x="2" fill="none"/>
 <g id="g4420" style="color:#000000" transform="translate(2 4.5753)" stroke="currentColor" fill="none">
  <path id="path4422" d="m57.5 84.1 0.3-0.9 0.2-1 0.1-1 0.1-1v-0.9-1l-0.1-1-0.1-1-0.2-1-0.3-0.9-0.2-1-0.4-0.9-0.3-0.9-0.5-0.9-0.4-0.9-0.6-0.8-0.5-0.8-0.6-0.8-0.7-0.8-0.6-0.7m4.8 18.2 0.3-0.9 0.2-1 0.1-1 0.1-1v-0.9-1l-0.1-1-0.1-1-0.2-1-0.3-0.9-0.2-1-0.4-0.9-0.3-0.9-0.5-0.9-0.4-0.9-0.6-0.8-0.5-0.8-0.6-0.8-0.7-0.8-0.6-0.7-13.3 13.3 18.1 4.9" stroke="#000" stroke-dasharray="1, 2"/>
 </g>
 <g id="gnuplot_plot_1" transform="translate(2 4.5753)">
  <title id="title4429">NaN</title>
 </g>
 <g fill="none">
  <g id="g4439" style="color:#000000" transform="translate(2 4.5753)" stroke="currentColor" stroke-width="1.5">
   <g id="g4441" style="shape-rendering:crispEdges">
    <polygon id="polygon4443" points="81.2 44.6 81.2 37.3 81.2 37.3 73.9 37.3 83.8 34.7" fill="#0072b2"/>
   </g>
   <path id="path4445" d="m81.2 37.3h-7.3l9.9-2.6-2.6 9.9v-7.3m-41.8 41.9 41.8-41.9" stroke="#0072b2"/>
  </g>
  <g id="g4447" style="color:#000000" transform="translate(2 4.5753)" stroke="currentColor" stroke-width="1.5">
   <g id="g4449" style="shape-rendering:crispEdges">
    <polygon id="polygon4451" points="75 94 81.3 90.5 81.3 90.5 77.7 84.2 84.9 91.4" fill="#e69f00"/>
   </g>
   <path id="path4453" d="m81.3 90.5-3.6-6.3 7.2 7.2-9.9 2.6 6.3-3.5m-41.9-11.3 41.9 11.3" stroke="#e69f00"/>
  </g>
  <g>
   <path id="path4518" d="m37 109.58s1.761-17.485 4.4-25.8" stroke="#000" stroke-width="1px"/>
   <path id="path4516" d="m41.4 83.775c8.7282-27.503 25.6-39.2 44.4-44.5" stroke="#f00" stroke-width="1.5"/>
   <path id="path4512" d="m85.8 39.275c18.726-5.2793 51.2-9.7 51.2-9.7" stroke="#000" stroke-width="1px"/>
  </g>
 </g>
 <g fill-rule="evenodd" stroke="#000" stroke-miterlimit="10.433">
  <g id="content" xml:space="preserve" stroke-width="0" ns0:pdfconverter="pstoedit" transform="matrix(1.75 0 0 -1.75 -248.25 1326)" ns0:text="$\nt \\enspace A\n$" ns0:version="0.7.2" ns0:inkscapeversion="0.91" ns0:preamble="/usr/share/inkscape/extensions/default_packages.tex" ns0:scale="1.4" ns0:texconverter="pdflatex"><path id="path4595" d="m151.66 711.39h-0.8l0.28 1.02c0.01 0.02 0.01 0.04 0.01 0.05 0 0.07-0.03 0.1-0.08 0.1-0.06 0-0.09-0.01-0.15-0.09-0.39-0.51-1.01-1-1.32-1.09-0.25-0.08-0.32-0.14-0.32-0.25 0-0.01 0-0.03 0.01-0.06h0.73l-0.71-2.74c-0.02-0.09-0.03-0.12-0.06-0.21-0.09-0.3-0.17-0.65-0.17-0.73 0-0.22 0.21-0.38 0.48-0.38 0.45 0 0.78 0.28 1.41 1.21l-0.13 0.07c-0.49-0.63-0.65-0.79-0.8-0.79-0.09 0-0.15 0.08-0.15 0.2 0 0.01 0 0.02 0.01 0.05l0.87 3.32h0.84z"/><path id="path4597" d="m162.51 707.28-0.05 0.01h-0.05l-0.05 0.01h-0.04l-0.04 0.01-0.04 0.01-0.03 0.01h-0.04l-0.03 0.01-0.03 0.02-0.03 0.01-0.02 0.01-0.03 0.02-0.02 0.02-0.02 0.02-0.02 0.02-0.02 0.02-0.02 0.02-0.01 0.03-0.02 0.03-0.01 0.03-0.02 0.04-0.01 0.03-0.01 0.04-0.01 0.05-0.02 0.04-0.01 0.05-0.01 0.06-0.01 0.02v0.03l-0.01 0.03v0.03l-0.01 0.03v0.03l-0.01 0.04-0.01 0.03-0.93 5.64h-0.26l-2.89-4.98c-0.79-1.33-0.89-1.44-1.29-1.52v-0.16h1.87v0.16c-0.51 0.05-0.59 0.1-0.59 0.35 0 0.19 0.03 0.28 0.2 0.62l0.57 1.12h2.19l-0.05 0.36h-1.93l1.49 2.59 0.44-2.59 0.05-0.36 0.2-1.3c0.01-0.09 0.02-0.18 0.02-0.26 0-0.38-0.14-0.47-0.78-0.53v-0.16h2.45z"/></g>
  <g id="g4713" xml:space="preserve" stroke-width="0" ns0:pdfconverter="pstoedit" transform="matrix(1.75 0 0 -1.75 -199.53 1351.3)" ns0:text="$\\vec{F}$" ns0:version="0.7.2" ns0:inkscapeversion="0.91" ns0:preamble="/usr/share/inkscape/extensions/default_packages.tex" ns0:scale="1.4" ns0:texconverter="pdflatex"><polygon id="polygon4715" points="154.23 714.03 154.42 713.79 156.09 715.23 155.03 716.67 154.74 716.43 155.28 715.43 151.96 715.43 151.87 715.03 155.2 715.03"/><path id="path4717" d="m155.38 713.63h-4.96v-0.16c0.65-0.06 0.77-0.12 0.77-0.41 0-0.15-0.04-0.4-0.11-0.64l-1.23-4.4c-0.17-0.6-0.25-0.66-0.81-0.74v-0.16h2.51v0.16c-0.58 0.03-0.76 0.14-0.76 0.44 0 0.08 0.03 0.23 0.09 0.45l0.62 2.22c0.37-0.02 0.59-0.03 0.8-0.03 0.39 0 0.46-0.01 0.55-0.05 0.15-0.08 0.22-0.21 0.22-0.41 0-0.16-0.02-0.28-0.08-0.59l0.17-0.05 0.76 2.34-0.18 0.05c-0.45-0.9-0.48-0.91-2.15-0.93l0.65 2.32c0.06 0.2 0.2 0.26 0.61 0.26 1.68 0 2.03-0.13 2.03-0.75v-0.24c-0.01-0.06-0.01-0.07-0.03-0.19l0.22-0.02z"/></g>
  <g id="g4968" xml:space="preserve" stroke-width="0" ns0:pdfconverter="pstoedit" transform="matrix(1.75 0 0 -1.75 -222.81 1291.6)" ns0:text="$ds$" ns0:version="0.7.2" ns0:inkscapeversion="0.91" ns0:preamble="/usr/share/inkscape/extensions/default_packages.tex" ns0:scale="1.4" ns0:texconverter="pdflatex"><path id="path4970" d="m153.32 708.23-0.02-0.03-0.03-0.03-0.02-0.03-0.02-0.02-0.03-0.03-0.02-0.02-0.02-0.03-0.02-0.02-0.02-0.02-0.02-0.02-0.02-0.03-0.02-0.02-0.02-0.02-0.01-0.02-0.04-0.03-0.03-0.04-0.03-0.03-0.03-0.03-0.03-0.03-0.02-0.02-0.03-0.03-0.02-0.02-0.02-0.02-0.03-0.01-0.02-0.02-0.01-0.02-0.02-0.01-0.02-0.01-0.02-0.01-0.01-0.01-0.02-0.01h-0.02l-0.01-0.01h-0.02-0.01l-0.02-0.01h-0.01-0.03c-0.1 0-0.18 0.09-0.18 0.2 0 0.14 0.32 1.36 0.64 2.45 0.27 0.92 0.48 1.72 0.99 3.71l-0.05 0.05c-0.53-0.11-0.89-0.17-1.52-0.23v-0.17c0.54-0.02 0.61-0.05 0.61-0.26 0-0.13-0.01-0.19-0.15-0.7l-0.43-1.63c-0.08 0.42-0.26 0.58-0.65 0.58l0.04-0.23c0.3-0.02 0.45-0.21 0.45-0.57 0-1.51-1.04-3.23-1.96-3.23-0.34 0-0.57 0.27-0.57 0.66 0 0.83 0.49 1.98 1.15 2.68 0.28 0.29 0.65 0.48 0.93 0.46l-0.04 0.23c-1.3 0-2.91-1.88-2.91-3.37 0-0.71 0.4-1.14 1.05-1.14 0.67 0 1.11 0.32 1.79 1.32-0.11-0.51-0.13-0.66-0.13-0.89 0-0.27 0.17-0.45 0.42-0.45 0.42 0 0.93 0.41 1.45 1.14z"/><path id="path4972" d="m154.82 708.58-0.2-1.59h0.16c0.08 0.16 0.14 0.21 0.24 0.21 0.11 0 0.29-0.04 0.49-0.09 0.22-0.07 0.39-0.1 0.55-0.1 0.83 0 1.43 0.54 1.43 1.3 0 0.38-0.21 0.81-0.68 1.39-0.38 0.47-0.53 0.78-0.53 1.05 0 0.33 0.21 0.54 0.55 0.54 0.52 0 0.82-0.37 0.92-1.15h0.16l0.2 1.39h-0.14c-0.08-0.14-0.16-0.18-0.3-0.18-0.07 0-0.17 0.02-0.36 0.07-0.25 0.08-0.4 0.1-0.56 0.1-0.72 0-1.2-0.43-1.2-1.1 0-0.32 0.21-0.75 0.63-1.28 0.39-0.51 0.55-0.86 0.55-1.15 0-0.45-0.3-0.77-0.73-0.77-0.55 0-0.86 0.41-1.02 1.36z"/></g>
  <g id="g5100" xml:space="preserve" ns0:pdfconverter="pstoedit" transform="matrix(1.75 0 0 -1.75 -197.61 1319.4)" ns0:text="$\\theta$" ns0:version="0.7.2" ns0:inkscapeversion="0.91" ns0:preamble="/usr/share/inkscape/extensions/default_packages.tex" ns0:scale="1.4" ns0:texconverter="pdflatex"><path id="path5102" stroke-width="0" d="m153.22 711.93v0.01 0.02 0.01 0.02 0.01 0.02 0.04 0.05l-0.01 0.06v0.05l-0.01 0.06-0.01 0.07-0.01 0.07-0.01 0.07-0.02 0.07-0.01 0.08-0.02 0.07-0.03 0.08-0.03 0.07-0.03 0.08-0.03 0.07-0.04 0.07-0.04 0.07-0.05 0.07-0.05 0.06-0.02 0.03-0.03 0.03-0.03 0.03-0.03 0.03-0.04 0.03-0.03 0.02-0.03 0.03-0.04 0.02-0.04 0.02-0.04 0.02-0.04 0.02-0.04 0.01-0.04 0.02-0.05 0.01-0.05 0.01-0.04 0.01-0.05 0.01h-0.05l-0.06 0.01h-0.05l-0.01-0.21c0.4 0 0.56-0.35 0.56-0.92 0-0.54-0.14-1.27-0.34-2.08h-2.16c0.35 1.45 0.98 3 1.94 3l0.01 0.21c-1.77 0-3.02-2.77-3.02-4.68 0-0.36 0.06-1.95 1.32-1.95l0.14 0.22c-0.55 0-0.74 0.48-0.74 1.15 0 0.49 0.11 1.08 0.24 1.69h2.17c-0.31-1.16-0.66-2.84-1.67-2.84l-0.14-0.22c1.99 0 2.9 3.39 2.9 4.92z"/></g>
  <g id="g5234" xml:space="preserve" stroke-width="0" ns0:pdfconverter="pstoedit" transform="matrix(1.75 0 0 -1.75 -188.59 1302.2)" ns0:text="$d\\vec{r}$" ns0:version="0.7.2" ns0:inkscapeversion="0.91" ns0:preamble="/usr/share/inkscape/extensions/default_packages.tex" ns0:scale="1.4" ns0:texconverter="pdflatex"><path id="path5236" d="m153.32 708.23-0.02-0.03-0.03-0.03-0.02-0.03-0.02-0.02-0.03-0.03-0.02-0.02-0.02-0.03-0.02-0.02-0.02-0.02-0.02-0.02-0.02-0.03-0.02-0.02-0.02-0.02-0.01-0.02-0.04-0.03-0.03-0.04-0.03-0.03-0.03-0.03-0.03-0.03-0.02-0.02-0.03-0.03-0.02-0.02-0.02-0.02-0.03-0.01-0.02-0.02-0.01-0.02-0.02-0.01-0.02-0.01-0.02-0.01-0.01-0.01-0.02-0.01h-0.02l-0.01-0.01h-0.02-0.01l-0.02-0.01h-0.01-0.03c-0.1 0-0.18 0.09-0.18 0.2 0 0.14 0.32 1.36 0.64 2.45 0.27 0.92 0.48 1.72 0.99 3.71l-0.05 0.05c-0.53-0.11-0.89-0.17-1.52-0.23v-0.17c0.54-0.02 0.61-0.05 0.61-0.26 0-0.13-0.01-0.19-0.15-0.7l-0.43-1.63c-0.08 0.42-0.26 0.58-0.65 0.58l0.04-0.23c0.3-0.02 0.45-0.21 0.45-0.57 0-1.51-1.04-3.23-1.96-3.23-0.34 0-0.57 0.27-0.57 0.66 0 0.83 0.49 1.98 1.15 2.68 0.28 0.29 0.65 0.48 0.93 0.46l-0.04 0.23c-1.3 0-2.91-1.88-2.91-3.37 0-0.71 0.4-1.14 1.05-1.14 0.67 0 1.11 0.32 1.79 1.32-0.11-0.51-0.13-0.66-0.13-0.89 0-0.27 0.17-0.45 0.42-0.45 0.42 0 0.93 0.41 1.45 1.14z"/><polygon id="polygon5238" points="159.16 713.12 158.11 714.56 157.82 714.32 158.36 713.32 155.03 713.32 154.94 712.93 158.28 712.93 157.3 711.92 157.49 711.68"/><path id="path5240" d="m155.16 707.12 0.05 0.16 0.05 0.15 0.04 0.14 0.04 0.13 0.05 0.13 0.03 0.12 0.04 0.12 0.04 0.11 0.03 0.11 0.04 0.1 0.03 0.1 0.03 0.09 0.04 0.09 0.03 0.08 0.03 0.08 0.03 0.08 0.03 0.08 0.03 0.07 0.06 0.14 0.07 0.14 0.06 0.13 0.07 0.13 0.07 0.13 0.08 0.13 0.04 0.07 0.04 0.07c0.33 0.56 0.61 0.87 0.78 0.87 0.06 0 0.11-0.04 0.16-0.14 0.08-0.17 0.16-0.22 0.36-0.22 0.29 0 0.46 0.18 0.46 0.49s-0.19 0.52-0.47 0.52c-0.23 0-0.5-0.15-0.76-0.42-0.41-0.42-0.81-1.01-0.97-1.41l-0.14-0.36 0.53 2.17-0.03 0.02c-0.73-0.13-0.82-0.15-1.54-0.27v-0.17c0.24 0.05 0.27 0.05 0.34 0.05 0.21 0 0.35-0.1 0.35-0.28 0-0.14 0-0.14-0.17-0.82l-0.8-2.91z"/></g>
  <g id="g5380" xml:space="preserve" stroke-width="0" ns0:pdfconverter="pstoedit" transform="matrix(1.75 0 0 -1.75 -197.78 1254.8)" ns0:text="$\nt + dt\n$" ns0:version="0.7.2" ns0:inkscapeversion="0.91" ns0:preamble="/usr/share/inkscape/extensions/default_packages.tex" ns0:scale="1.4" ns0:texconverter="pdflatex"><path id="path5382" d="m151.66 711.39h-0.8l0.28 1.02c0.01 0.02 0.01 0.04 0.01 0.05 0 0.07-0.03 0.1-0.08 0.1-0.06 0-0.09-0.01-0.15-0.09-0.39-0.51-1.01-1-1.32-1.09-0.25-0.08-0.32-0.14-0.32-0.25 0-0.01 0-0.03 0.01-0.06h0.73l-0.71-2.74c-0.02-0.09-0.03-0.12-0.06-0.21-0.09-0.3-0.17-0.65-0.17-0.73 0-0.22 0.21-0.38 0.48-0.38 0.45 0 0.78 0.28 1.41 1.21l-0.13 0.07c-0.49-0.63-0.65-0.79-0.8-0.79-0.09 0-0.15 0.08-0.15 0.2 0 0.01 0 0.02 0.01 0.05l0.87 3.32h0.84z"/><polygon id="polygon5384" points="156.77 709.4 156.77 707.12 157.32 707.12 157.32 709.4 159.6 709.4 159.6 709.96 157.32 709.96 157.32 712.21 156.77 712.21 156.77 709.96 154.49 709.96 154.49 709.4"/><path id="path5386" d="m167.04 708.23-0.02-0.03-0.03-0.03-0.02-0.03-0.03-0.02-0.02-0.03-0.02-0.02-0.02-0.03-0.02-0.02-0.02-0.02-0.02-0.02-0.02-0.03-0.02-0.02-0.02-0.02-0.02-0.02-0.03-0.03-0.03-0.04-0.03-0.03-0.03-0.03-0.03-0.03-0.03-0.02-0.02-0.03-0.02-0.02-0.03-0.02-0.02-0.01-0.02-0.02-0.02-0.02-0.02-0.01-0.01-0.01-0.02-0.01-0.02-0.01-0.01-0.01h-0.02l-0.01-0.01h-0.02-0.02l-0.01-0.01h-0.02-0.03c-0.1 0-0.18 0.09-0.18 0.2 0 0.14 0.32 1.36 0.65 2.45 0.27 0.92 0.48 1.72 0.99 3.71l-0.05 0.05c-0.53-0.11-0.89-0.17-1.53-0.23v-0.17c0.55-0.02 0.62-0.05 0.62-0.26 0-0.13-0.01-0.19-0.15-0.7l-0.44-1.63c-0.08 0.42-0.25 0.58-0.64 0.58l0.04-0.23c0.29-0.02 0.44-0.21 0.44-0.57 0-1.51-1.03-3.23-1.95-3.23-0.34 0-0.58 0.27-0.58 0.66 0 0.83 0.5 1.98 1.16 2.68 0.28 0.29 0.65 0.48 0.93 0.46l-0.04 0.23c-1.3 0-2.91-1.88-2.91-3.37 0-0.71 0.4-1.14 1.04-1.14 0.68 0 1.12 0.32 1.8 1.32-0.11-0.51-0.13-0.66-0.13-0.89 0-0.27 0.17-0.45 0.42-0.45 0.41 0 0.93 0.41 1.45 1.14z"/><path id="path5388" d="m170.63 711.39h-0.8l0.28 1.02c0.01 0.02 0.01 0.04 0.01 0.05 0 0.07-0.03 0.1-0.08 0.1-0.06 0-0.09-0.01-0.15-0.09-0.39-0.51-1.01-1-1.33-1.09-0.24-0.08-0.32-0.14-0.32-0.25 0-0.01 0-0.03 0.02-0.06h0.73l-0.72-2.74c-0.01-0.09-0.03-0.12-0.06-0.21-0.08-0.3-0.16-0.65-0.16-0.73 0-0.22 0.21-0.38 0.47-0.38 0.46 0 0.79 0.28 1.42 1.21l-0.13 0.07c-0.49-0.63-0.65-0.79-0.81-0.79-0.09 0-0.15 0.08-0.15 0.2 0 0.01 0 0.02 0.01 0.05l0.88 3.32h0.84z"/></g>
  <g id="g5538" xml:space="preserve" stroke-width="0" ns0:pdfconverter="pstoedit" transform="matrix(1.75 0 0 -1.75 -180.43 1272.2)" ns0:text="$A\&apos;$" ns0:version="0.7.2" ns0:inkscapeversion="0.91" ns0:preamble="/usr/share/inkscape/extensions/default_packages.tex" ns0:scale="1.4" ns0:texconverter="pdflatex"><path id="path5540" d="m154.58 707.28-0.06 0.01h-0.04l-0.05 0.01h-0.04l-0.04 0.01-0.04 0.01-0.04 0.01h-0.03l-0.03 0.01-0.03 0.02-0.03 0.01-0.03 0.01-0.02 0.02-0.03 0.02-0.02 0.02-0.02 0.02-0.01 0.02-0.02 0.02-0.02 0.03-0.01 0.03-0.02 0.03-0.01 0.04-0.02 0.03-0.01 0.04-0.01 0.05-0.01 0.04-0.01 0.05-0.01 0.06-0.01 0.02-0.01 0.03v0.03l-0.01 0.03v0.03l-0.01 0.03v0.04l-0.01 0.03-0.94 5.64h-0.26l-2.88-4.98c-0.79-1.33-0.89-1.44-1.29-1.52v-0.16h1.86v0.16c-0.51 0.05-0.58 0.1-0.58 0.35 0 0.19 0.03 0.28 0.19 0.62l0.57 1.12h2.19l-0.05 0.36h-1.93l1.5 2.59 0.43-2.59 0.05-0.36 0.2-1.3c0.01-0.09 0.02-0.18 0.02-0.26 0-0.38-0.14-0.47-0.77-0.53v-0.16h2.45z"/><path id="path5542" d="m157.12 713.61v0.02 0.03l-0.01 0.02v0.02l-0.01 0.02-0.01 0.02v0.02l-0.01 0.02-0.01 0.02-0.02 0.01-0.01 0.02-0.01 0.02-0.02 0.01-0.01 0.02-0.02 0.01-0.01 0.02-0.02 0.01-0.02 0.01-0.02 0.02-0.02 0.01-0.02 0.01-0.02 0.01-0.02 0.01h-0.02l-0.02 0.01-0.02 0.01h-0.02l-0.02 0.01h-0.02-0.02-0.02-0.02c-0.26 0-0.39-0.25-0.46-0.46l-0.72-2.11c-0.02-0.06-0.07-0.18-0.07-0.24 0-0.07 0.04-0.15 0.11-0.15 0.1 0 0.22 0.15 0.27 0.22l1.14 1.81c0.1 0.14 0.2 0.34 0.2 0.52z"/></g>
  <g id="g5698" xml:space="preserve" ns0:pdfconverter="pstoedit" transform="matrix(1.75 0 0 -1.75 -138.34 1264.1)" ns0:text="$C$" ns0:version="0.7.2" ns0:inkscapeversion="0.91" ns0:preamble="/usr/share/inkscape/extensions/default_packages.tex" ns0:scale="1.4" ns0:texconverter="pdflatex"><path id="path5700" stroke-width="0" d="m154.96 711.76 0.37 1.98h-0.21c-0.08-0.16-0.18-0.22-0.38-0.22-0.08 0-0.2 0.02-0.41 0.07-0.45 0.11-0.85 0.17-1.17 0.17-2.12 0-4.04-2-4.04-4.22 0-1.52 1.08-2.6 2.6-2.6 1.03 0 1.82 0.44 2.72 1.49l-0.17 0.14c-0.9-0.88-1.47-1.18-2.29-1.18-1.11 0-1.74 0.76-1.74 2.04 0 1.19 0.47 2.4 1.25 3.2 0.48 0.49 1.11 0.77 1.77 0.77 0.91 0 1.42-0.54 1.52-1.62z"/></g>
 </g>
</svg>
