<?xml version="1.0" encoding="UTF-8" standalone="no"?>
<svg id="svg4424" xmlns:rdf="http://www.w3.org/1999/02/22-rdf-syntax-ns#" xmlns="http://www.w3.org/2000/svg" xmlns:ns0="http://www.iki.fi/pav/software/textext/" height="190" width="200" version="1.1" xmlns:cc="http://creativecommons.org/ns#" xmlns:xlink="http://www.w3.org/1999/xlink" viewBox="0 0 200 190" xmlns:dc="http://purl.org/dc/elements/1.1/">
 <defs>
  <circle id="gpPt5" stroke-width=".222" stroke="currentColor" cy="0" cx="0" r="1"/>
  <use id="gpPt6" xlink:href="#gpPt5" fill="currentColor"/>
 </defs>
 <metadata id="metadata4610">
  <rdf:RDF>
   <cc:Work rdf:about="">
    <dc:format>image/svg+xml</dc:format>
    <dc:type rdf:resource="http://purl.org/dc/dcmitype/StillImage"/>
    <dc:title>Gnuplot</dc:title>
   </cc:Work>
  </rdf:RDF>
 </metadata>
 <title id="title4426">Gnuplot</title>
 <desc id="desc4428">Produced by GNUPLOT 5.0 patchlevel 3</desc>
 <g id="gnuplot_canvas">
  <g fill="none">
   <rect id="rect4431" height="190" width="200" y="0" x="0"/>
   <g stroke="currentColor">
    <g stroke-width=".5">
     <g id="g4467" color="white">
      <path id="path4469" stroke="#fff" d="m57 165l-0.1-1.4-0.1-1.4-0.2-1.4-0.2-1.4-0.3-1.3-0.5-1.4-0.4-1.3-0.6-1.3-0.6-1.3-0.6-1.3-0.8-1.2-0.8-1.1-0.9-1.2-0.9-1-0.9-1.1"/>
      <path id="path4471" stroke="#009e73" d="m57 165l-0.1-1.4-0.1-1.4-0.2-1.4-0.2-1.4-0.3-1.3-0.5-1.4-0.4-1.3-0.6-1.3-0.6-1.3-0.6-1.3-0.8-1.2-0.8-1.1-0.9-1.2-0.9-1-0.9-1.1-19.1 19.1h27"/>
      <g id="g4473" font-size="13" transform="translate(25.9,177.1)" text-anchor="end" stroke="none" font-family="Stix Two Text" fill="#000">
       <text id="text4475">
        <tspan id="tspan4477" font-family="Stix Two Text" font-style="italic">O</tspan>
       </text>
      </g>
     </g>
     <g id="g4479" color="black">
      <g id="g4481" stroke="none" shape-rendering="crispEdges">
       <polygon id="polygon4483" points="174.5 165 173 162.4 182.9 165 173 167.6" fill="#000"/>
      </g>
      <path id="path4485" stroke="#000" d="m174.5 165l-1.5-2.6 9.9 2.6-9.9 2.6 1.5-2.6m-152.1 0h152.1"/>
     </g>
     <g id="g4487" color="black">
      <g id="g4489" stroke="none" shape-rendering="crispEdges">
       <polygon id="polygon4491" points="30 20.5 27.4 22 30 12.1 32.6 22" fill="#000"/>
      </g>
      <path id="path4493" stroke="#000" d="m30 20.5l-2.6 1.5 2.6-9.9 2.6 9.9-2.6-1.5m0 152.1v-152.1"/>
     </g>
    </g>
    <g id="g4497" color="gray">
     <path id="path4499" stroke="gray" stroke-dasharray="2,4" d="m125.6 69.4l-19.1-19.1"/>
    </g>
    <g id="g4501" color="gray">
     <path id="path4503" stroke="gray" stroke-dasharray="2,4" d="m106.5 50.3l-19.2 19.2"/>
    </g>
    <g stroke-width="1.5">
     <g id="g4507" color="black">
      <g id="g4509" stroke="none" shape-rendering="crispEdges">
       <polygon id="polygon4511" points="123 72 115.7 72 125.6 69.4 123 79.3" fill="#b3b3b3"/>
      </g>
      <path id="path4513" stroke="#b3b3b3" d="m123 72h-7.3l9.9-2.6-2.6 9.9v-7.3m-16.5 16.5l16.5-16.5"/>
     </g>
     <g id="g4515" color="black">
      <g id="g4517" stroke="none" shape-rendering="crispEdges">
       <polygon id="polygon4519" points="89.9 72 89.9 79.3 87.3 69.4 97.2 72" fill="#b3b3b3"/>
      </g>
      <path id="path4521" stroke="#b3b3b3" d="m89.9 72v7.3l-2.6-9.9 9.9 2.6h-7.3m16.6 16.5l-16.6-16.5"/>
     </g>
     <g id="g4523" color="black">
      <g id="g4525" stroke="none" shape-rendering="crispEdges">
       <polygon id="polygon4527" points="106.5 54 101.4 59.2 106.5 50.3 111.6 59.2" fill="#e51e10"/>
      </g>
      <path id="path4529" stroke="#e51e10" d="m106.5 54l-5.1 5.2 5.1-8.9 5.1 8.9-5.1-5.2m0 34.5v-34.5"/>
     </g>
     <g id="g4531" color="black">
      <g id="g4533" stroke="none" shape-rendering="crispEdges">
       <polygon id="polygon4535" points="103.9 91.1 96.6 91.1 106.5 88.5 103.9 98.4" fill="#0072b2"/>
      </g>
      <path id="path4537" stroke="#0072b2" d="m103.9 91.1h-7.3l9.9-2.6-2.6 9.9v-7.3m-73.9 73.9l73.9-73.9"/>
     </g>
    </g>
    <g id="g4541" color="black">
     <g id="g4543" font-size="16" transform="translate(21 19.8)" text-anchor="middle" stroke="none" font-family="Stix Two Text" fill="#000">
      <text id="text4545">
       <tspan id="tspan4547" font-weight="bold" font-family="Stix Two Text" font-style="italic">y</tspan>
      </text>
     </g>
    </g>
    <g id="g4549" color="black">
     <g id="g4551" font-size="16" transform="translate(178 178.6)" text-anchor="middle" stroke="none" font-family="Stix Two Text" fill="#000">
      <text id="text4553">
       <tspan id="tspan4555" font-weight="bold" font-family="Stix Two Text" font-style="italic">x</tspan>
      </text>
     </g>
    </g>
   </g>
  </g>
  <g id="gnuplot_plot_1">
   <title id="title4560">NaN</title>
  </g>
  <g>
   <g id="g4566" font-size="16" font-family="Stix Two Text" color="black" stroke-width="2">
    <g id="g4568" transform="translate(64.2,128.2)" text-anchor="end">
     <text id="text4570">
      <tspan id="tspan4572" font-family="Stix Two Text" font-style="italic">r</tspan>
     </text>
    </g>
    <g id="g4574" transform="translate(58.3,156.1)">
     <text id="text4576">
      <tspan id="tspan4578" font-family="Stix Two Text" font-style="italic">θ</tspan>
     </text>
    </g>
    <g id="g4580" transform="translate(111 94.5)">
     <text id="text4582">
      <tspan id="tspan4584" font-family="Stix Two Text" font-style="italic">m</tspan>
     </text>
    </g>
   </g>
   <g stroke="currentColor" fill="none">
    <g id="g4588" color="black">
     <use id="use4590" color="rgb(240, 228,  66)" xlink:href="#gpPt6" transform="translate(106.5,88.5) scale(2.25)"/>
    </g>
    <g id="g4592" color="black">
     <g id="g4594" font-size="16" transform="translate(111 90)" stroke="none" font-family="Stix Two Text" fill="#000">
      <text id="text4596"/>
     </g>
    </g>
    <g id="g4598" color="black">
     <use id="use4600" color="black" xlink:href="#gpPt5" transform="translate(106.5,88.5) scale(2.25)"/>
    </g>
   </g>
  </g>
 </g>
 <g stroke-width="0" fill-rule="evenodd" stroke="#000" stroke-miterlimit="10.433">
  <g id="content" xml:space="preserve" ns0:pdfconverter="pstoedit" transform="matrix(1.75 0 0 -1.75 -189.06 1318.9)" ns0:text="$\\vec{v}_{\\theta}$" ns0:version="0.7.2" ns0:inkscapeversion="0.91" ns0:preamble="/usr/share/inkscape/extensions/default_packages.tex" ns0:scale="1.4" ns0:texconverter="pdflatex"><polygon id="polygon4717" points="152.93 714.56 152.64 714.32 153.18 713.32 149.85 713.32 149.76 712.93 153.1 712.93 152.12 711.92 152.31 711.68 153.98 713.12"/><path id="path4719" d="m148.92 711.14h0.02 0.02 0.02 0.02 0.02 0.01l0.02 0.01h0.02 0.03 0.02 0.02 0.02 0.02 0.02 0.02c0.39 0 0.49-0.17 0.63-1.09 0.1-0.69 0.22-2.19 0.22-2.77 0-0.28 0.02-0.35 0.08-0.35 0.25 0 1.18 1.06 2.2 2.47 0.35 0.5 0.6 1.15 0.6 1.52 0 0.32-0.25 0.59-0.55 0.59-0.22 0-0.37-0.13-0.37-0.34 0-0.16 0.06-0.28 0.24-0.44 0.13-0.12 0.18-0.2 0.18-0.3 0-0.46-0.66-1.56-1.37-2.3l-0.31-0.32c-0.07 1.4-0.13 1.92-0.26 2.66-0.2 1.02-0.2 1.04-0.29 1.04-0.05 0-0.12-0.01-0.2-0.04-0.17-0.05-0.72-0.15-1.1-0.21z"/><path id="path4721" d="m156.29 709v0.01 0.01 0.01 0.02 0.01 0.03 0.03 0.04l-0.01 0.04v0.04l-0.01 0.05v0.05l-0.01 0.05-0.01 0.05-0.02 0.05-0.01 0.05-0.02 0.05-0.02 0.06-0.02 0.05-0.02 0.05-0.03 0.05-0.03 0.05-0.03 0.05-0.04 0.04-0.02 0.02-0.02 0.02-0.02 0.02-0.02 0.02-0.02 0.02-0.02 0.02-0.03 0.02-0.02 0.01-0.03 0.02-0.03 0.01-0.03 0.01-0.03 0.02-0.03 0.01h-0.03l-0.03 0.01-0.03 0.01h-0.04l-0.03 0.01h-0.04-0.04l-0.01-0.15c0.28 0 0.39-0.24 0.39-0.64 0-0.37-0.09-0.89-0.23-1.45h-1.52c0.26 1.01 0.69 2.09 1.36 2.09l0.01 0.15c-1.23 0-2.11-1.94-2.11-3.28 0-0.25 0.04-1.36 0.92-1.36l0.1 0.16c-0.38 0-0.52 0.33-0.52 0.8 0 0.34 0.08 0.76 0.17 1.18h1.52c-0.22-0.81-0.46-1.98-1.17-1.98l-0.1-0.16c1.39 0 2.03 2.37 2.03 3.45z"/></g>
  <g id="g4937" xml:space="preserve" ns0:pdfconverter="pstoedit" transform="matrix(1.75 0 0 -1.75 -130.81 1318.9)" ns0:text="$\\vec{v}_{r}$" ns0:version="0.7.2" ns0:inkscapeversion="0.91" ns0:preamble="/usr/share/inkscape/extensions/default_packages.tex" ns0:scale="1.4" ns0:texconverter="pdflatex"><polygon id="polygon4939" points="152.64 714.32 153.18 713.32 149.85 713.32 149.76 712.93 153.1 712.93 152.12 711.92 152.31 711.68 153.98 713.12 152.93 714.56"/><path id="path4941" d="m148.92 711.14h0.02 0.02 0.02 0.02 0.02 0.01l0.02 0.01h0.02 0.03 0.02 0.02 0.02 0.02 0.02 0.02c0.39 0 0.49-0.17 0.63-1.09 0.1-0.69 0.22-2.19 0.22-2.77 0-0.28 0.02-0.35 0.08-0.35 0.25 0 1.18 1.06 2.2 2.47 0.35 0.5 0.6 1.15 0.6 1.52 0 0.32-0.25 0.59-0.55 0.59-0.22 0-0.37-0.13-0.37-0.34 0-0.16 0.06-0.28 0.24-0.44 0.13-0.12 0.18-0.2 0.18-0.3 0-0.46-0.66-1.56-1.37-2.3l-0.31-0.32c-0.07 1.4-0.13 1.92-0.26 2.66-0.2 1.02-0.2 1.04-0.29 1.04-0.05 0-0.12-0.01-0.2-0.04-0.17-0.05-0.72-0.15-1.1-0.21z"/><path id="path4943" d="m153.98 705.63 0.03 0.11 0.03 0.1 0.03 0.1 0.03 0.1 0.03 0.09 0.03 0.08 0.03 0.08 0.02 0.08 0.03 0.08 0.02 0.07 0.02 0.06 0.03 0.07 0.02 0.06 0.02 0.06 0.02 0.06 0.03 0.05 0.02 0.06 0.02 0.05 0.04 0.1 0.05 0.09 0.04 0.09 0.05 0.09 0.05 0.09 0.05 0.1 0.03 0.05 0.03 0.05c0.23 0.39 0.43 0.6 0.54 0.6 0.05 0 0.08-0.03 0.12-0.09 0.05-0.12 0.11-0.16 0.25-0.16 0.2 0 0.32 0.13 0.32 0.34 0 0.22-0.13 0.37-0.33 0.37-0.16 0-0.35-0.11-0.53-0.3-0.28-0.29-0.56-0.7-0.68-0.98l-0.09-0.25 0.37 1.51-0.02 0.02c-0.51-0.1-0.58-0.11-1.09-0.19v-0.12c0.17 0.03 0.19 0.03 0.24 0.03 0.16 0 0.24-0.07 0.24-0.19 0-0.1 0-0.1-0.11-0.57l-0.56-2.04z"/></g>
  <g id="g5167" xml:space="preserve" ns0:pdfconverter="pstoedit" transform="matrix(1.75 0 0 -1.75 -158.14 1284.2)" ns0:text="$\\vec{v}$" ns0:version="0.7.2" ns0:inkscapeversion="0.91" ns0:preamble="/usr/share/inkscape/extensions/default_packages.tex" ns0:scale="1.4" ns0:texconverter="pdflatex"><polygon id="polygon5169" points="153.1 712.93 152.12 711.92 152.31 711.68 153.98 713.12 152.93 714.56 152.64 714.32 153.18 713.32 149.85 713.32 149.76 712.93"/><path id="path5171" d="m148.92 711.14h0.02 0.02 0.02 0.02 0.02 0.01l0.02 0.01h0.02 0.03 0.02 0.02 0.02 0.02 0.02 0.02c0.39 0 0.49-0.17 0.63-1.09 0.1-0.69 0.22-2.19 0.22-2.77 0-0.28 0.02-0.35 0.08-0.35 0.25 0 1.18 1.06 2.2 2.47 0.35 0.5 0.6 1.15 0.6 1.52 0 0.32-0.25 0.59-0.55 0.59-0.22 0-0.37-0.13-0.37-0.34 0-0.16 0.06-0.28 0.24-0.44 0.13-0.12 0.18-0.2 0.18-0.3 0-0.46-0.66-1.56-1.37-2.3l-0.31-0.32c-0.07 1.4-0.13 1.92-0.26 2.66-0.2 1.02-0.2 1.04-0.29 1.04-0.05 0-0.12-0.01-0.2-0.04-0.17-0.05-0.72-0.15-1.1-0.21z"/></g>
 </g>
</svg>
