<?xml version="1.0" encoding="UTF-8" standalone="no"?>
<!-- Created with Inkscape (http://www.inkscape.org/) -->
<svg id="svg2" xmlns:rdf="http://www.w3.org/1999/02/22-rdf-syntax-ns#" xmlns="http://www.w3.org/2000/svg" height="312.34" width="308.2" version="1.1" xmlns:cc="http://creativecommons.org/ns#" xmlns:dc="http://purl.org/dc/elements/1.1/" viewBox="0 0 308.1995 312.33728">
 <style type="text/css">
  @import url('../estilo.css');
 </style>
 <defs id="defs4">
  <marker id="TriangleOutS" refY="0" refX="0" orient="auto" overflow="visible">
   <path id="path5041" d="m5.77 0-8.65 5v-10l8.65 5z" fill-rule="evenodd" transform="scale(.2)" stroke="#008000" stroke-width="1pt" fill="#008000"/>
  </marker>
  <marker id="marker4670" refY="0" refX="0" overflow="visible" orient="auto">
   <path id="path4672" stroke-linejoin="round" d="m8.7186 4.0337-10.926-4.0177 10.926-4.0177c-1.7455 2.3721-1.7354 5.6175-6e-7 8.0354z" fill-rule="evenodd" transform="matrix(1.1,0,0,1.1,1.1,0)" stroke="#000" stroke-width=".625"/>
  </marker>
  <marker id="Arrow2Lstart" refY="0" refX="0" orient="auto" overflow="visible">
   <path id="path4212" stroke-linejoin="round" d="m8.7186 4.0337-10.926-4.0177 10.926-4.0177c-1.7455 2.3721-1.7354 5.6175-6e-7 8.0354z" fill-rule="evenodd" transform="matrix(1.1,0,0,1.1,1.1,0)" stroke="#000" stroke-width=".625"/>
  </marker>
  <marker id="Arrow2Lend" refY="0" refX="0" orient="auto" overflow="visible">
   <path id="path4215" stroke-linejoin="round" d="m8.7186 4.0337-10.926-4.0177 10.926-4.0177c-1.7455 2.3721-1.7354 5.6175-6e-7 8.0354z" fill-rule="evenodd" transform="matrix(-1.1,0,0,-1.1,-1.1,0)" stroke="#000" stroke-width=".625"/>
  </marker>
 </defs>
 <metadata id="metadata7">
  <rdf:RDF>
   <cc:Work rdf:about="">
    <dc:format>image/svg+xml</dc:format>
    <dc:type rdf:resource="http://purl.org/dc/dcmitype/StillImage"/>
    <dc:title/>
   </cc:Work>
  </rdf:RDF>
 </metadata>
 <g id="layer1" transform="translate(-860.48 772.35)">
  <g stroke-linejoin="round" stroke="#000" fill="none">
   <path id="path4172" d="m1035.4-765.68v148.33" marker-start="url(#Arrow2Lstart)" stroke-width=".99994"/>
   <path id="path4184" marker-end="url(#Arrow2Lend)" d="m1035.4-617.35h-148.33" stroke-width=".99994"/>
   <path id="path4188" d="m1158.6-546.18-123.25-71.177" marker-start="url(#marker4670)"/>
  </g>
  <g font-size="18.75px" font-family="&apos;Tinos&apos;" font-style="italic" fill="#000000">
   <text id="text4716" style="word-spacing:0px;letter-spacing:0px" xml:space="preserve" line-height="125%" y="-625.10309" x="908.62073"><tspan id="tspan4718" x="908.62073" y="-625.10309">r<tspan id="tspan5419" dy="4" font-size="65%" font-style="normal" line-height="125%" font-family="&apos;Tinos&apos;">YZ</tspan></tspan></text>
   <text id="text4720" style="word-spacing:0px;letter-spacing:0px" xml:space="preserve" line-height="125%" y="-568.9093" x="1138.9607"><tspan id="tspan4722" x="1138.9607" y="-568.9093">r<tspan id="tspan5421" dy="4" font-size="65%" font-style="normal" line-height="125%" font-family="&apos;Tinos&apos;">XY</tspan></tspan></text>
   <text id="text4724" style="word-spacing:0px;letter-spacing:0px" xml:space="preserve" line-height="125%" y="-735.28937" x="1041.6729"><tspan id="tspan4726" x="1041.6729" y="-735.28937">E<tspan id="tspan4728" dy="4" font-size="65%" font-style="normal" line-height="125%" font-family="&apos;Tinos&apos;">p</tspan></tspan></text>
   <text id="text4730" style="word-spacing:0px;letter-spacing:0px" xml:space="preserve" line-height="125%" y="-733.61267" x="865.90021"><tspan id="tspan4732" x="865.90021" y="-733.61267">E<tspan id="tspan4734" dy="4" font-size="65%" font-style="normal" line-height="125%" font-family="&apos;Tinos&apos;">p</tspan><tspan dy="-4">, r</tspan><tspan id="tspan5413" dy="4" font-size="65%" font-style="normal" line-height="125%" font-family="&apos;Tinos&apos;">XY</tspan><tspan dy="-4">, r</tspan><tspan id="tspan5411" dy="4" font-size="65%" font-style="normal" line-height="125%" font-family="&apos;Tinos&apos;">YZ</tspan><tspan dy="-4">, θ = </tspan><tspan id="tspan5409" font-size="18.75px" font-style="normal" line-height="125%" font-family="&apos;Tinos&apos;">cte.</tspan></tspan></text>
  </g>
  <g fill="none">
   <path id="path5423" d="m972.87-547.65s25.988-1.056 50.671 2.8782c25.618 4.0832 46.054 78.213 65.734 78.671 32.128 0.74892 40.775-212.66 40.775-212.66" stroke="#00f" stroke-width="2"/>
   <g stroke-linejoin="round" stroke="#f00" stroke-width="2">
    <path id="path5181" d="m1004.7-549.77c-10.599-8.4657-19.882-15.799-32.038-21.227"/>
    <path id="path4193" d="m922.83-516.81c-14.955-5.9314-34.67-199.12-31.771-199.12"/>
    <path id="path5187" d="m1018.7-566.08s-7.8901-8.7129-31.882-17.36"/>
    <path id="path4199" d="m958.91-558.06c-10.271-5.9314-22.177-154.03-22.177-154.03"/>
    <path id="path4201" d="m1031.5-579.51c0.1464 0.14642 7.0192 5.4465-19.41-10.644-10.13-6.1677-12.866 8.2846-23.136 2.3532-10.271-5.9314-13.542-123.33-13.542-123.33"/>
   </g>
   <g stroke="#00f" stroke-width="2">
    <path id="path5425" d="m978.39-565.85c12.104-0.18029 24.068 0.4453 35.156 2.1107 28.427 4.328 51.889 52.686 64.841 52.686s27.505-172.45 27.505-172.45"/>
    <path id="path5427" d="m985.61-579.42c10.93 0.49521 14.455 0.58619 17.933 0.64753 29.965 0.52852 45.808 29.579 58.76 29.579s24.384-137.99 24.384-137.99"/>
    <path id="path5429-9" d="m1026-588.73c9.1288 2.7369 15.458 5.3053 21.934 5.3053 12.952 0 18.708-107.45 18.708-107.45"/>
   </g>
   <path id="path4887" marker-end="url(#TriangleOutS)" d="m1088.9-465.37s-14.33-122.21-62.105-133.68c-45.931-11.036-111.58 87.368-111.58 87.368" stroke="#008000" stroke-width="6"/>
   <g stroke-width="2">
    <path id="path5179" stroke-linejoin="round" d="m972.68-571c-5.2963-2.3355-10.564-3.8695-15.194-3.8081-11.859 0.15728-23.625 62.371-34.649 57.999" stroke="#f00"/>
    <path id="path5185" stroke-linejoin="round" d="m986.85-583.44c-11.158-4.0214-17.663 31.31-27.933 25.379" stroke="#f00"/>
    <path id="path5191" d="m995.22-594.4c10.564 0.63142 21.195 2.8194 30.744 5.6681" stroke="#00f"/>
   </g>
  </g>
 </g>
</svg>
