<?xml version="1.0" encoding="UTF-8" standalone="no"?>
<!-- Created with Inkscape (http://www.inkscape.org/) -->
<svg id="svg2" xmlns:rdf="http://www.w3.org/1999/02/22-rdf-syntax-ns#" xmlns="http://www.w3.org/2000/svg" height="232.17" width="284.75" version="1.1" xmlns:cc="http://creativecommons.org/ns#" xmlns:dc="http://purl.org/dc/elements/1.1/" viewBox="0 0 284.74997 232.17046">
 <style type="text/css">
  @import url('../estilo.css');
 </style>
 <defs id="defs4">
  <marker id="marker4670" refY="0" refX="0" overflow="visible" orient="auto">
   <path id="path4672" stroke-linejoin="round" d="m8.7186 4.0337-10.926-4.0177 10.926-4.0177c-1.7455 2.3721-1.7354 5.6175-6e-7 8.0354z" fill-rule="evenodd" transform="matrix(1.1,0,0,1.1,1.1,0)" stroke="#000" stroke-width=".625"/>
  </marker>
  <marker id="Arrow2Lstart" refY="0" refX="0" orient="auto" overflow="visible">
   <path id="path4212" stroke-linejoin="round" d="m8.7186 4.0337-10.926-4.0177 10.926-4.0177c-1.7455 2.3721-1.7354 5.6175-6e-7 8.0354z" fill-rule="evenodd" transform="matrix(1.1,0,0,1.1,1.1,0)" stroke="#000" stroke-width=".625"/>
  </marker>
  <marker id="Arrow2Lend" refY="0" refX="0" orient="auto" overflow="visible">
   <path id="path4215" stroke-linejoin="round" d="m8.7186 4.0337-10.926-4.0177 10.926-4.0177c-1.7455 2.3721-1.7354 5.6175-6e-7 8.0354z" fill-rule="evenodd" transform="matrix(-1.1,0,0,-1.1,-1.1,0)" stroke="#000" stroke-width=".625"/>
  </marker>
 </defs>
 <metadata id="metadata7">
  <rdf:RDF>
   <cc:Work rdf:about="">
    <dc:format>image/svg+xml</dc:format>
    <dc:type rdf:resource="http://purl.org/dc/dcmitype/StillImage"/>
    <dc:title/>
   </cc:Work>
  </rdf:RDF>
 </metadata>
 <g id="layer1" transform="translate(-133.85 -137.13)">
  <g stroke-linejoin="round" stroke="#000" fill="none">
   <path id="path4172" d="m288.85 143.8v148.33" marker-start="url(#Arrow2Lstart)" stroke-width=".99994"/>
   <path id="path4184" marker-end="url(#Arrow2Lend)" d="m288.85 292.13h-148.33" stroke-width=".99994"/>
   <path id="path4188" d="m412.09 363.3-123.24-71.17" marker-start="url(#marker4670)" stroke-width="1.0003"/>
  </g>
  <g font-size="18.75px" font-family="&apos;Tinos&apos;" font-style="italic" fill="#000000">
   <text id="text4716" style="word-spacing:0px;letter-spacing:0px" xml:space="preserve" line-height="125%" y="286.37595" x="162.09862"><tspan id="tspan4718" x="162.09862" y="286.37595">x</tspan></text>
   <text id="text4720" style="word-spacing:0px;letter-spacing:0px" xml:space="preserve" line-height="125%" y="340.56973" x="392.43866"><tspan id="tspan4722" x="392.43866" y="340.56973">y</tspan></text>
   <text id="text4724" style="word-spacing:0px;letter-spacing:0px" xml:space="preserve" line-height="125%" y="174.18965" x="295.1507"><tspan id="tspan4726" x="295.1507" y="174.18965">E<tspan id="tspan4728" dy="4" font-size="65%" font-style="normal" line-height="125%" font-family="&apos;Tinos&apos;">p</tspan></tspan></text>
   <text id="text4730" style="word-spacing:0px;letter-spacing:0px" xml:space="preserve" line-height="125%" y="189.86635" x="165.37807"><tspan id="tspan4732" x="165.37807" y="189.86635">E<tspan id="tspan4734" dy="4" font-size="65%" font-style="normal" line-height="125%" font-family="&apos;Tinos&apos;">p</tspan><tspan dy="-4">, x, y</tspan></tspan></text>
  </g>
 </g>
</svg>
