<?xml version="1.0" encoding="UTF-8" standalone="no"?>
<svg
   xmlns:dc="http://purl.org/dc/elements/1.1/"
   xmlns:cc="http://creativecommons.org/ns#"
   xmlns:rdf="http://www.w3.org/1999/02/22-rdf-syntax-ns#"
   xmlns:svg="http://www.w3.org/2000/svg"
   xmlns="http://www.w3.org/2000/svg"
   xmlns:xlink="http://www.w3.org/1999/xlink"
   version="1.1"
   id="svg6305"
   viewBox="0 0 215 150"
   height="150"
   width="215">
  <style type="text/css">
		@import url('../estilo.css');
	</style>
  <metadata
     id="metadata6387">
    <rdf:RDF>
      <cc:Work
         rdf:about="">
        <dc:format>image/svg+xml</dc:format>
        <dc:type
           rdf:resource="http://purl.org/dc/dcmitype/StillImage" />
        <dc:title>Gnuplot</dc:title>
      </cc:Work>
    </rdf:RDF>
  </metadata>
  <defs
     id="defs6385">
    <marker
       style="overflow:visible"
       id="marker6444"
       refX="0"
       refY="0"
       orient="auto">
      <path
         transform="matrix(-1.1,0,0,-1.1,-1.1,0)"
         d="M 8.7185878,4.0337352 -2.2072895,0.01601326 8.7185884,-4.0017078 c -1.7454984,2.3720609 -1.7354408,5.6174519 -6e-7,8.035443 z"
         style="fill:#000000;fill-opacity:1;fill-rule:evenodd;stroke:#000000;stroke-width:0.625;stroke-linejoin:round;stroke-opacity:1"
         id="path6446" />
    </marker>
    <marker
       style="overflow:visible"
       id="marker6421"
       refX="0"
       refY="0"
       orient="auto">
      <path
         transform="scale(0.8,0.8)"
         style="fill:#000000;fill-opacity:1;fill-rule:evenodd;stroke:#000000;stroke-width:1pt;stroke-opacity:1"
         d="m 5.77,0 -8.65,5 0,-10 8.65,5 z"
         id="path6423" />
    </marker>
    <marker
       style="overflow:visible"
       id="TriangleOutL"
       refX="0"
       refY="0"
       orient="auto">
      <path
         transform="scale(0.8,0.8)"
         style="fill:#000000;fill-opacity:1;fill-rule:evenodd;stroke:#000000;stroke-width:1pt;stroke-opacity:1"
         d="m 5.77,0 -8.65,5 0,-10 8.65,5 z"
         id="path4630" />
    </marker>
    <marker
       style="overflow:visible"
       id="Arrow1Mend"
       refX="0"
       refY="0"
       orient="auto">
      <path
         transform="matrix(-0.4,0,0,-0.4,-4,0)"
         style="fill:#000000;fill-opacity:1;fill-rule:evenodd;stroke:#000000;stroke-width:1pt;stroke-opacity:1"
         d="M 0,0 5,-5 -12.5,0 5,5 0,0 Z"
         id="path4497" />
    </marker>
    <marker
       style="overflow:visible"
       id="Arrow2Lend"
       refX="0"
       refY="0"
       orient="auto">
      <path
         transform="matrix(-1.1,0,0,-1.1,-1.1,0)"
         d="M 8.7185878,4.0337352 -2.2072895,0.01601326 8.7185884,-4.0017078 c -1.7454984,2.3720609 -1.7354408,5.6174519 -6e-7,8.035443 z"
         style="fill:#000000;fill-opacity:1;fill-rule:evenodd;stroke:#000000;stroke-width:0.625;stroke-linejoin:round;stroke-opacity:1"
         id="path4509" />
    </marker>
  </defs>
  <title
     id="title6307">Gnuplot</title>
  <desc
     id="desc6309">Produced by GNUPLOT 5.0 patchlevel 3 </desc>
  <g
     id="gnuplot_canvas">
    <rect
       style="fill:none"
       id="rect6312"
       height="150"
       width="200"
       y="0"
       x="0" />
    <defs
       id="defs6314">
      <circle
         style="stroke-width:0.5"
         cy="0"
         cx="0"
         r="0.5"
         id="gpDot" />
      <path
         style="stroke:currentColor;stroke-width:0.222"
         d="M -1,0 1,0 M 0,-1 0,1"
         id="gpPt0" />
      <path
         style="stroke:currentColor;stroke-width:0.222"
         d="M -1,-1 1,1 M 1,-1 -1,1"
         id="gpPt1" />
      <path
         style="stroke:currentColor;stroke-width:0.222"
         d="M -1,0 1,0 M 0,-1 0,1 m -1,-2 2,2 m -2,0 2,-2"
         id="gpPt2" />
      <rect
         style="stroke:currentColor;stroke-width:0.222"
         height="2"
         width="2"
         y="-1"
         x="-1"
         id="gpPt3" />
      <rect
         style="fill:currentColor;stroke:currentColor;stroke-width:0.222"
         height="2"
         width="2"
         y="-1"
         x="-1"
         id="gpPt4" />
      <circle
         style="stroke:currentColor;stroke-width:0.222"
         r="1"
         cy="0"
         cx="0"
         id="gpPt5" />
      <use
         height="100%"
         width="100%"
         y="0"
         x="0"
         style="fill:currentColor;stroke:none"
         id="gpPt6"
         xlink:href="#gpPt5" />
      <path
         style="stroke:currentColor;stroke-width:0.222"
         d="m 0,-1.33 -1.33,2 2.66,0 z"
         id="gpPt7" />
      <use
         height="100%"
         width="100%"
         y="0"
         x="0"
         style="fill:currentColor;stroke:none"
         id="gpPt8"
         xlink:href="#gpPt7" />
      <use
         height="100%"
         width="100%"
         y="0"
         x="0"
         style="stroke:currentColor"
         transform="scale(-1,-1)"
         id="gpPt9"
         xlink:href="#gpPt7" />
      <use
         height="100%"
         width="100%"
         y="0"
         x="0"
         style="fill:currentColor;stroke:none"
         id="gpPt10"
         xlink:href="#gpPt9" />
      <use
         height="100%"
         width="100%"
         y="0"
         x="0"
         style="stroke:currentColor"
         transform="matrix(0.70710678,0.70710678,-0.70710678,0.70710678,0,0)"
         id="gpPt11"
         xlink:href="#gpPt3" />
      <use
         height="100%"
         width="100%"
         y="0"
         x="0"
         style="fill:currentColor;stroke:none"
         id="gpPt12"
         xlink:href="#gpPt11" />
      <path
         style="stroke:currentColor;stroke-width:0.222"
         d="M 0,1.33 1.265,0.411 0.782,-1.067 -0.782,-1.076 -1.265,0.411 Z"
         id="gpPt13" />
      <use
         height="100%"
         width="100%"
         y="0"
         x="0"
         style="fill:currentColor;stroke:none"
         id="gpPt14"
         xlink:href="#gpPt13" />
      <filter
         width="1"
         height="1"
         y="0"
         x="0"
         filterUnits="objectBoundingBox"
         id="textbox">
        <feFlood
           id="feFlood6333"
           result="bgnd"
           flood-opacity="1"
           flood-color="white" />
        <feComposite
           id="feComposite6335"
           operator="atop"
           in2="bgnd"
           in="SourceGraphic" />
      </filter>
      <filter
         width="1"
         height="1"
         y="0"
         x="0"
         filterUnits="objectBoundingBox"
         id="greybox">
        <feFlood
           id="feFlood6338"
           result="grey"
           flood-opacity="1"
           flood-color="lightgrey" />
        <feComposite
           id="feComposite6340"
           operator="atop"
           in2="grey"
           in="SourceGraphic" />
      </filter>
    </defs>
    <g
       style="color:#ffffff;fill:none;stroke:#000000;stroke-width:1;stroke-linecap:butt;stroke-linejoin:miter"
       id="g6342" />
    <g
       style="color:#000000;fill:none;stroke:currentColor;stroke-width:1;stroke-linecap:butt;stroke-linejoin:miter"
       id="g6344" />
    <g
       style="color:#000000;fill:none;stroke:currentColor;stroke-width:1;stroke-linecap:butt;stroke-linejoin:miter"
       id="g6346">
      <path
         style="stroke:#000000"
         id="path6348"
         d="m 20.7,113.6 154.3,0" />
    </g>
    <g
       style="color:#000000;fill:none;stroke:currentColor;stroke-width:1;stroke-linecap:butt;stroke-linejoin:miter"
       id="g6350">
      <path
         style="stroke:#000000"
         id="path6352"
         d="m 78.6,132.9 0,-115.7" />
      <g
         style="font-size:15px;font-family:'Stix Two Text';text-anchor:end;fill:#000000;stroke:none"
         id="g6354"
         font-size="15.00"
         transform="translate(49.6,71)">
        <text
           id="text6356">
          <tspan
             style="font-family:'Stix Two Text'"
             id="tspan6358">S</tspan>
        </text>
      </g>
    </g>
    <g
       style="color:#000000;fill:none;stroke:currentColor;stroke-width:1;stroke-linecap:butt;stroke-linejoin:miter"
       id="g6360" />
    <g
       id="gnuplot_plot_1">
      <title
         id="title6363">NaN</title>
      <g
         style="color:#000000;fill:none;stroke:currentColor;stroke-width:1;stroke-linecap:butt;stroke-linejoin:miter"
         id="g6365" />
    </g>
    <g
       style="color:#ffffff;fill:none;stroke:#9400d3;stroke-width:2;stroke-linecap:butt;stroke-linejoin:miter"
       id="g6367" />
    <g
       style="color:#000000;fill:none;stroke:currentColor;stroke-width:2;stroke-linecap:butt;stroke-linejoin:miter"
       id="g6369" />
    <g
       style="color:#000000;fill:none;stroke:#000000;stroke-width:1;stroke-linecap:butt;stroke-linejoin:miter"
       id="g6371" />
    <g
       style="color:#ffffff;fill:none;stroke:currentColor;stroke-width:1;stroke-linecap:butt;stroke-linejoin:miter"
       id="g6373">
      <g
         style="stroke:none;shape-rendering:crispEdges"
         id="g6375">
        <polygon
           style="fill:#ffffff"
           id="polygon6377"
           points="82.2,112.5 82.2,112.3 82.1,112.1 82,111.9 81.9,111.7 81.8,111.5 81.7,111.4 81.5,111.2 81.4,111.1 81.3,110.9 81.1,110.8 81,110.7 80.8,110.5 80.7,110.4 80.5,110.3 80.3,110.2 80.1,110.1 79.9,110 79.7,110 79.5,109.9 79.4,109.9 79.2,109.8 79,109.8 78.8,109.8 78.6,109.8 78.3,109.8 78.1,109.8 77.9,109.8 77.7,109.9 77.6,109.9 77.4,110 77.2,110 77,110.1 76.8,110.2 76.6,110.3 76.4,110.4 76.3,110.5 76.1,110.7 76,110.8 75.8,110.9 75.7,111.1 75.6,111.2 75.4,111.4 75.3,111.5 75.2,111.7 75.1,111.9 75,112.1 74.9,112.3 74.9,112.5 74.8,112.7 74.8,112.8 74.7,113 74.7,113.2 74.7,113.4 74.7,113.6 74.7,113.9 74.7,114.1 74.7,114.3 74.8,114.5 74.8,114.6 74.9,114.8 74.9,115 75,115.2 75.1,115.4 75.2,115.6 75.3,115.8 75.4,115.9 75.6,116.1 75.7,116.2 75.8,116.4 76,116.5 76.1,116.6 76.3,116.8 76.4,116.9 76.6,117 76.8,117.1 77,117.2 77.2,117.3 77.4,117.3 77.6,117.4 77.7,117.4 77.9,117.5 78.1,117.5 78.3,117.5 78.5,117.5 78.8,117.5 79,117.5 79.2,117.5 79.4,117.4 79.5,117.4 79.7,117.3 79.9,117.3 80.1,117.2 80.3,117.1 80.5,117 80.7,116.9 80.8,116.8 81,116.6 81.1,116.5 81.3,116.4 81.4,116.2 81.5,116.1 81.7,115.9 81.8,115.8 81.9,115.6 82,115.4 82.1,115.2 82.2,115 82.2,114.8 82.3,114.6 82.3,114.5 82.4,114.3 82.4,114.1 82.4,113.9 82.4,113.6 82.4,113.4 82.4,113.2 82.4,113 82.3,112.8 82.3,112.7 " />
      </g>
      <path
         style="stroke:#000000"
         id="path6379"
         d="m 82.4,113.6 0,-0.2 0,-0.2 0,-0.2 -0.1,-0.2 0,-0.1 -0.1,-0.2 0,-0.2 -0.1,-0.2 -0.1,-0.2 -0.1,-0.2 -0.1,-0.2 -0.1,-0.1 -0.2,-0.2 -0.1,-0.1 -0.1,-0.2 -0.2,-0.1 -0.1,-0.1 -0.2,-0.2 -0.1,-0.1 -0.2,-0.1 -0.2,-0.1 -0.2,-0.1 -0.2,-0.1 -0.2,0 -0.2,-0.1 -0.1,0 -0.2,-0.1 -0.2,0 -0.2,0 -0.2,0 -0.3,0 -0.2,0 -0.2,0 -0.2,0.1 -0.1,0 -0.2,0.1 -0.2,0 -0.2,0.1 -0.2,0.1 -0.2,0.1 -0.2,0.1 -0.1,0.1 -0.2,0.2 -0.1,0.1 -0.2,0.1 -0.1,0.2 -0.1,0.1 -0.2,0.2 -0.1,0.1 -0.1,0.2 -0.1,0.2 -0.1,0.2 -0.1,0.2 0,0.2 -0.1,0.2 0,0.1 -0.1,0.2 0,0.2 0,0.2 0,0.2 0,0.3 0,0.2 0,0.2 0.1,0.2 0,0.1 0.1,0.2 0,0.2 0.1,0.2 0.1,0.2 0.1,0.2 0.1,0.2 0.1,0.1 0.2,0.2 0.1,0.1 0.1,0.2 0.2,0.1 0.1,0.1 0.2,0.2 0.1,0.1 0.2,0.1 0.2,0.1 0.2,0.1 0.2,0.1 0.2,0 0.2,0.1 0.1,0 0.2,0.1 0.2,0 0.2,0 0.2,0 0.3,0 0.2,0 0.2,0 0.2,-0.1 0.1,0 0.2,-0.1 0.2,0 0.2,-0.1 0.2,-0.1 0.2,-0.1 0.2,-0.1 0.1,-0.1 0.2,-0.2 0.1,-0.1 0.2,-0.1 0.1,-0.2 0.1,-0.1 0.2,-0.2 0.1,-0.1 0.1,-0.2 0.1,-0.2 0.1,-0.2 0.1,-0.2 0,-0.2 0.1,-0.2 0,-0.1 0.1,-0.2 0,-0.2 0,-0.2 0,-0.2" />
    </g>
    <g
       style="color:#000000;fill:none;stroke:currentColor;stroke-width:1;stroke-linecap:butt;stroke-linejoin:miter"
       id="g6381" />
  </g>
  <text
     id="text6391"
     y="58.059753"
     x="151.45195"
     style="font-style:normal;font-variant:normal;font-weight:normal;font-stretch:normal;font-size:16px;line-height:125%;font-family:'STIX Two Text';-inkscape-font-specification:'STIX Two Text, Normal';text-align:center;letter-spacing:0px;word-spacing:0px;writing-mode:lr-tb;text-anchor:middle;fill:#000000;fill-opacity:1;stroke:none;stroke-width:1px;stroke-linecap:butt;stroke-linejoin:miter;stroke-opacity:1"
     xml:space="preserve"><tspan
       y="58.059753"
       x="151.45195"
       id="tspan6393">deja de ser</tspan><tspan
       id="tspan6395"
       y="78.059753"
       x="151.45195">exhaustiva</tspan></text>
  <rect
     y="41.867222"
     x="109.06771"
     height="41.26506"
     width="85.240967"
     id="rect6397"
     style="opacity:1;fill:none;fill-opacity:0.2;stroke:#000000;stroke-width:1;stroke-linecap:butt;stroke-miterlimit:4;stroke-dasharray:none;stroke-dashoffset:0;stroke-opacity:1" />
  <path
     id="path6419"
     d="M 109.06771,83.132282 85.697857,106.50215"
     style="fill:none;fill-rule:evenodd;stroke:#000000;stroke-width:1px;stroke-linecap:butt;stroke-linejoin:miter;stroke-opacity:1;marker-end:url(#marker6444)" />
</svg>
