<?xml version="1.0" encoding="UTF-8"?>
<!-- Created with Inkscape (http://www.inkscape.org/) -->
<svg width="225.27" height="104.45" version="1.1" viewBox="0 0 225.27 104.45" xmlns="http://www.w3.org/2000/svg" xmlns:cc="http://creativecommons.org/ns#" xmlns:dc="http://purl.org/dc/elements/1.1/" xmlns:ns0="http://www.iki.fi/pav/software/textext/" xmlns:rdf="http://www.w3.org/1999/02/22-rdf-syntax-ns#">
 <style type="text/css">
  @import url('../estilo.css');
 </style>
 <metadata>
  <rdf:RDF>
   <cc:Work rdf:about="">
    <dc:format>image/svg+xml</dc:format>
    <dc:type rdf:resource="http://purl.org/dc/dcmitype/StillImage"/>
    <dc:title/>
   </cc:Work>
  </rdf:RDF>
 </metadata>
 <g transform="translate(1315.5 98.277)">
  <g>
   <text x="-1196.5765" y="-11.196586" fill="#000000" font-family="'STIX Two Text'" font-size="16px" letter-spacing="0px" word-spacing="0px" style="font-feature-settings:normal;font-variant-caps:normal;font-variant-ligatures:normal;font-variant-numeric:normal;line-height:1.25" xml:space="preserve"><tspan x="-1196.5765" y="-11.196586" font-family="'STIX Two Text'" font-size="16px" font-style="italic">W</tspan></text>
   <text x="-1208.4785" y="-42.494793" fill="#000000" font-family="'STIX Two Text'" font-size="16px" letter-spacing="0px" word-spacing="0px" style="font-feature-settings:normal;font-variant-caps:normal;font-variant-ligatures:normal;font-variant-numeric:normal;line-height:1.25" xml:space="preserve"><tspan x="-1208.4785" y="-42.494793" font-size="16px">C</tspan></text>
   <path d="m-1310.5-92.777h60.001v90.001h-60.001" fill="none" stroke="#000"/>
  </g>
  <g>
   <path d="m-1197-66.073-12.038 4.4265 12.038 4.4265c-1.9231-2.6134-1.912-6.189 0-8.853z" fill-rule="evenodd"/>
   <path d="m-1250.5-47.259h27.02v-1h-27.02z" color="#000000" color-rendering="auto" dominant-baseline="auto" image-rendering="auto" shape-rendering="auto" solid-color="#000000" style="font-feature-settings:normal;font-variant-alternates:normal;font-variant-caps:normal;font-variant-ligatures:normal;font-variant-numeric:normal;font-variant-position:normal;isolation:auto;mix-blend-mode:normal;shape-padding:0;text-decoration-color:#000000;text-decoration-line:none;text-decoration-style:solid;text-indent:0;text-orientation:mixed;text-transform:none;white-space:normal"/>
   <path d="m-1230-52.196 12.019 4.4196-12.019 4.4195c1.9201-2.6093 1.909-6.1793 0-8.8391z" fill-rule="evenodd"/>
   <path d="m-1187.7-47.259h30.5v-1h-30.5z" color="#000000" color-rendering="auto" dominant-baseline="auto" image-rendering="auto" shape-rendering="auto" solid-color="#000000" style="font-feature-settings:normal;font-variant-alternates:normal;font-variant-caps:normal;font-variant-ligatures:normal;font-variant-numeric:normal;font-variant-position:normal;isolation:auto;mix-blend-mode:normal;shape-padding:0;text-decoration-color:#000000;text-decoration-line:none;text-decoration-style:solid;text-indent:0;text-orientation:mixed;text-transform:none;white-space:normal"/>
   <path d="m-1167.2-52.196 12.019 4.4196-12.019 4.4195c1.9201-2.6093 1.909-6.1793 0-8.8391z" fill-rule="evenodd"/>
   <path d="m-1203.5-32.655h1v32.5h-1z" color="#000000" color-rendering="auto" dominant-baseline="auto" image-rendering="auto" shape-rendering="auto" solid-color="#000000" style="font-feature-settings:normal;font-variant-alternates:normal;font-variant-caps:normal;font-variant-ligatures:normal;font-variant-numeric:normal;font-variant-position:normal;isolation:auto;mix-blend-mode:normal;shape-padding:0;text-decoration-color:#000000;text-decoration-line:none;text-decoration-style:solid;text-indent:0;text-orientation:mixed;text-transform:none;white-space:normal"/>
   <path d="m-1207.5-10.845 4.4196 12.019 4.4195-12.019c-2.6093 1.9201-6.1793 1.909-8.8391 0z" fill-rule="evenodd"/>
  </g>
  <circle transform="matrix(0,1,1,0,0,0)" cx="-47.647" cy="-1203" r="15" fill="none" stroke="#000"/>
  <path d="m-1095.2-92.777h-60.001v90.001h60.001" fill="none" stroke="#000"/>
  <g>
   <text x="-1280.4896" y="-42.494793" fill="#000000" font-family="'STIX Two Text'" font-size="16px" letter-spacing="0px" word-spacing="0px" style="font-feature-settings:normal;font-variant-caps:normal;font-variant-ligatures:normal;font-variant-numeric:normal;line-height:1.25" xml:space="preserve"><tspan x="-1280.4896" y="-42.494793" font-family="'STIX Two Text'" font-size="16px" font-style="italic">T</tspan></text>
   <text x="-1135.4878" y="-42.494793" fill="#000000" font-family="'STIX Two Text'" font-size="16px" letter-spacing="0px" word-spacing="0px" style="font-feature-settings:normal;font-variant-caps:normal;font-variant-ligatures:normal;font-variant-numeric:normal;line-height:1.25" xml:space="preserve"><tspan x="-1135.4878" y="-42.494793"><tspan font-family="'STIX Two Text'" font-size="16px"><tspan font-family="'STIX Two Text'" font-style="italic">T</tspan><tspan dy="5" font-size="65%">p.t.</tspan></tspan></tspan></text>
   <g transform="matrix(1.6 0 0 -1.6 -1423 993.95)" fill-rule="evenodd" stroke="#000" stroke-miterlimit="10.433" stroke-width="0" inkscapeversion="0.92.4" ns0:alignment="middle center" ns0:jacobian_sqrt="1.600019" ns0:pdfconverter="pstoedit" ns0:preamble="/home/antonio/.config/inkscape/extensions/textext/default_packages.tex" ns0:scale="1.20001511044" ns0:texconverter="pdflatex" ns0:text="$Q_{\\rm p.t.}$" ns0:version="0.10.0" xml:space="preserve">
<path d="m151.74 657.08h0.07l0.07 0.01h0.07l0.06 0.01h0.07l0.12 0.02 0.05 0.01h0.06l0.06 0.01 0.1 0.02 0.11 0.02 0.09 0.03 0.2 0.06 0.09 0.03 0.09 0.04 0.1 0.04 0.1 0.05 0.05 0.02 0.05 0.03 0.05 0.02 0.05 0.03c1.47 0.83 2.48 2.44 2.48 4.01 0 1.34-0.96 2.31-2.28 2.31l-0.05-0.33c0.8 0 1.28-0.57 1.28-1.52 0-1.05-0.46-2.51-1.1-3.42-0.55-0.79-1.17-1.18-1.9-1.18-0.81 0-1.27 0.61-1.27 1.65 0 0.95 0.49 2.43 1.09 3.29 0.56 0.81 1.17 1.18 1.9 1.18l0.05 0.33c-0.8 0-1.7-0.41-2.5-1.12-1-0.94-1.59-2.14-1.59-3.3 0-0.81 0.3-1.49 0.84-1.91 0.26-0.21 0.48-0.3 0.91-0.4-0.9-0.8-0.99-0.88-1.76-1.41l0.1-0.15c0.38 0.21 0.76 0.3 1.15 0.3 0.19 0 0.48-0.06 0.92-0.18 0.61-0.16 1.15-0.26 1.52-0.26 0.55 0 1.25 0.25 1.75 0.65 0.24 0.18 0.37 0.32 0.63 0.68l-0.15 0.11c-0.56-0.58-0.96-0.77-1.68-0.77-0.26 0-0.47 0.04-1.23 0.22-0.52 0.13-0.99 0.22-1.05 0.21-0.04-0.01-0.06-0.01-0.06-0.01h-0.24z"/>
<path d="m156.23 658.47 0.01 0.01h0.16c0.24 0 0.29-0.07 0.29-0.4v-3.25c0-0.36-0.08-0.44-0.49-0.48v-0.12h1.69v0.13c-0.52 0-0.61 0.08-0.61 0.52v1.09c0.24-0.23 0.41-0.3 0.7-0.3l0.02 0.22c-0.33 0-0.72 0.25-0.72 0.46v1.71c0 0.21 0.39 0.46 0.71 0.46 0.52 0 0.86-0.53 0.86-1.33 0-0.78-0.34-1.3-0.85-1.3l-0.02-0.22c0.83 0 1.47 0.78 1.47 1.79 0 0.86-0.49 1.48-1.17 1.48-0.39 0-0.7-0.17-1-0.55v0.54l-0.05 0.01c-0.37-0.15-0.62-0.24-1-0.35z"/>
<path d="m160.92 656.04v0.02l-0.01 0.02v0.04l-0.01 0.02v0.02l-0.01 0.02v0.01l-0.02 0.04-0.01 0.01-0.02 0.04-0.05 0.05-0.02 0.01-0.01 0.02-0.02 0.01-0.01 0.01-0.04 0.02h-0.02l-0.01 0.01-0.02 0.01h-0.02l-0.02 0.01h-0.04l-0.02 0.01h-0.02c-0.2 0-0.38-0.18-0.38-0.4 0-0.26 0.24-0.38 0.38-0.38 0.15 0 0.4 0.12 0.4 0.38z"/>
<path d="m163.18 658.87h-0.71v0.81c0 0.07-0.01 0.09-0.05 0.09-0.05-0.06-0.09-0.13-0.14-0.2-0.26-0.38-0.56-0.71-0.68-0.74-0.07-0.05-0.11-0.1-0.11-0.13s0-0.04 0.02-0.05h0.37v-2.1c0-0.58 0.21-0.88 0.63-0.88 0.34 0 0.61 0.17 0.84 0.53l-0.09 0.08c-0.15-0.18-0.27-0.25-0.42-0.25-0.26 0-0.37 0.19-0.37 0.63v1.99h0.71z"/>
<path d="m164.61 656.04v0.02l-0.01 0.02v0.04l-0.01 0.02v0.02l-0.01 0.02-0.01 0.01v0.02l-0.01 0.02-0.01 0.01-0.02 0.04-0.02 0.01-0.01 0.02-0.01 0.01-0.02 0.01-0.01 0.01-0.01 0.02-0.04 0.02-0.01 0.01-0.02 0.01h-0.02l-0.01 0.01-0.02 0.01h-0.02l-0.02 0.01h-0.04l-0.02 0.01h-0.02c-0.21 0-0.38-0.18-0.38-0.4 0-0.26 0.24-0.38 0.38-0.38 0.15 0 0.4 0.12 0.4 0.38z"/>
</g>
   <g id="content" transform="matrix(1.6 0 0 -1.6 -1478.6 993.95)" fill="none" fill-rule="evenodd" stroke="#000" stroke-miterlimit="10.433" inkscapeversion="0.92.4" ns0:alignment="middle center" ns0:jacobian_sqrt="1.600019" ns0:pdfconverter="pstoedit" ns0:preamble="/home/antonio/.config/inkscape/extensions/textext/default_packages.tex" ns0:scale="1.20001511044" ns0:texconverter="pdflatex" ns0:text="$Q$" ns0:version="0.10.0" xml:space="preserve">
<path d="m151.74 657.08h0.07l0.07 0.01h0.07l0.06 0.01h0.07l0.12 0.02 0.05 0.01h0.06l0.06 0.01 0.1 0.02 0.11 0.02 0.09 0.03 0.2 0.06 0.09 0.03 0.09 0.04 0.1 0.04 0.1 0.05 0.05 0.02 0.05 0.03 0.05 0.02 0.05 0.03c1.47 0.83 2.48 2.44 2.48 4.01 0 1.34-0.96 2.31-2.28 2.31l-0.05-0.33c0.8 0 1.28-0.57 1.28-1.52 0-1.05-0.46-2.51-1.1-3.42-0.55-0.79-1.17-1.18-1.9-1.18-0.81 0-1.27 0.61-1.27 1.65 0 0.95 0.49 2.43 1.09 3.29 0.56 0.81 1.17 1.18 1.9 1.18l0.05 0.33c-0.8 0-1.7-0.41-2.5-1.12-1-0.94-1.59-2.14-1.59-3.3 0-0.81 0.3-1.49 0.84-1.91 0.26-0.21 0.48-0.3 0.91-0.4-0.9-0.8-0.99-0.88-1.76-1.41l0.1-0.15c0.38 0.21 0.76 0.3 1.15 0.3 0.19 0 0.48-0.06 0.92-0.18 0.61-0.16 1.15-0.26 1.52-0.26 0.55 0 1.25 0.25 1.75 0.65 0.24 0.18 0.37 0.32 0.63 0.68l-0.15 0.11c-0.56-0.58-0.96-0.77-1.68-0.77-0.26 0-0.47 0.04-1.23 0.22-0.52 0.13-0.99 0.22-1.05 0.21-0.04-0.01-0.06-0.01-0.06-0.01h-0.24z" fill="#000" stroke-width="0"/>
</g>
  </g>
 </g>
</svg>
