<?xml version="1.0" encoding="UTF-8"?>
<!-- Created with Inkscape (http://www.inkscape.org/) -->
<svg width="123.15" height="225" version="1.1" viewBox="0 0 123.15 225" xmlns="http://www.w3.org/2000/svg" xmlns:cc="http://creativecommons.org/ns#" xmlns:dc="http://purl.org/dc/elements/1.1/" xmlns:ns0="http://www.iki.fi/pav/software/textext/" xmlns:rdf="http://www.w3.org/1999/02/22-rdf-syntax-ns#">
 <style type="text/css">
  @import url('../estilo.css');
 </style>
 <metadata>
  <rdf:RDF>
   <cc:Work rdf:about="">
    <dc:format>image/svg+xml</dc:format>
    <dc:type rdf:resource="http://purl.org/dc/dcmitype/StillImage"/>
    <dc:title/>
   </cc:Work>
  </rdf:RDF>
 </metadata>
 <g transform="translate(-129.5 -57.52)">
  <path d="m225 62.52v60h-90v-60" fill="none" stroke="#000"/>
  <g>
   <path d="m170.43 163.95-4.4265 12.037-4.4264-12.037c2.6134 1.9231 6.1889 1.912 8.8529 0z" fill-rule="evenodd"/>
   <path d="m179.5 122.52v27.02h1v-27.02z" color="#000000" color-rendering="auto" dominant-baseline="auto" image-rendering="auto" shape-rendering="auto" solid-color="#000000" style="font-feature-settings:normal;font-variant-alternates:normal;font-variant-caps:normal;font-variant-ligatures:normal;font-variant-numeric:normal;font-variant-position:normal;isolation:auto;mix-blend-mode:normal;shape-padding:0;text-decoration-color:#000000;text-decoration-line:none;text-decoration-style:solid;text-indent:0;text-orientation:mixed;text-transform:none;white-space:normal"/>
   <path d="m184.44 143-4.4195 12.018-4.4195-12.018c2.6093 1.92 6.1792 1.909 8.839 0z" fill-rule="evenodd"/>
   <path d="m179.5 184.96v30.5h1v-30.5z" color="#000000" color-rendering="auto" dominant-baseline="auto" image-rendering="auto" shape-rendering="auto" solid-color="#000000" style="font-feature-settings:normal;font-variant-alternates:normal;font-variant-caps:normal;font-variant-ligatures:normal;font-variant-numeric:normal;font-variant-position:normal;isolation:auto;mix-blend-mode:normal;shape-padding:0;text-decoration-color:#000000;text-decoration-line:none;text-decoration-style:solid;text-indent:0;text-orientation:mixed;text-transform:none;white-space:normal"/>
   <path d="m184.44 205.45-4.4195 12.018-4.4195-12.018c2.6093 1.92 6.1792 1.909 8.839 0z" fill-rule="evenodd"/>
   <path d="m194.99 169.47v1h32.5v-1z" color="#000000" color-rendering="auto" dominant-baseline="auto" image-rendering="auto" shape-rendering="auto" solid-color="#000000" style="font-feature-settings:normal;font-variant-alternates:normal;font-variant-caps:normal;font-variant-ligatures:normal;font-variant-numeric:normal;font-variant-position:normal;isolation:auto;mix-blend-mode:normal;shape-padding:0;text-decoration-color:#000000;text-decoration-line:none;text-decoration-style:solid;text-indent:0;text-orientation:mixed;text-transform:none;white-space:normal"/>
   <path d="m216.8 165.53 12.018 4.4195-12.018 4.4195c1.92-2.6093 1.909-6.1792 0-8.839z" fill-rule="evenodd"/>
  </g>
  <text x="231.49167" y="175.1799" fill="#000000" font-family="'STIX Two Text'" font-size="16px" letter-spacing="0px" word-spacing="0px" style="font-feature-settings:normal;font-variant-caps:normal;font-variant-ligatures:normal;font-variant-numeric:normal;line-height:1.25" xml:space="preserve"><tspan x="231.49167" y="175.1799" font-family="'STIX Two Text'" font-style="italic">W<tspan baseline-shift="sub" font-family="'STIX Two Text'" font-size="65%" font-style="normal"/></tspan></text>
  <text x="174.54401" y="175.23592" fill="#000000" font-family="'STIX Two Text'" font-size="16px" letter-spacing="0px" word-spacing="0px" style="font-feature-settings:normal;font-variant-caps:normal;font-variant-ligatures:normal;font-variant-numeric:normal;line-height:1.25" xml:space="preserve"><tspan x="174.54401" y="175.23592">C</tspan></text>
  <circle cx="180" cy="169.97" r="15" fill="none" stroke="#000"/>
  <path d="m225 277.52v-60h-90v60" fill="none" stroke="#000"/>
  <g>
   <text x="145" y="87.519646" fill="#000000" font-family="'STIX Two Text'" font-size="16px" letter-spacing="0px" word-spacing="0px" style="font-feature-settings:normal;font-variant-caps:normal;font-variant-ligatures:normal;font-variant-numeric:normal;line-height:1.25" xml:space="preserve"><tspan x="145" y="87.519646"><tspan font-family="'STIX Two Text'" font-style="italic">θ</tspan><tspan dy="5" font-size="65%">p.t.</tspan></tspan></text>
   <g id="content" transform="matrix(1.6 0 0 -1.6 -50.32 1193.2)" fill-rule="evenodd" stroke="#000" stroke-miterlimit="10.433" stroke-width="0" inkscapeversion="0.92.4" ns0:alignment="middle center" ns0:jacobian_sqrt="1.6" ns0:pdfconverter="pstoedit" ns0:preamble="/home/antonio/.config/inkscape/extensions/textext/default_packages.tex" ns0:scale="1.2" ns0:texconverter="pdflatex" ns0:text="$Q_{\\rm p.t.}$" ns0:version="0.10.0" xml:space="preserve">
<path d="m151.74 657.08h0.07l0.07 0.01h0.07l0.06 0.01h0.07l0.12 0.02 0.05 0.01h0.06l0.06 0.01 0.1 0.02 0.11 0.02 0.09 0.03 0.2 0.06 0.09 0.03 0.09 0.04 0.1 0.04 0.1 0.05 0.05 0.02 0.05 0.03 0.05 0.02 0.05 0.03c1.47 0.83 2.48 2.44 2.48 4.01 0 1.34-0.96 2.31-2.28 2.31l-0.05-0.33c0.8 0 1.28-0.57 1.28-1.52 0-1.05-0.46-2.51-1.1-3.42-0.55-0.79-1.17-1.18-1.9-1.18-0.81 0-1.27 0.61-1.27 1.65 0 0.95 0.49 2.43 1.09 3.29 0.56 0.81 1.17 1.18 1.9 1.18l0.05 0.33c-0.8 0-1.7-0.41-2.5-1.12-1-0.94-1.59-2.14-1.59-3.3 0-0.81 0.3-1.49 0.84-1.91 0.26-0.21 0.48-0.3 0.91-0.4-0.9-0.8-0.99-0.88-1.76-1.41l0.1-0.15c0.38 0.21 0.76 0.3 1.15 0.3 0.19 0 0.48-0.06 0.92-0.18 0.61-0.16 1.15-0.26 1.52-0.26 0.55 0 1.25 0.25 1.75 0.65 0.24 0.18 0.37 0.32 0.63 0.68l-0.15 0.11c-0.56-0.58-0.96-0.77-1.68-0.77-0.26 0-0.47 0.04-1.23 0.22-0.52 0.13-0.99 0.22-1.05 0.21-0.04-0.01-0.06-0.01-0.06-0.01h-0.24z"/>
<path d="m156.23 658.47 0.01 0.01h0.16c0.24 0 0.29-0.07 0.29-0.4v-3.25c0-0.36-0.08-0.44-0.49-0.48v-0.12h1.69v0.13c-0.52 0-0.61 0.08-0.61 0.52v1.09c0.24-0.23 0.41-0.3 0.7-0.3l0.02 0.22c-0.33 0-0.72 0.25-0.72 0.46v1.71c0 0.21 0.39 0.46 0.71 0.46 0.52 0 0.86-0.53 0.86-1.33 0-0.78-0.34-1.3-0.85-1.3l-0.02-0.22c0.83 0 1.47 0.78 1.47 1.79 0 0.86-0.49 1.48-1.17 1.48-0.39 0-0.7-0.17-1-0.55v0.54l-0.05 0.01c-0.37-0.15-0.62-0.24-1-0.35z"/>
<path d="m160.92 656.04v0.02l-0.01 0.02v0.04l-0.01 0.02v0.02l-0.01 0.02v0.01l-0.02 0.04-0.01 0.01-0.02 0.04-0.05 0.05-0.02 0.01-0.01 0.02-0.02 0.01-0.01 0.01-0.04 0.02h-0.02l-0.01 0.01-0.02 0.01h-0.02l-0.02 0.01h-0.04l-0.02 0.01h-0.02c-0.2 0-0.38-0.18-0.38-0.4 0-0.26 0.24-0.38 0.38-0.38 0.15 0 0.4 0.12 0.4 0.38z"/>
<path d="m163.18 658.87h-0.71v0.81c0 0.07-0.01 0.09-0.05 0.09-0.05-0.06-0.09-0.13-0.14-0.2-0.26-0.38-0.56-0.71-0.68-0.74-0.07-0.05-0.11-0.1-0.11-0.13s0-0.04 0.02-0.05h0.37v-2.1c0-0.58 0.21-0.88 0.63-0.88 0.34 0 0.61 0.17 0.84 0.53l-0.09 0.08c-0.15-0.18-0.27-0.25-0.42-0.25-0.26 0-0.37 0.19-0.37 0.63v1.99h0.71z"/>
<path d="m164.61 656.04v0.02l-0.01 0.02v0.04l-0.01 0.02v0.02l-0.01 0.02-0.01 0.01v0.02l-0.01 0.02-0.01 0.01-0.02 0.04-0.02 0.01-0.01 0.02-0.01 0.01-0.02 0.01-0.01 0.01-0.01 0.02-0.04 0.02-0.01 0.01-0.02 0.01h-0.02l-0.01 0.01-0.02 0.01h-0.02l-0.02 0.01h-0.04l-0.02 0.01h-0.02c-0.21 0-0.38-0.18-0.38-0.4 0-0.26 0.24-0.38 0.38-0.38 0.15 0 0.4 0.12 0.4 0.38z"/>
</g>
   <g transform="matrix(1.6 0 0 -1.6 -50.32 1256.6)" fill-rule="evenodd" stroke="#000" stroke-miterlimit="10.433" stroke-width="0" inkscapeversion="0.92.4" ns0:alignment="middle center" ns0:jacobian_sqrt="1.6" ns0:pdfconverter="pstoedit" ns0:preamble="/home/antonio/.config/inkscape/extensions/textext/default_packages.tex" ns0:scale="1.2" ns0:texconverter="pdflatex" ns0:text="$Q_1$" ns0:version="0.10.0" xml:space="preserve">
<path d="m151.74 657.08h0.07l0.07 0.01h0.07l0.06 0.01h0.07l0.12 0.02 0.05 0.01h0.06l0.06 0.01 0.1 0.02 0.11 0.02 0.09 0.03 0.2 0.06 0.09 0.03 0.09 0.04 0.1 0.04 0.1 0.05 0.05 0.02 0.05 0.03 0.05 0.02 0.05 0.03c1.47 0.83 2.48 2.44 2.48 4.01 0 1.34-0.96 2.31-2.28 2.31l-0.05-0.33c0.8 0 1.28-0.57 1.28-1.52 0-1.05-0.46-2.51-1.1-3.42-0.55-0.79-1.17-1.18-1.9-1.18-0.81 0-1.27 0.61-1.27 1.65 0 0.95 0.49 2.43 1.09 3.29 0.56 0.81 1.17 1.18 1.9 1.18l0.05 0.33c-0.8 0-1.7-0.41-2.5-1.12-1-0.94-1.59-2.14-1.59-3.3 0-0.81 0.3-1.49 0.84-1.91 0.26-0.21 0.48-0.3 0.91-0.4-0.9-0.8-0.99-0.88-1.76-1.41l0.1-0.15c0.38 0.21 0.76 0.3 1.15 0.3 0.19 0 0.48-0.06 0.92-0.18 0.61-0.16 1.15-0.26 1.52-0.26 0.55 0 1.25 0.25 1.75 0.65 0.24 0.18 0.37 0.32 0.63 0.68l-0.15 0.11c-0.56-0.58-0.96-0.77-1.68-0.77-0.26 0-0.47 0.04-1.23 0.22-0.52 0.13-0.99 0.22-1.05 0.21-0.04-0.01-0.06-0.01-0.06-0.01h-0.24z"/>
<path d="m158.2 660.44-1.26-0.63v-0.1c0.08 0.04 0.16 0.06 0.19 0.08 0.13 0.05 0.24 0.07 0.31 0.07 0.15 0 0.21-0.1 0.21-0.32v-3.15c0-0.23-0.05-0.39-0.16-0.45-0.11-0.07-0.21-0.09-0.5-0.1v-0.1h1.93v0.1c-0.55 0.01-0.66 0.08-0.66 0.42v4.17z"/>
</g>
   <text x="200.88861" y="266.65564" fill="#000000" font-family="'STIX Two Text'" font-size="16px" letter-spacing="0px" word-spacing="0px" style="font-feature-settings:normal;font-variant-caps:normal;font-variant-ligatures:normal;font-variant-numeric:normal;line-height:1.25" xml:space="preserve"><tspan x="200.88861" y="266.65564"><tspan font-family="'STIX Two Text'" font-style="italic">θ</tspan><tspan dy="5" font-size="65%">1</tspan></tspan></text>
  </g>
 </g>
</svg>
