<?xml version="1.0" encoding="UTF-8"?>
<!-- Created with Inkscape (http://www.inkscape.org/) -->
<svg width="281" height="275.69" version="1.1" viewBox="0 0 281 275.69" xmlns="http://www.w3.org/2000/svg" xmlns:cc="http://creativecommons.org/ns#" xmlns:dc="http://purl.org/dc/elements/1.1/" xmlns:rdf="http://www.w3.org/1999/02/22-rdf-syntax-ns#">
 <style type="text/css">
		@import url('../estilo.css');
	</style>
 <defs>
  <marker id="marker5011" overflow="visible" orient="auto">
   <path transform="scale(-.6)" d="m8.7186 4.0337-10.926-4.0177 10.926-4.0177c-1.7455 2.3721-1.7354 5.6175-6e-7 8.0354z" fill-rule="evenodd" stroke="#000" stroke-linejoin="round" stroke-width=".625"/>
  </marker>
  <marker id="Arrow2Mend" overflow="visible" orient="auto">
   <path transform="scale(-.6)" d="m8.7186 4.0337-10.926-4.0177 10.926-4.0177c-1.7455 2.3721-1.7354 5.6175-6e-7 8.0354z" fill-rule="evenodd" stroke="#000" stroke-linejoin="round" stroke-width=".625"/>
  </marker>
 </defs>
 <metadata>
  <rdf:RDF>
   <cc:Work rdf:about="">
    <dc:format>image/svg+xml</dc:format>
    <dc:type rdf:resource="http://purl.org/dc/dcmitype/StillImage"/>
    <dc:title/>
   </cc:Work>
  </rdf:RDF>
 </metadata>
 <g transform="translate(-234.5 -582.02)">
  <rect x="305" y="712.52" width="10" height="10"/>
  <rect x="435" y="712.52" width="10" height="10"/>
  <path d="m305 722.52v-70h140v70" fill="#00f" fill-opacity=".33333" stroke="#000"/>
  <rect x="315" y="662.52" width="120" height="65" fill="#fff" fill-opacity=".99545"/>
  <path d="m315 722.52v-60h120v60" fill="none" stroke="#000"/>
  <g stroke="#000">
   <path d="m271 667.52-13 9v111l13-9z" fill="#ccc"/>
   <rect x="240" y="692.52" width="95" height="120" fill="#0ff" fill-opacity=".33182"/>
   <path d="m335 682.52v130h-95v-130" fill="none"/>
  </g>
  <g stroke="#000">
   <path d="m492 667.52-13 9v111l13-9z" fill="#ccc"/>
   <rect transform="scale(-1,1)" x="-510" y="692.52" width="95" height="120" fill="#0ff" fill-opacity=".33182"/>
   <path d="m415 682.52v130h95v-130" fill="none"/>
  </g>
  <circle cx="375" cy="604.52" r="17" fill="none" stroke="#000"/>
  <g transform="rotate(-45 362.5 574.34)">
   <path d="m333 604.02v1h32v-1z" color="#000000" color-rendering="auto" dominant-baseline="auto" image-rendering="auto" shape-rendering="auto" solid-color="#000000" style="font-feature-settings:normal;font-variant-alternates:normal;font-variant-caps:normal;font-variant-ligatures:normal;font-variant-numeric:normal;font-variant-position:normal;isolation:auto;mix-blend-mode:normal;shape-padding:0;text-decoration-color:#000000;text-decoration-line:none;text-decoration-style:solid;text-indent:0;text-orientation:mixed;text-transform:none;white-space:normal"/>
   <path d="m367 604.52-6.92 4v-8z" fill-rule="evenodd"/>
  </g>
  <path d="m358 604.52h-94v67.846" fill="none" stroke="#000" stroke-linejoin="round" stroke-width="1px"/>
  <path d="m392 604.52h93v68" fill="none" stroke="#000" stroke-linejoin="round" stroke-width="1px"/>
  <g fill="#000000" font-family="'STIX Two Text'" letter-spacing="0px" word-spacing="0px">
   <text x="261.5741" y="802.51965" font-size="13px" style="font-feature-settings:normal;font-variant-caps:normal;font-variant-ligatures:normal;font-variant-numeric:normal;line-height:1.25" xml:space="preserve"><tspan x="261.5741" y="802.51965">Fe<tspan dy="-4" font-size="65%">2+</tspan><tspan dy="4">/Fe</tspan><tspan dy="-4" font-size="65%">3+</tspan></tspan></text>
   <text x="422.46082" y="802.51965" font-size="13px" style="font-feature-settings:normal;font-variant-caps:normal;font-variant-ligatures:normal;font-variant-numeric:normal;line-height:1.25" xml:space="preserve"><tspan x="422.46082" y="802.51965">Ce(III)/Ce(IV)</tspan></text>
   <g font-size="16px">
    <g>
     <text x="240" y="672.51965" style="font-feature-settings:normal;font-variant-caps:normal;font-variant-ligatures:normal;font-variant-numeric:normal;line-height:1.25" xml:space="preserve"><tspan x="240" y="672.51965">Pt</tspan></text>
     <text x="496" y="672.51965" style="font-feature-settings:normal;font-variant-caps:normal;font-variant-ligatures:normal;font-variant-numeric:normal;line-height:1.25" xml:space="preserve"><tspan x="496" y="672.51965">Pt</tspan></text>
     <text x="329.15176" y="647.51965" style="font-feature-settings:normal;font-variant-caps:normal;font-variant-ligatures:normal;font-variant-numeric:normal;line-height:1.25" xml:space="preserve"><tspan x="329.15176" y="647.51965">Puente salino</tspan></text>
    </g>
    <text x="375.09225" y="722.51965" text-align="center" text-anchor="middle" style="font-feature-settings:normal;font-variant-caps:normal;font-variant-ligatures:normal;font-variant-numeric:normal;line-height:1.25" xml:space="preserve"><tspan x="375.09225" y="722.51965">Tapones</tspan><tspan x="375.09225" y="742.51965">porosos</tspan></text>
   </g>
  </g>
  <path d="m345 717.52h-25" fill="none" marker-end="url(#Arrow2Mend)" stroke="#000" stroke-width="1px"/>
  <path d="m405 717.52h25" fill="none" marker-end="url(#marker5011)" stroke="#000" stroke-width="1px"/>
  <text x="287.26938" y="832.51965" fill="#000000" font-family="'STIX Two Text'" font-size="16px" letter-spacing="0px" text-align="center" text-anchor="middle" word-spacing="0px" style="font-feature-settings:normal;font-variant-caps:normal;font-variant-ligatures:normal;font-variant-numeric:normal;line-height:1.25" xml:space="preserve"><tspan x="287.26938" y="832.51965">치nodo</tspan><tspan x="287.26938" y="852.51965">Oxidaci칩n</tspan></text>
  <text x="462.32538" y="832.51965" fill="#000000" font-family="'STIX Two Text'" font-size="16px" letter-spacing="0px" text-align="center" text-anchor="middle" word-spacing="0px" style="font-feature-settings:normal;font-variant-caps:normal;font-variant-ligatures:normal;font-variant-numeric:normal;line-height:1.25" xml:space="preserve"><tspan x="462.32538" y="832.51965">c치todo</tspan><tspan x="462.32538" y="852.51965">Reducci칩n</tspan></text>
 </g>
</svg>
