<?xml version="1.0" encoding="UTF-8"?>
<!-- Created with Inkscape (http://www.inkscape.org/) -->
<svg width="212.67" height="118.3" version="1.1" viewBox="0 0 212.67 118.3" xmlns="http://www.w3.org/2000/svg" xmlns:cc="http://creativecommons.org/ns#" xmlns:dc="http://purl.org/dc/elements/1.1/" xmlns:ns0="http://www.iki.fi/pav/software/textext/" xmlns:rdf="http://www.w3.org/1999/02/22-rdf-syntax-ns#">
 <defs>
  <marker id="marker3473" overflow="visible" orient="auto">
   <path transform="scale(.6) rotate(180) translate(0)" d="m8.7186 4.0337-10.926-4.0177 10.926-4.0177c-1.7455 2.3721-1.7354 5.6175-6e-7 8.0354z" fill-rule="evenodd" stroke="#000" stroke-linejoin="round" stroke-width=".625"/>
  </marker>
  <marker id="marker3137" overflow="visible" orient="auto">
   <path transform="scale(.6) translate(0)" d="m8.7186 4.0337-10.926-4.0177 10.926-4.0177c-1.7455 2.3721-1.7354 5.6175-6e-7 8.0354z" fill-rule="evenodd" stroke="#000" stroke-linejoin="round" stroke-width=".625"/>
  </marker>
  <marker id="Arrow2Mend" overflow="visible" orient="auto">
   <path transform="scale(.6) rotate(180) translate(0)" d="m8.7186 4.0337-10.926-4.0177 10.926-4.0177c-1.7455 2.3721-1.7354 5.6175-6e-7 8.0354z" fill-rule="evenodd" stroke="#000" stroke-linejoin="round" stroke-width=".625"/>
  </marker>
 </defs>
 <metadata>
  <rdf:RDF>
   <cc:Work rdf:about="">
    <dc:format>image/svg+xml</dc:format>
    <dc:type rdf:resource="http://purl.org/dc/dcmitype/StillImage"/>
    <dc:title/>
   </cc:Work>
  </rdf:RDF>
 </metadata>
 <g transform="translate(-77.419 -314.91)" stroke="#000">
  <g id="content" transform="matrix(1.7333 0 0 -1.7333 -161.98 1484.2)" fill-rule="evenodd" stroke-miterlimit="10.433" stroke-width="0" inkscapeversion="0.92.4" ns0:alignment="middle center" ns0:jacobian_sqrt="1.733333" ns0:pdfconverter="pstoedit" ns0:preamble="/home/antonio/.config/inkscape/extensions/textext/default_packages.tex" ns0:scale="1.3" ns0:texconverter="pdflatex" ns0:text="$n_2$" ns0:version="0.10.0" xml:space="preserve">
<path d="m153.3 658.4-0.21-0.26c-0.29-0.37-0.47-0.53-0.61-0.53-0.08 0-0.16 0.08-0.16 0.16 0 0.07 0 0.07 0.14 0.63l0.57 2.04c0.05 0.21 0.09 0.43 0.09 0.57 0 0.36-0.27 0.61-0.66 0.61-0.64 0-1.26-0.6-2.29-2.19l0.67 2.17-0.03 0.02c-0.54-0.11-0.75-0.15-1.62-0.31v-0.16c0.51-0.01 0.64-0.07 0.64-0.27 0-0.06-0.01-0.12-0.02-0.17l-0.96-3.48h0.75c0.47 1.57 0.56 1.79 1 2.47 0.6 0.91 1.1 1.41 1.47 1.41 0.15 0 0.24-0.11 0.24-0.29 0-0.12-0.06-0.45-0.14-0.75l-0.44-1.64c-0.13-0.51-0.16-0.65-0.16-0.75 0-0.38 0.14-0.53 0.47-0.53 0.45 0 0.71 0.2 1.4 1.12z"/>
<path d="m157.01 656.69-0.09 0.04c-0.25-0.4-0.35-0.46-0.66-0.46h-1.67l1.17 1.22c0.63 0.65 0.9 1.18 0.9 1.72 0 0.7-0.57 1.23-1.29 1.23-0.39 0-0.75-0.15-1.01-0.43-0.23-0.24-0.33-0.46-0.45-0.95l0.15-0.04c0.28 0.69 0.53 0.91 1.01 0.91 0.59 0 0.99-0.4 0.99-0.98 0-0.55-0.32-1.19-0.91-1.81l-1.25-1.32v-0.08h2.73z"/>
</g>
  <path d="m120 342.52h100" fill="none" marker-end="url(#Arrow2Mend)" stroke-width="1px"/>
  <g fill-rule="evenodd" stroke-miterlimit="10.433" stroke-width="0">
   <g transform="matrix(1.7333 0 0 -1.7333 -104.78 1498.4)" inkscapeversion="0.92.4" ns0:alignment="middle center" ns0:jacobian_sqrt="1.733333" ns0:pdfconverter="pstoedit" ns0:preamble="/home/antonio/.config/inkscape/extensions/textext/default_packages.tex" ns0:scale="1.3" ns0:texconverter="pdflatex" ns0:text="$\\Delta H_{m\'}$" ns0:version="0.10.0" xml:space="preserve">
<polygon points="151.91 663.96 148.95 657.23 149.61 657.65 151.74 662.48 153.71 657.65 149.61 657.65 148.95 657.23 154.88 657.23 152.08 663.96"/>
<path d="m163.02 663.72h-2.47v-0.16c0.58-0.07 0.7-0.15 0.7-0.42 0-0.14-0.04-0.37-0.11-0.62l-0.46-1.63h-2.84l0.54 1.94c0.15 0.5 0.41 0.69 1.01 0.73v0.16h-2.73v-0.16c0.62-0.06 0.77-0.14 0.77-0.42 0-0.14-0.04-0.37-0.11-0.62l-1.22-4.39c-0.19-0.58-0.25-0.64-0.81-0.74v-0.16h2.45v0.16c-0.6 0.08-0.71 0.15-0.71 0.44 0 0.07 0.01 0.15 0.03 0.22l0.66 2.42h2.84l-0.65-2.34c-0.15-0.52-0.36-0.67-1-0.74v-0.16h2.72v0.16c-0.64 0.06-0.78 0.14-0.78 0.42 0 0.1 0.01 0.16 0.03 0.24l1.32 4.78c0.17 0.57 0.25 0.63 0.82 0.73z"/>
<path d="m167.38 656.55-0.02-0.01-0.01-0.02-0.03-0.03v-0.01l-0.03-0.03v-0.01h-0.01v-0.01h-0.01v-0.01h-0.01v-0.01l-0.01-0.01v-0.01h-0.01v-0.01h-0.01v-0.01c-0.19-0.25-0.34-0.36-0.45-0.36-0.05 0-0.09 0.04-0.09 0.11 0 0.03 0.03 0.14 0.07 0.31l0.48 1.74c0 0.03 0.02 0.16 0.02 0.2 0 0.25-0.18 0.44-0.41 0.44-0.14 0-0.28-0.05-0.44-0.15-0.35-0.23-0.63-0.56-1.12-1.33 0.18 0.53 0.28 0.93 0.28 1.06 0 0.24-0.16 0.42-0.39 0.42-0.43 0-0.92-0.46-1.56-1.47l0.4 1.45-0.02 0.02c-0.39-0.09-0.54-0.11-1.12-0.22v-0.11h0.18c0.18 0 0.27-0.05 0.27-0.15 0-0.08-0.16-0.71-0.41-1.6-0.16-0.57-0.18-0.63-0.28-0.99h0.53c0.33 1.11 0.44 1.36 0.68 1.73 0.39 0.59 0.81 0.98 1.05 0.98 0.09 0 0.14-0.07 0.14-0.18 0-0.06-0.23-0.9-0.67-2.53h0.53c0.28 1.09 0.42 1.43 0.77 1.93 0.34 0.47 0.69 0.78 0.9 0.78 0.07 0 0.14-0.07 0.14-0.15 0-0.03-0.02-0.12-0.05-0.24l-0.41-1.6c-0.06-0.26-0.09-0.39-0.09-0.46 0-0.21 0.1-0.32 0.28-0.32 0.33 0 0.64 0.23 1.01 0.74l0.03 0.05z"/>
<path d="m169.07 659.8v0.04l-0.01 0.02v0.01l-0.01 0.02v0.01l-0.01 0.02-0.03 0.03-0.01 0.02-0.06 0.06-0.02 0.01h-0.01l-0.02 0.01-0.01 0.01h-0.01l-0.02 0.01h-0.01l-0.02 0.01h-0.03l-0.01 0.01h-0.05c-0.18 0-0.27-0.18-0.32-0.33l-0.52-1.5c-0.01-0.04-0.05-0.13-0.05-0.18 0-0.04 0.03-0.1 0.08-0.1 0.08 0 0.16 0.1 0.2 0.16l0.81 1.28c0.07 0.11 0.14 0.25 0.14 0.38z"/>
</g>
   <g transform="matrix(1.7333 0 0 -1.7333 -111.25 1471.1)" inkscapeversion="0.92.4" ns0:alignment="middle center" ns0:jacobian_sqrt="1.733333" ns0:pdfconverter="pstoedit" ns0:preamble="/home/antonio/.config/inkscape/extensions/textext/default_packages.tex" ns0:scale="1.3" ns0:texconverter="pdflatex" ns0:text="${} + n_1\'$" ns0:version="0.10.0" xml:space="preserve">
<polygon points="151.54 660.07 151.54 659.51 153.82 659.51 153.82 657.23 154.38 657.23 154.38 659.51 156.65 659.51 156.65 660.07 154.38 660.07 154.38 662.31 153.82 662.31 153.82 660.07"/>
<path d="m164.06 658.4-0.21-0.26c-0.28-0.37-0.47-0.53-0.61-0.53-0.07 0-0.15 0.08-0.15 0.16 0 0.07 0 0.07 0.14 0.63l0.56 2.04c0.05 0.21 0.09 0.43 0.09 0.57 0 0.36-0.27 0.61-0.65 0.61-0.64 0-1.27-0.6-2.3-2.19l0.67 2.17-0.03 0.02c-0.54-0.11-0.75-0.15-1.61-0.31v-0.16c0.5-0.01 0.63-0.07 0.63-0.27 0-0.06-0.01-0.12-0.02-0.17l-0.95-3.48h0.74c0.47 1.57 0.56 1.79 1 2.47 0.6 0.91 1.11 1.41 1.48 1.41 0.15 0 0.24-0.11 0.24-0.29 0-0.12-0.06-0.45-0.14-0.75l-0.44-1.64c-0.13-0.51-0.16-0.65-0.16-0.75 0-0.38 0.14-0.53 0.47-0.53 0.45 0 0.7 0.2 1.39 1.12z"/>
<path d="m166.54 663.71-0.01 0.02v0.05l-0.01 0.02v0.02l-0.03 0.06-0.01 0.01-0.02 0.04-0.08 0.08-0.02 0.01-0.01 0.01-0.14 0.07h-0.02l-0.03 0.01h-0.02l-0.02 0.01h-0.06c-0.26 0-0.38-0.25-0.46-0.46l-0.72-2.11c-0.02-0.05-0.07-0.18-0.07-0.24s0.04-0.15 0.11-0.15c0.1 0 0.22 0.15 0.27 0.23l1.15 1.8c0.1 0.14 0.2 0.34 0.2 0.52z"/>
<path d="m166.49 658.66-1.26-0.64v-0.09c0.09 0.03 0.17 0.06 0.19 0.07 0.13 0.05 0.25 0.08 0.32 0.08 0.14 0 0.21-0.11 0.21-0.33v-3.15c0-0.23-0.06-0.39-0.17-0.45-0.1-0.06-0.2-0.08-0.5-0.09v-0.1h1.93v0.1c-0.55 0.01-0.66 0.08-0.66 0.41v4.17z"/>
</g>
   <g transform="matrix(1.7333 0 0 -1.7333 -28.007 1484.2)" inkscapeversion="0.92.4" ns0:alignment="middle center" ns0:jacobian_sqrt="1.733333" ns0:pdfconverter="pstoedit" ns0:preamble="/home/antonio/.config/inkscape/extensions/textext/default_packages.tex" ns0:scale="1.3" ns0:texconverter="pdflatex" ns0:text="$n_1\' + n_2$" ns0:version="0.10.0" xml:space="preserve">
<path d="m153.3 658.4-0.21-0.26c-0.29-0.37-0.47-0.53-0.61-0.53-0.08 0-0.16 0.08-0.16 0.16 0 0.07 0 0.07 0.14 0.63l0.57 2.04c0.05 0.21 0.09 0.43 0.09 0.57 0 0.36-0.27 0.61-0.66 0.61-0.64 0-1.26-0.6-2.29-2.19l0.67 2.17-0.03 0.02c-0.54-0.11-0.75-0.15-1.62-0.31v-0.16c0.51-0.01 0.64-0.07 0.64-0.27 0-0.06-0.01-0.12-0.02-0.17l-0.96-3.48h0.75c0.47 1.57 0.56 1.79 1 2.47 0.6 0.91 1.1 1.41 1.47 1.41 0.15 0 0.24-0.11 0.24-0.29 0-0.12-0.06-0.45-0.14-0.75l-0.44-1.64c-0.13-0.51-0.16-0.65-0.16-0.75 0-0.38 0.14-0.53 0.47-0.53 0.45 0 0.71 0.2 1.4 1.12z"/>
<path d="m155.77 663.71v0.04l-0.01 0.03v0.02l-0.01 0.02v0.02l-0.02 0.04-0.01 0.01-0.01 0.02-0.02 0.02-0.01 0.02-0.03 0.03-0.02 0.01-0.01 0.02-0.18 0.09h-0.02l-0.02 0.01h-0.02l-0.02 0.01h-0.07c-0.25 0-0.38-0.25-0.45-0.46l-0.73-2.11c-0.02-0.05-0.07-0.18-0.07-0.24s0.05-0.15 0.12-0.15c0.1 0 0.22 0.15 0.27 0.23l1.14 1.8c0.1 0.14 0.2 0.34 0.2 0.52z"/>
<path d="m155.73 658.66-1.26-0.64v-0.09c0.08 0.03 0.16 0.06 0.19 0.07 0.13 0.05 0.24 0.08 0.31 0.08 0.15 0 0.21-0.11 0.21-0.33v-3.15c0-0.23-0.05-0.39-0.16-0.45s-0.21-0.08-0.5-0.09v-0.1h1.93v0.1c-0.55 0.01-0.66 0.08-0.66 0.41v4.17z"/>
<polygon points="160.51 660.07 160.51 659.51 162.79 659.51 162.79 657.23 163.34 657.23 163.34 659.51 165.62 659.51 165.62 660.07 163.34 660.07 163.34 662.31 162.79 662.31 162.79 660.07"/>
<path d="m173.03 658.4-0.21-0.26c-0.29-0.37-0.47-0.53-0.61-0.53-0.08 0-0.16 0.08-0.16 0.16 0 0.07 0 0.07 0.14 0.63l0.57 2.04c0.05 0.21 0.09 0.43 0.09 0.57 0 0.36-0.27 0.61-0.66 0.61-0.64 0-1.26-0.6-2.29-2.19l0.67 2.17-0.03 0.02c-0.54-0.11-0.75-0.15-1.62-0.31v-0.16c0.51-0.01 0.64-0.07 0.64-0.27 0-0.06-0.01-0.12-0.02-0.17l-0.96-3.48h0.75c0.47 1.57 0.56 1.79 1 2.47 0.6 0.91 1.1 1.41 1.47 1.41 0.15 0 0.24-0.11 0.24-0.29 0-0.12-0.06-0.45-0.14-0.75l-0.44-1.64c-0.12-0.51-0.16-0.65-0.16-0.75 0-0.38 0.15-0.53 0.47-0.53 0.45 0 0.71 0.2 1.4 1.12z"/>
<path d="m176.74 656.69-0.09 0.04c-0.25-0.4-0.35-0.46-0.66-0.46h-1.67l1.17 1.22c0.63 0.65 0.9 1.18 0.9 1.72 0 0.7-0.57 1.23-1.29 1.23-0.39 0-0.75-0.15-1.01-0.43-0.22-0.24-0.33-0.46-0.45-0.95l0.15-0.04c0.28 0.69 0.53 0.91 1.01 0.91 0.59 0 0.99-0.4 0.99-0.98 0-0.55-0.32-1.19-0.91-1.81l-1.25-1.32v-0.08h2.73z"/>
</g>
   <g transform="matrix(1.7333 0 0 -1.7333 -111.34 1564.8)" inkscapeversion="0.92.4" ns0:alignment="middle center" ns0:jacobian_sqrt="1.733333" ns0:pdfconverter="pstoedit" ns0:preamble="/home/antonio/.config/inkscape/extensions/textext/default_packages.tex" ns0:scale="1.3" ns0:texconverter="pdflatex" ns0:text="$n_1 + n_2$" ns0:version="0.10.0" xml:space="preserve">
<path d="m153.3 658.4-0.21-0.26c-0.29-0.37-0.47-0.53-0.61-0.53-0.08 0-0.16 0.08-0.16 0.16 0 0.07 0 0.07 0.14 0.63l0.57 2.04c0.05 0.21 0.09 0.43 0.09 0.57 0 0.36-0.27 0.61-0.66 0.61-0.64 0-1.26-0.6-2.29-2.19l0.67 2.17-0.03 0.02c-0.54-0.11-0.75-0.15-1.62-0.31v-0.16c0.51-0.01 0.64-0.07 0.64-0.27 0-0.06-0.01-0.12-0.02-0.17l-0.96-3.48h0.75c0.47 1.57 0.56 1.79 1 2.47 0.6 0.91 1.1 1.41 1.47 1.41 0.15 0 0.24-0.11 0.24-0.29 0-0.12-0.06-0.45-0.14-0.75l-0.44-1.64c-0.13-0.51-0.16-0.65-0.16-0.75 0-0.38 0.14-0.53 0.47-0.53 0.45 0 0.71 0.2 1.4 1.12z"/>
<path d="m155.73 660.44-1.26-0.63v-0.1c0.08 0.04 0.16 0.06 0.19 0.08 0.13 0.05 0.24 0.07 0.31 0.07 0.15 0 0.21-0.1 0.21-0.32v-3.15c0-0.23-0.05-0.39-0.16-0.45-0.11-0.07-0.21-0.09-0.5-0.1v-0.1h1.93v0.1c-0.55 0.01-0.66 0.08-0.66 0.42v4.17z"/>
<polygon points="160.51 660.07 160.51 659.51 162.79 659.51 162.79 657.23 163.34 657.23 163.34 659.51 165.62 659.51 165.62 660.07 163.34 660.07 163.34 662.31 162.79 662.31 162.79 660.07"/>
<path d="m173.03 658.4-0.21-0.26c-0.29-0.37-0.47-0.53-0.61-0.53-0.08 0-0.16 0.08-0.16 0.16 0 0.07 0 0.07 0.14 0.63l0.57 2.04c0.05 0.21 0.09 0.43 0.09 0.57 0 0.36-0.27 0.61-0.66 0.61-0.64 0-1.26-0.6-2.29-2.19l0.67 2.17-0.03 0.02c-0.54-0.11-0.75-0.15-1.62-0.31v-0.16c0.51-0.01 0.64-0.07 0.64-0.27 0-0.06-0.01-0.12-0.02-0.17l-0.96-3.48h0.75c0.47 1.57 0.56 1.79 1 2.47 0.6 0.91 1.1 1.41 1.47 1.41 0.15 0 0.24-0.11 0.24-0.29 0-0.12-0.06-0.45-0.14-0.75l-0.44-1.64c-0.12-0.51-0.16-0.65-0.16-0.75 0-0.38 0.15-0.53 0.47-0.53 0.45 0 0.71 0.2 1.4 1.12z"/>
<path d="m176.74 656.69-0.09 0.04c-0.25-0.4-0.35-0.46-0.66-0.46h-1.67l1.17 1.22c0.63 0.65 0.9 1.18 0.9 1.72 0 0.7-0.57 1.23-1.29 1.23-0.39 0-0.75-0.15-1.01-0.43-0.22-0.24-0.33-0.46-0.45-0.95l0.15-0.04c0.28 0.69 0.53 0.91 1.01 0.91 0.59 0 0.99-0.4 0.99-0.98 0-0.55-0.32-1.19-0.91-1.81l-1.25-1.32v-0.08h2.73z"/>
</g>
  </g>
  <path d="m110 352.52 35 60" fill="none" marker-end="url(#marker3473)" stroke-width="1px"/>
  <path d="m230 352.52-35 60" fill="none" marker-start="url(#marker3137)" stroke-width="1px"/>
  <g fill-rule="evenodd" stroke-miterlimit="10.433" stroke-width="0">
   <g transform="matrix(1.7333 0 0 -1.7333 -180.25 1515.5)" inkscapeversion="0.92.4" ns0:alignment="middle center" ns0:jacobian_sqrt="1.733333" ns0:pdfconverter="pstoedit" ns0:preamble="/home/antonio/.config/inkscape/extensions/textext/default_packages.tex" ns0:scale="1.3" ns0:texconverter="pdflatex" ns0:text="${}+ n_1$" ns0:version="0.10.0" xml:space="preserve">
<polygon points="153.82 659.51 153.82 657.23 154.38 657.23 154.38 659.51 156.65 659.51 156.65 660.07 154.38 660.07 154.38 662.31 153.82 662.31 153.82 660.07 151.54 660.07 151.54 659.51"/>
<path d="m164.06 658.4-0.21-0.26c-0.28-0.37-0.47-0.53-0.61-0.53-0.07 0-0.15 0.08-0.15 0.16 0 0.07 0 0.07 0.14 0.63l0.56 2.04c0.05 0.21 0.09 0.43 0.09 0.57 0 0.36-0.27 0.61-0.65 0.61-0.64 0-1.27-0.6-2.3-2.19l0.67 2.17-0.03 0.02c-0.54-0.11-0.75-0.15-1.61-0.31v-0.16c0.5-0.01 0.63-0.07 0.63-0.27 0-0.06-0.01-0.12-0.02-0.17l-0.95-3.48h0.74c0.47 1.57 0.56 1.79 1 2.47 0.6 0.91 1.11 1.41 1.48 1.41 0.15 0 0.24-0.11 0.24-0.29 0-0.12-0.06-0.45-0.14-0.75l-0.44-1.64c-0.13-0.51-0.16-0.65-0.16-0.75 0-0.38 0.14-0.53 0.47-0.53 0.45 0 0.7 0.2 1.39 1.12z"/>
<path d="m166.49 660.44-1.26-0.63v-0.1c0.09 0.04 0.17 0.06 0.19 0.08 0.13 0.05 0.25 0.07 0.32 0.07 0.14 0 0.21-0.1 0.21-0.32v-3.15c0-0.23-0.06-0.39-0.17-0.45-0.1-0.07-0.2-0.09-0.5-0.1v-0.1h1.93v0.1c-0.55 0.01-0.66 0.08-0.66 0.42v4.17z"/>
</g>
   <g transform="matrix(1.7333 0 0 -1.7333 -164.24 1539)" inkscapeversion="0.92.4" ns0:alignment="middle center" ns0:jacobian_sqrt="1.733333" ns0:pdfconverter="pstoedit" ns0:preamble="/home/antonio/.config/inkscape/extensions/textext/default_packages.tex" ns0:scale="1.3" ns0:texconverter="pdflatex" ns0:text="$\\Delta H_m$" ns0:version="0.10.0" xml:space="preserve">
<polygon points="153.71 657.65 149.61 657.65 148.95 657.23 154.88 657.23 152.08 663.96 151.91 663.96 148.95 657.23 149.61 657.65 151.74 662.48"/>
<path d="m163.02 663.72h-2.47v-0.16c0.58-0.07 0.7-0.15 0.7-0.42 0-0.14-0.04-0.37-0.11-0.62l-0.46-1.63h-2.84l0.54 1.94c0.15 0.5 0.41 0.69 1.01 0.73v0.16h-2.73v-0.16c0.62-0.06 0.77-0.14 0.77-0.42 0-0.14-0.04-0.37-0.11-0.62l-1.22-4.39c-0.19-0.58-0.25-0.64-0.81-0.74v-0.16h2.45v0.16c-0.6 0.08-0.71 0.15-0.71 0.44 0 0.07 0.01 0.15 0.03 0.22l0.66 2.42h2.84l-0.65-2.34c-0.15-0.52-0.36-0.67-1-0.74v-0.16h2.72v0.16c-0.64 0.06-0.78 0.14-0.78 0.42 0 0.1 0.01 0.16 0.03 0.24l1.32 4.78c0.17 0.57 0.25 0.63 0.82 0.73z"/>
<path d="m167.38 656.55-0.02-0.01-0.01-0.02-0.03-0.03v-0.01l-0.03-0.03v-0.01h-0.01v-0.01h-0.01v-0.01h-0.01v-0.01l-0.01-0.01v-0.01h-0.01v-0.01h-0.01v-0.01c-0.19-0.25-0.34-0.36-0.45-0.36-0.05 0-0.09 0.04-0.09 0.11 0 0.03 0.03 0.14 0.07 0.31l0.48 1.74c0 0.03 0.02 0.16 0.02 0.2 0 0.25-0.18 0.44-0.41 0.44-0.14 0-0.28-0.05-0.44-0.15-0.35-0.23-0.63-0.56-1.12-1.33 0.18 0.53 0.28 0.93 0.28 1.06 0 0.24-0.16 0.42-0.39 0.42-0.43 0-0.92-0.46-1.56-1.47l0.4 1.45-0.02 0.02c-0.39-0.09-0.54-0.11-1.12-0.22v-0.11h0.18c0.18 0 0.27-0.05 0.27-0.15 0-0.08-0.16-0.71-0.41-1.6-0.16-0.57-0.18-0.63-0.28-0.99h0.53c0.33 1.11 0.44 1.36 0.68 1.73 0.39 0.59 0.81 0.98 1.05 0.98 0.09 0 0.14-0.07 0.14-0.18 0-0.06-0.23-0.9-0.67-2.53h0.53c0.28 1.09 0.42 1.43 0.77 1.93 0.34 0.47 0.69 0.78 0.9 0.78 0.07 0 0.14-0.07 0.14-0.15 0-0.03-0.02-0.12-0.05-0.24l-0.41-1.6c-0.06-0.26-0.09-0.39-0.09-0.46 0-0.21 0.1-0.32 0.28-0.32 0.33 0 0.64 0.23 1.01 0.74l0.03 0.05z"/>
</g>
   <g transform="matrix(1.7333 0 0 -1.7333 -51.754 1546.9)" inkscapeversion="0.92.4" ns0:alignment="middle center" ns0:jacobian_sqrt="1.733333" ns0:pdfconverter="pstoedit" ns0:preamble="/home/antonio/.config/inkscape/extensions/textext/default_packages.tex" ns0:scale="1.3" ns0:texconverter="pdflatex" ns0:text="${} + (n_1\' - n_1)$" ns0:version="0.10.0" xml:space="preserve">
<polygon points="154.38 659.51 156.65 659.51 156.65 660.07 154.38 660.07 154.38 662.31 153.82 662.31 153.82 660.07 151.54 660.07 151.54 659.51 153.82 659.51 153.82 657.23 154.38 657.23"/>
<path d="m162.42 663.95-0.07-0.04-0.07-0.05-0.18-0.12-0.05-0.04-0.06-0.04-0.05-0.03-0.1-0.08-0.05-0.03-0.04-0.04-0.05-0.03-0.04-0.04-0.08-0.06-0.16-0.14-0.14-0.14-0.06-0.07-0.21-0.24c-0.71-0.87-1.05-1.86-1.05-3.02 0-1.26 0.36-2.24 1.24-3.25 0.41-0.48 0.67-0.7 1.19-1.01l0.12 0.16c-0.8 0.62-1.08 0.97-1.35 1.71-0.24 0.67-0.35 1.43-0.35 2.42 0 1.04 0.13 1.86 0.4 2.47 0.28 0.62 0.58 0.98 1.3 1.55z"/>
<path d="m167.38 658.4-0.21-0.26c-0.29-0.37-0.47-0.53-0.61-0.53-0.08 0-0.16 0.08-0.16 0.16 0 0.07 0 0.07 0.14 0.63l0.57 2.04c0.05 0.21 0.09 0.43 0.09 0.57 0 0.36-0.27 0.61-0.66 0.61-0.64 0-1.26-0.6-2.29-2.19l0.67 2.17-0.03 0.02c-0.54-0.11-0.75-0.15-1.62-0.31v-0.16c0.51-0.01 0.64-0.07 0.64-0.27 0-0.06-0.01-0.12-0.02-0.17l-0.96-3.48h0.75c0.47 1.57 0.56 1.79 1 2.47 0.6 0.91 1.11 1.41 1.47 1.41 0.15 0 0.24-0.11 0.24-0.29 0-0.12-0.06-0.45-0.14-0.75l-0.43-1.64c-0.13-0.51-0.16-0.65-0.16-0.75 0-0.38 0.14-0.53 0.46-0.53 0.45 0 0.71 0.2 1.4 1.12z"/>
<path d="m169.85 663.71v0.07l-0.02 0.04v0.02l-0.02 0.04-0.01 0.01-0.01 0.02-0.02 0.02-0.01 0.02-0.03 0.03-0.02 0.01-0.01 0.02-0.06 0.03-0.01 0.01-0.06 0.03-0.03 0.01-0.02 0.01h-0.02l-0.02 0.01h-0.02l-0.02 0.01h-0.06c-0.26 0-0.39-0.25-0.46-0.46l-0.72-2.11c-0.03-0.05-0.08-0.18-0.08-0.24s0.05-0.15 0.12-0.15c0.1 0 0.22 0.15 0.27 0.23l1.15 1.8c0.09 0.14 0.19 0.34 0.19 0.52z"/>
<path d="m169.81 658.66-1.26-0.64v-0.09c0.08 0.03 0.16 0.06 0.19 0.07 0.13 0.05 0.25 0.08 0.31 0.08 0.15 0 0.21-0.11 0.21-0.33v-3.15c0-0.23-0.05-0.39-0.16-0.45s-0.21-0.08-0.5-0.09v-0.1h1.93v0.1c-0.55 0.01-0.66 0.08-0.66 0.41v4.17z"/>
<polygon points="174.59 659.51 179.7 659.51 179.7 660.07 174.59 660.07"/>
<path d="m187.11 658.4-0.21-0.26c-0.29-0.37-0.47-0.53-0.61-0.53-0.08 0-0.16 0.08-0.16 0.16 0 0.07 0 0.07 0.14 0.63l0.57 2.04c0.05 0.21 0.09 0.43 0.09 0.57 0 0.36-0.27 0.61-0.66 0.61-0.64 0-1.26-0.6-2.29-2.19l0.67 2.17-0.03 0.02c-0.54-0.11-0.75-0.15-1.62-0.31v-0.16c0.51-0.01 0.64-0.07 0.64-0.27 0-0.06-0.01-0.12-0.02-0.17l-0.96-3.48h0.75c0.47 1.57 0.56 1.79 1 2.47 0.6 0.91 1.11 1.41 1.47 1.41 0.15 0 0.24-0.11 0.24-0.29 0-0.12-0.06-0.45-0.14-0.75l-0.43-1.64c-0.13-0.51-0.16-0.65-0.16-0.75 0-0.38 0.14-0.53 0.46-0.53 0.45 0 0.71 0.2 1.4 1.12z"/>
<path d="m189.54 660.44-1.26-0.63v-0.1c0.09 0.04 0.16 0.06 0.19 0.08 0.13 0.05 0.24 0.07 0.32 0.07 0.14 0 0.2-0.1 0.2-0.32v-3.15c0-0.23-0.05-0.39-0.16-0.45-0.11-0.07-0.21-0.09-0.5-0.1v-0.1h1.93v0.1c-0.55 0.01-0.66 0.08-0.66 0.42v4.17z"/>
<path d="m191.87 655.48 0.07 0.04 0.06 0.04 0.07 0.05 0.12 0.08 0.05 0.03 0.06 0.04 0.1 0.08 0.05 0.03 0.05 0.04 0.04 0.03 0.05 0.04 0.04 0.03 0.16 0.14 0.07 0.07 0.08 0.07 0.06 0.07 0.07 0.07 0.21 0.24c0.7 0.86 1.05 1.86 1.05 3.02 0 1.27-0.37 2.23-1.24 3.25-0.41 0.47-0.67 0.69-1.19 1.01l-0.12-0.16c0.8-0.62 1.07-0.97 1.35-1.72 0.24-0.66 0.35-1.42 0.35-2.41 0-1.03-0.13-1.86-0.4-2.46-0.28-0.63-0.58-0.99-1.3-1.56z"/>
</g>
   <g transform="matrix(1.7333 0 0 -1.7333 -33.209 1523.4)" inkscapeversion="0.92.4" ns0:alignment="middle center" ns0:jacobian_sqrt="1.733333" ns0:pdfconverter="pstoedit" ns0:preamble="/home/antonio/.config/inkscape/extensions/textext/default_packages.tex" ns0:scale="1.3" ns0:texconverter="pdflatex" ns0:text="$\\Delta H_{m \\to m\'}$" ns0:version="0.10.0" xml:space="preserve">
<polygon points="148.95 657.23 154.88 657.23 152.08 663.96 151.91 663.96 148.95 657.23 149.61 657.65 151.74 662.48 153.71 657.65 149.61 657.65"/>
<path d="m163.02 663.72h-2.47v-0.16c0.58-0.07 0.7-0.15 0.7-0.42 0-0.14-0.04-0.37-0.11-0.62l-0.46-1.63h-2.84l0.54 1.94c0.15 0.5 0.41 0.69 1.01 0.73v0.16h-2.73v-0.16c0.62-0.06 0.77-0.14 0.77-0.42 0-0.14-0.04-0.37-0.11-0.62l-1.22-4.39c-0.19-0.58-0.25-0.64-0.81-0.74v-0.16h2.45v0.16c-0.6 0.08-0.71 0.15-0.71 0.44 0 0.07 0.01 0.15 0.03 0.22l0.66 2.42h2.84l-0.65-2.34c-0.15-0.52-0.36-0.67-1-0.74v-0.16h2.72v0.16c-0.64 0.06-0.78 0.14-0.78 0.42 0 0.1 0.01 0.16 0.03 0.24l1.32 4.78c0.17 0.57 0.25 0.63 0.82 0.73z"/>
<path d="m167.38 656.55-0.02-0.01-0.01-0.02-0.03-0.03v-0.01l-0.03-0.03v-0.01h-0.01v-0.01h-0.01v-0.01h-0.01v-0.01l-0.01-0.01v-0.01h-0.01v-0.01h-0.01v-0.01c-0.19-0.25-0.34-0.36-0.45-0.36-0.05 0-0.09 0.04-0.09 0.11 0 0.03 0.03 0.14 0.07 0.31l0.48 1.74c0 0.03 0.02 0.16 0.02 0.2 0 0.25-0.18 0.44-0.41 0.44-0.14 0-0.28-0.05-0.44-0.15-0.35-0.23-0.63-0.56-1.12-1.33 0.18 0.53 0.28 0.93 0.28 1.06 0 0.24-0.16 0.42-0.39 0.42-0.43 0-0.92-0.46-1.56-1.47l0.4 1.45-0.02 0.02c-0.39-0.09-0.54-0.11-1.12-0.22v-0.11h0.18c0.18 0 0.27-0.05 0.27-0.15 0-0.08-0.16-0.71-0.41-1.6-0.16-0.57-0.18-0.63-0.28-0.99h0.53c0.33 1.11 0.44 1.36 0.68 1.73 0.39 0.59 0.81 0.98 1.05 0.98 0.09 0 0.14-0.07 0.14-0.18 0-0.06-0.23-0.9-0.67-2.53h0.53c0.28 1.09 0.42 1.43 0.77 1.93 0.34 0.47 0.69 0.78 0.9 0.78 0.07 0 0.14-0.07 0.14-0.15 0-0.03-0.02-0.12-0.05-0.24l-0.41-1.6c-0.06-0.26-0.09-0.39-0.09-0.46 0-0.21 0.1-0.32 0.28-0.32 0.33 0 0.64 0.23 1.01 0.74l0.03 0.05z"/>
<polygon points="172.53 656.1 173.9 657.53 172.53 658.95 172.31 658.72 173.15 657.72 168.03 657.72 168.03 657.33 173.15 657.33 172.31 656.33"/>
<path d="m179.13 656.55-0.01-0.01-0.01-0.02-0.04-0.04v-0.01h-0.01v-0.01h-0.01v-0.01l-0.02-0.02v-0.01h-0.01v-0.01h-0.01v-0.01l-0.01-0.01v-0.01h-0.01v-0.01c-0.2-0.25-0.34-0.36-0.45-0.36-0.05 0-0.09 0.04-0.09 0.11 0 0.03 0.03 0.14 0.07 0.31l0.48 1.74c0 0.03 0.02 0.16 0.02 0.2 0 0.25-0.18 0.44-0.42 0.44-0.13 0-0.27-0.05-0.44-0.15-0.34-0.23-0.63-0.56-1.11-1.33 0.18 0.53 0.28 0.93 0.28 1.06 0 0.24-0.16 0.42-0.4 0.42-0.42 0-0.91-0.46-1.56-1.47l0.41 1.45-0.02 0.02c-0.39-0.09-0.54-0.11-1.12-0.22v-0.11h0.17c0.19 0 0.28-0.05 0.28-0.15 0-0.08-0.16-0.71-0.41-1.6-0.17-0.57-0.19-0.63-0.28-0.99h0.53c0.33 1.11 0.44 1.36 0.67 1.73 0.4 0.59 0.82 0.98 1.05 0.98 0.09 0 0.14-0.07 0.14-0.18 0-0.06-0.22-0.9-0.66-2.53h0.52c0.28 1.09 0.42 1.43 0.78 1.93 0.34 0.47 0.69 0.78 0.89 0.78 0.08 0 0.14-0.07 0.14-0.15 0-0.03-0.01-0.12-0.05-0.24l-0.4-1.6c-0.06-0.26-0.09-0.39-0.09-0.46 0-0.21 0.1-0.32 0.28-0.32 0.33 0 0.64 0.23 1.01 0.74l0.03 0.05z"/>
<path d="m180.83 659.8v0.03l-0.01 0.01v0.03l-0.01 0.02-0.01 0.01v0.02l-0.03 0.03-0.01 0.02-0.05 0.05-0.02 0.01-0.01 0.01h-0.01l-0.02 0.01-0.01 0.01h-0.02l-0.01 0.01h-0.01l-0.02 0.01h-0.03l-0.01 0.01h-0.05c-0.18 0-0.27-0.18-0.32-0.33l-0.52-1.5c-0.01-0.04-0.05-0.13-0.05-0.18 0-0.04 0.03-0.1 0.08-0.1 0.08 0 0.16 0.1 0.19 0.16l0.82 1.28c0.07 0.11 0.14 0.25 0.14 0.38z"/>
</g>
  </g>
 </g>
</svg>
