<?xml version="1.0" encoding="UTF-8" standalone="no"?>
<svg id="svg4354" xmlns:rdf="http://www.w3.org/1999/02/22-rdf-syntax-ns#" xmlns="http://www.w3.org/2000/svg" xmlns:ns0="http://www.iki.fi/pav/software/textext/" height="160" width="160" version="1.1" xmlns:cc="http://creativecommons.org/ns#" xmlns:xlink="http://www.w3.org/1999/xlink" viewBox="0 0 160 160" xmlns:dc="http://purl.org/dc/elements/1.1/">
 <style type="text/css">
	 @import url('../estilo.css');
 </style>
 <defs>
  <path id="gpPt1" stroke="currentColor" stroke-width=".222" d="m-1-1l2 2m0-2l-2 2"/>
  <circle id="gpPt5" stroke-width=".222" cy="0" stroke="currentColor" cx="0" r="1"/>
  <use id="gpPt6" xlink:href="#gpPt5" fill="currentColor"/>
 </defs>
 <metadata id="metadata4499">
  <rdf:RDF>
   <cc:Work rdf:about="">
    <dc:format>image/svg+xml</dc:format>
    <dc:type rdf:resource="http://purl.org/dc/dcmitype/StillImage"/>
    <dc:title>Gnuplot</dc:title>
   </cc:Work>
  </rdf:RDF>
 </metadata>
 <title id="title4356">Gnuplot</title>
 <desc id="desc4358">Produced by GNUPLOT 5.0 patchlevel 3</desc>
 <g id="gnuplot_canvas">
  <rect id="rect4361" height="160" width="160" y="0" x="0" fill="none"/>
  <g id="gnuplot_plot_1a">
   <title id="title4398"/>
   <g id="g4402" color="black" stroke="currentColor" stroke-width=".5" fill="none">
    <path id="path4404" stroke="#000" d="m96.2 80l-0.1-0.2v-0.3-0.3-0.3-0.3-0.3-0.3-0.3l-0.1-0.3v-0.2-0.3l-0.1-0.3v-0.3l-0.1-0.3v-0.3-0.3l-0.1-0.3v-0.2l-0.1-0.3-0.1-0.3v-0.3l-0.1-0.3-0.1-0.3v-0.2l-0.1-0.3-0.1-0.3-0.1-0.3v-0.3l-0.1-0.2-0.1-0.3-0.1-0.3-0.1-0.3-0.1-0.2-0.1-0.3-0.1-0.3-0.1-0.2-0.1-0.3-0.1-0.3-0.2-0.2-0.1-0.3-0.1-0.3-0.1-0.2-0.1-0.3-0.2-0.3-0.1-0.2-0.1-0.3-0.2-0.2-0.1-0.3-0.2-0.2-0.1-0.3-0.1-0.2-0.2-0.3-0.2-0.2-0.1-0.3-0.2-0.2-0.1-0.3-0.2-0.2-0.2-0.2-0.1-0.3-0.2-0.2-0.2-0.2-0.1-0.3-0.2-0.2-0.2-0.2-0.2-0.3-0.2-0.2-0.2-0.2-0.2-0.2-0.1-0.2-0.2-0.3-0.2-0.2-0.2-0.2-0.2-0.2-0.2-0.2-0.2-0.2-0.3-0.2-0.2-0.2-0.2-0.2-0.2-0.2-0.2-0.2-0.2-0.2-0.2-0.2-0.3-0.2-0.2-0.1-0.2-0.2-0.2-0.2-0.3-0.2-0.2-0.2-0.2-0.1-0.3-0.2-0.2-0.2-0.3-0.1-0.2-0.2-0.2-0.1-0.3-0.2-0.2-0.2-0.3-0.1-0.2-0.2-0.3-0.1"/>
   </g>
  </g>
  <g stroke="currentColor" fill="none">
   <g id="g4414" color="black">
    <g id="g4416" font-size="16" transform="translate(94.5,67.8)" stroke="none" font-family="Stix Two Text" fill="#000">
     <text id="text4418">
      <tspan id="tspan4420" font-family="Stix Two Text" font-style="italic">θ</tspan>
     </text>
    </g>
   </g>
   <g id="g4424" color="black" stroke-width=".5">
    <path id="path4426" stroke="#000" stroke-dasharray="1.2,2.0" d="m68.7 80l36.6-63.3"/>
   </g>
   <g id="g4430" color="black" stroke-width="1.5">
    <g id="g4432" stroke="none" shape-rendering="crispEdges">
     <polygon id="polygon4434" points="66.9 83.2 59.8 85.1 68.7 80 68.7 90.2" fill="#0072b2"/>
    </g>
    <path id="path4436" stroke="#0072b2" d="m66.9 83.2l-7.1 1.9 8.9-5.1v10.2l-1.8-7m-34.8 60.2l34.8-60.2"/>
   </g>
   <g id="g4438" color="black" stroke-width="1.5">
    <g id="g4440" stroke="none" shape-rendering="crispEdges">
     <polygon id="polygon4442" points="119.9 80 114.7 74.9 123.6 80 114.7 85.1" fill="#0f0"/>
    </g>
    <path id="path4444" stroke="#0f0" d="m119.9 80l-5.2-5.1 8.9 5.1-8.9 5.1 5.2-5.1m-51.2 0h51.2"/>
   </g>
  </g>
  <g id="gnuplot_plot_1b">
   <title id="title4451">NaN</title>
  </g>
  <g stroke="currentColor" fill="none">
   <g id="g4457" color="black" stroke-width="2">
    <g id="g4459" font-size="16" transform="translate(13.8,149.4)" stroke="none" font-family="Stix Two Text" fill="#000">
     <text id="text4461">
      <tspan id="tspan4463" font-family="Stix Two Text" font-style="italic">O</tspan>
     </text>
    </g>
   </g>
   <g>
    <g id="g4467" color="black">
     <use id="use4469" color="rgb(229,  30,  16)" xlink:href="#gpPt6" transform="translate(32.1,143.4) scale(3.38)"/>
    </g>
    <g id="g4471" color="black">
     <g id="g4473" font-size="16" transform="translate(36.6,144.9)" stroke="none" font-family="Stix Two Text" fill="#000">
      <text id="text4475"/>
     </g>
    </g>
    <g id="g4477" color="black">
     <use id="use4479" color="black" xlink:href="#gpPt5" transform="translate(32.1,143.4) scale(3.38)"/>
    </g>
    <g id="g4481" color="black">
     <g id="g4483" font-size="16" transform="translate(73.2,81.5)" stroke="none" font-family="Stix Two Text" fill="#000">
      <text id="text4485"/>
     </g>
    </g>
    <g id="g4487" color="black">
     <use id="use4489" color="black" xlink:href="#gpPt1" transform="translate(68.7 80) scale(4.5)"/>
    </g>
   </g>
  </g>
 </g>
 <g id="content" xml:space="preserve" stroke="#000" stroke-width="0" fill-rule="evenodd" ns0:pdfconverter="pstoedit" transform="matrix(1.75 0 0 -1.75 -220.8 1348.5)" stroke-miterlimit="10.433" ns0:text="$\n\\vec{r}\n$" ns0:version="0.7.2" ns0:inkscapeversion="0.91" ns0:preamble="/usr/share/inkscape/extensions/default_packages.tex" ns0:scale="1.4" ns0:texconverter="pdflatex"><polygon id="polygon4586" points="152.86 714.56 152.57 714.32 153.11 713.32 149.78 713.32 149.69 712.93 153.03 712.93 152.05 711.92 152.24 711.68 153.91 713.12"/><path id="path4588" d="m149.91 707.12 0.05 0.16 0.05 0.15 0.04 0.14 0.04 0.13 0.05 0.13 0.03 0.12 0.04 0.12 0.04 0.11 0.03 0.11 0.04 0.1 0.03 0.1 0.03 0.09 0.04 0.09 0.03 0.08 0.03 0.08 0.03 0.08 0.03 0.08 0.03 0.07 0.06 0.14 0.07 0.14 0.06 0.13 0.07 0.13 0.07 0.13 0.08 0.13 0.04 0.07 0.04 0.07c0.33 0.56 0.61 0.87 0.78 0.87 0.06 0 0.11-0.04 0.16-0.14 0.08-0.17 0.16-0.22 0.36-0.22 0.29 0 0.46 0.18 0.46 0.49s-0.2 0.52-0.47 0.52c-0.23 0-0.5-0.15-0.76-0.42-0.41-0.42-0.81-1.01-0.97-1.41l-0.14-0.36 0.53 2.17-0.03 0.02c-0.73-0.13-0.82-0.15-1.54-0.27v-0.17c0.24 0.05 0.27 0.05 0.34 0.05 0.21 0 0.34-0.1 0.34-0.28 0-0.14 0-0.14-0.16-0.82l-0.8-2.91z"/></g>
 <g id="g4762" xml:space="preserve" stroke="#000" stroke-width="0" fill-rule="evenodd" ns0:pdfconverter="pstoedit" transform="matrix(1.75 0 0 -1.75 -146.07 1335.9)" stroke-miterlimit="10.433" ns0:text="$\n\\vec{p}\n$" ns0:version="0.7.2" ns0:inkscapeversion="0.91" ns0:preamble="/usr/share/inkscape/extensions/default_packages.tex" ns0:scale="1.4" ns0:texconverter="pdflatex"><polygon id="polygon4764" points="154.32 713.32 150.99 713.32 150.9 712.93 154.24 712.93 153.26 711.92 153.45 711.68 155.12 713.12 154.07 714.56 153.78 714.32"/><path id="path4766" d="m150.02 711.15h0.23s0.02 0 0.03 0.01c0.13 0.06 0.38-0.13 0.38-0.28 0-0.09-0.35-1.51-0.7-2.82-0.27-1-0.51-1.94-0.58-2.23-0.11-0.46-0.24-0.58-0.67-0.59v-0.16h2.05v0.15c-0.47 0-0.64 0.09-0.64 0.3 0 0.14 0.17 0.92 0.37 1.65 0.25-0.13 0.42-0.17 0.65-0.17l-0.04 0.19c-0.28 0-0.47 0.15-0.47 0.37 0 0.34 0.35 1.65 0.64 2.38 0.27 0.68 0.85 1.17 1.35 1.14 0.43-0.02 0.62-0.28 0.62-0.86 0-0.66-0.29-1.51-0.72-2.13-0.42-0.59-0.9-0.9-1.42-0.9l0.04-0.19c1.46 0 2.99 1.68 2.99 3.26 0 0.78-0.44 1.25-1.14 1.25-0.65 0-1.13-0.32-1.71-1.13l0.29 1 0.03 0.09s-0.01 0.01-0.02 0.03l-0.02 0.01c0 0.01-0.01 0.01-0.01 0.01l-0.02-0.01-1.53-0.22z"/></g>
</svg>
